<?xml version="1.0" encoding="utf-8" standalone="no"?>
<!DOCTYPE svg PUBLIC "-//W3C//DTD SVG 1.1//EN"
  "http://www.w3.org/Graphics/SVG/1.1/DTD/svg11.dtd">
<svg xmlns:xlink="http://www.w3.org/1999/xlink" width="1008pt" height="432pt" viewBox="0 0 1008 432" xmlns="http://www.w3.org/2000/svg" version="1.1">
 <metadata>
  <rdf:RDF xmlns:dc="http://purl.org/dc/elements/1.1/" xmlns:cc="http://creativecommons.org/ns#" xmlns:rdf="http://www.w3.org/1999/02/22-rdf-syntax-ns#">
   <cc:Work>
    <dc:type rdf:resource="http://purl.org/dc/dcmitype/StillImage"/>
    <dc:date>2025-12-12T00:30:25.691284</dc:date>
    <dc:format>image/svg+xml</dc:format>
    <dc:creator>
     <cc:Agent>
      <dc:title>Matplotlib v3.10.7, https://matplotlib.org/</dc:title>
     </cc:Agent>
    </dc:creator>
   </cc:Work>
  </rdf:RDF>
 </metadata>
 <defs>
  <style type="text/css">*{stroke-linejoin: round; stroke-linecap: butt}</style>
 </defs>
 <g id="figure_1">
  <g id="patch_1">
   <path d="M 0 432 
L 1008 432 
L 1008 0 
L 0 0 
z
" style="fill: #ffffff"/>
  </g>
  <g id="axes_1">
   <g id="patch_2">
    <path d="M 53.105 399.1 
L 995.04 399.1 
L 995.04 29.76 
L 53.105 29.76 
z
" style="fill: #ffffff"/>
   </g>
   <g id="matplotlib.axis_1">
    <g id="xtick_1">
     <g id="line2d_1">
      <path d="M 95.920227 399.1 
L 95.920227 29.76 
" clip-path="url(#p21b8479969)" style="fill: none; stroke: #cccccc; stroke-linecap: round"/>
     </g>
     <g id="text_1">
      <!-- 2024-09 -->
      <g style="fill: #262626" transform="translate(75.737805 416.473594) scale(0.11 -0.11)">
       <defs>
        <path id="ArialMT-32" d="M 3222 541 
L 3222 0 
L 194 0 
Q 188 203 259 391 
Q 375 700 629 1000 
Q 884 1300 1366 1694 
Q 2113 2306 2375 2664 
Q 2638 3022 2638 3341 
Q 2638 3675 2398 3904 
Q 2159 4134 1775 4134 
Q 1369 4134 1125 3890 
Q 881 3647 878 3216 
L 300 3275 
Q 359 3922 746 4261 
Q 1134 4600 1788 4600 
Q 2447 4600 2831 4234 
Q 3216 3869 3216 3328 
Q 3216 3053 3103 2787 
Q 2991 2522 2730 2228 
Q 2469 1934 1863 1422 
Q 1356 997 1212 845 
Q 1069 694 975 541 
L 3222 541 
z
" transform="scale(0.015625)"/>
        <path id="ArialMT-30" d="M 266 2259 
Q 266 3072 433 3567 
Q 600 4063 929 4331 
Q 1259 4600 1759 4600 
Q 2128 4600 2406 4451 
Q 2684 4303 2865 4023 
Q 3047 3744 3150 3342 
Q 3253 2941 3253 2259 
Q 3253 1453 3087 958 
Q 2922 463 2592 192 
Q 2263 -78 1759 -78 
Q 1097 -78 719 397 
Q 266 969 266 2259 
z
M 844 2259 
Q 844 1131 1108 757 
Q 1372 384 1759 384 
Q 2147 384 2411 759 
Q 2675 1134 2675 2259 
Q 2675 3391 2411 3762 
Q 2147 4134 1753 4134 
Q 1366 4134 1134 3806 
Q 844 3388 844 2259 
z
" transform="scale(0.015625)"/>
        <path id="ArialMT-34" d="M 2069 0 
L 2069 1097 
L 81 1097 
L 81 1613 
L 2172 4581 
L 2631 4581 
L 2631 1613 
L 3250 1613 
L 3250 1097 
L 2631 1097 
L 2631 0 
L 2069 0 
z
M 2069 1613 
L 2069 3678 
L 634 1613 
L 2069 1613 
z
" transform="scale(0.015625)"/>
        <path id="ArialMT-2d" d="M 203 1375 
L 203 1941 
L 1931 1941 
L 1931 1375 
L 203 1375 
z
" transform="scale(0.015625)"/>
        <path id="ArialMT-39" d="M 350 1059 
L 891 1109 
Q 959 728 1153 556 
Q 1347 384 1650 384 
Q 1909 384 2104 503 
Q 2300 622 2425 820 
Q 2550 1019 2634 1356 
Q 2719 1694 2719 2044 
Q 2719 2081 2716 2156 
Q 2547 1888 2255 1720 
Q 1963 1553 1622 1553 
Q 1053 1553 659 1965 
Q 266 2378 266 3053 
Q 266 3750 677 4175 
Q 1088 4600 1706 4600 
Q 2153 4600 2523 4359 
Q 2894 4119 3086 3673 
Q 3278 3228 3278 2384 
Q 3278 1506 3087 986 
Q 2897 466 2520 194 
Q 2144 -78 1638 -78 
Q 1100 -78 759 220 
Q 419 519 350 1059 
z
M 2653 3081 
Q 2653 3566 2395 3850 
Q 2138 4134 1775 4134 
Q 1400 4134 1122 3828 
Q 844 3522 844 3034 
Q 844 2597 1108 2323 
Q 1372 2050 1759 2050 
Q 2150 2050 2401 2323 
Q 2653 2597 2653 3081 
z
" transform="scale(0.015625)"/>
       </defs>
       <use xlink:href="#ArialMT-32"/>
       <use xlink:href="#ArialMT-30" transform="translate(55.615234 0)"/>
       <use xlink:href="#ArialMT-32" transform="translate(111.230469 0)"/>
       <use xlink:href="#ArialMT-34" transform="translate(166.845703 0)"/>
       <use xlink:href="#ArialMT-2d" transform="translate(222.460938 0)"/>
       <use xlink:href="#ArialMT-30" transform="translate(255.761719 0)"/>
       <use xlink:href="#ArialMT-39" transform="translate(311.376953 0)"/>
      </g>
     </g>
    </g>
    <g id="xtick_2">
     <g id="line2d_2">
      <path d="M 228.495296 399.1 
L 228.495296 29.76 
" clip-path="url(#p21b8479969)" style="fill: none; stroke: #cccccc; stroke-linecap: round"/>
     </g>
     <g id="text_2">
      <!-- 2024-11 -->
      <g style="fill: #262626" transform="translate(208.7185 416.473594) scale(0.11 -0.11)">
       <defs>
        <path id="ArialMT-31" d="M 2384 0 
L 1822 0 
L 1822 3584 
Q 1619 3391 1289 3197 
Q 959 3003 697 2906 
L 697 3450 
Q 1169 3672 1522 3987 
Q 1875 4303 2022 4600 
L 2384 4600 
L 2384 0 
z
" transform="scale(0.015625)"/>
       </defs>
       <use xlink:href="#ArialMT-32"/>
       <use xlink:href="#ArialMT-30" transform="translate(55.615234 0)"/>
       <use xlink:href="#ArialMT-32" transform="translate(111.230469 0)"/>
       <use xlink:href="#ArialMT-34" transform="translate(166.845703 0)"/>
       <use xlink:href="#ArialMT-2d" transform="translate(222.460938 0)"/>
       <use xlink:href="#ArialMT-31" transform="translate(255.761719 0)"/>
       <use xlink:href="#ArialMT-31" transform="translate(304.001953 0)"/>
      </g>
     </g>
    </g>
    <g id="xtick_3">
     <g id="line2d_3">
      <path d="M 361.070366 399.1 
L 361.070366 29.76 
" clip-path="url(#p21b8479969)" style="fill: none; stroke: #cccccc; stroke-linecap: round"/>
     </g>
     <g id="text_3">
      <!-- 2025-01 -->
      <g style="fill: #262626" transform="translate(340.887944 416.473594) scale(0.11 -0.11)">
       <defs>
        <path id="ArialMT-35" d="M 266 1200 
L 856 1250 
Q 922 819 1161 601 
Q 1400 384 1738 384 
Q 2144 384 2425 690 
Q 2706 997 2706 1503 
Q 2706 1984 2436 2262 
Q 2166 2541 1728 2541 
Q 1456 2541 1237 2417 
Q 1019 2294 894 2097 
L 366 2166 
L 809 4519 
L 3088 4519 
L 3088 3981 
L 1259 3981 
L 1013 2750 
Q 1425 3038 1878 3038 
Q 2478 3038 2890 2622 
Q 3303 2206 3303 1553 
Q 3303 931 2941 478 
Q 2500 -78 1738 -78 
Q 1113 -78 717 272 
Q 322 622 266 1200 
z
" transform="scale(0.015625)"/>
       </defs>
       <use xlink:href="#ArialMT-32"/>
       <use xlink:href="#ArialMT-30" transform="translate(55.615234 0)"/>
       <use xlink:href="#ArialMT-32" transform="translate(111.230469 0)"/>
       <use xlink:href="#ArialMT-35" transform="translate(166.845703 0)"/>
       <use xlink:href="#ArialMT-2d" transform="translate(222.460938 0)"/>
       <use xlink:href="#ArialMT-30" transform="translate(255.761719 0)"/>
       <use xlink:href="#ArialMT-31" transform="translate(311.376953 0)"/>
      </g>
     </g>
    </g>
    <g id="xtick_4">
     <g id="line2d_4">
      <path d="M 489.298711 399.1 
L 489.298711 29.76 
" clip-path="url(#p21b8479969)" style="fill: none; stroke: #cccccc; stroke-linecap: round"/>
     </g>
     <g id="text_4">
      <!-- 2025-03 -->
      <g style="fill: #262626" transform="translate(469.116289 416.473594) scale(0.11 -0.11)">
       <defs>
        <path id="ArialMT-33" d="M 269 1209 
L 831 1284 
Q 928 806 1161 595 
Q 1394 384 1728 384 
Q 2125 384 2398 659 
Q 2672 934 2672 1341 
Q 2672 1728 2419 1979 
Q 2166 2231 1775 2231 
Q 1616 2231 1378 2169 
L 1441 2663 
Q 1497 2656 1531 2656 
Q 1891 2656 2178 2843 
Q 2466 3031 2466 3422 
Q 2466 3731 2256 3934 
Q 2047 4138 1716 4138 
Q 1388 4138 1169 3931 
Q 950 3725 888 3313 
L 325 3413 
Q 428 3978 793 4289 
Q 1159 4600 1703 4600 
Q 2078 4600 2393 4439 
Q 2709 4278 2876 4000 
Q 3044 3722 3044 3409 
Q 3044 3113 2884 2869 
Q 2725 2625 2413 2481 
Q 2819 2388 3044 2092 
Q 3269 1797 3269 1353 
Q 3269 753 2831 336 
Q 2394 -81 1725 -81 
Q 1122 -81 723 278 
Q 325 638 269 1209 
z
" transform="scale(0.015625)"/>
       </defs>
       <use xlink:href="#ArialMT-32"/>
       <use xlink:href="#ArialMT-30" transform="translate(55.615234 0)"/>
       <use xlink:href="#ArialMT-32" transform="translate(111.230469 0)"/>
       <use xlink:href="#ArialMT-35" transform="translate(166.845703 0)"/>
       <use xlink:href="#ArialMT-2d" transform="translate(222.460938 0)"/>
       <use xlink:href="#ArialMT-30" transform="translate(255.761719 0)"/>
       <use xlink:href="#ArialMT-33" transform="translate(311.376953 0)"/>
      </g>
     </g>
    </g>
    <g id="xtick_5">
     <g id="line2d_5">
      <path d="M 621.873781 399.1 
L 621.873781 29.76 
" clip-path="url(#p21b8479969)" style="fill: none; stroke: #cccccc; stroke-linecap: round"/>
     </g>
     <g id="text_5">
      <!-- 2025-05 -->
      <g style="fill: #262626" transform="translate(601.691359 416.473594) scale(0.11 -0.11)">
       <use xlink:href="#ArialMT-32"/>
       <use xlink:href="#ArialMT-30" transform="translate(55.615234 0)"/>
       <use xlink:href="#ArialMT-32" transform="translate(111.230469 0)"/>
       <use xlink:href="#ArialMT-35" transform="translate(166.845703 0)"/>
       <use xlink:href="#ArialMT-2d" transform="translate(222.460938 0)"/>
       <use xlink:href="#ArialMT-30" transform="translate(255.761719 0)"/>
       <use xlink:href="#ArialMT-35" transform="translate(311.376953 0)"/>
      </g>
     </g>
    </g>
    <g id="xtick_6">
     <g id="line2d_6">
      <path d="M 754.44885 399.1 
L 754.44885 29.76 
" clip-path="url(#p21b8479969)" style="fill: none; stroke: #cccccc; stroke-linecap: round"/>
     </g>
     <g id="text_6">
      <!-- 2025-07 -->
      <g style="fill: #262626" transform="translate(734.266428 416.473594) scale(0.11 -0.11)">
       <defs>
        <path id="ArialMT-37" d="M 303 3981 
L 303 4522 
L 3269 4522 
L 3269 4084 
Q 2831 3619 2401 2847 
Q 1972 2075 1738 1259 
Q 1569 684 1522 0 
L 944 0 
Q 953 541 1156 1306 
Q 1359 2072 1739 2783 
Q 2119 3494 2547 3981 
L 303 3981 
z
" transform="scale(0.015625)"/>
       </defs>
       <use xlink:href="#ArialMT-32"/>
       <use xlink:href="#ArialMT-30" transform="translate(55.615234 0)"/>
       <use xlink:href="#ArialMT-32" transform="translate(111.230469 0)"/>
       <use xlink:href="#ArialMT-35" transform="translate(166.845703 0)"/>
       <use xlink:href="#ArialMT-2d" transform="translate(222.460938 0)"/>
       <use xlink:href="#ArialMT-30" transform="translate(255.761719 0)"/>
       <use xlink:href="#ArialMT-37" transform="translate(311.376953 0)"/>
      </g>
     </g>
    </g>
    <g id="xtick_7">
     <g id="line2d_7">
      <path d="M 889.197281 399.1 
L 889.197281 29.76 
" clip-path="url(#p21b8479969)" style="fill: none; stroke: #cccccc; stroke-linecap: round"/>
     </g>
     <g id="text_7">
      <!-- 2025-09 -->
      <g style="fill: #262626" transform="translate(869.014859 416.473594) scale(0.11 -0.11)">
       <use xlink:href="#ArialMT-32"/>
       <use xlink:href="#ArialMT-30" transform="translate(55.615234 0)"/>
       <use xlink:href="#ArialMT-32" transform="translate(111.230469 0)"/>
       <use xlink:href="#ArialMT-35" transform="translate(166.845703 0)"/>
       <use xlink:href="#ArialMT-2d" transform="translate(222.460938 0)"/>
       <use xlink:href="#ArialMT-30" transform="translate(255.761719 0)"/>
       <use xlink:href="#ArialMT-39" transform="translate(311.376953 0)"/>
      </g>
     </g>
    </g>
   </g>
   <g id="matplotlib.axis_2">
    <g id="ytick_1">
     <g id="line2d_8">
      <path d="M 53.105 361.52345 
L 995.04 361.52345 
" clip-path="url(#p21b8479969)" style="fill: none; stroke: #cccccc; stroke-linecap: round"/>
     </g>
     <g id="text_8">
      <!-- 8000 -->
      <g style="fill: #262626" transform="translate(19.136875 365.460247) scale(0.11 -0.11)">
       <defs>
        <path id="ArialMT-38" d="M 1131 2484 
Q 781 2613 612 2850 
Q 444 3088 444 3419 
Q 444 3919 803 4259 
Q 1163 4600 1759 4600 
Q 2359 4600 2725 4251 
Q 3091 3903 3091 3403 
Q 3091 3084 2923 2848 
Q 2756 2613 2416 2484 
Q 2838 2347 3058 2040 
Q 3278 1734 3278 1309 
Q 3278 722 2862 322 
Q 2447 -78 1769 -78 
Q 1091 -78 675 323 
Q 259 725 259 1325 
Q 259 1772 486 2073 
Q 713 2375 1131 2484 
z
M 1019 3438 
Q 1019 3113 1228 2906 
Q 1438 2700 1772 2700 
Q 2097 2700 2305 2904 
Q 2513 3109 2513 3406 
Q 2513 3716 2298 3927 
Q 2084 4138 1766 4138 
Q 1444 4138 1231 3931 
Q 1019 3725 1019 3438 
z
M 838 1322 
Q 838 1081 952 856 
Q 1066 631 1291 507 
Q 1516 384 1775 384 
Q 2178 384 2440 643 
Q 2703 903 2703 1303 
Q 2703 1709 2433 1975 
Q 2163 2241 1756 2241 
Q 1359 2241 1098 1978 
Q 838 1716 838 1322 
z
" transform="scale(0.015625)"/>
       </defs>
       <use xlink:href="#ArialMT-38"/>
       <use xlink:href="#ArialMT-30" transform="translate(55.615234 0)"/>
       <use xlink:href="#ArialMT-30" transform="translate(111.230469 0)"/>
       <use xlink:href="#ArialMT-30" transform="translate(166.845703 0)"/>
      </g>
     </g>
    </g>
    <g id="ytick_2">
     <g id="line2d_9">
      <path d="M 53.105 298.528397 
L 995.04 298.528397 
" clip-path="url(#p21b8479969)" style="fill: none; stroke: #cccccc; stroke-linecap: round"/>
     </g>
     <g id="text_9">
      <!-- 10000 -->
      <g style="fill: #262626" transform="translate(13.019844 302.465194) scale(0.11 -0.11)">
       <use xlink:href="#ArialMT-31"/>
       <use xlink:href="#ArialMT-30" transform="translate(55.615234 0)"/>
       <use xlink:href="#ArialMT-30" transform="translate(111.230469 0)"/>
       <use xlink:href="#ArialMT-30" transform="translate(166.845703 0)"/>
       <use xlink:href="#ArialMT-30" transform="translate(222.460938 0)"/>
      </g>
     </g>
    </g>
    <g id="ytick_3">
     <g id="line2d_10">
      <path d="M 53.105 235.533343 
L 995.04 235.533343 
" clip-path="url(#p21b8479969)" style="fill: none; stroke: #cccccc; stroke-linecap: round"/>
     </g>
     <g id="text_10">
      <!-- 12000 -->
      <g style="fill: #262626" transform="translate(13.019844 239.47014) scale(0.11 -0.11)">
       <use xlink:href="#ArialMT-31"/>
       <use xlink:href="#ArialMT-32" transform="translate(55.615234 0)"/>
       <use xlink:href="#ArialMT-30" transform="translate(111.230469 0)"/>
       <use xlink:href="#ArialMT-30" transform="translate(166.845703 0)"/>
       <use xlink:href="#ArialMT-30" transform="translate(222.460938 0)"/>
      </g>
     </g>
    </g>
    <g id="ytick_4">
     <g id="line2d_11">
      <path d="M 53.105 172.538289 
L 995.04 172.538289 
" clip-path="url(#p21b8479969)" style="fill: none; stroke: #cccccc; stroke-linecap: round"/>
     </g>
     <g id="text_11">
      <!-- 14000 -->
      <g style="fill: #262626" transform="translate(13.019844 176.475086) scale(0.11 -0.11)">
       <use xlink:href="#ArialMT-31"/>
       <use xlink:href="#ArialMT-34" transform="translate(55.615234 0)"/>
       <use xlink:href="#ArialMT-30" transform="translate(111.230469 0)"/>
       <use xlink:href="#ArialMT-30" transform="translate(166.845703 0)"/>
       <use xlink:href="#ArialMT-30" transform="translate(222.460938 0)"/>
      </g>
     </g>
    </g>
    <g id="ytick_5">
     <g id="line2d_12">
      <path d="M 53.105 109.543236 
L 995.04 109.543236 
" clip-path="url(#p21b8479969)" style="fill: none; stroke: #cccccc; stroke-linecap: round"/>
     </g>
     <g id="text_12">
      <!-- 16000 -->
      <g style="fill: #262626" transform="translate(13.019844 113.480032) scale(0.11 -0.11)">
       <defs>
        <path id="ArialMT-36" d="M 3184 3459 
L 2625 3416 
Q 2550 3747 2413 3897 
Q 2184 4138 1850 4138 
Q 1581 4138 1378 3988 
Q 1113 3794 959 3422 
Q 806 3050 800 2363 
Q 1003 2672 1297 2822 
Q 1591 2972 1913 2972 
Q 2475 2972 2870 2558 
Q 3266 2144 3266 1488 
Q 3266 1056 3080 686 
Q 2894 316 2569 119 
Q 2244 -78 1831 -78 
Q 1128 -78 684 439 
Q 241 956 241 2144 
Q 241 3472 731 4075 
Q 1159 4600 1884 4600 
Q 2425 4600 2770 4297 
Q 3116 3994 3184 3459 
z
M 888 1484 
Q 888 1194 1011 928 
Q 1134 663 1356 523 
Q 1578 384 1822 384 
Q 2178 384 2434 671 
Q 2691 959 2691 1453 
Q 2691 1928 2437 2201 
Q 2184 2475 1800 2475 
Q 1419 2475 1153 2201 
Q 888 1928 888 1484 
z
" transform="scale(0.015625)"/>
       </defs>
       <use xlink:href="#ArialMT-31"/>
       <use xlink:href="#ArialMT-36" transform="translate(55.615234 0)"/>
       <use xlink:href="#ArialMT-30" transform="translate(111.230469 0)"/>
       <use xlink:href="#ArialMT-30" transform="translate(166.845703 0)"/>
       <use xlink:href="#ArialMT-30" transform="translate(222.460938 0)"/>
      </g>
     </g>
    </g>
    <g id="ytick_6">
     <g id="line2d_13">
      <path d="M 53.105 46.548182 
L 995.04 46.548182 
" clip-path="url(#p21b8479969)" style="fill: none; stroke: #cccccc; stroke-linecap: round"/>
     </g>
     <g id="text_13">
      <!-- 18000 -->
      <g style="fill: #262626" transform="translate(13.019844 50.484979) scale(0.11 -0.11)">
       <use xlink:href="#ArialMT-31"/>
       <use xlink:href="#ArialMT-38" transform="translate(55.615234 0)"/>
       <use xlink:href="#ArialMT-30" transform="translate(111.230469 0)"/>
       <use xlink:href="#ArialMT-30" transform="translate(166.845703 0)"/>
       <use xlink:href="#ArialMT-30" transform="translate(222.460938 0)"/>
      </g>
     </g>
    </g>
   </g>
   <g id="PathCollection_1">
    <defs>
     <path id="m261f9e3b51" d="M 0 3.535534 
C 0.937635 3.535534 1.836992 3.163008 2.5 2.5 
C 3.163008 1.836992 3.535534 0.937635 3.535534 0 
C 3.535534 -0.937635 3.163008 -1.836992 2.5 -2.5 
C 1.836992 -3.163008 0.937635 -3.535534 0 -3.535534 
C -0.937635 -3.535534 -1.836992 -3.163008 -2.5 -2.5 
C -3.163008 -1.836992 -3.535534 -0.937635 -3.535534 0 
C -3.535534 0.937635 -3.163008 1.836992 -2.5 2.5 
C -1.836992 3.163008 -0.937635 3.535534 0 3.535534 
z
" style="stroke: #ffa500"/>
    </defs>
    <g clip-path="url(#p21b8479969)">
     <use xlink:href="#m261f9e3b51" x="124.173931" y="183.877399" style="fill: #ffa500; stroke: #ffa500"/>
     <use xlink:href="#m261f9e3b51" x="135.04074" y="263.881117" style="fill: #ffa500; stroke: #ffa500"/>
     <use xlink:href="#m261f9e3b51" x="141.560825" y="248.132354" style="fill: #ffa500; stroke: #ffa500"/>
     <use xlink:href="#m261f9e3b51" x="145.907548" y="248.132354" style="fill: #ffa500; stroke: #ffa500"/>
     <use xlink:href="#m261f9e3b51" x="154.600996" y="232.38359" style="fill: #ffa500; stroke: #ffa500"/>
     <use xlink:href="#m261f9e3b51" x="163.294443" y="141.040762" style="fill: #ffa500; stroke: #ffa500"/>
     <use xlink:href="#m261f9e3b51" x="165.467805" y="244.982601" style="fill: #ffa500; stroke: #ffa500"/>
     <use xlink:href="#m261f9e3b51" x="180.681337" y="262.621216" style="fill: #ffa500; stroke: #ffa500"/>
     <use xlink:href="#m261f9e3b51" x="182.854699" y="183.877399" style="fill: #ffa500; stroke: #ffa500"/>
     <use xlink:href="#m261f9e3b51" x="211.108402" y="270.180623" style="fill: #ffa500; stroke: #ffa500"/>
     <use xlink:href="#m261f9e3b51" x="239.362105" y="141.040762" style="fill: #ffa500; stroke: #ffa500"/>
     <use xlink:href="#m261f9e3b51" x="256.749" y="241.832848" style="fill: #ffa500; stroke: #ffa500"/>
     <use xlink:href="#m261f9e3b51" x="265.442447" y="324.356369" style="fill: #ffa500; stroke: #ffa500"/>
     <use xlink:href="#m261f9e3b51" x="317.60313" y="212.225173" style="fill: #ffa500; stroke: #ffa500"/>
     <use xlink:href="#m261f9e3b51" x="328.469939" y="276.480128" style="fill: #ffa500; stroke: #ffa500"/>
     <use xlink:href="#m261f9e3b51" x="332.816662" y="263.881117" style="fill: #ffa500; stroke: #ffa500"/>
     <use xlink:href="#m261f9e3b51" x="369.763813" y="226.084085" style="fill: #ffa500; stroke: #ffa500"/>
     <use xlink:href="#m261f9e3b51" x="382.803984" y="232.38359" style="fill: #ffa500; stroke: #ffa500"/>
     <use xlink:href="#m261f9e3b51" x="391.497431" y="141.040762" style="fill: #ffa500; stroke: #ffa500"/>
     <use xlink:href="#m261f9e3b51" x="406.710963" y="141.040762" style="fill: #ffa500; stroke: #ffa500"/>
     <use xlink:href="#m261f9e3b51" x="437.138028" y="204.035816" style="fill: #ffa500; stroke: #ffa500"/>
     <use xlink:href="#m261f9e3b51" x="484.951988" y="284.669485" style="fill: #ffa500; stroke: #ffa500"/>
     <use xlink:href="#m261f9e3b51" x="487.12535" y="188.287053" style="fill: #ffa500; stroke: #ffa500"/>
     <use xlink:href="#m261f9e3b51" x="491.472073" y="311.127407" style="fill: #ffa500; stroke: #ffa500"/>
     <use xlink:href="#m261f9e3b51" x="513.205691" y="172.538289" style="fill: #ffa500; stroke: #ffa500"/>
     <use xlink:href="#m261f9e3b51" x="515.379053" y="283.409584" style="fill: #ffa500; stroke: #ffa500"/>
     <use xlink:href="#m261f9e3b51" x="519.725776" y="343.254885" style="fill: #ffa500; stroke: #ffa500"/>
     <use xlink:href="#m261f9e3b51" x="524.0725" y="255.69176" style="fill: #ffa500; stroke: #ffa500"/>
     <use xlink:href="#m261f9e3b51" x="530.592585" y="317.426913" style="fill: #ffa500; stroke: #ffa500"/>
     <use xlink:href="#m261f9e3b51" x="539.286033" y="362.153401" style="fill: #ffa500; stroke: #ffa500"/>
     <use xlink:href="#m261f9e3b51" x="550.152841" y="243.7227" style="fill: #ffa500; stroke: #ffa500"/>
     <use xlink:href="#m261f9e3b51" x="632.74059" y="253.171958" style="fill: #ffa500; stroke: #ffa500"/>
     <use xlink:href="#m261f9e3b51" x="769.662382" y="319.316764" style="fill: #ffa500; stroke: #ffa500"/>
     <use xlink:href="#m261f9e3b51" x="771.835744" y="235.533343" style="fill: #ffa500; stroke: #ffa500"/>
     <use xlink:href="#m261f9e3b51" x="832.689874" y="340.735083" style="fill: #ffa500; stroke: #ffa500"/>
     <use xlink:href="#m261f9e3b51" x="902.237452" y="213.485074" style="fill: #ffa500; stroke: #ffa500"/>
    </g>
   </g>
   <g id="PathCollection_2">
    <defs>
     <path id="m2217b0919c" d="M 0 4.472136 
C 1.186024 4.472136 2.323632 4.000923 3.162278 3.162278 
C 4.000923 2.323632 4.472136 1.186024 4.472136 0 
C 4.472136 -1.186024 4.000923 -2.323632 3.162278 -3.162278 
C 2.323632 -4.000923 1.186024 -4.472136 0 -4.472136 
C -1.186024 -4.472136 -2.323632 -4.000923 -3.162278 -3.162278 
C -4.000923 -2.323632 -4.472136 -1.186024 -4.472136 0 
C -4.472136 1.186024 -4.000923 2.323632 -3.162278 3.162278 
C -2.323632 4.000923 -1.186024 4.472136 0 4.472136 
z
" style="stroke: #ff0000"/>
    </defs>
    <g clip-path="url(#p21b8479969)">
     <use xlink:href="#m2217b0919c" x="113.307122" y="222.934332" style="fill: #ff0000; stroke: #ff0000"/>
     <use xlink:href="#m2217b0919c" x="117.653845" y="172.538289" style="fill: #ff0000; stroke: #ff0000"/>
     <use xlink:href="#m2217b0919c" x="132.867378" y="141.040762" style="fill: #ff0000; stroke: #ff0000"/>
     <use xlink:href="#m2217b0919c" x="148.08091" y="125.291999" style="fill: #ff0000; stroke: #ff0000"/>
     <use xlink:href="#m2217b0919c" x="150.254272" y="285.299435" style="fill: #ff0000; stroke: #ff0000"/>
     <use xlink:href="#m2217b0919c" x="193.721508" y="172.538289" style="fill: #ff0000; stroke: #ff0000"/>
     <use xlink:href="#m2217b0919c" x="221.975211" y="183.877399" style="fill: #ff0000; stroke: #ff0000"/>
     <use xlink:href="#m2217b0919c" x="226.321935" y="280.259831" style="fill: #ff0000; stroke: #ff0000"/>
     <use xlink:href="#m2217b0919c" x="241.535467" y="284.039534" style="fill: #ff0000; stroke: #ff0000"/>
     <use xlink:href="#m2217b0919c" x="254.575638" y="109.543236" style="fill: #ff0000; stroke: #ff0000"/>
     <use xlink:href="#m2217b0919c" x="271.962532" y="243.7227" style="fill: #ff0000; stroke: #ff0000"/>
     <use xlink:href="#m2217b0919c" x="276.309256" y="204.035816" style="fill: #ff0000; stroke: #ff0000"/>
     <use xlink:href="#m2217b0919c" x="287.176065" y="265.770969" style="fill: #ff0000; stroke: #ff0000"/>
     <use xlink:href="#m2217b0919c" x="393.670793" y="285.929386" style="fill: #ff0000; stroke: #ff0000"/>
     <use xlink:href="#m2217b0919c" x="474.085179" y="271.440524" style="fill: #ff0000; stroke: #ff0000"/>
     <use xlink:href="#m2217b0919c" x="500.16552" y="336.955379" style="fill: #ff0000; stroke: #ff0000"/>
     <use xlink:href="#m2217b0919c" x="534.939309" y="283.409584" style="fill: #ff0000; stroke: #ff0000"/>
     <use xlink:href="#m2217b0919c" x="541.459394" y="282.779633" style="fill: #ff0000; stroke: #ff0000"/>
     <use xlink:href="#m2217b0919c" x="543.632756" y="172.538289" style="fill: #ff0000; stroke: #ff0000"/>
     <use xlink:href="#m2217b0919c" x="558.846289" y="156.789526" style="fill: #ff0000; stroke: #ff0000"/>
    </g>
   </g>
   <g id="PathCollection_3">
    <defs>
     <path id="m676d4c59b8" d="M 0 5.477226 
C 1.452577 5.477226 2.845856 4.900111 3.872983 3.872983 
C 4.900111 2.845856 5.477226 1.452577 5.477226 0 
C 5.477226 -1.452577 4.900111 -2.845856 3.872983 -3.872983 
C 2.845856 -4.900111 1.452577 -5.477226 0 -5.477226 
C -1.452577 -5.477226 -2.845856 -4.900111 -3.872983 -3.872983 
C -4.900111 -2.845856 -5.477226 -1.452577 -5.477226 0 
C -5.477226 1.452577 -4.900111 2.845856 -3.872983 3.872983 
C -2.845856 4.900111 -1.452577 5.477226 0 5.477226 
z
" style="stroke: #000000"/>
    </defs>
    <g clip-path="url(#p21b8479969)">
     <use xlink:href="#m676d4c59b8" x="178.507975" y="172.538289" style="stroke: #000000"/>
     <use xlink:href="#m676d4c59b8" x="208.93504" y="141.040762" style="stroke: #000000"/>
     <use xlink:href="#m676d4c59b8" x="269.789171" y="78.045709" style="stroke: #000000"/>
     <use xlink:href="#m676d4c59b8" x="285.002703" y="62.296945" style="stroke: #000000"/>
     <use xlink:href="#m676d4c59b8" x="300.216236" y="46.548182" style="stroke: #000000"/>
     <use xlink:href="#m676d4c59b8" x="302.389597" y="299.788298" style="stroke: #000000"/>
     <use xlink:href="#m676d4c59b8" x="315.429768" y="78.045709" style="stroke: #000000"/>
     <use xlink:href="#m676d4c59b8" x="467.565093" y="204.035816" style="stroke: #000000"/>
     <use xlink:href="#m676d4c59b8" x="469.738455" y="369.712807" style="stroke: #000000"/>
     <use xlink:href="#m676d4c59b8" x="482.778626" y="188.287053" style="stroke: #000000"/>
     <use xlink:href="#m676d4c59b8" x="489.298711" y="368.452906" style="stroke: #000000"/>
     <use xlink:href="#m676d4c59b8" x="497.992159" y="188.287053" style="stroke: #000000"/>
     <use xlink:href="#m676d4c59b8" x="545.806118" y="365.303154" style="stroke: #000000"/>
    </g>
   </g>
   <g id="line2d_14">
    <path d="M 95.920227 267.03087 
L 98.093589 226.084085 
L 100.266951 227.973937 
L 102.440313 172.538289 
L 104.613674 253.801909 
L 106.787036 270.180623 
L 108.960398 278.99993 
L 111.13376 316.167012 
L 113.307122 222.934332 
L 115.480483 296.638545 
L 117.653845 172.538289 
L 119.827207 222.934332 
L 122.000569 270.180623 
L 124.173931 183.877399 
L 126.347292 248.132354 
L 128.520654 233.643491 
L 130.694016 253.171958 
L 132.867378 141.040762 
L 135.04074 263.881117 
L 137.214101 263.881117 
L 139.387463 309.237556 
L 141.560825 248.132354 
L 143.734187 316.796962 
L 145.907548 248.132354 
L 148.08091 125.291999 
L 150.254272 285.299435 
L 152.427634 302.93805 
L 154.600996 232.38359 
L 156.774357 272.070474 
L 158.947719 248.132354 
L 161.121081 229.233838 
L 163.294443 141.040762 
L 165.467805 244.982601 
L 167.641166 222.934332 
L 169.814528 263.881117 
L 171.98789 257.581612 
L 174.161252 297.268496 
L 176.334614 309.237556 
L 178.507975 172.538289 
L 180.681337 262.621216 
L 182.854699 183.877399 
L 185.028061 260.101414 
L 187.201422 265.141018 
L 189.374784 292.858842 
L 191.548146 287.189287 
L 193.721508 172.538289 
L 195.89487 254.431859 
L 198.068231 212.225173 
L 200.241593 288.449188 
L 202.414955 251.282106 
L 204.588317 320.576666 
L 206.761679 284.039534 
L 208.93504 141.040762 
L 211.108402 270.180623 
L 213.281764 268.290771 
L 215.455126 273.330375 
L 217.628488 226.084085 
L 219.801849 285.929386 
L 221.975211 183.877399 
L 224.148573 125.291999 
L 226.321935 280.259831 
L 228.495296 219.78458 
L 230.668658 210.335322 
L 232.84202 276.480128 
L 235.015382 241.832848 
L 237.188744 232.38359 
L 239.362105 141.040762 
L 241.535467 284.039534 
L 243.708829 294.748694 
L 245.882191 267.03087 
L 248.055553 269.550672 
L 250.228914 222.934332 
L 252.402276 251.282106 
L 254.575638 109.543236 
L 256.749 241.832848 
L 258.922362 204.035816 
L 261.095723 272.070474 
L 263.269085 234.273442 
L 265.442447 324.356369 
L 267.615809 284.669485 
L 269.789171 78.045709 
L 271.962532 243.7227 
L 274.135894 308.607605 
L 276.309256 204.035816 
L 278.482618 272.070474 
L 280.655979 303.568001 
L 282.829341 243.7227 
L 285.002703 62.296945 
L 287.176065 265.770969 
L 289.349427 216.634827 
L 291.522788 273.330375 
L 293.69615 222.934332 
L 295.869512 269.550672 
L 298.042874 243.7227 
L 300.216236 46.548182 
L 302.389597 299.788298 
L 304.562959 243.092749 
L 306.736321 275.850177 
L 308.909683 213.485074 
L 311.083045 207.185569 
L 313.256406 270.180623 
L 315.429768 78.045709 
L 317.60313 212.225173 
L 319.776492 241.832848 
L 321.949853 199.626162 
L 324.123215 199.626162 
L 326.296577 174.428141 
L 328.469939 276.480128 
L 330.643301 339.475182 
L 332.816662 263.881117 
L 334.990024 276.480128 
L 337.163386 276.480128 
L 339.336748 257.581612 
L 341.51011 276.480128 
L 343.683471 287.819238 
L 345.856833 265.770969 
L 348.030195 260.731364 
L 350.203557 250.022205 
L 352.376919 284.669485 
L 354.55028 263.881117 
L 356.723642 273.330375 
L 361.070366 304.827902 
L 363.243728 289.079139 
L 365.417089 274.590276 
L 367.590451 304.827902 
L 369.763813 226.084085 
L 371.937175 260.731364 
L 374.110536 251.282106 
L 376.283898 204.035816 
L 378.45726 232.38359 
L 380.630622 307.977655 
L 382.803984 232.38359 
L 384.977345 267.03087 
L 387.150707 238.683096 
L 389.324069 244.982601 
L 391.497431 141.040762 
L 393.670793 285.929386 
L 395.844154 285.929386 
L 398.017516 226.084085 
L 400.190878 232.38359 
L 402.36424 251.282106 
L 404.537602 226.084085 
L 406.710963 141.040762 
L 408.884325 200.886063 
L 411.057687 238.683096 
L 413.231049 248.132354 
L 415.40441 200.886063 
L 417.577772 226.084085 
L 421.924496 226.084085 
L 424.097858 207.185569 
L 426.271219 226.084085 
L 428.444581 235.533343 
L 430.617943 238.683096 
L 432.791305 238.683096 
L 434.964667 285.929386 
L 437.138028 204.035816 
L 439.31139 285.929386 
L 441.484752 226.084085 
L 443.658114 257.581612 
L 445.831476 210.335322 
L 448.004837 251.282106 
L 450.178199 306.087803 
L 452.351561 290.96899 
L 454.524923 295.378644 
L 456.698284 276.480128 
L 458.871646 318.686814 
L 461.045008 280.259831 
L 465.391732 382.311818 
L 467.565093 204.035816 
L 469.738455 369.712807 
L 471.911817 368.452906 
L 474.085179 271.440524 
L 476.258541 291.598941 
L 478.431902 297.268496 
L 480.605264 325.61627 
L 482.778626 188.287053 
L 484.951988 284.669485 
L 487.12535 188.287053 
L 489.298711 368.452906 
L 491.472073 311.127407 
L 493.645435 357.113797 
L 495.818797 327.506121 
L 497.992159 188.287053 
L 500.16552 336.955379 
L 502.338882 292.858842 
L 504.512244 278.36998 
L 506.685606 252.542008 
L 508.858967 243.7227 
L 511.032329 259.471463 
L 513.205691 172.538289 
L 515.379053 283.409584 
L 517.552415 262.621216 
L 519.725776 343.254885 
L 521.899138 327.506121 
L 524.0725 255.69176 
L 526.245862 260.731364 
L 528.419224 204.035816 
L 530.592585 317.426913 
L 532.765947 360.263549 
L 534.939309 283.409584 
L 537.112671 284.669485 
L 539.286033 362.153401 
L 541.459394 282.779633 
L 543.632756 172.538289 
L 545.806118 365.303154 
L 547.97948 319.316764 
L 550.152841 243.7227 
L 552.326203 254.431859 
L 554.499565 247.502403 
L 556.672927 284.039534 
L 558.846289 156.789526 
L 561.01965 240.572947 
L 563.193012 280.259831 
L 565.366374 261.361315 
L 567.539736 281.519732 
L 569.713098 256.321711 
L 571.886459 210.335322 
L 574.059821 219.78458 
L 576.233183 232.38359 
L 578.406545 284.039534 
L 580.579907 268.920721 
L 582.753268 234.273442 
L 584.92663 271.440524 
L 587.099992 241.832848 
L 589.273354 204.035816 
L 591.446716 241.832848 
L 593.620077 284.039534 
L 595.793439 263.881117 
L 597.966801 306.717754 
L 600.140163 313.017259 
L 602.313524 314.27716 
L 604.486886 267.03087 
L 606.660248 257.581612 
L 608.83361 267.03087 
L 611.006972 279.629881 
L 613.180333 250.022205 
L 615.353695 267.03087 
L 617.527057 237.423195 
L 619.700419 273.330375 
L 621.873781 261.991266 
L 624.047142 261.991266 
L 626.220504 257.581612 
L 628.393866 275.220227 
L 630.567228 315.537061 
L 634.913951 188.287053 
L 637.087313 263.881117 
L 639.260675 263.881117 
L 641.434037 241.832848 
L 643.607398 275.220227 
L 645.78076 265.770969 
L 647.954122 297.268496 
L 650.127484 263.881117 
L 652.300846 285.929386 
L 654.474207 249.392255 
L 656.647569 265.770969 
L 658.820931 267.03087 
L 660.994293 281.519732 
L 663.167655 251.282106 
L 665.341016 297.268496 
L 667.514378 267.03087 
L 669.68774 244.982601 
L 671.861102 248.132354 
L 674.034464 263.881117 
L 676.207825 309.237556 
L 678.381187 297.268496 
L 680.554549 297.268496 
L 682.727911 309.237556 
L 687.074634 259.471463 
L 689.247996 312.387309 
L 691.421358 298.528397 
L 693.59472 244.982601 
L 695.768081 235.533343 
L 697.941443 297.268496 
L 700.114805 304.827902 
L 702.288167 273.330375 
L 704.461529 267.03087 
L 706.63489 248.132354 
L 708.808252 232.38359 
L 710.981614 267.03087 
L 713.154976 273.330375 
L 715.328338 241.832848 
L 717.501699 243.7227 
L 719.675061 227.343986 
L 721.848423 279.629881 
L 724.021785 278.36998 
L 726.195147 251.282106 
L 728.368508 265.770969 
L 730.54187 254.431859 
L 732.715232 207.185569 
L 734.888594 235.533343 
L 737.061955 251.282106 
L 739.235317 298.528397 
L 741.408679 267.03087 
L 743.582041 260.731364 
L 745.755403 272.070474 
L 747.928764 231.123689 
L 750.102126 270.180623 
L 752.275488 272.070474 
L 754.44885 260.731364 
L 756.622212 267.03087 
L 758.795573 298.528397 
L 760.968935 267.03087 
L 765.315659 241.832848 
L 767.489021 244.982601 
L 769.662382 319.316764 
L 771.835744 235.533343 
L 774.009106 251.282106 
L 776.182468 297.268496 
L 778.355829 265.770969 
L 780.529191 304.827902 
L 782.702553 248.132354 
L 784.875915 270.180623 
L 787.049277 207.185569 
L 789.222638 251.282106 
L 791.396 263.881117 
L 793.569362 248.132354 
L 795.742724 263.881117 
L 797.916086 248.132354 
L 800.089447 251.282106 
L 802.262809 263.881117 
L 804.436171 251.282106 
L 806.609533 251.282106 
L 808.782895 304.827902 
L 810.956256 257.581612 
L 813.129618 229.233838 
L 815.30298 265.770969 
L 817.476342 265.770969 
L 819.649704 297.268496 
L 821.823065 273.330375 
L 823.996427 282.779633 
L 826.169789 241.832848 
L 828.343151 244.982601 
L 830.516512 270.180623 
L 832.689874 340.735083 
L 834.863236 298.528397 
L 837.036598 246.872453 
L 839.20996 287.189287 
L 841.383321 279.629881 
L 843.556683 232.38359 
L 845.730045 257.581612 
L 847.903407 272.070474 
L 850.076769 290.96899 
L 852.25013 251.282106 
L 854.423492 273.330375 
L 856.596854 248.132354 
L 858.770216 290.96899 
L 860.943578 276.480128 
L 863.116939 263.881117 
L 865.290301 273.330375 
L 867.463663 270.180623 
L 869.637025 279.629881 
L 871.810386 234.273442 
L 873.983748 238.683096 
L 876.15711 224.824184 
L 878.330472 275.220227 
L 880.503834 267.03087 
L 882.677195 251.282106 
L 884.850557 231.123689 
L 887.023919 207.185569 
L 889.197281 238.683096 
L 891.370643 248.132354 
L 893.544004 270.180623 
L 895.717366 273.330375 
L 897.890728 278.36998 
L 900.06409 298.528397 
L 902.237452 213.485074 
L 904.410813 204.035816 
L 906.584175 241.832848 
L 908.757537 285.929386 
L 910.930899 263.881117 
L 913.10426 229.233838 
L 915.277622 284.039534 
L 917.450984 244.982601 
L 919.624346 260.731364 
L 921.797708 244.982601 
L 923.971069 244.982601 
L 926.144431 251.282106 
L 928.317793 235.533343 
L 930.491155 260.731364 
L 932.664517 315.537061 
L 934.837878 303.568001 
L 937.01124 276.480128 
L 939.184602 232.38359 
L 941.357964 232.38359 
L 943.531326 216.634827 
L 945.704687 263.881117 
L 947.878049 267.03087 
L 950.051411 267.03087 
L 952.224773 282.149683 
L 952.224773 282.149683 
" clip-path="url(#p21b8479969)" style="fill: none; stroke: #4878d0; stroke-width: 1.5; stroke-linecap: round"/>
   </g>
   <g id="patch_3">
    <path d="M 53.105 399.1 
L 53.105 29.76 
" style="fill: none; stroke: #cccccc; stroke-width: 1.25; stroke-linejoin: miter; stroke-linecap: square"/>
   </g>
   <g id="patch_4">
    <path d="M 995.04 399.1 
L 995.04 29.76 
" style="fill: none; stroke: #cccccc; stroke-width: 1.25; stroke-linejoin: miter; stroke-linecap: square"/>
   </g>
   <g id="patch_5">
    <path d="M 53.105 399.1 
L 995.04 399.1 
" style="fill: none; stroke: #cccccc; stroke-width: 1.25; stroke-linejoin: miter; stroke-linecap: square"/>
   </g>
   <g id="patch_6">
    <path d="M 53.105 29.76 
L 995.04 29.76 
" style="fill: none; stroke: #cccccc; stroke-width: 1.25; stroke-linejoin: miter; stroke-linecap: square"/>
   </g>
   <g id="text_14">
    <!-- DƯA HẤU — Event Map (price_wholesale) -->
    <g style="fill: #262626" transform="translate(409.908437 23.76) scale(0.12 -0.12)">
     <defs>
      <path id="ArialMT-44" d="M 494 0 
L 494 4581 
L 2072 4581 
Q 2606 4581 2888 4516 
Q 3281 4425 3559 4188 
Q 3922 3881 4101 3404 
Q 4281 2928 4281 2316 
Q 4281 1794 4159 1391 
Q 4038 988 3847 723 
Q 3656 459 3429 307 
Q 3203 156 2883 78 
Q 2563 0 2147 0 
L 494 0 
z
M 1100 541 
L 2078 541 
Q 2531 541 2789 625 
Q 3047 709 3200 863 
Q 3416 1078 3536 1442 
Q 3656 1806 3656 2325 
Q 3656 3044 3420 3430 
Q 3184 3816 2847 3947 
Q 2603 4041 2063 4041 
L 1100 4041 
L 1100 541 
z
" transform="scale(0.015625)"/>
      <path id="ArialMT-1af" d="M 4603 3928 
L 4603 4581 
L 5206 4581 
L 5206 4066 
Q 5206 3575 5094 3381 
Q 4784 2841 4106 2809 
L 4106 1934 
Q 4106 1231 3950 838 
Q 3788 428 3388 178 
Q 2978 -78 2316 -78 
Q 1038 -78 678 788 
Q 503 1206 503 1934 
L 503 4581 
L 1109 4581 
L 1109 1938 
Q 1109 1347 1222 1056 
Q 1328 778 1600 623 
Q 1872 469 2263 469 
Q 2947 469 3216 772 
Q 3500 1091 3500 1938 
L 3500 4581 
L 4106 4581 
L 4106 3041 
Q 4594 3091 4813 3428 
Q 4897 3559 4897 3928 
L 4603 3928 
z
" transform="scale(0.015625)"/>
      <path id="ArialMT-41" d="M -9 0 
L 1750 4581 
L 2403 4581 
L 4278 0 
L 3588 0 
L 3053 1388 
L 1138 1388 
L 634 0 
L -9 0 
z
M 1313 1881 
L 2866 1881 
L 2388 3150 
Q 2169 3728 2063 4100 
Q 1975 3659 1816 3225 
L 1313 1881 
z
" transform="scale(0.015625)"/>
      <path id="ArialMT-20" transform="scale(0.015625)"/>
      <path id="ArialMT-48" d="M 513 0 
L 513 4581 
L 1119 4581 
L 1119 2700 
L 3500 2700 
L 3500 4581 
L 4106 4581 
L 4106 0 
L 3500 0 
L 3500 2159 
L 1119 2159 
L 1119 0 
L 513 0 
z
" transform="scale(0.015625)"/>
      <path id="ArialMT-1ea4" d="M -9 0 
L 1750 4581 
L 2403 4581 
L 4278 0 
L 3588 0 
L 3053 1388 
L 1138 1388 
L 634 0 
L -9 0 
z
M 1313 1881 
L 2866 1881 
L 2388 3150 
Q 2169 3728 2063 4100 
Q 1975 3659 1816 3225 
L 1313 1881 
z
M 2062 4936 
L 1653 4727 
L 1106 4727 
L 1759 5111 
L 2368 5111 
L 3018 4727 
L 2471 4727 
L 2062 4936 
z
M 2180 5734 
L 2887 5734 
L 2165 5241 
L 1759 5241 
L 2180 5734 
z
" transform="scale(0.015625)"/>
      <path id="ArialMT-55" d="M 3500 4581 
L 4106 4581 
L 4106 1934 
Q 4106 1244 3950 837 
Q 3794 431 3386 176 
Q 2978 -78 2316 -78 
Q 1672 -78 1262 144 
Q 853 366 678 786 
Q 503 1206 503 1934 
L 503 4581 
L 1109 4581 
L 1109 1938 
Q 1109 1341 1220 1058 
Q 1331 775 1601 622 
Q 1872 469 2263 469 
Q 2931 469 3215 772 
Q 3500 1075 3500 1938 
L 3500 4581 
z
" transform="scale(0.015625)"/>
      <path id="ArialMT-2014" d="M 0 1431 
L 0 1884 
L 6400 1884 
L 6400 1431 
L 0 1431 
z
" transform="scale(0.015625)"/>
      <path id="ArialMT-45" d="M 506 0 
L 506 4581 
L 3819 4581 
L 3819 4041 
L 1113 4041 
L 1113 2638 
L 3647 2638 
L 3647 2100 
L 1113 2100 
L 1113 541 
L 3925 541 
L 3925 0 
L 506 0 
z
" transform="scale(0.015625)"/>
      <path id="ArialMT-76" d="M 1344 0 
L 81 3319 
L 675 3319 
L 1388 1331 
Q 1503 1009 1600 663 
Q 1675 925 1809 1294 
L 2547 3319 
L 3125 3319 
L 1869 0 
L 1344 0 
z
" transform="scale(0.015625)"/>
      <path id="ArialMT-65" d="M 2694 1069 
L 3275 997 
Q 3138 488 2766 206 
Q 2394 -75 1816 -75 
Q 1088 -75 661 373 
Q 234 822 234 1631 
Q 234 2469 665 2931 
Q 1097 3394 1784 3394 
Q 2450 3394 2872 2941 
Q 3294 2488 3294 1666 
Q 3294 1616 3291 1516 
L 816 1516 
Q 847 969 1125 678 
Q 1403 388 1819 388 
Q 2128 388 2347 550 
Q 2566 713 2694 1069 
z
M 847 1978 
L 2700 1978 
Q 2663 2397 2488 2606 
Q 2219 2931 1791 2931 
Q 1403 2931 1139 2672 
Q 875 2413 847 1978 
z
" transform="scale(0.015625)"/>
      <path id="ArialMT-6e" d="M 422 0 
L 422 3319 
L 928 3319 
L 928 2847 
Q 1294 3394 1984 3394 
Q 2284 3394 2536 3286 
Q 2788 3178 2913 3003 
Q 3038 2828 3088 2588 
Q 3119 2431 3119 2041 
L 3119 0 
L 2556 0 
L 2556 2019 
Q 2556 2363 2490 2533 
Q 2425 2703 2258 2804 
Q 2091 2906 1866 2906 
Q 1506 2906 1245 2678 
Q 984 2450 984 1813 
L 984 0 
L 422 0 
z
" transform="scale(0.015625)"/>
      <path id="ArialMT-74" d="M 1650 503 
L 1731 6 
Q 1494 -44 1306 -44 
Q 1000 -44 831 53 
Q 663 150 594 308 
Q 525 466 525 972 
L 525 2881 
L 113 2881 
L 113 3319 
L 525 3319 
L 525 4141 
L 1084 4478 
L 1084 3319 
L 1650 3319 
L 1650 2881 
L 1084 2881 
L 1084 941 
Q 1084 700 1114 631 
Q 1144 563 1211 522 
Q 1278 481 1403 481 
Q 1497 481 1650 503 
z
" transform="scale(0.015625)"/>
      <path id="ArialMT-4d" d="M 475 0 
L 475 4581 
L 1388 4581 
L 2472 1338 
Q 2622 884 2691 659 
Q 2769 909 2934 1394 
L 4031 4581 
L 4847 4581 
L 4847 0 
L 4263 0 
L 4263 3834 
L 2931 0 
L 2384 0 
L 1059 3900 
L 1059 0 
L 475 0 
z
" transform="scale(0.015625)"/>
      <path id="ArialMT-61" d="M 2588 409 
Q 2275 144 1986 34 
Q 1697 -75 1366 -75 
Q 819 -75 525 192 
Q 231 459 231 875 
Q 231 1119 342 1320 
Q 453 1522 633 1644 
Q 813 1766 1038 1828 
Q 1203 1872 1538 1913 
Q 2219 1994 2541 2106 
Q 2544 2222 2544 2253 
Q 2544 2597 2384 2738 
Q 2169 2928 1744 2928 
Q 1347 2928 1158 2789 
Q 969 2650 878 2297 
L 328 2372 
Q 403 2725 575 2942 
Q 747 3159 1072 3276 
Q 1397 3394 1825 3394 
Q 2250 3394 2515 3294 
Q 2781 3194 2906 3042 
Q 3031 2891 3081 2659 
Q 3109 2516 3109 2141 
L 3109 1391 
Q 3109 606 3145 398 
Q 3181 191 3288 0 
L 2700 0 
Q 2613 175 2588 409 
z
M 2541 1666 
Q 2234 1541 1622 1453 
Q 1275 1403 1131 1340 
Q 988 1278 909 1158 
Q 831 1038 831 891 
Q 831 666 1001 516 
Q 1172 366 1500 366 
Q 1825 366 2078 508 
Q 2331 650 2450 897 
Q 2541 1088 2541 1459 
L 2541 1666 
z
" transform="scale(0.015625)"/>
      <path id="ArialMT-70" d="M 422 -1272 
L 422 3319 
L 934 3319 
L 934 2888 
Q 1116 3141 1344 3267 
Q 1572 3394 1897 3394 
Q 2322 3394 2647 3175 
Q 2972 2956 3137 2557 
Q 3303 2159 3303 1684 
Q 3303 1175 3120 767 
Q 2938 359 2589 142 
Q 2241 -75 1856 -75 
Q 1575 -75 1351 44 
Q 1128 163 984 344 
L 984 -1272 
L 422 -1272 
z
M 931 1641 
Q 931 1000 1190 694 
Q 1450 388 1819 388 
Q 2194 388 2461 705 
Q 2728 1022 2728 1688 
Q 2728 2322 2467 2637 
Q 2206 2953 1844 2953 
Q 1484 2953 1207 2617 
Q 931 2281 931 1641 
z
" transform="scale(0.015625)"/>
      <path id="ArialMT-28" d="M 1497 -1347 
Q 1031 -759 709 28 
Q 388 816 388 1659 
Q 388 2403 628 3084 
Q 909 3875 1497 4659 
L 1900 4659 
Q 1522 4009 1400 3731 
Q 1209 3300 1100 2831 
Q 966 2247 966 1656 
Q 966 153 1900 -1347 
L 1497 -1347 
z
" transform="scale(0.015625)"/>
      <path id="ArialMT-72" d="M 416 0 
L 416 3319 
L 922 3319 
L 922 2816 
Q 1116 3169 1280 3281 
Q 1444 3394 1641 3394 
Q 1925 3394 2219 3213 
L 2025 2691 
Q 1819 2813 1613 2813 
Q 1428 2813 1281 2702 
Q 1134 2591 1072 2394 
Q 978 2094 978 1738 
L 978 0 
L 416 0 
z
" transform="scale(0.015625)"/>
      <path id="ArialMT-69" d="M 425 3934 
L 425 4581 
L 988 4581 
L 988 3934 
L 425 3934 
z
M 425 0 
L 425 3319 
L 988 3319 
L 988 0 
L 425 0 
z
" transform="scale(0.015625)"/>
      <path id="ArialMT-63" d="M 2588 1216 
L 3141 1144 
Q 3050 572 2676 248 
Q 2303 -75 1759 -75 
Q 1078 -75 664 370 
Q 250 816 250 1647 
Q 250 2184 428 2587 
Q 606 2991 970 3192 
Q 1334 3394 1763 3394 
Q 2303 3394 2647 3120 
Q 2991 2847 3088 2344 
L 2541 2259 
Q 2463 2594 2264 2762 
Q 2066 2931 1784 2931 
Q 1359 2931 1093 2626 
Q 828 2322 828 1663 
Q 828 994 1084 691 
Q 1341 388 1753 388 
Q 2084 388 2306 591 
Q 2528 794 2588 1216 
z
" transform="scale(0.015625)"/>
      <path id="ArialMT-5f" d="M -97 -1272 
L -97 -866 
L 3631 -866 
L 3631 -1272 
L -97 -1272 
z
" transform="scale(0.015625)"/>
      <path id="ArialMT-77" d="M 1034 0 
L 19 3319 
L 600 3319 
L 1128 1403 
L 1325 691 
Q 1338 744 1497 1375 
L 2025 3319 
L 2603 3319 
L 3100 1394 
L 3266 759 
L 3456 1400 
L 4025 3319 
L 4572 3319 
L 3534 0 
L 2950 0 
L 2422 1988 
L 2294 2553 
L 1622 0 
L 1034 0 
z
" transform="scale(0.015625)"/>
      <path id="ArialMT-68" d="M 422 0 
L 422 4581 
L 984 4581 
L 984 2938 
Q 1378 3394 1978 3394 
Q 2347 3394 2619 3248 
Q 2891 3103 3008 2847 
Q 3125 2591 3125 2103 
L 3125 0 
L 2563 0 
L 2563 2103 
Q 2563 2525 2380 2717 
Q 2197 2909 1863 2909 
Q 1613 2909 1392 2779 
Q 1172 2650 1078 2428 
Q 984 2206 984 1816 
L 984 0 
L 422 0 
z
" transform="scale(0.015625)"/>
      <path id="ArialMT-6f" d="M 213 1659 
Q 213 2581 725 3025 
Q 1153 3394 1769 3394 
Q 2453 3394 2887 2945 
Q 3322 2497 3322 1706 
Q 3322 1066 3130 698 
Q 2938 331 2570 128 
Q 2203 -75 1769 -75 
Q 1072 -75 642 372 
Q 213 819 213 1659 
z
M 791 1659 
Q 791 1022 1069 705 
Q 1347 388 1769 388 
Q 2188 388 2466 706 
Q 2744 1025 2744 1678 
Q 2744 2294 2464 2611 
Q 2184 2928 1769 2928 
Q 1347 2928 1069 2612 
Q 791 2297 791 1659 
z
" transform="scale(0.015625)"/>
      <path id="ArialMT-6c" d="M 409 0 
L 409 4581 
L 972 4581 
L 972 0 
L 409 0 
z
" transform="scale(0.015625)"/>
      <path id="ArialMT-73" d="M 197 991 
L 753 1078 
Q 800 744 1014 566 
Q 1228 388 1613 388 
Q 2000 388 2187 545 
Q 2375 703 2375 916 
Q 2375 1106 2209 1216 
Q 2094 1291 1634 1406 
Q 1016 1563 777 1677 
Q 538 1791 414 1992 
Q 291 2194 291 2438 
Q 291 2659 392 2848 
Q 494 3038 669 3163 
Q 800 3259 1026 3326 
Q 1253 3394 1513 3394 
Q 1903 3394 2198 3281 
Q 2494 3169 2634 2976 
Q 2775 2784 2828 2463 
L 2278 2388 
Q 2241 2644 2061 2787 
Q 1881 2931 1553 2931 
Q 1166 2931 1000 2803 
Q 834 2675 834 2503 
Q 834 2394 903 2306 
Q 972 2216 1119 2156 
Q 1203 2125 1616 2013 
Q 2213 1853 2448 1751 
Q 2684 1650 2818 1456 
Q 2953 1263 2953 975 
Q 2953 694 2789 445 
Q 2625 197 2315 61 
Q 2006 -75 1616 -75 
Q 969 -75 630 194 
Q 291 463 197 991 
z
" transform="scale(0.015625)"/>
      <path id="ArialMT-29" d="M 791 -1347 
L 388 -1347 
Q 1322 153 1322 1656 
Q 1322 2244 1188 2822 
Q 1081 3291 891 3722 
Q 769 4003 388 4659 
L 791 4659 
Q 1378 3875 1659 3084 
Q 1900 2403 1900 1659 
Q 1900 816 1576 28 
Q 1253 -759 791 -1347 
z
" transform="scale(0.015625)"/>
     </defs>
     <use xlink:href="#ArialMT-44"/>
     <use xlink:href="#ArialMT-1af" transform="translate(72.216797 0)"/>
     <use xlink:href="#ArialMT-41" transform="translate(157.617188 0)"/>
     <use xlink:href="#ArialMT-20" transform="translate(218.816406 0)"/>
     <use xlink:href="#ArialMT-48" transform="translate(246.599609 0)"/>
     <use xlink:href="#ArialMT-1ea4" transform="translate(318.816406 0)"/>
     <use xlink:href="#ArialMT-55" transform="translate(385.515625 0)"/>
     <use xlink:href="#ArialMT-20" transform="translate(457.732422 0)"/>
     <use xlink:href="#ArialMT-2014" transform="translate(485.515625 0)"/>
     <use xlink:href="#ArialMT-20" transform="translate(585.515625 0)"/>
     <use xlink:href="#ArialMT-45" transform="translate(613.298828 0)"/>
     <use xlink:href="#ArialMT-76" transform="translate(679.998047 0)"/>
     <use xlink:href="#ArialMT-65" transform="translate(729.998047 0)"/>
     <use xlink:href="#ArialMT-6e" transform="translate(785.613281 0)"/>
     <use xlink:href="#ArialMT-74" transform="translate(841.228516 0)"/>
     <use xlink:href="#ArialMT-20" transform="translate(869.011719 0)"/>
     <use xlink:href="#ArialMT-4d" transform="translate(896.794922 0)"/>
     <use xlink:href="#ArialMT-61" transform="translate(980.095703 0)"/>
     <use xlink:href="#ArialMT-70" transform="translate(1035.710938 0)"/>
     <use xlink:href="#ArialMT-20" transform="translate(1091.326172 0)"/>
     <use xlink:href="#ArialMT-28" transform="translate(1119.109375 0)"/>
     <use xlink:href="#ArialMT-70" transform="translate(1152.410156 0)"/>
     <use xlink:href="#ArialMT-72" transform="translate(1208.025391 0)"/>
     <use xlink:href="#ArialMT-69" transform="translate(1241.326172 0)"/>
     <use xlink:href="#ArialMT-63" transform="translate(1263.542969 0)"/>
     <use xlink:href="#ArialMT-65" transform="translate(1313.542969 0)"/>
     <use xlink:href="#ArialMT-5f" transform="translate(1369.158203 0)"/>
     <use xlink:href="#ArialMT-77" transform="translate(1424.773438 0)"/>
     <use xlink:href="#ArialMT-68" transform="translate(1496.990234 0)"/>
     <use xlink:href="#ArialMT-6f" transform="translate(1552.605469 0)"/>
     <use xlink:href="#ArialMT-6c" transform="translate(1608.220703 0)"/>
     <use xlink:href="#ArialMT-65" transform="translate(1630.4375 0)"/>
     <use xlink:href="#ArialMT-73" transform="translate(1686.052734 0)"/>
     <use xlink:href="#ArialMT-61" transform="translate(1736.052734 0)"/>
     <use xlink:href="#ArialMT-6c" transform="translate(1791.667969 0)"/>
     <use xlink:href="#ArialMT-65" transform="translate(1813.884766 0)"/>
     <use xlink:href="#ArialMT-29" transform="translate(1869.5 0)"/>
    </g>
   </g>
   <g id="legend_1">
    <g id="patch_7">
     <path d="M 873.264844 100.928281 
L 987.34 100.928281 
Q 989.54 100.928281 989.54 98.728281 
L 989.54 37.46 
Q 989.54 35.26 987.34 35.26 
L 873.264844 35.26 
Q 871.064844 35.26 871.064844 37.46 
L 871.064844 98.728281 
Q 871.064844 100.928281 873.264844 100.928281 
z
" style="fill: #ffffff; opacity: 0.8; stroke: #cccccc; stroke-linejoin: miter"/>
    </g>
    <g id="line2d_15">
     <path d="M 875.464844 43.683594 
L 886.464844 43.683594 
L 897.464844 43.683594 
" style="fill: none; stroke: #4878d0; stroke-width: 1.5; stroke-linecap: round"/>
    </g>
    <g id="text_15">
     <!-- price_wholesale -->
     <g style="fill: #262626" transform="translate(906.264844 47.533594) scale(0.11 -0.11)">
      <use xlink:href="#ArialMT-70"/>
      <use xlink:href="#ArialMT-72" transform="translate(55.615234 0)"/>
      <use xlink:href="#ArialMT-69" transform="translate(88.916016 0)"/>
      <use xlink:href="#ArialMT-63" transform="translate(111.132812 0)"/>
      <use xlink:href="#ArialMT-65" transform="translate(161.132812 0)"/>
      <use xlink:href="#ArialMT-5f" transform="translate(216.748047 0)"/>
      <use xlink:href="#ArialMT-77" transform="translate(272.363281 0)"/>
      <use xlink:href="#ArialMT-68" transform="translate(344.580078 0)"/>
      <use xlink:href="#ArialMT-6f" transform="translate(400.195312 0)"/>
      <use xlink:href="#ArialMT-6c" transform="translate(455.810547 0)"/>
      <use xlink:href="#ArialMT-65" transform="translate(478.027344 0)"/>
      <use xlink:href="#ArialMT-73" transform="translate(533.642578 0)"/>
      <use xlink:href="#ArialMT-61" transform="translate(583.642578 0)"/>
      <use xlink:href="#ArialMT-6c" transform="translate(639.257812 0)"/>
      <use xlink:href="#ArialMT-65" transform="translate(661.474609 0)"/>
     </g>
    </g>
    <g id="PathCollection_4">
     <g>
      <use xlink:href="#m261f9e3b51" x="886.464844" y="60.205938" style="fill: #ffa500; stroke: #ffa500"/>
     </g>
    </g>
    <g id="text_16">
     <!-- Small Event -->
     <g style="fill: #262626" transform="translate(906.264844 63.093438) scale(0.11 -0.11)">
      <defs>
       <path id="ArialMT-53" d="M 288 1472 
L 859 1522 
Q 900 1178 1048 958 
Q 1197 738 1509 602 
Q 1822 466 2213 466 
Q 2559 466 2825 569 
Q 3091 672 3220 851 
Q 3350 1031 3350 1244 
Q 3350 1459 3225 1620 
Q 3100 1781 2813 1891 
Q 2628 1963 1997 2114 
Q 1366 2266 1113 2400 
Q 784 2572 623 2826 
Q 463 3081 463 3397 
Q 463 3744 659 4045 
Q 856 4347 1234 4503 
Q 1613 4659 2075 4659 
Q 2584 4659 2973 4495 
Q 3363 4331 3572 4012 
Q 3781 3694 3797 3291 
L 3216 3247 
Q 3169 3681 2898 3903 
Q 2628 4125 2100 4125 
Q 1550 4125 1298 3923 
Q 1047 3722 1047 3438 
Q 1047 3191 1225 3031 
Q 1400 2872 2139 2705 
Q 2878 2538 3153 2413 
Q 3553 2228 3743 1945 
Q 3934 1663 3934 1294 
Q 3934 928 3725 604 
Q 3516 281 3123 101 
Q 2731 -78 2241 -78 
Q 1619 -78 1198 103 
Q 778 284 539 648 
Q 300 1013 288 1472 
z
" transform="scale(0.015625)"/>
       <path id="ArialMT-6d" d="M 422 0 
L 422 3319 
L 925 3319 
L 925 2853 
Q 1081 3097 1340 3245 
Q 1600 3394 1931 3394 
Q 2300 3394 2536 3241 
Q 2772 3088 2869 2813 
Q 3263 3394 3894 3394 
Q 4388 3394 4653 3120 
Q 4919 2847 4919 2278 
L 4919 0 
L 4359 0 
L 4359 2091 
Q 4359 2428 4304 2576 
Q 4250 2725 4106 2815 
Q 3963 2906 3769 2906 
Q 3419 2906 3187 2673 
Q 2956 2441 2956 1928 
L 2956 0 
L 2394 0 
L 2394 2156 
Q 2394 2531 2256 2718 
Q 2119 2906 1806 2906 
Q 1569 2906 1367 2781 
Q 1166 2656 1075 2415 
Q 984 2175 984 1722 
L 984 0 
L 422 0 
z
" transform="scale(0.015625)"/>
      </defs>
      <use xlink:href="#ArialMT-53"/>
      <use xlink:href="#ArialMT-6d" transform="translate(66.699219 0)"/>
      <use xlink:href="#ArialMT-61" transform="translate(150 0)"/>
      <use xlink:href="#ArialMT-6c" transform="translate(205.615234 0)"/>
      <use xlink:href="#ArialMT-6c" transform="translate(227.832031 0)"/>
      <use xlink:href="#ArialMT-20" transform="translate(250.048828 0)"/>
      <use xlink:href="#ArialMT-45" transform="translate(277.832031 0)"/>
      <use xlink:href="#ArialMT-76" transform="translate(344.53125 0)"/>
      <use xlink:href="#ArialMT-65" transform="translate(394.53125 0)"/>
      <use xlink:href="#ArialMT-6e" transform="translate(450.146484 0)"/>
      <use xlink:href="#ArialMT-74" transform="translate(505.761719 0)"/>
     </g>
    </g>
    <g id="PathCollection_5">
     <g>
      <use xlink:href="#m2217b0919c" x="886.464844" y="75.765781" style="fill: #ff0000; stroke: #ff0000"/>
     </g>
    </g>
    <g id="text_17">
     <!-- Medium Event -->
     <g style="fill: #262626" transform="translate(906.264844 78.653281) scale(0.11 -0.11)">
      <defs>
       <path id="ArialMT-64" d="M 2575 0 
L 2575 419 
Q 2259 -75 1647 -75 
Q 1250 -75 917 144 
Q 584 363 401 755 
Q 219 1147 219 1656 
Q 219 2153 384 2558 
Q 550 2963 881 3178 
Q 1213 3394 1622 3394 
Q 1922 3394 2156 3267 
Q 2391 3141 2538 2938 
L 2538 4581 
L 3097 4581 
L 3097 0 
L 2575 0 
z
M 797 1656 
Q 797 1019 1065 703 
Q 1334 388 1700 388 
Q 2069 388 2326 689 
Q 2584 991 2584 1609 
Q 2584 2291 2321 2609 
Q 2059 2928 1675 2928 
Q 1300 2928 1048 2622 
Q 797 2316 797 1656 
z
" transform="scale(0.015625)"/>
       <path id="ArialMT-75" d="M 2597 0 
L 2597 488 
Q 2209 -75 1544 -75 
Q 1250 -75 995 37 
Q 741 150 617 320 
Q 494 491 444 738 
Q 409 903 409 1263 
L 409 3319 
L 972 3319 
L 972 1478 
Q 972 1038 1006 884 
Q 1059 663 1231 536 
Q 1403 409 1656 409 
Q 1909 409 2131 539 
Q 2353 669 2445 892 
Q 2538 1116 2538 1541 
L 2538 3319 
L 3100 3319 
L 3100 0 
L 2597 0 
z
" transform="scale(0.015625)"/>
      </defs>
      <use xlink:href="#ArialMT-4d"/>
      <use xlink:href="#ArialMT-65" transform="translate(83.300781 0)"/>
      <use xlink:href="#ArialMT-64" transform="translate(138.916016 0)"/>
      <use xlink:href="#ArialMT-69" transform="translate(194.53125 0)"/>
      <use xlink:href="#ArialMT-75" transform="translate(216.748047 0)"/>
      <use xlink:href="#ArialMT-6d" transform="translate(272.363281 0)"/>
      <use xlink:href="#ArialMT-20" transform="translate(355.664062 0)"/>
      <use xlink:href="#ArialMT-45" transform="translate(383.447266 0)"/>
      <use xlink:href="#ArialMT-76" transform="translate(450.146484 0)"/>
      <use xlink:href="#ArialMT-65" transform="translate(500.146484 0)"/>
      <use xlink:href="#ArialMT-6e" transform="translate(555.761719 0)"/>
      <use xlink:href="#ArialMT-74" transform="translate(611.376953 0)"/>
     </g>
    </g>
    <g id="PathCollection_6">
     <g>
      <use xlink:href="#m676d4c59b8" x="886.464844" y="91.325625" style="stroke: #000000"/>
     </g>
    </g>
    <g id="text_18">
     <!-- Major Event -->
     <g style="fill: #262626" transform="translate(906.264844 94.213125) scale(0.11 -0.11)">
      <defs>
       <path id="ArialMT-6a" d="M 419 3928 
L 419 4581 
L 981 4581 
L 981 3928 
L 419 3928 
z
M -294 -1288 
L -188 -809 
Q -19 -853 78 -853 
Q 250 -853 334 -739 
Q 419 -625 419 -169 
L 419 3319 
L 981 3319 
L 981 -181 
Q 981 -794 822 -1034 
Q 619 -1347 147 -1347 
Q -81 -1347 -294 -1288 
z
" transform="scale(0.015625)"/>
      </defs>
      <use xlink:href="#ArialMT-4d"/>
      <use xlink:href="#ArialMT-61" transform="translate(83.300781 0)"/>
      <use xlink:href="#ArialMT-6a" transform="translate(138.916016 0)"/>
      <use xlink:href="#ArialMT-6f" transform="translate(161.132812 0)"/>
      <use xlink:href="#ArialMT-72" transform="translate(216.748047 0)"/>
      <use xlink:href="#ArialMT-20" transform="translate(250.048828 0)"/>
      <use xlink:href="#ArialMT-45" transform="translate(277.832031 0)"/>
      <use xlink:href="#ArialMT-76" transform="translate(344.53125 0)"/>
      <use xlink:href="#ArialMT-65" transform="translate(394.53125 0)"/>
      <use xlink:href="#ArialMT-6e" transform="translate(450.146484 0)"/>
      <use xlink:href="#ArialMT-74" transform="translate(505.761719 0)"/>
     </g>
    </g>
   </g>
  </g>
 </g>
 <defs>
  <clipPath id="p21b8479969">
   <rect x="53.105" y="29.76" width="941.935" height="369.34"/>
  </clipPath>
 </defs>
</svg>
