<?xml version="1.0" encoding="utf-8" standalone="no"?>
<!DOCTYPE svg PUBLIC "-//W3C//DTD SVG 1.1//EN"
  "http://www.w3.org/Graphics/SVG/1.1/DTD/svg11.dtd">
<svg xmlns:xlink="http://www.w3.org/1999/xlink" width="1008pt" height="432pt" viewBox="0 0 1008 432" xmlns="http://www.w3.org/2000/svg" version="1.1">
 <metadata>
  <rdf:RDF xmlns:dc="http://purl.org/dc/elements/1.1/" xmlns:cc="http://creativecommons.org/ns#" xmlns:rdf="http://www.w3.org/1999/02/22-rdf-syntax-ns#">
   <cc:Work>
    <dc:type rdf:resource="http://purl.org/dc/dcmitype/StillImage"/>
    <dc:date>2025-12-12T01:10:08.000991</dc:date>
    <dc:format>image/svg+xml</dc:format>
    <dc:creator>
     <cc:Agent>
      <dc:title>Matplotlib v3.10.7, https://matplotlib.org/</dc:title>
     </cc:Agent>
    </dc:creator>
   </cc:Work>
  </rdf:RDF>
 </metadata>
 <defs>
  <style type="text/css">*{stroke-linejoin: round; stroke-linecap: butt}</style>
 </defs>
 <g id="figure_1">
  <g id="patch_1">
   <path d="M 0 432 
L 1008 432 
L 1008 0 
L 0 0 
z
" style="fill: #ffffff"/>
  </g>
  <g id="axes_1">
   <g id="patch_2">
    <path d="M 53.06 399.1 
L 995.04 399.1 
L 995.04 30.12 
L 53.06 30.12 
z
" style="fill: #ffffff"/>
   </g>
   <g id="matplotlib.axis_1">
    <g id="xtick_1">
     <g id="line2d_1">
      <path d="M 95.877273 399.1 
L 95.877273 30.12 
" clip-path="url(#p4e9f3fb053)" style="fill: none; stroke: #cccccc; stroke-linecap: round"/>
     </g>
     <g id="text_1">
      <!-- 2024-09 -->
      <g style="fill: #262626" transform="translate(75.694851 416.473594) scale(0.11 -0.11)">
       <defs>
        <path id="ArialMT-32" d="M 3222 541 
L 3222 0 
L 194 0 
Q 188 203 259 391 
Q 375 700 629 1000 
Q 884 1300 1366 1694 
Q 2113 2306 2375 2664 
Q 2638 3022 2638 3341 
Q 2638 3675 2398 3904 
Q 2159 4134 1775 4134 
Q 1369 4134 1125 3890 
Q 881 3647 878 3216 
L 300 3275 
Q 359 3922 746 4261 
Q 1134 4600 1788 4600 
Q 2447 4600 2831 4234 
Q 3216 3869 3216 3328 
Q 3216 3053 3103 2787 
Q 2991 2522 2730 2228 
Q 2469 1934 1863 1422 
Q 1356 997 1212 845 
Q 1069 694 975 541 
L 3222 541 
z
" transform="scale(0.015625)"/>
        <path id="ArialMT-30" d="M 266 2259 
Q 266 3072 433 3567 
Q 600 4063 929 4331 
Q 1259 4600 1759 4600 
Q 2128 4600 2406 4451 
Q 2684 4303 2865 4023 
Q 3047 3744 3150 3342 
Q 3253 2941 3253 2259 
Q 3253 1453 3087 958 
Q 2922 463 2592 192 
Q 2263 -78 1759 -78 
Q 1097 -78 719 397 
Q 266 969 266 2259 
z
M 844 2259 
Q 844 1131 1108 757 
Q 1372 384 1759 384 
Q 2147 384 2411 759 
Q 2675 1134 2675 2259 
Q 2675 3391 2411 3762 
Q 2147 4134 1753 4134 
Q 1366 4134 1134 3806 
Q 844 3388 844 2259 
z
" transform="scale(0.015625)"/>
        <path id="ArialMT-34" d="M 2069 0 
L 2069 1097 
L 81 1097 
L 81 1613 
L 2172 4581 
L 2631 4581 
L 2631 1613 
L 3250 1613 
L 3250 1097 
L 2631 1097 
L 2631 0 
L 2069 0 
z
M 2069 1613 
L 2069 3678 
L 634 1613 
L 2069 1613 
z
" transform="scale(0.015625)"/>
        <path id="ArialMT-2d" d="M 203 1375 
L 203 1941 
L 1931 1941 
L 1931 1375 
L 203 1375 
z
" transform="scale(0.015625)"/>
        <path id="ArialMT-39" d="M 350 1059 
L 891 1109 
Q 959 728 1153 556 
Q 1347 384 1650 384 
Q 1909 384 2104 503 
Q 2300 622 2425 820 
Q 2550 1019 2634 1356 
Q 2719 1694 2719 2044 
Q 2719 2081 2716 2156 
Q 2547 1888 2255 1720 
Q 1963 1553 1622 1553 
Q 1053 1553 659 1965 
Q 266 2378 266 3053 
Q 266 3750 677 4175 
Q 1088 4600 1706 4600 
Q 2153 4600 2523 4359 
Q 2894 4119 3086 3673 
Q 3278 3228 3278 2384 
Q 3278 1506 3087 986 
Q 2897 466 2520 194 
Q 2144 -78 1638 -78 
Q 1100 -78 759 220 
Q 419 519 350 1059 
z
M 2653 3081 
Q 2653 3566 2395 3850 
Q 2138 4134 1775 4134 
Q 1400 4134 1122 3828 
Q 844 3522 844 3034 
Q 844 2597 1108 2323 
Q 1372 2050 1759 2050 
Q 2150 2050 2401 2323 
Q 2653 2597 2653 3081 
z
" transform="scale(0.015625)"/>
       </defs>
       <use xlink:href="#ArialMT-32"/>
       <use xlink:href="#ArialMT-30" transform="translate(55.615234 0)"/>
       <use xlink:href="#ArialMT-32" transform="translate(111.230469 0)"/>
       <use xlink:href="#ArialMT-34" transform="translate(166.845703 0)"/>
       <use xlink:href="#ArialMT-2d" transform="translate(222.460938 0)"/>
       <use xlink:href="#ArialMT-30" transform="translate(255.761719 0)"/>
       <use xlink:href="#ArialMT-39" transform="translate(311.376953 0)"/>
      </g>
     </g>
    </g>
    <g id="xtick_2">
     <g id="line2d_2">
      <path d="M 228.458676 399.1 
L 228.458676 30.12 
" clip-path="url(#p4e9f3fb053)" style="fill: none; stroke: #cccccc; stroke-linecap: round"/>
     </g>
     <g id="text_2">
      <!-- 2024-11 -->
      <g style="fill: #262626" transform="translate(208.681879 416.473594) scale(0.11 -0.11)">
       <defs>
        <path id="ArialMT-31" d="M 2384 0 
L 1822 0 
L 1822 3584 
Q 1619 3391 1289 3197 
Q 959 3003 697 2906 
L 697 3450 
Q 1169 3672 1522 3987 
Q 1875 4303 2022 4600 
L 2384 4600 
L 2384 0 
z
" transform="scale(0.015625)"/>
       </defs>
       <use xlink:href="#ArialMT-32"/>
       <use xlink:href="#ArialMT-30" transform="translate(55.615234 0)"/>
       <use xlink:href="#ArialMT-32" transform="translate(111.230469 0)"/>
       <use xlink:href="#ArialMT-34" transform="translate(166.845703 0)"/>
       <use xlink:href="#ArialMT-2d" transform="translate(222.460938 0)"/>
       <use xlink:href="#ArialMT-31" transform="translate(255.761719 0)"/>
       <use xlink:href="#ArialMT-31" transform="translate(304.001953 0)"/>
      </g>
     </g>
    </g>
    <g id="xtick_3">
     <g id="line2d_3">
      <path d="M 361.040078 399.1 
L 361.040078 30.12 
" clip-path="url(#p4e9f3fb053)" style="fill: none; stroke: #cccccc; stroke-linecap: round"/>
     </g>
     <g id="text_3">
      <!-- 2025-01 -->
      <g style="fill: #262626" transform="translate(340.857657 416.473594) scale(0.11 -0.11)">
       <defs>
        <path id="ArialMT-35" d="M 266 1200 
L 856 1250 
Q 922 819 1161 601 
Q 1400 384 1738 384 
Q 2144 384 2425 690 
Q 2706 997 2706 1503 
Q 2706 1984 2436 2262 
Q 2166 2541 1728 2541 
Q 1456 2541 1237 2417 
Q 1019 2294 894 2097 
L 366 2166 
L 809 4519 
L 3088 4519 
L 3088 3981 
L 1259 3981 
L 1013 2750 
Q 1425 3038 1878 3038 
Q 2478 3038 2890 2622 
Q 3303 2206 3303 1553 
Q 3303 931 2941 478 
Q 2500 -78 1738 -78 
Q 1113 -78 717 272 
Q 322 622 266 1200 
z
" transform="scale(0.015625)"/>
       </defs>
       <use xlink:href="#ArialMT-32"/>
       <use xlink:href="#ArialMT-30" transform="translate(55.615234 0)"/>
       <use xlink:href="#ArialMT-32" transform="translate(111.230469 0)"/>
       <use xlink:href="#ArialMT-35" transform="translate(166.845703 0)"/>
       <use xlink:href="#ArialMT-2d" transform="translate(222.460938 0)"/>
       <use xlink:href="#ArialMT-30" transform="translate(255.761719 0)"/>
       <use xlink:href="#ArialMT-31" transform="translate(311.376953 0)"/>
      </g>
     </g>
    </g>
    <g id="xtick_4">
     <g id="line2d_4">
      <path d="M 489.27455 399.1 
L 489.27455 30.12 
" clip-path="url(#p4e9f3fb053)" style="fill: none; stroke: #cccccc; stroke-linecap: round"/>
     </g>
     <g id="text_4">
      <!-- 2025-03 -->
      <g style="fill: #262626" transform="translate(469.092128 416.473594) scale(0.11 -0.11)">
       <defs>
        <path id="ArialMT-33" d="M 269 1209 
L 831 1284 
Q 928 806 1161 595 
Q 1394 384 1728 384 
Q 2125 384 2398 659 
Q 2672 934 2672 1341 
Q 2672 1728 2419 1979 
Q 2166 2231 1775 2231 
Q 1616 2231 1378 2169 
L 1441 2663 
Q 1497 2656 1531 2656 
Q 1891 2656 2178 2843 
Q 2466 3031 2466 3422 
Q 2466 3731 2256 3934 
Q 2047 4138 1716 4138 
Q 1388 4138 1169 3931 
Q 950 3725 888 3313 
L 325 3413 
Q 428 3978 793 4289 
Q 1159 4600 1703 4600 
Q 2078 4600 2393 4439 
Q 2709 4278 2876 4000 
Q 3044 3722 3044 3409 
Q 3044 3113 2884 2869 
Q 2725 2625 2413 2481 
Q 2819 2388 3044 2092 
Q 3269 1797 3269 1353 
Q 3269 753 2831 336 
Q 2394 -81 1725 -81 
Q 1122 -81 723 278 
Q 325 638 269 1209 
z
" transform="scale(0.015625)"/>
       </defs>
       <use xlink:href="#ArialMT-32"/>
       <use xlink:href="#ArialMT-30" transform="translate(55.615234 0)"/>
       <use xlink:href="#ArialMT-32" transform="translate(111.230469 0)"/>
       <use xlink:href="#ArialMT-35" transform="translate(166.845703 0)"/>
       <use xlink:href="#ArialMT-2d" transform="translate(222.460938 0)"/>
       <use xlink:href="#ArialMT-30" transform="translate(255.761719 0)"/>
       <use xlink:href="#ArialMT-33" transform="translate(311.376953 0)"/>
      </g>
     </g>
    </g>
    <g id="xtick_5">
     <g id="line2d_5">
      <path d="M 621.855953 399.1 
L 621.855953 30.12 
" clip-path="url(#p4e9f3fb053)" style="fill: none; stroke: #cccccc; stroke-linecap: round"/>
     </g>
     <g id="text_5">
      <!-- 2025-05 -->
      <g style="fill: #262626" transform="translate(601.673531 416.473594) scale(0.11 -0.11)">
       <use xlink:href="#ArialMT-32"/>
       <use xlink:href="#ArialMT-30" transform="translate(55.615234 0)"/>
       <use xlink:href="#ArialMT-32" transform="translate(111.230469 0)"/>
       <use xlink:href="#ArialMT-35" transform="translate(166.845703 0)"/>
       <use xlink:href="#ArialMT-2d" transform="translate(222.460938 0)"/>
       <use xlink:href="#ArialMT-30" transform="translate(255.761719 0)"/>
       <use xlink:href="#ArialMT-35" transform="translate(311.376953 0)"/>
      </g>
     </g>
    </g>
    <g id="xtick_6">
     <g id="line2d_6">
      <path d="M 754.437356 399.1 
L 754.437356 30.12 
" clip-path="url(#p4e9f3fb053)" style="fill: none; stroke: #cccccc; stroke-linecap: round"/>
     </g>
     <g id="text_6">
      <!-- 2025-07 -->
      <g style="fill: #262626" transform="translate(734.254934 416.473594) scale(0.11 -0.11)">
       <defs>
        <path id="ArialMT-37" d="M 303 3981 
L 303 4522 
L 3269 4522 
L 3269 4084 
Q 2831 3619 2401 2847 
Q 1972 2075 1738 1259 
Q 1569 684 1522 0 
L 944 0 
Q 953 541 1156 1306 
Q 1359 2072 1739 2783 
Q 2119 3494 2547 3981 
L 303 3981 
z
" transform="scale(0.015625)"/>
       </defs>
       <use xlink:href="#ArialMT-32"/>
       <use xlink:href="#ArialMT-30" transform="translate(55.615234 0)"/>
       <use xlink:href="#ArialMT-32" transform="translate(111.230469 0)"/>
       <use xlink:href="#ArialMT-35" transform="translate(166.845703 0)"/>
       <use xlink:href="#ArialMT-2d" transform="translate(222.460938 0)"/>
       <use xlink:href="#ArialMT-30" transform="translate(255.761719 0)"/>
       <use xlink:href="#ArialMT-37" transform="translate(311.376953 0)"/>
      </g>
     </g>
    </g>
    <g id="xtick_7">
     <g id="line2d_7">
      <path d="M 889.192224 399.1 
L 889.192224 30.12 
" clip-path="url(#p4e9f3fb053)" style="fill: none; stroke: #cccccc; stroke-linecap: round"/>
     </g>
     <g id="text_7">
      <!-- 2025-09 -->
      <g style="fill: #262626" transform="translate(869.009802 416.473594) scale(0.11 -0.11)">
       <use xlink:href="#ArialMT-32"/>
       <use xlink:href="#ArialMT-30" transform="translate(55.615234 0)"/>
       <use xlink:href="#ArialMT-32" transform="translate(111.230469 0)"/>
       <use xlink:href="#ArialMT-35" transform="translate(166.845703 0)"/>
       <use xlink:href="#ArialMT-2d" transform="translate(222.460938 0)"/>
       <use xlink:href="#ArialMT-30" transform="translate(255.761719 0)"/>
       <use xlink:href="#ArialMT-39" transform="translate(311.376953 0)"/>
      </g>
     </g>
    </g>
   </g>
   <g id="matplotlib.axis_2">
    <g id="ytick_1">
     <g id="line2d_8">
      <path d="M 53.06 382.328182 
L 995.04 382.328182 
" clip-path="url(#p4e9f3fb053)" style="fill: none; stroke: #cccccc; stroke-linecap: round"/>
     </g>
     <g id="text_8">
      <!-- 22000 -->
      <g style="fill: #262626" transform="translate(12.974844 386.264979) scale(0.11 -0.11)">
       <use xlink:href="#ArialMT-32"/>
       <use xlink:href="#ArialMT-32" transform="translate(55.615234 0)"/>
       <use xlink:href="#ArialMT-30" transform="translate(111.230469 0)"/>
       <use xlink:href="#ArialMT-30" transform="translate(166.845703 0)"/>
       <use xlink:href="#ArialMT-30" transform="translate(222.460938 0)"/>
      </g>
     </g>
    </g>
    <g id="ytick_2">
     <g id="line2d_9">
      <path d="M 53.06 326.422121 
L 995.04 326.422121 
" clip-path="url(#p4e9f3fb053)" style="fill: none; stroke: #cccccc; stroke-linecap: round"/>
     </g>
     <g id="text_9">
      <!-- 24000 -->
      <g style="fill: #262626" transform="translate(12.974844 330.358918) scale(0.11 -0.11)">
       <use xlink:href="#ArialMT-32"/>
       <use xlink:href="#ArialMT-34" transform="translate(55.615234 0)"/>
       <use xlink:href="#ArialMT-30" transform="translate(111.230469 0)"/>
       <use xlink:href="#ArialMT-30" transform="translate(166.845703 0)"/>
       <use xlink:href="#ArialMT-30" transform="translate(222.460938 0)"/>
      </g>
     </g>
    </g>
    <g id="ytick_3">
     <g id="line2d_10">
      <path d="M 53.06 270.516061 
L 995.04 270.516061 
" clip-path="url(#p4e9f3fb053)" style="fill: none; stroke: #cccccc; stroke-linecap: round"/>
     </g>
     <g id="text_10">
      <!-- 26000 -->
      <g style="fill: #262626" transform="translate(12.974844 274.452857) scale(0.11 -0.11)">
       <defs>
        <path id="ArialMT-36" d="M 3184 3459 
L 2625 3416 
Q 2550 3747 2413 3897 
Q 2184 4138 1850 4138 
Q 1581 4138 1378 3988 
Q 1113 3794 959 3422 
Q 806 3050 800 2363 
Q 1003 2672 1297 2822 
Q 1591 2972 1913 2972 
Q 2475 2972 2870 2558 
Q 3266 2144 3266 1488 
Q 3266 1056 3080 686 
Q 2894 316 2569 119 
Q 2244 -78 1831 -78 
Q 1128 -78 684 439 
Q 241 956 241 2144 
Q 241 3472 731 4075 
Q 1159 4600 1884 4600 
Q 2425 4600 2770 4297 
Q 3116 3994 3184 3459 
z
M 888 1484 
Q 888 1194 1011 928 
Q 1134 663 1356 523 
Q 1578 384 1822 384 
Q 2178 384 2434 671 
Q 2691 959 2691 1453 
Q 2691 1928 2437 2201 
Q 2184 2475 1800 2475 
Q 1419 2475 1153 2201 
Q 888 1928 888 1484 
z
" transform="scale(0.015625)"/>
       </defs>
       <use xlink:href="#ArialMT-32"/>
       <use xlink:href="#ArialMT-36" transform="translate(55.615234 0)"/>
       <use xlink:href="#ArialMT-30" transform="translate(111.230469 0)"/>
       <use xlink:href="#ArialMT-30" transform="translate(166.845703 0)"/>
       <use xlink:href="#ArialMT-30" transform="translate(222.460938 0)"/>
      </g>
     </g>
    </g>
    <g id="ytick_4">
     <g id="line2d_11">
      <path d="M 53.06 214.61 
L 995.04 214.61 
" clip-path="url(#p4e9f3fb053)" style="fill: none; stroke: #cccccc; stroke-linecap: round"/>
     </g>
     <g id="text_11">
      <!-- 28000 -->
      <g style="fill: #262626" transform="translate(12.974844 218.546797) scale(0.11 -0.11)">
       <defs>
        <path id="ArialMT-38" d="M 1131 2484 
Q 781 2613 612 2850 
Q 444 3088 444 3419 
Q 444 3919 803 4259 
Q 1163 4600 1759 4600 
Q 2359 4600 2725 4251 
Q 3091 3903 3091 3403 
Q 3091 3084 2923 2848 
Q 2756 2613 2416 2484 
Q 2838 2347 3058 2040 
Q 3278 1734 3278 1309 
Q 3278 722 2862 322 
Q 2447 -78 1769 -78 
Q 1091 -78 675 323 
Q 259 725 259 1325 
Q 259 1772 486 2073 
Q 713 2375 1131 2484 
z
M 1019 3438 
Q 1019 3113 1228 2906 
Q 1438 2700 1772 2700 
Q 2097 2700 2305 2904 
Q 2513 3109 2513 3406 
Q 2513 3716 2298 3927 
Q 2084 4138 1766 4138 
Q 1444 4138 1231 3931 
Q 1019 3725 1019 3438 
z
M 838 1322 
Q 838 1081 952 856 
Q 1066 631 1291 507 
Q 1516 384 1775 384 
Q 2178 384 2440 643 
Q 2703 903 2703 1303 
Q 2703 1709 2433 1975 
Q 2163 2241 1756 2241 
Q 1359 2241 1098 1978 
Q 838 1716 838 1322 
z
" transform="scale(0.015625)"/>
       </defs>
       <use xlink:href="#ArialMT-32"/>
       <use xlink:href="#ArialMT-38" transform="translate(55.615234 0)"/>
       <use xlink:href="#ArialMT-30" transform="translate(111.230469 0)"/>
       <use xlink:href="#ArialMT-30" transform="translate(166.845703 0)"/>
       <use xlink:href="#ArialMT-30" transform="translate(222.460938 0)"/>
      </g>
     </g>
    </g>
    <g id="ytick_5">
     <g id="line2d_12">
      <path d="M 53.06 158.703939 
L 995.04 158.703939 
" clip-path="url(#p4e9f3fb053)" style="fill: none; stroke: #cccccc; stroke-linecap: round"/>
     </g>
     <g id="text_12">
      <!-- 30000 -->
      <g style="fill: #262626" transform="translate(12.974844 162.640736) scale(0.11 -0.11)">
       <use xlink:href="#ArialMT-33"/>
       <use xlink:href="#ArialMT-30" transform="translate(55.615234 0)"/>
       <use xlink:href="#ArialMT-30" transform="translate(111.230469 0)"/>
       <use xlink:href="#ArialMT-30" transform="translate(166.845703 0)"/>
       <use xlink:href="#ArialMT-30" transform="translate(222.460938 0)"/>
      </g>
     </g>
    </g>
    <g id="ytick_6">
     <g id="line2d_13">
      <path d="M 53.06 102.797879 
L 995.04 102.797879 
" clip-path="url(#p4e9f3fb053)" style="fill: none; stroke: #cccccc; stroke-linecap: round"/>
     </g>
     <g id="text_13">
      <!-- 32000 -->
      <g style="fill: #262626" transform="translate(12.974844 106.734676) scale(0.11 -0.11)">
       <use xlink:href="#ArialMT-33"/>
       <use xlink:href="#ArialMT-32" transform="translate(55.615234 0)"/>
       <use xlink:href="#ArialMT-30" transform="translate(111.230469 0)"/>
       <use xlink:href="#ArialMT-30" transform="translate(166.845703 0)"/>
       <use xlink:href="#ArialMT-30" transform="translate(222.460938 0)"/>
      </g>
     </g>
    </g>
    <g id="ytick_7">
     <g id="line2d_14">
      <path d="M 53.06 46.891818 
L 995.04 46.891818 
" clip-path="url(#p4e9f3fb053)" style="fill: none; stroke: #cccccc; stroke-linecap: round"/>
     </g>
     <g id="text_14">
      <!-- 34000 -->
      <g style="fill: #262626" transform="translate(12.974844 50.828615) scale(0.11 -0.11)">
       <use xlink:href="#ArialMT-33"/>
       <use xlink:href="#ArialMT-34" transform="translate(55.615234 0)"/>
       <use xlink:href="#ArialMT-30" transform="translate(111.230469 0)"/>
       <use xlink:href="#ArialMT-30" transform="translate(166.845703 0)"/>
       <use xlink:href="#ArialMT-30" transform="translate(222.460938 0)"/>
      </g>
     </g>
    </g>
   </g>
   <g id="PathCollection_1">
    <defs>
     <path id="mfd137a4075" d="M 0 3.535534 
C 0.937635 3.535534 1.836992 3.163008 2.5 2.5 
C 3.163008 1.836992 3.535534 0.937635 3.535534 0 
C 3.535534 -0.937635 3.163008 -1.836992 2.5 -2.5 
C 1.836992 -3.163008 0.937635 -3.535534 0 -3.535534 
C -0.937635 -3.535534 -1.836992 -3.163008 -2.5 -2.5 
C -3.163008 -1.836992 -3.535534 -0.937635 -3.535534 0 
C -3.535534 0.937635 -3.163008 1.836992 -2.5 2.5 
C -1.836992 3.163008 -0.937635 3.535534 0 3.535534 
z
" style="stroke: #ffa500"/>
    </defs>
    <g clip-path="url(#p4e9f3fb053)">
     <use xlink:href="#mfd137a4075" x="191.50976" y="136.341515" style="fill: #ffa500; stroke: #ffa500"/>
     <use xlink:href="#mfd137a4075" x="254.540263" y="74.844848" style="fill: #ffa500; stroke: #ffa500"/>
     <use xlink:href="#mfd137a4075" x="315.3973" y="102.797879" style="fill: #ffa500; stroke: #ffa500"/>
     <use xlink:href="#mfd137a4075" x="513.182672" y="354.375152" style="fill: #ffa500; stroke: #ffa500"/>
     <use xlink:href="#mfd137a4075" x="528.396931" y="382.328182" style="fill: #ffa500; stroke: #ffa500"/>
     <use xlink:href="#mfd137a4075" x="587.080503" y="270.516061" style="fill: #ffa500; stroke: #ffa500"/>
    </g>
   </g>
   <g id="PathCollection_2">
    <defs>
     <path id="m471b615cea" d="M 0 4.472136 
C 1.186024 4.472136 2.323632 4.000923 3.162278 3.162278 
C 4.000923 2.323632 4.472136 1.186024 4.472136 0 
C 4.472136 -1.186024 4.000923 -2.323632 3.162278 -3.162278 
C 2.323632 -4.000923 1.186024 -4.472136 0 -4.472136 
C -1.186024 -4.472136 -2.323632 -4.000923 -3.162278 -3.162278 
C -4.000923 -2.323632 -4.472136 -1.186024 -4.472136 0 
C -4.472136 1.186024 -4.000923 2.323632 -3.162278 3.162278 
C -2.323632 4.000923 -1.186024 4.472136 0 4.472136 
z
" style="stroke: #ff0000"/>
    </defs>
    <g clip-path="url(#p4e9f3fb053)">
     <use xlink:href="#m471b615cea" x="154.560844" y="74.844848" style="fill: #ff0000; stroke: #ff0000"/>
     <use xlink:href="#m471b615cea" x="515.356138" y="136.341515" style="fill: #ff0000; stroke: #ff0000"/>
    </g>
   </g>
   <g id="PathCollection_3"/>
   <g id="line2d_15">
    <path d="M 95.877273 222.995909 
L 98.050738 206.224091 
L 100.224204 147.522727 
L 102.39767 102.797879 
L 104.571135 231.381818 
L 106.744601 169.885152 
L 108.918066 253.744242 
L 111.091532 186.65697 
L 113.264998 192.247576 
L 115.438463 141.932121 
L 117.611929 102.797879 
L 119.785395 175.475758 
L 121.95886 130.750909 
L 124.132326 158.703939 
L 126.305791 86.026061 
L 128.479257 214.61 
L 130.652723 186.65697 
L 132.826188 102.797879 
L 134.999654 169.885152 
L 137.17312 130.750909 
L 139.346585 192.247576 
L 141.520051 200.633485 
L 143.693516 169.885152 
L 145.866982 169.885152 
L 148.040448 158.703939 
L 150.213913 315.240909 
L 152.387379 304.059697 
L 154.560844 74.844848 
L 156.73431 141.932121 
L 158.907776 74.844848 
L 161.081241 259.334848 
L 163.254707 158.703939 
L 165.428173 192.247576 
L 167.601638 108.388485 
L 169.775104 203.428788 
L 171.948569 108.388485 
L 174.122035 248.153636 
L 176.295501 197.838182 
L 178.468966 102.797879 
L 180.642432 136.341515 
L 182.815898 175.475758 
L 184.989363 203.428788 
L 187.162829 186.65697 
L 189.336294 287.287879 
L 191.50976 136.341515 
L 193.683226 102.797879 
L 195.856691 113.979091 
L 198.030157 181.066364 
L 200.203623 186.65697 
L 202.377088 164.294545 
L 204.550554 164.294545 
L 206.724019 197.838182 
L 208.897485 158.703939 
L 211.070951 214.61 
L 213.244416 86.026061 
L 215.417882 69.254242 
L 217.591347 206.224091 
L 219.764813 200.633485 
L 221.938279 141.932121 
L 224.111744 158.703939 
L 226.28521 248.153636 
L 228.458676 153.113333 
L 230.632141 197.838182 
L 232.805607 214.61 
L 237.152538 147.522727 
L 239.326004 74.844848 
L 241.499469 141.932121 
L 243.672935 281.697273 
L 245.846401 225.791212 
L 248.019866 304.059697 
L 250.193332 175.475758 
L 252.366797 253.744242 
L 254.540263 74.844848 
L 256.713729 214.61 
L 258.887194 281.697273 
L 261.06066 211.814697 
L 263.234126 245.358333 
L 265.407591 195.042879 
L 267.581057 195.042879 
L 269.754522 74.844848 
L 271.927988 214.61 
L 274.101454 181.066364 
L 276.274919 214.61 
L 278.448385 167.089848 
L 280.62185 211.814697 
L 282.795316 214.61 
L 284.968782 60.868333 
L 287.142247 228.586515 
L 289.315713 175.475758 
L 291.489179 270.516061 
L 293.662644 175.475758 
L 295.83611 287.287879 
L 298.009575 158.703939 
L 300.183041 102.797879 
L 302.356507 186.65697 
L 304.529972 304.059697 
L 306.703438 186.65697 
L 308.876904 222.995909 
L 311.050369 228.586515 
L 313.223835 253.744242 
L 315.3973 102.797879 
L 317.570766 102.797879 
L 319.744232 245.358333 
L 321.917697 181.066364 
L 324.091163 175.475758 
L 326.264629 141.932121 
L 328.438094 281.697273 
L 330.61156 276.106667 
L 332.785025 222.995909 
L 334.958491 270.516061 
L 337.131957 248.153636 
L 339.305422 236.972424 
L 341.478888 236.972424 
L 343.652353 228.586515 
L 345.825819 217.405303 
L 347.999285 270.516061 
L 350.17275 169.885152 
L 352.346216 186.65697 
L 354.519682 270.516061 
L 356.693147 253.744242 
L 358.866613 281.697273 
L 361.040078 270.516061 
L 363.213544 186.65697 
L 365.38701 169.885152 
L 367.560475 270.516061 
L 369.733941 253.744242 
L 374.080872 253.744242 
L 376.254338 214.61 
L 378.427803 253.744242 
L 380.601269 276.106667 
L 382.774735 236.972424 
L 387.121666 236.972424 
L 389.295132 253.744242 
L 391.468597 186.65697 
L 393.642063 214.61 
L 395.815528 253.744242 
L 400.16246 253.744242 
L 402.335925 276.106667 
L 404.509391 253.744242 
L 406.682856 186.65697 
L 408.856322 231.381818 
L 411.029788 231.381818 
L 413.203253 214.61 
L 415.376719 231.381818 
L 417.550185 253.744242 
L 421.897116 253.744242 
L 424.070581 214.61 
L 426.244047 253.744242 
L 428.417513 253.744242 
L 430.590978 259.334848 
L 432.764444 276.106667 
L 434.93791 253.744242 
L 437.111375 214.61 
L 439.284841 253.744242 
L 447.978703 253.744242 
L 450.152169 236.972424 
L 452.325635 158.703939 
L 454.4991 158.703939 
L 456.672566 192.247576 
L 458.846031 164.294545 
L 461.019497 270.516061 
L 463.192963 292.878485 
L 465.366428 214.61 
L 467.539894 270.516061 
L 469.713359 242.56303 
L 471.886825 192.247576 
L 474.060291 236.972424 
L 476.233756 264.925455 
L 478.407222 315.240909 
L 480.580688 298.469091 
L 482.754153 298.469091 
L 484.927619 287.287879 
L 487.101084 298.469091 
L 489.27455 236.972424 
L 491.448016 253.744242 
L 493.621481 276.106667 
L 495.794947 231.381818 
L 497.968413 298.469091 
L 500.141878 169.885152 
L 502.315344 209.019394 
L 504.488809 197.838182 
L 506.662275 276.106667 
L 508.835741 214.61 
L 511.009206 136.341515 
L 513.182672 354.375152 
L 515.356138 136.341515 
L 517.529603 220.200606 
L 519.703069 231.381818 
L 521.876534 248.153636 
L 524.05 309.650303 
L 526.223466 214.61 
L 528.396931 382.328182 
L 530.570397 287.287879 
L 532.743862 264.925455 
L 534.917328 264.925455 
L 537.090794 259.334848 
L 539.264259 192.247576 
L 541.437725 287.287879 
L 543.611191 326.422121 
L 545.784656 220.200606 
L 547.958122 270.516061 
L 550.131587 214.61 
L 552.305053 141.932121 
L 554.478519 264.925455 
L 556.651984 197.838182 
L 558.82545 326.422121 
L 560.998916 231.381818 
L 563.172381 225.791212 
L 565.345847 169.885152 
L 567.519312 197.838182 
L 569.692778 270.516061 
L 571.866244 214.61 
L 574.039709 298.469091 
L 576.213175 164.294545 
L 578.386641 141.932121 
L 580.560106 136.341515 
L 582.733572 113.979091 
L 584.907037 46.891818 
L 587.080503 270.516061 
L 589.253969 214.61 
L 591.427434 242.56303 
L 593.6009 113.979091 
L 595.774365 125.160303 
L 597.947831 220.200606 
L 600.121297 108.388485 
L 602.294762 169.885152 
L 604.468228 186.65697 
L 606.641694 147.522727 
L 608.815159 186.65697 
L 610.988625 175.475758 
L 613.16209 158.703939 
L 615.335556 97.207273 
L 617.509022 158.703939 
L 619.682487 147.522727 
L 621.855953 169.885152 
L 624.029419 141.932121 
L 626.202884 147.522727 
L 628.37635 214.61 
L 630.549815 231.381818 
L 632.723281 209.019394 
L 634.896747 130.750909 
L 637.070212 147.522727 
L 639.243678 147.522727 
L 641.417144 239.767727 
L 643.590609 181.066364 
L 645.764075 181.066364 
L 647.93754 197.838182 
L 650.111006 169.885152 
L 652.284472 186.65697 
L 654.457937 158.703939 
L 656.631403 181.066364 
L 658.804868 209.019394 
L 660.978334 169.885152 
L 663.1518 197.838182 
L 665.325265 141.932121 
L 667.498731 175.475758 
L 669.672197 119.569697 
L 671.845662 211.814697 
L 674.019128 113.979091 
L 676.192593 264.925455 
L 678.366059 153.113333 
L 680.539525 181.066364 
L 682.71299 197.838182 
L 684.886456 234.177121 
L 687.059922 186.65697 
L 689.233387 113.979091 
L 691.406853 186.65697 
L 693.580318 164.294545 
L 695.753784 158.703939 
L 697.92725 181.066364 
L 700.100715 209.019394 
L 702.274181 158.703939 
L 704.447647 119.569697 
L 706.621112 125.160303 
L 708.794578 167.089848 
L 710.968043 214.61 
L 713.141509 228.586515 
L 715.314975 239.767727 
L 717.48844 169.885152 
L 719.661906 153.113333 
L 721.835371 209.019394 
L 724.008837 181.066364 
L 726.182303 186.65697 
L 728.355768 197.838182 
L 730.529234 203.428788 
L 732.7027 186.65697 
L 734.876165 206.224091 
L 737.049631 153.113333 
L 739.223096 197.838182 
L 741.396562 214.61 
L 743.570028 183.861667 
L 745.743493 181.066364 
L 747.916959 186.65697 
L 750.090425 147.522727 
L 752.26389 192.247576 
L 754.437356 175.475758 
L 756.610821 214.61 
L 758.784287 164.294545 
L 760.957753 214.61 
L 763.131218 175.475758 
L 765.304684 192.247576 
L 767.47815 86.026061 
L 769.651615 158.703939 
L 771.825081 158.703939 
L 773.998546 147.522727 
L 776.172012 169.885152 
L 778.345478 181.066364 
L 780.518943 231.381818 
L 782.692409 175.475758 
L 784.865874 197.838182 
L 787.03934 183.861667 
L 789.212806 86.026061 
L 791.386271 130.750909 
L 793.559737 200.633485 
L 795.733203 245.358333 
L 797.906668 102.797879 
L 800.080134 236.972424 
L 802.253599 236.972424 
L 804.427065 147.522727 
L 806.600531 136.341515 
L 808.773996 231.381818 
L 810.947462 200.633485 
L 813.120928 250.948939 
L 815.294393 181.066364 
L 817.467859 197.838182 
L 819.641324 153.113333 
L 823.988256 197.838182 
L 826.161721 197.838182 
L 828.335187 153.113333 
L 830.508653 197.838182 
L 832.682118 197.838182 
L 834.855584 169.885152 
L 837.029049 102.797879 
L 839.202515 181.066364 
L 841.375981 192.247576 
L 843.549446 164.294545 
L 845.722912 108.388485 
L 847.896377 147.522727 
L 850.069843 153.113333 
L 852.243309 86.026061 
L 854.416774 161.499242 
L 856.59024 91.616667 
L 858.763706 158.703939 
L 860.937171 181.066364 
L 863.110637 169.885152 
L 865.284102 245.358333 
L 867.457568 164.294545 
L 869.631034 197.838182 
L 871.804499 197.838182 
L 873.977965 200.633485 
L 876.151431 164.294545 
L 878.324896 153.113333 
L 880.498362 181.066364 
L 882.671827 158.703939 
L 884.845293 186.65697 
L 887.018759 186.65697 
L 889.192224 200.633485 
L 891.36569 102.797879 
L 893.539156 214.61 
L 895.712621 197.838182 
L 897.886087 192.247576 
L 900.059552 181.066364 
L 902.233018 228.586515 
L 904.406484 250.948939 
L 906.579949 192.247576 
L 908.753415 164.294545 
L 910.92688 197.838182 
L 913.100346 164.294545 
L 915.273812 197.838182 
L 917.447277 164.294545 
L 919.620743 186.65697 
L 921.794209 189.452273 
L 923.967674 214.61 
L 926.14114 192.247576 
L 928.314605 206.224091 
L 930.488071 158.703939 
L 932.661537 209.019394 
L 934.835002 245.358333 
L 937.008468 130.750909 
L 939.181934 158.703939 
L 941.355399 164.294545 
L 943.528865 102.797879 
L 945.70233 130.750909 
L 947.875796 183.861667 
L 950.049262 119.569697 
L 952.222727 192.247576 
L 952.222727 192.247576 
" clip-path="url(#p4e9f3fb053)" style="fill: none; stroke: #4878d0; stroke-width: 1.5; stroke-linecap: round"/>
   </g>
   <g id="patch_3">
    <path d="M 53.06 399.1 
L 53.06 30.12 
" style="fill: none; stroke: #cccccc; stroke-width: 1.25; stroke-linejoin: miter; stroke-linecap: square"/>
   </g>
   <g id="patch_4">
    <path d="M 995.04 399.1 
L 995.04 30.12 
" style="fill: none; stroke: #cccccc; stroke-width: 1.25; stroke-linejoin: miter; stroke-linecap: square"/>
   </g>
   <g id="patch_5">
    <path d="M 53.06 399.1 
L 995.04 399.1 
" style="fill: none; stroke: #cccccc; stroke-width: 1.25; stroke-linejoin: miter; stroke-linecap: square"/>
   </g>
   <g id="patch_6">
    <path d="M 53.06 30.12 
L 995.04 30.12 
" style="fill: none; stroke: #cccccc; stroke-width: 1.25; stroke-linejoin: miter; stroke-linecap: square"/>
   </g>
   <g id="text_15">
    <!-- BƯỞI — Event Map (price_wholesale) -->
    <g style="fill: #262626" transform="translate(421.4125 24.12) scale(0.12 -0.12)">
     <defs>
      <path id="ArialMT-42" d="M 469 0 
L 469 4581 
L 2188 4581 
Q 2713 4581 3030 4442 
Q 3347 4303 3526 4014 
Q 3706 3725 3706 3409 
Q 3706 3116 3547 2856 
Q 3388 2597 3066 2438 
Q 3481 2316 3704 2022 
Q 3928 1728 3928 1328 
Q 3928 1006 3792 729 
Q 3656 453 3456 303 
Q 3256 153 2954 76 
Q 2653 0 2216 0 
L 469 0 
z
M 1075 2656 
L 2066 2656 
Q 2469 2656 2644 2709 
Q 2875 2778 2992 2937 
Q 3109 3097 3109 3338 
Q 3109 3566 3000 3739 
Q 2891 3913 2687 3977 
Q 2484 4041 1991 4041 
L 1075 4041 
L 1075 2656 
z
M 1075 541 
L 2216 541 
Q 2509 541 2628 563 
Q 2838 600 2978 687 
Q 3119 775 3209 942 
Q 3300 1109 3300 1328 
Q 3300 1584 3169 1773 
Q 3038 1963 2805 2039 
Q 2572 2116 2134 2116 
L 1075 2116 
L 1075 541 
z
" transform="scale(0.015625)"/>
      <path id="ArialMT-1af" d="M 4603 3928 
L 4603 4581 
L 5206 4581 
L 5206 4066 
Q 5206 3575 5094 3381 
Q 4784 2841 4106 2809 
L 4106 1934 
Q 4106 1231 3950 838 
Q 3788 428 3388 178 
Q 2978 -78 2316 -78 
Q 1038 -78 678 788 
Q 503 1206 503 1934 
L 503 4581 
L 1109 4581 
L 1109 1938 
Q 1109 1347 1222 1056 
Q 1328 778 1600 623 
Q 1872 469 2263 469 
Q 2947 469 3216 772 
Q 3500 1091 3500 1938 
L 3500 4581 
L 4106 4581 
L 4106 3041 
Q 4594 3091 4813 3428 
Q 4897 3559 4897 3928 
L 4603 3928 
z
" transform="scale(0.015625)"/>
      <path id="ArialMT-1ede" d="M 934 2222 
Q 934 1409 1381 916 
Q 1813 441 2497 441 
Q 3197 441 3625 922 
Q 4066 1422 4066 2288 
Q 4066 3444 3325 3913 
Q 2959 4141 2506 4141 
Q 1809 4141 1400 3700 
Q 934 3200 934 2222 
z
M 4734 3978 
L 4734 4631 
L 5338 4631 
L 5338 4116 
Q 5338 3728 5219 3522 
Q 5056 3238 4609 3000 
Q 4691 2663 4691 2284 
Q 4691 1584 4408 1036 
Q 4125 488 3611 205 
Q 3097 -78 2500 -78 
Q 1856 -78 1345 233 
Q 834 544 571 1086 
Q 309 1628 309 2231 
Q 309 3356 922 4019 
Q 1519 4663 2503 4663 
Q 3213 4663 3761 4277 
Q 4309 3891 4538 3241 
Q 4822 3394 4938 3569 
Q 5031 3709 5028 3978 
L 4734 3978 
z
M 2339 5139 
Q 2517 5158 2567 5173 
Q 2732 5214 2735 5302 
Q 2739 5373 2648 5423 
Q 2517 5495 2232 5495 
Q 2135 5495 1939 5483 
L 1904 5777 
Q 2026 5802 2354 5798 
Q 2739 5795 2982 5673 
Q 3251 5542 3257 5333 
Q 3270 5017 2689 4945 
L 2689 4789 
L 2339 4789 
L 2339 5139 
z
" transform="scale(0.015625)"/>
      <path id="ArialMT-49" d="M 597 0 
L 597 4581 
L 1203 4581 
L 1203 0 
L 597 0 
z
" transform="scale(0.015625)"/>
      <path id="ArialMT-20" transform="scale(0.015625)"/>
      <path id="ArialMT-2014" d="M 0 1431 
L 0 1884 
L 6400 1884 
L 6400 1431 
L 0 1431 
z
" transform="scale(0.015625)"/>
      <path id="ArialMT-45" d="M 506 0 
L 506 4581 
L 3819 4581 
L 3819 4041 
L 1113 4041 
L 1113 2638 
L 3647 2638 
L 3647 2100 
L 1113 2100 
L 1113 541 
L 3925 541 
L 3925 0 
L 506 0 
z
" transform="scale(0.015625)"/>
      <path id="ArialMT-76" d="M 1344 0 
L 81 3319 
L 675 3319 
L 1388 1331 
Q 1503 1009 1600 663 
Q 1675 925 1809 1294 
L 2547 3319 
L 3125 3319 
L 1869 0 
L 1344 0 
z
" transform="scale(0.015625)"/>
      <path id="ArialMT-65" d="M 2694 1069 
L 3275 997 
Q 3138 488 2766 206 
Q 2394 -75 1816 -75 
Q 1088 -75 661 373 
Q 234 822 234 1631 
Q 234 2469 665 2931 
Q 1097 3394 1784 3394 
Q 2450 3394 2872 2941 
Q 3294 2488 3294 1666 
Q 3294 1616 3291 1516 
L 816 1516 
Q 847 969 1125 678 
Q 1403 388 1819 388 
Q 2128 388 2347 550 
Q 2566 713 2694 1069 
z
M 847 1978 
L 2700 1978 
Q 2663 2397 2488 2606 
Q 2219 2931 1791 2931 
Q 1403 2931 1139 2672 
Q 875 2413 847 1978 
z
" transform="scale(0.015625)"/>
      <path id="ArialMT-6e" d="M 422 0 
L 422 3319 
L 928 3319 
L 928 2847 
Q 1294 3394 1984 3394 
Q 2284 3394 2536 3286 
Q 2788 3178 2913 3003 
Q 3038 2828 3088 2588 
Q 3119 2431 3119 2041 
L 3119 0 
L 2556 0 
L 2556 2019 
Q 2556 2363 2490 2533 
Q 2425 2703 2258 2804 
Q 2091 2906 1866 2906 
Q 1506 2906 1245 2678 
Q 984 2450 984 1813 
L 984 0 
L 422 0 
z
" transform="scale(0.015625)"/>
      <path id="ArialMT-74" d="M 1650 503 
L 1731 6 
Q 1494 -44 1306 -44 
Q 1000 -44 831 53 
Q 663 150 594 308 
Q 525 466 525 972 
L 525 2881 
L 113 2881 
L 113 3319 
L 525 3319 
L 525 4141 
L 1084 4478 
L 1084 3319 
L 1650 3319 
L 1650 2881 
L 1084 2881 
L 1084 941 
Q 1084 700 1114 631 
Q 1144 563 1211 522 
Q 1278 481 1403 481 
Q 1497 481 1650 503 
z
" transform="scale(0.015625)"/>
      <path id="ArialMT-4d" d="M 475 0 
L 475 4581 
L 1388 4581 
L 2472 1338 
Q 2622 884 2691 659 
Q 2769 909 2934 1394 
L 4031 4581 
L 4847 4581 
L 4847 0 
L 4263 0 
L 4263 3834 
L 2931 0 
L 2384 0 
L 1059 3900 
L 1059 0 
L 475 0 
z
" transform="scale(0.015625)"/>
      <path id="ArialMT-61" d="M 2588 409 
Q 2275 144 1986 34 
Q 1697 -75 1366 -75 
Q 819 -75 525 192 
Q 231 459 231 875 
Q 231 1119 342 1320 
Q 453 1522 633 1644 
Q 813 1766 1038 1828 
Q 1203 1872 1538 1913 
Q 2219 1994 2541 2106 
Q 2544 2222 2544 2253 
Q 2544 2597 2384 2738 
Q 2169 2928 1744 2928 
Q 1347 2928 1158 2789 
Q 969 2650 878 2297 
L 328 2372 
Q 403 2725 575 2942 
Q 747 3159 1072 3276 
Q 1397 3394 1825 3394 
Q 2250 3394 2515 3294 
Q 2781 3194 2906 3042 
Q 3031 2891 3081 2659 
Q 3109 2516 3109 2141 
L 3109 1391 
Q 3109 606 3145 398 
Q 3181 191 3288 0 
L 2700 0 
Q 2613 175 2588 409 
z
M 2541 1666 
Q 2234 1541 1622 1453 
Q 1275 1403 1131 1340 
Q 988 1278 909 1158 
Q 831 1038 831 891 
Q 831 666 1001 516 
Q 1172 366 1500 366 
Q 1825 366 2078 508 
Q 2331 650 2450 897 
Q 2541 1088 2541 1459 
L 2541 1666 
z
" transform="scale(0.015625)"/>
      <path id="ArialMT-70" d="M 422 -1272 
L 422 3319 
L 934 3319 
L 934 2888 
Q 1116 3141 1344 3267 
Q 1572 3394 1897 3394 
Q 2322 3394 2647 3175 
Q 2972 2956 3137 2557 
Q 3303 2159 3303 1684 
Q 3303 1175 3120 767 
Q 2938 359 2589 142 
Q 2241 -75 1856 -75 
Q 1575 -75 1351 44 
Q 1128 163 984 344 
L 984 -1272 
L 422 -1272 
z
M 931 1641 
Q 931 1000 1190 694 
Q 1450 388 1819 388 
Q 2194 388 2461 705 
Q 2728 1022 2728 1688 
Q 2728 2322 2467 2637 
Q 2206 2953 1844 2953 
Q 1484 2953 1207 2617 
Q 931 2281 931 1641 
z
" transform="scale(0.015625)"/>
      <path id="ArialMT-28" d="M 1497 -1347 
Q 1031 -759 709 28 
Q 388 816 388 1659 
Q 388 2403 628 3084 
Q 909 3875 1497 4659 
L 1900 4659 
Q 1522 4009 1400 3731 
Q 1209 3300 1100 2831 
Q 966 2247 966 1656 
Q 966 153 1900 -1347 
L 1497 -1347 
z
" transform="scale(0.015625)"/>
      <path id="ArialMT-72" d="M 416 0 
L 416 3319 
L 922 3319 
L 922 2816 
Q 1116 3169 1280 3281 
Q 1444 3394 1641 3394 
Q 1925 3394 2219 3213 
L 2025 2691 
Q 1819 2813 1613 2813 
Q 1428 2813 1281 2702 
Q 1134 2591 1072 2394 
Q 978 2094 978 1738 
L 978 0 
L 416 0 
z
" transform="scale(0.015625)"/>
      <path id="ArialMT-69" d="M 425 3934 
L 425 4581 
L 988 4581 
L 988 3934 
L 425 3934 
z
M 425 0 
L 425 3319 
L 988 3319 
L 988 0 
L 425 0 
z
" transform="scale(0.015625)"/>
      <path id="ArialMT-63" d="M 2588 1216 
L 3141 1144 
Q 3050 572 2676 248 
Q 2303 -75 1759 -75 
Q 1078 -75 664 370 
Q 250 816 250 1647 
Q 250 2184 428 2587 
Q 606 2991 970 3192 
Q 1334 3394 1763 3394 
Q 2303 3394 2647 3120 
Q 2991 2847 3088 2344 
L 2541 2259 
Q 2463 2594 2264 2762 
Q 2066 2931 1784 2931 
Q 1359 2931 1093 2626 
Q 828 2322 828 1663 
Q 828 994 1084 691 
Q 1341 388 1753 388 
Q 2084 388 2306 591 
Q 2528 794 2588 1216 
z
" transform="scale(0.015625)"/>
      <path id="ArialMT-5f" d="M -97 -1272 
L -97 -866 
L 3631 -866 
L 3631 -1272 
L -97 -1272 
z
" transform="scale(0.015625)"/>
      <path id="ArialMT-77" d="M 1034 0 
L 19 3319 
L 600 3319 
L 1128 1403 
L 1325 691 
Q 1338 744 1497 1375 
L 2025 3319 
L 2603 3319 
L 3100 1394 
L 3266 759 
L 3456 1400 
L 4025 3319 
L 4572 3319 
L 3534 0 
L 2950 0 
L 2422 1988 
L 2294 2553 
L 1622 0 
L 1034 0 
z
" transform="scale(0.015625)"/>
      <path id="ArialMT-68" d="M 422 0 
L 422 4581 
L 984 4581 
L 984 2938 
Q 1378 3394 1978 3394 
Q 2347 3394 2619 3248 
Q 2891 3103 3008 2847 
Q 3125 2591 3125 2103 
L 3125 0 
L 2563 0 
L 2563 2103 
Q 2563 2525 2380 2717 
Q 2197 2909 1863 2909 
Q 1613 2909 1392 2779 
Q 1172 2650 1078 2428 
Q 984 2206 984 1816 
L 984 0 
L 422 0 
z
" transform="scale(0.015625)"/>
      <path id="ArialMT-6f" d="M 213 1659 
Q 213 2581 725 3025 
Q 1153 3394 1769 3394 
Q 2453 3394 2887 2945 
Q 3322 2497 3322 1706 
Q 3322 1066 3130 698 
Q 2938 331 2570 128 
Q 2203 -75 1769 -75 
Q 1072 -75 642 372 
Q 213 819 213 1659 
z
M 791 1659 
Q 791 1022 1069 705 
Q 1347 388 1769 388 
Q 2188 388 2466 706 
Q 2744 1025 2744 1678 
Q 2744 2294 2464 2611 
Q 2184 2928 1769 2928 
Q 1347 2928 1069 2612 
Q 791 2297 791 1659 
z
" transform="scale(0.015625)"/>
      <path id="ArialMT-6c" d="M 409 0 
L 409 4581 
L 972 4581 
L 972 0 
L 409 0 
z
" transform="scale(0.015625)"/>
      <path id="ArialMT-73" d="M 197 991 
L 753 1078 
Q 800 744 1014 566 
Q 1228 388 1613 388 
Q 2000 388 2187 545 
Q 2375 703 2375 916 
Q 2375 1106 2209 1216 
Q 2094 1291 1634 1406 
Q 1016 1563 777 1677 
Q 538 1791 414 1992 
Q 291 2194 291 2438 
Q 291 2659 392 2848 
Q 494 3038 669 3163 
Q 800 3259 1026 3326 
Q 1253 3394 1513 3394 
Q 1903 3394 2198 3281 
Q 2494 3169 2634 2976 
Q 2775 2784 2828 2463 
L 2278 2388 
Q 2241 2644 2061 2787 
Q 1881 2931 1553 2931 
Q 1166 2931 1000 2803 
Q 834 2675 834 2503 
Q 834 2394 903 2306 
Q 972 2216 1119 2156 
Q 1203 2125 1616 2013 
Q 2213 1853 2448 1751 
Q 2684 1650 2818 1456 
Q 2953 1263 2953 975 
Q 2953 694 2789 445 
Q 2625 197 2315 61 
Q 2006 -75 1616 -75 
Q 969 -75 630 194 
Q 291 463 197 991 
z
" transform="scale(0.015625)"/>
      <path id="ArialMT-29" d="M 791 -1347 
L 388 -1347 
Q 1322 153 1322 1656 
Q 1322 2244 1188 2822 
Q 1081 3291 891 3722 
Q 769 4003 388 4659 
L 791 4659 
Q 1378 3875 1659 3084 
Q 1900 2403 1900 1659 
Q 1900 816 1576 28 
Q 1253 -759 791 -1347 
z
" transform="scale(0.015625)"/>
     </defs>
     <use xlink:href="#ArialMT-42"/>
     <use xlink:href="#ArialMT-1af" transform="translate(66.699219 0)"/>
     <use xlink:href="#ArialMT-1ede" transform="translate(152.099609 0)"/>
     <use xlink:href="#ArialMT-49" transform="translate(237.841797 0)"/>
     <use xlink:href="#ArialMT-20" transform="translate(265.625 0)"/>
     <use xlink:href="#ArialMT-2014" transform="translate(293.408203 0)"/>
     <use xlink:href="#ArialMT-20" transform="translate(393.408203 0)"/>
     <use xlink:href="#ArialMT-45" transform="translate(421.191406 0)"/>
     <use xlink:href="#ArialMT-76" transform="translate(487.890625 0)"/>
     <use xlink:href="#ArialMT-65" transform="translate(537.890625 0)"/>
     <use xlink:href="#ArialMT-6e" transform="translate(593.505859 0)"/>
     <use xlink:href="#ArialMT-74" transform="translate(649.121094 0)"/>
     <use xlink:href="#ArialMT-20" transform="translate(676.904297 0)"/>
     <use xlink:href="#ArialMT-4d" transform="translate(704.6875 0)"/>
     <use xlink:href="#ArialMT-61" transform="translate(787.988281 0)"/>
     <use xlink:href="#ArialMT-70" transform="translate(843.603516 0)"/>
     <use xlink:href="#ArialMT-20" transform="translate(899.21875 0)"/>
     <use xlink:href="#ArialMT-28" transform="translate(927.001953 0)"/>
     <use xlink:href="#ArialMT-70" transform="translate(960.302734 0)"/>
     <use xlink:href="#ArialMT-72" transform="translate(1015.917969 0)"/>
     <use xlink:href="#ArialMT-69" transform="translate(1049.21875 0)"/>
     <use xlink:href="#ArialMT-63" transform="translate(1071.435547 0)"/>
     <use xlink:href="#ArialMT-65" transform="translate(1121.435547 0)"/>
     <use xlink:href="#ArialMT-5f" transform="translate(1177.050781 0)"/>
     <use xlink:href="#ArialMT-77" transform="translate(1232.666016 0)"/>
     <use xlink:href="#ArialMT-68" transform="translate(1304.882812 0)"/>
     <use xlink:href="#ArialMT-6f" transform="translate(1360.498047 0)"/>
     <use xlink:href="#ArialMT-6c" transform="translate(1416.113281 0)"/>
     <use xlink:href="#ArialMT-65" transform="translate(1438.330078 0)"/>
     <use xlink:href="#ArialMT-73" transform="translate(1493.945312 0)"/>
     <use xlink:href="#ArialMT-61" transform="translate(1543.945312 0)"/>
     <use xlink:href="#ArialMT-6c" transform="translate(1599.560547 0)"/>
     <use xlink:href="#ArialMT-65" transform="translate(1621.777344 0)"/>
     <use xlink:href="#ArialMT-29" transform="translate(1677.392578 0)"/>
    </g>
   </g>
   <g id="legend_1">
    <g id="patch_7">
     <path d="M 873.264844 101.288281 
L 987.34 101.288281 
Q 989.54 101.288281 989.54 99.088281 
L 989.54 37.82 
Q 989.54 35.62 987.34 35.62 
L 873.264844 35.62 
Q 871.064844 35.62 871.064844 37.82 
L 871.064844 99.088281 
Q 871.064844 101.288281 873.264844 101.288281 
z
" style="fill: #ffffff; opacity: 0.8; stroke: #cccccc; stroke-linejoin: miter"/>
    </g>
    <g id="line2d_16">
     <path d="M 875.464844 44.043594 
L 886.464844 44.043594 
L 897.464844 44.043594 
" style="fill: none; stroke: #4878d0; stroke-width: 1.5; stroke-linecap: round"/>
    </g>
    <g id="text_16">
     <!-- price_wholesale -->
     <g style="fill: #262626" transform="translate(906.264844 47.893594) scale(0.11 -0.11)">
      <use xlink:href="#ArialMT-70"/>
      <use xlink:href="#ArialMT-72" transform="translate(55.615234 0)"/>
      <use xlink:href="#ArialMT-69" transform="translate(88.916016 0)"/>
      <use xlink:href="#ArialMT-63" transform="translate(111.132812 0)"/>
      <use xlink:href="#ArialMT-65" transform="translate(161.132812 0)"/>
      <use xlink:href="#ArialMT-5f" transform="translate(216.748047 0)"/>
      <use xlink:href="#ArialMT-77" transform="translate(272.363281 0)"/>
      <use xlink:href="#ArialMT-68" transform="translate(344.580078 0)"/>
      <use xlink:href="#ArialMT-6f" transform="translate(400.195312 0)"/>
      <use xlink:href="#ArialMT-6c" transform="translate(455.810547 0)"/>
      <use xlink:href="#ArialMT-65" transform="translate(478.027344 0)"/>
      <use xlink:href="#ArialMT-73" transform="translate(533.642578 0)"/>
      <use xlink:href="#ArialMT-61" transform="translate(583.642578 0)"/>
      <use xlink:href="#ArialMT-6c" transform="translate(639.257812 0)"/>
      <use xlink:href="#ArialMT-65" transform="translate(661.474609 0)"/>
     </g>
    </g>
    <g id="PathCollection_4">
     <g>
      <use xlink:href="#mfd137a4075" x="886.464844" y="60.565937" style="fill: #ffa500; stroke: #ffa500"/>
     </g>
    </g>
    <g id="text_17">
     <!-- Small Event -->
     <g style="fill: #262626" transform="translate(906.264844 63.453437) scale(0.11 -0.11)">
      <defs>
       <path id="ArialMT-53" d="M 288 1472 
L 859 1522 
Q 900 1178 1048 958 
Q 1197 738 1509 602 
Q 1822 466 2213 466 
Q 2559 466 2825 569 
Q 3091 672 3220 851 
Q 3350 1031 3350 1244 
Q 3350 1459 3225 1620 
Q 3100 1781 2813 1891 
Q 2628 1963 1997 2114 
Q 1366 2266 1113 2400 
Q 784 2572 623 2826 
Q 463 3081 463 3397 
Q 463 3744 659 4045 
Q 856 4347 1234 4503 
Q 1613 4659 2075 4659 
Q 2584 4659 2973 4495 
Q 3363 4331 3572 4012 
Q 3781 3694 3797 3291 
L 3216 3247 
Q 3169 3681 2898 3903 
Q 2628 4125 2100 4125 
Q 1550 4125 1298 3923 
Q 1047 3722 1047 3438 
Q 1047 3191 1225 3031 
Q 1400 2872 2139 2705 
Q 2878 2538 3153 2413 
Q 3553 2228 3743 1945 
Q 3934 1663 3934 1294 
Q 3934 928 3725 604 
Q 3516 281 3123 101 
Q 2731 -78 2241 -78 
Q 1619 -78 1198 103 
Q 778 284 539 648 
Q 300 1013 288 1472 
z
" transform="scale(0.015625)"/>
       <path id="ArialMT-6d" d="M 422 0 
L 422 3319 
L 925 3319 
L 925 2853 
Q 1081 3097 1340 3245 
Q 1600 3394 1931 3394 
Q 2300 3394 2536 3241 
Q 2772 3088 2869 2813 
Q 3263 3394 3894 3394 
Q 4388 3394 4653 3120 
Q 4919 2847 4919 2278 
L 4919 0 
L 4359 0 
L 4359 2091 
Q 4359 2428 4304 2576 
Q 4250 2725 4106 2815 
Q 3963 2906 3769 2906 
Q 3419 2906 3187 2673 
Q 2956 2441 2956 1928 
L 2956 0 
L 2394 0 
L 2394 2156 
Q 2394 2531 2256 2718 
Q 2119 2906 1806 2906 
Q 1569 2906 1367 2781 
Q 1166 2656 1075 2415 
Q 984 2175 984 1722 
L 984 0 
L 422 0 
z
" transform="scale(0.015625)"/>
      </defs>
      <use xlink:href="#ArialMT-53"/>
      <use xlink:href="#ArialMT-6d" transform="translate(66.699219 0)"/>
      <use xlink:href="#ArialMT-61" transform="translate(150 0)"/>
      <use xlink:href="#ArialMT-6c" transform="translate(205.615234 0)"/>
      <use xlink:href="#ArialMT-6c" transform="translate(227.832031 0)"/>
      <use xlink:href="#ArialMT-20" transform="translate(250.048828 0)"/>
      <use xlink:href="#ArialMT-45" transform="translate(277.832031 0)"/>
      <use xlink:href="#ArialMT-76" transform="translate(344.53125 0)"/>
      <use xlink:href="#ArialMT-65" transform="translate(394.53125 0)"/>
      <use xlink:href="#ArialMT-6e" transform="translate(450.146484 0)"/>
      <use xlink:href="#ArialMT-74" transform="translate(505.761719 0)"/>
     </g>
    </g>
    <g id="PathCollection_5">
     <g>
      <use xlink:href="#m471b615cea" x="886.464844" y="76.125781" style="fill: #ff0000; stroke: #ff0000"/>
     </g>
    </g>
    <g id="text_18">
     <!-- Medium Event -->
     <g style="fill: #262626" transform="translate(906.264844 79.013281) scale(0.11 -0.11)">
      <defs>
       <path id="ArialMT-64" d="M 2575 0 
L 2575 419 
Q 2259 -75 1647 -75 
Q 1250 -75 917 144 
Q 584 363 401 755 
Q 219 1147 219 1656 
Q 219 2153 384 2558 
Q 550 2963 881 3178 
Q 1213 3394 1622 3394 
Q 1922 3394 2156 3267 
Q 2391 3141 2538 2938 
L 2538 4581 
L 3097 4581 
L 3097 0 
L 2575 0 
z
M 797 1656 
Q 797 1019 1065 703 
Q 1334 388 1700 388 
Q 2069 388 2326 689 
Q 2584 991 2584 1609 
Q 2584 2291 2321 2609 
Q 2059 2928 1675 2928 
Q 1300 2928 1048 2622 
Q 797 2316 797 1656 
z
" transform="scale(0.015625)"/>
       <path id="ArialMT-75" d="M 2597 0 
L 2597 488 
Q 2209 -75 1544 -75 
Q 1250 -75 995 37 
Q 741 150 617 320 
Q 494 491 444 738 
Q 409 903 409 1263 
L 409 3319 
L 972 3319 
L 972 1478 
Q 972 1038 1006 884 
Q 1059 663 1231 536 
Q 1403 409 1656 409 
Q 1909 409 2131 539 
Q 2353 669 2445 892 
Q 2538 1116 2538 1541 
L 2538 3319 
L 3100 3319 
L 3100 0 
L 2597 0 
z
" transform="scale(0.015625)"/>
      </defs>
      <use xlink:href="#ArialMT-4d"/>
      <use xlink:href="#ArialMT-65" transform="translate(83.300781 0)"/>
      <use xlink:href="#ArialMT-64" transform="translate(138.916016 0)"/>
      <use xlink:href="#ArialMT-69" transform="translate(194.53125 0)"/>
      <use xlink:href="#ArialMT-75" transform="translate(216.748047 0)"/>
      <use xlink:href="#ArialMT-6d" transform="translate(272.363281 0)"/>
      <use xlink:href="#ArialMT-20" transform="translate(355.664062 0)"/>
      <use xlink:href="#ArialMT-45" transform="translate(383.447266 0)"/>
      <use xlink:href="#ArialMT-76" transform="translate(450.146484 0)"/>
      <use xlink:href="#ArialMT-65" transform="translate(500.146484 0)"/>
      <use xlink:href="#ArialMT-6e" transform="translate(555.761719 0)"/>
      <use xlink:href="#ArialMT-74" transform="translate(611.376953 0)"/>
     </g>
    </g>
    <g id="PathCollection_6">
     <defs>
      <path id="m27fd4fb338" d="M 0 5.477226 
C 1.452577 5.477226 2.845856 4.900111 3.872983 3.872983 
C 4.900111 2.845856 5.477226 1.452577 5.477226 0 
C 5.477226 -1.452577 4.900111 -2.845856 3.872983 -3.872983 
C 2.845856 -4.900111 1.452577 -5.477226 0 -5.477226 
C -1.452577 -5.477226 -2.845856 -4.900111 -3.872983 -3.872983 
C -4.900111 -2.845856 -5.477226 -1.452577 -5.477226 0 
C -5.477226 1.452577 -4.900111 2.845856 -3.872983 3.872983 
C -2.845856 4.900111 -1.452577 5.477226 0 5.477226 
z
" style="stroke: #000000"/>
     </defs>
     <g>
      <use xlink:href="#m27fd4fb338" x="886.464844" y="91.685625" style="stroke: #000000"/>
     </g>
    </g>
    <g id="text_19">
     <!-- Major Event -->
     <g style="fill: #262626" transform="translate(906.264844 94.573125) scale(0.11 -0.11)">
      <defs>
       <path id="ArialMT-6a" d="M 419 3928 
L 419 4581 
L 981 4581 
L 981 3928 
L 419 3928 
z
M -294 -1288 
L -188 -809 
Q -19 -853 78 -853 
Q 250 -853 334 -739 
Q 419 -625 419 -169 
L 419 3319 
L 981 3319 
L 981 -181 
Q 981 -794 822 -1034 
Q 619 -1347 147 -1347 
Q -81 -1347 -294 -1288 
z
" transform="scale(0.015625)"/>
      </defs>
      <use xlink:href="#ArialMT-4d"/>
      <use xlink:href="#ArialMT-61" transform="translate(83.300781 0)"/>
      <use xlink:href="#ArialMT-6a" transform="translate(138.916016 0)"/>
      <use xlink:href="#ArialMT-6f" transform="translate(161.132812 0)"/>
      <use xlink:href="#ArialMT-72" transform="translate(216.748047 0)"/>
      <use xlink:href="#ArialMT-20" transform="translate(250.048828 0)"/>
      <use xlink:href="#ArialMT-45" transform="translate(277.832031 0)"/>
      <use xlink:href="#ArialMT-76" transform="translate(344.53125 0)"/>
      <use xlink:href="#ArialMT-65" transform="translate(394.53125 0)"/>
      <use xlink:href="#ArialMT-6e" transform="translate(450.146484 0)"/>
      <use xlink:href="#ArialMT-74" transform="translate(505.761719 0)"/>
     </g>
    </g>
   </g>
  </g>
 </g>
 <defs>
  <clipPath id="p4e9f3fb053">
   <rect x="53.06" y="30.12" width="941.98" height="368.98"/>
  </clipPath>
 </defs>
</svg>
