<?xml version="1.0" encoding="utf-8" standalone="no"?>
<!DOCTYPE svg PUBLIC "-//W3C//DTD SVG 1.1//EN"
  "http://www.w3.org/Graphics/SVG/1.1/DTD/svg11.dtd">
<svg xmlns:xlink="http://www.w3.org/1999/xlink" width="1008pt" height="432pt" viewBox="0 0 1008 432" xmlns="http://www.w3.org/2000/svg" version="1.1">
 <metadata>
  <rdf:RDF xmlns:dc="http://purl.org/dc/elements/1.1/" xmlns:cc="http://creativecommons.org/ns#" xmlns:rdf="http://www.w3.org/1999/02/22-rdf-syntax-ns#">
   <cc:Work>
    <dc:type rdf:resource="http://purl.org/dc/dcmitype/StillImage"/>
    <dc:date>2025-12-12T00:30:22.787599</dc:date>
    <dc:format>image/svg+xml</dc:format>
    <dc:creator>
     <cc:Agent>
      <dc:title>Matplotlib v3.10.7, https://matplotlib.org/</dc:title>
     </cc:Agent>
    </dc:creator>
   </cc:Work>
  </rdf:RDF>
 </metadata>
 <defs>
  <style type="text/css">*{stroke-linejoin: round; stroke-linecap: butt}</style>
 </defs>
 <g id="figure_1">
  <g id="patch_1">
   <path d="M 0 432 
L 1008 432 
L 1008 0 
L 0 0 
z
" style="fill: #ffffff"/>
  </g>
  <g id="axes_1">
   <g id="patch_2">
    <path d="M 53.06 399.1 
L 995.04 399.1 
L 995.04 30.12 
L 53.06 30.12 
z
" style="fill: #ffffff"/>
   </g>
   <g id="matplotlib.axis_1">
    <g id="xtick_1">
     <g id="line2d_1">
      <path d="M 95.877273 399.1 
L 95.877273 30.12 
" clip-path="url(#p7b5473d143)" style="fill: none; stroke: #cccccc; stroke-linecap: round"/>
     </g>
     <g id="text_1">
      <!-- 2024-09 -->
      <g style="fill: #262626" transform="translate(75.694851 416.473594) scale(0.11 -0.11)">
       <defs>
        <path id="ArialMT-32" d="M 3222 541 
L 3222 0 
L 194 0 
Q 188 203 259 391 
Q 375 700 629 1000 
Q 884 1300 1366 1694 
Q 2113 2306 2375 2664 
Q 2638 3022 2638 3341 
Q 2638 3675 2398 3904 
Q 2159 4134 1775 4134 
Q 1369 4134 1125 3890 
Q 881 3647 878 3216 
L 300 3275 
Q 359 3922 746 4261 
Q 1134 4600 1788 4600 
Q 2447 4600 2831 4234 
Q 3216 3869 3216 3328 
Q 3216 3053 3103 2787 
Q 2991 2522 2730 2228 
Q 2469 1934 1863 1422 
Q 1356 997 1212 845 
Q 1069 694 975 541 
L 3222 541 
z
" transform="scale(0.015625)"/>
        <path id="ArialMT-30" d="M 266 2259 
Q 266 3072 433 3567 
Q 600 4063 929 4331 
Q 1259 4600 1759 4600 
Q 2128 4600 2406 4451 
Q 2684 4303 2865 4023 
Q 3047 3744 3150 3342 
Q 3253 2941 3253 2259 
Q 3253 1453 3087 958 
Q 2922 463 2592 192 
Q 2263 -78 1759 -78 
Q 1097 -78 719 397 
Q 266 969 266 2259 
z
M 844 2259 
Q 844 1131 1108 757 
Q 1372 384 1759 384 
Q 2147 384 2411 759 
Q 2675 1134 2675 2259 
Q 2675 3391 2411 3762 
Q 2147 4134 1753 4134 
Q 1366 4134 1134 3806 
Q 844 3388 844 2259 
z
" transform="scale(0.015625)"/>
        <path id="ArialMT-34" d="M 2069 0 
L 2069 1097 
L 81 1097 
L 81 1613 
L 2172 4581 
L 2631 4581 
L 2631 1613 
L 3250 1613 
L 3250 1097 
L 2631 1097 
L 2631 0 
L 2069 0 
z
M 2069 1613 
L 2069 3678 
L 634 1613 
L 2069 1613 
z
" transform="scale(0.015625)"/>
        <path id="ArialMT-2d" d="M 203 1375 
L 203 1941 
L 1931 1941 
L 1931 1375 
L 203 1375 
z
" transform="scale(0.015625)"/>
        <path id="ArialMT-39" d="M 350 1059 
L 891 1109 
Q 959 728 1153 556 
Q 1347 384 1650 384 
Q 1909 384 2104 503 
Q 2300 622 2425 820 
Q 2550 1019 2634 1356 
Q 2719 1694 2719 2044 
Q 2719 2081 2716 2156 
Q 2547 1888 2255 1720 
Q 1963 1553 1622 1553 
Q 1053 1553 659 1965 
Q 266 2378 266 3053 
Q 266 3750 677 4175 
Q 1088 4600 1706 4600 
Q 2153 4600 2523 4359 
Q 2894 4119 3086 3673 
Q 3278 3228 3278 2384 
Q 3278 1506 3087 986 
Q 2897 466 2520 194 
Q 2144 -78 1638 -78 
Q 1100 -78 759 220 
Q 419 519 350 1059 
z
M 2653 3081 
Q 2653 3566 2395 3850 
Q 2138 4134 1775 4134 
Q 1400 4134 1122 3828 
Q 844 3522 844 3034 
Q 844 2597 1108 2323 
Q 1372 2050 1759 2050 
Q 2150 2050 2401 2323 
Q 2653 2597 2653 3081 
z
" transform="scale(0.015625)"/>
       </defs>
       <use xlink:href="#ArialMT-32"/>
       <use xlink:href="#ArialMT-30" transform="translate(55.615234 0)"/>
       <use xlink:href="#ArialMT-32" transform="translate(111.230469 0)"/>
       <use xlink:href="#ArialMT-34" transform="translate(166.845703 0)"/>
       <use xlink:href="#ArialMT-2d" transform="translate(222.460938 0)"/>
       <use xlink:href="#ArialMT-30" transform="translate(255.761719 0)"/>
       <use xlink:href="#ArialMT-39" transform="translate(311.376953 0)"/>
      </g>
     </g>
    </g>
    <g id="xtick_2">
     <g id="line2d_2">
      <path d="M 228.458676 399.1 
L 228.458676 30.12 
" clip-path="url(#p7b5473d143)" style="fill: none; stroke: #cccccc; stroke-linecap: round"/>
     </g>
     <g id="text_2">
      <!-- 2024-11 -->
      <g style="fill: #262626" transform="translate(208.681879 416.473594) scale(0.11 -0.11)">
       <defs>
        <path id="ArialMT-31" d="M 2384 0 
L 1822 0 
L 1822 3584 
Q 1619 3391 1289 3197 
Q 959 3003 697 2906 
L 697 3450 
Q 1169 3672 1522 3987 
Q 1875 4303 2022 4600 
L 2384 4600 
L 2384 0 
z
" transform="scale(0.015625)"/>
       </defs>
       <use xlink:href="#ArialMT-32"/>
       <use xlink:href="#ArialMT-30" transform="translate(55.615234 0)"/>
       <use xlink:href="#ArialMT-32" transform="translate(111.230469 0)"/>
       <use xlink:href="#ArialMT-34" transform="translate(166.845703 0)"/>
       <use xlink:href="#ArialMT-2d" transform="translate(222.460938 0)"/>
       <use xlink:href="#ArialMT-31" transform="translate(255.761719 0)"/>
       <use xlink:href="#ArialMT-31" transform="translate(304.001953 0)"/>
      </g>
     </g>
    </g>
    <g id="xtick_3">
     <g id="line2d_3">
      <path d="M 361.040078 399.1 
L 361.040078 30.12 
" clip-path="url(#p7b5473d143)" style="fill: none; stroke: #cccccc; stroke-linecap: round"/>
     </g>
     <g id="text_3">
      <!-- 2025-01 -->
      <g style="fill: #262626" transform="translate(340.857657 416.473594) scale(0.11 -0.11)">
       <defs>
        <path id="ArialMT-35" d="M 266 1200 
L 856 1250 
Q 922 819 1161 601 
Q 1400 384 1738 384 
Q 2144 384 2425 690 
Q 2706 997 2706 1503 
Q 2706 1984 2436 2262 
Q 2166 2541 1728 2541 
Q 1456 2541 1237 2417 
Q 1019 2294 894 2097 
L 366 2166 
L 809 4519 
L 3088 4519 
L 3088 3981 
L 1259 3981 
L 1013 2750 
Q 1425 3038 1878 3038 
Q 2478 3038 2890 2622 
Q 3303 2206 3303 1553 
Q 3303 931 2941 478 
Q 2500 -78 1738 -78 
Q 1113 -78 717 272 
Q 322 622 266 1200 
z
" transform="scale(0.015625)"/>
       </defs>
       <use xlink:href="#ArialMT-32"/>
       <use xlink:href="#ArialMT-30" transform="translate(55.615234 0)"/>
       <use xlink:href="#ArialMT-32" transform="translate(111.230469 0)"/>
       <use xlink:href="#ArialMT-35" transform="translate(166.845703 0)"/>
       <use xlink:href="#ArialMT-2d" transform="translate(222.460938 0)"/>
       <use xlink:href="#ArialMT-30" transform="translate(255.761719 0)"/>
       <use xlink:href="#ArialMT-31" transform="translate(311.376953 0)"/>
      </g>
     </g>
    </g>
    <g id="xtick_4">
     <g id="line2d_4">
      <path d="M 489.27455 399.1 
L 489.27455 30.12 
" clip-path="url(#p7b5473d143)" style="fill: none; stroke: #cccccc; stroke-linecap: round"/>
     </g>
     <g id="text_4">
      <!-- 2025-03 -->
      <g style="fill: #262626" transform="translate(469.092128 416.473594) scale(0.11 -0.11)">
       <defs>
        <path id="ArialMT-33" d="M 269 1209 
L 831 1284 
Q 928 806 1161 595 
Q 1394 384 1728 384 
Q 2125 384 2398 659 
Q 2672 934 2672 1341 
Q 2672 1728 2419 1979 
Q 2166 2231 1775 2231 
Q 1616 2231 1378 2169 
L 1441 2663 
Q 1497 2656 1531 2656 
Q 1891 2656 2178 2843 
Q 2466 3031 2466 3422 
Q 2466 3731 2256 3934 
Q 2047 4138 1716 4138 
Q 1388 4138 1169 3931 
Q 950 3725 888 3313 
L 325 3413 
Q 428 3978 793 4289 
Q 1159 4600 1703 4600 
Q 2078 4600 2393 4439 
Q 2709 4278 2876 4000 
Q 3044 3722 3044 3409 
Q 3044 3113 2884 2869 
Q 2725 2625 2413 2481 
Q 2819 2388 3044 2092 
Q 3269 1797 3269 1353 
Q 3269 753 2831 336 
Q 2394 -81 1725 -81 
Q 1122 -81 723 278 
Q 325 638 269 1209 
z
" transform="scale(0.015625)"/>
       </defs>
       <use xlink:href="#ArialMT-32"/>
       <use xlink:href="#ArialMT-30" transform="translate(55.615234 0)"/>
       <use xlink:href="#ArialMT-32" transform="translate(111.230469 0)"/>
       <use xlink:href="#ArialMT-35" transform="translate(166.845703 0)"/>
       <use xlink:href="#ArialMT-2d" transform="translate(222.460938 0)"/>
       <use xlink:href="#ArialMT-30" transform="translate(255.761719 0)"/>
       <use xlink:href="#ArialMT-33" transform="translate(311.376953 0)"/>
      </g>
     </g>
    </g>
    <g id="xtick_5">
     <g id="line2d_5">
      <path d="M 621.855953 399.1 
L 621.855953 30.12 
" clip-path="url(#p7b5473d143)" style="fill: none; stroke: #cccccc; stroke-linecap: round"/>
     </g>
     <g id="text_5">
      <!-- 2025-05 -->
      <g style="fill: #262626" transform="translate(601.673531 416.473594) scale(0.11 -0.11)">
       <use xlink:href="#ArialMT-32"/>
       <use xlink:href="#ArialMT-30" transform="translate(55.615234 0)"/>
       <use xlink:href="#ArialMT-32" transform="translate(111.230469 0)"/>
       <use xlink:href="#ArialMT-35" transform="translate(166.845703 0)"/>
       <use xlink:href="#ArialMT-2d" transform="translate(222.460938 0)"/>
       <use xlink:href="#ArialMT-30" transform="translate(255.761719 0)"/>
       <use xlink:href="#ArialMT-35" transform="translate(311.376953 0)"/>
      </g>
     </g>
    </g>
    <g id="xtick_6">
     <g id="line2d_6">
      <path d="M 754.437356 399.1 
L 754.437356 30.12 
" clip-path="url(#p7b5473d143)" style="fill: none; stroke: #cccccc; stroke-linecap: round"/>
     </g>
     <g id="text_6">
      <!-- 2025-07 -->
      <g style="fill: #262626" transform="translate(734.254934 416.473594) scale(0.11 -0.11)">
       <defs>
        <path id="ArialMT-37" d="M 303 3981 
L 303 4522 
L 3269 4522 
L 3269 4084 
Q 2831 3619 2401 2847 
Q 1972 2075 1738 1259 
Q 1569 684 1522 0 
L 944 0 
Q 953 541 1156 1306 
Q 1359 2072 1739 2783 
Q 2119 3494 2547 3981 
L 303 3981 
z
" transform="scale(0.015625)"/>
       </defs>
       <use xlink:href="#ArialMT-32"/>
       <use xlink:href="#ArialMT-30" transform="translate(55.615234 0)"/>
       <use xlink:href="#ArialMT-32" transform="translate(111.230469 0)"/>
       <use xlink:href="#ArialMT-35" transform="translate(166.845703 0)"/>
       <use xlink:href="#ArialMT-2d" transform="translate(222.460938 0)"/>
       <use xlink:href="#ArialMT-30" transform="translate(255.761719 0)"/>
       <use xlink:href="#ArialMT-37" transform="translate(311.376953 0)"/>
      </g>
     </g>
    </g>
    <g id="xtick_7">
     <g id="line2d_7">
      <path d="M 889.192224 399.1 
L 889.192224 30.12 
" clip-path="url(#p7b5473d143)" style="fill: none; stroke: #cccccc; stroke-linecap: round"/>
     </g>
     <g id="text_7">
      <!-- 2025-09 -->
      <g style="fill: #262626" transform="translate(869.009802 416.473594) scale(0.11 -0.11)">
       <use xlink:href="#ArialMT-32"/>
       <use xlink:href="#ArialMT-30" transform="translate(55.615234 0)"/>
       <use xlink:href="#ArialMT-32" transform="translate(111.230469 0)"/>
       <use xlink:href="#ArialMT-35" transform="translate(166.845703 0)"/>
       <use xlink:href="#ArialMT-2d" transform="translate(222.460938 0)"/>
       <use xlink:href="#ArialMT-30" transform="translate(255.761719 0)"/>
       <use xlink:href="#ArialMT-39" transform="translate(311.376953 0)"/>
      </g>
     </g>
    </g>
   </g>
   <g id="matplotlib.axis_2">
    <g id="ytick_1">
     <g id="line2d_8">
      <path d="M 53.06 360.655348 
L 995.04 360.655348 
" clip-path="url(#p7b5473d143)" style="fill: none; stroke: #cccccc; stroke-linecap: round"/>
     </g>
     <g id="text_8">
      <!-- 25000 -->
      <g style="fill: #262626" transform="translate(12.974844 364.592145) scale(0.11 -0.11)">
       <use xlink:href="#ArialMT-32"/>
       <use xlink:href="#ArialMT-35" transform="translate(55.615234 0)"/>
       <use xlink:href="#ArialMT-30" transform="translate(111.230469 0)"/>
       <use xlink:href="#ArialMT-30" transform="translate(166.845703 0)"/>
       <use xlink:href="#ArialMT-30" transform="translate(222.460938 0)"/>
      </g>
     </g>
    </g>
    <g id="ytick_2">
     <g id="line2d_9">
      <path d="M 53.06 311.398907 
L 995.04 311.398907 
" clip-path="url(#p7b5473d143)" style="fill: none; stroke: #cccccc; stroke-linecap: round"/>
     </g>
     <g id="text_9">
      <!-- 30000 -->
      <g style="fill: #262626" transform="translate(12.974844 315.335704) scale(0.11 -0.11)">
       <use xlink:href="#ArialMT-33"/>
       <use xlink:href="#ArialMT-30" transform="translate(55.615234 0)"/>
       <use xlink:href="#ArialMT-30" transform="translate(111.230469 0)"/>
       <use xlink:href="#ArialMT-30" transform="translate(166.845703 0)"/>
       <use xlink:href="#ArialMT-30" transform="translate(222.460938 0)"/>
      </g>
     </g>
    </g>
    <g id="ytick_3">
     <g id="line2d_10">
      <path d="M 53.06 262.142466 
L 995.04 262.142466 
" clip-path="url(#p7b5473d143)" style="fill: none; stroke: #cccccc; stroke-linecap: round"/>
     </g>
     <g id="text_10">
      <!-- 35000 -->
      <g style="fill: #262626" transform="translate(12.974844 266.079263) scale(0.11 -0.11)">
       <use xlink:href="#ArialMT-33"/>
       <use xlink:href="#ArialMT-35" transform="translate(55.615234 0)"/>
       <use xlink:href="#ArialMT-30" transform="translate(111.230469 0)"/>
       <use xlink:href="#ArialMT-30" transform="translate(166.845703 0)"/>
       <use xlink:href="#ArialMT-30" transform="translate(222.460938 0)"/>
      </g>
     </g>
    </g>
    <g id="ytick_4">
     <g id="line2d_11">
      <path d="M 53.06 212.886025 
L 995.04 212.886025 
" clip-path="url(#p7b5473d143)" style="fill: none; stroke: #cccccc; stroke-linecap: round"/>
     </g>
     <g id="text_11">
      <!-- 40000 -->
      <g style="fill: #262626" transform="translate(12.974844 216.822821) scale(0.11 -0.11)">
       <use xlink:href="#ArialMT-34"/>
       <use xlink:href="#ArialMT-30" transform="translate(55.615234 0)"/>
       <use xlink:href="#ArialMT-30" transform="translate(111.230469 0)"/>
       <use xlink:href="#ArialMT-30" transform="translate(166.845703 0)"/>
       <use xlink:href="#ArialMT-30" transform="translate(222.460938 0)"/>
      </g>
     </g>
    </g>
    <g id="ytick_5">
     <g id="line2d_12">
      <path d="M 53.06 163.629584 
L 995.04 163.629584 
" clip-path="url(#p7b5473d143)" style="fill: none; stroke: #cccccc; stroke-linecap: round"/>
     </g>
     <g id="text_12">
      <!-- 45000 -->
      <g style="fill: #262626" transform="translate(12.974844 167.56638) scale(0.11 -0.11)">
       <use xlink:href="#ArialMT-34"/>
       <use xlink:href="#ArialMT-35" transform="translate(55.615234 0)"/>
       <use xlink:href="#ArialMT-30" transform="translate(111.230469 0)"/>
       <use xlink:href="#ArialMT-30" transform="translate(166.845703 0)"/>
       <use xlink:href="#ArialMT-30" transform="translate(222.460938 0)"/>
      </g>
     </g>
    </g>
    <g id="ytick_6">
     <g id="line2d_13">
      <path d="M 53.06 114.373142 
L 995.04 114.373142 
" clip-path="url(#p7b5473d143)" style="fill: none; stroke: #cccccc; stroke-linecap: round"/>
     </g>
     <g id="text_13">
      <!-- 50000 -->
      <g style="fill: #262626" transform="translate(12.974844 118.309939) scale(0.11 -0.11)">
       <use xlink:href="#ArialMT-35"/>
       <use xlink:href="#ArialMT-30" transform="translate(55.615234 0)"/>
       <use xlink:href="#ArialMT-30" transform="translate(111.230469 0)"/>
       <use xlink:href="#ArialMT-30" transform="translate(166.845703 0)"/>
       <use xlink:href="#ArialMT-30" transform="translate(222.460938 0)"/>
      </g>
     </g>
    </g>
    <g id="ytick_7">
     <g id="line2d_14">
      <path d="M 53.06 65.116701 
L 995.04 65.116701 
" clip-path="url(#p7b5473d143)" style="fill: none; stroke: #cccccc; stroke-linecap: round"/>
     </g>
     <g id="text_14">
      <!-- 55000 -->
      <g style="fill: #262626" transform="translate(12.974844 69.053498) scale(0.11 -0.11)">
       <use xlink:href="#ArialMT-35"/>
       <use xlink:href="#ArialMT-35" transform="translate(55.615234 0)"/>
       <use xlink:href="#ArialMT-30" transform="translate(111.230469 0)"/>
       <use xlink:href="#ArialMT-30" transform="translate(166.845703 0)"/>
       <use xlink:href="#ArialMT-30" transform="translate(222.460938 0)"/>
      </g>
     </g>
    </g>
   </g>
   <g id="PathCollection_1">
    <defs>
     <path id="m304e575cfc" d="M 0 3.535534 
C 0.937635 3.535534 1.836992 3.163008 2.5 2.5 
C 3.163008 1.836992 3.535534 0.937635 3.535534 0 
C 3.535534 -0.937635 3.163008 -1.836992 2.5 -2.5 
C 1.836992 -3.163008 0.937635 -3.535534 0 -3.535534 
C -0.937635 -3.535534 -1.836992 -3.163008 -2.5 -2.5 
C -3.163008 -1.836992 -3.535534 -0.937635 -3.535534 0 
C -3.535534 0.937635 -3.163008 1.836992 -2.5 2.5 
C -1.836992 3.163008 -0.937635 3.535534 0 3.535534 
z
" style="stroke: #ffa500"/>
    </defs>
    <g clip-path="url(#p7b5473d143)">
     <use xlink:href="#m304e575cfc" x="150.213913" y="206.975252" style="fill: #ffa500; stroke: #ffa500"/>
     <use xlink:href="#m304e575cfc" x="154.560844" y="291.69633" style="fill: #ffa500; stroke: #ffa500"/>
     <use xlink:href="#m304e575cfc" x="161.081241" y="226.677828" style="fill: #ffa500; stroke: #ffa500"/>
     <use xlink:href="#m304e575cfc" x="174.122035" y="230.618343" style="fill: #ffa500; stroke: #ffa500"/>
     <use xlink:href="#m304e575cfc" x="217.591347" y="294.651717" style="fill: #ffa500; stroke: #ffa500"/>
     <use xlink:href="#m304e575cfc" x="243.672935" y="268.053239" style="fill: #ffa500; stroke: #ffa500"/>
     <use xlink:href="#m304e575cfc" x="254.540263" y="340.952771" style="fill: #ffa500; stroke: #ffa500"/>
     <use xlink:href="#m304e575cfc" x="256.713729" y="291.69633" style="fill: #ffa500; stroke: #ffa500"/>
     <use xlink:href="#m304e575cfc" x="271.927988" y="291.69633" style="fill: #ffa500; stroke: #ffa500"/>
     <use xlink:href="#m304e575cfc" x="284.968782" y="345.878415" style="fill: #ffa500; stroke: #ffa500"/>
     <use xlink:href="#m304e575cfc" x="315.3973" y="331.101483" style="fill: #ffa500; stroke: #ffa500"/>
     <use xlink:href="#m304e575cfc" x="319.744232" y="280.859913" style="fill: #ffa500; stroke: #ffa500"/>
     <use xlink:href="#m304e575cfc" x="506.662275" y="122.254173" style="fill: #ffa500; stroke: #ffa500"/>
     <use xlink:href="#m304e575cfc" x="515.356138" y="270.023496" style="fill: #ffa500; stroke: #ffa500"/>
     <use xlink:href="#m304e575cfc" x="528.396931" y="183.33216" style="fill: #ffa500; stroke: #ffa500"/>
     <use xlink:href="#m304e575cfc" x="676.192593" y="224.70757" style="fill: #ffa500; stroke: #ffa500"/>
     <use xlink:href="#m304e575cfc" x="854.416774" y="236.529116" style="fill: #ffa500; stroke: #ffa500"/>
    </g>
   </g>
   <g id="PathCollection_2">
    <defs>
     <path id="m4697f951ad" d="M 0 4.472136 
C 1.186024 4.472136 2.323632 4.000923 3.162278 3.162278 
C 4.000923 2.323632 4.472136 1.186024 4.472136 0 
C 4.472136 -1.186024 4.000923 -2.323632 3.162278 -3.162278 
C 2.323632 -4.000923 1.186024 -4.472136 0 -4.472136 
C -1.186024 -4.472136 -2.323632 -4.000923 -3.162278 -3.162278 
C -4.000923 -2.323632 -4.472136 -1.186024 -4.472136 0 
C -4.472136 1.186024 -4.000923 2.323632 -3.162278 3.162278 
C -2.323632 4.000923 -1.186024 4.472136 0 4.472136 
z
" style="stroke: #ff0000"/>
    </defs>
    <g clip-path="url(#p7b5473d143)">
     <use xlink:href="#m4697f951ad" x="287.142247" y="286.770686" style="fill: #ff0000; stroke: #ff0000"/>
     <use xlink:href="#m4697f951ad" x="513.182672" y="193.183448" style="fill: #ff0000; stroke: #ff0000"/>
     <use xlink:href="#m4697f951ad" x="587.080503" y="222.737313" style="fill: #ff0000; stroke: #ff0000"/>
    </g>
   </g>
   <g id="PathCollection_3">
    <defs>
     <path id="m52a42964a4" d="M 0 5.477226 
C 1.452577 5.477226 2.845856 4.900111 3.872983 3.872983 
C 4.900111 2.845856 5.477226 1.452577 5.477226 0 
C 5.477226 -1.452577 4.900111 -2.845856 3.872983 -3.872983 
C 2.845856 -4.900111 1.452577 -5.477226 0 -5.477226 
C -1.452577 -5.477226 -2.845856 -4.900111 -3.872983 -3.872983 
C -4.900111 -2.845856 -5.477226 -1.452577 -5.477226 0 
C -5.477226 1.452577 -4.900111 2.845856 -3.872983 3.872983 
C -2.845856 4.900111 -1.452577 5.477226 0 5.477226 
z
" style="stroke: #000000"/>
    </defs>
    <g clip-path="url(#p7b5473d143)">
     <use xlink:href="#m52a42964a4" x="511.009206" y="270.023496" style="stroke: #000000"/>
    </g>
   </g>
   <g id="line2d_15">
    <path d="M 95.877273 239.484503 
L 98.050738 245.395276 
L 100.224204 266.082981 
L 102.39767 281.845042 
L 104.571135 236.529116 
L 106.744601 258.20195 
L 108.918066 228.648086 
L 111.091532 252.291177 
L 113.264998 250.32092 
L 115.438463 268.053239 
L 117.611929 281.845042 
L 119.785395 256.231693 
L 121.95886 271.993754 
L 124.132326 262.142466 
L 126.305791 287.755815 
L 128.479257 242.439889 
L 130.652723 252.291177 
L 132.826188 281.845042 
L 134.999654 258.20195 
L 137.17312 271.993754 
L 139.346585 250.32092 
L 141.520051 247.365533 
L 143.693516 258.20195 
L 145.866982 258.20195 
L 148.040448 262.142466 
L 150.213913 206.975252 
L 152.387379 210.915767 
L 154.560844 291.69633 
L 156.73431 268.053239 
L 158.907776 291.69633 
L 161.081241 226.677828 
L 163.254707 262.142466 
L 165.428173 250.32092 
L 167.601638 279.874784 
L 169.775104 246.380404 
L 171.948569 279.874784 
L 174.122035 230.618343 
L 176.295501 248.350662 
L 178.468966 281.845042 
L 180.642432 270.023496 
L 182.815898 256.231693 
L 184.989363 246.380404 
L 187.162829 252.291177 
L 189.336294 216.82654 
L 191.50976 270.023496 
L 193.683226 281.845042 
L 195.856691 277.904527 
L 198.030157 254.261435 
L 200.203623 264.605288 
L 202.377088 284.800429 
L 204.550554 297.114539 
L 206.724019 297.607103 
L 208.897485 311.398907 
L 211.070951 291.69633 
L 213.244416 337.012256 
L 215.417882 342.923029 
L 217.591347 294.651717 
L 219.764813 296.621974 
L 221.938279 317.30968 
L 224.111744 311.398907 
L 226.28521 279.874784 
L 228.458676 313.369164 
L 230.632141 297.607103 
L 232.805607 291.69633 
L 237.152538 315.339422 
L 239.326004 340.952771 
L 241.499469 317.30968 
L 243.672935 268.053239 
L 245.846401 287.755815 
L 248.019866 260.172208 
L 250.193332 305.488134 
L 252.366797 277.904527 
L 254.540263 340.952771 
L 256.713729 291.69633 
L 258.887194 268.053239 
L 261.06066 292.681459 
L 263.234126 280.859913 
L 265.407591 298.592232 
L 267.581057 298.592232 
L 269.754522 340.952771 
L 271.927988 291.69633 
L 274.101454 303.517876 
L 276.274919 291.69633 
L 278.448385 308.44352 
L 280.62185 292.681459 
L 282.795316 291.69633 
L 284.968782 345.878415 
L 287.142247 286.770686 
L 289.315713 305.488134 
L 291.489179 271.993754 
L 293.662644 305.488134 
L 295.83611 266.082981 
L 298.009575 311.398907 
L 300.183041 331.101483 
L 302.356507 301.547618 
L 304.529972 260.172208 
L 306.703438 301.547618 
L 308.876904 288.740944 
L 311.050369 286.770686 
L 313.223835 277.904527 
L 315.3973 331.101483 
L 317.570766 331.101483 
L 319.744232 280.859913 
L 321.917697 315.831986 
L 324.091163 330.116354 
L 326.264629 354.25201 
L 328.438094 317.30968 
L 330.61156 319.279937 
L 332.785025 337.997385 
L 334.958491 321.250195 
L 337.131957 329.131225 
L 339.305422 333.071741 
L 341.478888 333.071741 
L 343.652353 336.027127 
L 345.825819 339.967643 
L 347.999285 321.250195 
L 350.17275 356.714832 
L 352.346216 350.80406 
L 354.519682 321.250195 
L 356.693147 327.160968 
L 358.866613 317.30968 
L 361.040078 321.250195 
L 363.213544 350.80406 
L 365.38701 356.714832 
L 367.560475 321.250195 
L 369.733941 327.160968 
L 374.080872 327.160968 
L 376.254338 340.952771 
L 378.427803 327.160968 
L 380.601269 319.279937 
L 382.774735 333.071741 
L 387.121666 333.071741 
L 389.295132 327.160968 
L 391.468597 350.80406 
L 393.642063 340.952771 
L 395.815528 327.160968 
L 400.16246 327.160968 
L 402.335925 319.279937 
L 404.509391 327.160968 
L 406.682856 350.80406 
L 408.856322 335.041998 
L 411.029788 335.041998 
L 413.203253 336.474868 
L 415.376719 326.086291 
L 417.550185 313.727357 
L 421.897116 304.77165 
L 424.070581 314.085649 
L 426.244047 295.815942 
L 428.417513 291.338137 
L 430.590978 284.889977 
L 432.764444 274.501399 
L 434.93791 277.904527 
L 437.111375 275.277484 
L 439.284841 245.066932 
L 441.458306 228.648086 
L 447.978703 228.648086 
L 450.152169 234.558859 
L 452.325635 245.723619 
L 454.4991 229.304871 
L 456.672566 201.064479 
L 458.846031 210.915767 
L 461.019497 173.480872 
L 463.192963 165.599841 
L 465.366428 193.183448 
L 467.539894 173.480872 
L 469.713359 183.33216 
L 471.886825 201.064479 
L 474.060291 197.616528 
L 476.233756 200.07935 
L 478.407222 194.661141 
L 480.580688 212.886025 
L 482.754153 212.886025 
L 484.927619 216.82654 
L 487.101084 212.886025 
L 489.27455 234.558859 
L 491.448016 228.648086 
L 493.621481 220.767055 
L 495.794947 236.529116 
L 497.968413 212.886025 
L 500.141878 258.20195 
L 502.315344 244.410147 
L 504.488809 199.094221 
L 506.662275 122.254173 
L 508.835741 94.670566 
L 511.009206 270.023496 
L 513.182672 193.183448 
L 515.356138 270.023496 
L 517.529603 240.469632 
L 519.703069 236.529116 
L 521.876534 230.618343 
L 524.05 208.945509 
L 526.223466 242.439889 
L 528.396931 183.33216 
L 530.570397 216.82654 
L 532.743862 224.70757 
L 534.917328 224.70757 
L 537.090794 226.677828 
L 539.264259 250.32092 
L 541.437725 216.82654 
L 543.611191 203.034736 
L 545.784656 240.469632 
L 547.958122 222.737313 
L 550.131587 242.439889 
L 552.305053 268.053239 
L 554.478519 224.70757 
L 556.651984 248.350662 
L 558.82545 203.034736 
L 560.998916 236.529116 
L 563.172381 238.499374 
L 565.345847 258.20195 
L 567.519312 248.350662 
L 569.692778 222.737313 
L 571.866244 242.439889 
L 574.039709 212.886025 
L 576.213175 260.172208 
L 578.386641 268.053239 
L 580.560106 270.023496 
L 582.733572 277.904527 
L 584.907037 301.547618 
L 587.080503 222.737313 
L 589.253969 242.439889 
L 591.427434 232.588601 
L 593.6009 277.904527 
L 595.774365 273.964011 
L 597.947831 240.469632 
L 600.121297 279.874784 
L 602.294762 258.20195 
L 604.468228 285.128772 
L 606.641694 331.758268 
L 608.815159 350.80406 
L 610.988625 354.744575 
L 613.16209 360.655348 
L 615.335556 382.328182 
L 617.509022 360.655348 
L 619.682487 357.559186 
L 621.855953 342.641578 
L 624.029419 345.456189 
L 626.202884 336.449353 
L 628.37635 305.769585 
L 630.549815 292.822234 
L 632.723281 293.666588 
L 634.896747 304.831348 
L 637.070212 282.501827 
L 639.243678 266.082981 
L 641.417144 233.57373 
L 643.590609 254.261435 
L 645.764075 254.261435 
L 647.93754 248.350662 
L 650.111006 258.20195 
L 652.284472 252.291177 
L 654.457937 262.142466 
L 656.631403 254.261435 
L 658.804868 244.410147 
L 660.978334 258.20195 
L 663.1518 248.350662 
L 665.325265 268.053239 
L 667.498731 256.231693 
L 669.672197 275.934269 
L 671.845662 243.425018 
L 674.019128 277.904527 
L 676.192593 224.70757 
L 678.366059 264.112723 
L 680.539525 254.261435 
L 682.71299 248.350662 
L 684.886456 235.543987 
L 687.059922 252.291177 
L 689.233387 277.904527 
L 691.406853 252.291177 
L 693.580318 260.172208 
L 695.753784 262.142466 
L 697.92725 254.261435 
L 700.100715 244.410147 
L 702.274181 262.142466 
L 704.447647 275.934269 
L 706.621112 273.964011 
L 708.794578 259.187079 
L 710.968043 242.439889 
L 713.141509 237.514245 
L 715.314975 233.57373 
L 717.48844 258.20195 
L 719.661906 264.112723 
L 721.835371 244.410147 
L 724.008837 254.261435 
L 726.182303 252.291177 
L 728.355768 248.350662 
L 730.529234 246.380404 
L 732.7027 252.291177 
L 734.876165 245.395276 
L 737.049631 264.112723 
L 739.223096 248.350662 
L 741.396562 242.439889 
L 743.570028 253.276306 
L 745.743493 254.261435 
L 747.916959 252.291177 
L 750.090425 266.082981 
L 752.26389 250.32092 
L 754.437356 256.231693 
L 756.610821 242.439889 
L 758.784287 260.172208 
L 760.957753 242.439889 
L 763.131218 249.195016 
L 765.304684 236.247665 
L 767.47815 266.645884 
L 769.651615 233.995956 
L 771.825081 226.959279 
L 773.998546 223.863217 
L 776.172012 208.945509 
L 778.345478 207.819606 
L 780.518943 192.901997 
L 782.692409 215.419185 
L 784.865874 210.352864 
L 787.03934 218.09312 
L 789.212806 255.387339 
L 791.386271 242.439889 
L 793.559737 219.922701 
L 795.733203 206.271574 
L 797.906668 258.624177 
L 800.080134 213.448927 
L 802.253599 215.55996 
L 804.427065 249.195016 
L 806.600531 255.246564 
L 808.773996 223.863217 
L 810.947462 236.810568 
L 813.120928 221.189281 
L 815.294393 247.928436 
L 817.467859 244.128696 
L 819.641324 262.001691 
L 821.81479 256.231693 
L 823.988256 248.350662 
L 826.161721 248.350662 
L 828.335187 264.112723 
L 830.508653 248.350662 
L 832.682118 241.313985 
L 834.855584 244.128696 
L 837.029049 260.735111 
L 839.202515 226.114925 
L 841.375981 215.137734 
L 843.549446 217.952444 
L 845.722912 230.618343 
L 847.896377 233.245386 
L 850.069843 247.693877 
L 852.243309 287.755815 
L 854.416774 236.529116 
L 856.59024 236.529116 
L 858.763706 188.257804 
L 860.937171 155.748553 
L 863.110637 152.652392 
L 865.284102 119.017335 
L 867.457568 140.549394 
L 869.631034 121.69127 
L 871.804499 114.654594 
L 873.977965 106.632887 
L 876.151431 112.402885 
L 878.324896 132.762247 
L 880.498362 139.329706 
L 882.671827 163.629584 
L 884.845293 146.741619 
L 887.018759 139.70504 
L 889.192224 127.74272 
L 891.36569 155.18565 
L 893.539156 108.743821 
L 895.712621 107.618016 
L 897.886087 102.551597 
L 900.059552 106.492112 
L 902.233018 89.744922 
L 904.406484 81.863891 
L 906.579949 102.551597 
L 908.753415 112.402885 
L 910.92688 100.581339 
L 913.100346 112.402885 
L 915.273812 100.581339 
L 917.447277 112.402885 
L 919.620743 104.521854 
L 921.794209 103.536725 
L 923.967674 94.670566 
L 926.14114 102.551597 
L 928.314605 97.625952 
L 930.488071 102.059032 
L 932.661537 72.012603 
L 934.835002 46.891818 
L 937.008468 74.96799 
L 939.181934 79.189956 
L 941.355399 91.292953 
L 943.528865 127.039042 
L 945.70233 131.261107 
L 947.875796 126.616915 
L 950.049262 163.348132 
L 952.222727 151.808038 
L 952.222727 151.808038 
" clip-path="url(#p7b5473d143)" style="fill: none; stroke: #4878d0; stroke-width: 1.5; stroke-linecap: round"/>
   </g>
   <g id="patch_3">
    <path d="M 53.06 399.1 
L 53.06 30.12 
" style="fill: none; stroke: #cccccc; stroke-width: 1.25; stroke-linejoin: miter; stroke-linecap: square"/>
   </g>
   <g id="patch_4">
    <path d="M 995.04 399.1 
L 995.04 30.12 
" style="fill: none; stroke: #cccccc; stroke-width: 1.25; stroke-linejoin: miter; stroke-linecap: square"/>
   </g>
   <g id="patch_5">
    <path d="M 53.06 399.1 
L 995.04 399.1 
" style="fill: none; stroke: #cccccc; stroke-width: 1.25; stroke-linejoin: miter; stroke-linecap: square"/>
   </g>
   <g id="patch_6">
    <path d="M 53.06 30.12 
L 995.04 30.12 
" style="fill: none; stroke: #cccccc; stroke-width: 1.25; stroke-linejoin: miter; stroke-linecap: square"/>
   </g>
   <g id="text_15">
    <!-- BƯỞI — Event Map (spread) -->
    <g style="fill: #262626" transform="translate(446.09125 24.12) scale(0.12 -0.12)">
     <defs>
      <path id="ArialMT-42" d="M 469 0 
L 469 4581 
L 2188 4581 
Q 2713 4581 3030 4442 
Q 3347 4303 3526 4014 
Q 3706 3725 3706 3409 
Q 3706 3116 3547 2856 
Q 3388 2597 3066 2438 
Q 3481 2316 3704 2022 
Q 3928 1728 3928 1328 
Q 3928 1006 3792 729 
Q 3656 453 3456 303 
Q 3256 153 2954 76 
Q 2653 0 2216 0 
L 469 0 
z
M 1075 2656 
L 2066 2656 
Q 2469 2656 2644 2709 
Q 2875 2778 2992 2937 
Q 3109 3097 3109 3338 
Q 3109 3566 3000 3739 
Q 2891 3913 2687 3977 
Q 2484 4041 1991 4041 
L 1075 4041 
L 1075 2656 
z
M 1075 541 
L 2216 541 
Q 2509 541 2628 563 
Q 2838 600 2978 687 
Q 3119 775 3209 942 
Q 3300 1109 3300 1328 
Q 3300 1584 3169 1773 
Q 3038 1963 2805 2039 
Q 2572 2116 2134 2116 
L 1075 2116 
L 1075 541 
z
" transform="scale(0.015625)"/>
      <path id="ArialMT-1af" d="M 4603 3928 
L 4603 4581 
L 5206 4581 
L 5206 4066 
Q 5206 3575 5094 3381 
Q 4784 2841 4106 2809 
L 4106 1934 
Q 4106 1231 3950 838 
Q 3788 428 3388 178 
Q 2978 -78 2316 -78 
Q 1038 -78 678 788 
Q 503 1206 503 1934 
L 503 4581 
L 1109 4581 
L 1109 1938 
Q 1109 1347 1222 1056 
Q 1328 778 1600 623 
Q 1872 469 2263 469 
Q 2947 469 3216 772 
Q 3500 1091 3500 1938 
L 3500 4581 
L 4106 4581 
L 4106 3041 
Q 4594 3091 4813 3428 
Q 4897 3559 4897 3928 
L 4603 3928 
z
" transform="scale(0.015625)"/>
      <path id="ArialMT-1ede" d="M 934 2222 
Q 934 1409 1381 916 
Q 1813 441 2497 441 
Q 3197 441 3625 922 
Q 4066 1422 4066 2288 
Q 4066 3444 3325 3913 
Q 2959 4141 2506 4141 
Q 1809 4141 1400 3700 
Q 934 3200 934 2222 
z
M 4734 3978 
L 4734 4631 
L 5338 4631 
L 5338 4116 
Q 5338 3728 5219 3522 
Q 5056 3238 4609 3000 
Q 4691 2663 4691 2284 
Q 4691 1584 4408 1036 
Q 4125 488 3611 205 
Q 3097 -78 2500 -78 
Q 1856 -78 1345 233 
Q 834 544 571 1086 
Q 309 1628 309 2231 
Q 309 3356 922 4019 
Q 1519 4663 2503 4663 
Q 3213 4663 3761 4277 
Q 4309 3891 4538 3241 
Q 4822 3394 4938 3569 
Q 5031 3709 5028 3978 
L 4734 3978 
z
M 2339 5139 
Q 2517 5158 2567 5173 
Q 2732 5214 2735 5302 
Q 2739 5373 2648 5423 
Q 2517 5495 2232 5495 
Q 2135 5495 1939 5483 
L 1904 5777 
Q 2026 5802 2354 5798 
Q 2739 5795 2982 5673 
Q 3251 5542 3257 5333 
Q 3270 5017 2689 4945 
L 2689 4789 
L 2339 4789 
L 2339 5139 
z
" transform="scale(0.015625)"/>
      <path id="ArialMT-49" d="M 597 0 
L 597 4581 
L 1203 4581 
L 1203 0 
L 597 0 
z
" transform="scale(0.015625)"/>
      <path id="ArialMT-20" transform="scale(0.015625)"/>
      <path id="ArialMT-2014" d="M 0 1431 
L 0 1884 
L 6400 1884 
L 6400 1431 
L 0 1431 
z
" transform="scale(0.015625)"/>
      <path id="ArialMT-45" d="M 506 0 
L 506 4581 
L 3819 4581 
L 3819 4041 
L 1113 4041 
L 1113 2638 
L 3647 2638 
L 3647 2100 
L 1113 2100 
L 1113 541 
L 3925 541 
L 3925 0 
L 506 0 
z
" transform="scale(0.015625)"/>
      <path id="ArialMT-76" d="M 1344 0 
L 81 3319 
L 675 3319 
L 1388 1331 
Q 1503 1009 1600 663 
Q 1675 925 1809 1294 
L 2547 3319 
L 3125 3319 
L 1869 0 
L 1344 0 
z
" transform="scale(0.015625)"/>
      <path id="ArialMT-65" d="M 2694 1069 
L 3275 997 
Q 3138 488 2766 206 
Q 2394 -75 1816 -75 
Q 1088 -75 661 373 
Q 234 822 234 1631 
Q 234 2469 665 2931 
Q 1097 3394 1784 3394 
Q 2450 3394 2872 2941 
Q 3294 2488 3294 1666 
Q 3294 1616 3291 1516 
L 816 1516 
Q 847 969 1125 678 
Q 1403 388 1819 388 
Q 2128 388 2347 550 
Q 2566 713 2694 1069 
z
M 847 1978 
L 2700 1978 
Q 2663 2397 2488 2606 
Q 2219 2931 1791 2931 
Q 1403 2931 1139 2672 
Q 875 2413 847 1978 
z
" transform="scale(0.015625)"/>
      <path id="ArialMT-6e" d="M 422 0 
L 422 3319 
L 928 3319 
L 928 2847 
Q 1294 3394 1984 3394 
Q 2284 3394 2536 3286 
Q 2788 3178 2913 3003 
Q 3038 2828 3088 2588 
Q 3119 2431 3119 2041 
L 3119 0 
L 2556 0 
L 2556 2019 
Q 2556 2363 2490 2533 
Q 2425 2703 2258 2804 
Q 2091 2906 1866 2906 
Q 1506 2906 1245 2678 
Q 984 2450 984 1813 
L 984 0 
L 422 0 
z
" transform="scale(0.015625)"/>
      <path id="ArialMT-74" d="M 1650 503 
L 1731 6 
Q 1494 -44 1306 -44 
Q 1000 -44 831 53 
Q 663 150 594 308 
Q 525 466 525 972 
L 525 2881 
L 113 2881 
L 113 3319 
L 525 3319 
L 525 4141 
L 1084 4478 
L 1084 3319 
L 1650 3319 
L 1650 2881 
L 1084 2881 
L 1084 941 
Q 1084 700 1114 631 
Q 1144 563 1211 522 
Q 1278 481 1403 481 
Q 1497 481 1650 503 
z
" transform="scale(0.015625)"/>
      <path id="ArialMT-4d" d="M 475 0 
L 475 4581 
L 1388 4581 
L 2472 1338 
Q 2622 884 2691 659 
Q 2769 909 2934 1394 
L 4031 4581 
L 4847 4581 
L 4847 0 
L 4263 0 
L 4263 3834 
L 2931 0 
L 2384 0 
L 1059 3900 
L 1059 0 
L 475 0 
z
" transform="scale(0.015625)"/>
      <path id="ArialMT-61" d="M 2588 409 
Q 2275 144 1986 34 
Q 1697 -75 1366 -75 
Q 819 -75 525 192 
Q 231 459 231 875 
Q 231 1119 342 1320 
Q 453 1522 633 1644 
Q 813 1766 1038 1828 
Q 1203 1872 1538 1913 
Q 2219 1994 2541 2106 
Q 2544 2222 2544 2253 
Q 2544 2597 2384 2738 
Q 2169 2928 1744 2928 
Q 1347 2928 1158 2789 
Q 969 2650 878 2297 
L 328 2372 
Q 403 2725 575 2942 
Q 747 3159 1072 3276 
Q 1397 3394 1825 3394 
Q 2250 3394 2515 3294 
Q 2781 3194 2906 3042 
Q 3031 2891 3081 2659 
Q 3109 2516 3109 2141 
L 3109 1391 
Q 3109 606 3145 398 
Q 3181 191 3288 0 
L 2700 0 
Q 2613 175 2588 409 
z
M 2541 1666 
Q 2234 1541 1622 1453 
Q 1275 1403 1131 1340 
Q 988 1278 909 1158 
Q 831 1038 831 891 
Q 831 666 1001 516 
Q 1172 366 1500 366 
Q 1825 366 2078 508 
Q 2331 650 2450 897 
Q 2541 1088 2541 1459 
L 2541 1666 
z
" transform="scale(0.015625)"/>
      <path id="ArialMT-70" d="M 422 -1272 
L 422 3319 
L 934 3319 
L 934 2888 
Q 1116 3141 1344 3267 
Q 1572 3394 1897 3394 
Q 2322 3394 2647 3175 
Q 2972 2956 3137 2557 
Q 3303 2159 3303 1684 
Q 3303 1175 3120 767 
Q 2938 359 2589 142 
Q 2241 -75 1856 -75 
Q 1575 -75 1351 44 
Q 1128 163 984 344 
L 984 -1272 
L 422 -1272 
z
M 931 1641 
Q 931 1000 1190 694 
Q 1450 388 1819 388 
Q 2194 388 2461 705 
Q 2728 1022 2728 1688 
Q 2728 2322 2467 2637 
Q 2206 2953 1844 2953 
Q 1484 2953 1207 2617 
Q 931 2281 931 1641 
z
" transform="scale(0.015625)"/>
      <path id="ArialMT-28" d="M 1497 -1347 
Q 1031 -759 709 28 
Q 388 816 388 1659 
Q 388 2403 628 3084 
Q 909 3875 1497 4659 
L 1900 4659 
Q 1522 4009 1400 3731 
Q 1209 3300 1100 2831 
Q 966 2247 966 1656 
Q 966 153 1900 -1347 
L 1497 -1347 
z
" transform="scale(0.015625)"/>
      <path id="ArialMT-73" d="M 197 991 
L 753 1078 
Q 800 744 1014 566 
Q 1228 388 1613 388 
Q 2000 388 2187 545 
Q 2375 703 2375 916 
Q 2375 1106 2209 1216 
Q 2094 1291 1634 1406 
Q 1016 1563 777 1677 
Q 538 1791 414 1992 
Q 291 2194 291 2438 
Q 291 2659 392 2848 
Q 494 3038 669 3163 
Q 800 3259 1026 3326 
Q 1253 3394 1513 3394 
Q 1903 3394 2198 3281 
Q 2494 3169 2634 2976 
Q 2775 2784 2828 2463 
L 2278 2388 
Q 2241 2644 2061 2787 
Q 1881 2931 1553 2931 
Q 1166 2931 1000 2803 
Q 834 2675 834 2503 
Q 834 2394 903 2306 
Q 972 2216 1119 2156 
Q 1203 2125 1616 2013 
Q 2213 1853 2448 1751 
Q 2684 1650 2818 1456 
Q 2953 1263 2953 975 
Q 2953 694 2789 445 
Q 2625 197 2315 61 
Q 2006 -75 1616 -75 
Q 969 -75 630 194 
Q 291 463 197 991 
z
" transform="scale(0.015625)"/>
      <path id="ArialMT-72" d="M 416 0 
L 416 3319 
L 922 3319 
L 922 2816 
Q 1116 3169 1280 3281 
Q 1444 3394 1641 3394 
Q 1925 3394 2219 3213 
L 2025 2691 
Q 1819 2813 1613 2813 
Q 1428 2813 1281 2702 
Q 1134 2591 1072 2394 
Q 978 2094 978 1738 
L 978 0 
L 416 0 
z
" transform="scale(0.015625)"/>
      <path id="ArialMT-64" d="M 2575 0 
L 2575 419 
Q 2259 -75 1647 -75 
Q 1250 -75 917 144 
Q 584 363 401 755 
Q 219 1147 219 1656 
Q 219 2153 384 2558 
Q 550 2963 881 3178 
Q 1213 3394 1622 3394 
Q 1922 3394 2156 3267 
Q 2391 3141 2538 2938 
L 2538 4581 
L 3097 4581 
L 3097 0 
L 2575 0 
z
M 797 1656 
Q 797 1019 1065 703 
Q 1334 388 1700 388 
Q 2069 388 2326 689 
Q 2584 991 2584 1609 
Q 2584 2291 2321 2609 
Q 2059 2928 1675 2928 
Q 1300 2928 1048 2622 
Q 797 2316 797 1656 
z
" transform="scale(0.015625)"/>
      <path id="ArialMT-29" d="M 791 -1347 
L 388 -1347 
Q 1322 153 1322 1656 
Q 1322 2244 1188 2822 
Q 1081 3291 891 3722 
Q 769 4003 388 4659 
L 791 4659 
Q 1378 3875 1659 3084 
Q 1900 2403 1900 1659 
Q 1900 816 1576 28 
Q 1253 -759 791 -1347 
z
" transform="scale(0.015625)"/>
     </defs>
     <use xlink:href="#ArialMT-42"/>
     <use xlink:href="#ArialMT-1af" transform="translate(66.699219 0)"/>
     <use xlink:href="#ArialMT-1ede" transform="translate(152.099609 0)"/>
     <use xlink:href="#ArialMT-49" transform="translate(237.841797 0)"/>
     <use xlink:href="#ArialMT-20" transform="translate(265.625 0)"/>
     <use xlink:href="#ArialMT-2014" transform="translate(293.408203 0)"/>
     <use xlink:href="#ArialMT-20" transform="translate(393.408203 0)"/>
     <use xlink:href="#ArialMT-45" transform="translate(421.191406 0)"/>
     <use xlink:href="#ArialMT-76" transform="translate(487.890625 0)"/>
     <use xlink:href="#ArialMT-65" transform="translate(537.890625 0)"/>
     <use xlink:href="#ArialMT-6e" transform="translate(593.505859 0)"/>
     <use xlink:href="#ArialMT-74" transform="translate(649.121094 0)"/>
     <use xlink:href="#ArialMT-20" transform="translate(676.904297 0)"/>
     <use xlink:href="#ArialMT-4d" transform="translate(704.6875 0)"/>
     <use xlink:href="#ArialMT-61" transform="translate(787.988281 0)"/>
     <use xlink:href="#ArialMT-70" transform="translate(843.603516 0)"/>
     <use xlink:href="#ArialMT-20" transform="translate(899.21875 0)"/>
     <use xlink:href="#ArialMT-28" transform="translate(927.001953 0)"/>
     <use xlink:href="#ArialMT-73" transform="translate(960.302734 0)"/>
     <use xlink:href="#ArialMT-70" transform="translate(1010.302734 0)"/>
     <use xlink:href="#ArialMT-72" transform="translate(1065.917969 0)"/>
     <use xlink:href="#ArialMT-65" transform="translate(1099.21875 0)"/>
     <use xlink:href="#ArialMT-61" transform="translate(1154.833984 0)"/>
     <use xlink:href="#ArialMT-64" transform="translate(1210.449219 0)"/>
     <use xlink:href="#ArialMT-29" transform="translate(1266.064453 0)"/>
    </g>
   </g>
   <g id="legend_1">
    <g id="patch_7">
     <path d="M 60.76 101.288281 
L 166.26375 101.288281 
Q 168.46375 101.288281 168.46375 99.088281 
L 168.46375 37.82 
Q 168.46375 35.62 166.26375 35.62 
L 60.76 35.62 
Q 58.56 35.62 58.56 37.82 
L 58.56 99.088281 
Q 58.56 101.288281 60.76 101.288281 
z
" style="fill: #ffffff; opacity: 0.8; stroke: #cccccc; stroke-linejoin: miter"/>
    </g>
    <g id="line2d_16">
     <path d="M 62.96 44.043594 
L 73.96 44.043594 
L 84.96 44.043594 
" style="fill: none; stroke: #4878d0; stroke-width: 1.5; stroke-linecap: round"/>
    </g>
    <g id="text_16">
     <!-- spread -->
     <g style="fill: #262626" transform="translate(93.76 47.893594) scale(0.11 -0.11)">
      <use xlink:href="#ArialMT-73"/>
      <use xlink:href="#ArialMT-70" transform="translate(50 0)"/>
      <use xlink:href="#ArialMT-72" transform="translate(105.615234 0)"/>
      <use xlink:href="#ArialMT-65" transform="translate(138.916016 0)"/>
      <use xlink:href="#ArialMT-61" transform="translate(194.53125 0)"/>
      <use xlink:href="#ArialMT-64" transform="translate(250.146484 0)"/>
     </g>
    </g>
    <g id="PathCollection_4">
     <g>
      <use xlink:href="#m304e575cfc" x="73.96" y="60.565937" style="fill: #ffa500; stroke: #ffa500"/>
     </g>
    </g>
    <g id="text_17">
     <!-- Small Event -->
     <g style="fill: #262626" transform="translate(93.76 63.453437) scale(0.11 -0.11)">
      <defs>
       <path id="ArialMT-53" d="M 288 1472 
L 859 1522 
Q 900 1178 1048 958 
Q 1197 738 1509 602 
Q 1822 466 2213 466 
Q 2559 466 2825 569 
Q 3091 672 3220 851 
Q 3350 1031 3350 1244 
Q 3350 1459 3225 1620 
Q 3100 1781 2813 1891 
Q 2628 1963 1997 2114 
Q 1366 2266 1113 2400 
Q 784 2572 623 2826 
Q 463 3081 463 3397 
Q 463 3744 659 4045 
Q 856 4347 1234 4503 
Q 1613 4659 2075 4659 
Q 2584 4659 2973 4495 
Q 3363 4331 3572 4012 
Q 3781 3694 3797 3291 
L 3216 3247 
Q 3169 3681 2898 3903 
Q 2628 4125 2100 4125 
Q 1550 4125 1298 3923 
Q 1047 3722 1047 3438 
Q 1047 3191 1225 3031 
Q 1400 2872 2139 2705 
Q 2878 2538 3153 2413 
Q 3553 2228 3743 1945 
Q 3934 1663 3934 1294 
Q 3934 928 3725 604 
Q 3516 281 3123 101 
Q 2731 -78 2241 -78 
Q 1619 -78 1198 103 
Q 778 284 539 648 
Q 300 1013 288 1472 
z
" transform="scale(0.015625)"/>
       <path id="ArialMT-6d" d="M 422 0 
L 422 3319 
L 925 3319 
L 925 2853 
Q 1081 3097 1340 3245 
Q 1600 3394 1931 3394 
Q 2300 3394 2536 3241 
Q 2772 3088 2869 2813 
Q 3263 3394 3894 3394 
Q 4388 3394 4653 3120 
Q 4919 2847 4919 2278 
L 4919 0 
L 4359 0 
L 4359 2091 
Q 4359 2428 4304 2576 
Q 4250 2725 4106 2815 
Q 3963 2906 3769 2906 
Q 3419 2906 3187 2673 
Q 2956 2441 2956 1928 
L 2956 0 
L 2394 0 
L 2394 2156 
Q 2394 2531 2256 2718 
Q 2119 2906 1806 2906 
Q 1569 2906 1367 2781 
Q 1166 2656 1075 2415 
Q 984 2175 984 1722 
L 984 0 
L 422 0 
z
" transform="scale(0.015625)"/>
       <path id="ArialMT-6c" d="M 409 0 
L 409 4581 
L 972 4581 
L 972 0 
L 409 0 
z
" transform="scale(0.015625)"/>
      </defs>
      <use xlink:href="#ArialMT-53"/>
      <use xlink:href="#ArialMT-6d" transform="translate(66.699219 0)"/>
      <use xlink:href="#ArialMT-61" transform="translate(150 0)"/>
      <use xlink:href="#ArialMT-6c" transform="translate(205.615234 0)"/>
      <use xlink:href="#ArialMT-6c" transform="translate(227.832031 0)"/>
      <use xlink:href="#ArialMT-20" transform="translate(250.048828 0)"/>
      <use xlink:href="#ArialMT-45" transform="translate(277.832031 0)"/>
      <use xlink:href="#ArialMT-76" transform="translate(344.53125 0)"/>
      <use xlink:href="#ArialMT-65" transform="translate(394.53125 0)"/>
      <use xlink:href="#ArialMT-6e" transform="translate(450.146484 0)"/>
      <use xlink:href="#ArialMT-74" transform="translate(505.761719 0)"/>
     </g>
    </g>
    <g id="PathCollection_5">
     <g>
      <use xlink:href="#m4697f951ad" x="73.96" y="76.125781" style="fill: #ff0000; stroke: #ff0000"/>
     </g>
    </g>
    <g id="text_18">
     <!-- Medium Event -->
     <g style="fill: #262626" transform="translate(93.76 79.013281) scale(0.11 -0.11)">
      <defs>
       <path id="ArialMT-69" d="M 425 3934 
L 425 4581 
L 988 4581 
L 988 3934 
L 425 3934 
z
M 425 0 
L 425 3319 
L 988 3319 
L 988 0 
L 425 0 
z
" transform="scale(0.015625)"/>
       <path id="ArialMT-75" d="M 2597 0 
L 2597 488 
Q 2209 -75 1544 -75 
Q 1250 -75 995 37 
Q 741 150 617 320 
Q 494 491 444 738 
Q 409 903 409 1263 
L 409 3319 
L 972 3319 
L 972 1478 
Q 972 1038 1006 884 
Q 1059 663 1231 536 
Q 1403 409 1656 409 
Q 1909 409 2131 539 
Q 2353 669 2445 892 
Q 2538 1116 2538 1541 
L 2538 3319 
L 3100 3319 
L 3100 0 
L 2597 0 
z
" transform="scale(0.015625)"/>
      </defs>
      <use xlink:href="#ArialMT-4d"/>
      <use xlink:href="#ArialMT-65" transform="translate(83.300781 0)"/>
      <use xlink:href="#ArialMT-64" transform="translate(138.916016 0)"/>
      <use xlink:href="#ArialMT-69" transform="translate(194.53125 0)"/>
      <use xlink:href="#ArialMT-75" transform="translate(216.748047 0)"/>
      <use xlink:href="#ArialMT-6d" transform="translate(272.363281 0)"/>
      <use xlink:href="#ArialMT-20" transform="translate(355.664062 0)"/>
      <use xlink:href="#ArialMT-45" transform="translate(383.447266 0)"/>
      <use xlink:href="#ArialMT-76" transform="translate(450.146484 0)"/>
      <use xlink:href="#ArialMT-65" transform="translate(500.146484 0)"/>
      <use xlink:href="#ArialMT-6e" transform="translate(555.761719 0)"/>
      <use xlink:href="#ArialMT-74" transform="translate(611.376953 0)"/>
     </g>
    </g>
    <g id="PathCollection_6">
     <g>
      <use xlink:href="#m52a42964a4" x="73.96" y="91.685625" style="stroke: #000000"/>
     </g>
    </g>
    <g id="text_19">
     <!-- Major Event -->
     <g style="fill: #262626" transform="translate(93.76 94.573125) scale(0.11 -0.11)">
      <defs>
       <path id="ArialMT-6a" d="M 419 3928 
L 419 4581 
L 981 4581 
L 981 3928 
L 419 3928 
z
M -294 -1288 
L -188 -809 
Q -19 -853 78 -853 
Q 250 -853 334 -739 
Q 419 -625 419 -169 
L 419 3319 
L 981 3319 
L 981 -181 
Q 981 -794 822 -1034 
Q 619 -1347 147 -1347 
Q -81 -1347 -294 -1288 
z
" transform="scale(0.015625)"/>
       <path id="ArialMT-6f" d="M 213 1659 
Q 213 2581 725 3025 
Q 1153 3394 1769 3394 
Q 2453 3394 2887 2945 
Q 3322 2497 3322 1706 
Q 3322 1066 3130 698 
Q 2938 331 2570 128 
Q 2203 -75 1769 -75 
Q 1072 -75 642 372 
Q 213 819 213 1659 
z
M 791 1659 
Q 791 1022 1069 705 
Q 1347 388 1769 388 
Q 2188 388 2466 706 
Q 2744 1025 2744 1678 
Q 2744 2294 2464 2611 
Q 2184 2928 1769 2928 
Q 1347 2928 1069 2612 
Q 791 2297 791 1659 
z
" transform="scale(0.015625)"/>
      </defs>
      <use xlink:href="#ArialMT-4d"/>
      <use xlink:href="#ArialMT-61" transform="translate(83.300781 0)"/>
      <use xlink:href="#ArialMT-6a" transform="translate(138.916016 0)"/>
      <use xlink:href="#ArialMT-6f" transform="translate(161.132812 0)"/>
      <use xlink:href="#ArialMT-72" transform="translate(216.748047 0)"/>
      <use xlink:href="#ArialMT-20" transform="translate(250.048828 0)"/>
      <use xlink:href="#ArialMT-45" transform="translate(277.832031 0)"/>
      <use xlink:href="#ArialMT-76" transform="translate(344.53125 0)"/>
      <use xlink:href="#ArialMT-65" transform="translate(394.53125 0)"/>
      <use xlink:href="#ArialMT-6e" transform="translate(450.146484 0)"/>
      <use xlink:href="#ArialMT-74" transform="translate(505.761719 0)"/>
     </g>
    </g>
   </g>
  </g>
 </g>
 <defs>
  <clipPath id="p7b5473d143">
   <rect x="53.06" y="30.12" width="941.98" height="368.98"/>
  </clipPath>
 </defs>
</svg>
