<?xml version="1.0" encoding="utf-8" standalone="no"?>
<!DOCTYPE svg PUBLIC "-//W3C//DTD SVG 1.1//EN"
  "http://www.w3.org/Graphics/SVG/1.1/DTD/svg11.dtd">
<svg xmlns:xlink="http://www.w3.org/1999/xlink" width="1008pt" height="360pt" viewBox="0 0 1008 360" xmlns="http://www.w3.org/2000/svg" version="1.1">
 <metadata>
  <rdf:RDF xmlns:dc="http://purl.org/dc/elements/1.1/" xmlns:cc="http://creativecommons.org/ns#" xmlns:rdf="http://www.w3.org/1999/02/22-rdf-syntax-ns#">
   <cc:Work>
    <dc:type rdf:resource="http://purl.org/dc/dcmitype/StillImage"/>
    <dc:date>2025-12-12T00:30:21.692035</dc:date>
    <dc:format>image/svg+xml</dc:format>
    <dc:creator>
     <cc:Agent>
      <dc:title>Matplotlib v3.10.7, https://matplotlib.org/</dc:title>
     </cc:Agent>
    </dc:creator>
   </cc:Work>
  </rdf:RDF>
 </metadata>
 <defs>
  <style type="text/css">*{stroke-linejoin: round; stroke-linecap: butt}</style>
 </defs>
 <g id="figure_1">
  <g id="patch_1">
   <path d="M 0 360 
L 1008 360 
L 1008 0 
L 0 0 
z
" style="fill: #ffffff"/>
  </g>
  <g id="axes_1">
   <g id="patch_2">
    <path d="M 53.06 327.1 
L 995.04 327.1 
L 995.04 30.12 
L 53.06 30.12 
z
" style="fill: #ffffff"/>
   </g>
   <g id="matplotlib.axis_1">
    <g id="xtick_1">
     <g id="line2d_1">
      <path d="M 95.877273 327.1 
L 95.877273 30.12 
" clip-path="url(#p8802f35b18)" style="fill: none; stroke: #cccccc; stroke-linecap: round"/>
     </g>
     <g id="text_1">
      <!-- 2024-09 -->
      <g style="fill: #262626" transform="translate(75.694851 344.473594) scale(0.11 -0.11)">
       <defs>
        <path id="ArialMT-32" d="M 3222 541 
L 3222 0 
L 194 0 
Q 188 203 259 391 
Q 375 700 629 1000 
Q 884 1300 1366 1694 
Q 2113 2306 2375 2664 
Q 2638 3022 2638 3341 
Q 2638 3675 2398 3904 
Q 2159 4134 1775 4134 
Q 1369 4134 1125 3890 
Q 881 3647 878 3216 
L 300 3275 
Q 359 3922 746 4261 
Q 1134 4600 1788 4600 
Q 2447 4600 2831 4234 
Q 3216 3869 3216 3328 
Q 3216 3053 3103 2787 
Q 2991 2522 2730 2228 
Q 2469 1934 1863 1422 
Q 1356 997 1212 845 
Q 1069 694 975 541 
L 3222 541 
z
" transform="scale(0.015625)"/>
        <path id="ArialMT-30" d="M 266 2259 
Q 266 3072 433 3567 
Q 600 4063 929 4331 
Q 1259 4600 1759 4600 
Q 2128 4600 2406 4451 
Q 2684 4303 2865 4023 
Q 3047 3744 3150 3342 
Q 3253 2941 3253 2259 
Q 3253 1453 3087 958 
Q 2922 463 2592 192 
Q 2263 -78 1759 -78 
Q 1097 -78 719 397 
Q 266 969 266 2259 
z
M 844 2259 
Q 844 1131 1108 757 
Q 1372 384 1759 384 
Q 2147 384 2411 759 
Q 2675 1134 2675 2259 
Q 2675 3391 2411 3762 
Q 2147 4134 1753 4134 
Q 1366 4134 1134 3806 
Q 844 3388 844 2259 
z
" transform="scale(0.015625)"/>
        <path id="ArialMT-34" d="M 2069 0 
L 2069 1097 
L 81 1097 
L 81 1613 
L 2172 4581 
L 2631 4581 
L 2631 1613 
L 3250 1613 
L 3250 1097 
L 2631 1097 
L 2631 0 
L 2069 0 
z
M 2069 1613 
L 2069 3678 
L 634 1613 
L 2069 1613 
z
" transform="scale(0.015625)"/>
        <path id="ArialMT-2d" d="M 203 1375 
L 203 1941 
L 1931 1941 
L 1931 1375 
L 203 1375 
z
" transform="scale(0.015625)"/>
        <path id="ArialMT-39" d="M 350 1059 
L 891 1109 
Q 959 728 1153 556 
Q 1347 384 1650 384 
Q 1909 384 2104 503 
Q 2300 622 2425 820 
Q 2550 1019 2634 1356 
Q 2719 1694 2719 2044 
Q 2719 2081 2716 2156 
Q 2547 1888 2255 1720 
Q 1963 1553 1622 1553 
Q 1053 1553 659 1965 
Q 266 2378 266 3053 
Q 266 3750 677 4175 
Q 1088 4600 1706 4600 
Q 2153 4600 2523 4359 
Q 2894 4119 3086 3673 
Q 3278 3228 3278 2384 
Q 3278 1506 3087 986 
Q 2897 466 2520 194 
Q 2144 -78 1638 -78 
Q 1100 -78 759 220 
Q 419 519 350 1059 
z
M 2653 3081 
Q 2653 3566 2395 3850 
Q 2138 4134 1775 4134 
Q 1400 4134 1122 3828 
Q 844 3522 844 3034 
Q 844 2597 1108 2323 
Q 1372 2050 1759 2050 
Q 2150 2050 2401 2323 
Q 2653 2597 2653 3081 
z
" transform="scale(0.015625)"/>
       </defs>
       <use xlink:href="#ArialMT-32"/>
       <use xlink:href="#ArialMT-30" transform="translate(55.615234 0)"/>
       <use xlink:href="#ArialMT-32" transform="translate(111.230469 0)"/>
       <use xlink:href="#ArialMT-34" transform="translate(166.845703 0)"/>
       <use xlink:href="#ArialMT-2d" transform="translate(222.460938 0)"/>
       <use xlink:href="#ArialMT-30" transform="translate(255.761719 0)"/>
       <use xlink:href="#ArialMT-39" transform="translate(311.376953 0)"/>
      </g>
     </g>
    </g>
    <g id="xtick_2">
     <g id="line2d_2">
      <path d="M 228.458676 327.1 
L 228.458676 30.12 
" clip-path="url(#p8802f35b18)" style="fill: none; stroke: #cccccc; stroke-linecap: round"/>
     </g>
     <g id="text_2">
      <!-- 2024-11 -->
      <g style="fill: #262626" transform="translate(208.681879 344.473594) scale(0.11 -0.11)">
       <defs>
        <path id="ArialMT-31" d="M 2384 0 
L 1822 0 
L 1822 3584 
Q 1619 3391 1289 3197 
Q 959 3003 697 2906 
L 697 3450 
Q 1169 3672 1522 3987 
Q 1875 4303 2022 4600 
L 2384 4600 
L 2384 0 
z
" transform="scale(0.015625)"/>
       </defs>
       <use xlink:href="#ArialMT-32"/>
       <use xlink:href="#ArialMT-30" transform="translate(55.615234 0)"/>
       <use xlink:href="#ArialMT-32" transform="translate(111.230469 0)"/>
       <use xlink:href="#ArialMT-34" transform="translate(166.845703 0)"/>
       <use xlink:href="#ArialMT-2d" transform="translate(222.460938 0)"/>
       <use xlink:href="#ArialMT-31" transform="translate(255.761719 0)"/>
       <use xlink:href="#ArialMT-31" transform="translate(304.001953 0)"/>
      </g>
     </g>
    </g>
    <g id="xtick_3">
     <g id="line2d_3">
      <path d="M 361.040078 327.1 
L 361.040078 30.12 
" clip-path="url(#p8802f35b18)" style="fill: none; stroke: #cccccc; stroke-linecap: round"/>
     </g>
     <g id="text_3">
      <!-- 2025-01 -->
      <g style="fill: #262626" transform="translate(340.857657 344.473594) scale(0.11 -0.11)">
       <defs>
        <path id="ArialMT-35" d="M 266 1200 
L 856 1250 
Q 922 819 1161 601 
Q 1400 384 1738 384 
Q 2144 384 2425 690 
Q 2706 997 2706 1503 
Q 2706 1984 2436 2262 
Q 2166 2541 1728 2541 
Q 1456 2541 1237 2417 
Q 1019 2294 894 2097 
L 366 2166 
L 809 4519 
L 3088 4519 
L 3088 3981 
L 1259 3981 
L 1013 2750 
Q 1425 3038 1878 3038 
Q 2478 3038 2890 2622 
Q 3303 2206 3303 1553 
Q 3303 931 2941 478 
Q 2500 -78 1738 -78 
Q 1113 -78 717 272 
Q 322 622 266 1200 
z
" transform="scale(0.015625)"/>
       </defs>
       <use xlink:href="#ArialMT-32"/>
       <use xlink:href="#ArialMT-30" transform="translate(55.615234 0)"/>
       <use xlink:href="#ArialMT-32" transform="translate(111.230469 0)"/>
       <use xlink:href="#ArialMT-35" transform="translate(166.845703 0)"/>
       <use xlink:href="#ArialMT-2d" transform="translate(222.460938 0)"/>
       <use xlink:href="#ArialMT-30" transform="translate(255.761719 0)"/>
       <use xlink:href="#ArialMT-31" transform="translate(311.376953 0)"/>
      </g>
     </g>
    </g>
    <g id="xtick_4">
     <g id="line2d_4">
      <path d="M 489.27455 327.1 
L 489.27455 30.12 
" clip-path="url(#p8802f35b18)" style="fill: none; stroke: #cccccc; stroke-linecap: round"/>
     </g>
     <g id="text_4">
      <!-- 2025-03 -->
      <g style="fill: #262626" transform="translate(469.092128 344.473594) scale(0.11 -0.11)">
       <defs>
        <path id="ArialMT-33" d="M 269 1209 
L 831 1284 
Q 928 806 1161 595 
Q 1394 384 1728 384 
Q 2125 384 2398 659 
Q 2672 934 2672 1341 
Q 2672 1728 2419 1979 
Q 2166 2231 1775 2231 
Q 1616 2231 1378 2169 
L 1441 2663 
Q 1497 2656 1531 2656 
Q 1891 2656 2178 2843 
Q 2466 3031 2466 3422 
Q 2466 3731 2256 3934 
Q 2047 4138 1716 4138 
Q 1388 4138 1169 3931 
Q 950 3725 888 3313 
L 325 3413 
Q 428 3978 793 4289 
Q 1159 4600 1703 4600 
Q 2078 4600 2393 4439 
Q 2709 4278 2876 4000 
Q 3044 3722 3044 3409 
Q 3044 3113 2884 2869 
Q 2725 2625 2413 2481 
Q 2819 2388 3044 2092 
Q 3269 1797 3269 1353 
Q 3269 753 2831 336 
Q 2394 -81 1725 -81 
Q 1122 -81 723 278 
Q 325 638 269 1209 
z
" transform="scale(0.015625)"/>
       </defs>
       <use xlink:href="#ArialMT-32"/>
       <use xlink:href="#ArialMT-30" transform="translate(55.615234 0)"/>
       <use xlink:href="#ArialMT-32" transform="translate(111.230469 0)"/>
       <use xlink:href="#ArialMT-35" transform="translate(166.845703 0)"/>
       <use xlink:href="#ArialMT-2d" transform="translate(222.460938 0)"/>
       <use xlink:href="#ArialMT-30" transform="translate(255.761719 0)"/>
       <use xlink:href="#ArialMT-33" transform="translate(311.376953 0)"/>
      </g>
     </g>
    </g>
    <g id="xtick_5">
     <g id="line2d_5">
      <path d="M 621.855953 327.1 
L 621.855953 30.12 
" clip-path="url(#p8802f35b18)" style="fill: none; stroke: #cccccc; stroke-linecap: round"/>
     </g>
     <g id="text_5">
      <!-- 2025-05 -->
      <g style="fill: #262626" transform="translate(601.673531 344.473594) scale(0.11 -0.11)">
       <use xlink:href="#ArialMT-32"/>
       <use xlink:href="#ArialMT-30" transform="translate(55.615234 0)"/>
       <use xlink:href="#ArialMT-32" transform="translate(111.230469 0)"/>
       <use xlink:href="#ArialMT-35" transform="translate(166.845703 0)"/>
       <use xlink:href="#ArialMT-2d" transform="translate(222.460938 0)"/>
       <use xlink:href="#ArialMT-30" transform="translate(255.761719 0)"/>
       <use xlink:href="#ArialMT-35" transform="translate(311.376953 0)"/>
      </g>
     </g>
    </g>
    <g id="xtick_6">
     <g id="line2d_6">
      <path d="M 754.437356 327.1 
L 754.437356 30.12 
" clip-path="url(#p8802f35b18)" style="fill: none; stroke: #cccccc; stroke-linecap: round"/>
     </g>
     <g id="text_6">
      <!-- 2025-07 -->
      <g style="fill: #262626" transform="translate(734.254934 344.473594) scale(0.11 -0.11)">
       <defs>
        <path id="ArialMT-37" d="M 303 3981 
L 303 4522 
L 3269 4522 
L 3269 4084 
Q 2831 3619 2401 2847 
Q 1972 2075 1738 1259 
Q 1569 684 1522 0 
L 944 0 
Q 953 541 1156 1306 
Q 1359 2072 1739 2783 
Q 2119 3494 2547 3981 
L 303 3981 
z
" transform="scale(0.015625)"/>
       </defs>
       <use xlink:href="#ArialMT-32"/>
       <use xlink:href="#ArialMT-30" transform="translate(55.615234 0)"/>
       <use xlink:href="#ArialMT-32" transform="translate(111.230469 0)"/>
       <use xlink:href="#ArialMT-35" transform="translate(166.845703 0)"/>
       <use xlink:href="#ArialMT-2d" transform="translate(222.460938 0)"/>
       <use xlink:href="#ArialMT-30" transform="translate(255.761719 0)"/>
       <use xlink:href="#ArialMT-37" transform="translate(311.376953 0)"/>
      </g>
     </g>
    </g>
    <g id="xtick_7">
     <g id="line2d_7">
      <path d="M 889.192224 327.1 
L 889.192224 30.12 
" clip-path="url(#p8802f35b18)" style="fill: none; stroke: #cccccc; stroke-linecap: round"/>
     </g>
     <g id="text_7">
      <!-- 2025-09 -->
      <g style="fill: #262626" transform="translate(869.009802 344.473594) scale(0.11 -0.11)">
       <use xlink:href="#ArialMT-32"/>
       <use xlink:href="#ArialMT-30" transform="translate(55.615234 0)"/>
       <use xlink:href="#ArialMT-32" transform="translate(111.230469 0)"/>
       <use xlink:href="#ArialMT-35" transform="translate(166.845703 0)"/>
       <use xlink:href="#ArialMT-2d" transform="translate(222.460938 0)"/>
       <use xlink:href="#ArialMT-30" transform="translate(255.761719 0)"/>
       <use xlink:href="#ArialMT-39" transform="translate(311.376953 0)"/>
      </g>
     </g>
    </g>
   </g>
   <g id="matplotlib.axis_2">
    <g id="ytick_1">
     <g id="line2d_8">
      <path d="M 53.06 322.17176 
L 995.04 322.17176 
" clip-path="url(#p8802f35b18)" style="fill: none; stroke: #cccccc; stroke-linecap: round"/>
     </g>
     <g id="text_8">
      <!-- 20000 -->
      <g style="fill: #262626" transform="translate(12.974844 326.108557) scale(0.11 -0.11)">
       <use xlink:href="#ArialMT-32"/>
       <use xlink:href="#ArialMT-30" transform="translate(55.615234 0)"/>
       <use xlink:href="#ArialMT-30" transform="translate(111.230469 0)"/>
       <use xlink:href="#ArialMT-30" transform="translate(166.845703 0)"/>
       <use xlink:href="#ArialMT-30" transform="translate(222.460938 0)"/>
      </g>
     </g>
    </g>
    <g id="ytick_2">
     <g id="line2d_9">
      <path d="M 53.06 279.317504 
L 995.04 279.317504 
" clip-path="url(#p8802f35b18)" style="fill: none; stroke: #cccccc; stroke-linecap: round"/>
     </g>
     <g id="text_9">
      <!-- 30000 -->
      <g style="fill: #262626" transform="translate(12.974844 283.2543) scale(0.11 -0.11)">
       <use xlink:href="#ArialMT-33"/>
       <use xlink:href="#ArialMT-30" transform="translate(55.615234 0)"/>
       <use xlink:href="#ArialMT-30" transform="translate(111.230469 0)"/>
       <use xlink:href="#ArialMT-30" transform="translate(166.845703 0)"/>
       <use xlink:href="#ArialMT-30" transform="translate(222.460938 0)"/>
      </g>
     </g>
    </g>
    <g id="ytick_3">
     <g id="line2d_10">
      <path d="M 53.06 236.463247 
L 995.04 236.463247 
" clip-path="url(#p8802f35b18)" style="fill: none; stroke: #cccccc; stroke-linecap: round"/>
     </g>
     <g id="text_10">
      <!-- 40000 -->
      <g style="fill: #262626" transform="translate(12.974844 240.400044) scale(0.11 -0.11)">
       <use xlink:href="#ArialMT-34"/>
       <use xlink:href="#ArialMT-30" transform="translate(55.615234 0)"/>
       <use xlink:href="#ArialMT-30" transform="translate(111.230469 0)"/>
       <use xlink:href="#ArialMT-30" transform="translate(166.845703 0)"/>
       <use xlink:href="#ArialMT-30" transform="translate(222.460938 0)"/>
      </g>
     </g>
    </g>
    <g id="ytick_4">
     <g id="line2d_11">
      <path d="M 53.06 193.60899 
L 995.04 193.60899 
" clip-path="url(#p8802f35b18)" style="fill: none; stroke: #cccccc; stroke-linecap: round"/>
     </g>
     <g id="text_11">
      <!-- 50000 -->
      <g style="fill: #262626" transform="translate(12.974844 197.545787) scale(0.11 -0.11)">
       <use xlink:href="#ArialMT-35"/>
       <use xlink:href="#ArialMT-30" transform="translate(55.615234 0)"/>
       <use xlink:href="#ArialMT-30" transform="translate(111.230469 0)"/>
       <use xlink:href="#ArialMT-30" transform="translate(166.845703 0)"/>
       <use xlink:href="#ArialMT-30" transform="translate(222.460938 0)"/>
      </g>
     </g>
    </g>
    <g id="ytick_5">
     <g id="line2d_12">
      <path d="M 53.06 150.754733 
L 995.04 150.754733 
" clip-path="url(#p8802f35b18)" style="fill: none; stroke: #cccccc; stroke-linecap: round"/>
     </g>
     <g id="text_12">
      <!-- 60000 -->
      <g style="fill: #262626" transform="translate(12.974844 154.69153) scale(0.11 -0.11)">
       <defs>
        <path id="ArialMT-36" d="M 3184 3459 
L 2625 3416 
Q 2550 3747 2413 3897 
Q 2184 4138 1850 4138 
Q 1581 4138 1378 3988 
Q 1113 3794 959 3422 
Q 806 3050 800 2363 
Q 1003 2672 1297 2822 
Q 1591 2972 1913 2972 
Q 2475 2972 2870 2558 
Q 3266 2144 3266 1488 
Q 3266 1056 3080 686 
Q 2894 316 2569 119 
Q 2244 -78 1831 -78 
Q 1128 -78 684 439 
Q 241 956 241 2144 
Q 241 3472 731 4075 
Q 1159 4600 1884 4600 
Q 2425 4600 2770 4297 
Q 3116 3994 3184 3459 
z
M 888 1484 
Q 888 1194 1011 928 
Q 1134 663 1356 523 
Q 1578 384 1822 384 
Q 2178 384 2434 671 
Q 2691 959 2691 1453 
Q 2691 1928 2437 2201 
Q 2184 2475 1800 2475 
Q 1419 2475 1153 2201 
Q 888 1928 888 1484 
z
" transform="scale(0.015625)"/>
       </defs>
       <use xlink:href="#ArialMT-36"/>
       <use xlink:href="#ArialMT-30" transform="translate(55.615234 0)"/>
       <use xlink:href="#ArialMT-30" transform="translate(111.230469 0)"/>
       <use xlink:href="#ArialMT-30" transform="translate(166.845703 0)"/>
       <use xlink:href="#ArialMT-30" transform="translate(222.460938 0)"/>
      </g>
     </g>
    </g>
    <g id="ytick_6">
     <g id="line2d_13">
      <path d="M 53.06 107.900476 
L 995.04 107.900476 
" clip-path="url(#p8802f35b18)" style="fill: none; stroke: #cccccc; stroke-linecap: round"/>
     </g>
     <g id="text_13">
      <!-- 70000 -->
      <g style="fill: #262626" transform="translate(12.974844 111.837273) scale(0.11 -0.11)">
       <use xlink:href="#ArialMT-37"/>
       <use xlink:href="#ArialMT-30" transform="translate(55.615234 0)"/>
       <use xlink:href="#ArialMT-30" transform="translate(111.230469 0)"/>
       <use xlink:href="#ArialMT-30" transform="translate(166.845703 0)"/>
       <use xlink:href="#ArialMT-30" transform="translate(222.460938 0)"/>
      </g>
     </g>
    </g>
    <g id="ytick_7">
     <g id="line2d_14">
      <path d="M 53.06 65.046219 
L 995.04 65.046219 
" clip-path="url(#p8802f35b18)" style="fill: none; stroke: #cccccc; stroke-linecap: round"/>
     </g>
     <g id="text_14">
      <!-- 80000 -->
      <g style="fill: #262626" transform="translate(12.974844 68.983016) scale(0.11 -0.11)">
       <defs>
        <path id="ArialMT-38" d="M 1131 2484 
Q 781 2613 612 2850 
Q 444 3088 444 3419 
Q 444 3919 803 4259 
Q 1163 4600 1759 4600 
Q 2359 4600 2725 4251 
Q 3091 3903 3091 3403 
Q 3091 3084 2923 2848 
Q 2756 2613 2416 2484 
Q 2838 2347 3058 2040 
Q 3278 1734 3278 1309 
Q 3278 722 2862 322 
Q 2447 -78 1769 -78 
Q 1091 -78 675 323 
Q 259 725 259 1325 
Q 259 1772 486 2073 
Q 713 2375 1131 2484 
z
M 1019 3438 
Q 1019 3113 1228 2906 
Q 1438 2700 1772 2700 
Q 2097 2700 2305 2904 
Q 2513 3109 2513 3406 
Q 2513 3716 2298 3927 
Q 2084 4138 1766 4138 
Q 1444 4138 1231 3931 
Q 1019 3725 1019 3438 
z
M 838 1322 
Q 838 1081 952 856 
Q 1066 631 1291 507 
Q 1516 384 1775 384 
Q 2178 384 2440 643 
Q 2703 903 2703 1303 
Q 2703 1709 2433 1975 
Q 2163 2241 1756 2241 
Q 1359 2241 1098 1978 
Q 838 1716 838 1322 
z
" transform="scale(0.015625)"/>
       </defs>
       <use xlink:href="#ArialMT-38"/>
       <use xlink:href="#ArialMT-30" transform="translate(55.615234 0)"/>
       <use xlink:href="#ArialMT-30" transform="translate(111.230469 0)"/>
       <use xlink:href="#ArialMT-30" transform="translate(166.845703 0)"/>
       <use xlink:href="#ArialMT-30" transform="translate(222.460938 0)"/>
      </g>
     </g>
    </g>
   </g>
   <g id="line2d_15">
    <path d="M 95.877273 129.327605 
L 198.030157 129.327605 
L 206.724019 150.754733 
L 319.744232 150.754733 
L 328.438094 172.181861 
L 411.029788 172.181861 
L 434.93791 150.754733 
L 441.458306 129.327605 
L 450.152169 129.327605 
L 456.672566 107.900476 
L 471.886825 107.900476 
L 480.580688 129.327605 
L 502.315344 129.327605 
L 508.835741 65.046219 
L 511.009206 129.327605 
L 602.294762 129.327605 
L 608.815159 172.181861 
L 617.509022 172.181861 
L 632.723281 150.754733 
L 639.243678 129.327605 
L 760.957753 129.327605 
L 776.172012 107.900476 
L 791.386271 116.471328 
L 821.81479 129.327605 
L 830.508653 129.327605 
L 845.722912 107.900476 
L 852.243309 129.327605 
L 860.937171 86.473348 
L 876.151431 65.046219 
L 882.671827 86.473348 
L 897.886087 65.046219 
L 928.314605 65.046219 
L 937.008468 43.619091 
L 952.222727 86.473348 
L 952.222727 86.473348 
" clip-path="url(#p8802f35b18)" style="fill: none; stroke: #2a9d8f; stroke-width: 1.5; stroke-linecap: round"/>
   </g>
   <g id="line2d_16">
    <path d="M 95.877273 289.173983 
L 98.050738 286.602727 
L 100.224204 277.603333 
L 102.39767 270.746652 
L 104.571135 290.45961 
L 106.744601 281.031674 
L 108.918066 293.887951 
L 111.091532 283.602929 
L 113.264998 284.460014 
L 115.438463 276.746248 
L 117.611929 270.746652 
L 119.785395 281.888759 
L 121.95886 275.032078 
L 124.132326 279.317504 
L 126.305791 268.175397 
L 128.479257 287.888355 
L 130.652723 283.602929 
L 132.826188 270.746652 
L 134.999654 281.031674 
L 137.17312 275.032078 
L 139.346585 284.460014 
L 141.520051 285.745642 
L 143.693516 281.031674 
L 145.866982 281.031674 
L 148.040448 279.317504 
L 150.213913 303.315887 
L 152.387379 301.601717 
L 154.560844 266.461227 
L 156.73431 276.746248 
L 158.907776 266.461227 
L 161.081241 294.745036 
L 163.254707 279.317504 
L 165.428173 284.460014 
L 167.601638 271.603737 
L 169.775104 286.174185 
L 171.948569 271.603737 
L 174.122035 293.030866 
L 176.295501 285.3171 
L 178.468966 270.746652 
L 180.642432 275.889163 
L 182.815898 281.888759 
L 184.989363 286.174185 
L 187.162829 283.602929 
L 189.336294 299.030462 
L 191.50976 275.889163 
L 193.683226 270.746652 
L 195.856691 272.460823 
L 198.030157 282.745844 
L 200.203623 283.602929 
L 202.377088 280.174589 
L 204.550554 280.174589 
L 206.724019 285.3171 
L 208.897485 279.317504 
L 211.070951 287.888355 
L 213.244416 268.175397 
L 215.417882 265.604141 
L 217.591347 286.602727 
L 219.764813 285.745642 
L 221.938279 276.746248 
L 224.111744 279.317504 
L 226.28521 293.030866 
L 228.458676 278.460418 
L 230.632141 285.3171 
L 232.805607 287.888355 
L 237.152538 277.603333 
L 239.326004 266.461227 
L 241.499469 276.746248 
L 243.672935 298.173377 
L 245.846401 289.602525 
L 248.019866 301.601717 
L 250.193332 281.888759 
L 252.366797 293.887951 
L 254.540263 266.461227 
L 256.713729 287.888355 
L 258.887194 298.173377 
L 261.06066 287.459812 
L 263.234126 292.602323 
L 265.407591 284.888557 
L 267.581057 284.888557 
L 269.754522 266.461227 
L 271.927988 287.888355 
L 274.101454 282.745844 
L 276.274919 287.888355 
L 278.448385 280.603131 
L 280.62185 287.459812 
L 282.795316 287.888355 
L 284.968782 264.318514 
L 287.142247 290.031068 
L 289.315713 281.888759 
L 291.489179 296.459206 
L 293.662644 281.888759 
L 295.83611 299.030462 
L 298.009575 279.317504 
L 300.183041 270.746652 
L 302.356507 283.602929 
L 304.529972 301.601717 
L 306.703438 283.602929 
L 308.876904 289.173983 
L 311.050369 290.031068 
L 313.223835 293.887951 
L 315.3973 270.746652 
L 317.570766 270.746652 
L 319.744232 292.602323 
L 321.917697 282.745844 
L 324.091163 281.888759 
L 326.264629 276.746248 
L 328.438094 298.173377 
L 330.61156 297.316291 
L 332.785025 289.173983 
L 334.958491 296.459206 
L 337.131957 293.030866 
L 339.305422 291.316696 
L 341.478888 291.316696 
L 343.652353 290.031068 
L 345.825819 288.316898 
L 347.999285 296.459206 
L 350.17275 281.031674 
L 352.346216 283.602929 
L 354.519682 296.459206 
L 356.693147 293.887951 
L 358.866613 298.173377 
L 361.040078 296.459206 
L 363.213544 283.602929 
L 365.38701 281.031674 
L 367.560475 296.459206 
L 369.733941 293.887951 
L 374.080872 293.887951 
L 376.254338 287.888355 
L 378.427803 293.887951 
L 380.601269 297.316291 
L 382.774735 291.316696 
L 387.121666 291.316696 
L 389.295132 293.887951 
L 391.468597 283.602929 
L 393.642063 287.888355 
L 395.815528 293.887951 
L 400.16246 293.887951 
L 402.335925 297.316291 
L 404.509391 293.887951 
L 406.682856 283.602929 
L 408.856322 290.45961 
L 411.029788 290.45961 
L 413.203253 287.888355 
L 415.376719 290.45961 
L 417.550185 293.887951 
L 421.897116 293.887951 
L 424.070581 287.888355 
L 426.244047 293.887951 
L 428.417513 293.887951 
L 430.590978 294.745036 
L 432.764444 297.316291 
L 434.93791 293.887951 
L 437.111375 287.888355 
L 439.284841 293.887951 
L 447.978703 293.887951 
L 450.152169 291.316696 
L 452.325635 279.317504 
L 454.4991 279.317504 
L 456.672566 284.460014 
L 458.846031 280.174589 
L 461.019497 296.459206 
L 463.192963 299.887547 
L 465.366428 287.888355 
L 467.539894 296.459206 
L 469.713359 292.173781 
L 471.886825 284.460014 
L 474.060291 291.316696 
L 476.233756 295.602121 
L 478.407222 303.315887 
L 480.580688 300.744632 
L 482.754153 300.744632 
L 484.927619 299.030462 
L 487.101084 300.744632 
L 489.27455 291.316696 
L 491.448016 293.887951 
L 493.621481 297.316291 
L 495.794947 290.45961 
L 497.968413 300.744632 
L 500.141878 281.031674 
L 502.315344 287.03127 
L 504.488809 285.3171 
L 506.662275 297.316291 
L 508.835741 287.888355 
L 511.009206 275.889163 
L 513.182672 309.315483 
L 515.356138 275.889163 
L 517.529603 288.74544 
L 519.703069 290.45961 
L 521.876534 293.030866 
L 524.05 302.458802 
L 526.223466 287.888355 
L 528.396931 313.600909 
L 530.570397 299.030462 
L 532.743862 295.602121 
L 534.917328 295.602121 
L 537.090794 294.745036 
L 539.264259 284.460014 
L 541.437725 299.030462 
L 543.611191 305.030058 
L 545.784656 288.74544 
L 547.958122 296.459206 
L 550.131587 287.888355 
L 552.305053 276.746248 
L 554.478519 295.602121 
L 556.651984 285.3171 
L 558.82545 305.030058 
L 560.998916 290.45961 
L 563.172381 289.602525 
L 565.345847 281.031674 
L 567.519312 285.3171 
L 569.692778 296.459206 
L 571.866244 287.888355 
L 574.039709 300.744632 
L 576.213175 280.174589 
L 578.386641 276.746248 
L 580.560106 275.889163 
L 582.733572 272.460823 
L 584.907037 262.175801 
L 587.080503 296.459206 
L 589.253969 287.888355 
L 591.427434 292.173781 
L 593.6009 272.460823 
L 595.774365 274.174993 
L 597.947831 288.74544 
L 600.121297 271.603737 
L 602.294762 281.031674 
L 604.468228 283.602929 
L 606.641694 277.603333 
L 608.815159 283.602929 
L 610.988625 281.888759 
L 613.16209 279.317504 
L 615.335556 269.889567 
L 617.509022 279.317504 
L 619.682487 277.603333 
L 621.855953 281.031674 
L 624.029419 276.746248 
L 626.202884 277.603333 
L 628.37635 287.888355 
L 630.549815 290.45961 
L 632.723281 287.03127 
L 634.896747 275.032078 
L 637.070212 277.603333 
L 639.243678 277.603333 
L 641.417144 291.745238 
L 643.590609 282.745844 
L 645.764075 282.745844 
L 647.93754 285.3171 
L 650.111006 281.031674 
L 652.284472 283.602929 
L 654.457937 279.317504 
L 656.631403 282.745844 
L 658.804868 287.03127 
L 660.978334 281.031674 
L 663.1518 285.3171 
L 665.325265 276.746248 
L 667.498731 281.888759 
L 669.672197 273.317908 
L 671.845662 287.459812 
L 674.019128 272.460823 
L 676.192593 295.602121 
L 678.366059 278.460418 
L 680.539525 282.745844 
L 682.71299 285.3171 
L 684.886456 290.888153 
L 687.059922 283.602929 
L 689.233387 272.460823 
L 691.406853 283.602929 
L 693.580318 280.174589 
L 695.753784 279.317504 
L 697.92725 282.745844 
L 700.100715 287.03127 
L 702.274181 279.317504 
L 704.447647 273.317908 
L 706.621112 274.174993 
L 708.794578 280.603131 
L 710.968043 287.888355 
L 713.141509 290.031068 
L 715.314975 291.745238 
L 717.48844 281.031674 
L 719.661906 278.460418 
L 721.835371 287.03127 
L 724.008837 282.745844 
L 726.182303 283.602929 
L 728.355768 285.3171 
L 730.529234 286.174185 
L 732.7027 283.602929 
L 734.876165 286.602727 
L 737.049631 278.460418 
L 739.223096 285.3171 
L 741.396562 287.888355 
L 743.570028 283.174387 
L 745.743493 282.745844 
L 747.916959 283.602929 
L 750.090425 277.603333 
L 752.26389 284.460014 
L 754.437356 281.888759 
L 756.610821 287.888355 
L 758.784287 280.174589 
L 760.957753 287.888355 
L 763.131218 281.888759 
L 765.304684 284.460014 
L 767.47815 268.175397 
L 769.651615 279.317504 
L 771.825081 279.317504 
L 773.998546 277.603333 
L 776.172012 281.031674 
L 778.345478 282.745844 
L 780.518943 290.45961 
L 782.692409 281.888759 
L 784.865874 285.3171 
L 787.03934 283.174387 
L 789.212806 268.175397 
L 791.386271 275.032078 
L 793.559737 285.745642 
L 795.733203 292.602323 
L 797.906668 270.746652 
L 800.080134 291.316696 
L 802.253599 291.316696 
L 804.427065 277.603333 
L 806.600531 275.889163 
L 808.773996 290.45961 
L 810.947462 285.745642 
L 813.120928 293.459408 
L 815.294393 282.745844 
L 817.467859 285.3171 
L 819.641324 278.460418 
L 823.988256 285.3171 
L 826.161721 285.3171 
L 828.335187 278.460418 
L 830.508653 285.3171 
L 832.682118 285.3171 
L 834.855584 281.031674 
L 837.029049 270.746652 
L 839.202515 282.745844 
L 841.375981 284.460014 
L 843.549446 280.174589 
L 845.722912 271.603737 
L 847.896377 277.603333 
L 850.069843 278.460418 
L 852.243309 268.175397 
L 854.416774 279.746046 
L 856.59024 269.032482 
L 858.763706 279.317504 
L 860.937171 282.745844 
L 863.110637 281.031674 
L 865.284102 292.602323 
L 867.457568 280.174589 
L 869.631034 285.3171 
L 871.804499 285.3171 
L 873.977965 285.745642 
L 876.151431 280.174589 
L 878.324896 278.460418 
L 880.498362 282.745844 
L 882.671827 279.317504 
L 884.845293 283.602929 
L 887.018759 283.602929 
L 889.192224 285.745642 
L 891.36569 270.746652 
L 893.539156 287.888355 
L 895.712621 285.3171 
L 897.886087 284.460014 
L 900.059552 282.745844 
L 902.233018 290.031068 
L 904.406484 293.459408 
L 906.579949 284.460014 
L 908.753415 280.174589 
L 910.92688 285.3171 
L 913.100346 280.174589 
L 915.273812 285.3171 
L 917.447277 280.174589 
L 919.620743 283.602929 
L 921.794209 284.031472 
L 923.967674 287.888355 
L 926.14114 284.460014 
L 928.314605 286.602727 
L 930.488071 279.317504 
L 932.661537 287.03127 
L 934.835002 292.602323 
L 937.008468 275.032078 
L 939.181934 279.317504 
L 941.355399 280.174589 
L 943.528865 270.746652 
L 945.70233 275.032078 
L 947.875796 283.174387 
L 950.049262 273.317908 
L 952.222727 284.460014 
L 952.222727 284.460014 
" clip-path="url(#p8802f35b18)" style="fill: none; stroke: #e76f51; stroke-width: 1.5; stroke-linecap: round"/>
   </g>
   <g id="line2d_17">
    <path d="M 95.877273 248.033896 
L 98.050738 250.605152 
L 100.224204 259.604545 
L 102.39767 266.461227 
L 104.571135 246.748268 
L 106.744601 256.176205 
L 108.918066 243.319928 
L 111.091532 253.604949 
L 113.264998 252.747864 
L 115.438463 260.461631 
L 117.611929 266.461227 
L 119.785395 255.31912 
L 121.95886 262.175801 
L 124.132326 257.890375 
L 126.305791 269.032482 
L 128.479257 249.319524 
L 130.652723 253.604949 
L 132.826188 266.461227 
L 134.999654 256.176205 
L 137.17312 262.175801 
L 139.346585 252.747864 
L 141.520051 251.462237 
L 143.693516 256.176205 
L 145.866982 256.176205 
L 148.040448 257.890375 
L 150.213913 233.891991 
L 152.387379 235.606162 
L 154.560844 270.746652 
L 156.73431 260.461631 
L 158.907776 270.746652 
L 161.081241 242.462843 
L 163.254707 257.890375 
L 165.428173 252.747864 
L 167.601638 265.604141 
L 169.775104 251.033694 
L 171.948569 265.604141 
L 174.122035 244.177013 
L 176.295501 251.890779 
L 178.468966 266.461227 
L 180.642432 261.318716 
L 182.815898 255.31912 
L 184.989363 251.033694 
L 187.162829 253.604949 
L 189.336294 238.177417 
L 191.50976 261.318716 
L 193.683226 266.461227 
L 195.856691 264.747056 
L 198.030157 254.462035 
L 200.203623 258.961732 
L 202.377088 267.746854 
L 204.550554 273.103636 
L 206.724019 273.317908 
L 208.897485 279.317504 
L 211.070951 270.746652 
L 213.244416 290.45961 
L 215.417882 293.030866 
L 217.591347 272.03228 
L 219.764813 272.889365 
L 221.938279 281.888759 
L 224.111744 279.317504 
L 226.28521 265.604141 
L 228.458676 280.174589 
L 230.632141 273.317908 
L 232.805607 270.746652 
L 237.152538 281.031674 
L 239.326004 292.173781 
L 241.499469 281.888759 
L 243.672935 260.461631 
L 245.846401 269.032482 
L 248.019866 257.03329 
L 250.193332 276.746248 
L 252.366797 264.747056 
L 254.540263 292.173781 
L 256.713729 270.746652 
L 258.887194 260.461631 
L 261.06066 271.175195 
L 263.234126 266.032684 
L 265.407591 273.74645 
L 267.581057 273.74645 
L 269.754522 292.173781 
L 271.927988 270.746652 
L 274.101454 275.889163 
L 276.274919 270.746652 
L 278.448385 278.031876 
L 280.62185 271.175195 
L 282.795316 270.746652 
L 284.968782 294.316494 
L 287.142247 268.603939 
L 289.315713 276.746248 
L 291.489179 262.175801 
L 293.662644 276.746248 
L 295.83611 259.604545 
L 298.009575 279.317504 
L 300.183041 287.888355 
L 302.356507 275.032078 
L 304.529972 257.03329 
L 306.703438 275.032078 
L 308.876904 269.461025 
L 311.050369 268.603939 
L 313.223835 264.747056 
L 315.3973 287.888355 
L 317.570766 287.888355 
L 319.744232 266.032684 
L 321.917697 281.245945 
L 324.091163 287.459812 
L 326.264629 297.959105 
L 328.438094 281.888759 
L 330.61156 282.745844 
L 332.785025 290.888153 
L 334.958491 283.602929 
L 337.131957 287.03127 
L 339.305422 288.74544 
L 341.478888 288.74544 
L 343.652353 290.031068 
L 345.825819 291.745238 
L 347.999285 283.602929 
L 350.17275 299.030462 
L 352.346216 296.459206 
L 354.519682 283.602929 
L 356.693147 286.174185 
L 358.866613 281.888759 
L 361.040078 283.602929 
L 363.213544 296.459206 
L 365.38701 299.030462 
L 367.560475 283.602929 
L 369.733941 286.174185 
L 374.080872 286.174185 
L 376.254338 292.173781 
L 378.427803 286.174185 
L 380.601269 282.745844 
L 382.774735 288.74544 
L 387.121666 288.74544 
L 389.295132 286.174185 
L 391.468597 296.459206 
L 393.642063 292.173781 
L 395.815528 286.174185 
L 400.16246 286.174185 
L 402.335925 282.745844 
L 404.509391 286.174185 
L 406.682856 296.459206 
L 408.856322 289.602525 
L 411.029788 289.602525 
L 413.203253 290.22584 
L 415.376719 285.706688 
L 417.550185 280.330407 
L 421.897116 276.434569 
L 424.070581 280.486268 
L 426.244047 272.538732 
L 428.417513 270.590834 
L 430.590978 267.785809 
L 432.764444 263.266656 
L 434.93791 264.747056 
L 437.111375 263.604262 
L 439.284841 250.462318 
L 441.458306 243.319928 
L 447.978703 243.319928 
L 450.152169 245.891183 
L 452.325635 250.747985 
L 454.4991 243.605637 
L 456.672566 231.320736 
L 458.846031 235.606162 
L 461.019497 219.321544 
L 463.192963 215.893203 
L 465.366428 227.892395 
L 467.539894 219.321544 
L 469.713359 223.60697 
L 471.886825 231.320736 
L 474.060291 229.820837 
L 476.233756 230.892193 
L 478.407222 228.535209 
L 480.580688 236.463247 
L 482.754153 236.463247 
L 484.927619 238.177417 
L 487.101084 236.463247 
L 489.27455 245.891183 
L 491.448016 243.319928 
L 493.621481 239.891587 
L 495.794947 246.748268 
L 497.968413 236.463247 
L 500.141878 256.176205 
L 502.315344 250.176609 
L 504.488809 230.463651 
L 506.662275 197.03733 
L 508.835741 185.038139 
L 511.009206 261.318716 
L 513.182672 227.892395 
L 515.356138 261.318716 
L 517.529603 248.462439 
L 519.703069 246.748268 
L 521.876534 244.177013 
L 524.05 234.749076 
L 526.223466 249.319524 
L 528.396931 223.60697 
L 530.570397 238.177417 
L 532.743862 241.605758 
L 534.917328 241.605758 
L 537.090794 242.462843 
L 539.264259 252.747864 
L 541.437725 238.177417 
L 543.611191 232.177821 
L 545.784656 248.462439 
L 547.958122 240.748672 
L 550.131587 249.319524 
L 552.305053 260.461631 
L 554.478519 241.605758 
L 556.651984 251.890779 
L 558.82545 232.177821 
L 560.998916 246.748268 
L 563.172381 247.605354 
L 565.345847 256.176205 
L 567.519312 251.890779 
L 569.692778 240.748672 
L 571.866244 249.319524 
L 574.039709 236.463247 
L 576.213175 257.03329 
L 578.386641 260.461631 
L 580.560106 261.318716 
L 582.733572 264.747056 
L 584.907037 275.032078 
L 587.080503 240.748672 
L 589.253969 249.319524 
L 591.427434 245.034098 
L 593.6009 264.747056 
L 595.774365 263.032886 
L 597.947831 248.462439 
L 600.121297 265.604141 
L 602.294762 256.176205 
L 604.468228 267.889687 
L 606.641694 288.174064 
L 608.815159 296.459206 
L 610.988625 298.173377 
L 613.16209 300.744632 
L 615.335556 310.172569 
L 617.509022 300.744632 
L 619.682487 299.397766 
L 621.855953 292.908431 
L 624.029419 294.13282 
L 626.202884 290.214741 
L 628.37635 276.868683 
L 630.549815 271.236434 
L 632.723281 271.603737 
L 634.896747 276.460539 
L 637.070212 266.746936 
L 639.243678 259.604545 
L 641.417144 245.462641 
L 643.590609 254.462035 
L 645.764075 254.462035 
L 647.93754 251.890779 
L 650.111006 256.176205 
L 652.284472 253.604949 
L 654.457937 257.890375 
L 656.631403 254.462035 
L 658.804868 250.176609 
L 660.978334 256.176205 
L 663.1518 251.890779 
L 665.325265 260.461631 
L 667.498731 255.31912 
L 669.672197 263.889971 
L 671.845662 249.748066 
L 674.019128 264.747056 
L 676.192593 241.605758 
L 678.366059 258.74746 
L 680.539525 254.462035 
L 682.71299 251.890779 
L 684.886456 246.319726 
L 687.059922 253.604949 
L 689.233387 264.747056 
L 691.406853 253.604949 
L 693.580318 257.03329 
L 695.753784 257.890375 
L 697.92725 254.462035 
L 700.100715 250.176609 
L 702.274181 257.890375 
L 704.447647 263.889971 
L 706.621112 263.032886 
L 708.794578 256.604747 
L 710.968043 249.319524 
L 713.141509 247.176811 
L 715.314975 245.462641 
L 717.48844 256.176205 
L 719.661906 258.74746 
L 721.835371 250.176609 
L 724.008837 254.462035 
L 726.182303 253.604949 
L 728.355768 251.890779 
L 730.529234 251.033694 
L 732.7027 253.604949 
L 734.876165 250.605152 
L 737.049631 258.74746 
L 739.223096 251.890779 
L 741.396562 249.319524 
L 743.570028 254.033492 
L 745.743493 254.462035 
L 747.916959 253.604949 
L 750.090425 259.604545 
L 752.26389 252.747864 
L 754.437356 255.31912 
L 756.610821 249.319524 
L 758.784287 257.03329 
L 760.957753 249.319524 
L 763.131218 252.258083 
L 765.304684 246.625834 
L 767.47815 259.849415 
L 769.651615 245.646314 
L 771.825081 242.585277 
L 773.998546 241.238454 
L 776.172012 234.749076 
L 778.345478 234.259295 
L 780.518943 227.769961 
L 782.692409 237.565201 
L 784.865874 235.361292 
L 787.03934 238.728394 
L 789.212806 254.951816 
L 791.386271 249.319524 
L 793.559737 239.524283 
L 795.733203 233.585883 
L 797.906668 256.359878 
L 800.080134 236.708116 
L 802.253599 237.62644 
L 804.427065 252.258083 
L 806.600531 254.890577 
L 808.773996 241.238454 
L 810.947462 246.870703 
L 813.120928 240.075261 
L 815.294393 251.707106 
L 817.467859 250.054174 
L 819.641324 257.829136 
L 821.81479 255.31912 
L 823.988256 251.890779 
L 826.161721 251.890779 
L 828.335187 258.74746 
L 830.508653 251.890779 
L 832.682118 248.829743 
L 834.855584 250.054174 
L 837.029049 257.278159 
L 839.202515 242.217973 
L 841.375981 237.442767 
L 843.549446 238.667198 
L 845.722912 244.177013 
L 847.896377 245.319807 
L 850.069843 251.60507 
L 852.243309 269.032482 
L 854.416774 246.748268 
L 856.59024 246.748268 
L 858.763706 225.749683 
L 860.937171 211.607778 
L 863.110637 210.260911 
L 865.284102 195.629268 
L 867.457568 204.995966 
L 869.631034 196.792461 
L 871.804499 193.731425 
L 873.977965 190.241888 
L 876.151431 192.751905 
L 878.324896 201.608465 
L 880.498362 204.465387 
L 882.671827 215.036118 
L 884.845293 207.689656 
L 887.018759 204.628662 
L 889.192224 199.424913 
L 891.36569 211.362909 
L 893.539156 191.160169 
L 895.712621 190.670431 
L 897.886087 188.466479 
L 900.059552 190.180649 
L 902.233018 182.895426 
L 904.406484 179.467085 
L 906.579949 188.466479 
L 908.753415 192.751905 
L 910.92688 187.609394 
L 913.100346 192.751905 
L 915.273812 187.609394 
L 917.447277 192.751905 
L 919.620743 189.323564 
L 921.794209 188.895022 
L 923.967674 185.038139 
L 926.14114 188.466479 
L 928.314605 186.323766 
L 930.488071 188.252208 
L 932.661537 175.181659 
L 934.835002 164.253824 
L 937.008468 176.467287 
L 939.181934 178.303892 
L 941.355399 183.568837 
L 943.528865 199.118805 
L 945.70233 200.955452 
L 947.875796 198.935174 
L 950.049262 214.913684 
L 952.222727 209.893608 
L 952.222727 209.893608 
" clip-path="url(#p8802f35b18)" style="fill: none; stroke: #2c3e50; stroke-width: 2; stroke-linecap: round"/>
   </g>
   <g id="patch_3">
    <path d="M 53.06 327.1 
L 53.06 30.12 
" style="fill: none; stroke: #cccccc; stroke-width: 1.25; stroke-linejoin: miter; stroke-linecap: square"/>
   </g>
   <g id="patch_4">
    <path d="M 995.04 327.1 
L 995.04 30.12 
" style="fill: none; stroke: #cccccc; stroke-width: 1.25; stroke-linejoin: miter; stroke-linecap: square"/>
   </g>
   <g id="patch_5">
    <path d="M 53.06 327.1 
L 995.04 327.1 
" style="fill: none; stroke: #cccccc; stroke-width: 1.25; stroke-linejoin: miter; stroke-linecap: square"/>
   </g>
   <g id="patch_6">
    <path d="M 53.06 30.12 
L 995.04 30.12 
" style="fill: none; stroke: #cccccc; stroke-width: 1.25; stroke-linejoin: miter; stroke-linecap: square"/>
   </g>
   <g id="text_15">
    <!-- BƯỞI — Retail + Wholesale + Spread (ONE AXIS) -->
    <g style="fill: #262626" transform="translate(388.728437 24.12) scale(0.12 -0.12)">
     <defs>
      <path id="ArialMT-42" d="M 469 0 
L 469 4581 
L 2188 4581 
Q 2713 4581 3030 4442 
Q 3347 4303 3526 4014 
Q 3706 3725 3706 3409 
Q 3706 3116 3547 2856 
Q 3388 2597 3066 2438 
Q 3481 2316 3704 2022 
Q 3928 1728 3928 1328 
Q 3928 1006 3792 729 
Q 3656 453 3456 303 
Q 3256 153 2954 76 
Q 2653 0 2216 0 
L 469 0 
z
M 1075 2656 
L 2066 2656 
Q 2469 2656 2644 2709 
Q 2875 2778 2992 2937 
Q 3109 3097 3109 3338 
Q 3109 3566 3000 3739 
Q 2891 3913 2687 3977 
Q 2484 4041 1991 4041 
L 1075 4041 
L 1075 2656 
z
M 1075 541 
L 2216 541 
Q 2509 541 2628 563 
Q 2838 600 2978 687 
Q 3119 775 3209 942 
Q 3300 1109 3300 1328 
Q 3300 1584 3169 1773 
Q 3038 1963 2805 2039 
Q 2572 2116 2134 2116 
L 1075 2116 
L 1075 541 
z
" transform="scale(0.015625)"/>
      <path id="ArialMT-1af" d="M 4603 3928 
L 4603 4581 
L 5206 4581 
L 5206 4066 
Q 5206 3575 5094 3381 
Q 4784 2841 4106 2809 
L 4106 1934 
Q 4106 1231 3950 838 
Q 3788 428 3388 178 
Q 2978 -78 2316 -78 
Q 1038 -78 678 788 
Q 503 1206 503 1934 
L 503 4581 
L 1109 4581 
L 1109 1938 
Q 1109 1347 1222 1056 
Q 1328 778 1600 623 
Q 1872 469 2263 469 
Q 2947 469 3216 772 
Q 3500 1091 3500 1938 
L 3500 4581 
L 4106 4581 
L 4106 3041 
Q 4594 3091 4813 3428 
Q 4897 3559 4897 3928 
L 4603 3928 
z
" transform="scale(0.015625)"/>
      <path id="ArialMT-1ede" d="M 934 2222 
Q 934 1409 1381 916 
Q 1813 441 2497 441 
Q 3197 441 3625 922 
Q 4066 1422 4066 2288 
Q 4066 3444 3325 3913 
Q 2959 4141 2506 4141 
Q 1809 4141 1400 3700 
Q 934 3200 934 2222 
z
M 4734 3978 
L 4734 4631 
L 5338 4631 
L 5338 4116 
Q 5338 3728 5219 3522 
Q 5056 3238 4609 3000 
Q 4691 2663 4691 2284 
Q 4691 1584 4408 1036 
Q 4125 488 3611 205 
Q 3097 -78 2500 -78 
Q 1856 -78 1345 233 
Q 834 544 571 1086 
Q 309 1628 309 2231 
Q 309 3356 922 4019 
Q 1519 4663 2503 4663 
Q 3213 4663 3761 4277 
Q 4309 3891 4538 3241 
Q 4822 3394 4938 3569 
Q 5031 3709 5028 3978 
L 4734 3978 
z
M 2339 5139 
Q 2517 5158 2567 5173 
Q 2732 5214 2735 5302 
Q 2739 5373 2648 5423 
Q 2517 5495 2232 5495 
Q 2135 5495 1939 5483 
L 1904 5777 
Q 2026 5802 2354 5798 
Q 2739 5795 2982 5673 
Q 3251 5542 3257 5333 
Q 3270 5017 2689 4945 
L 2689 4789 
L 2339 4789 
L 2339 5139 
z
" transform="scale(0.015625)"/>
      <path id="ArialMT-49" d="M 597 0 
L 597 4581 
L 1203 4581 
L 1203 0 
L 597 0 
z
" transform="scale(0.015625)"/>
      <path id="ArialMT-20" transform="scale(0.015625)"/>
      <path id="ArialMT-2014" d="M 0 1431 
L 0 1884 
L 6400 1884 
L 6400 1431 
L 0 1431 
z
" transform="scale(0.015625)"/>
      <path id="ArialMT-52" d="M 503 0 
L 503 4581 
L 2534 4581 
Q 3147 4581 3465 4457 
Q 3784 4334 3975 4021 
Q 4166 3709 4166 3331 
Q 4166 2844 3850 2509 
Q 3534 2175 2875 2084 
Q 3116 1969 3241 1856 
Q 3506 1613 3744 1247 
L 4541 0 
L 3778 0 
L 3172 953 
Q 2906 1366 2734 1584 
Q 2563 1803 2427 1890 
Q 2291 1978 2150 2013 
Q 2047 2034 1813 2034 
L 1109 2034 
L 1109 0 
L 503 0 
z
M 1109 2559 
L 2413 2559 
Q 2828 2559 3062 2645 
Q 3297 2731 3419 2920 
Q 3541 3109 3541 3331 
Q 3541 3656 3305 3865 
Q 3069 4075 2559 4075 
L 1109 4075 
L 1109 2559 
z
" transform="scale(0.015625)"/>
      <path id="ArialMT-65" d="M 2694 1069 
L 3275 997 
Q 3138 488 2766 206 
Q 2394 -75 1816 -75 
Q 1088 -75 661 373 
Q 234 822 234 1631 
Q 234 2469 665 2931 
Q 1097 3394 1784 3394 
Q 2450 3394 2872 2941 
Q 3294 2488 3294 1666 
Q 3294 1616 3291 1516 
L 816 1516 
Q 847 969 1125 678 
Q 1403 388 1819 388 
Q 2128 388 2347 550 
Q 2566 713 2694 1069 
z
M 847 1978 
L 2700 1978 
Q 2663 2397 2488 2606 
Q 2219 2931 1791 2931 
Q 1403 2931 1139 2672 
Q 875 2413 847 1978 
z
" transform="scale(0.015625)"/>
      <path id="ArialMT-74" d="M 1650 503 
L 1731 6 
Q 1494 -44 1306 -44 
Q 1000 -44 831 53 
Q 663 150 594 308 
Q 525 466 525 972 
L 525 2881 
L 113 2881 
L 113 3319 
L 525 3319 
L 525 4141 
L 1084 4478 
L 1084 3319 
L 1650 3319 
L 1650 2881 
L 1084 2881 
L 1084 941 
Q 1084 700 1114 631 
Q 1144 563 1211 522 
Q 1278 481 1403 481 
Q 1497 481 1650 503 
z
" transform="scale(0.015625)"/>
      <path id="ArialMT-61" d="M 2588 409 
Q 2275 144 1986 34 
Q 1697 -75 1366 -75 
Q 819 -75 525 192 
Q 231 459 231 875 
Q 231 1119 342 1320 
Q 453 1522 633 1644 
Q 813 1766 1038 1828 
Q 1203 1872 1538 1913 
Q 2219 1994 2541 2106 
Q 2544 2222 2544 2253 
Q 2544 2597 2384 2738 
Q 2169 2928 1744 2928 
Q 1347 2928 1158 2789 
Q 969 2650 878 2297 
L 328 2372 
Q 403 2725 575 2942 
Q 747 3159 1072 3276 
Q 1397 3394 1825 3394 
Q 2250 3394 2515 3294 
Q 2781 3194 2906 3042 
Q 3031 2891 3081 2659 
Q 3109 2516 3109 2141 
L 3109 1391 
Q 3109 606 3145 398 
Q 3181 191 3288 0 
L 2700 0 
Q 2613 175 2588 409 
z
M 2541 1666 
Q 2234 1541 1622 1453 
Q 1275 1403 1131 1340 
Q 988 1278 909 1158 
Q 831 1038 831 891 
Q 831 666 1001 516 
Q 1172 366 1500 366 
Q 1825 366 2078 508 
Q 2331 650 2450 897 
Q 2541 1088 2541 1459 
L 2541 1666 
z
" transform="scale(0.015625)"/>
      <path id="ArialMT-69" d="M 425 3934 
L 425 4581 
L 988 4581 
L 988 3934 
L 425 3934 
z
M 425 0 
L 425 3319 
L 988 3319 
L 988 0 
L 425 0 
z
" transform="scale(0.015625)"/>
      <path id="ArialMT-6c" d="M 409 0 
L 409 4581 
L 972 4581 
L 972 0 
L 409 0 
z
" transform="scale(0.015625)"/>
      <path id="ArialMT-2b" d="M 1603 741 
L 1603 1997 
L 356 1997 
L 356 2522 
L 1603 2522 
L 1603 3769 
L 2134 3769 
L 2134 2522 
L 3381 2522 
L 3381 1997 
L 2134 1997 
L 2134 741 
L 1603 741 
z
" transform="scale(0.015625)"/>
      <path id="ArialMT-57" d="M 1294 0 
L 78 4581 
L 700 4581 
L 1397 1578 
Q 1509 1106 1591 641 
Q 1766 1375 1797 1488 
L 2669 4581 
L 3400 4581 
L 4056 2263 
Q 4303 1400 4413 641 
Q 4500 1075 4641 1638 
L 5359 4581 
L 5969 4581 
L 4713 0 
L 4128 0 
L 3163 3491 
Q 3041 3928 3019 4028 
Q 2947 3713 2884 3491 
L 1913 0 
L 1294 0 
z
" transform="scale(0.015625)"/>
      <path id="ArialMT-68" d="M 422 0 
L 422 4581 
L 984 4581 
L 984 2938 
Q 1378 3394 1978 3394 
Q 2347 3394 2619 3248 
Q 2891 3103 3008 2847 
Q 3125 2591 3125 2103 
L 3125 0 
L 2563 0 
L 2563 2103 
Q 2563 2525 2380 2717 
Q 2197 2909 1863 2909 
Q 1613 2909 1392 2779 
Q 1172 2650 1078 2428 
Q 984 2206 984 1816 
L 984 0 
L 422 0 
z
" transform="scale(0.015625)"/>
      <path id="ArialMT-6f" d="M 213 1659 
Q 213 2581 725 3025 
Q 1153 3394 1769 3394 
Q 2453 3394 2887 2945 
Q 3322 2497 3322 1706 
Q 3322 1066 3130 698 
Q 2938 331 2570 128 
Q 2203 -75 1769 -75 
Q 1072 -75 642 372 
Q 213 819 213 1659 
z
M 791 1659 
Q 791 1022 1069 705 
Q 1347 388 1769 388 
Q 2188 388 2466 706 
Q 2744 1025 2744 1678 
Q 2744 2294 2464 2611 
Q 2184 2928 1769 2928 
Q 1347 2928 1069 2612 
Q 791 2297 791 1659 
z
" transform="scale(0.015625)"/>
      <path id="ArialMT-73" d="M 197 991 
L 753 1078 
Q 800 744 1014 566 
Q 1228 388 1613 388 
Q 2000 388 2187 545 
Q 2375 703 2375 916 
Q 2375 1106 2209 1216 
Q 2094 1291 1634 1406 
Q 1016 1563 777 1677 
Q 538 1791 414 1992 
Q 291 2194 291 2438 
Q 291 2659 392 2848 
Q 494 3038 669 3163 
Q 800 3259 1026 3326 
Q 1253 3394 1513 3394 
Q 1903 3394 2198 3281 
Q 2494 3169 2634 2976 
Q 2775 2784 2828 2463 
L 2278 2388 
Q 2241 2644 2061 2787 
Q 1881 2931 1553 2931 
Q 1166 2931 1000 2803 
Q 834 2675 834 2503 
Q 834 2394 903 2306 
Q 972 2216 1119 2156 
Q 1203 2125 1616 2013 
Q 2213 1853 2448 1751 
Q 2684 1650 2818 1456 
Q 2953 1263 2953 975 
Q 2953 694 2789 445 
Q 2625 197 2315 61 
Q 2006 -75 1616 -75 
Q 969 -75 630 194 
Q 291 463 197 991 
z
" transform="scale(0.015625)"/>
      <path id="ArialMT-53" d="M 288 1472 
L 859 1522 
Q 900 1178 1048 958 
Q 1197 738 1509 602 
Q 1822 466 2213 466 
Q 2559 466 2825 569 
Q 3091 672 3220 851 
Q 3350 1031 3350 1244 
Q 3350 1459 3225 1620 
Q 3100 1781 2813 1891 
Q 2628 1963 1997 2114 
Q 1366 2266 1113 2400 
Q 784 2572 623 2826 
Q 463 3081 463 3397 
Q 463 3744 659 4045 
Q 856 4347 1234 4503 
Q 1613 4659 2075 4659 
Q 2584 4659 2973 4495 
Q 3363 4331 3572 4012 
Q 3781 3694 3797 3291 
L 3216 3247 
Q 3169 3681 2898 3903 
Q 2628 4125 2100 4125 
Q 1550 4125 1298 3923 
Q 1047 3722 1047 3438 
Q 1047 3191 1225 3031 
Q 1400 2872 2139 2705 
Q 2878 2538 3153 2413 
Q 3553 2228 3743 1945 
Q 3934 1663 3934 1294 
Q 3934 928 3725 604 
Q 3516 281 3123 101 
Q 2731 -78 2241 -78 
Q 1619 -78 1198 103 
Q 778 284 539 648 
Q 300 1013 288 1472 
z
" transform="scale(0.015625)"/>
      <path id="ArialMT-70" d="M 422 -1272 
L 422 3319 
L 934 3319 
L 934 2888 
Q 1116 3141 1344 3267 
Q 1572 3394 1897 3394 
Q 2322 3394 2647 3175 
Q 2972 2956 3137 2557 
Q 3303 2159 3303 1684 
Q 3303 1175 3120 767 
Q 2938 359 2589 142 
Q 2241 -75 1856 -75 
Q 1575 -75 1351 44 
Q 1128 163 984 344 
L 984 -1272 
L 422 -1272 
z
M 931 1641 
Q 931 1000 1190 694 
Q 1450 388 1819 388 
Q 2194 388 2461 705 
Q 2728 1022 2728 1688 
Q 2728 2322 2467 2637 
Q 2206 2953 1844 2953 
Q 1484 2953 1207 2617 
Q 931 2281 931 1641 
z
" transform="scale(0.015625)"/>
      <path id="ArialMT-72" d="M 416 0 
L 416 3319 
L 922 3319 
L 922 2816 
Q 1116 3169 1280 3281 
Q 1444 3394 1641 3394 
Q 1925 3394 2219 3213 
L 2025 2691 
Q 1819 2813 1613 2813 
Q 1428 2813 1281 2702 
Q 1134 2591 1072 2394 
Q 978 2094 978 1738 
L 978 0 
L 416 0 
z
" transform="scale(0.015625)"/>
      <path id="ArialMT-64" d="M 2575 0 
L 2575 419 
Q 2259 -75 1647 -75 
Q 1250 -75 917 144 
Q 584 363 401 755 
Q 219 1147 219 1656 
Q 219 2153 384 2558 
Q 550 2963 881 3178 
Q 1213 3394 1622 3394 
Q 1922 3394 2156 3267 
Q 2391 3141 2538 2938 
L 2538 4581 
L 3097 4581 
L 3097 0 
L 2575 0 
z
M 797 1656 
Q 797 1019 1065 703 
Q 1334 388 1700 388 
Q 2069 388 2326 689 
Q 2584 991 2584 1609 
Q 2584 2291 2321 2609 
Q 2059 2928 1675 2928 
Q 1300 2928 1048 2622 
Q 797 2316 797 1656 
z
" transform="scale(0.015625)"/>
      <path id="ArialMT-28" d="M 1497 -1347 
Q 1031 -759 709 28 
Q 388 816 388 1659 
Q 388 2403 628 3084 
Q 909 3875 1497 4659 
L 1900 4659 
Q 1522 4009 1400 3731 
Q 1209 3300 1100 2831 
Q 966 2247 966 1656 
Q 966 153 1900 -1347 
L 1497 -1347 
z
" transform="scale(0.015625)"/>
      <path id="ArialMT-4f" d="M 309 2231 
Q 309 3372 921 4017 
Q 1534 4663 2503 4663 
Q 3138 4663 3647 4359 
Q 4156 4056 4423 3514 
Q 4691 2972 4691 2284 
Q 4691 1588 4409 1038 
Q 4128 488 3612 205 
Q 3097 -78 2500 -78 
Q 1853 -78 1343 234 
Q 834 547 571 1087 
Q 309 1628 309 2231 
z
M 934 2222 
Q 934 1394 1379 917 
Q 1825 441 2497 441 
Q 3181 441 3623 922 
Q 4066 1403 4066 2288 
Q 4066 2847 3877 3264 
Q 3688 3681 3323 3911 
Q 2959 4141 2506 4141 
Q 1863 4141 1398 3698 
Q 934 3256 934 2222 
z
" transform="scale(0.015625)"/>
      <path id="ArialMT-4e" d="M 488 0 
L 488 4581 
L 1109 4581 
L 3516 984 
L 3516 4581 
L 4097 4581 
L 4097 0 
L 3475 0 
L 1069 3600 
L 1069 0 
L 488 0 
z
" transform="scale(0.015625)"/>
      <path id="ArialMT-45" d="M 506 0 
L 506 4581 
L 3819 4581 
L 3819 4041 
L 1113 4041 
L 1113 2638 
L 3647 2638 
L 3647 2100 
L 1113 2100 
L 1113 541 
L 3925 541 
L 3925 0 
L 506 0 
z
" transform="scale(0.015625)"/>
      <path id="ArialMT-41" d="M -9 0 
L 1750 4581 
L 2403 4581 
L 4278 0 
L 3588 0 
L 3053 1388 
L 1138 1388 
L 634 0 
L -9 0 
z
M 1313 1881 
L 2866 1881 
L 2388 3150 
Q 2169 3728 2063 4100 
Q 1975 3659 1816 3225 
L 1313 1881 
z
" transform="scale(0.015625)"/>
      <path id="ArialMT-58" d="M 28 0 
L 1800 2388 
L 238 4581 
L 959 4581 
L 1791 3406 
Q 2050 3041 2159 2844 
Q 2313 3094 2522 3366 
L 3444 4581 
L 4103 4581 
L 2494 2422 
L 4228 0 
L 3478 0 
L 2325 1634 
Q 2228 1775 2125 1941 
Q 1972 1691 1906 1597 
L 756 0 
L 28 0 
z
" transform="scale(0.015625)"/>
      <path id="ArialMT-29" d="M 791 -1347 
L 388 -1347 
Q 1322 153 1322 1656 
Q 1322 2244 1188 2822 
Q 1081 3291 891 3722 
Q 769 4003 388 4659 
L 791 4659 
Q 1378 3875 1659 3084 
Q 1900 2403 1900 1659 
Q 1900 816 1576 28 
Q 1253 -759 791 -1347 
z
" transform="scale(0.015625)"/>
     </defs>
     <use xlink:href="#ArialMT-42"/>
     <use xlink:href="#ArialMT-1af" transform="translate(66.699219 0)"/>
     <use xlink:href="#ArialMT-1ede" transform="translate(152.099609 0)"/>
     <use xlink:href="#ArialMT-49" transform="translate(237.841797 0)"/>
     <use xlink:href="#ArialMT-20" transform="translate(265.625 0)"/>
     <use xlink:href="#ArialMT-2014" transform="translate(293.408203 0)"/>
     <use xlink:href="#ArialMT-20" transform="translate(393.408203 0)"/>
     <use xlink:href="#ArialMT-52" transform="translate(421.191406 0)"/>
     <use xlink:href="#ArialMT-65" transform="translate(493.408203 0)"/>
     <use xlink:href="#ArialMT-74" transform="translate(549.023438 0)"/>
     <use xlink:href="#ArialMT-61" transform="translate(576.806641 0)"/>
     <use xlink:href="#ArialMT-69" transform="translate(632.421875 0)"/>
     <use xlink:href="#ArialMT-6c" transform="translate(654.638672 0)"/>
     <use xlink:href="#ArialMT-20" transform="translate(676.855469 0)"/>
     <use xlink:href="#ArialMT-2b" transform="translate(704.638672 0)"/>
     <use xlink:href="#ArialMT-20" transform="translate(763.037109 0)"/>
     <use xlink:href="#ArialMT-57" transform="translate(790.820312 0)"/>
     <use xlink:href="#ArialMT-68" transform="translate(885.205078 0)"/>
     <use xlink:href="#ArialMT-6f" transform="translate(940.820312 0)"/>
     <use xlink:href="#ArialMT-6c" transform="translate(996.435547 0)"/>
     <use xlink:href="#ArialMT-65" transform="translate(1018.652344 0)"/>
     <use xlink:href="#ArialMT-73" transform="translate(1074.267578 0)"/>
     <use xlink:href="#ArialMT-61" transform="translate(1124.267578 0)"/>
     <use xlink:href="#ArialMT-6c" transform="translate(1179.882812 0)"/>
     <use xlink:href="#ArialMT-65" transform="translate(1202.099609 0)"/>
     <use xlink:href="#ArialMT-20" transform="translate(1257.714844 0)"/>
     <use xlink:href="#ArialMT-2b" transform="translate(1285.498047 0)"/>
     <use xlink:href="#ArialMT-20" transform="translate(1343.896484 0)"/>
     <use xlink:href="#ArialMT-53" transform="translate(1371.679688 0)"/>
     <use xlink:href="#ArialMT-70" transform="translate(1438.378906 0)"/>
     <use xlink:href="#ArialMT-72" transform="translate(1493.994141 0)"/>
     <use xlink:href="#ArialMT-65" transform="translate(1527.294922 0)"/>
     <use xlink:href="#ArialMT-61" transform="translate(1582.910156 0)"/>
     <use xlink:href="#ArialMT-64" transform="translate(1638.525391 0)"/>
     <use xlink:href="#ArialMT-20" transform="translate(1694.140625 0)"/>
     <use xlink:href="#ArialMT-28" transform="translate(1721.923828 0)"/>
     <use xlink:href="#ArialMT-4f" transform="translate(1755.224609 0)"/>
     <use xlink:href="#ArialMT-4e" transform="translate(1833.007812 0)"/>
     <use xlink:href="#ArialMT-45" transform="translate(1905.224609 0)"/>
     <use xlink:href="#ArialMT-20" transform="translate(1971.923828 0)"/>
     <use xlink:href="#ArialMT-41" transform="translate(1994.207031 0)"/>
     <use xlink:href="#ArialMT-58" transform="translate(2060.90625 0)"/>
     <use xlink:href="#ArialMT-49" transform="translate(2127.605469 0)"/>
     <use xlink:href="#ArialMT-53" transform="translate(2155.388672 0)"/>
     <use xlink:href="#ArialMT-29" transform="translate(2222.087891 0)"/>
    </g>
   </g>
   <g id="legend_1">
    <g id="patch_7">
     <path d="M 60.76 85.8625 
L 149.157031 85.8625 
Q 151.357031 85.8625 151.357031 83.6625 
L 151.357031 37.82 
Q 151.357031 35.62 149.157031 35.62 
L 60.76 35.62 
Q 58.56 35.62 58.56 37.82 
L 58.56 83.6625 
Q 58.56 85.8625 60.76 85.8625 
z
" style="fill: #ffffff; opacity: 0.8; stroke: #cccccc; stroke-linejoin: miter"/>
    </g>
    <g id="line2d_18">
     <path d="M 62.96 44.043594 
L 73.96 44.043594 
L 84.96 44.043594 
" style="fill: none; stroke: #2a9d8f; stroke-width: 1.5; stroke-linecap: round"/>
    </g>
    <g id="text_16">
     <!-- Retail -->
     <g style="fill: #262626" transform="translate(93.76 47.893594) scale(0.11 -0.11)">
      <use xlink:href="#ArialMT-52"/>
      <use xlink:href="#ArialMT-65" transform="translate(72.216797 0)"/>
      <use xlink:href="#ArialMT-74" transform="translate(127.832031 0)"/>
      <use xlink:href="#ArialMT-61" transform="translate(155.615234 0)"/>
      <use xlink:href="#ArialMT-69" transform="translate(211.230469 0)"/>
      <use xlink:href="#ArialMT-6c" transform="translate(233.447266 0)"/>
     </g>
    </g>
    <g id="line2d_19">
     <path d="M 62.96 59.603438 
L 73.96 59.603438 
L 84.96 59.603438 
" style="fill: none; stroke: #e76f51; stroke-width: 1.5; stroke-linecap: round"/>
    </g>
    <g id="text_17">
     <!-- Wholesale -->
     <g style="fill: #262626" transform="translate(93.76 63.453438) scale(0.11 -0.11)">
      <use xlink:href="#ArialMT-57"/>
      <use xlink:href="#ArialMT-68" transform="translate(94.384766 0)"/>
      <use xlink:href="#ArialMT-6f" transform="translate(150 0)"/>
      <use xlink:href="#ArialMT-6c" transform="translate(205.615234 0)"/>
      <use xlink:href="#ArialMT-65" transform="translate(227.832031 0)"/>
      <use xlink:href="#ArialMT-73" transform="translate(283.447266 0)"/>
      <use xlink:href="#ArialMT-61" transform="translate(333.447266 0)"/>
      <use xlink:href="#ArialMT-6c" transform="translate(389.0625 0)"/>
      <use xlink:href="#ArialMT-65" transform="translate(411.279297 0)"/>
     </g>
    </g>
    <g id="line2d_20">
     <path d="M 62.96 75.297344 
L 73.96 75.297344 
L 84.96 75.297344 
" style="fill: none; stroke: #2c3e50; stroke-width: 2; stroke-linecap: round"/>
    </g>
    <g id="text_18">
     <!-- Spread (Δ) -->
     <g style="fill: #262626" transform="translate(93.76 79.147344) scale(0.11 -0.11)">
      <defs>
       <path id="ArialMT-394" d="M -6 0 
L 1753 4581 
L 2406 4581 
L 4281 0 
L -6 0 
z
M 834 541 
L 3381 541 
L 2391 3150 
Q 2169 3738 2066 4100 
Q 1981 3675 1819 3225 
L 834 541 
z
" transform="scale(0.015625)"/>
      </defs>
      <use xlink:href="#ArialMT-53"/>
      <use xlink:href="#ArialMT-70" transform="translate(66.699219 0)"/>
      <use xlink:href="#ArialMT-72" transform="translate(122.314453 0)"/>
      <use xlink:href="#ArialMT-65" transform="translate(155.615234 0)"/>
      <use xlink:href="#ArialMT-61" transform="translate(211.230469 0)"/>
      <use xlink:href="#ArialMT-64" transform="translate(266.845703 0)"/>
      <use xlink:href="#ArialMT-20" transform="translate(322.460938 0)"/>
      <use xlink:href="#ArialMT-28" transform="translate(350.244141 0)"/>
      <use xlink:href="#ArialMT-394" transform="translate(383.544922 0)"/>
      <use xlink:href="#ArialMT-29" transform="translate(450.341797 0)"/>
     </g>
    </g>
   </g>
  </g>
 </g>
 <defs>
  <clipPath id="p8802f35b18">
   <rect x="53.06" y="30.12" width="941.98" height="296.98"/>
  </clipPath>
 </defs>
</svg>
