<?xml version="1.0" encoding="utf-8" standalone="no"?>
<!DOCTYPE svg PUBLIC "-//W3C//DTD SVG 1.1//EN"
  "http://www.w3.org/Graphics/SVG/1.1/DTD/svg11.dtd">
<svg xmlns:xlink="http://www.w3.org/1999/xlink" width="1008pt" height="360pt" viewBox="0 0 1008 360" xmlns="http://www.w3.org/2000/svg" version="1.1">
 <metadata>
  <rdf:RDF xmlns:dc="http://purl.org/dc/elements/1.1/" xmlns:cc="http://creativecommons.org/ns#" xmlns:rdf="http://www.w3.org/1999/02/22-rdf-syntax-ns#">
   <cc:Work>
    <dc:type rdf:resource="http://purl.org/dc/dcmitype/StillImage"/>
    <dc:date>2025-12-12T00:30:21.628210</dc:date>
    <dc:format>image/svg+xml</dc:format>
    <dc:creator>
     <cc:Agent>
      <dc:title>Matplotlib v3.10.7, https://matplotlib.org/</dc:title>
     </cc:Agent>
    </dc:creator>
   </cc:Work>
  </rdf:RDF>
 </metadata>
 <defs>
  <style type="text/css">*{stroke-linejoin: round; stroke-linecap: butt}</style>
 </defs>
 <g id="figure_1">
  <g id="patch_1">
   <path d="M 0 360 
L 1008 360 
L 1008 0 
L 0 0 
z
" style="fill: #ffffff"/>
  </g>
  <g id="axes_1">
   <g id="patch_2">
    <path d="M 53.06 327.1 
L 995.04 327.1 
L 995.04 30.12 
L 53.06 30.12 
z
" style="fill: #ffffff"/>
   </g>
   <g id="matplotlib.axis_1">
    <g id="xtick_1">
     <g id="line2d_1">
      <path d="M 95.877273 327.1 
L 95.877273 30.12 
" clip-path="url(#p33d32ed29b)" style="fill: none; stroke: #cccccc; stroke-linecap: round"/>
     </g>
     <g id="text_1">
      <!-- 2024-09 -->
      <g style="fill: #262626" transform="translate(75.694851 344.473594) scale(0.11 -0.11)">
       <defs>
        <path id="ArialMT-32" d="M 3222 541 
L 3222 0 
L 194 0 
Q 188 203 259 391 
Q 375 700 629 1000 
Q 884 1300 1366 1694 
Q 2113 2306 2375 2664 
Q 2638 3022 2638 3341 
Q 2638 3675 2398 3904 
Q 2159 4134 1775 4134 
Q 1369 4134 1125 3890 
Q 881 3647 878 3216 
L 300 3275 
Q 359 3922 746 4261 
Q 1134 4600 1788 4600 
Q 2447 4600 2831 4234 
Q 3216 3869 3216 3328 
Q 3216 3053 3103 2787 
Q 2991 2522 2730 2228 
Q 2469 1934 1863 1422 
Q 1356 997 1212 845 
Q 1069 694 975 541 
L 3222 541 
z
" transform="scale(0.015625)"/>
        <path id="ArialMT-30" d="M 266 2259 
Q 266 3072 433 3567 
Q 600 4063 929 4331 
Q 1259 4600 1759 4600 
Q 2128 4600 2406 4451 
Q 2684 4303 2865 4023 
Q 3047 3744 3150 3342 
Q 3253 2941 3253 2259 
Q 3253 1453 3087 958 
Q 2922 463 2592 192 
Q 2263 -78 1759 -78 
Q 1097 -78 719 397 
Q 266 969 266 2259 
z
M 844 2259 
Q 844 1131 1108 757 
Q 1372 384 1759 384 
Q 2147 384 2411 759 
Q 2675 1134 2675 2259 
Q 2675 3391 2411 3762 
Q 2147 4134 1753 4134 
Q 1366 4134 1134 3806 
Q 844 3388 844 2259 
z
" transform="scale(0.015625)"/>
        <path id="ArialMT-34" d="M 2069 0 
L 2069 1097 
L 81 1097 
L 81 1613 
L 2172 4581 
L 2631 4581 
L 2631 1613 
L 3250 1613 
L 3250 1097 
L 2631 1097 
L 2631 0 
L 2069 0 
z
M 2069 1613 
L 2069 3678 
L 634 1613 
L 2069 1613 
z
" transform="scale(0.015625)"/>
        <path id="ArialMT-2d" d="M 203 1375 
L 203 1941 
L 1931 1941 
L 1931 1375 
L 203 1375 
z
" transform="scale(0.015625)"/>
        <path id="ArialMT-39" d="M 350 1059 
L 891 1109 
Q 959 728 1153 556 
Q 1347 384 1650 384 
Q 1909 384 2104 503 
Q 2300 622 2425 820 
Q 2550 1019 2634 1356 
Q 2719 1694 2719 2044 
Q 2719 2081 2716 2156 
Q 2547 1888 2255 1720 
Q 1963 1553 1622 1553 
Q 1053 1553 659 1965 
Q 266 2378 266 3053 
Q 266 3750 677 4175 
Q 1088 4600 1706 4600 
Q 2153 4600 2523 4359 
Q 2894 4119 3086 3673 
Q 3278 3228 3278 2384 
Q 3278 1506 3087 986 
Q 2897 466 2520 194 
Q 2144 -78 1638 -78 
Q 1100 -78 759 220 
Q 419 519 350 1059 
z
M 2653 3081 
Q 2653 3566 2395 3850 
Q 2138 4134 1775 4134 
Q 1400 4134 1122 3828 
Q 844 3522 844 3034 
Q 844 2597 1108 2323 
Q 1372 2050 1759 2050 
Q 2150 2050 2401 2323 
Q 2653 2597 2653 3081 
z
" transform="scale(0.015625)"/>
       </defs>
       <use xlink:href="#ArialMT-32"/>
       <use xlink:href="#ArialMT-30" transform="translate(55.615234 0)"/>
       <use xlink:href="#ArialMT-32" transform="translate(111.230469 0)"/>
       <use xlink:href="#ArialMT-34" transform="translate(166.845703 0)"/>
       <use xlink:href="#ArialMT-2d" transform="translate(222.460938 0)"/>
       <use xlink:href="#ArialMT-30" transform="translate(255.761719 0)"/>
       <use xlink:href="#ArialMT-39" transform="translate(311.376953 0)"/>
      </g>
     </g>
    </g>
    <g id="xtick_2">
     <g id="line2d_2">
      <path d="M 228.458676 327.1 
L 228.458676 30.12 
" clip-path="url(#p33d32ed29b)" style="fill: none; stroke: #cccccc; stroke-linecap: round"/>
     </g>
     <g id="text_2">
      <!-- 2024-11 -->
      <g style="fill: #262626" transform="translate(208.681879 344.473594) scale(0.11 -0.11)">
       <defs>
        <path id="ArialMT-31" d="M 2384 0 
L 1822 0 
L 1822 3584 
Q 1619 3391 1289 3197 
Q 959 3003 697 2906 
L 697 3450 
Q 1169 3672 1522 3987 
Q 1875 4303 2022 4600 
L 2384 4600 
L 2384 0 
z
" transform="scale(0.015625)"/>
       </defs>
       <use xlink:href="#ArialMT-32"/>
       <use xlink:href="#ArialMT-30" transform="translate(55.615234 0)"/>
       <use xlink:href="#ArialMT-32" transform="translate(111.230469 0)"/>
       <use xlink:href="#ArialMT-34" transform="translate(166.845703 0)"/>
       <use xlink:href="#ArialMT-2d" transform="translate(222.460938 0)"/>
       <use xlink:href="#ArialMT-31" transform="translate(255.761719 0)"/>
       <use xlink:href="#ArialMT-31" transform="translate(304.001953 0)"/>
      </g>
     </g>
    </g>
    <g id="xtick_3">
     <g id="line2d_3">
      <path d="M 361.040078 327.1 
L 361.040078 30.12 
" clip-path="url(#p33d32ed29b)" style="fill: none; stroke: #cccccc; stroke-linecap: round"/>
     </g>
     <g id="text_3">
      <!-- 2025-01 -->
      <g style="fill: #262626" transform="translate(340.857657 344.473594) scale(0.11 -0.11)">
       <defs>
        <path id="ArialMT-35" d="M 266 1200 
L 856 1250 
Q 922 819 1161 601 
Q 1400 384 1738 384 
Q 2144 384 2425 690 
Q 2706 997 2706 1503 
Q 2706 1984 2436 2262 
Q 2166 2541 1728 2541 
Q 1456 2541 1237 2417 
Q 1019 2294 894 2097 
L 366 2166 
L 809 4519 
L 3088 4519 
L 3088 3981 
L 1259 3981 
L 1013 2750 
Q 1425 3038 1878 3038 
Q 2478 3038 2890 2622 
Q 3303 2206 3303 1553 
Q 3303 931 2941 478 
Q 2500 -78 1738 -78 
Q 1113 -78 717 272 
Q 322 622 266 1200 
z
" transform="scale(0.015625)"/>
       </defs>
       <use xlink:href="#ArialMT-32"/>
       <use xlink:href="#ArialMT-30" transform="translate(55.615234 0)"/>
       <use xlink:href="#ArialMT-32" transform="translate(111.230469 0)"/>
       <use xlink:href="#ArialMT-35" transform="translate(166.845703 0)"/>
       <use xlink:href="#ArialMT-2d" transform="translate(222.460938 0)"/>
       <use xlink:href="#ArialMT-30" transform="translate(255.761719 0)"/>
       <use xlink:href="#ArialMT-31" transform="translate(311.376953 0)"/>
      </g>
     </g>
    </g>
    <g id="xtick_4">
     <g id="line2d_4">
      <path d="M 489.27455 327.1 
L 489.27455 30.12 
" clip-path="url(#p33d32ed29b)" style="fill: none; stroke: #cccccc; stroke-linecap: round"/>
     </g>
     <g id="text_4">
      <!-- 2025-03 -->
      <g style="fill: #262626" transform="translate(469.092128 344.473594) scale(0.11 -0.11)">
       <defs>
        <path id="ArialMT-33" d="M 269 1209 
L 831 1284 
Q 928 806 1161 595 
Q 1394 384 1728 384 
Q 2125 384 2398 659 
Q 2672 934 2672 1341 
Q 2672 1728 2419 1979 
Q 2166 2231 1775 2231 
Q 1616 2231 1378 2169 
L 1441 2663 
Q 1497 2656 1531 2656 
Q 1891 2656 2178 2843 
Q 2466 3031 2466 3422 
Q 2466 3731 2256 3934 
Q 2047 4138 1716 4138 
Q 1388 4138 1169 3931 
Q 950 3725 888 3313 
L 325 3413 
Q 428 3978 793 4289 
Q 1159 4600 1703 4600 
Q 2078 4600 2393 4439 
Q 2709 4278 2876 4000 
Q 3044 3722 3044 3409 
Q 3044 3113 2884 2869 
Q 2725 2625 2413 2481 
Q 2819 2388 3044 2092 
Q 3269 1797 3269 1353 
Q 3269 753 2831 336 
Q 2394 -81 1725 -81 
Q 1122 -81 723 278 
Q 325 638 269 1209 
z
" transform="scale(0.015625)"/>
       </defs>
       <use xlink:href="#ArialMT-32"/>
       <use xlink:href="#ArialMT-30" transform="translate(55.615234 0)"/>
       <use xlink:href="#ArialMT-32" transform="translate(111.230469 0)"/>
       <use xlink:href="#ArialMT-35" transform="translate(166.845703 0)"/>
       <use xlink:href="#ArialMT-2d" transform="translate(222.460938 0)"/>
       <use xlink:href="#ArialMT-30" transform="translate(255.761719 0)"/>
       <use xlink:href="#ArialMT-33" transform="translate(311.376953 0)"/>
      </g>
     </g>
    </g>
    <g id="xtick_5">
     <g id="line2d_5">
      <path d="M 621.855953 327.1 
L 621.855953 30.12 
" clip-path="url(#p33d32ed29b)" style="fill: none; stroke: #cccccc; stroke-linecap: round"/>
     </g>
     <g id="text_5">
      <!-- 2025-05 -->
      <g style="fill: #262626" transform="translate(601.673531 344.473594) scale(0.11 -0.11)">
       <use xlink:href="#ArialMT-32"/>
       <use xlink:href="#ArialMT-30" transform="translate(55.615234 0)"/>
       <use xlink:href="#ArialMT-32" transform="translate(111.230469 0)"/>
       <use xlink:href="#ArialMT-35" transform="translate(166.845703 0)"/>
       <use xlink:href="#ArialMT-2d" transform="translate(222.460938 0)"/>
       <use xlink:href="#ArialMT-30" transform="translate(255.761719 0)"/>
       <use xlink:href="#ArialMT-35" transform="translate(311.376953 0)"/>
      </g>
     </g>
    </g>
    <g id="xtick_6">
     <g id="line2d_6">
      <path d="M 754.437356 327.1 
L 754.437356 30.12 
" clip-path="url(#p33d32ed29b)" style="fill: none; stroke: #cccccc; stroke-linecap: round"/>
     </g>
     <g id="text_6">
      <!-- 2025-07 -->
      <g style="fill: #262626" transform="translate(734.254934 344.473594) scale(0.11 -0.11)">
       <defs>
        <path id="ArialMT-37" d="M 303 3981 
L 303 4522 
L 3269 4522 
L 3269 4084 
Q 2831 3619 2401 2847 
Q 1972 2075 1738 1259 
Q 1569 684 1522 0 
L 944 0 
Q 953 541 1156 1306 
Q 1359 2072 1739 2783 
Q 2119 3494 2547 3981 
L 303 3981 
z
" transform="scale(0.015625)"/>
       </defs>
       <use xlink:href="#ArialMT-32"/>
       <use xlink:href="#ArialMT-30" transform="translate(55.615234 0)"/>
       <use xlink:href="#ArialMT-32" transform="translate(111.230469 0)"/>
       <use xlink:href="#ArialMT-35" transform="translate(166.845703 0)"/>
       <use xlink:href="#ArialMT-2d" transform="translate(222.460938 0)"/>
       <use xlink:href="#ArialMT-30" transform="translate(255.761719 0)"/>
       <use xlink:href="#ArialMT-37" transform="translate(311.376953 0)"/>
      </g>
     </g>
    </g>
    <g id="xtick_7">
     <g id="line2d_7">
      <path d="M 889.192224 327.1 
L 889.192224 30.12 
" clip-path="url(#p33d32ed29b)" style="fill: none; stroke: #cccccc; stroke-linecap: round"/>
     </g>
     <g id="text_7">
      <!-- 2025-09 -->
      <g style="fill: #262626" transform="translate(869.009802 344.473594) scale(0.11 -0.11)">
       <use xlink:href="#ArialMT-32"/>
       <use xlink:href="#ArialMT-30" transform="translate(55.615234 0)"/>
       <use xlink:href="#ArialMT-32" transform="translate(111.230469 0)"/>
       <use xlink:href="#ArialMT-35" transform="translate(166.845703 0)"/>
       <use xlink:href="#ArialMT-2d" transform="translate(222.460938 0)"/>
       <use xlink:href="#ArialMT-30" transform="translate(255.761719 0)"/>
       <use xlink:href="#ArialMT-39" transform="translate(311.376953 0)"/>
      </g>
     </g>
    </g>
   </g>
   <g id="matplotlib.axis_2">
    <g id="ytick_1">
     <g id="line2d_8">
      <path d="M 53.06 313.600909 
L 995.04 313.600909 
" clip-path="url(#p33d32ed29b)" style="fill: none; stroke: #cccccc; stroke-linecap: round"/>
     </g>
     <g id="text_8">
      <!-- 22000 -->
      <g style="fill: #262626" transform="translate(12.974844 317.537706) scale(0.11 -0.11)">
       <use xlink:href="#ArialMT-32"/>
       <use xlink:href="#ArialMT-32" transform="translate(55.615234 0)"/>
       <use xlink:href="#ArialMT-30" transform="translate(111.230469 0)"/>
       <use xlink:href="#ArialMT-30" transform="translate(166.845703 0)"/>
       <use xlink:href="#ArialMT-30" transform="translate(222.460938 0)"/>
      </g>
     </g>
    </g>
    <g id="ytick_2">
     <g id="line2d_9">
      <path d="M 53.06 268.603939 
L 995.04 268.603939 
" clip-path="url(#p33d32ed29b)" style="fill: none; stroke: #cccccc; stroke-linecap: round"/>
     </g>
     <g id="text_9">
      <!-- 24000 -->
      <g style="fill: #262626" transform="translate(12.974844 272.540736) scale(0.11 -0.11)">
       <use xlink:href="#ArialMT-32"/>
       <use xlink:href="#ArialMT-34" transform="translate(55.615234 0)"/>
       <use xlink:href="#ArialMT-30" transform="translate(111.230469 0)"/>
       <use xlink:href="#ArialMT-30" transform="translate(166.845703 0)"/>
       <use xlink:href="#ArialMT-30" transform="translate(222.460938 0)"/>
      </g>
     </g>
    </g>
    <g id="ytick_3">
     <g id="line2d_10">
      <path d="M 53.06 223.60697 
L 995.04 223.60697 
" clip-path="url(#p33d32ed29b)" style="fill: none; stroke: #cccccc; stroke-linecap: round"/>
     </g>
     <g id="text_10">
      <!-- 26000 -->
      <g style="fill: #262626" transform="translate(12.974844 227.543767) scale(0.11 -0.11)">
       <defs>
        <path id="ArialMT-36" d="M 3184 3459 
L 2625 3416 
Q 2550 3747 2413 3897 
Q 2184 4138 1850 4138 
Q 1581 4138 1378 3988 
Q 1113 3794 959 3422 
Q 806 3050 800 2363 
Q 1003 2672 1297 2822 
Q 1591 2972 1913 2972 
Q 2475 2972 2870 2558 
Q 3266 2144 3266 1488 
Q 3266 1056 3080 686 
Q 2894 316 2569 119 
Q 2244 -78 1831 -78 
Q 1128 -78 684 439 
Q 241 956 241 2144 
Q 241 3472 731 4075 
Q 1159 4600 1884 4600 
Q 2425 4600 2770 4297 
Q 3116 3994 3184 3459 
z
M 888 1484 
Q 888 1194 1011 928 
Q 1134 663 1356 523 
Q 1578 384 1822 384 
Q 2178 384 2434 671 
Q 2691 959 2691 1453 
Q 2691 1928 2437 2201 
Q 2184 2475 1800 2475 
Q 1419 2475 1153 2201 
Q 888 1928 888 1484 
z
" transform="scale(0.015625)"/>
       </defs>
       <use xlink:href="#ArialMT-32"/>
       <use xlink:href="#ArialMT-36" transform="translate(55.615234 0)"/>
       <use xlink:href="#ArialMT-30" transform="translate(111.230469 0)"/>
       <use xlink:href="#ArialMT-30" transform="translate(166.845703 0)"/>
       <use xlink:href="#ArialMT-30" transform="translate(222.460938 0)"/>
      </g>
     </g>
    </g>
    <g id="ytick_4">
     <g id="line2d_11">
      <path d="M 53.06 178.61 
L 995.04 178.61 
" clip-path="url(#p33d32ed29b)" style="fill: none; stroke: #cccccc; stroke-linecap: round"/>
     </g>
     <g id="text_11">
      <!-- 28000 -->
      <g style="fill: #262626" transform="translate(12.974844 182.546797) scale(0.11 -0.11)">
       <defs>
        <path id="ArialMT-38" d="M 1131 2484 
Q 781 2613 612 2850 
Q 444 3088 444 3419 
Q 444 3919 803 4259 
Q 1163 4600 1759 4600 
Q 2359 4600 2725 4251 
Q 3091 3903 3091 3403 
Q 3091 3084 2923 2848 
Q 2756 2613 2416 2484 
Q 2838 2347 3058 2040 
Q 3278 1734 3278 1309 
Q 3278 722 2862 322 
Q 2447 -78 1769 -78 
Q 1091 -78 675 323 
Q 259 725 259 1325 
Q 259 1772 486 2073 
Q 713 2375 1131 2484 
z
M 1019 3438 
Q 1019 3113 1228 2906 
Q 1438 2700 1772 2700 
Q 2097 2700 2305 2904 
Q 2513 3109 2513 3406 
Q 2513 3716 2298 3927 
Q 2084 4138 1766 4138 
Q 1444 4138 1231 3931 
Q 1019 3725 1019 3438 
z
M 838 1322 
Q 838 1081 952 856 
Q 1066 631 1291 507 
Q 1516 384 1775 384 
Q 2178 384 2440 643 
Q 2703 903 2703 1303 
Q 2703 1709 2433 1975 
Q 2163 2241 1756 2241 
Q 1359 2241 1098 1978 
Q 838 1716 838 1322 
z
" transform="scale(0.015625)"/>
       </defs>
       <use xlink:href="#ArialMT-32"/>
       <use xlink:href="#ArialMT-38" transform="translate(55.615234 0)"/>
       <use xlink:href="#ArialMT-30" transform="translate(111.230469 0)"/>
       <use xlink:href="#ArialMT-30" transform="translate(166.845703 0)"/>
       <use xlink:href="#ArialMT-30" transform="translate(222.460938 0)"/>
      </g>
     </g>
    </g>
    <g id="ytick_5">
     <g id="line2d_12">
      <path d="M 53.06 133.61303 
L 995.04 133.61303 
" clip-path="url(#p33d32ed29b)" style="fill: none; stroke: #cccccc; stroke-linecap: round"/>
     </g>
     <g id="text_12">
      <!-- 30000 -->
      <g style="fill: #262626" transform="translate(12.974844 137.549827) scale(0.11 -0.11)">
       <use xlink:href="#ArialMT-33"/>
       <use xlink:href="#ArialMT-30" transform="translate(55.615234 0)"/>
       <use xlink:href="#ArialMT-30" transform="translate(111.230469 0)"/>
       <use xlink:href="#ArialMT-30" transform="translate(166.845703 0)"/>
       <use xlink:href="#ArialMT-30" transform="translate(222.460938 0)"/>
      </g>
     </g>
    </g>
    <g id="ytick_6">
     <g id="line2d_13">
      <path d="M 53.06 88.616061 
L 995.04 88.616061 
" clip-path="url(#p33d32ed29b)" style="fill: none; stroke: #cccccc; stroke-linecap: round"/>
     </g>
     <g id="text_13">
      <!-- 32000 -->
      <g style="fill: #262626" transform="translate(12.974844 92.552857) scale(0.11 -0.11)">
       <use xlink:href="#ArialMT-33"/>
       <use xlink:href="#ArialMT-32" transform="translate(55.615234 0)"/>
       <use xlink:href="#ArialMT-30" transform="translate(111.230469 0)"/>
       <use xlink:href="#ArialMT-30" transform="translate(166.845703 0)"/>
       <use xlink:href="#ArialMT-30" transform="translate(222.460938 0)"/>
      </g>
     </g>
    </g>
    <g id="ytick_7">
     <g id="line2d_14">
      <path d="M 53.06 43.619091 
L 995.04 43.619091 
" clip-path="url(#p33d32ed29b)" style="fill: none; stroke: #cccccc; stroke-linecap: round"/>
     </g>
     <g id="text_14">
      <!-- 34000 -->
      <g style="fill: #262626" transform="translate(12.974844 47.555888) scale(0.11 -0.11)">
       <use xlink:href="#ArialMT-33"/>
       <use xlink:href="#ArialMT-34" transform="translate(55.615234 0)"/>
       <use xlink:href="#ArialMT-30" transform="translate(111.230469 0)"/>
       <use xlink:href="#ArialMT-30" transform="translate(166.845703 0)"/>
       <use xlink:href="#ArialMT-30" transform="translate(222.460938 0)"/>
      </g>
     </g>
    </g>
   </g>
   <g id="line2d_15">
    <path d="M 95.877273 185.359545 
L 98.050738 171.860455 
L 100.224204 124.613636 
L 102.39767 88.616061 
L 104.571135 192.109091 
L 106.744601 142.612424 
L 108.918066 210.107879 
L 111.091532 156.111515 
L 113.264998 160.611212 
L 115.438463 120.113939 
L 117.611929 88.616061 
L 119.785395 147.112121 
L 121.95886 111.114545 
L 124.132326 133.61303 
L 126.305791 75.11697 
L 128.479257 178.61 
L 130.652723 156.111515 
L 132.826188 88.616061 
L 134.999654 142.612424 
L 137.17312 111.114545 
L 139.346585 160.611212 
L 141.520051 167.360758 
L 143.693516 142.612424 
L 145.866982 142.612424 
L 148.040448 133.61303 
L 150.213913 259.604545 
L 152.387379 250.605152 
L 154.560844 66.117576 
L 156.73431 120.113939 
L 158.907776 66.117576 
L 161.081241 214.607576 
L 163.254707 133.61303 
L 165.428173 160.611212 
L 167.601638 93.115758 
L 169.775104 169.610606 
L 171.948569 93.115758 
L 174.122035 205.608182 
L 176.295501 165.110909 
L 178.468966 88.616061 
L 180.642432 115.614242 
L 182.815898 147.112121 
L 184.989363 169.610606 
L 187.162829 156.111515 
L 189.336294 237.106061 
L 191.50976 115.614242 
L 193.683226 88.616061 
L 195.856691 97.615455 
L 198.030157 151.611818 
L 200.203623 156.111515 
L 202.377088 138.112727 
L 204.550554 138.112727 
L 206.724019 165.110909 
L 208.897485 133.61303 
L 211.070951 178.61 
L 213.244416 75.11697 
L 215.417882 61.617879 
L 217.591347 171.860455 
L 219.764813 167.360758 
L 221.938279 120.113939 
L 224.111744 133.61303 
L 226.28521 205.608182 
L 228.458676 129.113333 
L 230.632141 165.110909 
L 232.805607 178.61 
L 237.152538 124.613636 
L 239.326004 66.117576 
L 241.499469 120.113939 
L 243.672935 232.606364 
L 245.846401 187.609394 
L 248.019866 250.605152 
L 250.193332 147.112121 
L 252.366797 210.107879 
L 254.540263 66.117576 
L 256.713729 178.61 
L 258.887194 232.606364 
L 261.06066 176.360152 
L 263.234126 203.358333 
L 265.407591 162.861061 
L 267.581057 162.861061 
L 269.754522 66.117576 
L 271.927988 178.61 
L 274.101454 151.611818 
L 276.274919 178.61 
L 278.448385 140.362576 
L 280.62185 176.360152 
L 282.795316 178.61 
L 284.968782 54.868333 
L 287.142247 189.859242 
L 289.315713 147.112121 
L 291.489179 223.60697 
L 293.662644 147.112121 
L 295.83611 237.106061 
L 298.009575 133.61303 
L 300.183041 88.616061 
L 302.356507 156.111515 
L 304.529972 250.605152 
L 306.703438 156.111515 
L 308.876904 185.359545 
L 311.050369 189.859242 
L 313.223835 210.107879 
L 315.3973 88.616061 
L 317.570766 88.616061 
L 319.744232 203.358333 
L 321.917697 151.611818 
L 324.091163 147.112121 
L 326.264629 120.113939 
L 328.438094 232.606364 
L 330.61156 228.106667 
L 332.785025 185.359545 
L 334.958491 223.60697 
L 337.131957 205.608182 
L 339.305422 196.608788 
L 341.478888 196.608788 
L 343.652353 189.859242 
L 345.825819 180.859848 
L 347.999285 223.60697 
L 350.17275 142.612424 
L 352.346216 156.111515 
L 354.519682 223.60697 
L 356.693147 210.107879 
L 358.866613 232.606364 
L 361.040078 223.60697 
L 363.213544 156.111515 
L 365.38701 142.612424 
L 367.560475 223.60697 
L 369.733941 210.107879 
L 374.080872 210.107879 
L 376.254338 178.61 
L 378.427803 210.107879 
L 380.601269 228.106667 
L 382.774735 196.608788 
L 387.121666 196.608788 
L 389.295132 210.107879 
L 391.468597 156.111515 
L 393.642063 178.61 
L 395.815528 210.107879 
L 400.16246 210.107879 
L 402.335925 228.106667 
L 404.509391 210.107879 
L 406.682856 156.111515 
L 408.856322 192.109091 
L 411.029788 192.109091 
L 413.203253 178.61 
L 415.376719 192.109091 
L 417.550185 210.107879 
L 421.897116 210.107879 
L 424.070581 178.61 
L 426.244047 210.107879 
L 428.417513 210.107879 
L 430.590978 214.607576 
L 432.764444 228.106667 
L 434.93791 210.107879 
L 437.111375 178.61 
L 439.284841 210.107879 
L 447.978703 210.107879 
L 450.152169 196.608788 
L 452.325635 133.61303 
L 454.4991 133.61303 
L 456.672566 160.611212 
L 458.846031 138.112727 
L 461.019497 223.60697 
L 463.192963 241.605758 
L 465.366428 178.61 
L 467.539894 223.60697 
L 469.713359 201.108485 
L 471.886825 160.611212 
L 474.060291 196.608788 
L 476.233756 219.107273 
L 478.407222 259.604545 
L 480.580688 246.105455 
L 482.754153 246.105455 
L 484.927619 237.106061 
L 487.101084 246.105455 
L 489.27455 196.608788 
L 491.448016 210.107879 
L 493.621481 228.106667 
L 495.794947 192.109091 
L 497.968413 246.105455 
L 500.141878 142.612424 
L 502.315344 174.110303 
L 504.488809 165.110909 
L 506.662275 228.106667 
L 508.835741 178.61 
L 511.009206 115.614242 
L 513.182672 291.102424 
L 515.356138 115.614242 
L 517.529603 183.109697 
L 519.703069 192.109091 
L 521.876534 205.608182 
L 524.05 255.104848 
L 526.223466 178.61 
L 528.396931 313.600909 
L 530.570397 237.106061 
L 532.743862 219.107273 
L 534.917328 219.107273 
L 537.090794 214.607576 
L 539.264259 160.611212 
L 541.437725 237.106061 
L 543.611191 268.603939 
L 545.784656 183.109697 
L 547.958122 223.60697 
L 550.131587 178.61 
L 552.305053 120.113939 
L 554.478519 219.107273 
L 556.651984 165.110909 
L 558.82545 268.603939 
L 560.998916 192.109091 
L 563.172381 187.609394 
L 565.345847 142.612424 
L 567.519312 165.110909 
L 569.692778 223.60697 
L 571.866244 178.61 
L 574.039709 246.105455 
L 576.213175 138.112727 
L 578.386641 120.113939 
L 580.560106 115.614242 
L 582.733572 97.615455 
L 584.907037 43.619091 
L 587.080503 223.60697 
L 589.253969 178.61 
L 591.427434 201.108485 
L 593.6009 97.615455 
L 595.774365 106.614848 
L 597.947831 183.109697 
L 600.121297 93.115758 
L 602.294762 142.612424 
L 604.468228 156.111515 
L 606.641694 124.613636 
L 608.815159 156.111515 
L 610.988625 147.112121 
L 613.16209 133.61303 
L 615.335556 84.116364 
L 617.509022 133.61303 
L 619.682487 124.613636 
L 621.855953 142.612424 
L 624.029419 120.113939 
L 626.202884 124.613636 
L 628.37635 178.61 
L 630.549815 192.109091 
L 632.723281 174.110303 
L 634.896747 111.114545 
L 637.070212 124.613636 
L 639.243678 124.613636 
L 641.417144 198.858636 
L 643.590609 151.611818 
L 645.764075 151.611818 
L 647.93754 165.110909 
L 650.111006 142.612424 
L 652.284472 156.111515 
L 654.457937 133.61303 
L 656.631403 151.611818 
L 658.804868 174.110303 
L 660.978334 142.612424 
L 663.1518 165.110909 
L 665.325265 120.113939 
L 667.498731 147.112121 
L 669.672197 102.115152 
L 671.845662 176.360152 
L 674.019128 97.615455 
L 676.192593 219.107273 
L 678.366059 129.113333 
L 680.539525 151.611818 
L 682.71299 165.110909 
L 684.886456 194.358939 
L 687.059922 156.111515 
L 689.233387 97.615455 
L 691.406853 156.111515 
L 693.580318 138.112727 
L 695.753784 133.61303 
L 697.92725 151.611818 
L 700.100715 174.110303 
L 702.274181 133.61303 
L 704.447647 102.115152 
L 706.621112 106.614848 
L 708.794578 140.362576 
L 710.968043 178.61 
L 713.141509 189.859242 
L 715.314975 198.858636 
L 717.48844 142.612424 
L 719.661906 129.113333 
L 721.835371 174.110303 
L 724.008837 151.611818 
L 726.182303 156.111515 
L 728.355768 165.110909 
L 730.529234 169.610606 
L 732.7027 156.111515 
L 734.876165 171.860455 
L 737.049631 129.113333 
L 739.223096 165.110909 
L 741.396562 178.61 
L 743.570028 153.861667 
L 745.743493 151.611818 
L 747.916959 156.111515 
L 750.090425 124.613636 
L 752.26389 160.611212 
L 754.437356 147.112121 
L 756.610821 178.61 
L 758.784287 138.112727 
L 760.957753 178.61 
L 763.131218 147.112121 
L 765.304684 160.611212 
L 767.47815 75.11697 
L 769.651615 133.61303 
L 771.825081 133.61303 
L 773.998546 124.613636 
L 776.172012 142.612424 
L 778.345478 151.611818 
L 780.518943 192.109091 
L 782.692409 147.112121 
L 784.865874 165.110909 
L 787.03934 153.861667 
L 789.212806 75.11697 
L 791.386271 111.114545 
L 793.559737 167.360758 
L 795.733203 203.358333 
L 797.906668 88.616061 
L 800.080134 196.608788 
L 802.253599 196.608788 
L 804.427065 124.613636 
L 806.600531 115.614242 
L 808.773996 192.109091 
L 810.947462 167.360758 
L 813.120928 207.85803 
L 815.294393 151.611818 
L 817.467859 165.110909 
L 819.641324 129.113333 
L 823.988256 165.110909 
L 826.161721 165.110909 
L 828.335187 129.113333 
L 830.508653 165.110909 
L 832.682118 165.110909 
L 834.855584 142.612424 
L 837.029049 88.616061 
L 839.202515 151.611818 
L 841.375981 160.611212 
L 843.549446 138.112727 
L 845.722912 93.115758 
L 847.896377 124.613636 
L 850.069843 129.113333 
L 852.243309 75.11697 
L 854.416774 135.862879 
L 856.59024 79.616667 
L 858.763706 133.61303 
L 860.937171 151.611818 
L 863.110637 142.612424 
L 865.284102 203.358333 
L 867.457568 138.112727 
L 869.631034 165.110909 
L 871.804499 165.110909 
L 873.977965 167.360758 
L 876.151431 138.112727 
L 878.324896 129.113333 
L 880.498362 151.611818 
L 882.671827 133.61303 
L 884.845293 156.111515 
L 887.018759 156.111515 
L 889.192224 167.360758 
L 891.36569 88.616061 
L 893.539156 178.61 
L 895.712621 165.110909 
L 897.886087 160.611212 
L 900.059552 151.611818 
L 902.233018 189.859242 
L 904.406484 207.85803 
L 906.579949 160.611212 
L 908.753415 138.112727 
L 910.92688 165.110909 
L 913.100346 138.112727 
L 915.273812 165.110909 
L 917.447277 138.112727 
L 919.620743 156.111515 
L 921.794209 158.361364 
L 923.967674 178.61 
L 926.14114 160.611212 
L 928.314605 171.860455 
L 930.488071 133.61303 
L 932.661537 174.110303 
L 934.835002 203.358333 
L 937.008468 111.114545 
L 939.181934 133.61303 
L 941.355399 138.112727 
L 943.528865 88.616061 
L 945.70233 111.114545 
L 947.875796 153.861667 
L 950.049262 102.115152 
L 952.222727 160.611212 
L 952.222727 160.611212 
" clip-path="url(#p33d32ed29b)" style="fill: none; stroke: #e76f51; stroke-width: 1.5; stroke-linecap: round"/>
   </g>
   <g id="line2d_16">
    <path d="M 108.918066 159.325584 
L 111.091532 155.147294 
L 113.264998 153.54026 
L 115.438463 152.897446 
L 117.611929 152.897446 
L 119.785395 146.469307 
L 121.95886 141.96961 
L 124.132326 131.041775 
L 126.305791 119.471126 
L 128.479257 122.042381 
L 130.652723 127.184892 
L 132.826188 127.184892 
L 134.999654 126.542078 
L 137.17312 126.542078 
L 139.346585 130.398961 
L 141.520051 143.576645 
L 143.693516 138.434134 
L 145.866982 136.505693 
L 148.040448 142.933831 
L 150.213913 159.646991 
L 152.387379 179.574221 
L 154.560844 166.07513 
L 156.73431 159.325584 
L 158.907776 148.397749 
L 161.081241 158.682771 
L 163.254707 158.682771 
L 165.428173 144.540866 
L 167.601638 122.042381 
L 169.775104 136.8271 
L 171.948569 132.970216 
L 174.122035 152.897446 
L 176.295501 145.826494 
L 180.642432 132.970216 
L 182.815898 140.683983 
L 184.989363 140.683983 
L 187.162829 149.683377 
L 189.336294 154.183074 
L 191.50976 147.112121 
L 193.683226 147.112121 
L 195.856691 144.540866 
L 198.030157 145.18368 
L 200.203623 143.255238 
L 202.377088 140.683983 
L 204.550554 126.542078 
L 206.724019 133.61303 
L 208.897485 140.041169 
L 211.070951 151.611818 
L 213.244416 140.683983 
L 215.417882 127.184892 
L 217.591347 132.005996 
L 219.764813 136.184286 
L 221.938279 129.756147 
L 224.111744 129.756147 
L 226.28521 133.61303 
L 228.458676 141.326797 
L 230.632141 156.111515 
L 232.805607 157.075736 
L 234.979072 154.825887 
L 237.152538 155.468701 
L 239.326004 145.826494 
L 241.499469 133.61303 
L 243.672935 148.397749 
L 245.846401 151.611818 
L 248.019866 161.89684 
L 250.193332 161.254026 
L 252.366797 173.467489 
L 254.540263 173.467489 
L 256.713729 181.824069 
L 258.887194 181.824069 
L 261.06066 180.217035 
L 263.234126 173.467489 
L 265.407591 175.717338 
L 267.581057 168.967792 
L 271.927988 168.967792 
L 274.101454 157.397143 
L 276.274919 157.71855 
L 278.448385 148.719156 
L 280.62185 150.647597 
L 282.795316 152.897446 
L 284.968782 151.290411 
L 287.142247 152.897446 
L 289.315713 152.254632 
L 291.489179 158.682771 
L 293.662644 159.646991 
L 295.83611 168.324978 
L 298.009575 161.89684 
L 300.183041 166.717944 
L 302.356507 161.89684 
L 304.529972 176.681558 
L 306.703438 167.039351 
L 308.876904 172.503268 
L 311.050369 165.753723 
L 313.223835 176.681558 
L 315.3973 176.681558 
L 317.570766 167.039351 
L 319.744232 160.289805 
L 321.917697 159.646991 
L 324.091163 154.183074 
L 326.264629 144.219459 
L 328.438094 147.433528 
L 330.61156 167.360758 
L 332.785025 181.181255 
L 334.958491 184.073918 
L 337.131957 191.787684 
L 339.305422 198.858636 
L 341.478888 209.786472 
L 343.652353 203.67974 
L 345.825819 196.930195 
L 347.999285 202.394113 
L 350.17275 190.823463 
L 352.346216 183.752511 
L 354.519682 187.609394 
L 356.693147 189.537835 
L 361.040078 201.751299 
L 363.213544 192.109091 
L 365.38701 192.109091 
L 367.560475 201.751299 
L 369.733941 199.822857 
L 371.907407 199.822857 
L 374.080872 196.608788 
L 376.254338 190.180649 
L 378.427803 197.894416 
L 380.601269 210.107879 
L 382.774735 206.250996 
L 387.121666 202.394113 
L 389.295132 202.394113 
L 391.468597 199.180043 
L 393.642063 194.680346 
L 395.815528 192.109091 
L 400.16246 195.965974 
L 402.335925 200.465671 
L 406.682856 200.465671 
L 408.856322 202.394113 
L 411.029788 199.822857 
L 413.203253 195.32316 
L 417.550185 190.180649 
L 419.72365 190.180649 
L 421.897116 197.894416 
L 424.070581 195.965974 
L 426.244047 198.537229 
L 428.417513 203.036926 
L 430.590978 206.250996 
L 432.764444 208.822251 
L 434.93791 208.822251 
L 437.111375 204.322554 
L 439.284841 208.822251 
L 443.631772 208.822251 
L 445.805238 208.179437 
L 447.978703 205.608182 
L 450.152169 203.67974 
L 452.325635 197.251602 
L 454.4991 186.323766 
L 456.672566 179.252814 
L 458.846031 168.967792 
L 461.019497 170.896234 
L 463.192963 175.395931 
L 465.366428 172.824675 
L 467.539894 185.680952 
L 469.713359 195.32316 
L 471.886825 195.32316 
L 474.060291 203.67974 
L 476.233756 203.036926 
L 478.407222 205.608182 
L 480.580688 215.25039 
L 482.754153 218.464459 
L 484.927619 223.60697 
L 487.101084 235.820433 
L 489.27455 235.820433 
L 491.448016 234.534805 
L 493.621481 230.035108 
L 495.794947 222.321342 
L 497.968413 222.321342 
L 500.141878 208.822251 
L 502.315344 198.537229 
L 504.488809 194.037532 
L 506.662275 196.608788 
L 508.835741 189.537835 
L 511.009206 178.61 
L 513.182672 185.038139 
L 515.356138 181.181255 
L 517.529603 182.466883 
L 519.703069 186.323766 
L 521.876534 183.109697 
L 524.05 194.037532 
L 526.223466 203.036926 
L 528.396931 206.250996 
L 530.570397 223.60697 
L 532.743862 228.749481 
L 534.917328 232.606364 
L 537.090794 233.891991 
L 539.264259 220.3929 
L 541.437725 228.749481 
L 543.611191 222.321342 
L 545.784656 214.607576 
L 547.958122 215.25039 
L 550.131587 209.465065 
L 552.305053 195.965974 
L 554.478519 204.322554 
L 556.651984 194.037532 
L 558.82545 194.037532 
L 560.998916 195.32316 
L 565.345847 185.038139 
L 567.519312 191.466277 
L 569.692778 192.109091 
L 571.866244 194.037532 
L 574.039709 190.823463 
L 576.213175 183.109697 
L 578.386641 173.467489 
L 580.560106 169.610606 
L 582.733572 159.968398 
L 584.907037 134.255844 
L 587.080503 140.683983 
L 589.253969 131.041775 
L 591.427434 140.041169 
L 593.6009 136.8271 
L 595.774365 135.541472 
L 597.947831 147.754935 
L 600.121297 154.825887 
L 602.294762 143.255238 
L 604.468228 140.041169 
L 606.641694 129.113333 
L 608.815159 137.469913 
L 610.988625 143.255238 
L 613.16209 136.184286 
L 617.509022 133.61303 
L 619.682487 129.113333 
L 621.855953 131.684589 
L 624.029419 126.542078 
L 626.202884 123.328009 
L 628.37635 129.756147 
L 630.549815 145.18368 
L 632.723281 150.969004 
L 634.896747 149.040563 
L 637.070212 146.469307 
L 639.243678 147.112121 
L 641.417144 157.71855 
L 643.590609 153.861667 
L 645.764075 148.076342 
L 647.93754 146.790714 
L 652.284472 155.790108 
L 654.457937 157.075736 
L 656.631403 150.32619 
L 658.804868 153.54026 
L 660.978334 152.254632 
L 663.1518 152.254632 
L 665.325265 149.040563 
L 667.498731 147.754935 
L 669.672197 143.255238 
L 671.845662 146.790714 
L 674.019128 135.862879 
L 676.192593 146.790714 
L 678.366059 141.648203 
L 680.539525 146.1479 
L 682.71299 148.719156 
L 684.886456 161.89684 
L 687.059922 159.004177 
L 689.233387 159.004177 
L 691.406853 150.004784 
L 693.580318 151.290411 
L 695.753784 148.719156 
L 697.92725 146.790714 
L 700.100715 143.898052 
L 702.274181 140.683983 
L 704.447647 141.326797 
L 706.621112 134.255844 
L 708.794578 134.577251 
L 710.968043 141.00539 
L 713.141509 146.469307 
L 715.314975 150.004784 
L 717.48844 151.290411 
L 719.661906 155.147294 
L 721.835371 164.789502 
L 724.008837 166.396537 
L 726.182303 163.182468 
L 728.355768 159.646991 
L 730.529234 155.468701 
L 732.7027 157.397143 
L 734.876165 163.503874 
L 737.049631 157.075736 
L 739.223096 159.004177 
L 741.396562 162.218247 
L 743.570028 160.611212 
L 745.743493 158.039957 
L 747.916959 158.039957 
L 750.090425 151.290411 
L 752.26389 155.790108 
L 754.437356 153.218853 
L 756.610821 153.218853 
L 758.784287 150.969004 
L 760.957753 154.825887 
L 763.131218 153.54026 
L 765.304684 158.682771 
L 767.47815 146.469307 
L 769.651615 144.540866 
L 771.825081 138.112727 
L 773.998546 136.184286 
L 776.172012 131.041775 
L 778.345478 131.684589 
L 780.518943 136.184286 
L 782.692409 146.469307 
L 784.865874 150.969004 
L 787.03934 153.861667 
L 789.212806 146.790714 
L 791.386271 142.291017 
L 793.559737 144.540866 
L 795.733203 146.1479 
L 797.906668 137.79132 
L 800.080134 142.291017 
L 802.253599 148.397749 
L 804.427065 155.468701 
L 806.600531 156.111515 
L 808.773996 159.646991 
L 810.947462 154.504481 
L 813.120928 171.539048 
L 815.294393 165.110909 
L 817.467859 160.611212 
L 819.641324 161.254026 
L 821.81479 165.753723 
L 823.988256 161.89684 
L 826.161721 161.575433 
L 828.335187 150.32619 
L 830.508653 152.254632 
L 832.682118 152.254632 
L 834.855584 154.183074 
L 837.029049 145.826494 
L 839.202515 143.898052 
L 841.375981 143.255238 
L 843.549446 144.540866 
L 845.722912 134.255844 
L 847.896377 128.470519 
L 852.243309 124.613636 
L 854.416774 122.363788 
L 856.59024 110.793139 
L 858.763706 110.150325 
L 860.937171 118.506905 
L 863.110637 121.07816 
L 865.284102 131.684589 
L 867.457568 140.683983 
L 869.631034 144.862273 
L 871.804499 157.075736 
L 873.977965 161.89684 
L 878.324896 158.039957 
L 880.498362 150.647597 
L 882.671827 150.004784 
L 887.018759 147.433528 
L 889.192224 147.433528 
L 891.36569 140.362576 
L 893.539156 147.433528 
L 895.712621 149.36197 
L 897.886087 153.218853 
L 900.059552 152.576039 
L 902.233018 157.397143 
L 904.406484 163.182468 
L 906.579949 173.467489 
L 908.753415 167.682165 
L 910.92688 167.682165 
L 913.100346 164.468095 
L 915.273812 166.396537 
L 919.620743 151.611818 
L 921.794209 151.290411 
L 923.967674 157.075736 
L 926.14114 156.432922 
L 928.314605 161.254026 
L 930.488071 156.754329 
L 932.661537 161.89684 
L 934.835002 168.646385 
L 939.181934 155.468701 
L 941.355399 152.254632 
L 943.528865 140.362576 
L 945.70233 137.148506 
L 947.875796 134.255844 
L 950.049262 119.792532 
L 952.222727 126.863485 
L 952.222727 126.863485 
" clip-path="url(#p33d32ed29b)" style="fill: none; stroke-dasharray: 5.55,2.4; stroke-dashoffset: 0; stroke: #4878d0; stroke-width: 1.5"/>
   </g>
   <g id="line2d_17">
    <path d="M 158.907776 143.137389 
L 161.081241 144.112323 
L 163.254707 142.837409 
L 165.428173 144.037328 
L 167.601638 144.187318 
L 169.775104 143.437369 
L 171.948569 141.78748 
L 174.122035 141.63749 
L 176.295501 141.93747 
L 178.468966 139.537631 
L 180.642432 139.387641 
L 182.815898 141.33751 
L 184.989363 142.08746 
L 187.162829 143.587359 
L 189.336294 147.037126 
L 191.50976 148.387035 
L 193.683226 145.387237 
L 195.856691 143.437369 
L 198.030157 145.537227 
L 200.203623 145.987197 
L 202.377088 146.887136 
L 204.550554 146.137187 
L 206.724019 146.062192 
L 208.897485 145.762212 
L 211.070951 146.962131 
L 213.244416 145.012263 
L 215.417882 138.412707 
L 217.591347 135.787884 
L 219.764813 139.162657 
L 221.938279 139.162657 
L 224.111744 141.412505 
L 226.28521 141.112525 
L 228.458676 140.962535 
L 230.632141 141.112525 
L 232.805607 143.962333 
L 234.979072 143.362374 
L 237.152538 144.412303 
L 239.326004 139.762616 
L 241.499469 138.262717 
L 243.672935 143.062394 
L 245.846401 145.462232 
L 248.019866 148.912 
L 250.193332 148.162051 
L 252.366797 149.961929 
L 254.540263 144.262313 
L 256.713729 146.362172 
L 258.887194 151.161848 
L 261.06066 153.786672 
L 263.234126 155.511556 
L 265.407591 155.73654 
L 267.581057 156.561485 
L 269.754522 154.161646 
L 271.927988 154.611616 
L 274.101454 155.211576 
L 276.274919 155.211576 
L 278.448385 157.386429 
L 280.62185 161.211172 
L 282.795316 161.436157 
L 284.968782 157.686409 
L 287.142247 160.011253 
L 289.315713 160.461222 
L 293.662644 161.661141 
L 295.83611 164.06098 
L 298.009575 162.561081 
L 300.183041 160.461222 
L 302.356507 161.511152 
L 304.529972 167.660737 
L 306.703438 168.860657 
L 308.876904 167.285763 
L 311.050369 167.360758 
L 313.223835 166.010848 
L 315.3973 164.06098 
L 317.570766 160.011253 
L 319.744232 164.585944 
L 321.917697 163.686005 
L 324.091163 160.836197 
L 326.264629 158.961323 
L 328.438094 159.936258 
L 330.61156 162.111111 
L 332.785025 162.861061 
L 334.958491 168.110707 
L 337.131957 169.010646 
L 339.305422 170.510545 
L 341.478888 171.110505 
L 343.652353 172.760394 
L 345.825819 172.910384 
L 347.999285 174.410283 
L 350.17275 177.335086 
L 352.346216 176.210162 
L 354.519682 178.75999 
L 356.693147 178.31002 
L 358.866613 181.159828 
L 361.040078 180.709859 
L 363.213544 181.459808 
L 365.38701 183.259687 
L 367.560475 185.509535 
L 369.733941 184.159626 
L 371.907407 185.959505 
L 374.080872 186.784449 
L 376.254338 186.409475 
L 378.427803 186.409475 
L 380.601269 191.059162 
L 382.774735 194.658919 
L 384.9482 194.433934 
L 387.121666 195.933833 
L 389.295132 198.033692 
L 391.468597 199.233611 
L 393.642063 197.433732 
L 395.815528 196.833773 
L 397.988994 197.658717 
L 400.16246 197.208747 
L 402.335925 197.958697 
L 404.509391 198.408667 
L 406.682856 197.058758 
L 408.856322 197.133753 
L 411.029788 197.508727 
L 413.203253 196.008828 
L 415.376719 197.658717 
L 417.550185 199.458596 
L 419.72365 199.008626 
L 421.897116 199.008626 
L 424.070581 197.208747 
L 426.244047 196.758778 
L 428.417513 198.558657 
L 430.590978 200.958495 
L 432.764444 201.108485 
L 434.93791 201.108485 
L 437.111375 200.058556 
L 439.284841 200.058556 
L 441.458306 201.108485 
L 443.631772 201.108485 
L 445.805238 200.508525 
L 447.978703 200.958495 
L 450.152169 200.958495 
L 452.325635 198.858636 
L 454.4991 196.308808 
L 456.672566 196.458798 
L 458.846031 195.108889 
L 461.019497 195.558859 
L 463.192963 196.608788 
L 465.366428 195.558859 
L 467.539894 195.408869 
L 469.713359 195.108889 
L 474.060291 195.408869 
L 476.233756 196.308808 
L 478.407222 199.008626 
L 480.580688 200.808505 
L 482.754153 202.008424 
L 484.927619 202.908364 
L 487.101084 204.108283 
L 489.27455 204.708242 
L 491.448016 204.708242 
L 493.621481 205.308202 
L 495.794947 204.558253 
L 497.968413 205.158212 
L 500.141878 202.908364 
L 502.315344 202.758374 
L 504.488809 201.258475 
L 506.662275 201.858434 
L 508.835741 200.808505 
L 511.009206 197.658717 
L 513.182672 200.358535 
L 515.356138 197.658717 
L 517.529603 199.308606 
L 519.703069 201.258475 
L 521.876534 202.758374 
L 524.05 206.658111 
L 526.223466 205.158212 
L 528.396931 207.558051 
L 530.570397 209.507919 
L 532.743862 209.357929 
L 534.917328 209.957889 
L 537.090794 211.757768 
L 539.264259 210.557848 
L 541.437725 211.157808 
L 543.611191 211.457788 
L 545.784656 209.357929 
L 547.958122 208.60798 
L 550.131587 206.658111 
L 552.305053 202.458394 
L 554.478519 203.208343 
L 556.651984 201.708444 
L 558.82545 203.058354 
L 560.998916 203.058354 
L 563.172381 201.108485 
L 565.345847 201.108485 
L 567.519312 200.808505 
L 569.692778 202.758374 
L 571.866244 201.108485 
L 574.039709 203.358333 
L 576.213175 204.108283 
L 578.386641 198.408667 
L 580.560106 198.408667 
L 582.733572 195.558859 
L 584.907037 190.609192 
L 587.080503 191.209152 
L 589.253969 188.659323 
L 591.427434 189.409273 
L 593.6009 182.209758 
L 595.774365 177.860051 
L 597.947831 176.660131 
L 600.121297 172.460414 
L 602.294762 170.060576 
L 604.468228 169.910586 
L 608.815159 162.411091 
L 610.988625 161.211172 
L 615.335556 155.061586 
L 617.509022 155.511556 
L 619.682487 152.361768 
L 621.855953 151.611818 
L 624.029419 146.662152 
L 626.202884 144.412303 
L 628.37635 144.112323 
L 630.549815 145.762212 
L 632.723281 146.062192 
L 634.896747 142.312444 
L 637.070212 140.512566 
L 639.243678 136.462838 
L 641.417144 138.487702 
L 643.590609 139.537631 
L 645.764075 140.737551 
L 647.93754 142.987399 
L 650.111006 146.287177 
L 652.284472 144.037328 
L 654.457937 142.537429 
L 656.631403 140.88754 
L 658.804868 143.437369 
L 660.978334 144.637288 
L 663.1518 144.037328 
L 665.325265 144.937268 
L 667.498731 145.087258 
L 669.672197 143.287379 
L 671.845662 145.012263 
L 674.019128 143.062394 
L 676.192593 145.462232 
L 678.366059 145.312242 
L 680.539525 147.562091 
L 682.71299 148.61202 
L 684.886456 150.936864 
L 687.059922 151.386833 
L 689.233387 150.636884 
L 691.406853 151.686813 
L 693.580318 150.336904 
L 695.753784 148.387035 
L 697.92725 147.637086 
L 700.100715 149.736944 
L 702.274181 150.036924 
L 704.447647 149.286975 
L 706.621112 146.212182 
L 708.794578 145.837207 
L 713.141509 147.562091 
L 715.314975 149.436965 
L 717.48844 148.986995 
L 719.661906 148.837005 
L 721.835371 149.586955 
L 724.008837 148.837005 
L 726.182303 149.286975 
L 728.355768 149.286975 
L 730.529234 150.936864 
L 732.7027 151.236843 
L 734.876165 153.561687 
L 737.049631 151.986793 
L 739.223096 154.236641 
L 741.396562 152.886732 
L 743.570028 153.711677 
L 745.743493 153.711677 
L 747.916959 153.411697 
L 750.090425 151.086854 
L 752.26389 151.236843 
L 754.437356 152.886732 
L 756.610821 153.636682 
L 758.784287 153.636682 
L 760.957753 155.136581 
L 763.131218 154.986591 
L 765.304684 154.536621 
L 767.47815 152.586753 
L 769.651615 153.636682 
L 771.825081 154.536621 
L 773.998546 154.011657 
L 778.345478 151.536823 
L 780.518943 151.311838 
L 782.692409 151.461828 
L 784.865874 152.661747 
L 787.03934 151.986793 
L 789.212806 149.436965 
L 791.386271 147.937066 
L 793.559737 148.012061 
L 795.733203 149.136985 
L 797.906668 146.887136 
L 800.080134 147.712081 
L 802.253599 149.961929 
L 804.427065 148.61202 
L 806.600531 146.512162 
L 808.773996 147.787076 
L 810.947462 148.31204 
L 813.120928 150.036924 
L 815.294393 150.936864 
L 817.467859 151.086854 
L 819.641324 150.486894 
L 821.81479 149.436965 
L 823.988256 150.336904 
L 826.161721 149.886934 
L 828.335187 149.286975 
L 830.508653 149.436965 
L 832.682118 152.436763 
L 834.855584 152.736742 
L 837.029049 151.236843 
L 839.202515 152.136783 
L 841.375981 152.736742 
L 843.549446 152.286773 
L 845.722912 148.986995 
L 847.896377 148.237045 
L 850.069843 147.037126 
L 852.243309 144.412303 
L 854.416774 146.437167 
L 858.763706 144.262313 
L 860.937171 142.537429 
L 863.110637 144.337308 
L 865.284102 144.562293 
L 867.457568 142.612424 
L 869.631034 143.962333 
L 871.804499 145.612222 
L 873.977965 144.787278 
L 876.151431 143.812343 
L 878.324896 141.18752 
L 880.498362 141.18752 
L 882.671827 140.137591 
L 884.845293 141.03753 
L 887.018759 141.33751 
L 889.192224 141.412505 
L 891.36569 138.862677 
L 893.539156 140.512566 
L 895.712621 140.512566 
L 897.886087 140.362576 
L 900.059552 140.662556 
L 902.233018 144.037328 
L 904.406484 145.912202 
L 908.753415 145.912202 
L 910.92688 148.31204 
L 913.100346 148.76201 
L 915.273812 149.961929 
L 917.447277 152.061788 
L 919.620743 152.736742 
L 921.794209 155.361566 
L 923.967674 156.861465 
L 926.14114 157.161444 
L 928.314605 158.136379 
L 930.488071 155.811535 
L 934.835002 158.286369 
L 937.008468 156.48649 
L 939.181934 155.361566 
L 941.355399 155.361566 
L 945.70233 152.661747 
L 947.875796 153.336702 
L 950.049262 151.536823 
L 952.222727 151.686813 
L 952.222727 151.686813 
" clip-path="url(#p33d32ed29b)" style="fill: none; stroke-dasharray: 9.6,2.4,1.5,2.4; stroke-dashoffset: 0; stroke: #ee854a; stroke-width: 1.5"/>
   </g>
   <g id="patch_3">
    <path d="M 53.06 327.1 
L 53.06 30.12 
" style="fill: none; stroke: #cccccc; stroke-width: 1.25; stroke-linejoin: miter; stroke-linecap: square"/>
   </g>
   <g id="patch_4">
    <path d="M 995.04 327.1 
L 995.04 30.12 
" style="fill: none; stroke: #cccccc; stroke-width: 1.25; stroke-linejoin: miter; stroke-linecap: square"/>
   </g>
   <g id="patch_5">
    <path d="M 53.06 327.1 
L 995.04 327.1 
" style="fill: none; stroke: #cccccc; stroke-width: 1.25; stroke-linejoin: miter; stroke-linecap: square"/>
   </g>
   <g id="patch_6">
    <path d="M 53.06 30.12 
L 995.04 30.12 
" style="fill: none; stroke: #cccccc; stroke-width: 1.25; stroke-linejoin: miter; stroke-linecap: square"/>
   </g>
   <g id="text_15">
    <!-- BƯỞI — Wholesale Time Series + Rolling -->
    <g style="fill: #262626" transform="translate(412.242812 24.12) scale(0.12 -0.12)">
     <defs>
      <path id="ArialMT-42" d="M 469 0 
L 469 4581 
L 2188 4581 
Q 2713 4581 3030 4442 
Q 3347 4303 3526 4014 
Q 3706 3725 3706 3409 
Q 3706 3116 3547 2856 
Q 3388 2597 3066 2438 
Q 3481 2316 3704 2022 
Q 3928 1728 3928 1328 
Q 3928 1006 3792 729 
Q 3656 453 3456 303 
Q 3256 153 2954 76 
Q 2653 0 2216 0 
L 469 0 
z
M 1075 2656 
L 2066 2656 
Q 2469 2656 2644 2709 
Q 2875 2778 2992 2937 
Q 3109 3097 3109 3338 
Q 3109 3566 3000 3739 
Q 2891 3913 2687 3977 
Q 2484 4041 1991 4041 
L 1075 4041 
L 1075 2656 
z
M 1075 541 
L 2216 541 
Q 2509 541 2628 563 
Q 2838 600 2978 687 
Q 3119 775 3209 942 
Q 3300 1109 3300 1328 
Q 3300 1584 3169 1773 
Q 3038 1963 2805 2039 
Q 2572 2116 2134 2116 
L 1075 2116 
L 1075 541 
z
" transform="scale(0.015625)"/>
      <path id="ArialMT-1af" d="M 4603 3928 
L 4603 4581 
L 5206 4581 
L 5206 4066 
Q 5206 3575 5094 3381 
Q 4784 2841 4106 2809 
L 4106 1934 
Q 4106 1231 3950 838 
Q 3788 428 3388 178 
Q 2978 -78 2316 -78 
Q 1038 -78 678 788 
Q 503 1206 503 1934 
L 503 4581 
L 1109 4581 
L 1109 1938 
Q 1109 1347 1222 1056 
Q 1328 778 1600 623 
Q 1872 469 2263 469 
Q 2947 469 3216 772 
Q 3500 1091 3500 1938 
L 3500 4581 
L 4106 4581 
L 4106 3041 
Q 4594 3091 4813 3428 
Q 4897 3559 4897 3928 
L 4603 3928 
z
" transform="scale(0.015625)"/>
      <path id="ArialMT-1ede" d="M 934 2222 
Q 934 1409 1381 916 
Q 1813 441 2497 441 
Q 3197 441 3625 922 
Q 4066 1422 4066 2288 
Q 4066 3444 3325 3913 
Q 2959 4141 2506 4141 
Q 1809 4141 1400 3700 
Q 934 3200 934 2222 
z
M 4734 3978 
L 4734 4631 
L 5338 4631 
L 5338 4116 
Q 5338 3728 5219 3522 
Q 5056 3238 4609 3000 
Q 4691 2663 4691 2284 
Q 4691 1584 4408 1036 
Q 4125 488 3611 205 
Q 3097 -78 2500 -78 
Q 1856 -78 1345 233 
Q 834 544 571 1086 
Q 309 1628 309 2231 
Q 309 3356 922 4019 
Q 1519 4663 2503 4663 
Q 3213 4663 3761 4277 
Q 4309 3891 4538 3241 
Q 4822 3394 4938 3569 
Q 5031 3709 5028 3978 
L 4734 3978 
z
M 2339 5139 
Q 2517 5158 2567 5173 
Q 2732 5214 2735 5302 
Q 2739 5373 2648 5423 
Q 2517 5495 2232 5495 
Q 2135 5495 1939 5483 
L 1904 5777 
Q 2026 5802 2354 5798 
Q 2739 5795 2982 5673 
Q 3251 5542 3257 5333 
Q 3270 5017 2689 4945 
L 2689 4789 
L 2339 4789 
L 2339 5139 
z
" transform="scale(0.015625)"/>
      <path id="ArialMT-49" d="M 597 0 
L 597 4581 
L 1203 4581 
L 1203 0 
L 597 0 
z
" transform="scale(0.015625)"/>
      <path id="ArialMT-20" transform="scale(0.015625)"/>
      <path id="ArialMT-2014" d="M 0 1431 
L 0 1884 
L 6400 1884 
L 6400 1431 
L 0 1431 
z
" transform="scale(0.015625)"/>
      <path id="ArialMT-57" d="M 1294 0 
L 78 4581 
L 700 4581 
L 1397 1578 
Q 1509 1106 1591 641 
Q 1766 1375 1797 1488 
L 2669 4581 
L 3400 4581 
L 4056 2263 
Q 4303 1400 4413 641 
Q 4500 1075 4641 1638 
L 5359 4581 
L 5969 4581 
L 4713 0 
L 4128 0 
L 3163 3491 
Q 3041 3928 3019 4028 
Q 2947 3713 2884 3491 
L 1913 0 
L 1294 0 
z
" transform="scale(0.015625)"/>
      <path id="ArialMT-68" d="M 422 0 
L 422 4581 
L 984 4581 
L 984 2938 
Q 1378 3394 1978 3394 
Q 2347 3394 2619 3248 
Q 2891 3103 3008 2847 
Q 3125 2591 3125 2103 
L 3125 0 
L 2563 0 
L 2563 2103 
Q 2563 2525 2380 2717 
Q 2197 2909 1863 2909 
Q 1613 2909 1392 2779 
Q 1172 2650 1078 2428 
Q 984 2206 984 1816 
L 984 0 
L 422 0 
z
" transform="scale(0.015625)"/>
      <path id="ArialMT-6f" d="M 213 1659 
Q 213 2581 725 3025 
Q 1153 3394 1769 3394 
Q 2453 3394 2887 2945 
Q 3322 2497 3322 1706 
Q 3322 1066 3130 698 
Q 2938 331 2570 128 
Q 2203 -75 1769 -75 
Q 1072 -75 642 372 
Q 213 819 213 1659 
z
M 791 1659 
Q 791 1022 1069 705 
Q 1347 388 1769 388 
Q 2188 388 2466 706 
Q 2744 1025 2744 1678 
Q 2744 2294 2464 2611 
Q 2184 2928 1769 2928 
Q 1347 2928 1069 2612 
Q 791 2297 791 1659 
z
" transform="scale(0.015625)"/>
      <path id="ArialMT-6c" d="M 409 0 
L 409 4581 
L 972 4581 
L 972 0 
L 409 0 
z
" transform="scale(0.015625)"/>
      <path id="ArialMT-65" d="M 2694 1069 
L 3275 997 
Q 3138 488 2766 206 
Q 2394 -75 1816 -75 
Q 1088 -75 661 373 
Q 234 822 234 1631 
Q 234 2469 665 2931 
Q 1097 3394 1784 3394 
Q 2450 3394 2872 2941 
Q 3294 2488 3294 1666 
Q 3294 1616 3291 1516 
L 816 1516 
Q 847 969 1125 678 
Q 1403 388 1819 388 
Q 2128 388 2347 550 
Q 2566 713 2694 1069 
z
M 847 1978 
L 2700 1978 
Q 2663 2397 2488 2606 
Q 2219 2931 1791 2931 
Q 1403 2931 1139 2672 
Q 875 2413 847 1978 
z
" transform="scale(0.015625)"/>
      <path id="ArialMT-73" d="M 197 991 
L 753 1078 
Q 800 744 1014 566 
Q 1228 388 1613 388 
Q 2000 388 2187 545 
Q 2375 703 2375 916 
Q 2375 1106 2209 1216 
Q 2094 1291 1634 1406 
Q 1016 1563 777 1677 
Q 538 1791 414 1992 
Q 291 2194 291 2438 
Q 291 2659 392 2848 
Q 494 3038 669 3163 
Q 800 3259 1026 3326 
Q 1253 3394 1513 3394 
Q 1903 3394 2198 3281 
Q 2494 3169 2634 2976 
Q 2775 2784 2828 2463 
L 2278 2388 
Q 2241 2644 2061 2787 
Q 1881 2931 1553 2931 
Q 1166 2931 1000 2803 
Q 834 2675 834 2503 
Q 834 2394 903 2306 
Q 972 2216 1119 2156 
Q 1203 2125 1616 2013 
Q 2213 1853 2448 1751 
Q 2684 1650 2818 1456 
Q 2953 1263 2953 975 
Q 2953 694 2789 445 
Q 2625 197 2315 61 
Q 2006 -75 1616 -75 
Q 969 -75 630 194 
Q 291 463 197 991 
z
" transform="scale(0.015625)"/>
      <path id="ArialMT-61" d="M 2588 409 
Q 2275 144 1986 34 
Q 1697 -75 1366 -75 
Q 819 -75 525 192 
Q 231 459 231 875 
Q 231 1119 342 1320 
Q 453 1522 633 1644 
Q 813 1766 1038 1828 
Q 1203 1872 1538 1913 
Q 2219 1994 2541 2106 
Q 2544 2222 2544 2253 
Q 2544 2597 2384 2738 
Q 2169 2928 1744 2928 
Q 1347 2928 1158 2789 
Q 969 2650 878 2297 
L 328 2372 
Q 403 2725 575 2942 
Q 747 3159 1072 3276 
Q 1397 3394 1825 3394 
Q 2250 3394 2515 3294 
Q 2781 3194 2906 3042 
Q 3031 2891 3081 2659 
Q 3109 2516 3109 2141 
L 3109 1391 
Q 3109 606 3145 398 
Q 3181 191 3288 0 
L 2700 0 
Q 2613 175 2588 409 
z
M 2541 1666 
Q 2234 1541 1622 1453 
Q 1275 1403 1131 1340 
Q 988 1278 909 1158 
Q 831 1038 831 891 
Q 831 666 1001 516 
Q 1172 366 1500 366 
Q 1825 366 2078 508 
Q 2331 650 2450 897 
Q 2541 1088 2541 1459 
L 2541 1666 
z
" transform="scale(0.015625)"/>
      <path id="ArialMT-54" d="M 1659 0 
L 1659 4041 
L 150 4041 
L 150 4581 
L 3781 4581 
L 3781 4041 
L 2266 4041 
L 2266 0 
L 1659 0 
z
" transform="scale(0.015625)"/>
      <path id="ArialMT-69" d="M 425 3934 
L 425 4581 
L 988 4581 
L 988 3934 
L 425 3934 
z
M 425 0 
L 425 3319 
L 988 3319 
L 988 0 
L 425 0 
z
" transform="scale(0.015625)"/>
      <path id="ArialMT-6d" d="M 422 0 
L 422 3319 
L 925 3319 
L 925 2853 
Q 1081 3097 1340 3245 
Q 1600 3394 1931 3394 
Q 2300 3394 2536 3241 
Q 2772 3088 2869 2813 
Q 3263 3394 3894 3394 
Q 4388 3394 4653 3120 
Q 4919 2847 4919 2278 
L 4919 0 
L 4359 0 
L 4359 2091 
Q 4359 2428 4304 2576 
Q 4250 2725 4106 2815 
Q 3963 2906 3769 2906 
Q 3419 2906 3187 2673 
Q 2956 2441 2956 1928 
L 2956 0 
L 2394 0 
L 2394 2156 
Q 2394 2531 2256 2718 
Q 2119 2906 1806 2906 
Q 1569 2906 1367 2781 
Q 1166 2656 1075 2415 
Q 984 2175 984 1722 
L 984 0 
L 422 0 
z
" transform="scale(0.015625)"/>
      <path id="ArialMT-53" d="M 288 1472 
L 859 1522 
Q 900 1178 1048 958 
Q 1197 738 1509 602 
Q 1822 466 2213 466 
Q 2559 466 2825 569 
Q 3091 672 3220 851 
Q 3350 1031 3350 1244 
Q 3350 1459 3225 1620 
Q 3100 1781 2813 1891 
Q 2628 1963 1997 2114 
Q 1366 2266 1113 2400 
Q 784 2572 623 2826 
Q 463 3081 463 3397 
Q 463 3744 659 4045 
Q 856 4347 1234 4503 
Q 1613 4659 2075 4659 
Q 2584 4659 2973 4495 
Q 3363 4331 3572 4012 
Q 3781 3694 3797 3291 
L 3216 3247 
Q 3169 3681 2898 3903 
Q 2628 4125 2100 4125 
Q 1550 4125 1298 3923 
Q 1047 3722 1047 3438 
Q 1047 3191 1225 3031 
Q 1400 2872 2139 2705 
Q 2878 2538 3153 2413 
Q 3553 2228 3743 1945 
Q 3934 1663 3934 1294 
Q 3934 928 3725 604 
Q 3516 281 3123 101 
Q 2731 -78 2241 -78 
Q 1619 -78 1198 103 
Q 778 284 539 648 
Q 300 1013 288 1472 
z
" transform="scale(0.015625)"/>
      <path id="ArialMT-72" d="M 416 0 
L 416 3319 
L 922 3319 
L 922 2816 
Q 1116 3169 1280 3281 
Q 1444 3394 1641 3394 
Q 1925 3394 2219 3213 
L 2025 2691 
Q 1819 2813 1613 2813 
Q 1428 2813 1281 2702 
Q 1134 2591 1072 2394 
Q 978 2094 978 1738 
L 978 0 
L 416 0 
z
" transform="scale(0.015625)"/>
      <path id="ArialMT-2b" d="M 1603 741 
L 1603 1997 
L 356 1997 
L 356 2522 
L 1603 2522 
L 1603 3769 
L 2134 3769 
L 2134 2522 
L 3381 2522 
L 3381 1997 
L 2134 1997 
L 2134 741 
L 1603 741 
z
" transform="scale(0.015625)"/>
      <path id="ArialMT-52" d="M 503 0 
L 503 4581 
L 2534 4581 
Q 3147 4581 3465 4457 
Q 3784 4334 3975 4021 
Q 4166 3709 4166 3331 
Q 4166 2844 3850 2509 
Q 3534 2175 2875 2084 
Q 3116 1969 3241 1856 
Q 3506 1613 3744 1247 
L 4541 0 
L 3778 0 
L 3172 953 
Q 2906 1366 2734 1584 
Q 2563 1803 2427 1890 
Q 2291 1978 2150 2013 
Q 2047 2034 1813 2034 
L 1109 2034 
L 1109 0 
L 503 0 
z
M 1109 2559 
L 2413 2559 
Q 2828 2559 3062 2645 
Q 3297 2731 3419 2920 
Q 3541 3109 3541 3331 
Q 3541 3656 3305 3865 
Q 3069 4075 2559 4075 
L 1109 4075 
L 1109 2559 
z
" transform="scale(0.015625)"/>
      <path id="ArialMT-6e" d="M 422 0 
L 422 3319 
L 928 3319 
L 928 2847 
Q 1294 3394 1984 3394 
Q 2284 3394 2536 3286 
Q 2788 3178 2913 3003 
Q 3038 2828 3088 2588 
Q 3119 2431 3119 2041 
L 3119 0 
L 2556 0 
L 2556 2019 
Q 2556 2363 2490 2533 
Q 2425 2703 2258 2804 
Q 2091 2906 1866 2906 
Q 1506 2906 1245 2678 
Q 984 2450 984 1813 
L 984 0 
L 422 0 
z
" transform="scale(0.015625)"/>
      <path id="ArialMT-67" d="M 319 -275 
L 866 -356 
Q 900 -609 1056 -725 
Q 1266 -881 1628 -881 
Q 2019 -881 2231 -725 
Q 2444 -569 2519 -288 
Q 2563 -116 2559 434 
Q 2191 0 1641 0 
Q 956 0 581 494 
Q 206 988 206 1678 
Q 206 2153 378 2554 
Q 550 2956 876 3175 
Q 1203 3394 1644 3394 
Q 2231 3394 2613 2919 
L 2613 3319 
L 3131 3319 
L 3131 450 
Q 3131 -325 2973 -648 
Q 2816 -972 2473 -1159 
Q 2131 -1347 1631 -1347 
Q 1038 -1347 672 -1080 
Q 306 -813 319 -275 
z
M 784 1719 
Q 784 1066 1043 766 
Q 1303 466 1694 466 
Q 2081 466 2343 764 
Q 2606 1063 2606 1700 
Q 2606 2309 2336 2618 
Q 2066 2928 1684 2928 
Q 1309 2928 1046 2623 
Q 784 2319 784 1719 
z
" transform="scale(0.015625)"/>
     </defs>
     <use xlink:href="#ArialMT-42"/>
     <use xlink:href="#ArialMT-1af" transform="translate(66.699219 0)"/>
     <use xlink:href="#ArialMT-1ede" transform="translate(152.099609 0)"/>
     <use xlink:href="#ArialMT-49" transform="translate(237.841797 0)"/>
     <use xlink:href="#ArialMT-20" transform="translate(265.625 0)"/>
     <use xlink:href="#ArialMT-2014" transform="translate(293.408203 0)"/>
     <use xlink:href="#ArialMT-20" transform="translate(393.408203 0)"/>
     <use xlink:href="#ArialMT-57" transform="translate(421.191406 0)"/>
     <use xlink:href="#ArialMT-68" transform="translate(515.576172 0)"/>
     <use xlink:href="#ArialMT-6f" transform="translate(571.191406 0)"/>
     <use xlink:href="#ArialMT-6c" transform="translate(626.806641 0)"/>
     <use xlink:href="#ArialMT-65" transform="translate(649.023438 0)"/>
     <use xlink:href="#ArialMT-73" transform="translate(704.638672 0)"/>
     <use xlink:href="#ArialMT-61" transform="translate(754.638672 0)"/>
     <use xlink:href="#ArialMT-6c" transform="translate(810.253906 0)"/>
     <use xlink:href="#ArialMT-65" transform="translate(832.470703 0)"/>
     <use xlink:href="#ArialMT-20" transform="translate(888.085938 0)"/>
     <use xlink:href="#ArialMT-54" transform="translate(914.119141 0)"/>
     <use xlink:href="#ArialMT-69" transform="translate(971.453125 0)"/>
     <use xlink:href="#ArialMT-6d" transform="translate(993.669922 0)"/>
     <use xlink:href="#ArialMT-65" transform="translate(1076.970703 0)"/>
     <use xlink:href="#ArialMT-20" transform="translate(1132.585938 0)"/>
     <use xlink:href="#ArialMT-53" transform="translate(1160.369141 0)"/>
     <use xlink:href="#ArialMT-65" transform="translate(1227.068359 0)"/>
     <use xlink:href="#ArialMT-72" transform="translate(1282.683594 0)"/>
     <use xlink:href="#ArialMT-69" transform="translate(1315.984375 0)"/>
     <use xlink:href="#ArialMT-65" transform="translate(1338.201172 0)"/>
     <use xlink:href="#ArialMT-73" transform="translate(1393.816406 0)"/>
     <use xlink:href="#ArialMT-20" transform="translate(1443.816406 0)"/>
     <use xlink:href="#ArialMT-2b" transform="translate(1471.599609 0)"/>
     <use xlink:href="#ArialMT-20" transform="translate(1529.998047 0)"/>
     <use xlink:href="#ArialMT-52" transform="translate(1557.78125 0)"/>
     <use xlink:href="#ArialMT-6f" transform="translate(1629.998047 0)"/>
     <use xlink:href="#ArialMT-6c" transform="translate(1685.613281 0)"/>
     <use xlink:href="#ArialMT-6c" transform="translate(1707.830078 0)"/>
     <use xlink:href="#ArialMT-69" transform="translate(1730.046875 0)"/>
     <use xlink:href="#ArialMT-6e" transform="translate(1752.263672 0)"/>
     <use xlink:href="#ArialMT-67" transform="translate(1807.878906 0)"/>
    </g>
   </g>
   <g id="legend_1">
    <g id="patch_7">
     <path d="M 900.78375 85.599531 
L 987.34 85.599531 
Q 989.54 85.599531 989.54 83.399531 
L 989.54 37.82 
Q 989.54 35.62 987.34 35.62 
L 900.78375 35.62 
Q 898.58375 35.62 898.58375 37.82 
L 898.58375 83.399531 
Q 898.58375 85.599531 900.78375 85.599531 
z
" style="fill: #ffffff; opacity: 0.8; stroke: #cccccc; stroke-linejoin: miter"/>
    </g>
    <g id="line2d_18">
     <path d="M 902.98375 44.043594 
L 913.98375 44.043594 
L 924.98375 44.043594 
" style="fill: none; stroke: #e76f51; stroke-width: 1.5; stroke-linecap: round"/>
    </g>
    <g id="text_16">
     <!-- Wholesale -->
     <g style="fill: #262626" transform="translate(933.78375 47.893594) scale(0.11 -0.11)">
      <use xlink:href="#ArialMT-57"/>
      <use xlink:href="#ArialMT-68" transform="translate(94.384766 0)"/>
      <use xlink:href="#ArialMT-6f" transform="translate(150 0)"/>
      <use xlink:href="#ArialMT-6c" transform="translate(205.615234 0)"/>
      <use xlink:href="#ArialMT-65" transform="translate(227.832031 0)"/>
      <use xlink:href="#ArialMT-73" transform="translate(283.447266 0)"/>
      <use xlink:href="#ArialMT-61" transform="translate(333.447266 0)"/>
      <use xlink:href="#ArialMT-6c" transform="translate(389.0625 0)"/>
      <use xlink:href="#ArialMT-65" transform="translate(411.279297 0)"/>
     </g>
    </g>
    <g id="line2d_19">
     <path d="M 902.98375 59.603437 
L 913.98375 59.603437 
L 924.98375 59.603437 
" style="fill: none; stroke-dasharray: 5.55,2.4; stroke-dashoffset: 0; stroke: #4878d0; stroke-width: 1.5"/>
    </g>
    <g id="text_17">
     <!-- RM7 -->
     <g style="fill: #262626" transform="translate(933.78375 63.453437) scale(0.11 -0.11)">
      <defs>
       <path id="ArialMT-4d" d="M 475 0 
L 475 4581 
L 1388 4581 
L 2472 1338 
Q 2622 884 2691 659 
Q 2769 909 2934 1394 
L 4031 4581 
L 4847 4581 
L 4847 0 
L 4263 0 
L 4263 3834 
L 2931 0 
L 2384 0 
L 1059 3900 
L 1059 0 
L 475 0 
z
" transform="scale(0.015625)"/>
      </defs>
      <use xlink:href="#ArialMT-52"/>
      <use xlink:href="#ArialMT-4d" transform="translate(72.216797 0)"/>
      <use xlink:href="#ArialMT-37" transform="translate(155.517578 0)"/>
     </g>
    </g>
    <g id="line2d_20">
     <path d="M 902.98375 75.163281 
L 913.98375 75.163281 
L 924.98375 75.163281 
" style="fill: none; stroke-dasharray: 9.6,2.4,1.5,2.4; stroke-dashoffset: 0; stroke: #ee854a; stroke-width: 1.5"/>
    </g>
    <g id="text_18">
     <!-- RM30 -->
     <g style="fill: #262626" transform="translate(933.78375 79.013281) scale(0.11 -0.11)">
      <use xlink:href="#ArialMT-52"/>
      <use xlink:href="#ArialMT-4d" transform="translate(72.216797 0)"/>
      <use xlink:href="#ArialMT-33" transform="translate(155.517578 0)"/>
      <use xlink:href="#ArialMT-30" transform="translate(211.132812 0)"/>
     </g>
    </g>
   </g>
  </g>
 </g>
 <defs>
  <clipPath id="p33d32ed29b">
   <rect x="53.06" y="30.12" width="941.98" height="296.98"/>
  </clipPath>
 </defs>
</svg>
