<?xml version="1.0" encoding="utf-8" standalone="no"?>
<!DOCTYPE svg PUBLIC "-//W3C//DTD SVG 1.1//EN"
  "http://www.w3.org/Graphics/SVG/1.1/DTD/svg11.dtd">
<svg xmlns:xlink="http://www.w3.org/1999/xlink" width="432pt" height="360pt" viewBox="0 0 432 360" xmlns="http://www.w3.org/2000/svg" version="1.1">
 <metadata>
  <rdf:RDF xmlns:dc="http://purl.org/dc/elements/1.1/" xmlns:cc="http://creativecommons.org/ns#" xmlns:rdf="http://www.w3.org/1999/02/22-rdf-syntax-ns#">
   <cc:Work>
    <dc:type rdf:resource="http://purl.org/dc/dcmitype/StillImage"/>
    <dc:date>2025-12-12T00:30:22.274081</dc:date>
    <dc:format>image/svg+xml</dc:format>
    <dc:creator>
     <cc:Agent>
      <dc:title>Matplotlib v3.10.7, https://matplotlib.org/</dc:title>
     </cc:Agent>
    </dc:creator>
   </cc:Work>
  </rdf:RDF>
 </metadata>
 <defs>
  <style type="text/css">*{stroke-linejoin: round; stroke-linecap: butt}</style>
 </defs>
 <g id="figure_1">
  <g id="patch_1">
   <path d="M 0 360 
L 432 360 
L 432 0 
L 0 0 
z
" style="fill: #ffffff"/>
  </g>
  <g id="axes_1">
   <g id="patch_2">
    <path d="M 68.27625 347.04 
L 419.04 347.04 
L 419.04 30.12 
L 68.27625 30.12 
z
" style="fill: #ffffff"/>
   </g>
   <g id="matplotlib.axis_1">
    <g id="xtick_1"/>
   </g>
   <g id="matplotlib.axis_2">
    <g id="ytick_1">
     <g id="line2d_1">
      <path d="M 68.27625 332.634545 
L 419.04 332.634545 
" clip-path="url(#p0283f802f2)" style="fill: none; stroke: #cccccc; stroke-linecap: round"/>
     </g>
     <g id="text_1">
      <!-- 55000 -->
      <g style="fill: #262626" transform="translate(28.191094 336.571342) scale(0.11 -0.11)">
       <defs>
        <path id="ArialMT-35" d="M 266 1200 
L 856 1250 
Q 922 819 1161 601 
Q 1400 384 1738 384 
Q 2144 384 2425 690 
Q 2706 997 2706 1503 
Q 2706 1984 2436 2262 
Q 2166 2541 1728 2541 
Q 1456 2541 1237 2417 
Q 1019 2294 894 2097 
L 366 2166 
L 809 4519 
L 3088 4519 
L 3088 3981 
L 1259 3981 
L 1013 2750 
Q 1425 3038 1878 3038 
Q 2478 3038 2890 2622 
Q 3303 2206 3303 1553 
Q 3303 931 2941 478 
Q 2500 -78 1738 -78 
Q 1113 -78 717 272 
Q 322 622 266 1200 
z
" transform="scale(0.015625)"/>
        <path id="ArialMT-30" d="M 266 2259 
Q 266 3072 433 3567 
Q 600 4063 929 4331 
Q 1259 4600 1759 4600 
Q 2128 4600 2406 4451 
Q 2684 4303 2865 4023 
Q 3047 3744 3150 3342 
Q 3253 2941 3253 2259 
Q 3253 1453 3087 958 
Q 2922 463 2592 192 
Q 2263 -78 1759 -78 
Q 1097 -78 719 397 
Q 266 969 266 2259 
z
M 844 2259 
Q 844 1131 1108 757 
Q 1372 384 1759 384 
Q 2147 384 2411 759 
Q 2675 1134 2675 2259 
Q 2675 3391 2411 3762 
Q 2147 4134 1753 4134 
Q 1366 4134 1134 3806 
Q 844 3388 844 2259 
z
" transform="scale(0.015625)"/>
       </defs>
       <use xlink:href="#ArialMT-35"/>
       <use xlink:href="#ArialMT-35" transform="translate(55.615234 0)"/>
       <use xlink:href="#ArialMT-30" transform="translate(111.230469 0)"/>
       <use xlink:href="#ArialMT-30" transform="translate(166.845703 0)"/>
       <use xlink:href="#ArialMT-30" transform="translate(222.460938 0)"/>
      </g>
     </g>
    </g>
    <g id="ytick_2">
     <g id="line2d_2">
      <path d="M 68.27625 284.616364 
L 419.04 284.616364 
" clip-path="url(#p0283f802f2)" style="fill: none; stroke: #cccccc; stroke-linecap: round"/>
     </g>
     <g id="text_2">
      <!-- 60000 -->
      <g style="fill: #262626" transform="translate(28.191094 288.553161) scale(0.11 -0.11)">
       <defs>
        <path id="ArialMT-36" d="M 3184 3459 
L 2625 3416 
Q 2550 3747 2413 3897 
Q 2184 4138 1850 4138 
Q 1581 4138 1378 3988 
Q 1113 3794 959 3422 
Q 806 3050 800 2363 
Q 1003 2672 1297 2822 
Q 1591 2972 1913 2972 
Q 2475 2972 2870 2558 
Q 3266 2144 3266 1488 
Q 3266 1056 3080 686 
Q 2894 316 2569 119 
Q 2244 -78 1831 -78 
Q 1128 -78 684 439 
Q 241 956 241 2144 
Q 241 3472 731 4075 
Q 1159 4600 1884 4600 
Q 2425 4600 2770 4297 
Q 3116 3994 3184 3459 
z
M 888 1484 
Q 888 1194 1011 928 
Q 1134 663 1356 523 
Q 1578 384 1822 384 
Q 2178 384 2434 671 
Q 2691 959 2691 1453 
Q 2691 1928 2437 2201 
Q 2184 2475 1800 2475 
Q 1419 2475 1153 2201 
Q 888 1928 888 1484 
z
" transform="scale(0.015625)"/>
       </defs>
       <use xlink:href="#ArialMT-36"/>
       <use xlink:href="#ArialMT-30" transform="translate(55.615234 0)"/>
       <use xlink:href="#ArialMT-30" transform="translate(111.230469 0)"/>
       <use xlink:href="#ArialMT-30" transform="translate(166.845703 0)"/>
       <use xlink:href="#ArialMT-30" transform="translate(222.460938 0)"/>
      </g>
     </g>
    </g>
    <g id="ytick_3">
     <g id="line2d_3">
      <path d="M 68.27625 236.598182 
L 419.04 236.598182 
" clip-path="url(#p0283f802f2)" style="fill: none; stroke: #cccccc; stroke-linecap: round"/>
     </g>
     <g id="text_3">
      <!-- 65000 -->
      <g style="fill: #262626" transform="translate(28.191094 240.534979) scale(0.11 -0.11)">
       <use xlink:href="#ArialMT-36"/>
       <use xlink:href="#ArialMT-35" transform="translate(55.615234 0)"/>
       <use xlink:href="#ArialMT-30" transform="translate(111.230469 0)"/>
       <use xlink:href="#ArialMT-30" transform="translate(166.845703 0)"/>
       <use xlink:href="#ArialMT-30" transform="translate(222.460938 0)"/>
      </g>
     </g>
    </g>
    <g id="ytick_4">
     <g id="line2d_4">
      <path d="M 68.27625 188.58 
L 419.04 188.58 
" clip-path="url(#p0283f802f2)" style="fill: none; stroke: #cccccc; stroke-linecap: round"/>
     </g>
     <g id="text_4">
      <!-- 70000 -->
      <g style="fill: #262626" transform="translate(28.191094 192.516797) scale(0.11 -0.11)">
       <defs>
        <path id="ArialMT-37" d="M 303 3981 
L 303 4522 
L 3269 4522 
L 3269 4084 
Q 2831 3619 2401 2847 
Q 1972 2075 1738 1259 
Q 1569 684 1522 0 
L 944 0 
Q 953 541 1156 1306 
Q 1359 2072 1739 2783 
Q 2119 3494 2547 3981 
L 303 3981 
z
" transform="scale(0.015625)"/>
       </defs>
       <use xlink:href="#ArialMT-37"/>
       <use xlink:href="#ArialMT-30" transform="translate(55.615234 0)"/>
       <use xlink:href="#ArialMT-30" transform="translate(111.230469 0)"/>
       <use xlink:href="#ArialMT-30" transform="translate(166.845703 0)"/>
       <use xlink:href="#ArialMT-30" transform="translate(222.460938 0)"/>
      </g>
     </g>
    </g>
    <g id="ytick_5">
     <g id="line2d_5">
      <path d="M 68.27625 140.561818 
L 419.04 140.561818 
" clip-path="url(#p0283f802f2)" style="fill: none; stroke: #cccccc; stroke-linecap: round"/>
     </g>
     <g id="text_5">
      <!-- 75000 -->
      <g style="fill: #262626" transform="translate(28.191094 144.498615) scale(0.11 -0.11)">
       <use xlink:href="#ArialMT-37"/>
       <use xlink:href="#ArialMT-35" transform="translate(55.615234 0)"/>
       <use xlink:href="#ArialMT-30" transform="translate(111.230469 0)"/>
       <use xlink:href="#ArialMT-30" transform="translate(166.845703 0)"/>
       <use xlink:href="#ArialMT-30" transform="translate(222.460938 0)"/>
      </g>
     </g>
    </g>
    <g id="ytick_6">
     <g id="line2d_6">
      <path d="M 68.27625 92.543636 
L 419.04 92.543636 
" clip-path="url(#p0283f802f2)" style="fill: none; stroke: #cccccc; stroke-linecap: round"/>
     </g>
     <g id="text_6">
      <!-- 80000 -->
      <g style="fill: #262626" transform="translate(28.191094 96.480433) scale(0.11 -0.11)">
       <defs>
        <path id="ArialMT-38" d="M 1131 2484 
Q 781 2613 612 2850 
Q 444 3088 444 3419 
Q 444 3919 803 4259 
Q 1163 4600 1759 4600 
Q 2359 4600 2725 4251 
Q 3091 3903 3091 3403 
Q 3091 3084 2923 2848 
Q 2756 2613 2416 2484 
Q 2838 2347 3058 2040 
Q 3278 1734 3278 1309 
Q 3278 722 2862 322 
Q 2447 -78 1769 -78 
Q 1091 -78 675 323 
Q 259 725 259 1325 
Q 259 1772 486 2073 
Q 713 2375 1131 2484 
z
M 1019 3438 
Q 1019 3113 1228 2906 
Q 1438 2700 1772 2700 
Q 2097 2700 2305 2904 
Q 2513 3109 2513 3406 
Q 2513 3716 2298 3927 
Q 2084 4138 1766 4138 
Q 1444 4138 1231 3931 
Q 1019 3725 1019 3438 
z
M 838 1322 
Q 838 1081 952 856 
Q 1066 631 1291 507 
Q 1516 384 1775 384 
Q 2178 384 2440 643 
Q 2703 903 2703 1303 
Q 2703 1709 2433 1975 
Q 2163 2241 1756 2241 
Q 1359 2241 1098 1978 
Q 838 1716 838 1322 
z
" transform="scale(0.015625)"/>
       </defs>
       <use xlink:href="#ArialMT-38"/>
       <use xlink:href="#ArialMT-30" transform="translate(55.615234 0)"/>
       <use xlink:href="#ArialMT-30" transform="translate(111.230469 0)"/>
       <use xlink:href="#ArialMT-30" transform="translate(166.845703 0)"/>
       <use xlink:href="#ArialMT-30" transform="translate(222.460938 0)"/>
      </g>
     </g>
    </g>
    <g id="ytick_7">
     <g id="line2d_7">
      <path d="M 68.27625 44.525455 
L 419.04 44.525455 
" clip-path="url(#p0283f802f2)" style="fill: none; stroke: #cccccc; stroke-linecap: round"/>
     </g>
     <g id="text_7">
      <!-- 85000 -->
      <g style="fill: #262626" transform="translate(28.191094 48.462251) scale(0.11 -0.11)">
       <use xlink:href="#ArialMT-38"/>
       <use xlink:href="#ArialMT-35" transform="translate(55.615234 0)"/>
       <use xlink:href="#ArialMT-30" transform="translate(111.230469 0)"/>
       <use xlink:href="#ArialMT-30" transform="translate(166.845703 0)"/>
       <use xlink:href="#ArialMT-30" transform="translate(222.460938 0)"/>
      </g>
     </g>
    </g>
    <g id="text_8">
     <!-- price_retail -->
     <g style="fill: #262626" transform="translate(21.806094 217.924688) rotate(-90) scale(0.12 -0.12)">
      <defs>
       <path id="ArialMT-70" d="M 422 -1272 
L 422 3319 
L 934 3319 
L 934 2888 
Q 1116 3141 1344 3267 
Q 1572 3394 1897 3394 
Q 2322 3394 2647 3175 
Q 2972 2956 3137 2557 
Q 3303 2159 3303 1684 
Q 3303 1175 3120 767 
Q 2938 359 2589 142 
Q 2241 -75 1856 -75 
Q 1575 -75 1351 44 
Q 1128 163 984 344 
L 984 -1272 
L 422 -1272 
z
M 931 1641 
Q 931 1000 1190 694 
Q 1450 388 1819 388 
Q 2194 388 2461 705 
Q 2728 1022 2728 1688 
Q 2728 2322 2467 2637 
Q 2206 2953 1844 2953 
Q 1484 2953 1207 2617 
Q 931 2281 931 1641 
z
" transform="scale(0.015625)"/>
       <path id="ArialMT-72" d="M 416 0 
L 416 3319 
L 922 3319 
L 922 2816 
Q 1116 3169 1280 3281 
Q 1444 3394 1641 3394 
Q 1925 3394 2219 3213 
L 2025 2691 
Q 1819 2813 1613 2813 
Q 1428 2813 1281 2702 
Q 1134 2591 1072 2394 
Q 978 2094 978 1738 
L 978 0 
L 416 0 
z
" transform="scale(0.015625)"/>
       <path id="ArialMT-69" d="M 425 3934 
L 425 4581 
L 988 4581 
L 988 3934 
L 425 3934 
z
M 425 0 
L 425 3319 
L 988 3319 
L 988 0 
L 425 0 
z
" transform="scale(0.015625)"/>
       <path id="ArialMT-63" d="M 2588 1216 
L 3141 1144 
Q 3050 572 2676 248 
Q 2303 -75 1759 -75 
Q 1078 -75 664 370 
Q 250 816 250 1647 
Q 250 2184 428 2587 
Q 606 2991 970 3192 
Q 1334 3394 1763 3394 
Q 2303 3394 2647 3120 
Q 2991 2847 3088 2344 
L 2541 2259 
Q 2463 2594 2264 2762 
Q 2066 2931 1784 2931 
Q 1359 2931 1093 2626 
Q 828 2322 828 1663 
Q 828 994 1084 691 
Q 1341 388 1753 388 
Q 2084 388 2306 591 
Q 2528 794 2588 1216 
z
" transform="scale(0.015625)"/>
       <path id="ArialMT-65" d="M 2694 1069 
L 3275 997 
Q 3138 488 2766 206 
Q 2394 -75 1816 -75 
Q 1088 -75 661 373 
Q 234 822 234 1631 
Q 234 2469 665 2931 
Q 1097 3394 1784 3394 
Q 2450 3394 2872 2941 
Q 3294 2488 3294 1666 
Q 3294 1616 3291 1516 
L 816 1516 
Q 847 969 1125 678 
Q 1403 388 1819 388 
Q 2128 388 2347 550 
Q 2566 713 2694 1069 
z
M 847 1978 
L 2700 1978 
Q 2663 2397 2488 2606 
Q 2219 2931 1791 2931 
Q 1403 2931 1139 2672 
Q 875 2413 847 1978 
z
" transform="scale(0.015625)"/>
       <path id="ArialMT-5f" d="M -97 -1272 
L -97 -866 
L 3631 -866 
L 3631 -1272 
L -97 -1272 
z
" transform="scale(0.015625)"/>
       <path id="ArialMT-74" d="M 1650 503 
L 1731 6 
Q 1494 -44 1306 -44 
Q 1000 -44 831 53 
Q 663 150 594 308 
Q 525 466 525 972 
L 525 2881 
L 113 2881 
L 113 3319 
L 525 3319 
L 525 4141 
L 1084 4478 
L 1084 3319 
L 1650 3319 
L 1650 2881 
L 1084 2881 
L 1084 941 
Q 1084 700 1114 631 
Q 1144 563 1211 522 
Q 1278 481 1403 481 
Q 1497 481 1650 503 
z
" transform="scale(0.015625)"/>
       <path id="ArialMT-61" d="M 2588 409 
Q 2275 144 1986 34 
Q 1697 -75 1366 -75 
Q 819 -75 525 192 
Q 231 459 231 875 
Q 231 1119 342 1320 
Q 453 1522 633 1644 
Q 813 1766 1038 1828 
Q 1203 1872 1538 1913 
Q 2219 1994 2541 2106 
Q 2544 2222 2544 2253 
Q 2544 2597 2384 2738 
Q 2169 2928 1744 2928 
Q 1347 2928 1158 2789 
Q 969 2650 878 2297 
L 328 2372 
Q 403 2725 575 2942 
Q 747 3159 1072 3276 
Q 1397 3394 1825 3394 
Q 2250 3394 2515 3294 
Q 2781 3194 2906 3042 
Q 3031 2891 3081 2659 
Q 3109 2516 3109 2141 
L 3109 1391 
Q 3109 606 3145 398 
Q 3181 191 3288 0 
L 2700 0 
Q 2613 175 2588 409 
z
M 2541 1666 
Q 2234 1541 1622 1453 
Q 1275 1403 1131 1340 
Q 988 1278 909 1158 
Q 831 1038 831 891 
Q 831 666 1001 516 
Q 1172 366 1500 366 
Q 1825 366 2078 508 
Q 2331 650 2450 897 
Q 2541 1088 2541 1459 
L 2541 1666 
z
" transform="scale(0.015625)"/>
       <path id="ArialMT-6c" d="M 409 0 
L 409 4581 
L 972 4581 
L 972 0 
L 409 0 
z
" transform="scale(0.015625)"/>
      </defs>
      <use xlink:href="#ArialMT-70"/>
      <use xlink:href="#ArialMT-72" transform="translate(55.615234 0)"/>
      <use xlink:href="#ArialMT-69" transform="translate(88.916016 0)"/>
      <use xlink:href="#ArialMT-63" transform="translate(111.132812 0)"/>
      <use xlink:href="#ArialMT-65" transform="translate(161.132812 0)"/>
      <use xlink:href="#ArialMT-5f" transform="translate(216.748047 0)"/>
      <use xlink:href="#ArialMT-72" transform="translate(272.363281 0)"/>
      <use xlink:href="#ArialMT-65" transform="translate(305.664062 0)"/>
      <use xlink:href="#ArialMT-74" transform="translate(361.279297 0)"/>
      <use xlink:href="#ArialMT-61" transform="translate(389.0625 0)"/>
      <use xlink:href="#ArialMT-69" transform="translate(444.677734 0)"/>
      <use xlink:href="#ArialMT-6c" transform="translate(466.894531 0)"/>
     </g>
    </g>
   </g>
   <g id="patch_3">
    <path d="M 103.352625 284.616364 
L 383.963625 284.616364 
L 383.963625 236.598182 
L 103.352625 236.598182 
L 103.352625 284.616364 
z
" clip-path="url(#p0283f802f2)" style="fill: #597dbf; stroke: #545454; stroke-linejoin: miter"/>
   </g>
   <g id="line2d_8">
    <path d="M 243.658125 284.616364 
L 243.658125 332.634545 
" clip-path="url(#p0283f802f2)" style="fill: none; stroke: #545454"/>
   </g>
   <g id="line2d_9">
    <path d="M 243.658125 236.598182 
L 243.658125 164.570909 
" clip-path="url(#p0283f802f2)" style="fill: none; stroke: #545454"/>
   </g>
   <g id="line2d_10">
    <path d="M 173.505375 332.634545 
L 313.810875 332.634545 
" clip-path="url(#p0283f802f2)" style="fill: none; stroke: #545454; stroke-linecap: round"/>
   </g>
   <g id="line2d_11">
    <path d="M 173.505375 164.570909 
L 313.810875 164.570909 
" clip-path="url(#p0283f802f2)" style="fill: none; stroke: #545454; stroke-linecap: round"/>
   </g>
   <g id="line2d_12">
    <defs>
     <path id="m963df52f86" d="M 0 3 
C 0.795609 3 1.55874 2.683901 2.12132 2.12132 
C 2.683901 1.55874 3 0.795609 3 0 
C 3 -0.795609 2.683901 -1.55874 2.12132 -2.12132 
C 1.55874 -2.683901 0.795609 -3 0 -3 
C -0.795609 -3 -1.55874 -2.683901 -2.12132 -2.12132 
C -2.683901 -1.55874 -3 -0.795609 -3 0 
C -3 0.795609 -2.683901 1.55874 -2.12132 2.12132 
C -1.55874 2.683901 -0.795609 3 0 3 
z
" style="stroke: #545454"/>
    </defs>
    <g clip-path="url(#p0283f802f2)">
     <use xlink:href="#m963df52f86" x="243.658125" y="140.561818" style="fill-opacity: 0; stroke: #545454"/>
     <use xlink:href="#m963df52f86" x="243.658125" y="92.543636" style="fill-opacity: 0; stroke: #545454"/>
     <use xlink:href="#m963df52f86" x="243.658125" y="140.561818" style="fill-opacity: 0; stroke: #545454"/>
     <use xlink:href="#m963df52f86" x="243.658125" y="133.702037" style="fill-opacity: 0; stroke: #545454"/>
     <use xlink:href="#m963df52f86" x="243.658125" y="126.842351" style="fill-opacity: 0; stroke: #545454"/>
     <use xlink:href="#m963df52f86" x="243.658125" y="119.98257" style="fill-opacity: 0; stroke: #545454"/>
     <use xlink:href="#m963df52f86" x="243.658125" y="113.122885" style="fill-opacity: 0; stroke: #545454"/>
     <use xlink:href="#m963df52f86" x="243.658125" y="106.263103" style="fill-opacity: 0; stroke: #545454"/>
     <use xlink:href="#m963df52f86" x="243.658125" y="99.403418" style="fill-opacity: 0; stroke: #545454"/>
     <use xlink:href="#m963df52f86" x="243.658125" y="92.543636" style="fill-opacity: 0; stroke: #545454"/>
     <use xlink:href="#m963df52f86" x="243.658125" y="108.549729" style="fill-opacity: 0; stroke: #545454"/>
     <use xlink:href="#m963df52f86" x="243.658125" y="124.555726" style="fill-opacity: 0; stroke: #545454"/>
     <use xlink:href="#m963df52f86" x="243.658125" y="140.561818" style="fill-opacity: 0; stroke: #545454"/>
     <use xlink:href="#m963df52f86" x="243.658125" y="133.702037" style="fill-opacity: 0; stroke: #545454"/>
     <use xlink:href="#m963df52f86" x="243.658125" y="126.842351" style="fill-opacity: 0; stroke: #545454"/>
     <use xlink:href="#m963df52f86" x="243.658125" y="119.98257" style="fill-opacity: 0; stroke: #545454"/>
     <use xlink:href="#m963df52f86" x="243.658125" y="113.122885" style="fill-opacity: 0; stroke: #545454"/>
     <use xlink:href="#m963df52f86" x="243.658125" y="106.263103" style="fill-opacity: 0; stroke: #545454"/>
     <use xlink:href="#m963df52f86" x="243.658125" y="99.403418" style="fill-opacity: 0; stroke: #545454"/>
     <use xlink:href="#m963df52f86" x="243.658125" y="92.543636" style="fill-opacity: 0; stroke: #545454"/>
     <use xlink:href="#m963df52f86" x="243.658125" y="92.543636" style="fill-opacity: 0; stroke: #545454"/>
     <use xlink:href="#m963df52f86" x="243.658125" y="92.543636" style="fill-opacity: 0; stroke: #545454"/>
     <use xlink:href="#m963df52f86" x="243.658125" y="92.543636" style="fill-opacity: 0; stroke: #545454"/>
     <use xlink:href="#m963df52f86" x="243.658125" y="92.543636" style="fill-opacity: 0; stroke: #545454"/>
     <use xlink:href="#m963df52f86" x="243.658125" y="92.543636" style="fill-opacity: 0; stroke: #545454"/>
     <use xlink:href="#m963df52f86" x="243.658125" y="92.543636" style="fill-opacity: 0; stroke: #545454"/>
     <use xlink:href="#m963df52f86" x="243.658125" y="92.543636" style="fill-opacity: 0; stroke: #545454"/>
     <use xlink:href="#m963df52f86" x="243.658125" y="92.543636" style="fill-opacity: 0; stroke: #545454"/>
     <use xlink:href="#m963df52f86" x="243.658125" y="92.543636" style="fill-opacity: 0; stroke: #545454"/>
     <use xlink:href="#m963df52f86" x="243.658125" y="92.543636" style="fill-opacity: 0; stroke: #545454"/>
     <use xlink:href="#m963df52f86" x="243.658125" y="92.543636" style="fill-opacity: 0; stroke: #545454"/>
     <use xlink:href="#m963df52f86" x="243.658125" y="92.543636" style="fill-opacity: 0; stroke: #545454"/>
     <use xlink:href="#m963df52f86" x="243.658125" y="92.543636" style="fill-opacity: 0; stroke: #545454"/>
     <use xlink:href="#m963df52f86" x="243.658125" y="92.543636" style="fill-opacity: 0; stroke: #545454"/>
     <use xlink:href="#m963df52f86" x="243.658125" y="80.539091" style="fill-opacity: 0; stroke: #545454"/>
     <use xlink:href="#m963df52f86" x="243.658125" y="68.534545" style="fill-opacity: 0; stroke: #545454"/>
     <use xlink:href="#m963df52f86" x="243.658125" y="56.53" style="fill-opacity: 0; stroke: #545454"/>
     <use xlink:href="#m963df52f86" x="243.658125" y="44.525455" style="fill-opacity: 0; stroke: #545454"/>
     <use xlink:href="#m963df52f86" x="243.658125" y="58.244921" style="fill-opacity: 0; stroke: #545454"/>
     <use xlink:href="#m963df52f86" x="243.658125" y="71.964388" style="fill-opacity: 0; stroke: #545454"/>
     <use xlink:href="#m963df52f86" x="243.658125" y="85.683855" style="fill-opacity: 0; stroke: #545454"/>
     <use xlink:href="#m963df52f86" x="243.658125" y="99.403418" style="fill-opacity: 0; stroke: #545454"/>
     <use xlink:href="#m963df52f86" x="243.658125" y="113.122885" style="fill-opacity: 0; stroke: #545454"/>
     <use xlink:href="#m963df52f86" x="243.658125" y="126.842351" style="fill-opacity: 0; stroke: #545454"/>
     <use xlink:href="#m963df52f86" x="243.658125" y="140.561818" style="fill-opacity: 0; stroke: #545454"/>
    </g>
   </g>
   <g id="line2d_13">
    <path d="M 103.352625 236.598182 
L 383.963625 236.598182 
" clip-path="url(#p0283f802f2)" style="fill: none; stroke: #545454"/>
   </g>
   <g id="patch_4">
    <path d="M 68.27625 347.04 
L 68.27625 30.12 
" style="fill: none; stroke: #cccccc; stroke-width: 1.25; stroke-linejoin: miter; stroke-linecap: square"/>
   </g>
   <g id="patch_5">
    <path d="M 419.04 347.04 
L 419.04 30.12 
" style="fill: none; stroke: #cccccc; stroke-width: 1.25; stroke-linejoin: miter; stroke-linecap: square"/>
   </g>
   <g id="patch_6">
    <path d="M 68.27625 347.04 
L 419.04 347.04 
" style="fill: none; stroke: #cccccc; stroke-width: 1.25; stroke-linejoin: miter; stroke-linecap: square"/>
   </g>
   <g id="patch_7">
    <path d="M 68.27625 30.12 
L 419.04 30.12 
" style="fill: none; stroke: #cccccc; stroke-width: 1.25; stroke-linejoin: miter; stroke-linecap: square"/>
   </g>
   <g id="text_9">
    <!-- BƯỞI — price_retail -->
    <g style="fill: #262626" transform="translate(189.04125 24.12) scale(0.12 -0.12)">
     <defs>
      <path id="ArialMT-42" d="M 469 0 
L 469 4581 
L 2188 4581 
Q 2713 4581 3030 4442 
Q 3347 4303 3526 4014 
Q 3706 3725 3706 3409 
Q 3706 3116 3547 2856 
Q 3388 2597 3066 2438 
Q 3481 2316 3704 2022 
Q 3928 1728 3928 1328 
Q 3928 1006 3792 729 
Q 3656 453 3456 303 
Q 3256 153 2954 76 
Q 2653 0 2216 0 
L 469 0 
z
M 1075 2656 
L 2066 2656 
Q 2469 2656 2644 2709 
Q 2875 2778 2992 2937 
Q 3109 3097 3109 3338 
Q 3109 3566 3000 3739 
Q 2891 3913 2687 3977 
Q 2484 4041 1991 4041 
L 1075 4041 
L 1075 2656 
z
M 1075 541 
L 2216 541 
Q 2509 541 2628 563 
Q 2838 600 2978 687 
Q 3119 775 3209 942 
Q 3300 1109 3300 1328 
Q 3300 1584 3169 1773 
Q 3038 1963 2805 2039 
Q 2572 2116 2134 2116 
L 1075 2116 
L 1075 541 
z
" transform="scale(0.015625)"/>
      <path id="ArialMT-1af" d="M 4603 3928 
L 4603 4581 
L 5206 4581 
L 5206 4066 
Q 5206 3575 5094 3381 
Q 4784 2841 4106 2809 
L 4106 1934 
Q 4106 1231 3950 838 
Q 3788 428 3388 178 
Q 2978 -78 2316 -78 
Q 1038 -78 678 788 
Q 503 1206 503 1934 
L 503 4581 
L 1109 4581 
L 1109 1938 
Q 1109 1347 1222 1056 
Q 1328 778 1600 623 
Q 1872 469 2263 469 
Q 2947 469 3216 772 
Q 3500 1091 3500 1938 
L 3500 4581 
L 4106 4581 
L 4106 3041 
Q 4594 3091 4813 3428 
Q 4897 3559 4897 3928 
L 4603 3928 
z
" transform="scale(0.015625)"/>
      <path id="ArialMT-1ede" d="M 934 2222 
Q 934 1409 1381 916 
Q 1813 441 2497 441 
Q 3197 441 3625 922 
Q 4066 1422 4066 2288 
Q 4066 3444 3325 3913 
Q 2959 4141 2506 4141 
Q 1809 4141 1400 3700 
Q 934 3200 934 2222 
z
M 4734 3978 
L 4734 4631 
L 5338 4631 
L 5338 4116 
Q 5338 3728 5219 3522 
Q 5056 3238 4609 3000 
Q 4691 2663 4691 2284 
Q 4691 1584 4408 1036 
Q 4125 488 3611 205 
Q 3097 -78 2500 -78 
Q 1856 -78 1345 233 
Q 834 544 571 1086 
Q 309 1628 309 2231 
Q 309 3356 922 4019 
Q 1519 4663 2503 4663 
Q 3213 4663 3761 4277 
Q 4309 3891 4538 3241 
Q 4822 3394 4938 3569 
Q 5031 3709 5028 3978 
L 4734 3978 
z
M 2339 5139 
Q 2517 5158 2567 5173 
Q 2732 5214 2735 5302 
Q 2739 5373 2648 5423 
Q 2517 5495 2232 5495 
Q 2135 5495 1939 5483 
L 1904 5777 
Q 2026 5802 2354 5798 
Q 2739 5795 2982 5673 
Q 3251 5542 3257 5333 
Q 3270 5017 2689 4945 
L 2689 4789 
L 2339 4789 
L 2339 5139 
z
" transform="scale(0.015625)"/>
      <path id="ArialMT-49" d="M 597 0 
L 597 4581 
L 1203 4581 
L 1203 0 
L 597 0 
z
" transform="scale(0.015625)"/>
      <path id="ArialMT-20" transform="scale(0.015625)"/>
      <path id="ArialMT-2014" d="M 0 1431 
L 0 1884 
L 6400 1884 
L 6400 1431 
L 0 1431 
z
" transform="scale(0.015625)"/>
     </defs>
     <use xlink:href="#ArialMT-42"/>
     <use xlink:href="#ArialMT-1af" transform="translate(66.699219 0)"/>
     <use xlink:href="#ArialMT-1ede" transform="translate(152.099609 0)"/>
     <use xlink:href="#ArialMT-49" transform="translate(237.841797 0)"/>
     <use xlink:href="#ArialMT-20" transform="translate(265.625 0)"/>
     <use xlink:href="#ArialMT-2014" transform="translate(293.408203 0)"/>
     <use xlink:href="#ArialMT-20" transform="translate(393.408203 0)"/>
     <use xlink:href="#ArialMT-70" transform="translate(421.191406 0)"/>
     <use xlink:href="#ArialMT-72" transform="translate(476.806641 0)"/>
     <use xlink:href="#ArialMT-69" transform="translate(510.107422 0)"/>
     <use xlink:href="#ArialMT-63" transform="translate(532.324219 0)"/>
     <use xlink:href="#ArialMT-65" transform="translate(582.324219 0)"/>
     <use xlink:href="#ArialMT-5f" transform="translate(637.939453 0)"/>
     <use xlink:href="#ArialMT-72" transform="translate(693.554688 0)"/>
     <use xlink:href="#ArialMT-65" transform="translate(726.855469 0)"/>
     <use xlink:href="#ArialMT-74" transform="translate(782.470703 0)"/>
     <use xlink:href="#ArialMT-61" transform="translate(810.253906 0)"/>
     <use xlink:href="#ArialMT-69" transform="translate(865.869141 0)"/>
     <use xlink:href="#ArialMT-6c" transform="translate(888.085938 0)"/>
    </g>
   </g>
  </g>
 </g>
 <defs>
  <clipPath id="p0283f802f2">
   <rect x="68.27625" y="30.12" width="350.76375" height="316.92"/>
  </clipPath>
 </defs>
</svg>
