<?xml version="1.0" encoding="utf-8" standalone="no"?>
<!DOCTYPE svg PUBLIC "-//W3C//DTD SVG 1.1//EN"
  "http://www.w3.org/Graphics/SVG/1.1/DTD/svg11.dtd">
<svg xmlns:xlink="http://www.w3.org/1999/xlink" width="1008pt" height="360pt" viewBox="0 0 1008 360" xmlns="http://www.w3.org/2000/svg" version="1.1">
 <metadata>
  <rdf:RDF xmlns:dc="http://purl.org/dc/elements/1.1/" xmlns:cc="http://creativecommons.org/ns#" xmlns:rdf="http://www.w3.org/1999/02/22-rdf-syntax-ns#">
   <cc:Work>
    <dc:type rdf:resource="http://purl.org/dc/dcmitype/StillImage"/>
    <dc:date>2025-12-12T00:30:23.044841</dc:date>
    <dc:format>image/svg+xml</dc:format>
    <dc:creator>
     <cc:Agent>
      <dc:title>Matplotlib v3.10.7, https://matplotlib.org/</dc:title>
     </cc:Agent>
    </dc:creator>
   </cc:Work>
  </rdf:RDF>
 </metadata>
 <defs>
  <style type="text/css">*{stroke-linejoin: round; stroke-linecap: butt}</style>
 </defs>
 <g id="figure_1">
  <g id="patch_1">
   <path d="M 0 360 
L 1008 360 
L 1008 0 
L 0 0 
z
" style="fill: #ffffff"/>
  </g>
  <g id="axes_1">
   <g id="patch_2">
    <path d="M 59.225 327.1 
L 995.04 327.1 
L 995.04 30.12 
L 59.225 30.12 
z
" style="fill: #ffffff"/>
   </g>
   <g id="matplotlib.axis_1">
    <g id="xtick_1">
     <g id="line2d_1">
      <path d="M 101.762045 327.1 
L 101.762045 30.12 
" clip-path="url(#p1bc22cde43)" style="fill: none; stroke: #cccccc; stroke-linecap: round"/>
     </g>
     <g id="text_1">
      <!-- 2024-09 -->
      <g style="fill: #262626" transform="translate(81.579624 344.473594) scale(0.11 -0.11)">
       <defs>
        <path id="ArialMT-32" d="M 3222 541 
L 3222 0 
L 194 0 
Q 188 203 259 391 
Q 375 700 629 1000 
Q 884 1300 1366 1694 
Q 2113 2306 2375 2664 
Q 2638 3022 2638 3341 
Q 2638 3675 2398 3904 
Q 2159 4134 1775 4134 
Q 1369 4134 1125 3890 
Q 881 3647 878 3216 
L 300 3275 
Q 359 3922 746 4261 
Q 1134 4600 1788 4600 
Q 2447 4600 2831 4234 
Q 3216 3869 3216 3328 
Q 3216 3053 3103 2787 
Q 2991 2522 2730 2228 
Q 2469 1934 1863 1422 
Q 1356 997 1212 845 
Q 1069 694 975 541 
L 3222 541 
z
" transform="scale(0.015625)"/>
        <path id="ArialMT-30" d="M 266 2259 
Q 266 3072 433 3567 
Q 600 4063 929 4331 
Q 1259 4600 1759 4600 
Q 2128 4600 2406 4451 
Q 2684 4303 2865 4023 
Q 3047 3744 3150 3342 
Q 3253 2941 3253 2259 
Q 3253 1453 3087 958 
Q 2922 463 2592 192 
Q 2263 -78 1759 -78 
Q 1097 -78 719 397 
Q 266 969 266 2259 
z
M 844 2259 
Q 844 1131 1108 757 
Q 1372 384 1759 384 
Q 2147 384 2411 759 
Q 2675 1134 2675 2259 
Q 2675 3391 2411 3762 
Q 2147 4134 1753 4134 
Q 1366 4134 1134 3806 
Q 844 3388 844 2259 
z
" transform="scale(0.015625)"/>
        <path id="ArialMT-34" d="M 2069 0 
L 2069 1097 
L 81 1097 
L 81 1613 
L 2172 4581 
L 2631 4581 
L 2631 1613 
L 3250 1613 
L 3250 1097 
L 2631 1097 
L 2631 0 
L 2069 0 
z
M 2069 1613 
L 2069 3678 
L 634 1613 
L 2069 1613 
z
" transform="scale(0.015625)"/>
        <path id="ArialMT-2d" d="M 203 1375 
L 203 1941 
L 1931 1941 
L 1931 1375 
L 203 1375 
z
" transform="scale(0.015625)"/>
        <path id="ArialMT-39" d="M 350 1059 
L 891 1109 
Q 959 728 1153 556 
Q 1347 384 1650 384 
Q 1909 384 2104 503 
Q 2300 622 2425 820 
Q 2550 1019 2634 1356 
Q 2719 1694 2719 2044 
Q 2719 2081 2716 2156 
Q 2547 1888 2255 1720 
Q 1963 1553 1622 1553 
Q 1053 1553 659 1965 
Q 266 2378 266 3053 
Q 266 3750 677 4175 
Q 1088 4600 1706 4600 
Q 2153 4600 2523 4359 
Q 2894 4119 3086 3673 
Q 3278 3228 3278 2384 
Q 3278 1506 3087 986 
Q 2897 466 2520 194 
Q 2144 -78 1638 -78 
Q 1100 -78 759 220 
Q 419 519 350 1059 
z
M 2653 3081 
Q 2653 3566 2395 3850 
Q 2138 4134 1775 4134 
Q 1400 4134 1122 3828 
Q 844 3522 844 3034 
Q 844 2597 1108 2323 
Q 1372 2050 1759 2050 
Q 2150 2050 2401 2323 
Q 2653 2597 2653 3081 
z
" transform="scale(0.015625)"/>
       </defs>
       <use xlink:href="#ArialMT-32"/>
       <use xlink:href="#ArialMT-30" transform="translate(55.615234 0)"/>
       <use xlink:href="#ArialMT-32" transform="translate(111.230469 0)"/>
       <use xlink:href="#ArialMT-34" transform="translate(166.845703 0)"/>
       <use xlink:href="#ArialMT-2d" transform="translate(222.460938 0)"/>
       <use xlink:href="#ArialMT-30" transform="translate(255.761719 0)"/>
       <use xlink:href="#ArialMT-39" transform="translate(311.376953 0)"/>
      </g>
     </g>
    </g>
    <g id="xtick_2">
     <g id="line2d_2">
      <path d="M 233.47574 327.1 
L 233.47574 30.12 
" clip-path="url(#p1bc22cde43)" style="fill: none; stroke: #cccccc; stroke-linecap: round"/>
     </g>
     <g id="text_2">
      <!-- 2024-11 -->
      <g style="fill: #262626" transform="translate(213.698943 344.473594) scale(0.11 -0.11)">
       <defs>
        <path id="ArialMT-31" d="M 2384 0 
L 1822 0 
L 1822 3584 
Q 1619 3391 1289 3197 
Q 959 3003 697 2906 
L 697 3450 
Q 1169 3672 1522 3987 
Q 1875 4303 2022 4600 
L 2384 4600 
L 2384 0 
z
" transform="scale(0.015625)"/>
       </defs>
       <use xlink:href="#ArialMT-32"/>
       <use xlink:href="#ArialMT-30" transform="translate(55.615234 0)"/>
       <use xlink:href="#ArialMT-32" transform="translate(111.230469 0)"/>
       <use xlink:href="#ArialMT-34" transform="translate(166.845703 0)"/>
       <use xlink:href="#ArialMT-2d" transform="translate(222.460938 0)"/>
       <use xlink:href="#ArialMT-31" transform="translate(255.761719 0)"/>
       <use xlink:href="#ArialMT-31" transform="translate(304.001953 0)"/>
      </g>
     </g>
    </g>
    <g id="xtick_3">
     <g id="line2d_3">
      <path d="M 365.189434 327.1 
L 365.189434 30.12 
" clip-path="url(#p1bc22cde43)" style="fill: none; stroke: #cccccc; stroke-linecap: round"/>
     </g>
     <g id="text_3">
      <!-- 2025-01 -->
      <g style="fill: #262626" transform="translate(345.007012 344.473594) scale(0.11 -0.11)">
       <defs>
        <path id="ArialMT-35" d="M 266 1200 
L 856 1250 
Q 922 819 1161 601 
Q 1400 384 1738 384 
Q 2144 384 2425 690 
Q 2706 997 2706 1503 
Q 2706 1984 2436 2262 
Q 2166 2541 1728 2541 
Q 1456 2541 1237 2417 
Q 1019 2294 894 2097 
L 366 2166 
L 809 4519 
L 3088 4519 
L 3088 3981 
L 1259 3981 
L 1013 2750 
Q 1425 3038 1878 3038 
Q 2478 3038 2890 2622 
Q 3303 2206 3303 1553 
Q 3303 931 2941 478 
Q 2500 -78 1738 -78 
Q 1113 -78 717 272 
Q 322 622 266 1200 
z
" transform="scale(0.015625)"/>
       </defs>
       <use xlink:href="#ArialMT-32"/>
       <use xlink:href="#ArialMT-30" transform="translate(55.615234 0)"/>
       <use xlink:href="#ArialMT-32" transform="translate(111.230469 0)"/>
       <use xlink:href="#ArialMT-35" transform="translate(166.845703 0)"/>
       <use xlink:href="#ArialMT-2d" transform="translate(222.460938 0)"/>
       <use xlink:href="#ArialMT-30" transform="translate(255.761719 0)"/>
       <use xlink:href="#ArialMT-31" transform="translate(311.376953 0)"/>
      </g>
     </g>
    </g>
    <g id="xtick_4">
     <g id="line2d_4">
      <path d="M 492.584646 327.1 
L 492.584646 30.12 
" clip-path="url(#p1bc22cde43)" style="fill: none; stroke: #cccccc; stroke-linecap: round"/>
     </g>
     <g id="text_4">
      <!-- 2025-03 -->
      <g style="fill: #262626" transform="translate(472.402224 344.473594) scale(0.11 -0.11)">
       <defs>
        <path id="ArialMT-33" d="M 269 1209 
L 831 1284 
Q 928 806 1161 595 
Q 1394 384 1728 384 
Q 2125 384 2398 659 
Q 2672 934 2672 1341 
Q 2672 1728 2419 1979 
Q 2166 2231 1775 2231 
Q 1616 2231 1378 2169 
L 1441 2663 
Q 1497 2656 1531 2656 
Q 1891 2656 2178 2843 
Q 2466 3031 2466 3422 
Q 2466 3731 2256 3934 
Q 2047 4138 1716 4138 
Q 1388 4138 1169 3931 
Q 950 3725 888 3313 
L 325 3413 
Q 428 3978 793 4289 
Q 1159 4600 1703 4600 
Q 2078 4600 2393 4439 
Q 2709 4278 2876 4000 
Q 3044 3722 3044 3409 
Q 3044 3113 2884 2869 
Q 2725 2625 2413 2481 
Q 2819 2388 3044 2092 
Q 3269 1797 3269 1353 
Q 3269 753 2831 336 
Q 2394 -81 1725 -81 
Q 1122 -81 723 278 
Q 325 638 269 1209 
z
" transform="scale(0.015625)"/>
       </defs>
       <use xlink:href="#ArialMT-32"/>
       <use xlink:href="#ArialMT-30" transform="translate(55.615234 0)"/>
       <use xlink:href="#ArialMT-32" transform="translate(111.230469 0)"/>
       <use xlink:href="#ArialMT-35" transform="translate(166.845703 0)"/>
       <use xlink:href="#ArialMT-2d" transform="translate(222.460938 0)"/>
       <use xlink:href="#ArialMT-30" transform="translate(255.761719 0)"/>
       <use xlink:href="#ArialMT-33" transform="translate(311.376953 0)"/>
      </g>
     </g>
    </g>
    <g id="xtick_5">
     <g id="line2d_5">
      <path d="M 624.29834 327.1 
L 624.29834 30.12 
" clip-path="url(#p1bc22cde43)" style="fill: none; stroke: #cccccc; stroke-linecap: round"/>
     </g>
     <g id="text_5">
      <!-- 2025-05 -->
      <g style="fill: #262626" transform="translate(604.115918 344.473594) scale(0.11 -0.11)">
       <use xlink:href="#ArialMT-32"/>
       <use xlink:href="#ArialMT-30" transform="translate(55.615234 0)"/>
       <use xlink:href="#ArialMT-32" transform="translate(111.230469 0)"/>
       <use xlink:href="#ArialMT-35" transform="translate(166.845703 0)"/>
       <use xlink:href="#ArialMT-2d" transform="translate(222.460938 0)"/>
       <use xlink:href="#ArialMT-30" transform="translate(255.761719 0)"/>
       <use xlink:href="#ArialMT-35" transform="translate(311.376953 0)"/>
      </g>
     </g>
    </g>
    <g id="xtick_6">
     <g id="line2d_6">
      <path d="M 756.012034 327.1 
L 756.012034 30.12 
" clip-path="url(#p1bc22cde43)" style="fill: none; stroke: #cccccc; stroke-linecap: round"/>
     </g>
     <g id="text_6">
      <!-- 2025-07 -->
      <g style="fill: #262626" transform="translate(735.829612 344.473594) scale(0.11 -0.11)">
       <defs>
        <path id="ArialMT-37" d="M 303 3981 
L 303 4522 
L 3269 4522 
L 3269 4084 
Q 2831 3619 2401 2847 
Q 1972 2075 1738 1259 
Q 1569 684 1522 0 
L 944 0 
Q 953 541 1156 1306 
Q 1359 2072 1739 2783 
Q 2119 3494 2547 3981 
L 303 3981 
z
" transform="scale(0.015625)"/>
       </defs>
       <use xlink:href="#ArialMT-32"/>
       <use xlink:href="#ArialMT-30" transform="translate(55.615234 0)"/>
       <use xlink:href="#ArialMT-32" transform="translate(111.230469 0)"/>
       <use xlink:href="#ArialMT-35" transform="translate(166.845703 0)"/>
       <use xlink:href="#ArialMT-2d" transform="translate(222.460938 0)"/>
       <use xlink:href="#ArialMT-30" transform="translate(255.761719 0)"/>
       <use xlink:href="#ArialMT-37" transform="translate(311.376953 0)"/>
      </g>
     </g>
    </g>
    <g id="xtick_7">
     <g id="line2d_7">
      <path d="M 889.884969 327.1 
L 889.884969 30.12 
" clip-path="url(#p1bc22cde43)" style="fill: none; stroke: #cccccc; stroke-linecap: round"/>
     </g>
     <g id="text_7">
      <!-- 2025-09 -->
      <g style="fill: #262626" transform="translate(869.702547 344.473594) scale(0.11 -0.11)">
       <use xlink:href="#ArialMT-32"/>
       <use xlink:href="#ArialMT-30" transform="translate(55.615234 0)"/>
       <use xlink:href="#ArialMT-32" transform="translate(111.230469 0)"/>
       <use xlink:href="#ArialMT-35" transform="translate(166.845703 0)"/>
       <use xlink:href="#ArialMT-2d" transform="translate(222.460938 0)"/>
       <use xlink:href="#ArialMT-30" transform="translate(255.761719 0)"/>
       <use xlink:href="#ArialMT-39" transform="translate(311.376953 0)"/>
      </g>
     </g>
    </g>
   </g>
   <g id="matplotlib.axis_2">
    <g id="ytick_1">
     <g id="line2d_8">
      <path d="M 59.225 269.57085 
L 995.04 269.57085 
" clip-path="url(#p1bc22cde43)" style="fill: none; stroke: #cccccc; stroke-linecap: round"/>
     </g>
     <g id="text_8">
      <!-- 60000 -->
      <g style="fill: #262626" transform="translate(19.139844 273.507647) scale(0.11 -0.11)">
       <defs>
        <path id="ArialMT-36" d="M 3184 3459 
L 2625 3416 
Q 2550 3747 2413 3897 
Q 2184 4138 1850 4138 
Q 1581 4138 1378 3988 
Q 1113 3794 959 3422 
Q 806 3050 800 2363 
Q 1003 2672 1297 2822 
Q 1591 2972 1913 2972 
Q 2475 2972 2870 2558 
Q 3266 2144 3266 1488 
Q 3266 1056 3080 686 
Q 2894 316 2569 119 
Q 2244 -78 1831 -78 
Q 1128 -78 684 439 
Q 241 956 241 2144 
Q 241 3472 731 4075 
Q 1159 4600 1884 4600 
Q 2425 4600 2770 4297 
Q 3116 3994 3184 3459 
z
M 888 1484 
Q 888 1194 1011 928 
Q 1134 663 1356 523 
Q 1578 384 1822 384 
Q 2178 384 2434 671 
Q 2691 959 2691 1453 
Q 2691 1928 2437 2201 
Q 2184 2475 1800 2475 
Q 1419 2475 1153 2201 
Q 888 1928 888 1484 
z
" transform="scale(0.015625)"/>
       </defs>
       <use xlink:href="#ArialMT-36"/>
       <use xlink:href="#ArialMT-30" transform="translate(55.615234 0)"/>
       <use xlink:href="#ArialMT-30" transform="translate(111.230469 0)"/>
       <use xlink:href="#ArialMT-30" transform="translate(166.845703 0)"/>
       <use xlink:href="#ArialMT-30" transform="translate(222.460938 0)"/>
      </g>
     </g>
    </g>
    <g id="ytick_2">
     <g id="line2d_9">
      <path d="M 59.225 208.502807 
L 995.04 208.502807 
" clip-path="url(#p1bc22cde43)" style="fill: none; stroke: #cccccc; stroke-linecap: round"/>
     </g>
     <g id="text_9">
      <!-- 80000 -->
      <g style="fill: #262626" transform="translate(19.139844 212.439604) scale(0.11 -0.11)">
       <defs>
        <path id="ArialMT-38" d="M 1131 2484 
Q 781 2613 612 2850 
Q 444 3088 444 3419 
Q 444 3919 803 4259 
Q 1163 4600 1759 4600 
Q 2359 4600 2725 4251 
Q 3091 3903 3091 3403 
Q 3091 3084 2923 2848 
Q 2756 2613 2416 2484 
Q 2838 2347 3058 2040 
Q 3278 1734 3278 1309 
Q 3278 722 2862 322 
Q 2447 -78 1769 -78 
Q 1091 -78 675 323 
Q 259 725 259 1325 
Q 259 1772 486 2073 
Q 713 2375 1131 2484 
z
M 1019 3438 
Q 1019 3113 1228 2906 
Q 1438 2700 1772 2700 
Q 2097 2700 2305 2904 
Q 2513 3109 2513 3406 
Q 2513 3716 2298 3927 
Q 2084 4138 1766 4138 
Q 1444 4138 1231 3931 
Q 1019 3725 1019 3438 
z
M 838 1322 
Q 838 1081 952 856 
Q 1066 631 1291 507 
Q 1516 384 1775 384 
Q 2178 384 2440 643 
Q 2703 903 2703 1303 
Q 2703 1709 2433 1975 
Q 2163 2241 1756 2241 
Q 1359 2241 1098 1978 
Q 838 1716 838 1322 
z
" transform="scale(0.015625)"/>
       </defs>
       <use xlink:href="#ArialMT-38"/>
       <use xlink:href="#ArialMT-30" transform="translate(55.615234 0)"/>
       <use xlink:href="#ArialMT-30" transform="translate(111.230469 0)"/>
       <use xlink:href="#ArialMT-30" transform="translate(166.845703 0)"/>
       <use xlink:href="#ArialMT-30" transform="translate(222.460938 0)"/>
      </g>
     </g>
    </g>
    <g id="ytick_3">
     <g id="line2d_10">
      <path d="M 59.225 147.434764 
L 995.04 147.434764 
" clip-path="url(#p1bc22cde43)" style="fill: none; stroke: #cccccc; stroke-linecap: round"/>
     </g>
     <g id="text_10">
      <!-- 100000 -->
      <g style="fill: #262626" transform="translate(13.022813 151.371561) scale(0.11 -0.11)">
       <use xlink:href="#ArialMT-31"/>
       <use xlink:href="#ArialMT-30" transform="translate(55.615234 0)"/>
       <use xlink:href="#ArialMT-30" transform="translate(111.230469 0)"/>
       <use xlink:href="#ArialMT-30" transform="translate(166.845703 0)"/>
       <use xlink:href="#ArialMT-30" transform="translate(222.460938 0)"/>
       <use xlink:href="#ArialMT-30" transform="translate(278.076172 0)"/>
      </g>
     </g>
    </g>
    <g id="ytick_4">
     <g id="line2d_11">
      <path d="M 59.225 86.366721 
L 995.04 86.366721 
" clip-path="url(#p1bc22cde43)" style="fill: none; stroke: #cccccc; stroke-linecap: round"/>
     </g>
     <g id="text_11">
      <!-- 120000 -->
      <g style="fill: #262626" transform="translate(13.022813 90.303518) scale(0.11 -0.11)">
       <use xlink:href="#ArialMT-31"/>
       <use xlink:href="#ArialMT-32" transform="translate(55.615234 0)"/>
       <use xlink:href="#ArialMT-30" transform="translate(111.230469 0)"/>
       <use xlink:href="#ArialMT-30" transform="translate(166.845703 0)"/>
       <use xlink:href="#ArialMT-30" transform="translate(222.460938 0)"/>
       <use xlink:href="#ArialMT-30" transform="translate(278.076172 0)"/>
      </g>
     </g>
    </g>
   </g>
   <g id="line2d_12">
    <path d="M 101.762045 181.938208 
L 103.921286 107.740536 
L 106.080527 95.526927 
L 108.239768 94.916247 
L 110.399009 88.198762 
L 112.55825 86.977401 
L 114.717491 200.258621 
L 116.876732 145.358451 
L 119.035973 107.740536 
L 121.195213 95.526927 
L 123.354454 94.916247 
L 125.513695 88.198762 
L 127.672936 86.977401 
L 129.832177 224.62477 
L 131.991418 148.106513 
L 134.150659 270.975415 
L 136.3099 174.182567 
L 138.469141 277.509696 
L 140.628381 164.228476 
L 142.787622 201.602118 
L 144.946863 165.694109 
L 147.106104 165.694109 
L 149.265345 87.893422 
L 151.424586 83.313319 
L 153.583827 86.366721 
L 155.743068 83.313319 
L 157.902308 81.481278 
L 160.061549 249.174124 
L 162.22079 113.603068 
L 164.380031 83.007979 
L 166.539272 82.397298 
L 168.698513 82.397298 
L 170.857754 313.600909 
L 173.016995 238.181876 
L 175.176236 223.037001 
L 177.335476 311.768868 
L 179.494717 100.107031 
L 181.653958 103.160433 
L 183.813199 108.961897 
L 185.97244 108.351217 
L 188.131681 106.824515 
L 190.290922 199.892213 
L 192.450163 191.525891 
L 194.609404 107.129856 
L 196.768644 104.687134 
L 198.927885 106.824515 
L 201.087126 108.656557 
L 203.246367 111.709959 
L 205.405608 205.510473 
L 207.564849 199.342601 
L 209.72409 113.542 
L 211.883331 113.84734 
L 214.042572 114.763361 
L 216.201812 118.732784 
L 218.361053 121.786186 
L 220.520294 239.769645 
L 222.679535 173.022274 
L 224.838776 118.732784 
L 226.998017 118.427444 
L 229.157258 119.954145 
L 231.316499 119.954145 
L 233.47574 123.618227 
L 235.63498 143.221069 
L 237.794221 257.174037 
L 239.953462 193.480068 
L 242.112703 142.366116 
L 244.271944 291.799618 
L 246.431185 225.052247 
L 248.590426 124.656384 
L 250.749667 293.020979 
L 252.908907 118.793852 
L 255.068148 126.671629 
L 257.227389 123.007547 
L 259.38663 114.458021 
L 261.545871 113.542 
L 263.705112 111.404619 
L 265.864353 262.242685 
L 268.023594 257.906854 
L 270.182835 108.351217 
L 272.342075 107.435196 
L 274.501316 107.129856 
L 276.660557 103.160433 
L 278.819798 103.465773 
L 280.979039 233.418569 
L 283.13828 228.410989 
L 285.297521 92.473525 
L 287.456762 83.923999 
L 289.616003 80.870597 
L 291.775243 64.992906 
L 293.934484 61.939504 
L 296.093725 127.160174 
L 298.252966 226.82322 
L 300.412207 56.74872 
L 302.571448 62.550184 
L 304.730689 123.007547 
L 306.88993 126.060949 
L 309.049171 90.641484 
L 311.208411 269.815122 
L 313.367652 192.380844 
L 315.526893 103.465773 
L 317.686134 77.206515 
L 319.845375 77.206515 
L 322.004616 73.542432 
L 324.163857 72.931752 
L 326.323098 244.716157 
L 328.482338 188.655693 
L 330.641579 233.846045 
L 332.80082 75.679813 
L 334.960061 214.426407 
L 337.119302 257.479378 
L 339.278543 273.173865 
L 341.437784 281.051642 
L 343.597025 213.357716 
L 345.756266 156.28963 
L 347.915506 132.961638 
L 350.074747 230.670507 
L 352.233988 299.066715 
L 354.393229 218.334762 
L 356.55247 75.679813 
L 358.711711 309.326146 
L 360.870952 85.4507 
L 363.030193 84.84002 
L 365.189434 84.84002 
L 367.348674 90.336144 
L 369.507915 90.336144 
L 371.667156 259.189283 
L 375.985638 86.977401 
L 378.144879 85.4507 
L 380.30412 83.313319 
L 382.463361 84.43291 
L 384.622602 96.748288 
L 386.781842 279.769213 
L 388.941083 282.273003 
L 391.100324 280.19669 
L 393.259565 125.999881 
L 395.418806 282.211935 
L 397.578047 271.708232 
L 399.737288 221.754572 
L 401.896529 215.220292 
L 404.055769 251.57593 
L 406.21501 88.504103 
L 408.374251 91.862845 
L 410.533492 85.4507 
L 412.692733 75.679813 
L 414.851974 75.679813 
L 417.011215 251.922186 
L 419.170456 234.823134 
L 421.329697 229.510214 
L 423.488937 275.372314 
L 425.648178 270.792211 
L 427.807419 228.594193 
L 429.96666 169.541396 
L 434.285142 277.876104 
L 436.444383 62.550184 
L 438.603624 56.74872 
L 440.762865 63.160865 
L 442.922105 56.44338 
L 445.081346 56.44338 
L 447.240587 179.352984 
L 449.399828 84.84002 
L 451.559069 79.496566 
L 453.71831 55.8327 
L 455.877551 272.37998 
L 458.036792 49.725895 
L 460.196033 52.779297 
L 462.355273 295.646904 
L 464.514514 283.555432 
L 466.673755 56.13804 
L 468.832996 57.359401 
L 470.992237 54.916679 
L 473.151478 49.115215 
L 475.310719 53.695318 
L 477.46996 180.106167 
L 479.629201 233.174296 
L 481.788441 47.283173 
L 483.947682 53.389978 
L 486.106923 61.939504 
L 488.266164 61.023483 
L 490.425405 60.412803 
L 492.584646 233.072313 
L 494.743887 219.800395 
L 496.903128 63.466205 
L 499.062368 52.779297 
L 501.221609 46.672493 
L 503.38085 46.672493 
L 505.540091 52.779297 
L 507.699332 254.181703 
L 509.858573 103.771113 
L 512.017814 58.886102 
L 514.177055 49.725895 
L 516.336296 49.725895 
L 518.495536 51.252596 
L 520.654777 50.947256 
L 524.973259 265.112883 
L 527.1325 52.779297 
L 529.291741 47.588514 
L 531.450982 47.588514 
L 533.610223 43.619091 
L 535.769464 49.826657 
L 537.928704 276.776879 
L 540.087945 243.98334 
L 542.247186 47.283173 
L 544.406427 46.214483 
L 546.565668 43.771761 
L 548.724909 45.298462 
L 550.88415 43.719853 
L 553.043391 200.747166 
L 555.202632 148.045444 
L 557.361872 49.725895 
L 559.521113 52.168617 
L 561.680354 48.809875 
L 563.839595 48.199194 
L 565.998836 48.910637 
L 568.158077 183.648114 
L 570.317318 204.04484 
L 572.476559 68.046308 
L 574.635799 68.046308 
L 576.79504 99.39458 
L 578.954281 98.58033 
L 581.113522 94.610907 
L 583.272763 269.815122 
L 585.432004 219.739327 
L 587.591245 73.237092 
L 589.750486 57.970081 
L 591.909727 51.863277 
L 594.068967 47.893854 
L 596.228208 47.588514 
L 598.387449 235.006338 
L 600.54669 123.740363 
L 602.705931 58.886102 
L 604.865172 60.412803 
L 607.024413 60.718143 
L 609.183654 56.13804 
L 611.342895 51.252596 
L 613.502135 243.678 
L 615.661376 262.425889 
L 617.820617 55.527359 
L 619.979858 55.222019 
L 626.457581 55.222019 
L 628.616822 248.135967 
L 630.776063 172.289458 
L 632.935303 58.886102 
L 635.094544 61.328823 
L 637.253785 61.939504 
L 639.413026 62.855524 
L 641.572267 83.313319 
L 643.731508 208.991351 
L 645.890749 253.265683 
L 648.04999 61.939504 
L 650.209231 69.573009 
L 652.368471 61.939504 
L 654.527712 68.962329 
L 656.686953 68.351648 
L 658.846194 228.349921 
L 661.005435 133.938727 
L 663.164676 74.763793 
L 665.323917 68.046308 
L 667.483158 71.09971 
L 669.642398 72.626411 
L 671.801639 78.733216 
L 673.96088 240.197121 
L 676.120121 196.960947 
L 678.279362 80.259917 
L 680.438603 80.259917 
L 682.597844 81.175937 
L 684.757085 87.282742 
L 686.916326 91.862845 
L 689.075566 191.770163 
L 691.234807 140.839415 
L 693.394048 95.526927 
L 695.553289 98.58033 
L 697.71253 106.213835 
L 699.871771 105.908495 
L 702.031012 101.633732 
L 704.190253 206.731834 
L 706.349494 244.471884 
L 708.508734 106.213835 
L 710.667975 99.39458 
L 712.827216 106.213835 
L 714.986457 112.320639 
L 717.145698 111.404619 
L 719.304939 222.120981 
L 721.46418 241.296346 
L 723.623421 110.793938 
L 725.782662 113.84734 
L 727.941902 118.732784 
L 730.101143 125.755609 
L 732.260384 138.274558 
L 734.419625 174.793247 
L 736.578866 213.205046 
L 738.738107 161.175074 
L 740.897348 152.014867 
L 743.056589 165.755177 
L 745.215829 171.861981 
L 747.37507 167.281878 
L 749.534311 242.761979 
L 751.693552 286.975242 
L 753.852793 166.060517 
L 756.012034 164.839156 
L 758.171275 162.396435 
L 760.330516 164.839156 
L 762.489757 162.701775 
L 764.648997 217.663014 
L 766.808238 256.563357 
L 768.967479 160.259053 
L 771.12672 167.281878 
L 773.285961 164.839156 
L 775.445202 123.923567 
L 777.604443 177.052765 
L 779.763684 222.182049 
L 781.922925 118.793852 
L 784.082165 179.495487 
L 786.241406 171.861981 
L 788.400647 174.304703 
L 790.559888 172.778002 
L 792.719129 172.472662 
L 794.87837 180.716847 
L 797.037611 190.182394 
L 799.196852 167.281878 
L 801.356093 173.388682 
L 803.515333 170.02994 
L 805.674574 161.785754 
L 807.833815 160.564393 
L 809.993056 175.770336 
L 812.152297 167.404014 
L 814.311538 159.648373 
L 816.470779 157.205651 
L 818.63002 155.67895 
L 820.78926 150.488166 
L 822.948501 151.098847 
L 825.107742 177.297037 
L 827.266983 119.770941 
L 829.426224 151.404187 
L 833.744706 145.297383 
L 835.903947 147.434764 
L 838.063188 144.381362 
L 840.222428 110.793938 
L 842.381669 107.740536 
L 844.54091 136.747857 
L 846.700151 127.58765 
L 848.859392 125.144928 
L 851.018633 113.84734 
L 853.177874 104.687134 
L 857.496356 215.037088 
L 859.655596 96.137608 
L 861.814837 96.442948 
L 863.974078 87.282742 
L 866.133319 77.206515 
L 868.29256 73.847772 
L 870.451801 254.364907 
L 872.611042 242.456639 
L 874.770283 75.679813 
L 876.929524 81.786618 
L 879.088764 81.175937 
L 881.248005 76.595834 
L 883.407246 81.175937 
L 885.566487 299.844111 
L 887.725728 181.693936 
L 889.884969 156.839243 
L 892.04421 128.015126 
L 894.203451 138.702034 
L 896.362692 219.372919 
L 898.521932 117.816763 
L 900.681173 193.663273 
L 902.840414 249.174124 
L 904.999655 202.029594 
L 907.158896 103.160433 
L 909.318137 104.687134 
L 911.477378 202.762411 
L 913.636619 175.037519 
L 915.795859 249.113056 
L 917.9551 217.113401 
L 920.114341 86.977401 
L 922.273582 80.259917 
L 924.432823 86.366721 
L 926.592064 99.19101 
L 928.751305 99.19101 
L 930.910546 186.212971 
L 933.069787 307.677309 
L 935.229027 114.458021 
L 937.388268 109.267237 
L 939.547509 113.84734 
L 941.70675 109.267237 
L 943.865991 110.183258 
L 946.025232 187.434332 
L 950.343714 243.067319 
L 952.502955 239.769645 
L 952.502955 239.769645 
" clip-path="url(#p1bc22cde43)" style="fill: none; stroke: #e76f51; stroke-width: 1.5; stroke-linecap: round"/>
   </g>
   <g id="line2d_13">
    <path d="M 114.717491 122.222386 
L 116.876732 116.996707 
L 127.672936 116.996707 
L 129.832177 120.477585 
L 131.991418 120.870165 
L 134.150659 144.189434 
L 136.3099 155.425954 
L 138.469141 181.510732 
L 140.628381 192.37212 
L 142.787622 208.747079 
L 144.946863 200.328413 
L 147.106104 202.840927 
L 149.265345 176.686357 
L 151.424586 163.705036 
L 153.583827 136.398896 
L 155.743068 124.839588 
L 157.902308 107.679468 
L 160.061549 119.605184 
L 162.22079 112.163607 
L 164.380031 111.465687 
L 166.539272 111.334827 
L 168.698513 110.767766 
L 170.857754 143.665993 
L 173.016995 166.051793 
L 175.176236 162.317919 
L 177.335476 190.627318 
L 179.494717 193.07004 
L 181.653958 196.036202 
L 183.813199 199.831145 
L 185.97244 170.50976 
L 188.131681 151.744423 
L 190.290922 148.438025 
L 192.450163 131.260457 
L 194.609404 132.263717 
L 196.768644 132.481818 
L 198.927885 132.176477 
L 201.087126 132.220097 
L 205.405608 133.720626 
L 207.564849 134.837299 
L 209.72409 135.75332 
L 211.883331 137.061921 
L 214.042572 138.196042 
L 218.361053 141.074964 
L 220.520294 145.969131 
L 222.679535 142.209084 
L 229.157258 144.346466 
L 233.47574 144.782666 
L 235.63498 130.990012 
L 237.794221 143.011693 
L 239.953462 153.689876 
L 242.112703 157.109687 
L 244.271944 181.65904 
L 246.431185 196.673055 
L 248.590426 196.821363 
L 250.749667 218.22135 
L 252.908907 198.452752 
L 255.068148 188.908689 
L 257.227389 186.143179 
L 259.38663 160.808665 
L 261.545871 144.87863 
L 263.705112 142.985521 
L 265.864353 138.588622 
L 268.023594 158.461908 
L 270.182835 155.844706 
L 272.342075 153.620084 
L 274.501316 152.573204 
L 276.660557 151.090123 
L 278.819798 149.956002 
L 283.13828 141.624576 
L 285.297521 139.356334 
L 287.456762 135.997592 
L 289.616003 132.246269 
L 291.775243 126.793765 
L 293.934484 120.861441 
L 296.093725 105.681671 
L 298.252966 105.454846 
L 300.412207 100.351303 
L 302.571448 97.297901 
L 304.730689 103.317465 
L 306.88993 112.041471 
L 309.049171 116.141754 
L 311.208411 136.521032 
L 313.367652 131.600693 
L 315.526893 138.274558 
L 317.686134 140.368319 
L 319.845375 133.825314 
L 322.004616 126.322669 
L 324.163857 123.792707 
L 326.323098 120.207141 
L 328.482338 119.674976 
L 330.641579 138.30073 
L 332.80082 138.082629 
L 334.960061 157.685471 
L 337.119302 183.962178 
L 339.278543 212.568194 
L 341.437784 217.758978 
L 343.597025 221.287838 
L 345.756266 210.20835 
L 347.915506 218.391468 
L 350.074747 220.712054 
L 352.233988 226.653102 
L 354.393229 218.818944 
L 356.55247 189.480112 
L 358.711711 203.189887 
L 360.870952 193.07004 
L 363.030193 186.195523 
L 365.189434 165.362597 
L 367.348674 135.543944 
L 369.507915 117.258427 
L 371.667156 143.474065 
L 373.826397 123.801431 
L 375.985638 124.019532 
L 378.144879 124.106772 
L 380.30412 123.888671 
L 382.463361 123.045352 
L 384.622602 123.961373 
L 386.781842 126.901363 
L 388.941083 142.709262 
L 391.100324 170.312018 
L 393.259565 176.104758 
L 395.418806 204.518846 
L 397.578047 231.272463 
L 399.737288 249.130504 
L 401.896529 239.909229 
L 404.055769 235.523933 
L 406.21501 208.139278 
L 408.374251 203.262558 
L 412.692733 147.149751 
L 414.851974 126.281928 
L 417.011215 131.525056 
L 419.170456 129.131799 
L 421.329697 149.275529 
L 425.648178 201.968526 
L 427.807419 223.813438 
L 429.96666 237.222235 
L 432.125901 233.087056 
L 434.285142 239.237481 
L 436.444383 215.386048 
L 440.762865 154.492485 
L 442.922105 129.899512 
L 445.081346 113.742652 
L 447.240587 107.510802 
L 449.399828 79.934219 
L 451.559069 82.355131 
L 453.71831 82.224271 
L 455.877551 112.112716 
L 458.036792 111.153075 
L 460.196033 110.629635 
L 462.355273 127.243052 
L 464.514514 155.630968 
L 466.673755 152.294035 
L 468.832996 152.512136 
L 470.992237 121.44595 
L 473.151478 121.35871 
L 475.310719 121.48957 
L 477.46996 104.98375 
L 479.629201 97.786445 
L 481.788441 96.521464 
L 483.947682 95.954404 
L 486.106923 96.957664 
L 488.266164 98.658846 
L 490.425405 99.618486 
L 492.584646 107.185079 
L 494.743887 105.274521 
L 496.903128 107.586383 
L 499.062368 107.499143 
L 503.38085 103.268 
L 505.540091 102.177499 
L 507.699332 105.193126 
L 509.858573 88.617515 
L 512.017814 87.963214 
L 514.177055 87.527014 
L 516.336296 87.963214 
L 518.495536 88.617515 
L 520.654777 88.355794 
L 522.814018 74.862636 
L 524.973259 97.91146 
L 527.1325 97.039059 
L 531.450982 96.428379 
L 533.610223 95.337878 
L 535.769464 95.177793 
L 537.928704 111.898834 
L 540.087945 108.880327 
L 542.247186 108.095167 
L 544.406427 107.898877 
L 546.565668 107.353626 
L 548.724909 107.593537 
L 550.88415 106.721136 
L 553.043391 95.859748 
L 555.202632 82.154335 
L 557.361872 82.503295 
L 559.521113 83.353885 
L 561.680354 84.073616 
L 563.839595 84.488006 
L 565.998836 85.229547 
L 568.158077 82.786825 
L 570.317318 90.786739 
L 572.476559 93.403941 
L 574.635799 95.672182 
L 578.954281 110.095874 
L 581.113522 116.624484 
L 583.272763 128.934056 
L 585.432004 131.176126 
L 587.591245 131.917667 
L 589.750486 130.478206 
L 591.909727 123.688019 
L 594.068967 116.447094 
L 596.228208 109.729609 
L 598.387449 104.756926 
L 600.54669 91.042788 
L 602.705931 88.992647 
L 604.865172 89.341607 
L 609.183654 91.784329 
L 611.342895 92.307769 
L 613.502135 93.546578 
L 615.661376 113.358796 
L 617.820617 112.878976 
L 622.139099 111.352275 
L 624.29834 111.221415 
L 628.616822 112.425327 
L 630.776063 99.548694 
L 632.935303 100.028515 
L 637.253785 101.860556 
L 639.413026 102.951057 
L 641.572267 106.9641 
L 643.731508 101.372012 
L 645.890749 112.940044 
L 648.04999 113.376244 
L 650.209231 114.553985 
L 652.368471 114.553985 
L 654.527712 115.426385 
L 656.686953 113.289004 
L 658.846194 116.054514 
L 661.005435 99.007806 
L 663.164676 100.839847 
L 665.323917 100.621747 
L 667.483158 101.930348 
L 669.642398 102.453788 
L 671.801639 103.936869 
L 673.96088 105.629327 
L 676.120121 114.632501 
L 678.279362 115.417661 
L 680.438603 117.162463 
L 682.597844 118.601924 
L 684.757085 120.695685 
L 686.916326 122.571347 
L 689.075566 115.65321 
L 691.234807 107.635848 
L 693.394048 109.81685 
L 695.553289 112.434051 
L 697.71253 116.010894 
L 699.871771 118.671716 
L 702.031012 120.067557 
L 704.190253 122.204938 
L 706.349494 137.009577 
L 708.508734 138.536278 
L 710.667975 138.652599 
L 712.827216 138.652599 
L 714.986457 139.56862 
L 717.145698 140.964461 
L 719.304939 143.16291 
L 721.46418 142.709262 
L 723.623421 143.363563 
L 725.782662 145.428243 
L 730.101143 149.135945 
L 732.260384 152.974508 
L 734.419625 146.213403 
L 736.578866 142.20036 
L 738.738107 149.397665 
L 740.897348 154.850169 
L 745.215829 168.154279 
L 747.37507 172.298182 
L 749.534311 182.008 
L 751.693552 192.5466 
L 753.852793 193.24452 
L 756.012034 195.076562 
L 758.171275 194.596741 
L 760.330516 193.593481 
L 762.489757 192.93918 
L 764.648997 189.353614 
L 766.808238 185.009059 
L 768.967479 184.180278 
L 773.285961 184.878198 
L 775.445202 179.033114 
L 777.604443 181.083256 
L 779.763684 181.728832 
L 781.922925 162.047474 
L 784.082165 164.795536 
L 786.241406 165.449837 
L 788.400647 166.802058 
L 790.559888 173.781263 
L 792.719129 173.126962 
L 794.87837 167.203362 
L 797.037611 177.401725 
L 799.196852 175.656924 
L 801.356093 175.875024 
L 803.515333 175.264344 
L 807.833815 171.992841 
L 809.993056 171.286197 
L 812.152297 168.032143 
L 814.311538 166.941642 
L 816.470779 164.62978 
L 818.63002 162.579639 
L 820.78926 160.965698 
L 822.948501 159.613477 
L 825.107742 159.831577 
L 827.266983 153.026852 
L 831.585465 150.58413 
L 833.744706 149.101049 
L 835.903947 148.664849 
L 838.063188 147.705208 
L 840.222428 138.204766 
L 842.381669 136.486136 
L 844.54091 134.392375 
L 848.859392 128.547291 
L 851.018633 123.749087 
L 853.177874 118.078483 
L 855.337115 124.900656 
L 857.496356 140.228735 
L 859.655596 134.427271 
L 861.814837 129.978028 
L 866.133319 119.33474 
L 868.29256 114.929117 
L 870.451801 128.617083 
L 872.611042 132.534162 
L 874.770283 129.611619 
L 876.929524 127.517858 
L 879.088764 126.645457 
L 881.248005 126.558217 
L 883.407246 127.605098 
L 885.566487 134.102127 
L 887.725728 125.421741 
L 889.884969 137.015945 
L 892.04421 143.620018 
L 894.203451 151.838032 
L 896.362692 172.234758 
L 898.521932 177.469162 
L 900.681173 162.300471 
L 902.840414 171.940497 
L 904.999655 178.396262 
L 907.158896 174.845591 
L 909.318137 169.98632 
L 911.477378 167.61339 
L 915.795859 183.709182 
L 917.9551 179.129078 
L 920.114341 162.693051 
L 922.273582 159.421548 
L 924.432823 156.804347 
L 926.592064 142.008432 
L 928.751305 131.173217 
L 930.910546 122.18749 
L 933.069787 135.125191 
L 939.547509 147.1207 
L 943.865991 150.130482 
L 946.025232 150.304962 
L 948.184473 137.192781 
L 952.502955 174.208739 
L 952.502955 174.208739 
" clip-path="url(#p1bc22cde43)" style="fill: none; stroke-dasharray: 5.55,2.4; stroke-dashoffset: 0; stroke: #4878d0; stroke-width: 1.5"/>
   </g>
   <g id="line2d_14">
    <path d="M 164.380031 137.834868 
L 166.539272 134.516837 
L 168.698513 133.672063 
L 170.857754 140.941195 
L 173.016995 145.716716 
L 175.176236 150.211324 
L 177.335476 157.704373 
L 179.494717 154.365987 
L 181.653958 152.959386 
L 183.813199 153.000098 
L 188.131681 153.824517 
L 190.290922 157.547632 
L 192.450163 161.032582 
L 194.609404 157.116084 
L 196.768644 155.668772 
L 198.927885 150.197075 
L 201.087126 148.012875 
L 203.246367 142.486217 
L 205.405608 143.862284 
L 207.564849 143.786966 
L 211.883331 140.320337 
L 214.042572 141.216002 
L 218.361053 143.577299 
L 220.520294 148.79251 
L 222.679535 151.843877 
L 224.838776 147.495832 
L 226.998017 147.656645 
L 231.316499 150.140078 
L 233.47574 151.514109 
L 235.63498 145.834781 
L 237.794221 146.467853 
L 239.953462 145.482622 
L 242.112703 139.835864 
L 244.271944 146.225617 
L 246.431185 150.288677 
L 248.590426 150.811827 
L 250.749667 156.967486 
L 252.908907 157.366463 
L 257.227389 152.641833 
L 263.705112 153.333937 
L 268.023594 163.326704 
L 272.342075 157.024482 
L 274.501316 156.810744 
L 278.819798 156.077928 
L 280.979039 159.900787 
L 283.13828 163.454947 
L 285.297521 158.545077 
L 287.456762 155.575134 
L 289.616003 154.313061 
L 291.775243 152.53191 
L 293.934484 150.598089 
L 296.093725 150.83829 
L 298.252966 154.278456 
L 300.412207 151.396044 
L 302.571448 144.908583 
L 304.730689 142.559499 
L 306.88993 142.015993 
L 309.049171 135.310722 
L 311.208411 136.802818 
L 313.367652 139.0603 
L 315.526893 132.741793 
L 317.686134 131.355548 
L 322.004616 128.057874 
L 324.163857 126.673665 
L 326.323098 131.046137 
L 328.482338 133.621173 
L 330.641579 132.674618 
L 332.80082 126.600383 
L 334.960061 130.136223 
L 337.119302 135.137696 
L 339.278543 140.672496 
L 341.437784 146.602203 
L 343.597025 150.265268 
L 345.756266 147.694303 
L 347.915506 144.512658 
L 350.074747 149.119224 
L 352.233988 156.290648 
L 354.393229 160.872787 
L 356.55247 161.229017 
L 358.711711 169.475239 
L 360.870952 168.084923 
L 363.030193 163.352149 
L 367.348674 165.214725 
L 369.507915 164.125678 
L 371.667156 168.563289 
L 373.826397 171.262497 
L 375.985638 165.167906 
L 378.144879 161.603568 
L 380.30412 160.931819 
L 382.463361 161.172699 
L 384.622602 161.824092 
L 388.941083 175.676359 
L 391.100324 176.859044 
L 393.259565 174.770517 
L 395.418806 176.382713 
L 397.578047 182.916994 
L 399.737288 183.161266 
L 401.896529 181.75263 
L 404.055769 181.032699 
L 406.21501 174.614447 
L 408.374251 170.564618 
L 410.533492 168.20332 
L 412.692733 166.293926 
L 414.851974 161.12757 
L 417.011215 159.556086 
L 419.170456 160.105698 
L 421.329697 165.233378 
L 423.488937 164.101584 
L 425.648178 170.279634 
L 427.807419 175.07144 
L 429.96666 177.894819 
L 432.125901 182.316145 
L 434.285142 188.567477 
L 436.444383 182.012841 
L 438.603624 178.183874 
L 440.762865 177.38999 
L 445.081346 175.527414 
L 447.240587 178.691417 
L 449.399828 178.294475 
L 451.559069 171.61872 
L 453.71831 164.07071 
L 455.877551 163.810153 
L 458.036792 161.267686 
L 460.196033 153.619932 
L 462.355273 154.417888 
L 464.514514 156.477916 
L 466.673755 151.175175 
L 468.832996 144.70129 
L 470.992237 143.581709 
L 473.151478 142.156788 
L 475.310719 141.098276 
L 477.46996 144.579154 
L 479.629201 149.82897 
L 481.788441 143.00767 
L 483.947682 136.959898 
L 486.106923 131.374208 
L 490.425405 117.2166 
L 492.584646 117.36587 
L 494.743887 119.04117 
L 496.903128 113.724179 
L 499.062368 106.220952 
L 501.221609 105.691696 
L 505.540091 105.00977 
L 507.699332 111.601047 
L 509.858573 113.178638 
L 512.017814 109.163075 
L 514.177055 107.992605 
L 516.336296 107.000249 
L 518.495536 106.847579 
L 520.654777 99.466488 
L 522.814018 103.133278 
L 524.973259 110.211064 
L 529.291741 94.249913 
L 531.450982 93.964929 
L 533.610223 93.506919 
L 535.769464 93.337251 
L 537.928704 100.925974 
L 540.087945 107.268908 
L 542.247186 102.841474 
L 544.406427 96.609481 
L 546.565668 96.492434 
L 548.724909 96.222716 
L 550.88415 95.615395 
L 553.043391 100.272851 
L 555.202632 103.193939 
L 557.361872 97.082392 
L 559.521113 91.494666 
L 561.680354 91.006121 
L 563.839595 90.853451 
L 565.998836 90.928056 
L 568.158077 95.49391 
L 570.317318 100.536095 
L 572.476559 94.331582 
L 574.635799 93.140755 
L 576.79504 94.491037 
L 581.113522 97.615686 
L 583.272763 104.901103 
L 585.432004 110.527505 
L 587.591245 107.644422 
L 589.750486 100.739662 
L 596.228208 100.719306 
L 598.387449 107.098881 
L 600.54669 109.562671 
L 602.705931 102.299645 
L 604.865172 96.180627 
L 607.024413 96.62846 
L 611.342895 97.208606 
L 613.502135 103.821257 
L 615.661376 111.111458 
L 617.820617 106.270798 
L 619.979858 103.176684 
L 626.457581 103.675406 
L 628.616822 110.339966 
L 630.776063 114.452593 
L 632.935303 110.293859 
L 635.094544 105.536659 
L 639.413026 105.160072 
L 641.572267 104.62403 
L 643.731508 108.304398 
L 645.890749 113.59289 
L 648.04999 106.663703 
L 650.209231 101.658159 
L 652.368471 101.281573 
L 654.527712 101.647981 
L 656.686953 102.197593 
L 658.846194 108.212796 
L 661.005435 111.091136 
L 663.164676 105.749718 
L 665.323917 103.893249 
L 669.642398 104.70749 
L 671.801639 105.307992 
L 673.96088 111.443295 
L 676.120121 116.30024 
L 678.279362 110.852971 
L 680.438603 104.780772 
L 682.597844 105.635724 
L 684.757085 106.704415 
L 686.916326 107.925776 
L 689.075566 112.477381 
L 691.234807 115.331294 
L 693.394048 110.244326 
L 695.553289 107.787355 
L 699.871771 110.850935 
L 702.031012 112.174076 
L 704.190253 116.969953 
L 706.349494 122.341905 
L 708.508734 118.915988 
L 710.667975 113.786951 
L 717.145698 118.33652 
L 719.304939 123.441809 
L 721.46418 129.206632 
L 723.623421 125.288099 
L 725.782662 124.618386 
L 727.941902 126.084019 
L 730.101143 128.007663 
L 732.260384 130.246824 
L 734.419625 133.652386 
L 736.578866 138.13478 
L 738.738107 135.500712 
L 740.897348 134.002509 
L 743.056589 136.852351 
L 747.37507 142.775951 
L 749.534311 147.958592 
L 751.693552 154.462339 
L 753.852793 153.605351 
L 756.012034 154.405342 
L 760.330516 158.842953 
L 762.489757 160.725885 
L 764.648997 164.451035 
L 766.808238 169.615356 
L 768.967479 168.066263 
L 771.12672 165.493263 
L 773.285961 167.447441 
L 775.445202 168.265074 
L 777.604443 170.626371 
L 779.763684 174.288418 
L 781.922925 174.534726 
L 784.082165 173.113876 
L 786.241406 170.799397 
L 790.559888 174.880778 
L 797.037611 180.23441 
L 799.196852 179.984031 
L 801.356093 178.656819 
L 805.674574 179.277677 
L 807.833815 179.104651 
L 809.993056 179.23493 
L 812.152297 179.239001 
L 814.311538 176.468547 
L 816.470779 172.142894 
L 818.63002 171.796842 
L 822.948501 170.941889 
L 825.107742 171.357152 
L 827.266983 169.926124 
L 829.426224 167.717497 
L 831.585465 164.110411 
L 833.744706 163.611689 
L 838.063188 162.268192 
L 840.222428 161.830537 
L 842.381669 159.52013 
L 844.54091 156.672323 
L 846.700151 156.96545 
L 851.018633 153.219943 
L 853.177874 150.899358 
L 855.337115 150.425063 
L 857.496356 151.843877 
L 859.655596 149.024569 
L 861.814837 145.899921 
L 863.974078 143.233283 
L 868.29256 136.821138 
L 870.451801 139.90711 
L 872.611042 142.636851 
L 874.770283 139.300501 
L 876.929524 136.446587 
L 883.407246 128.660412 
L 885.566487 133.638944 
L 887.725728 134.65878 
L 889.884969 133.976853 
L 892.04421 134.25166 
L 894.203451 133.828254 
L 896.362692 136.195659 
L 898.521932 135.279638 
L 900.681173 136.820589 
L 902.840414 140.313681 
L 904.999655 143.354869 
L 907.158896 143.202199 
L 909.318137 142.133508 
L 911.477378 144.639334 
L 913.636619 146.30242 
L 915.795859 150.811277 
L 917.9551 154.558819 
L 920.114341 152.173095 
L 922.273582 147.680522 
L 924.432823 147.354826 
L 926.592064 147.446428 
L 928.751305 147.84337 
L 930.910546 151.476919 
L 933.069787 159.271237 
L 937.388268 150.168027 
L 939.547509 151.440278 
L 943.865991 153.323209 
L 946.025232 157.017826 
L 948.184473 161.508363 
L 950.343714 159.615803 
L 952.502955 161.55166 
L 952.502955 161.55166 
" clip-path="url(#p1bc22cde43)" style="fill: none; stroke-dasharray: 9.6,2.4,1.5,2.4; stroke-dashoffset: 0; stroke: #ee854a; stroke-width: 1.5"/>
   </g>
   <g id="patch_3">
    <path d="M 59.225 327.1 
L 59.225 30.12 
" style="fill: none; stroke: #cccccc; stroke-width: 1.25; stroke-linejoin: miter; stroke-linecap: square"/>
   </g>
   <g id="patch_4">
    <path d="M 995.04 327.1 
L 995.04 30.12 
" style="fill: none; stroke: #cccccc; stroke-width: 1.25; stroke-linejoin: miter; stroke-linecap: square"/>
   </g>
   <g id="patch_5">
    <path d="M 59.225 327.1 
L 995.04 327.1 
" style="fill: none; stroke: #cccccc; stroke-width: 1.25; stroke-linejoin: miter; stroke-linecap: square"/>
   </g>
   <g id="patch_6">
    <path d="M 59.225 30.12 
L 995.04 30.12 
" style="fill: none; stroke: #cccccc; stroke-width: 1.25; stroke-linejoin: miter; stroke-linecap: square"/>
   </g>
   <g id="text_12">
    <!-- CÀ PHÊ — Wholesale Time Series + Rolling -->
    <g style="fill: #262626" transform="translate(408.924062 24.12) scale(0.12 -0.12)">
     <defs>
      <path id="ArialMT-43" d="M 3763 1606 
L 4369 1453 
Q 4178 706 3683 314 
Q 3188 -78 2472 -78 
Q 1731 -78 1267 223 
Q 803 525 561 1097 
Q 319 1669 319 2325 
Q 319 3041 592 3573 
Q 866 4106 1370 4382 
Q 1875 4659 2481 4659 
Q 3169 4659 3637 4309 
Q 4106 3959 4291 3325 
L 3694 3184 
Q 3534 3684 3231 3912 
Q 2928 4141 2469 4141 
Q 1941 4141 1586 3887 
Q 1231 3634 1087 3207 
Q 944 2781 944 2328 
Q 944 1744 1114 1308 
Q 1284 872 1643 656 
Q 2003 441 2422 441 
Q 2931 441 3284 734 
Q 3638 1028 3763 1606 
z
" transform="scale(0.015625)"/>
      <path id="ArialMT-c0" d="M -9 0 
L 1750 4581 
L 2403 4581 
L 4278 0 
L 3588 0 
L 3053 1388 
L 1138 1388 
L 634 0 
L -9 0 
z
M 1313 1881 
L 2866 1881 
L 2388 3150 
Q 2169 3728 2063 4100 
Q 1975 3659 1816 3225 
L 1313 1881 
z
M 2573 4883 
L 2120 4883 
L 1398 5758 
L 2151 5758 
L 2573 4883 
z
" transform="scale(0.015625)"/>
      <path id="ArialMT-20" transform="scale(0.015625)"/>
      <path id="ArialMT-50" d="M 494 0 
L 494 4581 
L 2222 4581 
Q 2678 4581 2919 4538 
Q 3256 4481 3484 4323 
Q 3713 4166 3852 3881 
Q 3991 3597 3991 3256 
Q 3991 2672 3619 2267 
Q 3247 1863 2275 1863 
L 1100 1863 
L 1100 0 
L 494 0 
z
M 1100 2403 
L 2284 2403 
Q 2872 2403 3119 2622 
Q 3366 2841 3366 3238 
Q 3366 3525 3220 3729 
Q 3075 3934 2838 4000 
Q 2684 4041 2272 4041 
L 1100 4041 
L 1100 2403 
z
" transform="scale(0.015625)"/>
      <path id="ArialMT-48" d="M 513 0 
L 513 4581 
L 1119 4581 
L 1119 2700 
L 3500 2700 
L 3500 4581 
L 4106 4581 
L 4106 0 
L 3500 0 
L 3500 2159 
L 1119 2159 
L 1119 0 
L 513 0 
z
" transform="scale(0.015625)"/>
      <path id="ArialMT-ca" d="M 506 0 
L 506 4581 
L 3819 4581 
L 3819 4041 
L 1113 4041 
L 1113 2638 
L 3647 2638 
L 3647 2100 
L 1113 2100 
L 1113 541 
L 3925 541 
L 3925 0 
L 506 0 
z
M 2211 5415 
L 1858 4883 
L 1214 4883 
L 1889 5758 
L 2489 5758 
L 3192 4883 
L 2555 4883 
L 2211 5415 
z
" transform="scale(0.015625)"/>
      <path id="ArialMT-2014" d="M 0 1431 
L 0 1884 
L 6400 1884 
L 6400 1431 
L 0 1431 
z
" transform="scale(0.015625)"/>
      <path id="ArialMT-57" d="M 1294 0 
L 78 4581 
L 700 4581 
L 1397 1578 
Q 1509 1106 1591 641 
Q 1766 1375 1797 1488 
L 2669 4581 
L 3400 4581 
L 4056 2263 
Q 4303 1400 4413 641 
Q 4500 1075 4641 1638 
L 5359 4581 
L 5969 4581 
L 4713 0 
L 4128 0 
L 3163 3491 
Q 3041 3928 3019 4028 
Q 2947 3713 2884 3491 
L 1913 0 
L 1294 0 
z
" transform="scale(0.015625)"/>
      <path id="ArialMT-68" d="M 422 0 
L 422 4581 
L 984 4581 
L 984 2938 
Q 1378 3394 1978 3394 
Q 2347 3394 2619 3248 
Q 2891 3103 3008 2847 
Q 3125 2591 3125 2103 
L 3125 0 
L 2563 0 
L 2563 2103 
Q 2563 2525 2380 2717 
Q 2197 2909 1863 2909 
Q 1613 2909 1392 2779 
Q 1172 2650 1078 2428 
Q 984 2206 984 1816 
L 984 0 
L 422 0 
z
" transform="scale(0.015625)"/>
      <path id="ArialMT-6f" d="M 213 1659 
Q 213 2581 725 3025 
Q 1153 3394 1769 3394 
Q 2453 3394 2887 2945 
Q 3322 2497 3322 1706 
Q 3322 1066 3130 698 
Q 2938 331 2570 128 
Q 2203 -75 1769 -75 
Q 1072 -75 642 372 
Q 213 819 213 1659 
z
M 791 1659 
Q 791 1022 1069 705 
Q 1347 388 1769 388 
Q 2188 388 2466 706 
Q 2744 1025 2744 1678 
Q 2744 2294 2464 2611 
Q 2184 2928 1769 2928 
Q 1347 2928 1069 2612 
Q 791 2297 791 1659 
z
" transform="scale(0.015625)"/>
      <path id="ArialMT-6c" d="M 409 0 
L 409 4581 
L 972 4581 
L 972 0 
L 409 0 
z
" transform="scale(0.015625)"/>
      <path id="ArialMT-65" d="M 2694 1069 
L 3275 997 
Q 3138 488 2766 206 
Q 2394 -75 1816 -75 
Q 1088 -75 661 373 
Q 234 822 234 1631 
Q 234 2469 665 2931 
Q 1097 3394 1784 3394 
Q 2450 3394 2872 2941 
Q 3294 2488 3294 1666 
Q 3294 1616 3291 1516 
L 816 1516 
Q 847 969 1125 678 
Q 1403 388 1819 388 
Q 2128 388 2347 550 
Q 2566 713 2694 1069 
z
M 847 1978 
L 2700 1978 
Q 2663 2397 2488 2606 
Q 2219 2931 1791 2931 
Q 1403 2931 1139 2672 
Q 875 2413 847 1978 
z
" transform="scale(0.015625)"/>
      <path id="ArialMT-73" d="M 197 991 
L 753 1078 
Q 800 744 1014 566 
Q 1228 388 1613 388 
Q 2000 388 2187 545 
Q 2375 703 2375 916 
Q 2375 1106 2209 1216 
Q 2094 1291 1634 1406 
Q 1016 1563 777 1677 
Q 538 1791 414 1992 
Q 291 2194 291 2438 
Q 291 2659 392 2848 
Q 494 3038 669 3163 
Q 800 3259 1026 3326 
Q 1253 3394 1513 3394 
Q 1903 3394 2198 3281 
Q 2494 3169 2634 2976 
Q 2775 2784 2828 2463 
L 2278 2388 
Q 2241 2644 2061 2787 
Q 1881 2931 1553 2931 
Q 1166 2931 1000 2803 
Q 834 2675 834 2503 
Q 834 2394 903 2306 
Q 972 2216 1119 2156 
Q 1203 2125 1616 2013 
Q 2213 1853 2448 1751 
Q 2684 1650 2818 1456 
Q 2953 1263 2953 975 
Q 2953 694 2789 445 
Q 2625 197 2315 61 
Q 2006 -75 1616 -75 
Q 969 -75 630 194 
Q 291 463 197 991 
z
" transform="scale(0.015625)"/>
      <path id="ArialMT-61" d="M 2588 409 
Q 2275 144 1986 34 
Q 1697 -75 1366 -75 
Q 819 -75 525 192 
Q 231 459 231 875 
Q 231 1119 342 1320 
Q 453 1522 633 1644 
Q 813 1766 1038 1828 
Q 1203 1872 1538 1913 
Q 2219 1994 2541 2106 
Q 2544 2222 2544 2253 
Q 2544 2597 2384 2738 
Q 2169 2928 1744 2928 
Q 1347 2928 1158 2789 
Q 969 2650 878 2297 
L 328 2372 
Q 403 2725 575 2942 
Q 747 3159 1072 3276 
Q 1397 3394 1825 3394 
Q 2250 3394 2515 3294 
Q 2781 3194 2906 3042 
Q 3031 2891 3081 2659 
Q 3109 2516 3109 2141 
L 3109 1391 
Q 3109 606 3145 398 
Q 3181 191 3288 0 
L 2700 0 
Q 2613 175 2588 409 
z
M 2541 1666 
Q 2234 1541 1622 1453 
Q 1275 1403 1131 1340 
Q 988 1278 909 1158 
Q 831 1038 831 891 
Q 831 666 1001 516 
Q 1172 366 1500 366 
Q 1825 366 2078 508 
Q 2331 650 2450 897 
Q 2541 1088 2541 1459 
L 2541 1666 
z
" transform="scale(0.015625)"/>
      <path id="ArialMT-54" d="M 1659 0 
L 1659 4041 
L 150 4041 
L 150 4581 
L 3781 4581 
L 3781 4041 
L 2266 4041 
L 2266 0 
L 1659 0 
z
" transform="scale(0.015625)"/>
      <path id="ArialMT-69" d="M 425 3934 
L 425 4581 
L 988 4581 
L 988 3934 
L 425 3934 
z
M 425 0 
L 425 3319 
L 988 3319 
L 988 0 
L 425 0 
z
" transform="scale(0.015625)"/>
      <path id="ArialMT-6d" d="M 422 0 
L 422 3319 
L 925 3319 
L 925 2853 
Q 1081 3097 1340 3245 
Q 1600 3394 1931 3394 
Q 2300 3394 2536 3241 
Q 2772 3088 2869 2813 
Q 3263 3394 3894 3394 
Q 4388 3394 4653 3120 
Q 4919 2847 4919 2278 
L 4919 0 
L 4359 0 
L 4359 2091 
Q 4359 2428 4304 2576 
Q 4250 2725 4106 2815 
Q 3963 2906 3769 2906 
Q 3419 2906 3187 2673 
Q 2956 2441 2956 1928 
L 2956 0 
L 2394 0 
L 2394 2156 
Q 2394 2531 2256 2718 
Q 2119 2906 1806 2906 
Q 1569 2906 1367 2781 
Q 1166 2656 1075 2415 
Q 984 2175 984 1722 
L 984 0 
L 422 0 
z
" transform="scale(0.015625)"/>
      <path id="ArialMT-53" d="M 288 1472 
L 859 1522 
Q 900 1178 1048 958 
Q 1197 738 1509 602 
Q 1822 466 2213 466 
Q 2559 466 2825 569 
Q 3091 672 3220 851 
Q 3350 1031 3350 1244 
Q 3350 1459 3225 1620 
Q 3100 1781 2813 1891 
Q 2628 1963 1997 2114 
Q 1366 2266 1113 2400 
Q 784 2572 623 2826 
Q 463 3081 463 3397 
Q 463 3744 659 4045 
Q 856 4347 1234 4503 
Q 1613 4659 2075 4659 
Q 2584 4659 2973 4495 
Q 3363 4331 3572 4012 
Q 3781 3694 3797 3291 
L 3216 3247 
Q 3169 3681 2898 3903 
Q 2628 4125 2100 4125 
Q 1550 4125 1298 3923 
Q 1047 3722 1047 3438 
Q 1047 3191 1225 3031 
Q 1400 2872 2139 2705 
Q 2878 2538 3153 2413 
Q 3553 2228 3743 1945 
Q 3934 1663 3934 1294 
Q 3934 928 3725 604 
Q 3516 281 3123 101 
Q 2731 -78 2241 -78 
Q 1619 -78 1198 103 
Q 778 284 539 648 
Q 300 1013 288 1472 
z
" transform="scale(0.015625)"/>
      <path id="ArialMT-72" d="M 416 0 
L 416 3319 
L 922 3319 
L 922 2816 
Q 1116 3169 1280 3281 
Q 1444 3394 1641 3394 
Q 1925 3394 2219 3213 
L 2025 2691 
Q 1819 2813 1613 2813 
Q 1428 2813 1281 2702 
Q 1134 2591 1072 2394 
Q 978 2094 978 1738 
L 978 0 
L 416 0 
z
" transform="scale(0.015625)"/>
      <path id="ArialMT-2b" d="M 1603 741 
L 1603 1997 
L 356 1997 
L 356 2522 
L 1603 2522 
L 1603 3769 
L 2134 3769 
L 2134 2522 
L 3381 2522 
L 3381 1997 
L 2134 1997 
L 2134 741 
L 1603 741 
z
" transform="scale(0.015625)"/>
      <path id="ArialMT-52" d="M 503 0 
L 503 4581 
L 2534 4581 
Q 3147 4581 3465 4457 
Q 3784 4334 3975 4021 
Q 4166 3709 4166 3331 
Q 4166 2844 3850 2509 
Q 3534 2175 2875 2084 
Q 3116 1969 3241 1856 
Q 3506 1613 3744 1247 
L 4541 0 
L 3778 0 
L 3172 953 
Q 2906 1366 2734 1584 
Q 2563 1803 2427 1890 
Q 2291 1978 2150 2013 
Q 2047 2034 1813 2034 
L 1109 2034 
L 1109 0 
L 503 0 
z
M 1109 2559 
L 2413 2559 
Q 2828 2559 3062 2645 
Q 3297 2731 3419 2920 
Q 3541 3109 3541 3331 
Q 3541 3656 3305 3865 
Q 3069 4075 2559 4075 
L 1109 4075 
L 1109 2559 
z
" transform="scale(0.015625)"/>
      <path id="ArialMT-6e" d="M 422 0 
L 422 3319 
L 928 3319 
L 928 2847 
Q 1294 3394 1984 3394 
Q 2284 3394 2536 3286 
Q 2788 3178 2913 3003 
Q 3038 2828 3088 2588 
Q 3119 2431 3119 2041 
L 3119 0 
L 2556 0 
L 2556 2019 
Q 2556 2363 2490 2533 
Q 2425 2703 2258 2804 
Q 2091 2906 1866 2906 
Q 1506 2906 1245 2678 
Q 984 2450 984 1813 
L 984 0 
L 422 0 
z
" transform="scale(0.015625)"/>
      <path id="ArialMT-67" d="M 319 -275 
L 866 -356 
Q 900 -609 1056 -725 
Q 1266 -881 1628 -881 
Q 2019 -881 2231 -725 
Q 2444 -569 2519 -288 
Q 2563 -116 2559 434 
Q 2191 0 1641 0 
Q 956 0 581 494 
Q 206 988 206 1678 
Q 206 2153 378 2554 
Q 550 2956 876 3175 
Q 1203 3394 1644 3394 
Q 2231 3394 2613 2919 
L 2613 3319 
L 3131 3319 
L 3131 450 
Q 3131 -325 2973 -648 
Q 2816 -972 2473 -1159 
Q 2131 -1347 1631 -1347 
Q 1038 -1347 672 -1080 
Q 306 -813 319 -275 
z
M 784 1719 
Q 784 1066 1043 766 
Q 1303 466 1694 466 
Q 2081 466 2343 764 
Q 2606 1063 2606 1700 
Q 2606 2309 2336 2618 
Q 2066 2928 1684 2928 
Q 1309 2928 1046 2623 
Q 784 2319 784 1719 
z
" transform="scale(0.015625)"/>
     </defs>
     <use xlink:href="#ArialMT-43"/>
     <use xlink:href="#ArialMT-c0" transform="translate(72.216797 0)"/>
     <use xlink:href="#ArialMT-20" transform="translate(138.916016 0)"/>
     <use xlink:href="#ArialMT-50" transform="translate(166.699219 0)"/>
     <use xlink:href="#ArialMT-48" transform="translate(233.398438 0)"/>
     <use xlink:href="#ArialMT-ca" transform="translate(305.615234 0)"/>
     <use xlink:href="#ArialMT-20" transform="translate(372.314453 0)"/>
     <use xlink:href="#ArialMT-2014" transform="translate(400.097656 0)"/>
     <use xlink:href="#ArialMT-20" transform="translate(500.097656 0)"/>
     <use xlink:href="#ArialMT-57" transform="translate(527.880859 0)"/>
     <use xlink:href="#ArialMT-68" transform="translate(622.265625 0)"/>
     <use xlink:href="#ArialMT-6f" transform="translate(677.880859 0)"/>
     <use xlink:href="#ArialMT-6c" transform="translate(733.496094 0)"/>
     <use xlink:href="#ArialMT-65" transform="translate(755.712891 0)"/>
     <use xlink:href="#ArialMT-73" transform="translate(811.328125 0)"/>
     <use xlink:href="#ArialMT-61" transform="translate(861.328125 0)"/>
     <use xlink:href="#ArialMT-6c" transform="translate(916.943359 0)"/>
     <use xlink:href="#ArialMT-65" transform="translate(939.160156 0)"/>
     <use xlink:href="#ArialMT-20" transform="translate(994.775391 0)"/>
     <use xlink:href="#ArialMT-54" transform="translate(1020.808594 0)"/>
     <use xlink:href="#ArialMT-69" transform="translate(1078.142578 0)"/>
     <use xlink:href="#ArialMT-6d" transform="translate(1100.359375 0)"/>
     <use xlink:href="#ArialMT-65" transform="translate(1183.660156 0)"/>
     <use xlink:href="#ArialMT-20" transform="translate(1239.275391 0)"/>
     <use xlink:href="#ArialMT-53" transform="translate(1267.058594 0)"/>
     <use xlink:href="#ArialMT-65" transform="translate(1333.757812 0)"/>
     <use xlink:href="#ArialMT-72" transform="translate(1389.373047 0)"/>
     <use xlink:href="#ArialMT-69" transform="translate(1422.673828 0)"/>
     <use xlink:href="#ArialMT-65" transform="translate(1444.890625 0)"/>
     <use xlink:href="#ArialMT-73" transform="translate(1500.505859 0)"/>
     <use xlink:href="#ArialMT-20" transform="translate(1550.505859 0)"/>
     <use xlink:href="#ArialMT-2b" transform="translate(1578.289062 0)"/>
     <use xlink:href="#ArialMT-20" transform="translate(1636.6875 0)"/>
     <use xlink:href="#ArialMT-52" transform="translate(1664.470703 0)"/>
     <use xlink:href="#ArialMT-6f" transform="translate(1736.6875 0)"/>
     <use xlink:href="#ArialMT-6c" transform="translate(1792.302734 0)"/>
     <use xlink:href="#ArialMT-6c" transform="translate(1814.519531 0)"/>
     <use xlink:href="#ArialMT-69" transform="translate(1836.736328 0)"/>
     <use xlink:href="#ArialMT-6e" transform="translate(1858.953125 0)"/>
     <use xlink:href="#ArialMT-67" transform="translate(1914.568359 0)"/>
    </g>
   </g>
   <g id="legend_1">
    <g id="patch_7">
     <path d="M 900.78375 85.599531 
L 987.34 85.599531 
Q 989.54 85.599531 989.54 83.399531 
L 989.54 37.82 
Q 989.54 35.62 987.34 35.62 
L 900.78375 35.62 
Q 898.58375 35.62 898.58375 37.82 
L 898.58375 83.399531 
Q 898.58375 85.599531 900.78375 85.599531 
z
" style="fill: #ffffff; opacity: 0.8; stroke: #cccccc; stroke-linejoin: miter"/>
    </g>
    <g id="line2d_15">
     <path d="M 902.98375 44.043594 
L 913.98375 44.043594 
L 924.98375 44.043594 
" style="fill: none; stroke: #e76f51; stroke-width: 1.5; stroke-linecap: round"/>
    </g>
    <g id="text_13">
     <!-- Wholesale -->
     <g style="fill: #262626" transform="translate(933.78375 47.893594) scale(0.11 -0.11)">
      <use xlink:href="#ArialMT-57"/>
      <use xlink:href="#ArialMT-68" transform="translate(94.384766 0)"/>
      <use xlink:href="#ArialMT-6f" transform="translate(150 0)"/>
      <use xlink:href="#ArialMT-6c" transform="translate(205.615234 0)"/>
      <use xlink:href="#ArialMT-65" transform="translate(227.832031 0)"/>
      <use xlink:href="#ArialMT-73" transform="translate(283.447266 0)"/>
      <use xlink:href="#ArialMT-61" transform="translate(333.447266 0)"/>
      <use xlink:href="#ArialMT-6c" transform="translate(389.0625 0)"/>
      <use xlink:href="#ArialMT-65" transform="translate(411.279297 0)"/>
     </g>
    </g>
    <g id="line2d_16">
     <path d="M 902.98375 59.603437 
L 913.98375 59.603437 
L 924.98375 59.603437 
" style="fill: none; stroke-dasharray: 5.55,2.4; stroke-dashoffset: 0; stroke: #4878d0; stroke-width: 1.5"/>
    </g>
    <g id="text_14">
     <!-- RM7 -->
     <g style="fill: #262626" transform="translate(933.78375 63.453437) scale(0.11 -0.11)">
      <defs>
       <path id="ArialMT-4d" d="M 475 0 
L 475 4581 
L 1388 4581 
L 2472 1338 
Q 2622 884 2691 659 
Q 2769 909 2934 1394 
L 4031 4581 
L 4847 4581 
L 4847 0 
L 4263 0 
L 4263 3834 
L 2931 0 
L 2384 0 
L 1059 3900 
L 1059 0 
L 475 0 
z
" transform="scale(0.015625)"/>
      </defs>
      <use xlink:href="#ArialMT-52"/>
      <use xlink:href="#ArialMT-4d" transform="translate(72.216797 0)"/>
      <use xlink:href="#ArialMT-37" transform="translate(155.517578 0)"/>
     </g>
    </g>
    <g id="line2d_17">
     <path d="M 902.98375 75.163281 
L 913.98375 75.163281 
L 924.98375 75.163281 
" style="fill: none; stroke-dasharray: 9.6,2.4,1.5,2.4; stroke-dashoffset: 0; stroke: #ee854a; stroke-width: 1.5"/>
    </g>
    <g id="text_15">
     <!-- RM30 -->
     <g style="fill: #262626" transform="translate(933.78375 79.013281) scale(0.11 -0.11)">
      <use xlink:href="#ArialMT-52"/>
      <use xlink:href="#ArialMT-4d" transform="translate(72.216797 0)"/>
      <use xlink:href="#ArialMT-33" transform="translate(155.517578 0)"/>
      <use xlink:href="#ArialMT-30" transform="translate(211.132812 0)"/>
     </g>
    </g>
   </g>
  </g>
 </g>
 <defs>
  <clipPath id="p1bc22cde43">
   <rect x="59.225" y="30.12" width="935.815" height="296.98"/>
  </clipPath>
 </defs>
</svg>
