<?xml version="1.0" encoding="utf-8" standalone="no"?>
<!DOCTYPE svg PUBLIC "-//W3C//DTD SVG 1.1//EN"
  "http://www.w3.org/Graphics/SVG/1.1/DTD/svg11.dtd">
<svg xmlns:xlink="http://www.w3.org/1999/xlink" width="1008pt" height="432pt" viewBox="0 0 1008 432" xmlns="http://www.w3.org/2000/svg" version="1.1">
 <metadata>
  <rdf:RDF xmlns:dc="http://purl.org/dc/elements/1.1/" xmlns:cc="http://creativecommons.org/ns#" xmlns:rdf="http://www.w3.org/1999/02/22-rdf-syntax-ns#">
   <cc:Work>
    <dc:type rdf:resource="http://purl.org/dc/dcmitype/StillImage"/>
    <dc:date>2025-12-12T01:10:09.263012</dc:date>
    <dc:format>image/svg+xml</dc:format>
    <dc:creator>
     <cc:Agent>
      <dc:title>Matplotlib v3.10.7, https://matplotlib.org/</dc:title>
     </cc:Agent>
    </dc:creator>
   </cc:Work>
  </rdf:RDF>
 </metadata>
 <defs>
  <style type="text/css">*{stroke-linejoin: round; stroke-linecap: butt}</style>
 </defs>
 <g id="figure_1">
  <g id="patch_1">
   <path d="M 0 432 
L 1008 432 
L 1008 0 
L 0 0 
z
" style="fill: #ffffff"/>
  </g>
  <g id="axes_1">
   <g id="patch_2">
    <path d="M 59.225 399.1 
L 995.04 399.1 
L 995.04 30.12 
L 59.225 30.12 
z
" style="fill: #ffffff"/>
   </g>
   <g id="matplotlib.axis_1">
    <g id="xtick_1">
     <g id="line2d_1">
      <path d="M 101.762045 399.1 
L 101.762045 30.12 
" clip-path="url(#p014e31ed56)" style="fill: none; stroke: #cccccc; stroke-linecap: round"/>
     </g>
     <g id="text_1">
      <!-- 2024-09 -->
      <g style="fill: #262626" transform="translate(81.579624 416.473594) scale(0.11 -0.11)">
       <defs>
        <path id="ArialMT-32" d="M 3222 541 
L 3222 0 
L 194 0 
Q 188 203 259 391 
Q 375 700 629 1000 
Q 884 1300 1366 1694 
Q 2113 2306 2375 2664 
Q 2638 3022 2638 3341 
Q 2638 3675 2398 3904 
Q 2159 4134 1775 4134 
Q 1369 4134 1125 3890 
Q 881 3647 878 3216 
L 300 3275 
Q 359 3922 746 4261 
Q 1134 4600 1788 4600 
Q 2447 4600 2831 4234 
Q 3216 3869 3216 3328 
Q 3216 3053 3103 2787 
Q 2991 2522 2730 2228 
Q 2469 1934 1863 1422 
Q 1356 997 1212 845 
Q 1069 694 975 541 
L 3222 541 
z
" transform="scale(0.015625)"/>
        <path id="ArialMT-30" d="M 266 2259 
Q 266 3072 433 3567 
Q 600 4063 929 4331 
Q 1259 4600 1759 4600 
Q 2128 4600 2406 4451 
Q 2684 4303 2865 4023 
Q 3047 3744 3150 3342 
Q 3253 2941 3253 2259 
Q 3253 1453 3087 958 
Q 2922 463 2592 192 
Q 2263 -78 1759 -78 
Q 1097 -78 719 397 
Q 266 969 266 2259 
z
M 844 2259 
Q 844 1131 1108 757 
Q 1372 384 1759 384 
Q 2147 384 2411 759 
Q 2675 1134 2675 2259 
Q 2675 3391 2411 3762 
Q 2147 4134 1753 4134 
Q 1366 4134 1134 3806 
Q 844 3388 844 2259 
z
" transform="scale(0.015625)"/>
        <path id="ArialMT-34" d="M 2069 0 
L 2069 1097 
L 81 1097 
L 81 1613 
L 2172 4581 
L 2631 4581 
L 2631 1613 
L 3250 1613 
L 3250 1097 
L 2631 1097 
L 2631 0 
L 2069 0 
z
M 2069 1613 
L 2069 3678 
L 634 1613 
L 2069 1613 
z
" transform="scale(0.015625)"/>
        <path id="ArialMT-2d" d="M 203 1375 
L 203 1941 
L 1931 1941 
L 1931 1375 
L 203 1375 
z
" transform="scale(0.015625)"/>
        <path id="ArialMT-39" d="M 350 1059 
L 891 1109 
Q 959 728 1153 556 
Q 1347 384 1650 384 
Q 1909 384 2104 503 
Q 2300 622 2425 820 
Q 2550 1019 2634 1356 
Q 2719 1694 2719 2044 
Q 2719 2081 2716 2156 
Q 2547 1888 2255 1720 
Q 1963 1553 1622 1553 
Q 1053 1553 659 1965 
Q 266 2378 266 3053 
Q 266 3750 677 4175 
Q 1088 4600 1706 4600 
Q 2153 4600 2523 4359 
Q 2894 4119 3086 3673 
Q 3278 3228 3278 2384 
Q 3278 1506 3087 986 
Q 2897 466 2520 194 
Q 2144 -78 1638 -78 
Q 1100 -78 759 220 
Q 419 519 350 1059 
z
M 2653 3081 
Q 2653 3566 2395 3850 
Q 2138 4134 1775 4134 
Q 1400 4134 1122 3828 
Q 844 3522 844 3034 
Q 844 2597 1108 2323 
Q 1372 2050 1759 2050 
Q 2150 2050 2401 2323 
Q 2653 2597 2653 3081 
z
" transform="scale(0.015625)"/>
       </defs>
       <use xlink:href="#ArialMT-32"/>
       <use xlink:href="#ArialMT-30" transform="translate(55.615234 0)"/>
       <use xlink:href="#ArialMT-32" transform="translate(111.230469 0)"/>
       <use xlink:href="#ArialMT-34" transform="translate(166.845703 0)"/>
       <use xlink:href="#ArialMT-2d" transform="translate(222.460938 0)"/>
       <use xlink:href="#ArialMT-30" transform="translate(255.761719 0)"/>
       <use xlink:href="#ArialMT-39" transform="translate(311.376953 0)"/>
      </g>
     </g>
    </g>
    <g id="xtick_2">
     <g id="line2d_2">
      <path d="M 233.47574 399.1 
L 233.47574 30.12 
" clip-path="url(#p014e31ed56)" style="fill: none; stroke: #cccccc; stroke-linecap: round"/>
     </g>
     <g id="text_2">
      <!-- 2024-11 -->
      <g style="fill: #262626" transform="translate(213.698943 416.473594) scale(0.11 -0.11)">
       <defs>
        <path id="ArialMT-31" d="M 2384 0 
L 1822 0 
L 1822 3584 
Q 1619 3391 1289 3197 
Q 959 3003 697 2906 
L 697 3450 
Q 1169 3672 1522 3987 
Q 1875 4303 2022 4600 
L 2384 4600 
L 2384 0 
z
" transform="scale(0.015625)"/>
       </defs>
       <use xlink:href="#ArialMT-32"/>
       <use xlink:href="#ArialMT-30" transform="translate(55.615234 0)"/>
       <use xlink:href="#ArialMT-32" transform="translate(111.230469 0)"/>
       <use xlink:href="#ArialMT-34" transform="translate(166.845703 0)"/>
       <use xlink:href="#ArialMT-2d" transform="translate(222.460938 0)"/>
       <use xlink:href="#ArialMT-31" transform="translate(255.761719 0)"/>
       <use xlink:href="#ArialMT-31" transform="translate(304.001953 0)"/>
      </g>
     </g>
    </g>
    <g id="xtick_3">
     <g id="line2d_3">
      <path d="M 365.189434 399.1 
L 365.189434 30.12 
" clip-path="url(#p014e31ed56)" style="fill: none; stroke: #cccccc; stroke-linecap: round"/>
     </g>
     <g id="text_3">
      <!-- 2025-01 -->
      <g style="fill: #262626" transform="translate(345.007012 416.473594) scale(0.11 -0.11)">
       <defs>
        <path id="ArialMT-35" d="M 266 1200 
L 856 1250 
Q 922 819 1161 601 
Q 1400 384 1738 384 
Q 2144 384 2425 690 
Q 2706 997 2706 1503 
Q 2706 1984 2436 2262 
Q 2166 2541 1728 2541 
Q 1456 2541 1237 2417 
Q 1019 2294 894 2097 
L 366 2166 
L 809 4519 
L 3088 4519 
L 3088 3981 
L 1259 3981 
L 1013 2750 
Q 1425 3038 1878 3038 
Q 2478 3038 2890 2622 
Q 3303 2206 3303 1553 
Q 3303 931 2941 478 
Q 2500 -78 1738 -78 
Q 1113 -78 717 272 
Q 322 622 266 1200 
z
" transform="scale(0.015625)"/>
       </defs>
       <use xlink:href="#ArialMT-32"/>
       <use xlink:href="#ArialMT-30" transform="translate(55.615234 0)"/>
       <use xlink:href="#ArialMT-32" transform="translate(111.230469 0)"/>
       <use xlink:href="#ArialMT-35" transform="translate(166.845703 0)"/>
       <use xlink:href="#ArialMT-2d" transform="translate(222.460938 0)"/>
       <use xlink:href="#ArialMT-30" transform="translate(255.761719 0)"/>
       <use xlink:href="#ArialMT-31" transform="translate(311.376953 0)"/>
      </g>
     </g>
    </g>
    <g id="xtick_4">
     <g id="line2d_4">
      <path d="M 492.584646 399.1 
L 492.584646 30.12 
" clip-path="url(#p014e31ed56)" style="fill: none; stroke: #cccccc; stroke-linecap: round"/>
     </g>
     <g id="text_4">
      <!-- 2025-03 -->
      <g style="fill: #262626" transform="translate(472.402224 416.473594) scale(0.11 -0.11)">
       <defs>
        <path id="ArialMT-33" d="M 269 1209 
L 831 1284 
Q 928 806 1161 595 
Q 1394 384 1728 384 
Q 2125 384 2398 659 
Q 2672 934 2672 1341 
Q 2672 1728 2419 1979 
Q 2166 2231 1775 2231 
Q 1616 2231 1378 2169 
L 1441 2663 
Q 1497 2656 1531 2656 
Q 1891 2656 2178 2843 
Q 2466 3031 2466 3422 
Q 2466 3731 2256 3934 
Q 2047 4138 1716 4138 
Q 1388 4138 1169 3931 
Q 950 3725 888 3313 
L 325 3413 
Q 428 3978 793 4289 
Q 1159 4600 1703 4600 
Q 2078 4600 2393 4439 
Q 2709 4278 2876 4000 
Q 3044 3722 3044 3409 
Q 3044 3113 2884 2869 
Q 2725 2625 2413 2481 
Q 2819 2388 3044 2092 
Q 3269 1797 3269 1353 
Q 3269 753 2831 336 
Q 2394 -81 1725 -81 
Q 1122 -81 723 278 
Q 325 638 269 1209 
z
" transform="scale(0.015625)"/>
       </defs>
       <use xlink:href="#ArialMT-32"/>
       <use xlink:href="#ArialMT-30" transform="translate(55.615234 0)"/>
       <use xlink:href="#ArialMT-32" transform="translate(111.230469 0)"/>
       <use xlink:href="#ArialMT-35" transform="translate(166.845703 0)"/>
       <use xlink:href="#ArialMT-2d" transform="translate(222.460938 0)"/>
       <use xlink:href="#ArialMT-30" transform="translate(255.761719 0)"/>
       <use xlink:href="#ArialMT-33" transform="translate(311.376953 0)"/>
      </g>
     </g>
    </g>
    <g id="xtick_5">
     <g id="line2d_5">
      <path d="M 624.29834 399.1 
L 624.29834 30.12 
" clip-path="url(#p014e31ed56)" style="fill: none; stroke: #cccccc; stroke-linecap: round"/>
     </g>
     <g id="text_5">
      <!-- 2025-05 -->
      <g style="fill: #262626" transform="translate(604.115918 416.473594) scale(0.11 -0.11)">
       <use xlink:href="#ArialMT-32"/>
       <use xlink:href="#ArialMT-30" transform="translate(55.615234 0)"/>
       <use xlink:href="#ArialMT-32" transform="translate(111.230469 0)"/>
       <use xlink:href="#ArialMT-35" transform="translate(166.845703 0)"/>
       <use xlink:href="#ArialMT-2d" transform="translate(222.460938 0)"/>
       <use xlink:href="#ArialMT-30" transform="translate(255.761719 0)"/>
       <use xlink:href="#ArialMT-35" transform="translate(311.376953 0)"/>
      </g>
     </g>
    </g>
    <g id="xtick_6">
     <g id="line2d_6">
      <path d="M 756.012034 399.1 
L 756.012034 30.12 
" clip-path="url(#p014e31ed56)" style="fill: none; stroke: #cccccc; stroke-linecap: round"/>
     </g>
     <g id="text_6">
      <!-- 2025-07 -->
      <g style="fill: #262626" transform="translate(735.829612 416.473594) scale(0.11 -0.11)">
       <defs>
        <path id="ArialMT-37" d="M 303 3981 
L 303 4522 
L 3269 4522 
L 3269 4084 
Q 2831 3619 2401 2847 
Q 1972 2075 1738 1259 
Q 1569 684 1522 0 
L 944 0 
Q 953 541 1156 1306 
Q 1359 2072 1739 2783 
Q 2119 3494 2547 3981 
L 303 3981 
z
" transform="scale(0.015625)"/>
       </defs>
       <use xlink:href="#ArialMT-32"/>
       <use xlink:href="#ArialMT-30" transform="translate(55.615234 0)"/>
       <use xlink:href="#ArialMT-32" transform="translate(111.230469 0)"/>
       <use xlink:href="#ArialMT-35" transform="translate(166.845703 0)"/>
       <use xlink:href="#ArialMT-2d" transform="translate(222.460938 0)"/>
       <use xlink:href="#ArialMT-30" transform="translate(255.761719 0)"/>
       <use xlink:href="#ArialMT-37" transform="translate(311.376953 0)"/>
      </g>
     </g>
    </g>
    <g id="xtick_7">
     <g id="line2d_7">
      <path d="M 889.884969 399.1 
L 889.884969 30.12 
" clip-path="url(#p014e31ed56)" style="fill: none; stroke: #cccccc; stroke-linecap: round"/>
     </g>
     <g id="text_7">
      <!-- 2025-09 -->
      <g style="fill: #262626" transform="translate(869.702547 416.473594) scale(0.11 -0.11)">
       <use xlink:href="#ArialMT-32"/>
       <use xlink:href="#ArialMT-30" transform="translate(55.615234 0)"/>
       <use xlink:href="#ArialMT-32" transform="translate(111.230469 0)"/>
       <use xlink:href="#ArialMT-35" transform="translate(166.845703 0)"/>
       <use xlink:href="#ArialMT-2d" transform="translate(222.460938 0)"/>
       <use xlink:href="#ArialMT-30" transform="translate(255.761719 0)"/>
       <use xlink:href="#ArialMT-39" transform="translate(311.376953 0)"/>
      </g>
     </g>
    </g>
   </g>
   <g id="matplotlib.axis_2">
    <g id="ytick_1">
     <g id="line2d_8">
      <path d="M 59.225 327.62345 
L 995.04 327.62345 
" clip-path="url(#p014e31ed56)" style="fill: none; stroke: #cccccc; stroke-linecap: round"/>
     </g>
     <g id="text_8">
      <!-- 60000 -->
      <g style="fill: #262626" transform="translate(19.139844 331.560247) scale(0.11 -0.11)">
       <defs>
        <path id="ArialMT-36" d="M 3184 3459 
L 2625 3416 
Q 2550 3747 2413 3897 
Q 2184 4138 1850 4138 
Q 1581 4138 1378 3988 
Q 1113 3794 959 3422 
Q 806 3050 800 2363 
Q 1003 2672 1297 2822 
Q 1591 2972 1913 2972 
Q 2475 2972 2870 2558 
Q 3266 2144 3266 1488 
Q 3266 1056 3080 686 
Q 2894 316 2569 119 
Q 2244 -78 1831 -78 
Q 1128 -78 684 439 
Q 241 956 241 2144 
Q 241 3472 731 4075 
Q 1159 4600 1884 4600 
Q 2425 4600 2770 4297 
Q 3116 3994 3184 3459 
z
M 888 1484 
Q 888 1194 1011 928 
Q 1134 663 1356 523 
Q 1578 384 1822 384 
Q 2178 384 2434 671 
Q 2691 959 2691 1453 
Q 2691 1928 2437 2201 
Q 2184 2475 1800 2475 
Q 1419 2475 1153 2201 
Q 888 1928 888 1484 
z
" transform="scale(0.015625)"/>
       </defs>
       <use xlink:href="#ArialMT-36"/>
       <use xlink:href="#ArialMT-30" transform="translate(55.615234 0)"/>
       <use xlink:href="#ArialMT-30" transform="translate(111.230469 0)"/>
       <use xlink:href="#ArialMT-30" transform="translate(166.845703 0)"/>
       <use xlink:href="#ArialMT-30" transform="translate(222.460938 0)"/>
      </g>
     </g>
    </g>
    <g id="ytick_2">
     <g id="line2d_9">
      <path d="M 59.225 251.750036 
L 995.04 251.750036 
" clip-path="url(#p014e31ed56)" style="fill: none; stroke: #cccccc; stroke-linecap: round"/>
     </g>
     <g id="text_9">
      <!-- 80000 -->
      <g style="fill: #262626" transform="translate(19.139844 255.686833) scale(0.11 -0.11)">
       <defs>
        <path id="ArialMT-38" d="M 1131 2484 
Q 781 2613 612 2850 
Q 444 3088 444 3419 
Q 444 3919 803 4259 
Q 1163 4600 1759 4600 
Q 2359 4600 2725 4251 
Q 3091 3903 3091 3403 
Q 3091 3084 2923 2848 
Q 2756 2613 2416 2484 
Q 2838 2347 3058 2040 
Q 3278 1734 3278 1309 
Q 3278 722 2862 322 
Q 2447 -78 1769 -78 
Q 1091 -78 675 323 
Q 259 725 259 1325 
Q 259 1772 486 2073 
Q 713 2375 1131 2484 
z
M 1019 3438 
Q 1019 3113 1228 2906 
Q 1438 2700 1772 2700 
Q 2097 2700 2305 2904 
Q 2513 3109 2513 3406 
Q 2513 3716 2298 3927 
Q 2084 4138 1766 4138 
Q 1444 4138 1231 3931 
Q 1019 3725 1019 3438 
z
M 838 1322 
Q 838 1081 952 856 
Q 1066 631 1291 507 
Q 1516 384 1775 384 
Q 2178 384 2440 643 
Q 2703 903 2703 1303 
Q 2703 1709 2433 1975 
Q 2163 2241 1756 2241 
Q 1359 2241 1098 1978 
Q 838 1716 838 1322 
z
" transform="scale(0.015625)"/>
       </defs>
       <use xlink:href="#ArialMT-38"/>
       <use xlink:href="#ArialMT-30" transform="translate(55.615234 0)"/>
       <use xlink:href="#ArialMT-30" transform="translate(111.230469 0)"/>
       <use xlink:href="#ArialMT-30" transform="translate(166.845703 0)"/>
       <use xlink:href="#ArialMT-30" transform="translate(222.460938 0)"/>
      </g>
     </g>
    </g>
    <g id="ytick_3">
     <g id="line2d_10">
      <path d="M 59.225 175.876622 
L 995.04 175.876622 
" clip-path="url(#p014e31ed56)" style="fill: none; stroke: #cccccc; stroke-linecap: round"/>
     </g>
     <g id="text_10">
      <!-- 100000 -->
      <g style="fill: #262626" transform="translate(13.022813 179.813419) scale(0.11 -0.11)">
       <use xlink:href="#ArialMT-31"/>
       <use xlink:href="#ArialMT-30" transform="translate(55.615234 0)"/>
       <use xlink:href="#ArialMT-30" transform="translate(111.230469 0)"/>
       <use xlink:href="#ArialMT-30" transform="translate(166.845703 0)"/>
       <use xlink:href="#ArialMT-30" transform="translate(222.460938 0)"/>
       <use xlink:href="#ArialMT-30" transform="translate(278.076172 0)"/>
      </g>
     </g>
    </g>
    <g id="ytick_4">
     <g id="line2d_11">
      <path d="M 59.225 100.003208 
L 995.04 100.003208 
" clip-path="url(#p014e31ed56)" style="fill: none; stroke: #cccccc; stroke-linecap: round"/>
     </g>
     <g id="text_11">
      <!-- 120000 -->
      <g style="fill: #262626" transform="translate(13.022813 103.940005) scale(0.11 -0.11)">
       <use xlink:href="#ArialMT-31"/>
       <use xlink:href="#ArialMT-32" transform="translate(55.615234 0)"/>
       <use xlink:href="#ArialMT-30" transform="translate(111.230469 0)"/>
       <use xlink:href="#ArialMT-30" transform="translate(166.845703 0)"/>
       <use xlink:href="#ArialMT-30" transform="translate(222.460938 0)"/>
       <use xlink:href="#ArialMT-30" transform="translate(278.076172 0)"/>
      </g>
     </g>
    </g>
   </g>
   <g id="PathCollection_1">
    <defs>
     <path id="mfa688cca8b" d="M 0 3.535534 
C 0.937635 3.535534 1.836992 3.163008 2.5 2.5 
C 3.163008 1.836992 3.535534 0.937635 3.535534 0 
C 3.535534 -0.937635 3.163008 -1.836992 2.5 -2.5 
C 1.836992 -3.163008 0.937635 -3.535534 0 -3.535534 
C -0.937635 -3.535534 -1.836992 -3.163008 -2.5 -2.5 
C -3.163008 -1.836992 -3.535534 -0.937635 -3.535534 0 
C -3.535534 0.937635 -3.163008 1.836992 -2.5 2.5 
C -1.836992 3.163008 -0.937635 3.535534 0 3.535534 
z
" style="stroke: #ffa500"/>
    </defs>
    <g clip-path="url(#p014e31ed56)">
     <use xlink:href="#mfa688cca8b" x="103.921286" y="126.558903" style="fill: #ffa500; stroke: #ffa500"/>
     <use xlink:href="#mfa688cca8b" x="114.717491" y="241.507125" style="fill: #ffa500; stroke: #ffa500"/>
     <use xlink:href="#mfa688cca8b" x="131.991418" y="176.71123" style="fill: #ffa500; stroke: #ffa500"/>
     <use xlink:href="#mfa688cca8b" x="138.469141" y="337.486994" style="fill: #ffa500; stroke: #ffa500"/>
     <use xlink:href="#mfa688cca8b" x="149.265345" y="101.900043" style="fill: #ffa500; stroke: #ffa500"/>
     <use xlink:href="#mfa688cca8b" x="190.290922" y="241.051885" style="fill: #ffa500; stroke: #ffa500"/>
     <use xlink:href="#mfa688cca8b" x="194.609404" y="125.800169" style="fill: #ffa500; stroke: #ffa500"/>
     <use xlink:href="#mfa688cca8b" x="205.405608" y="248.032239" style="fill: #ffa500; stroke: #ffa500"/>
     <use xlink:href="#mfa688cca8b" x="209.72409" y="133.766877" style="fill: #ffa500; stroke: #ffa500"/>
     <use xlink:href="#mfa688cca8b" x="220.520294" y="290.597224" style="fill: #ffa500; stroke: #ffa500"/>
     <use xlink:href="#mfa688cca8b" x="222.679535" y="207.667583" style="fill: #ffa500; stroke: #ffa500"/>
     <use xlink:href="#mfa688cca8b" x="237.794221" y="312.221147" style="fill: #ffa500; stroke: #ffa500"/>
     <use xlink:href="#mfa688cca8b" x="239.953462" y="233.085176" style="fill: #ffa500; stroke: #ffa500"/>
     <use xlink:href="#mfa688cca8b" x="280.979039" y="282.706389" style="fill: #ffa500; stroke: #ffa500"/>
     <use xlink:href="#mfa688cca8b" x="298.252966" y="274.51206" style="fill: #ffa500; stroke: #ffa500"/>
     <use xlink:href="#mfa688cca8b" x="315.526893" y="121.247764" style="fill: #ffa500; stroke: #ffa500"/>
     <use xlink:href="#mfa688cca8b" x="328.482338" y="227.091177" style="fill: #ffa500; stroke: #ffa500"/>
     <use xlink:href="#mfa688cca8b" x="334.960061" y="259.109757" style="fill: #ffa500; stroke: #ffa500"/>
     <use xlink:href="#mfa688cca8b" x="350.074747" y="279.292086" style="fill: #ffa500; stroke: #ffa500"/>
     <use xlink:href="#mfa688cca8b" x="352.233988" y="364.270309" style="fill: #ffa500; stroke: #ffa500"/>
     <use xlink:href="#mfa688cca8b" x="375.985638" y="100.761942" style="fill: #ffa500; stroke: #ffa500"/>
     <use xlink:href="#mfa688cca8b" x="399.737288" y="268.214567" style="fill: #ffa500; stroke: #ffa500"/>
     <use xlink:href="#mfa688cca8b" x="429.96666" y="203.342798" style="fill: #ffa500; stroke: #ffa500"/>
     <use xlink:href="#mfa688cca8b" x="447.240587" y="215.533114" style="fill: #ffa500; stroke: #ffa500"/>
     <use xlink:href="#mfa688cca8b" x="449.399828" y="98.106373" style="fill: #ffa500; stroke: #ffa500"/>
     <use xlink:href="#mfa688cca8b" x="477.46996" y="216.468899" style="fill: #ffa500; stroke: #ffa500"/>
     <use xlink:href="#mfa688cca8b" x="522.814018" y="191.152217" style="fill: #ffa500; stroke: #ffa500"/>
     <use xlink:href="#mfa688cca8b" x="524.973259" y="322.084691" style="fill: #ffa500; stroke: #ffa500"/>
     <use xlink:href="#mfa688cca8b" x="557.361872" y="54.47916" style="fill: #ffa500; stroke: #ffa500"/>
     <use xlink:href="#mfa688cca8b" x="568.158077" y="220.869557" style="fill: #ffa500; stroke: #ffa500"/>
     <use xlink:href="#mfa688cca8b" x="585.432004" y="265.710744" style="fill: #ffa500; stroke: #ffa500"/>
     <use xlink:href="#mfa688cca8b" x="630.776063" y="206.757102" style="fill: #ffa500; stroke: #ffa500"/>
     <use xlink:href="#mfa688cca8b" x="643.731508" y="252.357024" style="fill: #ffa500; stroke: #ffa500"/>
     <use xlink:href="#mfa688cca8b" x="689.075566" y="230.960721" style="fill: #ffa500; stroke: #ffa500"/>
     <use xlink:href="#mfa688cca8b" x="704.190253" y="249.549707" style="fill: #ffa500; stroke: #ffa500"/>
     <use xlink:href="#mfa688cca8b" x="719.304939" y="268.669808" style="fill: #ffa500; stroke: #ffa500"/>
     <use xlink:href="#mfa688cca8b" x="749.534311" y="294.315021" style="fill: #ffa500; stroke: #ffa500"/>
     <use xlink:href="#mfa688cca8b" x="896.362692" y="265.255504" style="fill: #ffa500; stroke: #ffa500"/>
     <use xlink:href="#mfa688cca8b" x="911.477378" y="244.617935" style="fill: #ffa500; stroke: #ffa500"/>
     <use xlink:href="#mfa688cca8b" x="915.795859" y="302.205857" style="fill: #ffa500; stroke: #ffa500"/>
    </g>
   </g>
   <g id="PathCollection_2">
    <defs>
     <path id="m8f1b41333a" d="M 0 4.472136 
C 1.186024 4.472136 2.323632 4.000923 3.162278 3.162278 
C 4.000923 2.323632 4.472136 1.186024 4.472136 0 
C 4.472136 -1.186024 4.000923 -2.323632 3.162278 -3.162278 
C 2.323632 -4.000923 1.186024 -4.472136 0 -4.472136 
C -1.186024 -4.472136 -2.323632 -4.000923 -3.162278 -3.162278 
C -4.000923 -2.323632 -4.472136 -1.186024 -4.472136 0 
C -4.472136 1.186024 -4.000923 2.323632 -3.162278 3.162278 
C -2.323632 4.000923 -1.186024 4.472136 0 4.472136 
z
" style="stroke: #ff0000"/>
    </defs>
    <g clip-path="url(#p014e31ed56)">
     <use xlink:href="#m8f1b41333a" x="129.832177" y="271.780618" style="fill: #ff0000; stroke: #ff0000"/>
     <use xlink:href="#m8f1b41333a" x="134.150659" y="329.368539" style="fill: #ff0000; stroke: #ff0000"/>
     <use xlink:href="#m8f1b41333a" x="160.061549" y="302.28173" style="fill: #ff0000; stroke: #ff0000"/>
     <use xlink:href="#m8f1b41333a" x="177.335476" y="380.051979" style="fill: #ff0000; stroke: #ff0000"/>
     <use xlink:href="#m8f1b41333a" x="244.271944" y="355.241373" style="fill: #ff0000; stroke: #ff0000"/>
     <use xlink:href="#m8f1b41333a" x="246.431185" y="272.311731" style="fill: #ff0000; stroke: #ff0000"/>
     <use xlink:href="#m8f1b41333a" x="248.590426" y="147.575839" style="fill: #ff0000; stroke: #ff0000"/>
     <use xlink:href="#m8f1b41333a" x="265.864353" y="318.518641" style="fill: #ff0000; stroke: #ff0000"/>
     <use xlink:href="#m8f1b41333a" x="311.208411" y="327.926944" style="fill: #ff0000; stroke: #ff0000"/>
     <use xlink:href="#m8f1b41333a" x="313.367652" y="231.719455" style="fill: #ff0000; stroke: #ff0000"/>
     <use xlink:href="#m8f1b41333a" x="326.323098" y="296.742971" style="fill: #ff0000; stroke: #ff0000"/>
     <use xlink:href="#m8f1b41333a" x="343.597025" y="257.781973" style="fill: #ff0000; stroke: #ff0000"/>
     <use xlink:href="#m8f1b41333a" x="371.667156" y="314.72497" style="fill: #ff0000; stroke: #ff0000"/>
     <use xlink:href="#m8f1b41333a" x="373.826397" y="205.922494" style="fill: #ff0000; stroke: #ff0000"/>
     <use xlink:href="#m8f1b41333a" x="395.418806" y="343.329247" style="fill: #ff0000; stroke: #ff0000"/>
     <use xlink:href="#m8f1b41333a" x="417.011215" y="305.696034" style="fill: #ff0000; stroke: #ff0000"/>
     <use xlink:href="#m8f1b41333a" x="492.584646" y="282.276187" style="fill: #ff0000; stroke: #ff0000"/>
     <use xlink:href="#m8f1b41333a" x="553.043391" y="242.114113" style="fill: #ff0000; stroke: #ff0000"/>
     <use xlink:href="#m8f1b41333a" x="583.272763" y="327.926944" style="fill: #ff0000; stroke: #ff0000"/>
     <use xlink:href="#m8f1b41333a" x="598.387449" y="284.679098" style="fill: #ff0000; stroke: #ff0000"/>
     <use xlink:href="#m8f1b41333a" x="613.502135" y="295.453123" style="fill: #ff0000; stroke: #ff0000"/>
     <use xlink:href="#m8f1b41333a" x="628.616822" y="300.991882" style="fill: #ff0000; stroke: #ff0000"/>
     <use xlink:href="#m8f1b41333a" x="632.935303" y="65.860172" style="fill: #ff0000; stroke: #ff0000"/>
     <use xlink:href="#m8f1b41333a" x="658.846194" y="276.408896" style="fill: #ff0000; stroke: #ff0000"/>
     <use xlink:href="#m8f1b41333a" x="661.005435" y="159.108598" style="fill: #ff0000; stroke: #ff0000"/>
     <use xlink:href="#m8f1b41333a" x="673.96088" y="291.128338" style="fill: #ff0000; stroke: #ff0000"/>
     <use xlink:href="#m8f1b41333a" x="678.279362" y="92.415867" style="fill: #ff0000; stroke: #ff0000"/>
     <use xlink:href="#m8f1b41333a" x="768.967479" y="191.810039" style="fill: #ff0000; stroke: #ff0000"/>
     <use xlink:href="#m8f1b41333a" x="781.922925" y="140.291991" style="fill: #ff0000; stroke: #ff0000"/>
     <use xlink:href="#m8f1b41333a" x="870.451801" y="308.73097" style="fill: #ff0000; stroke: #ff0000"/>
     <use xlink:href="#m8f1b41333a" x="898.521932" y="139.078016" style="fill: #ff0000; stroke: #ff0000"/>
     <use xlink:href="#m8f1b41333a" x="907.158896" y="120.868397" style="fill: #ff0000; stroke: #ff0000"/>
     <use xlink:href="#m8f1b41333a" x="933.069787" y="374.968461" style="fill: #ff0000; stroke: #ff0000"/>
    </g>
   </g>
   <g id="PathCollection_3">
    <defs>
     <path id="mdf6a5890c2" d="M 0 5.477226 
C 1.452577 5.477226 2.845856 4.900111 3.872983 3.872983 
C 4.900111 2.845856 5.477226 1.452577 5.477226 0 
C 5.477226 -1.452577 4.900111 -2.845856 3.872983 -3.872983 
C 2.845856 -4.900111 1.452577 -5.477226 0 -5.477226 
C -1.452577 -5.477226 -2.845856 -4.900111 -3.872983 -3.872983 
C -4.900111 -2.845856 -5.477226 -1.452577 -5.477226 0 
C -5.477226 1.452577 -4.900111 2.845856 -3.872983 3.872983 
C -2.845856 4.900111 -1.452577 5.477226 0 5.477226 
z
" style="stroke: #000000"/>
    </defs>
    <g clip-path="url(#p014e31ed56)">
     <use xlink:href="#mdf6a5890c2" x="136.3099" y="209.109177" style="stroke: #000000"/>
     <use xlink:href="#mdf6a5890c2" x="140.628381" y="196.741811" style="stroke: #000000"/>
     <use xlink:href="#mdf6a5890c2" x="162.22079" y="133.842751" style="stroke: #000000"/>
     <use xlink:href="#mdf6a5890c2" x="170.857754" y="382.328182" style="stroke: #000000"/>
     <use xlink:href="#mdf6a5890c2" x="173.016995" y="288.624515" style="stroke: #000000"/>
     <use xlink:href="#mdf6a5890c2" x="179.494717" y="117.074726" style="stroke: #000000"/>
     <use xlink:href="#mdf6a5890c2" x="250.749667" y="356.758841" style="stroke: #000000"/>
     <use xlink:href="#mdf6a5890c2" x="252.908907" y="140.291991" style="stroke: #000000"/>
     <use xlink:href="#mdf6a5890c2" x="270.182835" y="127.317637" style="stroke: #000000"/>
     <use xlink:href="#mdf6a5890c2" x="285.297521" y="107.590549" style="stroke: #000000"/>
     <use xlink:href="#mdf6a5890c2" x="300.412207" y="63.204602" style="stroke: #000000"/>
     <use xlink:href="#mdf6a5890c2" x="332.80082" y="86.725361" style="stroke: #000000"/>
     <use xlink:href="#mdf6a5890c2" x="354.393229" y="263.965656" style="stroke: #000000"/>
     <use xlink:href="#mdf6a5890c2" x="356.55247" y="86.725361" style="stroke: #000000"/>
     <use xlink:href="#mdf6a5890c2" x="358.711711" y="377.017043" style="stroke: #000000"/>
     <use xlink:href="#mdf6a5890c2" x="360.870952" y="98.865107" style="stroke: #000000"/>
     <use xlink:href="#mdf6a5890c2" x="386.781842" y="340.29431" style="stroke: #000000"/>
     <use xlink:href="#mdf6a5890c2" x="393.259565" y="149.245054" style="stroke: #000000"/>
     <use xlink:href="#mdf6a5890c2" x="406.21501" y="102.658778" style="stroke: #000000"/>
     <use xlink:href="#mdf6a5890c2" x="436.444383" y="70.412577" style="stroke: #000000"/>
     <use xlink:href="#mdf6a5890c2" x="455.877551" y="331.113627" style="stroke: #000000"/>
     <use xlink:href="#mdf6a5890c2" x="458.036792" y="54.47916" style="stroke: #000000"/>
     <use xlink:href="#mdf6a5890c2" x="462.355273" y="360.021398" style="stroke: #000000"/>
     <use xlink:href="#mdf6a5890c2" x="466.673755" y="62.445868" style="stroke: #000000"/>
     <use xlink:href="#mdf6a5890c2" x="481.788441" y="51.444223" style="stroke: #000000"/>
     <use xlink:href="#mdf6a5890c2" x="496.903128" y="71.550678" style="stroke: #000000"/>
     <use xlink:href="#mdf6a5890c2" x="507.699332" y="308.50335" style="stroke: #000000"/>
     <use xlink:href="#mdf6a5890c2" x="509.858573" y="121.627131" style="stroke: #000000"/>
     <use xlink:href="#mdf6a5890c2" x="527.1325" y="58.27283" style="stroke: #000000"/>
     <use xlink:href="#mdf6a5890c2" x="537.928704" y="336.576513" style="stroke: #000000"/>
     <use xlink:href="#mdf6a5890c2" x="542.247186" y="51.444223" style="stroke: #000000"/>
     <use xlink:href="#mdf6a5890c2" x="572.476559" y="77.241184" style="stroke: #000000"/>
     <use xlink:href="#mdf6a5890c2" x="587.591245" y="83.690424" style="stroke: #000000"/>
     <use xlink:href="#mdf6a5890c2" x="600.54669" y="146.437737" style="stroke: #000000"/>
     <use xlink:href="#mdf6a5890c2" x="617.820617" y="61.687134" style="stroke: #000000"/>
     <use xlink:href="#mdf6a5890c2" x="648.04999" y="69.653842" style="stroke: #000000"/>
     <use xlink:href="#mdf6a5890c2" x="708.508734" y="124.662068" style="stroke: #000000"/>
     <use xlink:href="#mdf6a5890c2" x="723.623421" y="130.352574" style="stroke: #000000"/>
     <use xlink:href="#mdf6a5890c2" x="753.852793" y="199.018013" style="stroke: #000000"/>
     <use xlink:href="#mdf6a5890c2" x="859.655596" y="112.142954" style="stroke: #000000"/>
     <use xlink:href="#mdf6a5890c2" x="874.770283" y="86.725361" style="stroke: #000000"/>
     <use xlink:href="#mdf6a5890c2" x="885.566487" y="365.236178" style="stroke: #000000"/>
     <use xlink:href="#mdf6a5890c2" x="887.725728" y="218.441607" style="stroke: #000000"/>
     <use xlink:href="#mdf6a5890c2" x="920.114341" y="100.761942" style="stroke: #000000"/>
     <use xlink:href="#mdf6a5890c2" x="935.229027" y="134.904979" style="stroke: #000000"/>
    </g>
   </g>
   <g id="line2d_12">
    <path d="M 101.762045 218.745101 
L 103.921286 126.558903 
L 106.080527 111.38422 
L 108.239768 110.625486 
L 110.399009 102.27941 
L 112.55825 100.761942 
L 114.717491 241.507125 
L 116.876732 173.296926 
L 119.035973 126.558903 
L 121.195213 111.38422 
L 123.354454 110.625486 
L 125.513695 102.27941 
L 127.672936 100.761942 
L 129.832177 271.780618 
L 131.991418 176.71123 
L 134.150659 329.368539 
L 136.3099 209.109177 
L 138.469141 337.486994 
L 140.628381 196.741811 
L 142.787622 243.17634 
L 144.946863 198.562773 
L 147.106104 198.562773 
L 149.265345 101.900043 
L 151.424586 96.209537 
L 153.583827 100.003208 
L 155.743068 96.209537 
L 157.902308 93.933335 
L 160.061549 302.28173 
L 162.22079 133.842751 
L 164.380031 95.83017 
L 166.539272 95.071436 
L 168.698513 95.071436 
L 170.857754 382.328182 
L 173.016995 288.624515 
L 175.176236 269.807909 
L 177.335476 380.051979 
L 179.494717 117.074726 
L 181.653958 120.868397 
L 183.813199 128.076371 
L 185.97244 127.317637 
L 188.131681 125.420802 
L 190.290922 241.051885 
L 192.450163 230.657227 
L 194.609404 125.800169 
L 196.768644 122.765232 
L 198.927885 125.420802 
L 201.087126 127.697004 
L 203.246367 131.490675 
L 205.405608 248.032239 
L 207.564849 240.369024 
L 209.72409 133.766877 
L 211.883331 134.146244 
L 214.042572 135.284346 
L 216.201812 140.216117 
L 218.361053 144.009788 
L 220.520294 290.597224 
L 222.679535 207.667583 
L 224.838776 140.216117 
L 226.998017 139.83675 
L 229.157258 141.733586 
L 231.316499 141.733586 
L 233.47574 146.285991 
L 235.63498 170.641357 
L 237.794221 312.221147 
L 239.953462 233.085176 
L 242.112703 169.579129 
L 244.271944 355.241373 
L 246.431185 272.311731 
L 248.590426 147.575839 
L 250.749667 356.758841 
L 252.908907 140.291991 
L 255.068148 150.079661 
L 257.227389 145.527256 
L 259.38663 134.904979 
L 261.545871 133.766877 
L 263.705112 131.111308 
L 265.864353 318.518641 
L 268.023594 313.131628 
L 270.182835 127.317637 
L 272.342075 126.179536 
L 274.501316 125.800169 
L 276.660557 120.868397 
L 278.819798 121.247764 
L 280.979039 282.706389 
L 283.13828 276.484769 
L 285.297521 107.590549 
L 287.456762 96.968271 
L 289.616003 93.174601 
L 291.775243 73.447513 
L 293.934484 69.653842 
L 296.093725 150.686649 
L 298.252966 274.51206 
L 300.412207 63.204602 
L 302.571448 70.412577 
L 304.730689 145.527256 
L 306.88993 149.320927 
L 309.049171 105.314347 
L 311.208411 327.926944 
L 313.367652 231.719455 
L 315.526893 121.247764 
L 317.686134 88.622196 
L 319.845375 88.622196 
L 322.004616 84.069791 
L 324.163857 83.311057 
L 326.323098 296.742971 
L 328.482338 227.091177 
L 330.641579 283.237503 
L 332.80082 86.725361 
L 334.960061 259.109757 
L 337.119302 312.600514 
L 339.278543 332.099982 
L 341.437784 341.887652 
L 343.597025 257.781973 
L 345.756266 186.878267 
L 347.915506 157.894623 
L 350.074747 279.292086 
L 352.233988 364.270309 
L 354.393229 263.965656 
L 356.55247 86.725361 
L 358.711711 377.017043 
L 360.870952 98.865107 
L 363.030193 98.106373 
L 365.189434 98.106373 
L 367.348674 104.93498 
L 369.507915 104.93498 
L 371.667156 314.72497 
L 375.985638 100.761942 
L 378.144879 98.865107 
L 380.30412 96.209537 
L 382.463361 97.600563 
L 384.622602 112.901688 
L 386.781842 340.29431 
L 388.941083 343.40512 
L 391.100324 340.825424 
L 393.259565 149.245054 
L 395.418806 343.329247 
L 397.578047 330.27902 
L 399.737288 268.214567 
L 401.896529 260.096112 
L 404.055769 305.265831 
L 406.21501 102.658778 
L 408.374251 106.831815 
L 410.533492 98.865107 
L 412.692733 86.725361 
L 414.851974 86.725361 
L 417.011215 305.696034 
L 419.170456 284.451478 
L 421.329697 277.850491 
L 423.488937 334.831425 
L 425.648178 329.140919 
L 427.807419 276.712389 
L 429.96666 203.342798 
L 434.285142 337.942235 
L 436.444383 70.412577 
L 438.603624 63.204602 
L 440.762865 71.171311 
L 442.922105 62.825235 
L 445.081346 62.825235 
L 447.240587 215.533114 
L 449.399828 98.106373 
L 451.559069 91.467449 
L 453.71831 62.066501 
L 455.877551 331.113627 
L 458.036792 54.47916 
L 460.196033 58.27283 
L 462.355273 360.021398 
L 464.514514 344.998462 
L 466.673755 62.445868 
L 468.832996 63.963336 
L 470.992237 60.9284 
L 473.151478 53.720425 
L 475.310719 59.410932 
L 477.46996 216.468899 
L 479.629201 282.402895 
L 481.788441 51.444223 
L 483.947682 59.031564 
L 486.106923 69.653842 
L 488.266164 68.515741 
L 490.425405 67.757007 
L 492.584646 282.276187 
L 494.743887 265.786618 
L 496.903128 71.550678 
L 499.062368 58.27283 
L 501.221609 50.685489 
L 503.38085 50.685489 
L 505.540091 58.27283 
L 507.699332 308.50335 
L 509.858573 121.627131 
L 512.017814 65.860172 
L 514.177055 54.47916 
L 516.336296 54.47916 
L 518.495536 56.375995 
L 520.654777 55.996628 
L 524.973259 322.084691 
L 527.1325 58.27283 
L 529.291741 51.82359 
L 531.450982 51.82359 
L 533.610223 46.891818 
L 535.769464 54.604351 
L 537.928704 336.576513 
L 540.087945 295.83249 
L 542.247186 51.444223 
L 544.406427 50.116438 
L 546.565668 47.081502 
L 548.724909 48.978337 
L 550.88415 47.017009 
L 553.043391 242.114113 
L 555.202632 176.635356 
L 557.361872 54.47916 
L 559.521113 57.514096 
L 561.680354 53.341058 
L 563.839595 52.582324 
L 565.998836 53.46625 
L 568.158077 220.869557 
L 570.317318 246.211277 
L 572.476559 77.241184 
L 574.635799 77.241184 
L 576.79504 116.189549 
L 578.954281 115.177891 
L 581.113522 110.246119 
L 583.272763 327.926944 
L 585.432004 265.710744 
L 587.591245 83.690424 
L 589.750486 64.72207 
L 591.909727 57.134729 
L 594.068967 52.202957 
L 596.228208 51.82359 
L 598.387449 284.679098 
L 600.54669 146.437737 
L 602.705931 65.860172 
L 604.865172 67.757007 
L 607.024413 68.136374 
L 609.183654 62.445868 
L 611.342895 56.375995 
L 613.502135 295.453123 
L 615.661376 318.746261 
L 617.820617 61.687134 
L 619.979858 61.307767 
L 626.457581 61.307767 
L 628.616822 300.991882 
L 630.776063 206.757102 
L 632.935303 65.860172 
L 635.094544 68.895108 
L 637.253785 69.653842 
L 639.413026 70.791944 
L 641.572267 96.209537 
L 643.731508 252.357024 
L 645.890749 307.365249 
L 648.04999 69.653842 
L 650.209231 79.138019 
L 652.368471 69.653842 
L 654.527712 78.379285 
L 656.686953 77.620551 
L 658.846194 276.408896 
L 661.005435 159.108598 
L 663.164676 85.587259 
L 665.323917 77.241184 
L 667.483158 81.034855 
L 669.642398 82.93169 
L 671.801639 90.519031 
L 673.96088 291.128338 
L 676.120121 237.409961 
L 678.279362 92.415867 
L 680.438603 92.415867 
L 682.597844 93.553968 
L 684.757085 101.141309 
L 686.916326 106.831815 
L 689.075566 230.960721 
L 691.234807 167.682293 
L 693.394048 111.38422 
L 695.553289 115.177891 
L 697.71253 124.662068 
L 699.871771 124.282701 
L 702.031012 118.971562 
L 704.190253 249.549707 
L 706.349494 296.439477 
L 708.508734 124.662068 
L 710.667975 116.189549 
L 712.827216 124.662068 
L 714.986457 132.249409 
L 717.145698 131.111308 
L 719.304939 268.669808 
L 721.46418 292.49406 
L 723.623421 130.352574 
L 725.782662 134.146244 
L 727.941902 140.216117 
L 730.101143 148.94156 
L 732.260384 164.49561 
L 734.419625 209.867912 
L 736.578866 257.592289 
L 738.738107 192.94814 
L 740.897348 181.567128 
L 743.056589 198.638646 
L 745.215829 206.225988 
L 747.37507 200.535482 
L 749.534311 294.315021 
L 751.693552 349.247373 
L 753.852793 199.018013 
L 756.012034 197.500545 
L 758.171275 194.465609 
L 760.330516 197.500545 
L 762.489757 194.844976 
L 764.648997 263.131048 
L 766.808238 311.462413 
L 768.967479 191.810039 
L 771.12672 200.535482 
L 773.285961 197.500545 
L 775.445202 146.665358 
L 777.604443 212.675228 
L 779.763684 268.745681 
L 781.922925 140.291991 
L 784.082165 215.710165 
L 786.241406 206.225988 
L 788.400647 209.260924 
L 790.559888 207.364089 
L 792.719129 206.984722 
L 794.87837 217.227633 
L 797.037611 228.988012 
L 799.196852 200.535482 
L 801.356093 208.122823 
L 803.515333 203.949785 
L 805.674574 193.706874 
L 807.833815 192.189406 
L 809.993056 211.081886 
L 812.152297 200.687229 
L 814.311538 191.051305 
L 816.470779 188.016368 
L 818.63002 186.119533 
L 820.78926 179.670293 
L 822.948501 180.429027 
L 825.107742 212.978722 
L 827.266983 141.505966 
L 829.426224 180.808394 
L 833.744706 173.221053 
L 835.903947 175.876622 
L 838.063188 172.082951 
L 840.222428 130.352574 
L 842.381669 126.558903 
L 844.54091 162.598775 
L 846.700151 151.217763 
L 848.859392 148.182826 
L 851.018633 134.146244 
L 853.177874 122.765232 
L 857.496356 259.868491 
L 859.655596 112.142954 
L 861.814837 112.522321 
L 863.974078 101.141309 
L 866.133319 88.622196 
L 868.29256 84.449158 
L 870.451801 308.73097 
L 872.611042 293.935654 
L 874.770283 86.725361 
L 876.929524 94.312702 
L 879.088764 93.553968 
L 881.248005 87.863462 
L 883.407246 93.553968 
L 885.566487 365.236178 
L 887.725728 218.441607 
L 889.884969 187.561128 
L 892.04421 151.748876 
L 894.203451 165.026724 
L 896.362692 265.255504 
L 898.521932 139.078016 
L 900.681173 233.312797 
L 902.840414 302.28173 
L 904.999655 243.707454 
L 907.158896 120.868397 
L 909.318137 122.765232 
L 911.477378 244.617935 
L 913.636619 210.171405 
L 915.795859 302.205857 
L 917.9551 262.448188 
L 920.114341 100.761942 
L 922.273582 92.415867 
L 924.432823 100.003208 
L 926.592064 115.936625 
L 928.751305 115.936625 
L 930.910546 224.05624 
L 933.069787 374.968461 
L 935.229027 134.904979 
L 937.388268 128.455738 
L 939.547509 134.146244 
L 941.70675 128.455738 
L 943.865991 129.59384 
L 946.025232 225.573708 
L 950.343714 294.694389 
L 952.502955 290.597224 
L 952.502955 290.597224 
" clip-path="url(#p014e31ed56)" style="fill: none; stroke: #4878d0; stroke-width: 1.5; stroke-linecap: round"/>
   </g>
   <g id="patch_3">
    <path d="M 59.225 399.1 
L 59.225 30.12 
" style="fill: none; stroke: #cccccc; stroke-width: 1.25; stroke-linejoin: miter; stroke-linecap: square"/>
   </g>
   <g id="patch_4">
    <path d="M 995.04 399.1 
L 995.04 30.12 
" style="fill: none; stroke: #cccccc; stroke-width: 1.25; stroke-linejoin: miter; stroke-linecap: square"/>
   </g>
   <g id="patch_5">
    <path d="M 59.225 399.1 
L 995.04 399.1 
" style="fill: none; stroke: #cccccc; stroke-width: 1.25; stroke-linejoin: miter; stroke-linecap: square"/>
   </g>
   <g id="patch_6">
    <path d="M 59.225 30.12 
L 995.04 30.12 
" style="fill: none; stroke: #cccccc; stroke-width: 1.25; stroke-linejoin: miter; stroke-linecap: square"/>
   </g>
   <g id="text_12">
    <!-- CÀ PHÊ — Event Map (price_wholesale) -->
    <g style="fill: #262626" transform="translate(418.09375 24.12) scale(0.12 -0.12)">
     <defs>
      <path id="ArialMT-43" d="M 3763 1606 
L 4369 1453 
Q 4178 706 3683 314 
Q 3188 -78 2472 -78 
Q 1731 -78 1267 223 
Q 803 525 561 1097 
Q 319 1669 319 2325 
Q 319 3041 592 3573 
Q 866 4106 1370 4382 
Q 1875 4659 2481 4659 
Q 3169 4659 3637 4309 
Q 4106 3959 4291 3325 
L 3694 3184 
Q 3534 3684 3231 3912 
Q 2928 4141 2469 4141 
Q 1941 4141 1586 3887 
Q 1231 3634 1087 3207 
Q 944 2781 944 2328 
Q 944 1744 1114 1308 
Q 1284 872 1643 656 
Q 2003 441 2422 441 
Q 2931 441 3284 734 
Q 3638 1028 3763 1606 
z
" transform="scale(0.015625)"/>
      <path id="ArialMT-c0" d="M -9 0 
L 1750 4581 
L 2403 4581 
L 4278 0 
L 3588 0 
L 3053 1388 
L 1138 1388 
L 634 0 
L -9 0 
z
M 1313 1881 
L 2866 1881 
L 2388 3150 
Q 2169 3728 2063 4100 
Q 1975 3659 1816 3225 
L 1313 1881 
z
M 2573 4883 
L 2120 4883 
L 1398 5758 
L 2151 5758 
L 2573 4883 
z
" transform="scale(0.015625)"/>
      <path id="ArialMT-20" transform="scale(0.015625)"/>
      <path id="ArialMT-50" d="M 494 0 
L 494 4581 
L 2222 4581 
Q 2678 4581 2919 4538 
Q 3256 4481 3484 4323 
Q 3713 4166 3852 3881 
Q 3991 3597 3991 3256 
Q 3991 2672 3619 2267 
Q 3247 1863 2275 1863 
L 1100 1863 
L 1100 0 
L 494 0 
z
M 1100 2403 
L 2284 2403 
Q 2872 2403 3119 2622 
Q 3366 2841 3366 3238 
Q 3366 3525 3220 3729 
Q 3075 3934 2838 4000 
Q 2684 4041 2272 4041 
L 1100 4041 
L 1100 2403 
z
" transform="scale(0.015625)"/>
      <path id="ArialMT-48" d="M 513 0 
L 513 4581 
L 1119 4581 
L 1119 2700 
L 3500 2700 
L 3500 4581 
L 4106 4581 
L 4106 0 
L 3500 0 
L 3500 2159 
L 1119 2159 
L 1119 0 
L 513 0 
z
" transform="scale(0.015625)"/>
      <path id="ArialMT-ca" d="M 506 0 
L 506 4581 
L 3819 4581 
L 3819 4041 
L 1113 4041 
L 1113 2638 
L 3647 2638 
L 3647 2100 
L 1113 2100 
L 1113 541 
L 3925 541 
L 3925 0 
L 506 0 
z
M 2211 5415 
L 1858 4883 
L 1214 4883 
L 1889 5758 
L 2489 5758 
L 3192 4883 
L 2555 4883 
L 2211 5415 
z
" transform="scale(0.015625)"/>
      <path id="ArialMT-2014" d="M 0 1431 
L 0 1884 
L 6400 1884 
L 6400 1431 
L 0 1431 
z
" transform="scale(0.015625)"/>
      <path id="ArialMT-45" d="M 506 0 
L 506 4581 
L 3819 4581 
L 3819 4041 
L 1113 4041 
L 1113 2638 
L 3647 2638 
L 3647 2100 
L 1113 2100 
L 1113 541 
L 3925 541 
L 3925 0 
L 506 0 
z
" transform="scale(0.015625)"/>
      <path id="ArialMT-76" d="M 1344 0 
L 81 3319 
L 675 3319 
L 1388 1331 
Q 1503 1009 1600 663 
Q 1675 925 1809 1294 
L 2547 3319 
L 3125 3319 
L 1869 0 
L 1344 0 
z
" transform="scale(0.015625)"/>
      <path id="ArialMT-65" d="M 2694 1069 
L 3275 997 
Q 3138 488 2766 206 
Q 2394 -75 1816 -75 
Q 1088 -75 661 373 
Q 234 822 234 1631 
Q 234 2469 665 2931 
Q 1097 3394 1784 3394 
Q 2450 3394 2872 2941 
Q 3294 2488 3294 1666 
Q 3294 1616 3291 1516 
L 816 1516 
Q 847 969 1125 678 
Q 1403 388 1819 388 
Q 2128 388 2347 550 
Q 2566 713 2694 1069 
z
M 847 1978 
L 2700 1978 
Q 2663 2397 2488 2606 
Q 2219 2931 1791 2931 
Q 1403 2931 1139 2672 
Q 875 2413 847 1978 
z
" transform="scale(0.015625)"/>
      <path id="ArialMT-6e" d="M 422 0 
L 422 3319 
L 928 3319 
L 928 2847 
Q 1294 3394 1984 3394 
Q 2284 3394 2536 3286 
Q 2788 3178 2913 3003 
Q 3038 2828 3088 2588 
Q 3119 2431 3119 2041 
L 3119 0 
L 2556 0 
L 2556 2019 
Q 2556 2363 2490 2533 
Q 2425 2703 2258 2804 
Q 2091 2906 1866 2906 
Q 1506 2906 1245 2678 
Q 984 2450 984 1813 
L 984 0 
L 422 0 
z
" transform="scale(0.015625)"/>
      <path id="ArialMT-74" d="M 1650 503 
L 1731 6 
Q 1494 -44 1306 -44 
Q 1000 -44 831 53 
Q 663 150 594 308 
Q 525 466 525 972 
L 525 2881 
L 113 2881 
L 113 3319 
L 525 3319 
L 525 4141 
L 1084 4478 
L 1084 3319 
L 1650 3319 
L 1650 2881 
L 1084 2881 
L 1084 941 
Q 1084 700 1114 631 
Q 1144 563 1211 522 
Q 1278 481 1403 481 
Q 1497 481 1650 503 
z
" transform="scale(0.015625)"/>
      <path id="ArialMT-4d" d="M 475 0 
L 475 4581 
L 1388 4581 
L 2472 1338 
Q 2622 884 2691 659 
Q 2769 909 2934 1394 
L 4031 4581 
L 4847 4581 
L 4847 0 
L 4263 0 
L 4263 3834 
L 2931 0 
L 2384 0 
L 1059 3900 
L 1059 0 
L 475 0 
z
" transform="scale(0.015625)"/>
      <path id="ArialMT-61" d="M 2588 409 
Q 2275 144 1986 34 
Q 1697 -75 1366 -75 
Q 819 -75 525 192 
Q 231 459 231 875 
Q 231 1119 342 1320 
Q 453 1522 633 1644 
Q 813 1766 1038 1828 
Q 1203 1872 1538 1913 
Q 2219 1994 2541 2106 
Q 2544 2222 2544 2253 
Q 2544 2597 2384 2738 
Q 2169 2928 1744 2928 
Q 1347 2928 1158 2789 
Q 969 2650 878 2297 
L 328 2372 
Q 403 2725 575 2942 
Q 747 3159 1072 3276 
Q 1397 3394 1825 3394 
Q 2250 3394 2515 3294 
Q 2781 3194 2906 3042 
Q 3031 2891 3081 2659 
Q 3109 2516 3109 2141 
L 3109 1391 
Q 3109 606 3145 398 
Q 3181 191 3288 0 
L 2700 0 
Q 2613 175 2588 409 
z
M 2541 1666 
Q 2234 1541 1622 1453 
Q 1275 1403 1131 1340 
Q 988 1278 909 1158 
Q 831 1038 831 891 
Q 831 666 1001 516 
Q 1172 366 1500 366 
Q 1825 366 2078 508 
Q 2331 650 2450 897 
Q 2541 1088 2541 1459 
L 2541 1666 
z
" transform="scale(0.015625)"/>
      <path id="ArialMT-70" d="M 422 -1272 
L 422 3319 
L 934 3319 
L 934 2888 
Q 1116 3141 1344 3267 
Q 1572 3394 1897 3394 
Q 2322 3394 2647 3175 
Q 2972 2956 3137 2557 
Q 3303 2159 3303 1684 
Q 3303 1175 3120 767 
Q 2938 359 2589 142 
Q 2241 -75 1856 -75 
Q 1575 -75 1351 44 
Q 1128 163 984 344 
L 984 -1272 
L 422 -1272 
z
M 931 1641 
Q 931 1000 1190 694 
Q 1450 388 1819 388 
Q 2194 388 2461 705 
Q 2728 1022 2728 1688 
Q 2728 2322 2467 2637 
Q 2206 2953 1844 2953 
Q 1484 2953 1207 2617 
Q 931 2281 931 1641 
z
" transform="scale(0.015625)"/>
      <path id="ArialMT-28" d="M 1497 -1347 
Q 1031 -759 709 28 
Q 388 816 388 1659 
Q 388 2403 628 3084 
Q 909 3875 1497 4659 
L 1900 4659 
Q 1522 4009 1400 3731 
Q 1209 3300 1100 2831 
Q 966 2247 966 1656 
Q 966 153 1900 -1347 
L 1497 -1347 
z
" transform="scale(0.015625)"/>
      <path id="ArialMT-72" d="M 416 0 
L 416 3319 
L 922 3319 
L 922 2816 
Q 1116 3169 1280 3281 
Q 1444 3394 1641 3394 
Q 1925 3394 2219 3213 
L 2025 2691 
Q 1819 2813 1613 2813 
Q 1428 2813 1281 2702 
Q 1134 2591 1072 2394 
Q 978 2094 978 1738 
L 978 0 
L 416 0 
z
" transform="scale(0.015625)"/>
      <path id="ArialMT-69" d="M 425 3934 
L 425 4581 
L 988 4581 
L 988 3934 
L 425 3934 
z
M 425 0 
L 425 3319 
L 988 3319 
L 988 0 
L 425 0 
z
" transform="scale(0.015625)"/>
      <path id="ArialMT-63" d="M 2588 1216 
L 3141 1144 
Q 3050 572 2676 248 
Q 2303 -75 1759 -75 
Q 1078 -75 664 370 
Q 250 816 250 1647 
Q 250 2184 428 2587 
Q 606 2991 970 3192 
Q 1334 3394 1763 3394 
Q 2303 3394 2647 3120 
Q 2991 2847 3088 2344 
L 2541 2259 
Q 2463 2594 2264 2762 
Q 2066 2931 1784 2931 
Q 1359 2931 1093 2626 
Q 828 2322 828 1663 
Q 828 994 1084 691 
Q 1341 388 1753 388 
Q 2084 388 2306 591 
Q 2528 794 2588 1216 
z
" transform="scale(0.015625)"/>
      <path id="ArialMT-5f" d="M -97 -1272 
L -97 -866 
L 3631 -866 
L 3631 -1272 
L -97 -1272 
z
" transform="scale(0.015625)"/>
      <path id="ArialMT-77" d="M 1034 0 
L 19 3319 
L 600 3319 
L 1128 1403 
L 1325 691 
Q 1338 744 1497 1375 
L 2025 3319 
L 2603 3319 
L 3100 1394 
L 3266 759 
L 3456 1400 
L 4025 3319 
L 4572 3319 
L 3534 0 
L 2950 0 
L 2422 1988 
L 2294 2553 
L 1622 0 
L 1034 0 
z
" transform="scale(0.015625)"/>
      <path id="ArialMT-68" d="M 422 0 
L 422 4581 
L 984 4581 
L 984 2938 
Q 1378 3394 1978 3394 
Q 2347 3394 2619 3248 
Q 2891 3103 3008 2847 
Q 3125 2591 3125 2103 
L 3125 0 
L 2563 0 
L 2563 2103 
Q 2563 2525 2380 2717 
Q 2197 2909 1863 2909 
Q 1613 2909 1392 2779 
Q 1172 2650 1078 2428 
Q 984 2206 984 1816 
L 984 0 
L 422 0 
z
" transform="scale(0.015625)"/>
      <path id="ArialMT-6f" d="M 213 1659 
Q 213 2581 725 3025 
Q 1153 3394 1769 3394 
Q 2453 3394 2887 2945 
Q 3322 2497 3322 1706 
Q 3322 1066 3130 698 
Q 2938 331 2570 128 
Q 2203 -75 1769 -75 
Q 1072 -75 642 372 
Q 213 819 213 1659 
z
M 791 1659 
Q 791 1022 1069 705 
Q 1347 388 1769 388 
Q 2188 388 2466 706 
Q 2744 1025 2744 1678 
Q 2744 2294 2464 2611 
Q 2184 2928 1769 2928 
Q 1347 2928 1069 2612 
Q 791 2297 791 1659 
z
" transform="scale(0.015625)"/>
      <path id="ArialMT-6c" d="M 409 0 
L 409 4581 
L 972 4581 
L 972 0 
L 409 0 
z
" transform="scale(0.015625)"/>
      <path id="ArialMT-73" d="M 197 991 
L 753 1078 
Q 800 744 1014 566 
Q 1228 388 1613 388 
Q 2000 388 2187 545 
Q 2375 703 2375 916 
Q 2375 1106 2209 1216 
Q 2094 1291 1634 1406 
Q 1016 1563 777 1677 
Q 538 1791 414 1992 
Q 291 2194 291 2438 
Q 291 2659 392 2848 
Q 494 3038 669 3163 
Q 800 3259 1026 3326 
Q 1253 3394 1513 3394 
Q 1903 3394 2198 3281 
Q 2494 3169 2634 2976 
Q 2775 2784 2828 2463 
L 2278 2388 
Q 2241 2644 2061 2787 
Q 1881 2931 1553 2931 
Q 1166 2931 1000 2803 
Q 834 2675 834 2503 
Q 834 2394 903 2306 
Q 972 2216 1119 2156 
Q 1203 2125 1616 2013 
Q 2213 1853 2448 1751 
Q 2684 1650 2818 1456 
Q 2953 1263 2953 975 
Q 2953 694 2789 445 
Q 2625 197 2315 61 
Q 2006 -75 1616 -75 
Q 969 -75 630 194 
Q 291 463 197 991 
z
" transform="scale(0.015625)"/>
      <path id="ArialMT-29" d="M 791 -1347 
L 388 -1347 
Q 1322 153 1322 1656 
Q 1322 2244 1188 2822 
Q 1081 3291 891 3722 
Q 769 4003 388 4659 
L 791 4659 
Q 1378 3875 1659 3084 
Q 1900 2403 1900 1659 
Q 1900 816 1576 28 
Q 1253 -759 791 -1347 
z
" transform="scale(0.015625)"/>
     </defs>
     <use xlink:href="#ArialMT-43"/>
     <use xlink:href="#ArialMT-c0" transform="translate(72.216797 0)"/>
     <use xlink:href="#ArialMT-20" transform="translate(138.916016 0)"/>
     <use xlink:href="#ArialMT-50" transform="translate(166.699219 0)"/>
     <use xlink:href="#ArialMT-48" transform="translate(233.398438 0)"/>
     <use xlink:href="#ArialMT-ca" transform="translate(305.615234 0)"/>
     <use xlink:href="#ArialMT-20" transform="translate(372.314453 0)"/>
     <use xlink:href="#ArialMT-2014" transform="translate(400.097656 0)"/>
     <use xlink:href="#ArialMT-20" transform="translate(500.097656 0)"/>
     <use xlink:href="#ArialMT-45" transform="translate(527.880859 0)"/>
     <use xlink:href="#ArialMT-76" transform="translate(594.580078 0)"/>
     <use xlink:href="#ArialMT-65" transform="translate(644.580078 0)"/>
     <use xlink:href="#ArialMT-6e" transform="translate(700.195312 0)"/>
     <use xlink:href="#ArialMT-74" transform="translate(755.810547 0)"/>
     <use xlink:href="#ArialMT-20" transform="translate(783.59375 0)"/>
     <use xlink:href="#ArialMT-4d" transform="translate(811.376953 0)"/>
     <use xlink:href="#ArialMT-61" transform="translate(894.677734 0)"/>
     <use xlink:href="#ArialMT-70" transform="translate(950.292969 0)"/>
     <use xlink:href="#ArialMT-20" transform="translate(1005.908203 0)"/>
     <use xlink:href="#ArialMT-28" transform="translate(1033.691406 0)"/>
     <use xlink:href="#ArialMT-70" transform="translate(1066.992188 0)"/>
     <use xlink:href="#ArialMT-72" transform="translate(1122.607422 0)"/>
     <use xlink:href="#ArialMT-69" transform="translate(1155.908203 0)"/>
     <use xlink:href="#ArialMT-63" transform="translate(1178.125 0)"/>
     <use xlink:href="#ArialMT-65" transform="translate(1228.125 0)"/>
     <use xlink:href="#ArialMT-5f" transform="translate(1283.740234 0)"/>
     <use xlink:href="#ArialMT-77" transform="translate(1339.355469 0)"/>
     <use xlink:href="#ArialMT-68" transform="translate(1411.572266 0)"/>
     <use xlink:href="#ArialMT-6f" transform="translate(1467.1875 0)"/>
     <use xlink:href="#ArialMT-6c" transform="translate(1522.802734 0)"/>
     <use xlink:href="#ArialMT-65" transform="translate(1545.019531 0)"/>
     <use xlink:href="#ArialMT-73" transform="translate(1600.634766 0)"/>
     <use xlink:href="#ArialMT-61" transform="translate(1650.634766 0)"/>
     <use xlink:href="#ArialMT-6c" transform="translate(1706.25 0)"/>
     <use xlink:href="#ArialMT-65" transform="translate(1728.466797 0)"/>
     <use xlink:href="#ArialMT-29" transform="translate(1784.082031 0)"/>
    </g>
   </g>
   <g id="legend_1">
    <g id="patch_7">
     <path d="M 470.094922 393.6 
L 584.170078 393.6 
Q 586.370078 393.6 586.370078 391.4 
L 586.370078 330.131719 
Q 586.370078 327.931719 584.170078 327.931719 
L 470.094922 327.931719 
Q 467.894922 327.931719 467.894922 330.131719 
L 467.894922 391.4 
Q 467.894922 393.6 470.094922 393.6 
z
" style="fill: #ffffff; opacity: 0.8; stroke: #cccccc; stroke-linejoin: miter"/>
    </g>
    <g id="line2d_13">
     <path d="M 472.294922 336.355312 
L 483.294922 336.355312 
L 494.294922 336.355312 
" style="fill: none; stroke: #4878d0; stroke-width: 1.5; stroke-linecap: round"/>
    </g>
    <g id="text_13">
     <!-- price_wholesale -->
     <g style="fill: #262626" transform="translate(503.094922 340.205312) scale(0.11 -0.11)">
      <use xlink:href="#ArialMT-70"/>
      <use xlink:href="#ArialMT-72" transform="translate(55.615234 0)"/>
      <use xlink:href="#ArialMT-69" transform="translate(88.916016 0)"/>
      <use xlink:href="#ArialMT-63" transform="translate(111.132812 0)"/>
      <use xlink:href="#ArialMT-65" transform="translate(161.132812 0)"/>
      <use xlink:href="#ArialMT-5f" transform="translate(216.748047 0)"/>
      <use xlink:href="#ArialMT-77" transform="translate(272.363281 0)"/>
      <use xlink:href="#ArialMT-68" transform="translate(344.580078 0)"/>
      <use xlink:href="#ArialMT-6f" transform="translate(400.195312 0)"/>
      <use xlink:href="#ArialMT-6c" transform="translate(455.810547 0)"/>
      <use xlink:href="#ArialMT-65" transform="translate(478.027344 0)"/>
      <use xlink:href="#ArialMT-73" transform="translate(533.642578 0)"/>
      <use xlink:href="#ArialMT-61" transform="translate(583.642578 0)"/>
      <use xlink:href="#ArialMT-6c" transform="translate(639.257812 0)"/>
      <use xlink:href="#ArialMT-65" transform="translate(661.474609 0)"/>
     </g>
    </g>
    <g id="PathCollection_4">
     <g>
      <use xlink:href="#mfa688cca8b" x="483.294922" y="352.877656" style="fill: #ffa500; stroke: #ffa500"/>
     </g>
    </g>
    <g id="text_14">
     <!-- Small Event -->
     <g style="fill: #262626" transform="translate(503.094922 355.765156) scale(0.11 -0.11)">
      <defs>
       <path id="ArialMT-53" d="M 288 1472 
L 859 1522 
Q 900 1178 1048 958 
Q 1197 738 1509 602 
Q 1822 466 2213 466 
Q 2559 466 2825 569 
Q 3091 672 3220 851 
Q 3350 1031 3350 1244 
Q 3350 1459 3225 1620 
Q 3100 1781 2813 1891 
Q 2628 1963 1997 2114 
Q 1366 2266 1113 2400 
Q 784 2572 623 2826 
Q 463 3081 463 3397 
Q 463 3744 659 4045 
Q 856 4347 1234 4503 
Q 1613 4659 2075 4659 
Q 2584 4659 2973 4495 
Q 3363 4331 3572 4012 
Q 3781 3694 3797 3291 
L 3216 3247 
Q 3169 3681 2898 3903 
Q 2628 4125 2100 4125 
Q 1550 4125 1298 3923 
Q 1047 3722 1047 3438 
Q 1047 3191 1225 3031 
Q 1400 2872 2139 2705 
Q 2878 2538 3153 2413 
Q 3553 2228 3743 1945 
Q 3934 1663 3934 1294 
Q 3934 928 3725 604 
Q 3516 281 3123 101 
Q 2731 -78 2241 -78 
Q 1619 -78 1198 103 
Q 778 284 539 648 
Q 300 1013 288 1472 
z
" transform="scale(0.015625)"/>
       <path id="ArialMT-6d" d="M 422 0 
L 422 3319 
L 925 3319 
L 925 2853 
Q 1081 3097 1340 3245 
Q 1600 3394 1931 3394 
Q 2300 3394 2536 3241 
Q 2772 3088 2869 2813 
Q 3263 3394 3894 3394 
Q 4388 3394 4653 3120 
Q 4919 2847 4919 2278 
L 4919 0 
L 4359 0 
L 4359 2091 
Q 4359 2428 4304 2576 
Q 4250 2725 4106 2815 
Q 3963 2906 3769 2906 
Q 3419 2906 3187 2673 
Q 2956 2441 2956 1928 
L 2956 0 
L 2394 0 
L 2394 2156 
Q 2394 2531 2256 2718 
Q 2119 2906 1806 2906 
Q 1569 2906 1367 2781 
Q 1166 2656 1075 2415 
Q 984 2175 984 1722 
L 984 0 
L 422 0 
z
" transform="scale(0.015625)"/>
      </defs>
      <use xlink:href="#ArialMT-53"/>
      <use xlink:href="#ArialMT-6d" transform="translate(66.699219 0)"/>
      <use xlink:href="#ArialMT-61" transform="translate(150 0)"/>
      <use xlink:href="#ArialMT-6c" transform="translate(205.615234 0)"/>
      <use xlink:href="#ArialMT-6c" transform="translate(227.832031 0)"/>
      <use xlink:href="#ArialMT-20" transform="translate(250.048828 0)"/>
      <use xlink:href="#ArialMT-45" transform="translate(277.832031 0)"/>
      <use xlink:href="#ArialMT-76" transform="translate(344.53125 0)"/>
      <use xlink:href="#ArialMT-65" transform="translate(394.53125 0)"/>
      <use xlink:href="#ArialMT-6e" transform="translate(450.146484 0)"/>
      <use xlink:href="#ArialMT-74" transform="translate(505.761719 0)"/>
     </g>
    </g>
    <g id="PathCollection_5">
     <g>
      <use xlink:href="#m8f1b41333a" x="483.294922" y="368.4375" style="fill: #ff0000; stroke: #ff0000"/>
     </g>
    </g>
    <g id="text_15">
     <!-- Medium Event -->
     <g style="fill: #262626" transform="translate(503.094922 371.325) scale(0.11 -0.11)">
      <defs>
       <path id="ArialMT-64" d="M 2575 0 
L 2575 419 
Q 2259 -75 1647 -75 
Q 1250 -75 917 144 
Q 584 363 401 755 
Q 219 1147 219 1656 
Q 219 2153 384 2558 
Q 550 2963 881 3178 
Q 1213 3394 1622 3394 
Q 1922 3394 2156 3267 
Q 2391 3141 2538 2938 
L 2538 4581 
L 3097 4581 
L 3097 0 
L 2575 0 
z
M 797 1656 
Q 797 1019 1065 703 
Q 1334 388 1700 388 
Q 2069 388 2326 689 
Q 2584 991 2584 1609 
Q 2584 2291 2321 2609 
Q 2059 2928 1675 2928 
Q 1300 2928 1048 2622 
Q 797 2316 797 1656 
z
" transform="scale(0.015625)"/>
       <path id="ArialMT-75" d="M 2597 0 
L 2597 488 
Q 2209 -75 1544 -75 
Q 1250 -75 995 37 
Q 741 150 617 320 
Q 494 491 444 738 
Q 409 903 409 1263 
L 409 3319 
L 972 3319 
L 972 1478 
Q 972 1038 1006 884 
Q 1059 663 1231 536 
Q 1403 409 1656 409 
Q 1909 409 2131 539 
Q 2353 669 2445 892 
Q 2538 1116 2538 1541 
L 2538 3319 
L 3100 3319 
L 3100 0 
L 2597 0 
z
" transform="scale(0.015625)"/>
      </defs>
      <use xlink:href="#ArialMT-4d"/>
      <use xlink:href="#ArialMT-65" transform="translate(83.300781 0)"/>
      <use xlink:href="#ArialMT-64" transform="translate(138.916016 0)"/>
      <use xlink:href="#ArialMT-69" transform="translate(194.53125 0)"/>
      <use xlink:href="#ArialMT-75" transform="translate(216.748047 0)"/>
      <use xlink:href="#ArialMT-6d" transform="translate(272.363281 0)"/>
      <use xlink:href="#ArialMT-20" transform="translate(355.664062 0)"/>
      <use xlink:href="#ArialMT-45" transform="translate(383.447266 0)"/>
      <use xlink:href="#ArialMT-76" transform="translate(450.146484 0)"/>
      <use xlink:href="#ArialMT-65" transform="translate(500.146484 0)"/>
      <use xlink:href="#ArialMT-6e" transform="translate(555.761719 0)"/>
      <use xlink:href="#ArialMT-74" transform="translate(611.376953 0)"/>
     </g>
    </g>
    <g id="PathCollection_6">
     <g>
      <use xlink:href="#mdf6a5890c2" x="483.294922" y="383.997344" style="stroke: #000000"/>
     </g>
    </g>
    <g id="text_16">
     <!-- Major Event -->
     <g style="fill: #262626" transform="translate(503.094922 386.884844) scale(0.11 -0.11)">
      <defs>
       <path id="ArialMT-6a" d="M 419 3928 
L 419 4581 
L 981 4581 
L 981 3928 
L 419 3928 
z
M -294 -1288 
L -188 -809 
Q -19 -853 78 -853 
Q 250 -853 334 -739 
Q 419 -625 419 -169 
L 419 3319 
L 981 3319 
L 981 -181 
Q 981 -794 822 -1034 
Q 619 -1347 147 -1347 
Q -81 -1347 -294 -1288 
z
" transform="scale(0.015625)"/>
      </defs>
      <use xlink:href="#ArialMT-4d"/>
      <use xlink:href="#ArialMT-61" transform="translate(83.300781 0)"/>
      <use xlink:href="#ArialMT-6a" transform="translate(138.916016 0)"/>
      <use xlink:href="#ArialMT-6f" transform="translate(161.132812 0)"/>
      <use xlink:href="#ArialMT-72" transform="translate(216.748047 0)"/>
      <use xlink:href="#ArialMT-20" transform="translate(250.048828 0)"/>
      <use xlink:href="#ArialMT-45" transform="translate(277.832031 0)"/>
      <use xlink:href="#ArialMT-76" transform="translate(344.53125 0)"/>
      <use xlink:href="#ArialMT-65" transform="translate(394.53125 0)"/>
      <use xlink:href="#ArialMT-6e" transform="translate(450.146484 0)"/>
      <use xlink:href="#ArialMT-74" transform="translate(505.761719 0)"/>
     </g>
    </g>
   </g>
  </g>
 </g>
 <defs>
  <clipPath id="p014e31ed56">
   <rect x="59.225" y="30.12" width="935.815" height="368.98"/>
  </clipPath>
 </defs>
</svg>
