<?xml version="1.0" encoding="utf-8" standalone="no"?>
<!DOCTYPE svg PUBLIC "-//W3C//DTD SVG 1.1//EN"
  "http://www.w3.org/Graphics/SVG/1.1/DTD/svg11.dtd">
<svg xmlns:xlink="http://www.w3.org/1999/xlink" width="1008pt" height="360pt" viewBox="0 0 1008 360" xmlns="http://www.w3.org/2000/svg" version="1.1">
 <metadata>
  <rdf:RDF xmlns:dc="http://purl.org/dc/elements/1.1/" xmlns:cc="http://creativecommons.org/ns#" xmlns:rdf="http://www.w3.org/1999/02/22-rdf-syntax-ns#">
   <cc:Work>
    <dc:type rdf:resource="http://purl.org/dc/dcmitype/StillImage"/>
    <dc:date>2025-12-12T00:30:24.531835</dc:date>
    <dc:format>image/svg+xml</dc:format>
    <dc:creator>
     <cc:Agent>
      <dc:title>Matplotlib v3.10.7, https://matplotlib.org/</dc:title>
     </cc:Agent>
    </dc:creator>
   </cc:Work>
  </rdf:RDF>
 </metadata>
 <defs>
  <style type="text/css">*{stroke-linejoin: round; stroke-linecap: butt}</style>
 </defs>
 <g id="figure_1">
  <g id="patch_1">
   <path d="M 0 360 
L 1008 360 
L 1008 0 
L 0 0 
z
" style="fill: #ffffff"/>
  </g>
  <g id="axes_1">
   <g id="patch_2">
    <path d="M 53.105 327.1 
L 995.04 327.1 
L 995.04 29.76 
L 53.105 29.76 
z
" style="fill: #ffffff"/>
   </g>
   <g id="matplotlib.axis_1">
    <g id="xtick_1">
     <g id="line2d_1">
      <path d="M 95.920227 327.1 
L 95.920227 29.76 
" clip-path="url(#p0ea6f965a6)" style="fill: none; stroke: #cccccc; stroke-linecap: round"/>
     </g>
     <g id="text_1">
      <!-- 2024-09 -->
      <g style="fill: #262626" transform="translate(75.737805 344.473594) scale(0.11 -0.11)">
       <defs>
        <path id="ArialMT-32" d="M 3222 541 
L 3222 0 
L 194 0 
Q 188 203 259 391 
Q 375 700 629 1000 
Q 884 1300 1366 1694 
Q 2113 2306 2375 2664 
Q 2638 3022 2638 3341 
Q 2638 3675 2398 3904 
Q 2159 4134 1775 4134 
Q 1369 4134 1125 3890 
Q 881 3647 878 3216 
L 300 3275 
Q 359 3922 746 4261 
Q 1134 4600 1788 4600 
Q 2447 4600 2831 4234 
Q 3216 3869 3216 3328 
Q 3216 3053 3103 2787 
Q 2991 2522 2730 2228 
Q 2469 1934 1863 1422 
Q 1356 997 1212 845 
Q 1069 694 975 541 
L 3222 541 
z
" transform="scale(0.015625)"/>
        <path id="ArialMT-30" d="M 266 2259 
Q 266 3072 433 3567 
Q 600 4063 929 4331 
Q 1259 4600 1759 4600 
Q 2128 4600 2406 4451 
Q 2684 4303 2865 4023 
Q 3047 3744 3150 3342 
Q 3253 2941 3253 2259 
Q 3253 1453 3087 958 
Q 2922 463 2592 192 
Q 2263 -78 1759 -78 
Q 1097 -78 719 397 
Q 266 969 266 2259 
z
M 844 2259 
Q 844 1131 1108 757 
Q 1372 384 1759 384 
Q 2147 384 2411 759 
Q 2675 1134 2675 2259 
Q 2675 3391 2411 3762 
Q 2147 4134 1753 4134 
Q 1366 4134 1134 3806 
Q 844 3388 844 2259 
z
" transform="scale(0.015625)"/>
        <path id="ArialMT-34" d="M 2069 0 
L 2069 1097 
L 81 1097 
L 81 1613 
L 2172 4581 
L 2631 4581 
L 2631 1613 
L 3250 1613 
L 3250 1097 
L 2631 1097 
L 2631 0 
L 2069 0 
z
M 2069 1613 
L 2069 3678 
L 634 1613 
L 2069 1613 
z
" transform="scale(0.015625)"/>
        <path id="ArialMT-2d" d="M 203 1375 
L 203 1941 
L 1931 1941 
L 1931 1375 
L 203 1375 
z
" transform="scale(0.015625)"/>
        <path id="ArialMT-39" d="M 350 1059 
L 891 1109 
Q 959 728 1153 556 
Q 1347 384 1650 384 
Q 1909 384 2104 503 
Q 2300 622 2425 820 
Q 2550 1019 2634 1356 
Q 2719 1694 2719 2044 
Q 2719 2081 2716 2156 
Q 2547 1888 2255 1720 
Q 1963 1553 1622 1553 
Q 1053 1553 659 1965 
Q 266 2378 266 3053 
Q 266 3750 677 4175 
Q 1088 4600 1706 4600 
Q 2153 4600 2523 4359 
Q 2894 4119 3086 3673 
Q 3278 3228 3278 2384 
Q 3278 1506 3087 986 
Q 2897 466 2520 194 
Q 2144 -78 1638 -78 
Q 1100 -78 759 220 
Q 419 519 350 1059 
z
M 2653 3081 
Q 2653 3566 2395 3850 
Q 2138 4134 1775 4134 
Q 1400 4134 1122 3828 
Q 844 3522 844 3034 
Q 844 2597 1108 2323 
Q 1372 2050 1759 2050 
Q 2150 2050 2401 2323 
Q 2653 2597 2653 3081 
z
" transform="scale(0.015625)"/>
       </defs>
       <use xlink:href="#ArialMT-32"/>
       <use xlink:href="#ArialMT-30" transform="translate(55.615234 0)"/>
       <use xlink:href="#ArialMT-32" transform="translate(111.230469 0)"/>
       <use xlink:href="#ArialMT-34" transform="translate(166.845703 0)"/>
       <use xlink:href="#ArialMT-2d" transform="translate(222.460938 0)"/>
       <use xlink:href="#ArialMT-30" transform="translate(255.761719 0)"/>
       <use xlink:href="#ArialMT-39" transform="translate(311.376953 0)"/>
      </g>
     </g>
    </g>
    <g id="xtick_2">
     <g id="line2d_2">
      <path d="M 228.495296 327.1 
L 228.495296 29.76 
" clip-path="url(#p0ea6f965a6)" style="fill: none; stroke: #cccccc; stroke-linecap: round"/>
     </g>
     <g id="text_2">
      <!-- 2024-11 -->
      <g style="fill: #262626" transform="translate(208.7185 344.473594) scale(0.11 -0.11)">
       <defs>
        <path id="ArialMT-31" d="M 2384 0 
L 1822 0 
L 1822 3584 
Q 1619 3391 1289 3197 
Q 959 3003 697 2906 
L 697 3450 
Q 1169 3672 1522 3987 
Q 1875 4303 2022 4600 
L 2384 4600 
L 2384 0 
z
" transform="scale(0.015625)"/>
       </defs>
       <use xlink:href="#ArialMT-32"/>
       <use xlink:href="#ArialMT-30" transform="translate(55.615234 0)"/>
       <use xlink:href="#ArialMT-32" transform="translate(111.230469 0)"/>
       <use xlink:href="#ArialMT-34" transform="translate(166.845703 0)"/>
       <use xlink:href="#ArialMT-2d" transform="translate(222.460938 0)"/>
       <use xlink:href="#ArialMT-31" transform="translate(255.761719 0)"/>
       <use xlink:href="#ArialMT-31" transform="translate(304.001953 0)"/>
      </g>
     </g>
    </g>
    <g id="xtick_3">
     <g id="line2d_3">
      <path d="M 361.070366 327.1 
L 361.070366 29.76 
" clip-path="url(#p0ea6f965a6)" style="fill: none; stroke: #cccccc; stroke-linecap: round"/>
     </g>
     <g id="text_3">
      <!-- 2025-01 -->
      <g style="fill: #262626" transform="translate(340.887944 344.473594) scale(0.11 -0.11)">
       <defs>
        <path id="ArialMT-35" d="M 266 1200 
L 856 1250 
Q 922 819 1161 601 
Q 1400 384 1738 384 
Q 2144 384 2425 690 
Q 2706 997 2706 1503 
Q 2706 1984 2436 2262 
Q 2166 2541 1728 2541 
Q 1456 2541 1237 2417 
Q 1019 2294 894 2097 
L 366 2166 
L 809 4519 
L 3088 4519 
L 3088 3981 
L 1259 3981 
L 1013 2750 
Q 1425 3038 1878 3038 
Q 2478 3038 2890 2622 
Q 3303 2206 3303 1553 
Q 3303 931 2941 478 
Q 2500 -78 1738 -78 
Q 1113 -78 717 272 
Q 322 622 266 1200 
z
" transform="scale(0.015625)"/>
       </defs>
       <use xlink:href="#ArialMT-32"/>
       <use xlink:href="#ArialMT-30" transform="translate(55.615234 0)"/>
       <use xlink:href="#ArialMT-32" transform="translate(111.230469 0)"/>
       <use xlink:href="#ArialMT-35" transform="translate(166.845703 0)"/>
       <use xlink:href="#ArialMT-2d" transform="translate(222.460938 0)"/>
       <use xlink:href="#ArialMT-30" transform="translate(255.761719 0)"/>
       <use xlink:href="#ArialMT-31" transform="translate(311.376953 0)"/>
      </g>
     </g>
    </g>
    <g id="xtick_4">
     <g id="line2d_4">
      <path d="M 489.298711 327.1 
L 489.298711 29.76 
" clip-path="url(#p0ea6f965a6)" style="fill: none; stroke: #cccccc; stroke-linecap: round"/>
     </g>
     <g id="text_4">
      <!-- 2025-03 -->
      <g style="fill: #262626" transform="translate(469.116289 344.473594) scale(0.11 -0.11)">
       <defs>
        <path id="ArialMT-33" d="M 269 1209 
L 831 1284 
Q 928 806 1161 595 
Q 1394 384 1728 384 
Q 2125 384 2398 659 
Q 2672 934 2672 1341 
Q 2672 1728 2419 1979 
Q 2166 2231 1775 2231 
Q 1616 2231 1378 2169 
L 1441 2663 
Q 1497 2656 1531 2656 
Q 1891 2656 2178 2843 
Q 2466 3031 2466 3422 
Q 2466 3731 2256 3934 
Q 2047 4138 1716 4138 
Q 1388 4138 1169 3931 
Q 950 3725 888 3313 
L 325 3413 
Q 428 3978 793 4289 
Q 1159 4600 1703 4600 
Q 2078 4600 2393 4439 
Q 2709 4278 2876 4000 
Q 3044 3722 3044 3409 
Q 3044 3113 2884 2869 
Q 2725 2625 2413 2481 
Q 2819 2388 3044 2092 
Q 3269 1797 3269 1353 
Q 3269 753 2831 336 
Q 2394 -81 1725 -81 
Q 1122 -81 723 278 
Q 325 638 269 1209 
z
" transform="scale(0.015625)"/>
       </defs>
       <use xlink:href="#ArialMT-32"/>
       <use xlink:href="#ArialMT-30" transform="translate(55.615234 0)"/>
       <use xlink:href="#ArialMT-32" transform="translate(111.230469 0)"/>
       <use xlink:href="#ArialMT-35" transform="translate(166.845703 0)"/>
       <use xlink:href="#ArialMT-2d" transform="translate(222.460938 0)"/>
       <use xlink:href="#ArialMT-30" transform="translate(255.761719 0)"/>
       <use xlink:href="#ArialMT-33" transform="translate(311.376953 0)"/>
      </g>
     </g>
    </g>
    <g id="xtick_5">
     <g id="line2d_5">
      <path d="M 621.873781 327.1 
L 621.873781 29.76 
" clip-path="url(#p0ea6f965a6)" style="fill: none; stroke: #cccccc; stroke-linecap: round"/>
     </g>
     <g id="text_5">
      <!-- 2025-05 -->
      <g style="fill: #262626" transform="translate(601.691359 344.473594) scale(0.11 -0.11)">
       <use xlink:href="#ArialMT-32"/>
       <use xlink:href="#ArialMT-30" transform="translate(55.615234 0)"/>
       <use xlink:href="#ArialMT-32" transform="translate(111.230469 0)"/>
       <use xlink:href="#ArialMT-35" transform="translate(166.845703 0)"/>
       <use xlink:href="#ArialMT-2d" transform="translate(222.460938 0)"/>
       <use xlink:href="#ArialMT-30" transform="translate(255.761719 0)"/>
       <use xlink:href="#ArialMT-35" transform="translate(311.376953 0)"/>
      </g>
     </g>
    </g>
    <g id="xtick_6">
     <g id="line2d_6">
      <path d="M 754.44885 327.1 
L 754.44885 29.76 
" clip-path="url(#p0ea6f965a6)" style="fill: none; stroke: #cccccc; stroke-linecap: round"/>
     </g>
     <g id="text_6">
      <!-- 2025-07 -->
      <g style="fill: #262626" transform="translate(734.266428 344.473594) scale(0.11 -0.11)">
       <defs>
        <path id="ArialMT-37" d="M 303 3981 
L 303 4522 
L 3269 4522 
L 3269 4084 
Q 2831 3619 2401 2847 
Q 1972 2075 1738 1259 
Q 1569 684 1522 0 
L 944 0 
Q 953 541 1156 1306 
Q 1359 2072 1739 2783 
Q 2119 3494 2547 3981 
L 303 3981 
z
" transform="scale(0.015625)"/>
       </defs>
       <use xlink:href="#ArialMT-32"/>
       <use xlink:href="#ArialMT-30" transform="translate(55.615234 0)"/>
       <use xlink:href="#ArialMT-32" transform="translate(111.230469 0)"/>
       <use xlink:href="#ArialMT-35" transform="translate(166.845703 0)"/>
       <use xlink:href="#ArialMT-2d" transform="translate(222.460938 0)"/>
       <use xlink:href="#ArialMT-30" transform="translate(255.761719 0)"/>
       <use xlink:href="#ArialMT-37" transform="translate(311.376953 0)"/>
      </g>
     </g>
    </g>
    <g id="xtick_7">
     <g id="line2d_7">
      <path d="M 889.197281 327.1 
L 889.197281 29.76 
" clip-path="url(#p0ea6f965a6)" style="fill: none; stroke: #cccccc; stroke-linecap: round"/>
     </g>
     <g id="text_7">
      <!-- 2025-09 -->
      <g style="fill: #262626" transform="translate(869.014859 344.473594) scale(0.11 -0.11)">
       <use xlink:href="#ArialMT-32"/>
       <use xlink:href="#ArialMT-30" transform="translate(55.615234 0)"/>
       <use xlink:href="#ArialMT-32" transform="translate(111.230469 0)"/>
       <use xlink:href="#ArialMT-35" transform="translate(166.845703 0)"/>
       <use xlink:href="#ArialMT-2d" transform="translate(222.460938 0)"/>
       <use xlink:href="#ArialMT-30" transform="translate(255.761719 0)"/>
       <use xlink:href="#ArialMT-39" transform="translate(311.376953 0)"/>
      </g>
     </g>
    </g>
   </g>
   <g id="matplotlib.axis_2">
    <g id="ytick_1">
     <g id="line2d_8">
      <path d="M 53.105 291.157154 
L 995.04 291.157154 
" clip-path="url(#p0ea6f965a6)" style="fill: none; stroke: #cccccc; stroke-linecap: round"/>
     </g>
     <g id="text_8">
      <!-- 5000 -->
      <g style="fill: #262626" transform="translate(19.136875 295.093951) scale(0.11 -0.11)">
       <use xlink:href="#ArialMT-35"/>
       <use xlink:href="#ArialMT-30" transform="translate(55.615234 0)"/>
       <use xlink:href="#ArialMT-30" transform="translate(111.230469 0)"/>
       <use xlink:href="#ArialMT-30" transform="translate(166.845703 0)"/>
      </g>
     </g>
    </g>
    <g id="ytick_2">
     <g id="line2d_9">
      <path d="M 53.105 232.137701 
L 995.04 232.137701 
" clip-path="url(#p0ea6f965a6)" style="fill: none; stroke: #cccccc; stroke-linecap: round"/>
     </g>
     <g id="text_9">
      <!-- 10000 -->
      <g style="fill: #262626" transform="translate(13.019844 236.074498) scale(0.11 -0.11)">
       <use xlink:href="#ArialMT-31"/>
       <use xlink:href="#ArialMT-30" transform="translate(55.615234 0)"/>
       <use xlink:href="#ArialMT-30" transform="translate(111.230469 0)"/>
       <use xlink:href="#ArialMT-30" transform="translate(166.845703 0)"/>
       <use xlink:href="#ArialMT-30" transform="translate(222.460938 0)"/>
      </g>
     </g>
    </g>
    <g id="ytick_3">
     <g id="line2d_10">
      <path d="M 53.105 173.118249 
L 995.04 173.118249 
" clip-path="url(#p0ea6f965a6)" style="fill: none; stroke: #cccccc; stroke-linecap: round"/>
     </g>
     <g id="text_10">
      <!-- 15000 -->
      <g style="fill: #262626" transform="translate(13.019844 177.055046) scale(0.11 -0.11)">
       <use xlink:href="#ArialMT-31"/>
       <use xlink:href="#ArialMT-35" transform="translate(55.615234 0)"/>
       <use xlink:href="#ArialMT-30" transform="translate(111.230469 0)"/>
       <use xlink:href="#ArialMT-30" transform="translate(166.845703 0)"/>
       <use xlink:href="#ArialMT-30" transform="translate(222.460938 0)"/>
      </g>
     </g>
    </g>
    <g id="ytick_4">
     <g id="line2d_11">
      <path d="M 53.105 114.098797 
L 995.04 114.098797 
" clip-path="url(#p0ea6f965a6)" style="fill: none; stroke: #cccccc; stroke-linecap: round"/>
     </g>
     <g id="text_11">
      <!-- 20000 -->
      <g style="fill: #262626" transform="translate(13.019844 118.035594) scale(0.11 -0.11)">
       <use xlink:href="#ArialMT-32"/>
       <use xlink:href="#ArialMT-30" transform="translate(55.615234 0)"/>
       <use xlink:href="#ArialMT-30" transform="translate(111.230469 0)"/>
       <use xlink:href="#ArialMT-30" transform="translate(166.845703 0)"/>
       <use xlink:href="#ArialMT-30" transform="translate(222.460938 0)"/>
      </g>
     </g>
    </g>
    <g id="ytick_5">
     <g id="line2d_12">
      <path d="M 53.105 55.079345 
L 995.04 55.079345 
" clip-path="url(#p0ea6f965a6)" style="fill: none; stroke: #cccccc; stroke-linecap: round"/>
     </g>
     <g id="text_12">
      <!-- 25000 -->
      <g style="fill: #262626" transform="translate(13.019844 59.016142) scale(0.11 -0.11)">
       <use xlink:href="#ArialMT-32"/>
       <use xlink:href="#ArialMT-35" transform="translate(55.615234 0)"/>
       <use xlink:href="#ArialMT-30" transform="translate(111.230469 0)"/>
       <use xlink:href="#ArialMT-30" transform="translate(166.845703 0)"/>
       <use xlink:href="#ArialMT-30" transform="translate(222.460938 0)"/>
      </g>
     </g>
    </g>
   </g>
   <g id="line2d_13">
    <path d="M 95.920227 130.961481 
L 106.787036 114.098797 
L 137.214101 114.098797 
L 145.907548 90.491016 
L 152.427634 90.491016 
L 161.121081 102.294907 
L 167.641166 90.491016 
L 176.334614 90.491016 
L 182.854699 55.079345 
L 191.548146 90.491016 
L 198.068231 55.079345 
L 221.975211 55.079345 
L 237.188744 66.883235 
L 243.708829 55.079345 
L 252.402276 43.275455 
L 258.922362 55.079345 
L 267.615809 55.079345 
L 274.135894 90.491016 
L 380.630622 90.491016 
L 389.324069 55.079345 
L 434.964667 55.079345 
L 441.484752 114.098797 
L 508.858967 114.098797 
L 511.032329 78.687126 
L 526.245862 78.687126 
L 532.765947 55.079345 
L 639.260675 55.079345 
L 647.954122 90.491016 
L 693.59472 90.491016 
L 700.114805 137.706578 
L 708.808252 55.079345 
L 715.328338 137.706578 
L 724.021785 137.706578 
L 730.54187 161.314359 
L 745.755403 161.314359 
L 754.44885 137.706578 
L 760.968935 137.706578 
L 776.182468 114.098797 
L 876.15711 114.098797 
L 882.677195 90.491016 
L 897.890728 114.098797 
L 921.797708 114.098797 
L 928.317793 55.079345 
L 937.01124 90.491016 
L 952.224773 90.491016 
L 952.224773 90.491016 
" clip-path="url(#p0ea6f965a6)" style="fill: none; stroke: #2a9d8f; stroke-width: 1.5; stroke-linecap: round"/>
   </g>
   <g id="line2d_14">
    <path d="M 95.920227 220.333811 
L 98.093589 204.988753 
L 100.266951 205.696987 
L 102.440313 184.92214 
L 104.613674 215.376177 
L 106.787036 221.5142 
L 108.960398 224.819289 
L 111.13376 238.74788 
L 113.307122 203.808364 
L 115.480483 231.429468 
L 117.653845 184.92214 
L 119.827207 203.808364 
L 122.000569 221.5142 
L 124.173931 189.17154 
L 126.347292 213.251477 
L 128.520654 207.821687 
L 130.694016 215.140099 
L 132.867378 173.118249 
L 135.04074 219.153422 
L 137.214101 219.153422 
L 139.387463 236.151024 
L 141.560825 213.251477 
L 143.734187 238.983958 
L 145.907548 213.251477 
L 148.08091 167.216304 
L 150.254272 227.180067 
L 152.427634 233.790246 
L 154.600996 207.349532 
L 156.774357 222.222434 
L 158.947719 213.251477 
L 161.121081 206.169143 
L 163.294443 173.118249 
L 165.467805 212.071088 
L 167.641166 203.808364 
L 169.814528 219.153422 
L 171.98789 216.792644 
L 174.161252 231.665546 
L 176.334614 236.151024 
L 178.507975 184.92214 
L 180.681337 218.681266 
L 182.854699 189.17154 
L 185.028061 217.736955 
L 187.201422 219.625578 
L 189.374784 230.013001 
L 191.548146 227.888301 
L 193.721508 184.92214 
L 195.89487 215.612255 
L 198.068231 199.795042 
L 200.241593 228.360457 
L 202.414955 214.431866 
L 204.588317 240.400425 
L 206.761679 226.707912 
L 208.93504 173.118249 
L 211.108402 221.5142 
L 213.281764 220.805967 
L 215.455126 222.694589 
L 217.628488 204.988753 
L 219.801849 227.416145 
L 221.975211 189.17154 
L 224.148573 167.216304 
L 226.321935 225.291445 
L 228.495296 202.627975 
L 230.668658 199.086808 
L 232.84202 223.874978 
L 235.015382 210.890699 
L 237.188744 207.349532 
L 239.362105 173.118249 
L 241.535467 226.707912 
L 243.708829 230.721235 
L 245.882191 220.333811 
L 248.055553 221.278122 
L 250.228914 203.808364 
L 252.402276 214.431866 
L 254.575638 161.314359 
L 256.749 210.890699 
L 258.922362 196.72603 
L 261.095723 222.222434 
L 263.269085 208.057765 
L 265.442447 241.816892 
L 267.615809 226.94399 
L 269.789171 149.510468 
L 271.962532 211.598932 
L 274.135894 235.914946 
L 276.309256 196.72603 
L 278.482618 222.222434 
L 280.655979 234.026324 
L 282.829341 211.598932 
L 285.002703 143.608523 
L 287.176065 219.861655 
L 289.349427 201.447586 
L 291.522788 222.694589 
L 293.69615 203.808364 
L 295.869512 221.278122 
L 298.042874 211.598932 
L 300.216236 137.706578 
L 302.389597 232.609857 
L 304.562959 211.362854 
L 306.736321 223.6389 
L 308.909683 200.267197 
L 311.083045 197.906419 
L 313.256406 221.5142 
L 315.429768 149.510468 
L 317.60313 199.795042 
L 319.776492 210.890699 
L 321.949853 195.073486 
L 324.123215 195.073486 
L 326.296577 185.630373 
L 328.469939 223.874978 
L 330.643301 247.482759 
L 332.816662 219.153422 
L 334.990024 223.874978 
L 337.163386 223.874978 
L 339.336748 216.792644 
L 341.51011 223.874978 
L 343.683471 228.124379 
L 345.856833 219.861655 
L 348.030195 217.973033 
L 350.203557 213.95971 
L 352.376919 226.94399 
L 354.55028 219.153422 
L 356.723642 222.694589 
L 361.070366 234.49848 
L 363.243728 228.596534 
L 365.417089 223.166745 
L 367.590451 234.49848 
L 369.763813 204.988753 
L 371.937175 217.973033 
L 374.110536 214.431866 
L 376.283898 196.72603 
L 378.45726 207.349532 
L 380.630622 235.678869 
L 382.803984 207.349532 
L 384.977345 220.333811 
L 387.150707 209.71031 
L 389.324069 212.071088 
L 391.497431 173.118249 
L 393.670793 227.416145 
L 395.844154 227.416145 
L 398.017516 204.988753 
L 400.190878 207.349532 
L 402.36424 214.431866 
L 404.537602 204.988753 
L 406.710963 173.118249 
L 408.884325 195.545641 
L 411.057687 209.71031 
L 413.231049 213.251477 
L 415.40441 195.545641 
L 417.577772 204.988753 
L 421.924496 204.988753 
L 424.097858 197.906419 
L 426.271219 204.988753 
L 428.444581 208.529921 
L 430.617943 209.71031 
L 432.791305 209.71031 
L 434.964667 227.416145 
L 437.138028 196.72603 
L 439.31139 227.416145 
L 441.484752 204.988753 
L 443.658114 216.792644 
L 445.831476 199.086808 
L 448.004837 214.431866 
L 450.178199 234.970635 
L 452.351561 229.304768 
L 454.524923 230.957312 
L 456.698284 223.874978 
L 458.871646 239.692191 
L 461.045008 225.291445 
L 465.391732 263.53605 
L 467.565093 196.72603 
L 469.738455 258.814494 
L 471.911817 258.342338 
L 474.085179 221.986356 
L 476.258541 229.540846 
L 478.431902 231.665546 
L 480.605264 242.289047 
L 482.778626 190.824085 
L 484.951988 226.94399 
L 487.12535 190.824085 
L 489.298711 258.342338 
L 491.472073 236.859258 
L 493.645435 254.092938 
L 495.818797 242.997281 
L 497.992159 190.824085 
L 500.16552 246.538448 
L 502.338882 230.013001 
L 504.512244 224.583212 
L 506.685606 214.904021 
L 508.858967 211.598932 
L 511.032329 217.500877 
L 513.205691 184.92214 
L 515.379053 226.471834 
L 517.552415 218.681266 
L 519.725776 248.899226 
L 521.899138 242.997281 
L 524.0725 216.08441 
L 526.245862 217.973033 
L 528.419224 196.72603 
L 530.592585 239.220036 
L 532.765947 255.273327 
L 534.939309 226.471834 
L 537.112671 226.94399 
L 539.286033 255.98156 
L 541.459394 226.235756 
L 543.632756 184.92214 
L 545.806118 257.161949 
L 547.97948 239.928269 
L 550.152841 211.598932 
L 552.326203 215.612255 
L 554.499565 213.015399 
L 556.672927 226.707912 
L 558.846289 179.020195 
L 561.01965 210.418543 
L 563.193012 225.291445 
L 565.366374 218.209111 
L 567.539736 225.763601 
L 569.713098 216.320488 
L 571.886459 199.086808 
L 574.059821 202.627975 
L 576.233183 207.349532 
L 578.406545 226.707912 
L 580.579907 221.042044 
L 582.753268 208.057765 
L 584.92663 221.986356 
L 587.099992 210.890699 
L 589.273354 196.72603 
L 591.446716 210.890699 
L 593.620077 226.707912 
L 595.793439 219.153422 
L 597.966801 235.206713 
L 600.140163 237.567491 
L 602.313524 238.039647 
L 604.486886 220.333811 
L 606.660248 216.792644 
L 608.83361 220.333811 
L 611.006972 225.055367 
L 613.180333 213.95971 
L 615.353695 220.333811 
L 617.527057 209.238154 
L 619.700419 222.694589 
L 621.873781 218.445189 
L 624.047142 218.445189 
L 626.220504 216.792644 
L 628.393866 223.402823 
L 630.567228 238.511802 
L 634.913951 190.824085 
L 637.087313 219.153422 
L 639.260675 219.153422 
L 641.434037 210.890699 
L 643.607398 223.402823 
L 645.78076 219.861655 
L 647.954122 231.665546 
L 650.127484 219.153422 
L 652.300846 227.416145 
L 654.474207 213.723632 
L 656.647569 219.861655 
L 658.820931 220.333811 
L 660.994293 225.763601 
L 663.167655 214.431866 
L 665.341016 231.665546 
L 667.514378 220.333811 
L 669.68774 212.071088 
L 671.861102 213.251477 
L 674.034464 219.153422 
L 676.207825 236.151024 
L 678.381187 231.665546 
L 680.554549 231.665546 
L 682.727911 236.151024 
L 687.074634 217.500877 
L 689.247996 237.331413 
L 691.421358 232.137701 
L 693.59472 212.071088 
L 695.768081 208.529921 
L 697.941443 231.665546 
L 700.114805 234.49848 
L 702.288167 222.694589 
L 704.461529 220.333811 
L 706.63489 213.251477 
L 708.808252 207.349532 
L 710.981614 220.333811 
L 713.154976 222.694589 
L 715.328338 210.890699 
L 717.501699 211.598932 
L 719.675061 205.460909 
L 721.848423 225.055367 
L 724.021785 224.583212 
L 726.195147 214.431866 
L 728.368508 219.861655 
L 730.54187 215.612255 
L 732.715232 197.906419 
L 734.888594 208.529921 
L 737.061955 214.431866 
L 739.235317 232.137701 
L 741.408679 220.333811 
L 743.582041 217.973033 
L 745.755403 222.222434 
L 747.928764 206.877376 
L 750.102126 221.5142 
L 752.275488 222.222434 
L 754.44885 217.973033 
L 756.622212 220.333811 
L 758.795573 232.137701 
L 760.968935 220.333811 
L 765.315659 210.890699 
L 767.489021 212.071088 
L 769.662382 239.928269 
L 771.835744 208.529921 
L 774.009106 214.431866 
L 776.182468 231.665546 
L 778.355829 219.861655 
L 780.529191 234.49848 
L 782.702553 213.251477 
L 784.875915 221.5142 
L 787.049277 197.906419 
L 789.222638 214.431866 
L 791.396 219.153422 
L 793.569362 213.251477 
L 795.742724 219.153422 
L 797.916086 213.251477 
L 800.089447 214.431866 
L 802.262809 219.153422 
L 804.436171 214.431866 
L 806.609533 214.431866 
L 808.782895 234.49848 
L 810.956256 216.792644 
L 813.129618 206.169143 
L 815.30298 219.861655 
L 817.476342 219.861655 
L 819.649704 231.665546 
L 821.823065 222.694589 
L 823.996427 226.235756 
L 826.169789 210.890699 
L 828.343151 212.071088 
L 830.516512 221.5142 
L 832.689874 247.954915 
L 834.863236 232.137701 
L 837.036598 212.779321 
L 839.20996 227.888301 
L 841.383321 225.055367 
L 843.556683 207.349532 
L 845.730045 216.792644 
L 847.903407 222.222434 
L 850.076769 229.304768 
L 852.25013 214.431866 
L 854.423492 222.694589 
L 856.596854 213.251477 
L 858.770216 229.304768 
L 860.943578 223.874978 
L 863.116939 219.153422 
L 865.290301 222.694589 
L 867.463663 221.5142 
L 869.637025 225.055367 
L 871.810386 208.057765 
L 873.983748 209.71031 
L 876.15711 204.516598 
L 878.330472 223.402823 
L 880.503834 220.333811 
L 882.677195 214.431866 
L 884.850557 206.877376 
L 887.023919 197.906419 
L 889.197281 209.71031 
L 891.370643 213.251477 
L 893.544004 221.5142 
L 895.717366 222.694589 
L 897.890728 224.583212 
L 900.06409 232.137701 
L 902.237452 200.267197 
L 904.410813 196.72603 
L 906.584175 210.890699 
L 908.757537 227.416145 
L 910.930899 219.153422 
L 913.10426 206.169143 
L 915.277622 226.707912 
L 917.450984 212.071088 
L 919.624346 217.973033 
L 921.797708 212.071088 
L 923.971069 212.071088 
L 926.144431 214.431866 
L 928.317793 208.529921 
L 930.491155 217.973033 
L 932.664517 238.511802 
L 934.837878 234.026324 
L 937.01124 223.874978 
L 939.184602 207.349532 
L 941.357964 207.349532 
L 943.531326 201.447586 
L 945.704687 219.153422 
L 947.878049 220.333811 
L 950.051411 220.333811 
L 952.224773 225.999678 
L 952.224773 225.999678 
" clip-path="url(#p0ea6f965a6)" style="fill: none; stroke: #e76f51; stroke-width: 1.5; stroke-linecap: round"/>
   </g>
   <g id="line2d_15">
    <path d="M 95.920227 260.804276 
L 98.093589 272.776844 
L 100.266951 268.696003 
L 102.440313 286.09836 
L 104.613674 252.271715 
L 106.787036 242.761203 
L 108.960398 239.456114 
L 111.13376 225.527523 
L 113.307122 260.467039 
L 115.480483 232.845935 
L 117.653845 279.353263 
L 119.827207 260.467039 
L 122.000569 242.761203 
L 124.173931 275.103863 
L 126.347292 251.023926 
L 128.520654 256.453716 
L 130.694016 249.135304 
L 132.867378 291.157154 
L 135.04074 245.121981 
L 137.214101 245.121981 
L 139.387463 222.222434 
L 141.560825 239.220036 
L 143.734187 207.585609 
L 145.907548 227.416145 
L 148.08091 273.451318 
L 150.254272 213.487555 
L 152.427634 206.877376 
L 154.600996 236.269063 
L 156.774357 224.347134 
L 158.947719 236.269063 
L 161.121081 246.30237 
L 163.294443 275.418672 
L 165.467805 232.531125 
L 167.641166 236.859258 
L 169.814528 221.5142 
L 171.98789 223.874978 
L 174.161252 209.002076 
L 176.334614 204.516598 
L 178.507975 243.941592 
L 180.681337 198.378575 
L 182.854699 216.08441 
L 185.028061 196.371913 
L 187.201422 203.336209 
L 189.374784 201.801703 
L 191.548146 212.779321 
L 193.721508 243.941592 
L 195.89487 201.447586 
L 198.068231 205.460909 
L 200.241593 176.895494 
L 202.414955 190.824085 
L 204.588317 164.855526 
L 206.761679 178.548039 
L 208.93504 232.137701 
L 211.108402 183.741751 
L 213.281764 184.449984 
L 215.455126 182.561362 
L 217.628488 200.267197 
L 219.801849 177.839805 
L 221.975211 216.08441 
L 224.148573 239.72595 
L 226.321935 183.336995 
L 228.495296 207.686769 
L 230.668658 212.91424 
L 232.84202 189.812374 
L 235.015382 204.482839 
L 237.188744 209.71031 
L 239.362105 240.007001 
L 241.535467 182.48263 
L 243.708829 174.534716 
L 245.882191 181.971167 
L 248.055553 178.075883 
L 250.228914 192.594669 
L 252.402276 179.020195 
L 254.575638 236.072292 
L 256.749 190.430661 
L 258.922362 208.529921 
L 261.095723 183.033517 
L 263.269085 197.198186 
L 265.442447 163.439059 
L 267.615809 178.311961 
L 269.789171 267.549373 
L 271.962532 217.2648 
L 274.135894 204.752676 
L 276.309256 243.941592 
L 278.482618 218.445189 
L 280.655979 206.641298 
L 282.829341 229.06869 
L 285.002703 297.059099 
L 287.176065 220.805967 
L 289.349427 239.220036 
L 291.522788 217.973033 
L 293.69615 236.859258 
L 295.869512 219.3895 
L 298.042874 229.06869 
L 300.216236 302.961044 
L 302.389597 208.057765 
L 304.562959 229.304768 
L 306.736321 217.028722 
L 308.909683 240.400425 
L 311.083045 242.761203 
L 313.256406 219.153422 
L 315.429768 291.157154 
L 317.60313 240.87258 
L 319.776492 229.776923 
L 321.949853 245.594137 
L 324.123215 245.594137 
L 326.296577 255.037249 
L 328.469939 216.792644 
L 330.643301 193.184863 
L 332.816662 221.5142 
L 334.990024 216.792644 
L 337.163386 216.792644 
L 339.336748 223.874978 
L 341.51011 216.792644 
L 343.683471 212.543243 
L 345.856833 220.805967 
L 348.030195 222.694589 
L 350.203557 226.707912 
L 352.376919 213.723632 
L 354.55028 221.5142 
L 356.723642 217.973033 
L 361.070366 206.169143 
L 363.243728 212.071088 
L 365.417089 217.500877 
L 367.590451 206.169143 
L 369.763813 235.678869 
L 371.937175 222.694589 
L 374.110536 226.235756 
L 376.283898 243.941592 
L 378.45726 233.318091 
L 380.630622 204.988753 
L 382.803984 224.465173 
L 384.977345 202.627975 
L 387.150707 204.398559 
L 389.324069 193.184863 
L 391.497431 232.137701 
L 393.670793 177.839805 
L 395.844154 177.839805 
L 398.017516 200.267197 
L 400.190878 197.906419 
L 402.36424 190.824085 
L 404.537602 200.267197 
L 406.710963 232.137701 
L 408.884325 209.71031 
L 411.057687 195.545641 
L 413.231049 192.004474 
L 415.40441 209.71031 
L 417.577772 200.267197 
L 421.924496 200.267197 
L 424.097858 207.349532 
L 426.271219 200.267197 
L 428.444581 196.72603 
L 430.617943 195.545641 
L 432.791305 195.545641 
L 434.964667 177.839805 
L 437.138028 228.203111 
L 439.31139 217.186068 
L 441.484752 259.286649 
L 443.658114 247.482759 
L 445.831476 265.188595 
L 448.004837 249.843537 
L 450.178199 229.304768 
L 452.351561 234.970635 
L 454.524923 233.318091 
L 456.698284 240.400425 
L 458.871646 224.583212 
L 461.045008 238.983958 
L 465.391732 200.739353 
L 467.565093 267.549373 
L 469.738455 205.460909 
L 471.911817 205.933065 
L 474.085179 242.289047 
L 476.258541 234.734557 
L 478.431902 232.609857 
L 480.605264 221.986356 
L 482.778626 273.451318 
L 484.951988 237.331413 
L 487.12535 273.451318 
L 489.298711 205.933065 
L 491.472073 227.416145 
L 493.645435 210.182465 
L 495.818797 221.278122 
L 497.992159 273.451318 
L 500.16552 217.736955 
L 502.338882 234.262402 
L 504.512244 239.692191 
L 506.685606 249.371382 
L 508.858967 252.676471 
L 511.032329 211.362854 
L 513.205691 243.941592 
L 515.379053 202.391898 
L 517.552415 210.182465 
L 519.725776 179.964506 
L 521.899138 185.866451 
L 524.0725 212.779321 
L 526.245862 210.890699 
L 528.419224 224.268402 
L 530.592585 173.905215 
L 532.765947 149.982624 
L 534.939309 178.784117 
L 537.112671 178.311961 
L 539.286033 149.274391 
L 541.459394 179.020195 
L 543.632756 220.333811 
L 545.806118 148.094002 
L 547.97948 165.327682 
L 550.152841 193.657019 
L 552.326203 189.643696 
L 554.499565 192.240552 
L 556.672927 178.548039 
L 558.846289 226.235756 
L 561.01965 194.837408 
L 563.193012 179.964506 
L 565.366374 187.04684 
L 567.539736 179.49235 
L 569.713098 188.935462 
L 571.886459 206.169143 
L 574.059821 202.627975 
L 576.233183 197.906419 
L 578.406545 178.548039 
L 580.579907 184.213906 
L 582.753268 197.198186 
L 584.92663 183.269595 
L 587.099992 194.365252 
L 589.273354 208.529921 
L 591.446716 194.365252 
L 593.620077 178.548039 
L 595.793439 186.102529 
L 597.966801 170.049238 
L 600.140163 167.68846 
L 602.313524 167.216304 
L 604.486886 184.92214 
L 606.660248 188.463307 
L 608.83361 184.92214 
L 611.006972 180.200584 
L 613.180333 191.296241 
L 615.353695 184.92214 
L 617.527057 196.017797 
L 619.700419 182.561362 
L 621.873781 186.810762 
L 624.047142 186.810762 
L 626.220504 188.463307 
L 628.393866 181.853128 
L 630.567228 166.744148 
L 634.913951 214.431866 
L 637.087313 186.102529 
L 639.260675 186.102529 
L 641.434037 203.21817 
L 643.607398 199.558964 
L 645.78076 211.953049 
L 647.954122 209.002076 
L 650.127484 221.5142 
L 652.300846 213.251477 
L 654.474207 226.94399 
L 656.647569 220.805967 
L 658.820931 220.333811 
L 660.994293 214.904021 
L 663.167655 226.235756 
L 665.341016 209.002076 
L 667.514378 220.333811 
L 669.68774 228.596534 
L 671.861102 227.416145 
L 674.034464 221.5142 
L 676.207825 204.516598 
L 678.381187 209.002076 
L 680.554549 209.002076 
L 682.727911 204.516598 
L 687.074634 223.166745 
L 689.247996 203.336209 
L 691.421358 208.529921 
L 695.768081 247.876183 
L 697.941443 240.479157 
L 700.114805 253.384704 
L 702.288167 244.531786 
L 704.461529 226.235756 
L 706.63489 212.661282 
L 708.808252 197.906419 
L 710.981614 212.464511 
L 713.154976 237.646223 
L 715.328338 276.992485 
L 717.501699 276.284252 
L 719.675061 282.422275 
L 721.848423 262.827817 
L 724.021785 263.299972 
L 726.195147 281.320618 
L 728.368508 283.76001 
L 730.54187 295.87871 
L 732.715232 313.584545 
L 734.888594 302.961044 
L 737.061955 297.059099 
L 739.235317 279.353263 
L 741.408679 291.157154 
L 743.582041 293.517932 
L 745.755403 289.268531 
L 747.928764 298.711644 
L 750.102126 278.172874 
L 752.275488 271.562696 
L 754.44885 269.910151 
L 756.622212 267.549373 
L 758.795573 255.745482 
L 760.968935 267.549373 
L 765.315659 270.247388 
L 767.489021 265.694509 
L 769.662382 234.46472 
L 771.835744 262.490579 
L 774.009106 253.216027 
L 776.182468 232.609857 
L 778.355829 244.413748 
L 780.529191 229.776923 
L 782.702553 251.023926 
L 784.875915 242.761203 
L 787.049277 266.368984 
L 789.222638 249.843537 
L 791.396 245.121981 
L 793.569362 251.023926 
L 795.742724 245.121981 
L 797.916086 251.023926 
L 800.089447 249.843537 
L 802.262809 245.121981 
L 804.436171 249.843537 
L 806.609533 249.843537 
L 808.782895 229.776923 
L 810.956256 247.482759 
L 813.129618 258.10626 
L 815.30298 244.413748 
L 817.476342 244.413748 
L 819.649704 232.609857 
L 821.823065 241.580814 
L 823.996427 238.039647 
L 826.169789 253.384704 
L 828.343151 252.204315 
L 830.516512 242.761203 
L 832.689874 216.320488 
L 834.863236 232.137701 
L 837.036598 251.496082 
L 839.20996 236.387102 
L 841.383321 239.220036 
L 843.556683 256.925871 
L 845.730045 247.482759 
L 847.903407 242.052969 
L 850.076769 234.970635 
L 852.25013 249.843537 
L 854.423492 241.580814 
L 856.596854 251.023926 
L 858.770216 234.970635 
L 860.943578 240.400425 
L 863.116939 245.121981 
L 865.290301 241.580814 
L 867.463663 242.761203 
L 869.637025 239.220036 
L 871.810386 256.217638 
L 873.983748 254.565093 
L 876.15711 259.758805 
L 878.330472 233.003281 
L 880.503834 228.203111 
L 882.677195 226.235756 
L 884.850557 237.162736 
L 887.023919 249.5063 
L 889.197281 241.074899 
L 891.370643 240.90634 
L 893.544004 236.016106 
L 895.717366 238.208324 
L 897.890728 239.692191 
L 900.06409 232.137701 
L 902.237452 264.008206 
L 904.410813 267.549373 
L 906.584175 253.384704 
L 908.757537 236.859258 
L 910.930899 245.121981 
L 913.10426 258.10626 
L 915.277622 237.567491 
L 917.450984 252.204315 
L 919.624346 246.30237 
L 921.797708 252.204315 
L 923.971069 232.531125 
L 926.144431 210.497275 
L 928.317793 196.72603 
L 930.491155 196.135836 
L 932.664517 184.449984 
L 934.837878 197.78838 
L 937.01124 216.792644 
L 939.184602 233.318091 
L 941.357964 233.318091 
L 943.531326 239.220036 
L 945.704687 221.5142 
L 947.878049 220.333811 
L 950.051411 220.333811 
L 952.224773 214.667944 
L 952.224773 214.667944 
" clip-path="url(#p0ea6f965a6)" style="fill: none; stroke: #2c3e50; stroke-width: 2; stroke-linecap: round"/>
   </g>
   <g id="patch_3">
    <path d="M 53.105 327.1 
L 53.105 29.76 
" style="fill: none; stroke: #cccccc; stroke-width: 1.25; stroke-linejoin: miter; stroke-linecap: square"/>
   </g>
   <g id="patch_4">
    <path d="M 995.04 327.1 
L 995.04 29.76 
" style="fill: none; stroke: #cccccc; stroke-width: 1.25; stroke-linejoin: miter; stroke-linecap: square"/>
   </g>
   <g id="patch_5">
    <path d="M 53.105 327.1 
L 995.04 327.1 
" style="fill: none; stroke: #cccccc; stroke-width: 1.25; stroke-linejoin: miter; stroke-linecap: square"/>
   </g>
   <g id="patch_6">
    <path d="M 53.105 29.76 
L 995.04 29.76 
" style="fill: none; stroke: #cccccc; stroke-width: 1.25; stroke-linejoin: miter; stroke-linecap: square"/>
   </g>
   <g id="text_13">
    <!-- DƯA HẤU — Retail + Wholesale + Spread (ONE AXIS) -->
    <g style="fill: #262626" transform="translate(377.224375 23.76) scale(0.12 -0.12)">
     <defs>
      <path id="ArialMT-44" d="M 494 0 
L 494 4581 
L 2072 4581 
Q 2606 4581 2888 4516 
Q 3281 4425 3559 4188 
Q 3922 3881 4101 3404 
Q 4281 2928 4281 2316 
Q 4281 1794 4159 1391 
Q 4038 988 3847 723 
Q 3656 459 3429 307 
Q 3203 156 2883 78 
Q 2563 0 2147 0 
L 494 0 
z
M 1100 541 
L 2078 541 
Q 2531 541 2789 625 
Q 3047 709 3200 863 
Q 3416 1078 3536 1442 
Q 3656 1806 3656 2325 
Q 3656 3044 3420 3430 
Q 3184 3816 2847 3947 
Q 2603 4041 2063 4041 
L 1100 4041 
L 1100 541 
z
" transform="scale(0.015625)"/>
      <path id="ArialMT-1af" d="M 4603 3928 
L 4603 4581 
L 5206 4581 
L 5206 4066 
Q 5206 3575 5094 3381 
Q 4784 2841 4106 2809 
L 4106 1934 
Q 4106 1231 3950 838 
Q 3788 428 3388 178 
Q 2978 -78 2316 -78 
Q 1038 -78 678 788 
Q 503 1206 503 1934 
L 503 4581 
L 1109 4581 
L 1109 1938 
Q 1109 1347 1222 1056 
Q 1328 778 1600 623 
Q 1872 469 2263 469 
Q 2947 469 3216 772 
Q 3500 1091 3500 1938 
L 3500 4581 
L 4106 4581 
L 4106 3041 
Q 4594 3091 4813 3428 
Q 4897 3559 4897 3928 
L 4603 3928 
z
" transform="scale(0.015625)"/>
      <path id="ArialMT-41" d="M -9 0 
L 1750 4581 
L 2403 4581 
L 4278 0 
L 3588 0 
L 3053 1388 
L 1138 1388 
L 634 0 
L -9 0 
z
M 1313 1881 
L 2866 1881 
L 2388 3150 
Q 2169 3728 2063 4100 
Q 1975 3659 1816 3225 
L 1313 1881 
z
" transform="scale(0.015625)"/>
      <path id="ArialMT-20" transform="scale(0.015625)"/>
      <path id="ArialMT-48" d="M 513 0 
L 513 4581 
L 1119 4581 
L 1119 2700 
L 3500 2700 
L 3500 4581 
L 4106 4581 
L 4106 0 
L 3500 0 
L 3500 2159 
L 1119 2159 
L 1119 0 
L 513 0 
z
" transform="scale(0.015625)"/>
      <path id="ArialMT-1ea4" d="M -9 0 
L 1750 4581 
L 2403 4581 
L 4278 0 
L 3588 0 
L 3053 1388 
L 1138 1388 
L 634 0 
L -9 0 
z
M 1313 1881 
L 2866 1881 
L 2388 3150 
Q 2169 3728 2063 4100 
Q 1975 3659 1816 3225 
L 1313 1881 
z
M 2062 4936 
L 1653 4727 
L 1106 4727 
L 1759 5111 
L 2368 5111 
L 3018 4727 
L 2471 4727 
L 2062 4936 
z
M 2180 5734 
L 2887 5734 
L 2165 5241 
L 1759 5241 
L 2180 5734 
z
" transform="scale(0.015625)"/>
      <path id="ArialMT-55" d="M 3500 4581 
L 4106 4581 
L 4106 1934 
Q 4106 1244 3950 837 
Q 3794 431 3386 176 
Q 2978 -78 2316 -78 
Q 1672 -78 1262 144 
Q 853 366 678 786 
Q 503 1206 503 1934 
L 503 4581 
L 1109 4581 
L 1109 1938 
Q 1109 1341 1220 1058 
Q 1331 775 1601 622 
Q 1872 469 2263 469 
Q 2931 469 3215 772 
Q 3500 1075 3500 1938 
L 3500 4581 
z
" transform="scale(0.015625)"/>
      <path id="ArialMT-2014" d="M 0 1431 
L 0 1884 
L 6400 1884 
L 6400 1431 
L 0 1431 
z
" transform="scale(0.015625)"/>
      <path id="ArialMT-52" d="M 503 0 
L 503 4581 
L 2534 4581 
Q 3147 4581 3465 4457 
Q 3784 4334 3975 4021 
Q 4166 3709 4166 3331 
Q 4166 2844 3850 2509 
Q 3534 2175 2875 2084 
Q 3116 1969 3241 1856 
Q 3506 1613 3744 1247 
L 4541 0 
L 3778 0 
L 3172 953 
Q 2906 1366 2734 1584 
Q 2563 1803 2427 1890 
Q 2291 1978 2150 2013 
Q 2047 2034 1813 2034 
L 1109 2034 
L 1109 0 
L 503 0 
z
M 1109 2559 
L 2413 2559 
Q 2828 2559 3062 2645 
Q 3297 2731 3419 2920 
Q 3541 3109 3541 3331 
Q 3541 3656 3305 3865 
Q 3069 4075 2559 4075 
L 1109 4075 
L 1109 2559 
z
" transform="scale(0.015625)"/>
      <path id="ArialMT-65" d="M 2694 1069 
L 3275 997 
Q 3138 488 2766 206 
Q 2394 -75 1816 -75 
Q 1088 -75 661 373 
Q 234 822 234 1631 
Q 234 2469 665 2931 
Q 1097 3394 1784 3394 
Q 2450 3394 2872 2941 
Q 3294 2488 3294 1666 
Q 3294 1616 3291 1516 
L 816 1516 
Q 847 969 1125 678 
Q 1403 388 1819 388 
Q 2128 388 2347 550 
Q 2566 713 2694 1069 
z
M 847 1978 
L 2700 1978 
Q 2663 2397 2488 2606 
Q 2219 2931 1791 2931 
Q 1403 2931 1139 2672 
Q 875 2413 847 1978 
z
" transform="scale(0.015625)"/>
      <path id="ArialMT-74" d="M 1650 503 
L 1731 6 
Q 1494 -44 1306 -44 
Q 1000 -44 831 53 
Q 663 150 594 308 
Q 525 466 525 972 
L 525 2881 
L 113 2881 
L 113 3319 
L 525 3319 
L 525 4141 
L 1084 4478 
L 1084 3319 
L 1650 3319 
L 1650 2881 
L 1084 2881 
L 1084 941 
Q 1084 700 1114 631 
Q 1144 563 1211 522 
Q 1278 481 1403 481 
Q 1497 481 1650 503 
z
" transform="scale(0.015625)"/>
      <path id="ArialMT-61" d="M 2588 409 
Q 2275 144 1986 34 
Q 1697 -75 1366 -75 
Q 819 -75 525 192 
Q 231 459 231 875 
Q 231 1119 342 1320 
Q 453 1522 633 1644 
Q 813 1766 1038 1828 
Q 1203 1872 1538 1913 
Q 2219 1994 2541 2106 
Q 2544 2222 2544 2253 
Q 2544 2597 2384 2738 
Q 2169 2928 1744 2928 
Q 1347 2928 1158 2789 
Q 969 2650 878 2297 
L 328 2372 
Q 403 2725 575 2942 
Q 747 3159 1072 3276 
Q 1397 3394 1825 3394 
Q 2250 3394 2515 3294 
Q 2781 3194 2906 3042 
Q 3031 2891 3081 2659 
Q 3109 2516 3109 2141 
L 3109 1391 
Q 3109 606 3145 398 
Q 3181 191 3288 0 
L 2700 0 
Q 2613 175 2588 409 
z
M 2541 1666 
Q 2234 1541 1622 1453 
Q 1275 1403 1131 1340 
Q 988 1278 909 1158 
Q 831 1038 831 891 
Q 831 666 1001 516 
Q 1172 366 1500 366 
Q 1825 366 2078 508 
Q 2331 650 2450 897 
Q 2541 1088 2541 1459 
L 2541 1666 
z
" transform="scale(0.015625)"/>
      <path id="ArialMT-69" d="M 425 3934 
L 425 4581 
L 988 4581 
L 988 3934 
L 425 3934 
z
M 425 0 
L 425 3319 
L 988 3319 
L 988 0 
L 425 0 
z
" transform="scale(0.015625)"/>
      <path id="ArialMT-6c" d="M 409 0 
L 409 4581 
L 972 4581 
L 972 0 
L 409 0 
z
" transform="scale(0.015625)"/>
      <path id="ArialMT-2b" d="M 1603 741 
L 1603 1997 
L 356 1997 
L 356 2522 
L 1603 2522 
L 1603 3769 
L 2134 3769 
L 2134 2522 
L 3381 2522 
L 3381 1997 
L 2134 1997 
L 2134 741 
L 1603 741 
z
" transform="scale(0.015625)"/>
      <path id="ArialMT-57" d="M 1294 0 
L 78 4581 
L 700 4581 
L 1397 1578 
Q 1509 1106 1591 641 
Q 1766 1375 1797 1488 
L 2669 4581 
L 3400 4581 
L 4056 2263 
Q 4303 1400 4413 641 
Q 4500 1075 4641 1638 
L 5359 4581 
L 5969 4581 
L 4713 0 
L 4128 0 
L 3163 3491 
Q 3041 3928 3019 4028 
Q 2947 3713 2884 3491 
L 1913 0 
L 1294 0 
z
" transform="scale(0.015625)"/>
      <path id="ArialMT-68" d="M 422 0 
L 422 4581 
L 984 4581 
L 984 2938 
Q 1378 3394 1978 3394 
Q 2347 3394 2619 3248 
Q 2891 3103 3008 2847 
Q 3125 2591 3125 2103 
L 3125 0 
L 2563 0 
L 2563 2103 
Q 2563 2525 2380 2717 
Q 2197 2909 1863 2909 
Q 1613 2909 1392 2779 
Q 1172 2650 1078 2428 
Q 984 2206 984 1816 
L 984 0 
L 422 0 
z
" transform="scale(0.015625)"/>
      <path id="ArialMT-6f" d="M 213 1659 
Q 213 2581 725 3025 
Q 1153 3394 1769 3394 
Q 2453 3394 2887 2945 
Q 3322 2497 3322 1706 
Q 3322 1066 3130 698 
Q 2938 331 2570 128 
Q 2203 -75 1769 -75 
Q 1072 -75 642 372 
Q 213 819 213 1659 
z
M 791 1659 
Q 791 1022 1069 705 
Q 1347 388 1769 388 
Q 2188 388 2466 706 
Q 2744 1025 2744 1678 
Q 2744 2294 2464 2611 
Q 2184 2928 1769 2928 
Q 1347 2928 1069 2612 
Q 791 2297 791 1659 
z
" transform="scale(0.015625)"/>
      <path id="ArialMT-73" d="M 197 991 
L 753 1078 
Q 800 744 1014 566 
Q 1228 388 1613 388 
Q 2000 388 2187 545 
Q 2375 703 2375 916 
Q 2375 1106 2209 1216 
Q 2094 1291 1634 1406 
Q 1016 1563 777 1677 
Q 538 1791 414 1992 
Q 291 2194 291 2438 
Q 291 2659 392 2848 
Q 494 3038 669 3163 
Q 800 3259 1026 3326 
Q 1253 3394 1513 3394 
Q 1903 3394 2198 3281 
Q 2494 3169 2634 2976 
Q 2775 2784 2828 2463 
L 2278 2388 
Q 2241 2644 2061 2787 
Q 1881 2931 1553 2931 
Q 1166 2931 1000 2803 
Q 834 2675 834 2503 
Q 834 2394 903 2306 
Q 972 2216 1119 2156 
Q 1203 2125 1616 2013 
Q 2213 1853 2448 1751 
Q 2684 1650 2818 1456 
Q 2953 1263 2953 975 
Q 2953 694 2789 445 
Q 2625 197 2315 61 
Q 2006 -75 1616 -75 
Q 969 -75 630 194 
Q 291 463 197 991 
z
" transform="scale(0.015625)"/>
      <path id="ArialMT-53" d="M 288 1472 
L 859 1522 
Q 900 1178 1048 958 
Q 1197 738 1509 602 
Q 1822 466 2213 466 
Q 2559 466 2825 569 
Q 3091 672 3220 851 
Q 3350 1031 3350 1244 
Q 3350 1459 3225 1620 
Q 3100 1781 2813 1891 
Q 2628 1963 1997 2114 
Q 1366 2266 1113 2400 
Q 784 2572 623 2826 
Q 463 3081 463 3397 
Q 463 3744 659 4045 
Q 856 4347 1234 4503 
Q 1613 4659 2075 4659 
Q 2584 4659 2973 4495 
Q 3363 4331 3572 4012 
Q 3781 3694 3797 3291 
L 3216 3247 
Q 3169 3681 2898 3903 
Q 2628 4125 2100 4125 
Q 1550 4125 1298 3923 
Q 1047 3722 1047 3438 
Q 1047 3191 1225 3031 
Q 1400 2872 2139 2705 
Q 2878 2538 3153 2413 
Q 3553 2228 3743 1945 
Q 3934 1663 3934 1294 
Q 3934 928 3725 604 
Q 3516 281 3123 101 
Q 2731 -78 2241 -78 
Q 1619 -78 1198 103 
Q 778 284 539 648 
Q 300 1013 288 1472 
z
" transform="scale(0.015625)"/>
      <path id="ArialMT-70" d="M 422 -1272 
L 422 3319 
L 934 3319 
L 934 2888 
Q 1116 3141 1344 3267 
Q 1572 3394 1897 3394 
Q 2322 3394 2647 3175 
Q 2972 2956 3137 2557 
Q 3303 2159 3303 1684 
Q 3303 1175 3120 767 
Q 2938 359 2589 142 
Q 2241 -75 1856 -75 
Q 1575 -75 1351 44 
Q 1128 163 984 344 
L 984 -1272 
L 422 -1272 
z
M 931 1641 
Q 931 1000 1190 694 
Q 1450 388 1819 388 
Q 2194 388 2461 705 
Q 2728 1022 2728 1688 
Q 2728 2322 2467 2637 
Q 2206 2953 1844 2953 
Q 1484 2953 1207 2617 
Q 931 2281 931 1641 
z
" transform="scale(0.015625)"/>
      <path id="ArialMT-72" d="M 416 0 
L 416 3319 
L 922 3319 
L 922 2816 
Q 1116 3169 1280 3281 
Q 1444 3394 1641 3394 
Q 1925 3394 2219 3213 
L 2025 2691 
Q 1819 2813 1613 2813 
Q 1428 2813 1281 2702 
Q 1134 2591 1072 2394 
Q 978 2094 978 1738 
L 978 0 
L 416 0 
z
" transform="scale(0.015625)"/>
      <path id="ArialMT-64" d="M 2575 0 
L 2575 419 
Q 2259 -75 1647 -75 
Q 1250 -75 917 144 
Q 584 363 401 755 
Q 219 1147 219 1656 
Q 219 2153 384 2558 
Q 550 2963 881 3178 
Q 1213 3394 1622 3394 
Q 1922 3394 2156 3267 
Q 2391 3141 2538 2938 
L 2538 4581 
L 3097 4581 
L 3097 0 
L 2575 0 
z
M 797 1656 
Q 797 1019 1065 703 
Q 1334 388 1700 388 
Q 2069 388 2326 689 
Q 2584 991 2584 1609 
Q 2584 2291 2321 2609 
Q 2059 2928 1675 2928 
Q 1300 2928 1048 2622 
Q 797 2316 797 1656 
z
" transform="scale(0.015625)"/>
      <path id="ArialMT-28" d="M 1497 -1347 
Q 1031 -759 709 28 
Q 388 816 388 1659 
Q 388 2403 628 3084 
Q 909 3875 1497 4659 
L 1900 4659 
Q 1522 4009 1400 3731 
Q 1209 3300 1100 2831 
Q 966 2247 966 1656 
Q 966 153 1900 -1347 
L 1497 -1347 
z
" transform="scale(0.015625)"/>
      <path id="ArialMT-4f" d="M 309 2231 
Q 309 3372 921 4017 
Q 1534 4663 2503 4663 
Q 3138 4663 3647 4359 
Q 4156 4056 4423 3514 
Q 4691 2972 4691 2284 
Q 4691 1588 4409 1038 
Q 4128 488 3612 205 
Q 3097 -78 2500 -78 
Q 1853 -78 1343 234 
Q 834 547 571 1087 
Q 309 1628 309 2231 
z
M 934 2222 
Q 934 1394 1379 917 
Q 1825 441 2497 441 
Q 3181 441 3623 922 
Q 4066 1403 4066 2288 
Q 4066 2847 3877 3264 
Q 3688 3681 3323 3911 
Q 2959 4141 2506 4141 
Q 1863 4141 1398 3698 
Q 934 3256 934 2222 
z
" transform="scale(0.015625)"/>
      <path id="ArialMT-4e" d="M 488 0 
L 488 4581 
L 1109 4581 
L 3516 984 
L 3516 4581 
L 4097 4581 
L 4097 0 
L 3475 0 
L 1069 3600 
L 1069 0 
L 488 0 
z
" transform="scale(0.015625)"/>
      <path id="ArialMT-45" d="M 506 0 
L 506 4581 
L 3819 4581 
L 3819 4041 
L 1113 4041 
L 1113 2638 
L 3647 2638 
L 3647 2100 
L 1113 2100 
L 1113 541 
L 3925 541 
L 3925 0 
L 506 0 
z
" transform="scale(0.015625)"/>
      <path id="ArialMT-58" d="M 28 0 
L 1800 2388 
L 238 4581 
L 959 4581 
L 1791 3406 
Q 2050 3041 2159 2844 
Q 2313 3094 2522 3366 
L 3444 4581 
L 4103 4581 
L 2494 2422 
L 4228 0 
L 3478 0 
L 2325 1634 
Q 2228 1775 2125 1941 
Q 1972 1691 1906 1597 
L 756 0 
L 28 0 
z
" transform="scale(0.015625)"/>
      <path id="ArialMT-49" d="M 597 0 
L 597 4581 
L 1203 4581 
L 1203 0 
L 597 0 
z
" transform="scale(0.015625)"/>
      <path id="ArialMT-29" d="M 791 -1347 
L 388 -1347 
Q 1322 153 1322 1656 
Q 1322 2244 1188 2822 
Q 1081 3291 891 3722 
Q 769 4003 388 4659 
L 791 4659 
Q 1378 3875 1659 3084 
Q 1900 2403 1900 1659 
Q 1900 816 1576 28 
Q 1253 -759 791 -1347 
z
" transform="scale(0.015625)"/>
     </defs>
     <use xlink:href="#ArialMT-44"/>
     <use xlink:href="#ArialMT-1af" transform="translate(72.216797 0)"/>
     <use xlink:href="#ArialMT-41" transform="translate(157.617188 0)"/>
     <use xlink:href="#ArialMT-20" transform="translate(218.816406 0)"/>
     <use xlink:href="#ArialMT-48" transform="translate(246.599609 0)"/>
     <use xlink:href="#ArialMT-1ea4" transform="translate(318.816406 0)"/>
     <use xlink:href="#ArialMT-55" transform="translate(385.515625 0)"/>
     <use xlink:href="#ArialMT-20" transform="translate(457.732422 0)"/>
     <use xlink:href="#ArialMT-2014" transform="translate(485.515625 0)"/>
     <use xlink:href="#ArialMT-20" transform="translate(585.515625 0)"/>
     <use xlink:href="#ArialMT-52" transform="translate(613.298828 0)"/>
     <use xlink:href="#ArialMT-65" transform="translate(685.515625 0)"/>
     <use xlink:href="#ArialMT-74" transform="translate(741.130859 0)"/>
     <use xlink:href="#ArialMT-61" transform="translate(768.914062 0)"/>
     <use xlink:href="#ArialMT-69" transform="translate(824.529297 0)"/>
     <use xlink:href="#ArialMT-6c" transform="translate(846.746094 0)"/>
     <use xlink:href="#ArialMT-20" transform="translate(868.962891 0)"/>
     <use xlink:href="#ArialMT-2b" transform="translate(896.746094 0)"/>
     <use xlink:href="#ArialMT-20" transform="translate(955.144531 0)"/>
     <use xlink:href="#ArialMT-57" transform="translate(982.927734 0)"/>
     <use xlink:href="#ArialMT-68" transform="translate(1077.3125 0)"/>
     <use xlink:href="#ArialMT-6f" transform="translate(1132.927734 0)"/>
     <use xlink:href="#ArialMT-6c" transform="translate(1188.542969 0)"/>
     <use xlink:href="#ArialMT-65" transform="translate(1210.759766 0)"/>
     <use xlink:href="#ArialMT-73" transform="translate(1266.375 0)"/>
     <use xlink:href="#ArialMT-61" transform="translate(1316.375 0)"/>
     <use xlink:href="#ArialMT-6c" transform="translate(1371.990234 0)"/>
     <use xlink:href="#ArialMT-65" transform="translate(1394.207031 0)"/>
     <use xlink:href="#ArialMT-20" transform="translate(1449.822266 0)"/>
     <use xlink:href="#ArialMT-2b" transform="translate(1477.605469 0)"/>
     <use xlink:href="#ArialMT-20" transform="translate(1536.003906 0)"/>
     <use xlink:href="#ArialMT-53" transform="translate(1563.787109 0)"/>
     <use xlink:href="#ArialMT-70" transform="translate(1630.486328 0)"/>
     <use xlink:href="#ArialMT-72" transform="translate(1686.101562 0)"/>
     <use xlink:href="#ArialMT-65" transform="translate(1719.402344 0)"/>
     <use xlink:href="#ArialMT-61" transform="translate(1775.017578 0)"/>
     <use xlink:href="#ArialMT-64" transform="translate(1830.632812 0)"/>
     <use xlink:href="#ArialMT-20" transform="translate(1886.248047 0)"/>
     <use xlink:href="#ArialMT-28" transform="translate(1914.03125 0)"/>
     <use xlink:href="#ArialMT-4f" transform="translate(1947.332031 0)"/>
     <use xlink:href="#ArialMT-4e" transform="translate(2025.115234 0)"/>
     <use xlink:href="#ArialMT-45" transform="translate(2097.332031 0)"/>
     <use xlink:href="#ArialMT-20" transform="translate(2164.03125 0)"/>
     <use xlink:href="#ArialMT-41" transform="translate(2186.314453 0)"/>
     <use xlink:href="#ArialMT-58" transform="translate(2253.013672 0)"/>
     <use xlink:href="#ArialMT-49" transform="translate(2319.712891 0)"/>
     <use xlink:href="#ArialMT-53" transform="translate(2347.496094 0)"/>
     <use xlink:href="#ArialMT-29" transform="translate(2414.195312 0)"/>
    </g>
   </g>
   <g id="legend_1">
    <g id="patch_7">
     <path d="M 60.805 85.5025 
L 149.202031 85.5025 
Q 151.402031 85.5025 151.402031 83.3025 
L 151.402031 37.46 
Q 151.402031 35.26 149.202031 35.26 
L 60.805 35.26 
Q 58.605 35.26 58.605 37.46 
L 58.605 83.3025 
Q 58.605 85.5025 60.805 85.5025 
z
" style="fill: #ffffff; opacity: 0.8; stroke: #cccccc; stroke-linejoin: miter"/>
    </g>
    <g id="line2d_16">
     <path d="M 63.005 43.683594 
L 74.005 43.683594 
L 85.005 43.683594 
" style="fill: none; stroke: #2a9d8f; stroke-width: 1.5; stroke-linecap: round"/>
    </g>
    <g id="text_14">
     <!-- Retail -->
     <g style="fill: #262626" transform="translate(93.805 47.533594) scale(0.11 -0.11)">
      <use xlink:href="#ArialMT-52"/>
      <use xlink:href="#ArialMT-65" transform="translate(72.216797 0)"/>
      <use xlink:href="#ArialMT-74" transform="translate(127.832031 0)"/>
      <use xlink:href="#ArialMT-61" transform="translate(155.615234 0)"/>
      <use xlink:href="#ArialMT-69" transform="translate(211.230469 0)"/>
      <use xlink:href="#ArialMT-6c" transform="translate(233.447266 0)"/>
     </g>
    </g>
    <g id="line2d_17">
     <path d="M 63.005 59.243438 
L 74.005 59.243438 
L 85.005 59.243438 
" style="fill: none; stroke: #e76f51; stroke-width: 1.5; stroke-linecap: round"/>
    </g>
    <g id="text_15">
     <!-- Wholesale -->
     <g style="fill: #262626" transform="translate(93.805 63.093438) scale(0.11 -0.11)">
      <use xlink:href="#ArialMT-57"/>
      <use xlink:href="#ArialMT-68" transform="translate(94.384766 0)"/>
      <use xlink:href="#ArialMT-6f" transform="translate(150 0)"/>
      <use xlink:href="#ArialMT-6c" transform="translate(205.615234 0)"/>
      <use xlink:href="#ArialMT-65" transform="translate(227.832031 0)"/>
      <use xlink:href="#ArialMT-73" transform="translate(283.447266 0)"/>
      <use xlink:href="#ArialMT-61" transform="translate(333.447266 0)"/>
      <use xlink:href="#ArialMT-6c" transform="translate(389.0625 0)"/>
      <use xlink:href="#ArialMT-65" transform="translate(411.279297 0)"/>
     </g>
    </g>
    <g id="line2d_18">
     <path d="M 63.005 74.937344 
L 74.005 74.937344 
L 85.005 74.937344 
" style="fill: none; stroke: #2c3e50; stroke-width: 2; stroke-linecap: round"/>
    </g>
    <g id="text_16">
     <!-- Spread (Δ) -->
     <g style="fill: #262626" transform="translate(93.805 78.787344) scale(0.11 -0.11)">
      <defs>
       <path id="ArialMT-394" d="M -6 0 
L 1753 4581 
L 2406 4581 
L 4281 0 
L -6 0 
z
M 834 541 
L 3381 541 
L 2391 3150 
Q 2169 3738 2066 4100 
Q 1981 3675 1819 3225 
L 834 541 
z
" transform="scale(0.015625)"/>
      </defs>
      <use xlink:href="#ArialMT-53"/>
      <use xlink:href="#ArialMT-70" transform="translate(66.699219 0)"/>
      <use xlink:href="#ArialMT-72" transform="translate(122.314453 0)"/>
      <use xlink:href="#ArialMT-65" transform="translate(155.615234 0)"/>
      <use xlink:href="#ArialMT-61" transform="translate(211.230469 0)"/>
      <use xlink:href="#ArialMT-64" transform="translate(266.845703 0)"/>
      <use xlink:href="#ArialMT-20" transform="translate(322.460938 0)"/>
      <use xlink:href="#ArialMT-28" transform="translate(350.244141 0)"/>
      <use xlink:href="#ArialMT-394" transform="translate(383.544922 0)"/>
      <use xlink:href="#ArialMT-29" transform="translate(450.341797 0)"/>
     </g>
    </g>
   </g>
  </g>
 </g>
 <defs>
  <clipPath id="p0ea6f965a6">
   <rect x="53.105" y="29.76" width="941.935" height="297.34"/>
  </clipPath>
 </defs>
</svg>
