<?xml version="1.0" encoding="utf-8" standalone="no"?>
<!DOCTYPE svg PUBLIC "-//W3C//DTD SVG 1.1//EN"
  "http://www.w3.org/Graphics/SVG/1.1/DTD/svg11.dtd">
<svg xmlns:xlink="http://www.w3.org/1999/xlink" width="1008pt" height="360pt" viewBox="0 0 1008 360" xmlns="http://www.w3.org/2000/svg" version="1.1">
 <metadata>
  <rdf:RDF xmlns:dc="http://purl.org/dc/elements/1.1/" xmlns:cc="http://creativecommons.org/ns#" xmlns:rdf="http://www.w3.org/1999/02/22-rdf-syntax-ns#">
   <cc:Work>
    <dc:type rdf:resource="http://purl.org/dc/dcmitype/StillImage"/>
    <dc:date>2025-12-12T00:30:24.470069</dc:date>
    <dc:format>image/svg+xml</dc:format>
    <dc:creator>
     <cc:Agent>
      <dc:title>Matplotlib v3.10.7, https://matplotlib.org/</dc:title>
     </cc:Agent>
    </dc:creator>
   </cc:Work>
  </rdf:RDF>
 </metadata>
 <defs>
  <style type="text/css">*{stroke-linejoin: round; stroke-linecap: butt}</style>
 </defs>
 <g id="figure_1">
  <g id="patch_1">
   <path d="M 0 360 
L 1008 360 
L 1008 0 
L 0 0 
z
" style="fill: #ffffff"/>
  </g>
  <g id="axes_1">
   <g id="patch_2">
    <path d="M 53.105 327.1 
L 995.04 327.1 
L 995.04 29.76 
L 53.105 29.76 
z
" style="fill: #ffffff"/>
   </g>
   <g id="matplotlib.axis_1">
    <g id="xtick_1">
     <g id="line2d_1">
      <path d="M 95.920227 327.1 
L 95.920227 29.76 
" clip-path="url(#p4562e519ac)" style="fill: none; stroke: #cccccc; stroke-linecap: round"/>
     </g>
     <g id="text_1">
      <!-- 2024-09 -->
      <g style="fill: #262626" transform="translate(75.737805 344.473594) scale(0.11 -0.11)">
       <defs>
        <path id="ArialMT-32" d="M 3222 541 
L 3222 0 
L 194 0 
Q 188 203 259 391 
Q 375 700 629 1000 
Q 884 1300 1366 1694 
Q 2113 2306 2375 2664 
Q 2638 3022 2638 3341 
Q 2638 3675 2398 3904 
Q 2159 4134 1775 4134 
Q 1369 4134 1125 3890 
Q 881 3647 878 3216 
L 300 3275 
Q 359 3922 746 4261 
Q 1134 4600 1788 4600 
Q 2447 4600 2831 4234 
Q 3216 3869 3216 3328 
Q 3216 3053 3103 2787 
Q 2991 2522 2730 2228 
Q 2469 1934 1863 1422 
Q 1356 997 1212 845 
Q 1069 694 975 541 
L 3222 541 
z
" transform="scale(0.015625)"/>
        <path id="ArialMT-30" d="M 266 2259 
Q 266 3072 433 3567 
Q 600 4063 929 4331 
Q 1259 4600 1759 4600 
Q 2128 4600 2406 4451 
Q 2684 4303 2865 4023 
Q 3047 3744 3150 3342 
Q 3253 2941 3253 2259 
Q 3253 1453 3087 958 
Q 2922 463 2592 192 
Q 2263 -78 1759 -78 
Q 1097 -78 719 397 
Q 266 969 266 2259 
z
M 844 2259 
Q 844 1131 1108 757 
Q 1372 384 1759 384 
Q 2147 384 2411 759 
Q 2675 1134 2675 2259 
Q 2675 3391 2411 3762 
Q 2147 4134 1753 4134 
Q 1366 4134 1134 3806 
Q 844 3388 844 2259 
z
" transform="scale(0.015625)"/>
        <path id="ArialMT-34" d="M 2069 0 
L 2069 1097 
L 81 1097 
L 81 1613 
L 2172 4581 
L 2631 4581 
L 2631 1613 
L 3250 1613 
L 3250 1097 
L 2631 1097 
L 2631 0 
L 2069 0 
z
M 2069 1613 
L 2069 3678 
L 634 1613 
L 2069 1613 
z
" transform="scale(0.015625)"/>
        <path id="ArialMT-2d" d="M 203 1375 
L 203 1941 
L 1931 1941 
L 1931 1375 
L 203 1375 
z
" transform="scale(0.015625)"/>
        <path id="ArialMT-39" d="M 350 1059 
L 891 1109 
Q 959 728 1153 556 
Q 1347 384 1650 384 
Q 1909 384 2104 503 
Q 2300 622 2425 820 
Q 2550 1019 2634 1356 
Q 2719 1694 2719 2044 
Q 2719 2081 2716 2156 
Q 2547 1888 2255 1720 
Q 1963 1553 1622 1553 
Q 1053 1553 659 1965 
Q 266 2378 266 3053 
Q 266 3750 677 4175 
Q 1088 4600 1706 4600 
Q 2153 4600 2523 4359 
Q 2894 4119 3086 3673 
Q 3278 3228 3278 2384 
Q 3278 1506 3087 986 
Q 2897 466 2520 194 
Q 2144 -78 1638 -78 
Q 1100 -78 759 220 
Q 419 519 350 1059 
z
M 2653 3081 
Q 2653 3566 2395 3850 
Q 2138 4134 1775 4134 
Q 1400 4134 1122 3828 
Q 844 3522 844 3034 
Q 844 2597 1108 2323 
Q 1372 2050 1759 2050 
Q 2150 2050 2401 2323 
Q 2653 2597 2653 3081 
z
" transform="scale(0.015625)"/>
       </defs>
       <use xlink:href="#ArialMT-32"/>
       <use xlink:href="#ArialMT-30" transform="translate(55.615234 0)"/>
       <use xlink:href="#ArialMT-32" transform="translate(111.230469 0)"/>
       <use xlink:href="#ArialMT-34" transform="translate(166.845703 0)"/>
       <use xlink:href="#ArialMT-2d" transform="translate(222.460938 0)"/>
       <use xlink:href="#ArialMT-30" transform="translate(255.761719 0)"/>
       <use xlink:href="#ArialMT-39" transform="translate(311.376953 0)"/>
      </g>
     </g>
    </g>
    <g id="xtick_2">
     <g id="line2d_2">
      <path d="M 228.495296 327.1 
L 228.495296 29.76 
" clip-path="url(#p4562e519ac)" style="fill: none; stroke: #cccccc; stroke-linecap: round"/>
     </g>
     <g id="text_2">
      <!-- 2024-11 -->
      <g style="fill: #262626" transform="translate(208.7185 344.473594) scale(0.11 -0.11)">
       <defs>
        <path id="ArialMT-31" d="M 2384 0 
L 1822 0 
L 1822 3584 
Q 1619 3391 1289 3197 
Q 959 3003 697 2906 
L 697 3450 
Q 1169 3672 1522 3987 
Q 1875 4303 2022 4600 
L 2384 4600 
L 2384 0 
z
" transform="scale(0.015625)"/>
       </defs>
       <use xlink:href="#ArialMT-32"/>
       <use xlink:href="#ArialMT-30" transform="translate(55.615234 0)"/>
       <use xlink:href="#ArialMT-32" transform="translate(111.230469 0)"/>
       <use xlink:href="#ArialMT-34" transform="translate(166.845703 0)"/>
       <use xlink:href="#ArialMT-2d" transform="translate(222.460938 0)"/>
       <use xlink:href="#ArialMT-31" transform="translate(255.761719 0)"/>
       <use xlink:href="#ArialMT-31" transform="translate(304.001953 0)"/>
      </g>
     </g>
    </g>
    <g id="xtick_3">
     <g id="line2d_3">
      <path d="M 361.070366 327.1 
L 361.070366 29.76 
" clip-path="url(#p4562e519ac)" style="fill: none; stroke: #cccccc; stroke-linecap: round"/>
     </g>
     <g id="text_3">
      <!-- 2025-01 -->
      <g style="fill: #262626" transform="translate(340.887944 344.473594) scale(0.11 -0.11)">
       <defs>
        <path id="ArialMT-35" d="M 266 1200 
L 856 1250 
Q 922 819 1161 601 
Q 1400 384 1738 384 
Q 2144 384 2425 690 
Q 2706 997 2706 1503 
Q 2706 1984 2436 2262 
Q 2166 2541 1728 2541 
Q 1456 2541 1237 2417 
Q 1019 2294 894 2097 
L 366 2166 
L 809 4519 
L 3088 4519 
L 3088 3981 
L 1259 3981 
L 1013 2750 
Q 1425 3038 1878 3038 
Q 2478 3038 2890 2622 
Q 3303 2206 3303 1553 
Q 3303 931 2941 478 
Q 2500 -78 1738 -78 
Q 1113 -78 717 272 
Q 322 622 266 1200 
z
" transform="scale(0.015625)"/>
       </defs>
       <use xlink:href="#ArialMT-32"/>
       <use xlink:href="#ArialMT-30" transform="translate(55.615234 0)"/>
       <use xlink:href="#ArialMT-32" transform="translate(111.230469 0)"/>
       <use xlink:href="#ArialMT-35" transform="translate(166.845703 0)"/>
       <use xlink:href="#ArialMT-2d" transform="translate(222.460938 0)"/>
       <use xlink:href="#ArialMT-30" transform="translate(255.761719 0)"/>
       <use xlink:href="#ArialMT-31" transform="translate(311.376953 0)"/>
      </g>
     </g>
    </g>
    <g id="xtick_4">
     <g id="line2d_4">
      <path d="M 489.298711 327.1 
L 489.298711 29.76 
" clip-path="url(#p4562e519ac)" style="fill: none; stroke: #cccccc; stroke-linecap: round"/>
     </g>
     <g id="text_4">
      <!-- 2025-03 -->
      <g style="fill: #262626" transform="translate(469.116289 344.473594) scale(0.11 -0.11)">
       <defs>
        <path id="ArialMT-33" d="M 269 1209 
L 831 1284 
Q 928 806 1161 595 
Q 1394 384 1728 384 
Q 2125 384 2398 659 
Q 2672 934 2672 1341 
Q 2672 1728 2419 1979 
Q 2166 2231 1775 2231 
Q 1616 2231 1378 2169 
L 1441 2663 
Q 1497 2656 1531 2656 
Q 1891 2656 2178 2843 
Q 2466 3031 2466 3422 
Q 2466 3731 2256 3934 
Q 2047 4138 1716 4138 
Q 1388 4138 1169 3931 
Q 950 3725 888 3313 
L 325 3413 
Q 428 3978 793 4289 
Q 1159 4600 1703 4600 
Q 2078 4600 2393 4439 
Q 2709 4278 2876 4000 
Q 3044 3722 3044 3409 
Q 3044 3113 2884 2869 
Q 2725 2625 2413 2481 
Q 2819 2388 3044 2092 
Q 3269 1797 3269 1353 
Q 3269 753 2831 336 
Q 2394 -81 1725 -81 
Q 1122 -81 723 278 
Q 325 638 269 1209 
z
" transform="scale(0.015625)"/>
       </defs>
       <use xlink:href="#ArialMT-32"/>
       <use xlink:href="#ArialMT-30" transform="translate(55.615234 0)"/>
       <use xlink:href="#ArialMT-32" transform="translate(111.230469 0)"/>
       <use xlink:href="#ArialMT-35" transform="translate(166.845703 0)"/>
       <use xlink:href="#ArialMT-2d" transform="translate(222.460938 0)"/>
       <use xlink:href="#ArialMT-30" transform="translate(255.761719 0)"/>
       <use xlink:href="#ArialMT-33" transform="translate(311.376953 0)"/>
      </g>
     </g>
    </g>
    <g id="xtick_5">
     <g id="line2d_5">
      <path d="M 621.873781 327.1 
L 621.873781 29.76 
" clip-path="url(#p4562e519ac)" style="fill: none; stroke: #cccccc; stroke-linecap: round"/>
     </g>
     <g id="text_5">
      <!-- 2025-05 -->
      <g style="fill: #262626" transform="translate(601.691359 344.473594) scale(0.11 -0.11)">
       <use xlink:href="#ArialMT-32"/>
       <use xlink:href="#ArialMT-30" transform="translate(55.615234 0)"/>
       <use xlink:href="#ArialMT-32" transform="translate(111.230469 0)"/>
       <use xlink:href="#ArialMT-35" transform="translate(166.845703 0)"/>
       <use xlink:href="#ArialMT-2d" transform="translate(222.460938 0)"/>
       <use xlink:href="#ArialMT-30" transform="translate(255.761719 0)"/>
       <use xlink:href="#ArialMT-35" transform="translate(311.376953 0)"/>
      </g>
     </g>
    </g>
    <g id="xtick_6">
     <g id="line2d_6">
      <path d="M 754.44885 327.1 
L 754.44885 29.76 
" clip-path="url(#p4562e519ac)" style="fill: none; stroke: #cccccc; stroke-linecap: round"/>
     </g>
     <g id="text_6">
      <!-- 2025-07 -->
      <g style="fill: #262626" transform="translate(734.266428 344.473594) scale(0.11 -0.11)">
       <defs>
        <path id="ArialMT-37" d="M 303 3981 
L 303 4522 
L 3269 4522 
L 3269 4084 
Q 2831 3619 2401 2847 
Q 1972 2075 1738 1259 
Q 1569 684 1522 0 
L 944 0 
Q 953 541 1156 1306 
Q 1359 2072 1739 2783 
Q 2119 3494 2547 3981 
L 303 3981 
z
" transform="scale(0.015625)"/>
       </defs>
       <use xlink:href="#ArialMT-32"/>
       <use xlink:href="#ArialMT-30" transform="translate(55.615234 0)"/>
       <use xlink:href="#ArialMT-32" transform="translate(111.230469 0)"/>
       <use xlink:href="#ArialMT-35" transform="translate(166.845703 0)"/>
       <use xlink:href="#ArialMT-2d" transform="translate(222.460938 0)"/>
       <use xlink:href="#ArialMT-30" transform="translate(255.761719 0)"/>
       <use xlink:href="#ArialMT-37" transform="translate(311.376953 0)"/>
      </g>
     </g>
    </g>
    <g id="xtick_7">
     <g id="line2d_7">
      <path d="M 889.197281 327.1 
L 889.197281 29.76 
" clip-path="url(#p4562e519ac)" style="fill: none; stroke: #cccccc; stroke-linecap: round"/>
     </g>
     <g id="text_7">
      <!-- 2025-09 -->
      <g style="fill: #262626" transform="translate(869.014859 344.473594) scale(0.11 -0.11)">
       <use xlink:href="#ArialMT-32"/>
       <use xlink:href="#ArialMT-30" transform="translate(55.615234 0)"/>
       <use xlink:href="#ArialMT-32" transform="translate(111.230469 0)"/>
       <use xlink:href="#ArialMT-35" transform="translate(166.845703 0)"/>
       <use xlink:href="#ArialMT-2d" transform="translate(222.460938 0)"/>
       <use xlink:href="#ArialMT-30" transform="translate(255.761719 0)"/>
       <use xlink:href="#ArialMT-39" transform="translate(311.376953 0)"/>
      </g>
     </g>
    </g>
   </g>
   <g id="matplotlib.axis_2">
    <g id="ytick_1">
     <g id="line2d_8">
      <path d="M 53.105 296.848711 
L 995.04 296.848711 
" clip-path="url(#p4562e519ac)" style="fill: none; stroke: #cccccc; stroke-linecap: round"/>
     </g>
     <g id="text_8">
      <!-- 8000 -->
      <g style="fill: #262626" transform="translate(19.136875 300.785507) scale(0.11 -0.11)">
       <defs>
        <path id="ArialMT-38" d="M 1131 2484 
Q 781 2613 612 2850 
Q 444 3088 444 3419 
Q 444 3919 803 4259 
Q 1163 4600 1759 4600 
Q 2359 4600 2725 4251 
Q 3091 3903 3091 3403 
Q 3091 3084 2923 2848 
Q 2756 2613 2416 2484 
Q 2838 2347 3058 2040 
Q 3278 1734 3278 1309 
Q 3278 722 2862 322 
Q 2447 -78 1769 -78 
Q 1091 -78 675 323 
Q 259 725 259 1325 
Q 259 1772 486 2073 
Q 713 2375 1131 2484 
z
M 1019 3438 
Q 1019 3113 1228 2906 
Q 1438 2700 1772 2700 
Q 2097 2700 2305 2904 
Q 2513 3109 2513 3406 
Q 2513 3716 2298 3927 
Q 2084 4138 1766 4138 
Q 1444 4138 1231 3931 
Q 1019 3725 1019 3438 
z
M 838 1322 
Q 838 1081 952 856 
Q 1066 631 1291 507 
Q 1516 384 1775 384 
Q 2178 384 2440 643 
Q 2703 903 2703 1303 
Q 2703 1709 2433 1975 
Q 2163 2241 1756 2241 
Q 1359 2241 1098 1978 
Q 838 1716 838 1322 
z
" transform="scale(0.015625)"/>
       </defs>
       <use xlink:href="#ArialMT-38"/>
       <use xlink:href="#ArialMT-30" transform="translate(55.615234 0)"/>
       <use xlink:href="#ArialMT-30" transform="translate(111.230469 0)"/>
       <use xlink:href="#ArialMT-30" transform="translate(166.845703 0)"/>
      </g>
     </g>
    </g>
    <g id="ytick_2">
     <g id="line2d_9">
      <path d="M 53.105 246.134059 
L 995.04 246.134059 
" clip-path="url(#p4562e519ac)" style="fill: none; stroke: #cccccc; stroke-linecap: round"/>
     </g>
     <g id="text_9">
      <!-- 10000 -->
      <g style="fill: #262626" transform="translate(13.019844 250.070856) scale(0.11 -0.11)">
       <use xlink:href="#ArialMT-31"/>
       <use xlink:href="#ArialMT-30" transform="translate(55.615234 0)"/>
       <use xlink:href="#ArialMT-30" transform="translate(111.230469 0)"/>
       <use xlink:href="#ArialMT-30" transform="translate(166.845703 0)"/>
       <use xlink:href="#ArialMT-30" transform="translate(222.460938 0)"/>
      </g>
     </g>
    </g>
    <g id="ytick_3">
     <g id="line2d_10">
      <path d="M 53.105 195.419408 
L 995.04 195.419408 
" clip-path="url(#p4562e519ac)" style="fill: none; stroke: #cccccc; stroke-linecap: round"/>
     </g>
     <g id="text_10">
      <!-- 12000 -->
      <g style="fill: #262626" transform="translate(13.019844 199.356205) scale(0.11 -0.11)">
       <use xlink:href="#ArialMT-31"/>
       <use xlink:href="#ArialMT-32" transform="translate(55.615234 0)"/>
       <use xlink:href="#ArialMT-30" transform="translate(111.230469 0)"/>
       <use xlink:href="#ArialMT-30" transform="translate(166.845703 0)"/>
       <use xlink:href="#ArialMT-30" transform="translate(222.460938 0)"/>
      </g>
     </g>
    </g>
    <g id="ytick_4">
     <g id="line2d_11">
      <path d="M 53.105 144.704757 
L 995.04 144.704757 
" clip-path="url(#p4562e519ac)" style="fill: none; stroke: #cccccc; stroke-linecap: round"/>
     </g>
     <g id="text_11">
      <!-- 14000 -->
      <g style="fill: #262626" transform="translate(13.019844 148.641554) scale(0.11 -0.11)">
       <use xlink:href="#ArialMT-31"/>
       <use xlink:href="#ArialMT-34" transform="translate(55.615234 0)"/>
       <use xlink:href="#ArialMT-30" transform="translate(111.230469 0)"/>
       <use xlink:href="#ArialMT-30" transform="translate(166.845703 0)"/>
       <use xlink:href="#ArialMT-30" transform="translate(222.460938 0)"/>
      </g>
     </g>
    </g>
    <g id="ytick_5">
     <g id="line2d_12">
      <path d="M 53.105 93.990106 
L 995.04 93.990106 
" clip-path="url(#p4562e519ac)" style="fill: none; stroke: #cccccc; stroke-linecap: round"/>
     </g>
     <g id="text_12">
      <!-- 16000 -->
      <g style="fill: #262626" transform="translate(13.019844 97.926903) scale(0.11 -0.11)">
       <defs>
        <path id="ArialMT-36" d="M 3184 3459 
L 2625 3416 
Q 2550 3747 2413 3897 
Q 2184 4138 1850 4138 
Q 1581 4138 1378 3988 
Q 1113 3794 959 3422 
Q 806 3050 800 2363 
Q 1003 2672 1297 2822 
Q 1591 2972 1913 2972 
Q 2475 2972 2870 2558 
Q 3266 2144 3266 1488 
Q 3266 1056 3080 686 
Q 2894 316 2569 119 
Q 2244 -78 1831 -78 
Q 1128 -78 684 439 
Q 241 956 241 2144 
Q 241 3472 731 4075 
Q 1159 4600 1884 4600 
Q 2425 4600 2770 4297 
Q 3116 3994 3184 3459 
z
M 888 1484 
Q 888 1194 1011 928 
Q 1134 663 1356 523 
Q 1578 384 1822 384 
Q 2178 384 2434 671 
Q 2691 959 2691 1453 
Q 2691 1928 2437 2201 
Q 2184 2475 1800 2475 
Q 1419 2475 1153 2201 
Q 888 1928 888 1484 
z
" transform="scale(0.015625)"/>
       </defs>
       <use xlink:href="#ArialMT-31"/>
       <use xlink:href="#ArialMT-36" transform="translate(55.615234 0)"/>
       <use xlink:href="#ArialMT-30" transform="translate(111.230469 0)"/>
       <use xlink:href="#ArialMT-30" transform="translate(166.845703 0)"/>
       <use xlink:href="#ArialMT-30" transform="translate(222.460938 0)"/>
      </g>
     </g>
    </g>
    <g id="ytick_6">
     <g id="line2d_13">
      <path d="M 53.105 43.275455 
L 995.04 43.275455 
" clip-path="url(#p4562e519ac)" style="fill: none; stroke: #cccccc; stroke-linecap: round"/>
     </g>
     <g id="text_13">
      <!-- 18000 -->
      <g style="fill: #262626" transform="translate(13.019844 47.212251) scale(0.11 -0.11)">
       <use xlink:href="#ArialMT-31"/>
       <use xlink:href="#ArialMT-38" transform="translate(55.615234 0)"/>
       <use xlink:href="#ArialMT-30" transform="translate(111.230469 0)"/>
       <use xlink:href="#ArialMT-30" transform="translate(166.845703 0)"/>
       <use xlink:href="#ArialMT-30" transform="translate(222.460938 0)"/>
      </g>
     </g>
    </g>
   </g>
   <g id="line2d_14">
    <path d="M 95.920227 220.776734 
L 98.093589 187.81221 
L 100.266951 189.33365 
L 102.440313 144.704757 
L 104.613674 210.126657 
L 106.787036 223.312466 
L 108.960398 230.412517 
L 111.13376 260.334162 
L 113.307122 185.276478 
L 115.480483 244.61262 
L 117.653845 144.704757 
L 119.827207 185.276478 
L 122.000569 223.312466 
L 124.173931 153.833394 
L 126.347292 205.562338 
L 128.520654 193.897969 
L 130.694016 209.61951 
L 132.867378 119.347431 
L 135.04074 218.241001 
L 137.214101 218.241001 
L 139.387463 254.75555 
L 141.560825 205.562338 
L 143.734187 260.841308 
L 145.907548 205.562338 
L 148.08091 106.668769 
L 150.254272 235.483983 
L 152.427634 249.684085 
L 154.600996 192.883676 
L 156.774357 224.833906 
L 158.947719 205.562338 
L 161.121081 190.347943 
L 163.294443 119.347431 
L 165.467805 203.026606 
L 167.641166 185.276478 
L 169.814528 218.241001 
L 171.98789 213.169536 
L 174.161252 245.119766 
L 176.334614 254.75555 
L 178.507975 144.704757 
L 180.681337 217.226708 
L 182.854699 153.833394 
L 185.028061 215.198122 
L 187.201422 219.255294 
L 189.374784 241.569741 
L 191.548146 237.005422 
L 193.721508 144.704757 
L 195.89487 210.633804 
L 198.068231 176.654987 
L 200.241593 238.019715 
L 202.414955 208.098071 
L 204.588317 263.884187 
L 206.761679 234.46969 
L 208.93504 119.347431 
L 211.108402 223.312466 
L 213.281764 221.791027 
L 215.455126 225.848199 
L 217.628488 187.81221 
L 219.801849 235.991129 
L 221.975211 153.833394 
L 224.148573 106.668769 
L 226.321935 231.426811 
L 228.495296 182.740745 
L 230.668658 175.133548 
L 232.84202 228.383931 
L 235.015382 200.490873 
L 237.188744 192.883676 
L 239.362105 119.347431 
L 241.535467 234.46969 
L 243.708829 243.09118 
L 245.882191 220.776734 
L 248.055553 222.80532 
L 250.228914 185.276478 
L 252.402276 208.098071 
L 254.575638 93.990106 
L 256.749 200.490873 
L 258.922362 170.062083 
L 261.095723 224.833906 
L 263.269085 194.405115 
L 265.442447 266.927066 
L 267.615809 234.976836 
L 269.789171 68.63278 
L 271.962532 202.012313 
L 274.135894 254.248404 
L 276.309256 170.062083 
L 278.482618 224.833906 
L 280.655979 250.191231 
L 282.829341 202.012313 
L 285.002703 55.954117 
L 287.176065 219.762441 
L 289.349427 180.205013 
L 291.522788 225.848199 
L 293.69615 185.276478 
L 295.869512 222.80532 
L 298.042874 202.012313 
L 300.216236 43.275455 
L 302.389597 247.148352 
L 304.562959 201.505166 
L 306.736321 227.876785 
L 308.909683 177.66928 
L 311.083045 172.597815 
L 313.256406 223.312466 
L 315.429768 68.63278 
L 317.60313 176.654987 
L 319.776492 200.490873 
L 321.949853 166.512057 
L 324.123215 166.512057 
L 326.296577 146.226196 
L 328.469939 228.383931 
L 330.643301 279.098583 
L 332.816662 218.241001 
L 334.990024 228.383931 
L 337.163386 228.383931 
L 339.336748 213.169536 
L 341.51011 228.383931 
L 343.683471 237.512569 
L 345.856833 219.762441 
L 348.030195 215.705269 
L 350.203557 207.083778 
L 352.376919 234.976836 
L 354.55028 218.241001 
L 356.723642 225.848199 
L 361.070366 251.205524 
L 363.243728 238.526862 
L 365.417089 226.862492 
L 367.590451 251.205524 
L 369.763813 187.81221 
L 371.937175 215.705269 
L 374.110536 208.098071 
L 376.283898 170.062083 
L 378.45726 192.883676 
L 380.630622 253.741257 
L 382.803984 192.883676 
L 384.977345 220.776734 
L 387.150707 197.955141 
L 389.324069 203.026606 
L 391.497431 119.347431 
L 393.670793 235.991129 
L 395.844154 235.991129 
L 398.017516 187.81221 
L 400.190878 192.883676 
L 402.36424 208.098071 
L 404.537602 187.81221 
L 406.710963 119.347431 
L 408.884325 167.52635 
L 411.057687 197.955141 
L 413.231049 205.562338 
L 415.40441 167.52635 
L 417.577772 187.81221 
L 421.924496 187.81221 
L 424.097858 172.597815 
L 426.271219 187.81221 
L 428.444581 195.419408 
L 430.617943 197.955141 
L 432.791305 197.955141 
L 434.964667 235.991129 
L 437.138028 170.062083 
L 439.31139 235.991129 
L 441.484752 187.81221 
L 443.658114 213.169536 
L 445.831476 175.133548 
L 448.004837 208.098071 
L 450.178199 252.219817 
L 452.351561 240.048301 
L 454.524923 243.598327 
L 456.698284 228.383931 
L 458.871646 262.362748 
L 461.045008 231.426811 
L 465.391732 313.584545 
L 467.565093 170.062083 
L 469.738455 303.441615 
L 471.911817 302.427322 
L 474.085179 224.326759 
L 476.258541 240.555448 
L 478.431902 245.119766 
L 480.605264 267.941359 
L 482.778626 157.38342 
L 484.951988 234.976836 
L 487.12535 157.38342 
L 489.298711 302.427322 
L 491.472073 256.27699 
L 493.645435 293.298685 
L 495.818797 269.462799 
L 497.992159 157.38342 
L 500.16552 277.069997 
L 502.338882 241.569741 
L 504.512244 229.905371 
L 506.685606 209.112364 
L 508.858967 202.012313 
L 511.032329 214.690976 
L 513.205691 144.704757 
L 515.379053 233.962543 
L 517.552415 217.226708 
L 519.725776 282.141462 
L 521.899138 269.462799 
L 524.0725 211.648097 
L 526.245862 215.705269 
L 528.419224 170.062083 
L 530.592585 261.348455 
L 532.765947 295.834418 
L 534.939309 233.962543 
L 537.112671 234.976836 
L 539.286033 297.355857 
L 541.459394 233.455397 
L 543.632756 144.704757 
L 545.806118 299.89159 
L 547.97948 262.869894 
L 550.152841 202.012313 
L 552.326203 210.633804 
L 554.499565 205.055192 
L 556.672927 234.46969 
L 558.846289 132.026094 
L 561.01965 199.47658 
L 563.193012 231.426811 
L 565.366374 216.212415 
L 567.539736 232.441104 
L 569.713098 212.155243 
L 571.886459 175.133548 
L 574.059821 182.740745 
L 576.233183 192.883676 
L 578.406545 234.46969 
L 580.579907 222.298173 
L 582.753268 194.405115 
L 584.92663 224.326759 
L 587.099992 200.490873 
L 589.273354 170.062083 
L 591.446716 200.490873 
L 593.620077 234.46969 
L 595.793439 218.241001 
L 597.966801 252.726964 
L 600.140163 257.798429 
L 602.313524 258.812722 
L 604.486886 220.776734 
L 606.660248 213.169536 
L 608.83361 220.776734 
L 611.006972 230.919664 
L 613.180333 207.083778 
L 615.353695 220.776734 
L 617.527057 196.940848 
L 619.700419 225.848199 
L 621.873781 216.719562 
L 624.047142 216.719562 
L 626.220504 213.169536 
L 628.393866 227.369638 
L 630.567228 259.827015 
L 634.913951 157.38342 
L 637.087313 218.241001 
L 639.260675 218.241001 
L 641.434037 200.490873 
L 643.607398 227.369638 
L 645.78076 219.762441 
L 647.954122 245.119766 
L 650.127484 218.241001 
L 652.300846 235.991129 
L 654.474207 206.576631 
L 656.647569 219.762441 
L 658.820931 220.776734 
L 660.994293 232.441104 
L 663.167655 208.098071 
L 665.341016 245.119766 
L 667.514378 220.776734 
L 669.68774 203.026606 
L 671.861102 205.562338 
L 674.034464 218.241001 
L 676.207825 254.75555 
L 678.381187 245.119766 
L 680.554549 245.119766 
L 682.727911 254.75555 
L 687.074634 214.690976 
L 689.247996 257.291283 
L 691.421358 246.134059 
L 693.59472 203.026606 
L 695.768081 195.419408 
L 697.941443 245.119766 
L 700.114805 251.205524 
L 702.288167 225.848199 
L 704.461529 220.776734 
L 706.63489 205.562338 
L 708.808252 192.883676 
L 710.981614 220.776734 
L 713.154976 225.848199 
L 715.328338 200.490873 
L 717.501699 202.012313 
L 719.675061 188.826503 
L 721.848423 230.919664 
L 724.021785 229.905371 
L 726.195147 208.098071 
L 728.368508 219.762441 
L 730.54187 210.633804 
L 732.715232 172.597815 
L 734.888594 195.419408 
L 737.061955 208.098071 
L 739.235317 246.134059 
L 741.408679 220.776734 
L 743.582041 215.705269 
L 745.755403 224.833906 
L 747.928764 191.869383 
L 750.102126 223.312466 
L 752.275488 224.833906 
L 754.44885 215.705269 
L 756.622212 220.776734 
L 758.795573 246.134059 
L 760.968935 220.776734 
L 765.315659 200.490873 
L 767.489021 203.026606 
L 769.662382 262.869894 
L 771.835744 195.419408 
L 774.009106 208.098071 
L 776.182468 245.119766 
L 778.355829 219.762441 
L 780.529191 251.205524 
L 782.702553 205.562338 
L 784.875915 223.312466 
L 787.049277 172.597815 
L 789.222638 208.098071 
L 791.396 218.241001 
L 793.569362 205.562338 
L 795.742724 218.241001 
L 797.916086 205.562338 
L 800.089447 208.098071 
L 802.262809 218.241001 
L 804.436171 208.098071 
L 806.609533 208.098071 
L 808.782895 251.205524 
L 810.956256 213.169536 
L 813.129618 190.347943 
L 815.30298 219.762441 
L 817.476342 219.762441 
L 819.649704 245.119766 
L 821.823065 225.848199 
L 823.996427 233.455397 
L 826.169789 200.490873 
L 828.343151 203.026606 
L 830.516512 223.312466 
L 832.689874 280.112876 
L 834.863236 246.134059 
L 837.036598 204.548045 
L 839.20996 237.005422 
L 841.383321 230.919664 
L 843.556683 192.883676 
L 845.730045 213.169536 
L 847.903407 224.833906 
L 850.076769 240.048301 
L 852.25013 208.098071 
L 854.423492 225.848199 
L 856.596854 205.562338 
L 858.770216 240.048301 
L 860.943578 228.383931 
L 863.116939 218.241001 
L 865.290301 225.848199 
L 867.463663 223.312466 
L 869.637025 230.919664 
L 871.810386 194.405115 
L 873.983748 197.955141 
L 876.15711 186.797917 
L 878.330472 227.369638 
L 880.503834 220.776734 
L 882.677195 208.098071 
L 884.850557 191.869383 
L 887.023919 172.597815 
L 889.197281 197.955141 
L 891.370643 205.562338 
L 893.544004 223.312466 
L 895.717366 225.848199 
L 897.890728 229.905371 
L 900.06409 246.134059 
L 902.237452 177.66928 
L 904.410813 170.062083 
L 906.584175 200.490873 
L 908.757537 235.991129 
L 910.930899 218.241001 
L 913.10426 190.347943 
L 915.277622 234.46969 
L 917.450984 203.026606 
L 919.624346 215.705269 
L 921.797708 203.026606 
L 923.971069 203.026606 
L 926.144431 208.098071 
L 928.317793 195.419408 
L 930.491155 215.705269 
L 932.664517 259.827015 
L 934.837878 250.191231 
L 937.01124 228.383931 
L 939.184602 192.883676 
L 941.357964 192.883676 
L 943.531326 180.205013 
L 945.704687 218.241001 
L 947.878049 220.776734 
L 950.051411 220.776734 
L 952.224773 232.94825 
L 952.224773 232.94825 
" clip-path="url(#p4562e519ac)" style="fill: none; stroke: #e76f51; stroke-width: 1.5; stroke-linecap: round"/>
   </g>
   <g id="line2d_15">
    <path d="M 108.960398 200.92557 
L 111.13376 206.576631 
L 113.307122 206.214384 
L 115.480483 214.11138 
L 117.653845 214.11138 
L 119.827207 210.561354 
L 122.000569 210.561354 
L 124.173931 199.621479 
L 126.347292 191.796933 
L 128.520654 193.028575 
L 130.694016 188.029559 
L 132.867378 184.407084 
L 135.04074 189.116302 
L 137.214101 188.391806 
L 139.387463 202.809257 
L 141.560825 202.809257 
L 143.734187 212.372592 
L 145.907548 211.792996 
L 148.08091 209.981758 
L 150.254272 212.445041 
L 152.427634 216.93691 
L 154.600996 208.098071 
L 156.774357 210.851152 
L 158.947719 202.954156 
L 161.121081 200.780671 
L 163.294443 202.591909 
L 165.467805 197.955141 
L 167.641166 188.754054 
L 169.814528 192.376529 
L 171.98789 190.710191 
L 174.161252 196.361252 
L 176.334614 205.562338 
L 178.507975 209.184813 
L 180.681337 211.2134 
L 182.854699 206.72153 
L 185.028061 206.286833 
L 187.201422 207.156227 
L 189.374784 206.649081 
L 191.548146 204.113348 
L 193.721508 204.113348 
L 195.89487 203.171505 
L 200.241593 209.69196 
L 202.414955 208.098071 
L 204.588317 211.285849 
L 206.761679 210.923602 
L 208.93504 207.301126 
L 211.108402 209.112364 
L 213.281764 215.56037 
L 215.455126 213.821582 
L 217.628488 210.923602 
L 219.801849 206.938879 
L 221.975211 195.419408 
L 224.148573 193.608171 
L 226.321935 194.767363 
L 228.495296 189.188751 
L 230.668658 181.943801 
L 232.84202 187.739761 
L 235.015382 182.668296 
L 237.188744 188.246907 
L 239.362105 190.058145 
L 241.535467 190.492842 
L 243.708829 199.114333 
L 245.882191 205.634788 
L 248.055553 204.837843 
L 250.228914 202.664358 
L 252.402276 204.837843 
L 254.575638 201.215368 
L 256.749 196.361252 
L 258.922362 185.928523 
L 261.095723 186.508119 
L 263.269085 182.450947 
L 265.442447 194.115317 
L 267.615809 197.955141 
L 269.789171 194.332666 
L 271.962532 194.550014 
L 274.135894 206.576631 
L 276.309256 198.752085 
L 278.482618 203.099055 
L 280.655979 200.708222 
L 282.829341 195.999004 
L 285.002703 194.187767 
L 287.176065 196.723499 
L 289.349427 186.145872 
L 291.522788 194.115317 
L 293.69615 188.464256 
L 295.869512 184.551983 
L 298.042874 184.551983 
L 300.216236 182.740745 
L 302.389597 186.653018 
L 304.562959 189.695898 
L 306.736321 189.985696 
L 308.909683 188.898953 
L 311.083045 181.726452 
L 313.256406 184.769331 
L 315.429768 188.391806 
L 317.60313 178.321326 
L 319.776492 178.176427 
L 321.949853 169.410037 
L 324.123215 167.816148 
L 326.296577 164.048774 
L 328.469939 164.773269 
L 330.643301 194.839812 
L 332.816662 200.780671 
L 334.990024 204.765394 
L 337.163386 213.604233 
L 339.336748 220.269587 
L 341.51011 232.006407 
L 343.683471 233.310498 
L 345.856833 224.833906 
L 348.030195 224.471658 
L 350.203557 221.428779 
L 352.376919 222.370623 
L 354.55028 223.095118 
L 356.723642 222.73287 
L 358.897004 222.877769 
L 361.070366 227.369638 
L 363.243728 230.629866 
L 365.417089 233.455397 
L 367.590451 235.773781 
L 369.763813 231.426811 
L 371.937175 229.97782 
L 374.110536 225.63085 
L 376.283898 214.03893 
L 378.45726 207.518475 
L 380.630622 211.358299 
L 382.803984 203.026606 
L 384.977345 207.735823 
L 387.150707 205.200091 
L 389.324069 204.475596 
L 391.497431 197.230646 
L 393.670793 203.388853 
L 395.844154 200.853121 
L 398.017516 200.128626 
L 400.190878 196.143903 
L 402.36424 197.592893 
L 404.537602 195.419408 
L 406.710963 195.419408 
L 408.884325 185.638725 
L 411.057687 180.205013 
L 413.231049 182.740745 
L 415.40441 179.11827 
L 417.577772 176.22029 
L 419.751134 176.22029 
L 421.924496 186.000973 
L 424.097858 186.725468 
L 428.444581 183.827488 
L 430.617943 188.174458 
L 432.791305 189.623448 
L 434.964667 196.506151 
L 437.138028 193.970418 
L 439.31139 203.026606 
L 441.484752 203.026606 
L 443.658114 205.562338 
L 445.831476 202.302111 
L 448.004837 203.751101 
L 450.178199 206.069485 
L 452.351561 216.067516 
L 454.524923 217.154259 
L 456.698284 222.950219 
L 458.871646 229.97782 
L 461.045008 238.019715 
L 465.391732 255.842293 
L 467.565093 245.844261 
L 469.738455 254.393303 
L 471.911817 264.97093 
L 474.085179 259.537217 
L 476.258541 260.841308 
L 478.431902 257.073934 
L 480.605264 250.553479 
L 482.778626 248.742241 
L 484.951988 238.961559 
L 487.12535 218.241001 
L 489.298711 229.398224 
L 491.472073 231.644159 
L 493.645435 238.526862 
L 495.818797 238.74421 
L 497.992159 238.74421 
L 500.16552 244.757519 
L 502.338882 256.784136 
L 504.512244 246.423857 
L 506.685606 239.686054 
L 508.858967 226.645143 
L 511.032329 218.820597 
L 513.205691 217.00936 
L 515.379053 210.851152 
L 517.552415 207.373576 
L 519.725776 214.835875 
L 521.899138 223.457365 
L 524.0725 224.833906 
L 526.245862 224.978805 
L 528.419224 228.60128 
L 530.592585 232.513553 
L 532.765947 243.743226 
L 534.939309 236.860523 
L 537.112671 231.933957 
L 539.286033 244.177923 
L 541.459394 246.713655 
L 543.632756 243.09118 
L 545.806118 248.597342 
L 550.152841 239.323806 
L 552.326203 235.84623 
L 554.499565 222.660421 
L 556.672927 222.80532 
L 558.846289 220.994082 
L 561.01965 206.649081 
L 563.193012 202.157212 
L 565.366374 204.185798 
L 567.539736 207.301126 
L 569.713098 208.315419 
L 571.886459 199.838828 
L 574.059821 207.083778 
L 576.233183 206.141934 
L 578.406545 206.576631 
L 580.579907 207.446025 
L 582.753268 202.012313 
L 584.92663 203.751101 
L 587.099992 207.373576 
L 589.273354 205.562338 
L 591.446716 206.649081 
L 593.620077 206.649081 
L 595.793439 206.069485 
L 597.966801 214.401178 
L 600.140163 219.182845 
L 602.313524 227.514537 
L 604.486886 234.759488 
L 606.660248 236.570725 
L 608.83361 234.614589 
L 611.006972 236.425826 
L 613.180333 229.905371 
L 615.353695 224.616557 
L 617.527057 215.777718 
L 619.700419 216.502213 
L 621.873781 217.00936 
L 624.047142 216.429764 
L 626.220504 213.894031 
L 628.393866 216.792011 
L 630.567228 222.370623 
L 632.74059 224.18186 
L 634.913951 214.401178 
L 639.260675 214.835875 
L 641.434037 213.024637 
L 643.607398 213.024637 
L 645.78076 207.301126 
L 647.954122 212.372592 
L 650.127484 221.066532 
L 652.300846 223.602264 
L 654.474207 221.935926 
L 656.647569 224.689007 
L 658.820931 223.747163 
L 660.994293 225.558401 
L 663.167655 220.269587 
L 665.341016 224.109411 
L 667.514378 221.935926 
L 669.68774 221.428779 
L 671.861102 219.400193 
L 674.034464 219.037946 
L 676.207825 222.225724 
L 678.381187 227.514537 
L 680.554549 227.514537 
L 682.727911 232.368654 
L 684.901272 236.860523 
L 687.074634 238.164614 
L 689.247996 243.743226 
L 691.421358 242.511584 
L 693.59472 236.498276 
L 695.768081 229.398224 
L 697.941443 228.021684 
L 700.114805 230.412517 
L 702.288167 232.006407 
L 704.461529 226.790042 
L 706.63489 220.994082 
L 708.808252 219.545092 
L 710.981614 223.167567 
L 713.154976 220.414486 
L 715.328338 213.169536 
L 717.501699 209.764409 
L 719.675061 205.200091 
L 721.848423 208.822566 
L 724.021785 214.11138 
L 726.195147 212.300142 
L 728.368508 211.430748 
L 730.54187 212.879738 
L 732.715232 208.677667 
L 734.888594 209.61951 
L 737.061955 206.359283 
L 739.235317 208.677667 
L 741.408679 210.488905 
L 743.582041 209.909308 
L 745.755403 211.937895 
L 747.928764 214.690976 
L 750.102126 218.675698 
L 752.275488 221.066532 
L 754.44885 216.719562 
L 756.622212 216.719562 
L 758.795573 221.066532 
L 760.968935 220.486936 
L 763.142297 223.167567 
L 767.489021 216.792011 
L 769.662382 223.529815 
L 771.835744 219.90734 
L 774.009106 214.473627 
L 776.182468 217.951203 
L 778.355829 219.255294 
L 780.529191 226.500244 
L 782.702553 226.862492 
L 784.875915 221.211431 
L 787.049277 217.951203 
L 789.222638 217.951203 
L 791.396 214.11138 
L 793.569362 212.082794 
L 795.742724 207.373576 
L 797.916086 207.373576 
L 800.089447 205.200091 
L 802.262809 211.720546 
L 804.436171 211.720546 
L 806.609533 210.271556 
L 808.782895 216.792011 
L 810.956256 216.067516 
L 813.129618 213.894031 
L 815.30298 215.56037 
L 817.476342 215.777718 
L 819.649704 221.066532 
L 821.823065 223.602264 
L 823.996427 221.066532 
L 826.169789 219.255294 
L 828.343151 221.066532 
L 830.516512 221.573678 
L 832.689874 230.195169 
L 834.863236 230.340068 
L 837.036598 227.297189 
L 839.20996 227.804335 
L 841.383321 232.151306 
L 845.730045 229.253325 
L 847.903407 221.35633 
L 850.076769 220.486936 
L 852.25013 220.994082 
L 854.423492 219.400193 
L 856.596854 215.777718 
L 858.770216 222.515522 
L 860.943578 224.689007 
L 863.116939 223.747163 
L 865.290301 221.718577 
L 867.463663 223.892062 
L 869.637025 224.616557 
L 871.810386 223.022668 
L 876.15711 211.068501 
L 878.330472 212.372592 
L 880.503834 211.648097 
L 882.677195 209.474611 
L 884.850557 203.896 
L 887.023919 200.780671 
L 889.197281 200.780671 
L 891.370643 203.461303 
L 893.544004 202.881707 
L 895.717366 203.606202 
L 897.890728 206.72153 
L 900.06409 214.473627 
L 902.237452 215.198122 
L 904.410813 211.2134 
L 906.584175 210.488905 
L 908.757537 212.300142 
L 910.930899 211.2134 
L 913.10426 205.562338 
L 915.277622 203.896 
L 917.450984 207.518475 
L 919.624346 214.03893 
L 921.797708 214.401178 
L 923.971069 209.69196 
L 926.144431 208.24297 
L 928.317793 208.967465 
L 930.491155 206.286833 
L 932.664517 214.401178 
L 934.837878 219.327744 
L 937.01124 222.950219 
L 939.184602 221.501229 
L 943.531326 217.154259 
L 945.704687 217.516506 
L 947.878049 211.937895 
L 950.051411 207.735823 
L 952.224773 208.387869 
L 952.224773 208.387869 
" clip-path="url(#p4562e519ac)" style="fill: none; stroke-dasharray: 5.55,2.4; stroke-dashoffset: 0; stroke: #4878d0; stroke-width: 1.5"/>
   </g>
   <g id="line2d_16">
    <path d="M 158.947719 203.685896 
L 161.121081 202.671603 
L 163.294443 200.389444 
L 165.467805 200.845876 
L 167.641166 202.198267 
L 169.814528 202.468745 
L 171.98789 202.130647 
L 174.161252 202.620889 
L 176.334614 202.434935 
L 178.507975 201.082544 
L 180.681337 200.16968 
L 182.854699 200.473968 
L 185.028061 201.471357 
L 187.201422 201.336117 
L 189.374784 204.260662 
L 191.548146 205.308765 
L 193.721508 203.668991 
L 195.89487 203.702801 
L 198.068231 205.613053 
L 200.241593 206.272344 
L 202.414955 205.934246 
L 204.588317 206.238534 
L 206.761679 207.202112 
L 208.93504 202.48565 
L 211.108402 203.07732 
L 213.281764 206.914729 
L 215.455126 206.593536 
L 217.628488 204.53114 
L 219.801849 205.968056 
L 221.975211 203.601372 
L 224.148573 200.30492 
L 226.321935 201.674215 
L 228.495296 203.787326 
L 230.668658 202.857557 
L 232.84202 204.294472 
L 237.188744 203.026606 
L 239.362105 198.834195 
L 241.535467 198.157999 
L 243.708829 201.437547 
L 245.882191 201.555881 
L 248.055553 203.854945 
L 250.228914 202.857557 
L 252.402276 202.48565 
L 254.575638 197.566328 
L 256.749 196.349177 
L 258.922362 197.194421 
L 261.095723 197.667758 
L 263.269085 198.259429 
L 267.615809 200.118966 
L 269.789171 193.610586 
L 271.962532 192.528673 
L 274.135894 197.025372 
L 276.309256 195.250359 
L 278.482618 195.351789 
L 280.655979 196.163223 
L 282.829341 196.63656 
L 285.002703 190.635326 
L 287.176065 192.832961 
L 289.349427 195.284169 
L 291.522788 195.098215 
L 293.69615 195.18274 
L 295.869512 196.771799 
L 298.042874 195.892745 
L 300.216236 190.652231 
L 302.389597 192.461053 
L 304.562959 195.199645 
L 306.736321 194.979881 
L 308.909683 192.799151 
L 311.083045 191.193187 
L 313.256406 191.210092 
L 315.429768 187.321969 
L 317.60313 186.273866 
L 319.776492 189.823892 
L 321.949853 188.691264 
L 324.123215 188.57293 
L 326.296577 185.952673 
L 328.469939 187.0853 
L 330.643301 187.491018 
L 332.816662 186.933157 
L 334.990024 192.258195 
L 337.163386 193.137249 
L 339.336748 191.767953 
L 341.51011 193.712015 
L 343.683471 194.134637 
L 345.856833 193.120344 
L 348.030195 193.576776 
L 350.203557 198.614431 
L 352.376919 199.121578 
L 354.55028 200.389444 
L 356.723642 200.389444 
L 358.897004 202.164457 
L 361.070366 203.11113 
L 363.243728 204.328282 
L 365.417089 210.44785 
L 367.590451 210.583089 
L 371.937175 209.72094 
L 374.110536 210.735233 
L 376.283898 210.650708 
L 378.45726 209.636415 
L 380.630622 215.806698 
L 382.803984 216.347654 
L 384.977345 217.02385 
L 387.150707 218.071952 
L 389.324069 219.289104 
L 391.497431 218.393145 
L 393.670793 218.646718 
L 395.844154 217.209803 
L 398.017516 216.19551 
L 400.190878 215.012168 
L 402.36424 214.335973 
L 404.537602 213.490729 
L 406.710963 209.856179 
L 408.884325 207.523305 
L 411.057687 206.796395 
L 413.231049 206.458297 
L 415.40441 205.139716 
L 417.577772 203.567562 
L 419.751134 202.553269 
L 421.924496 201.285403 
L 426.271219 196.974657 
L 428.444581 195.537742 
L 430.617943 194.574164 
L 432.791305 192.799151 
L 434.964667 194.405115 
L 437.138028 192.883676 
L 439.31139 193.813444 
L 443.658114 195.08131 
L 445.831476 192.461053 
L 448.004837 192.9682 
L 450.178199 194.016303 
L 454.524923 196.771799 
L 456.698284 200.406349 
L 458.871646 201.285403 
L 461.045008 201.133259 
L 463.21837 203.922565 
L 465.391732 207.945927 
L 467.565093 206.678061 
L 469.738455 210.532374 
L 471.911817 216.635037 
L 474.085179 218.528384 
L 478.431902 221.266975 
L 480.605264 224.614142 
L 482.778626 223.599849 
L 484.951988 225.172004 
L 487.12535 224.157711 
L 489.298711 228.485361 
L 491.472073 230.76752 
L 493.645435 234.030163 
L 495.818797 236.413751 
L 497.992159 235.061361 
L 500.16552 236.430656 
L 502.338882 238.814245 
L 504.512244 238.611386 
L 506.685606 239.321391 
L 508.858967 238.949484 
L 511.032329 240.268065 
L 513.205691 238.154954 
L 515.379053 237.546378 
L 517.552415 236.785659 
L 521.899138 239.439725 
L 524.0725 237.749237 
L 526.245862 237.225186 
L 528.419224 233.844209 
L 530.592585 232.103006 
L 532.765947 236.295417 
L 537.112671 231.731098 
L 539.286033 234.165402 
L 541.459394 233.928733 
L 543.632756 230.581566 
L 545.806118 231.646574 
L 547.97948 235.16279 
L 550.152841 234.063972 
L 552.326203 235.838985 
L 554.499565 232.593247 
L 556.672927 231.866337 
L 558.846289 226.490584 
L 561.01965 224.157711 
L 563.193012 226.625824 
L 565.366374 224.597237 
L 567.539736 224.29295 
L 569.713098 223.701279 
L 571.886459 222.568651 
L 576.233183 221.199356 
L 578.406545 224.19152 
L 580.579907 223.802708 
L 582.753268 223.041988 
L 584.92663 221.114831 
L 587.099992 218.815767 
L 589.273354 217.429567 
L 591.446716 216.92242 
L 593.620077 219.06934 
L 597.966801 216.19551 
L 602.313524 217.784569 
L 604.486886 215.231932 
L 606.660248 214.555737 
L 608.83361 217.091469 
L 611.006972 214.792405 
L 613.180333 212.932868 
L 615.353695 213.558348 
L 617.527057 213.101917 
L 619.700419 213.795017 
L 621.873781 213.203346 
L 624.047142 216.026461 
L 626.220504 216.482893 
L 628.393866 216.347654 
L 630.567228 217.801474 
L 632.74059 217.040754 
L 634.913951 215.215027 
L 637.087313 216.651942 
L 639.260675 217.835284 
L 641.434037 218.088857 
L 643.607398 217.852189 
L 645.78076 217.767664 
L 647.954122 219.458153 
L 650.127484 219.255294 
L 654.474207 221.655788 
L 656.647569 222.298173 
L 658.820931 221.841741 
L 660.994293 222.315078 
L 663.167655 220.827448 
L 665.341016 220.404826 
L 667.514378 219.13696 
L 669.68774 218.545289 
L 671.861102 218.291716 
L 674.034464 218.207191 
L 676.207825 219.001721 
L 678.381187 220.269587 
L 680.554549 221.081022 
L 682.727911 223.008178 
L 684.901272 223.295561 
L 687.074634 223.227942 
L 689.247996 224.580333 
L 691.421358 225.67915 
L 693.59472 224.867716 
L 695.768081 222.720795 
L 697.941443 223.904137 
L 700.114805 227.031541 
L 702.288167 227.285114 
L 706.63489 227.538687 
L 708.808252 226.389155 
L 710.981614 226.422965 
L 715.328338 225.188908 
L 717.501699 224.056281 
L 719.675061 223.46461 
L 724.021785 224.140806 
L 726.195147 223.329371 
L 728.368508 223.718184 
L 730.54187 222.568651 
L 732.715232 220.962687 
L 734.888594 220.709114 
L 737.061955 220.793639 
L 739.235317 221.723407 
L 741.408679 220.59078 
L 743.582041 219.610297 
L 745.755403 218.934101 
L 747.928764 216.837896 
L 750.102126 216.465988 
L 752.275488 216.804086 
L 754.44885 215.417886 
L 756.622212 214.572641 
L 758.795573 216.009557 
L 760.968935 216.854801 
L 763.142297 215.705269 
L 765.315659 214.01478 
L 767.489021 213.25406 
L 769.662382 214.657166 
L 771.835744 214.319068 
L 774.009106 214.826215 
L 776.182468 215.637649 
L 778.355829 215.43479 
L 780.529191 217.125279 
L 782.702553 217.243613 
L 784.875915 218.393145 
L 787.049277 216.449084 
L 789.222638 215.722174 
L 791.396 216.060271 
L 793.569362 215.586934 
L 795.742724 215.840508 
L 797.916086 216.939325 
L 802.262809 217.700045 
L 804.436171 216.432179 
L 806.609533 216.009557 
L 808.782895 217.192898 
L 810.956256 216.804086 
L 815.30298 216.635037 
L 817.476342 216.465988 
L 819.649704 217.446472 
L 821.823065 217.61552 
L 823.996427 217.192898 
L 826.169789 216.516703 
L 828.343151 216.26313 
L 830.516512 217.02385 
L 832.689874 219.593392 
L 834.863236 219.035531 
L 837.036598 219.339819 
L 839.20996 220.303397 
L 841.383321 219.83006 
L 843.556683 218.934101 
L 845.730045 217.666235 
L 850.076769 218.866482 
L 852.25013 220.049824 
L 854.423492 220.641495 
L 856.596854 220.218873 
L 858.770216 221.368405 
L 863.116939 222.129124 
L 865.290301 222.720795 
L 867.463663 222.889844 
L 869.637025 223.650564 
L 871.810386 223.194132 
L 873.983748 221.419119 
L 876.15711 220.540065 
L 878.330472 221.774122 
L 880.503834 221.807932 
L 882.677195 221.419119 
L 887.023919 217.869094 
L 889.197281 216.685752 
L 891.370643 216.854801 
L 893.544004 217.530996 
L 895.717366 217.61552 
L 897.890728 215.941937 
L 900.06409 215.941937 
L 902.237452 215.045978 
L 904.410813 212.814534 
L 906.584175 211.80024 
L 908.757537 213.237156 
L 910.930899 213.406204 
L 913.10426 212.256672 
L 917.450984 211.90167 
L 919.624346 211.563572 
L 921.797708 211.479048 
L 923.971069 210.244991 
L 928.317793 208.808076 
L 930.491155 208.469978 
L 932.664517 209.68713 
L 934.837878 210.329516 
L 937.01124 211.462143 
L 939.184602 211.293094 
L 941.357964 211.495953 
L 943.531326 209.923798 
L 945.704687 209.839274 
L 947.878049 210.261896 
L 950.051411 211.225474 
L 952.224773 213.237156 
L 952.224773 213.237156 
" clip-path="url(#p4562e519ac)" style="fill: none; stroke-dasharray: 9.6,2.4,1.5,2.4; stroke-dashoffset: 0; stroke: #ee854a; stroke-width: 1.5"/>
   </g>
   <g id="patch_3">
    <path d="M 53.105 327.1 
L 53.105 29.76 
" style="fill: none; stroke: #cccccc; stroke-width: 1.25; stroke-linejoin: miter; stroke-linecap: square"/>
   </g>
   <g id="patch_4">
    <path d="M 995.04 327.1 
L 995.04 29.76 
" style="fill: none; stroke: #cccccc; stroke-width: 1.25; stroke-linejoin: miter; stroke-linecap: square"/>
   </g>
   <g id="patch_5">
    <path d="M 53.105 327.1 
L 995.04 327.1 
" style="fill: none; stroke: #cccccc; stroke-width: 1.25; stroke-linejoin: miter; stroke-linecap: square"/>
   </g>
   <g id="patch_6">
    <path d="M 53.105 29.76 
L 995.04 29.76 
" style="fill: none; stroke: #cccccc; stroke-width: 1.25; stroke-linejoin: miter; stroke-linecap: square"/>
   </g>
   <g id="text_14">
    <!-- DƯA HẤU — Wholesale Time Series + Rolling -->
    <g style="fill: #262626" transform="translate(400.73875 23.76) scale(0.12 -0.12)">
     <defs>
      <path id="ArialMT-44" d="M 494 0 
L 494 4581 
L 2072 4581 
Q 2606 4581 2888 4516 
Q 3281 4425 3559 4188 
Q 3922 3881 4101 3404 
Q 4281 2928 4281 2316 
Q 4281 1794 4159 1391 
Q 4038 988 3847 723 
Q 3656 459 3429 307 
Q 3203 156 2883 78 
Q 2563 0 2147 0 
L 494 0 
z
M 1100 541 
L 2078 541 
Q 2531 541 2789 625 
Q 3047 709 3200 863 
Q 3416 1078 3536 1442 
Q 3656 1806 3656 2325 
Q 3656 3044 3420 3430 
Q 3184 3816 2847 3947 
Q 2603 4041 2063 4041 
L 1100 4041 
L 1100 541 
z
" transform="scale(0.015625)"/>
      <path id="ArialMT-1af" d="M 4603 3928 
L 4603 4581 
L 5206 4581 
L 5206 4066 
Q 5206 3575 5094 3381 
Q 4784 2841 4106 2809 
L 4106 1934 
Q 4106 1231 3950 838 
Q 3788 428 3388 178 
Q 2978 -78 2316 -78 
Q 1038 -78 678 788 
Q 503 1206 503 1934 
L 503 4581 
L 1109 4581 
L 1109 1938 
Q 1109 1347 1222 1056 
Q 1328 778 1600 623 
Q 1872 469 2263 469 
Q 2947 469 3216 772 
Q 3500 1091 3500 1938 
L 3500 4581 
L 4106 4581 
L 4106 3041 
Q 4594 3091 4813 3428 
Q 4897 3559 4897 3928 
L 4603 3928 
z
" transform="scale(0.015625)"/>
      <path id="ArialMT-41" d="M -9 0 
L 1750 4581 
L 2403 4581 
L 4278 0 
L 3588 0 
L 3053 1388 
L 1138 1388 
L 634 0 
L -9 0 
z
M 1313 1881 
L 2866 1881 
L 2388 3150 
Q 2169 3728 2063 4100 
Q 1975 3659 1816 3225 
L 1313 1881 
z
" transform="scale(0.015625)"/>
      <path id="ArialMT-20" transform="scale(0.015625)"/>
      <path id="ArialMT-48" d="M 513 0 
L 513 4581 
L 1119 4581 
L 1119 2700 
L 3500 2700 
L 3500 4581 
L 4106 4581 
L 4106 0 
L 3500 0 
L 3500 2159 
L 1119 2159 
L 1119 0 
L 513 0 
z
" transform="scale(0.015625)"/>
      <path id="ArialMT-1ea4" d="M -9 0 
L 1750 4581 
L 2403 4581 
L 4278 0 
L 3588 0 
L 3053 1388 
L 1138 1388 
L 634 0 
L -9 0 
z
M 1313 1881 
L 2866 1881 
L 2388 3150 
Q 2169 3728 2063 4100 
Q 1975 3659 1816 3225 
L 1313 1881 
z
M 2062 4936 
L 1653 4727 
L 1106 4727 
L 1759 5111 
L 2368 5111 
L 3018 4727 
L 2471 4727 
L 2062 4936 
z
M 2180 5734 
L 2887 5734 
L 2165 5241 
L 1759 5241 
L 2180 5734 
z
" transform="scale(0.015625)"/>
      <path id="ArialMT-55" d="M 3500 4581 
L 4106 4581 
L 4106 1934 
Q 4106 1244 3950 837 
Q 3794 431 3386 176 
Q 2978 -78 2316 -78 
Q 1672 -78 1262 144 
Q 853 366 678 786 
Q 503 1206 503 1934 
L 503 4581 
L 1109 4581 
L 1109 1938 
Q 1109 1341 1220 1058 
Q 1331 775 1601 622 
Q 1872 469 2263 469 
Q 2931 469 3215 772 
Q 3500 1075 3500 1938 
L 3500 4581 
z
" transform="scale(0.015625)"/>
      <path id="ArialMT-2014" d="M 0 1431 
L 0 1884 
L 6400 1884 
L 6400 1431 
L 0 1431 
z
" transform="scale(0.015625)"/>
      <path id="ArialMT-57" d="M 1294 0 
L 78 4581 
L 700 4581 
L 1397 1578 
Q 1509 1106 1591 641 
Q 1766 1375 1797 1488 
L 2669 4581 
L 3400 4581 
L 4056 2263 
Q 4303 1400 4413 641 
Q 4500 1075 4641 1638 
L 5359 4581 
L 5969 4581 
L 4713 0 
L 4128 0 
L 3163 3491 
Q 3041 3928 3019 4028 
Q 2947 3713 2884 3491 
L 1913 0 
L 1294 0 
z
" transform="scale(0.015625)"/>
      <path id="ArialMT-68" d="M 422 0 
L 422 4581 
L 984 4581 
L 984 2938 
Q 1378 3394 1978 3394 
Q 2347 3394 2619 3248 
Q 2891 3103 3008 2847 
Q 3125 2591 3125 2103 
L 3125 0 
L 2563 0 
L 2563 2103 
Q 2563 2525 2380 2717 
Q 2197 2909 1863 2909 
Q 1613 2909 1392 2779 
Q 1172 2650 1078 2428 
Q 984 2206 984 1816 
L 984 0 
L 422 0 
z
" transform="scale(0.015625)"/>
      <path id="ArialMT-6f" d="M 213 1659 
Q 213 2581 725 3025 
Q 1153 3394 1769 3394 
Q 2453 3394 2887 2945 
Q 3322 2497 3322 1706 
Q 3322 1066 3130 698 
Q 2938 331 2570 128 
Q 2203 -75 1769 -75 
Q 1072 -75 642 372 
Q 213 819 213 1659 
z
M 791 1659 
Q 791 1022 1069 705 
Q 1347 388 1769 388 
Q 2188 388 2466 706 
Q 2744 1025 2744 1678 
Q 2744 2294 2464 2611 
Q 2184 2928 1769 2928 
Q 1347 2928 1069 2612 
Q 791 2297 791 1659 
z
" transform="scale(0.015625)"/>
      <path id="ArialMT-6c" d="M 409 0 
L 409 4581 
L 972 4581 
L 972 0 
L 409 0 
z
" transform="scale(0.015625)"/>
      <path id="ArialMT-65" d="M 2694 1069 
L 3275 997 
Q 3138 488 2766 206 
Q 2394 -75 1816 -75 
Q 1088 -75 661 373 
Q 234 822 234 1631 
Q 234 2469 665 2931 
Q 1097 3394 1784 3394 
Q 2450 3394 2872 2941 
Q 3294 2488 3294 1666 
Q 3294 1616 3291 1516 
L 816 1516 
Q 847 969 1125 678 
Q 1403 388 1819 388 
Q 2128 388 2347 550 
Q 2566 713 2694 1069 
z
M 847 1978 
L 2700 1978 
Q 2663 2397 2488 2606 
Q 2219 2931 1791 2931 
Q 1403 2931 1139 2672 
Q 875 2413 847 1978 
z
" transform="scale(0.015625)"/>
      <path id="ArialMT-73" d="M 197 991 
L 753 1078 
Q 800 744 1014 566 
Q 1228 388 1613 388 
Q 2000 388 2187 545 
Q 2375 703 2375 916 
Q 2375 1106 2209 1216 
Q 2094 1291 1634 1406 
Q 1016 1563 777 1677 
Q 538 1791 414 1992 
Q 291 2194 291 2438 
Q 291 2659 392 2848 
Q 494 3038 669 3163 
Q 800 3259 1026 3326 
Q 1253 3394 1513 3394 
Q 1903 3394 2198 3281 
Q 2494 3169 2634 2976 
Q 2775 2784 2828 2463 
L 2278 2388 
Q 2241 2644 2061 2787 
Q 1881 2931 1553 2931 
Q 1166 2931 1000 2803 
Q 834 2675 834 2503 
Q 834 2394 903 2306 
Q 972 2216 1119 2156 
Q 1203 2125 1616 2013 
Q 2213 1853 2448 1751 
Q 2684 1650 2818 1456 
Q 2953 1263 2953 975 
Q 2953 694 2789 445 
Q 2625 197 2315 61 
Q 2006 -75 1616 -75 
Q 969 -75 630 194 
Q 291 463 197 991 
z
" transform="scale(0.015625)"/>
      <path id="ArialMT-61" d="M 2588 409 
Q 2275 144 1986 34 
Q 1697 -75 1366 -75 
Q 819 -75 525 192 
Q 231 459 231 875 
Q 231 1119 342 1320 
Q 453 1522 633 1644 
Q 813 1766 1038 1828 
Q 1203 1872 1538 1913 
Q 2219 1994 2541 2106 
Q 2544 2222 2544 2253 
Q 2544 2597 2384 2738 
Q 2169 2928 1744 2928 
Q 1347 2928 1158 2789 
Q 969 2650 878 2297 
L 328 2372 
Q 403 2725 575 2942 
Q 747 3159 1072 3276 
Q 1397 3394 1825 3394 
Q 2250 3394 2515 3294 
Q 2781 3194 2906 3042 
Q 3031 2891 3081 2659 
Q 3109 2516 3109 2141 
L 3109 1391 
Q 3109 606 3145 398 
Q 3181 191 3288 0 
L 2700 0 
Q 2613 175 2588 409 
z
M 2541 1666 
Q 2234 1541 1622 1453 
Q 1275 1403 1131 1340 
Q 988 1278 909 1158 
Q 831 1038 831 891 
Q 831 666 1001 516 
Q 1172 366 1500 366 
Q 1825 366 2078 508 
Q 2331 650 2450 897 
Q 2541 1088 2541 1459 
L 2541 1666 
z
" transform="scale(0.015625)"/>
      <path id="ArialMT-54" d="M 1659 0 
L 1659 4041 
L 150 4041 
L 150 4581 
L 3781 4581 
L 3781 4041 
L 2266 4041 
L 2266 0 
L 1659 0 
z
" transform="scale(0.015625)"/>
      <path id="ArialMT-69" d="M 425 3934 
L 425 4581 
L 988 4581 
L 988 3934 
L 425 3934 
z
M 425 0 
L 425 3319 
L 988 3319 
L 988 0 
L 425 0 
z
" transform="scale(0.015625)"/>
      <path id="ArialMT-6d" d="M 422 0 
L 422 3319 
L 925 3319 
L 925 2853 
Q 1081 3097 1340 3245 
Q 1600 3394 1931 3394 
Q 2300 3394 2536 3241 
Q 2772 3088 2869 2813 
Q 3263 3394 3894 3394 
Q 4388 3394 4653 3120 
Q 4919 2847 4919 2278 
L 4919 0 
L 4359 0 
L 4359 2091 
Q 4359 2428 4304 2576 
Q 4250 2725 4106 2815 
Q 3963 2906 3769 2906 
Q 3419 2906 3187 2673 
Q 2956 2441 2956 1928 
L 2956 0 
L 2394 0 
L 2394 2156 
Q 2394 2531 2256 2718 
Q 2119 2906 1806 2906 
Q 1569 2906 1367 2781 
Q 1166 2656 1075 2415 
Q 984 2175 984 1722 
L 984 0 
L 422 0 
z
" transform="scale(0.015625)"/>
      <path id="ArialMT-53" d="M 288 1472 
L 859 1522 
Q 900 1178 1048 958 
Q 1197 738 1509 602 
Q 1822 466 2213 466 
Q 2559 466 2825 569 
Q 3091 672 3220 851 
Q 3350 1031 3350 1244 
Q 3350 1459 3225 1620 
Q 3100 1781 2813 1891 
Q 2628 1963 1997 2114 
Q 1366 2266 1113 2400 
Q 784 2572 623 2826 
Q 463 3081 463 3397 
Q 463 3744 659 4045 
Q 856 4347 1234 4503 
Q 1613 4659 2075 4659 
Q 2584 4659 2973 4495 
Q 3363 4331 3572 4012 
Q 3781 3694 3797 3291 
L 3216 3247 
Q 3169 3681 2898 3903 
Q 2628 4125 2100 4125 
Q 1550 4125 1298 3923 
Q 1047 3722 1047 3438 
Q 1047 3191 1225 3031 
Q 1400 2872 2139 2705 
Q 2878 2538 3153 2413 
Q 3553 2228 3743 1945 
Q 3934 1663 3934 1294 
Q 3934 928 3725 604 
Q 3516 281 3123 101 
Q 2731 -78 2241 -78 
Q 1619 -78 1198 103 
Q 778 284 539 648 
Q 300 1013 288 1472 
z
" transform="scale(0.015625)"/>
      <path id="ArialMT-72" d="M 416 0 
L 416 3319 
L 922 3319 
L 922 2816 
Q 1116 3169 1280 3281 
Q 1444 3394 1641 3394 
Q 1925 3394 2219 3213 
L 2025 2691 
Q 1819 2813 1613 2813 
Q 1428 2813 1281 2702 
Q 1134 2591 1072 2394 
Q 978 2094 978 1738 
L 978 0 
L 416 0 
z
" transform="scale(0.015625)"/>
      <path id="ArialMT-2b" d="M 1603 741 
L 1603 1997 
L 356 1997 
L 356 2522 
L 1603 2522 
L 1603 3769 
L 2134 3769 
L 2134 2522 
L 3381 2522 
L 3381 1997 
L 2134 1997 
L 2134 741 
L 1603 741 
z
" transform="scale(0.015625)"/>
      <path id="ArialMT-52" d="M 503 0 
L 503 4581 
L 2534 4581 
Q 3147 4581 3465 4457 
Q 3784 4334 3975 4021 
Q 4166 3709 4166 3331 
Q 4166 2844 3850 2509 
Q 3534 2175 2875 2084 
Q 3116 1969 3241 1856 
Q 3506 1613 3744 1247 
L 4541 0 
L 3778 0 
L 3172 953 
Q 2906 1366 2734 1584 
Q 2563 1803 2427 1890 
Q 2291 1978 2150 2013 
Q 2047 2034 1813 2034 
L 1109 2034 
L 1109 0 
L 503 0 
z
M 1109 2559 
L 2413 2559 
Q 2828 2559 3062 2645 
Q 3297 2731 3419 2920 
Q 3541 3109 3541 3331 
Q 3541 3656 3305 3865 
Q 3069 4075 2559 4075 
L 1109 4075 
L 1109 2559 
z
" transform="scale(0.015625)"/>
      <path id="ArialMT-6e" d="M 422 0 
L 422 3319 
L 928 3319 
L 928 2847 
Q 1294 3394 1984 3394 
Q 2284 3394 2536 3286 
Q 2788 3178 2913 3003 
Q 3038 2828 3088 2588 
Q 3119 2431 3119 2041 
L 3119 0 
L 2556 0 
L 2556 2019 
Q 2556 2363 2490 2533 
Q 2425 2703 2258 2804 
Q 2091 2906 1866 2906 
Q 1506 2906 1245 2678 
Q 984 2450 984 1813 
L 984 0 
L 422 0 
z
" transform="scale(0.015625)"/>
      <path id="ArialMT-67" d="M 319 -275 
L 866 -356 
Q 900 -609 1056 -725 
Q 1266 -881 1628 -881 
Q 2019 -881 2231 -725 
Q 2444 -569 2519 -288 
Q 2563 -116 2559 434 
Q 2191 0 1641 0 
Q 956 0 581 494 
Q 206 988 206 1678 
Q 206 2153 378 2554 
Q 550 2956 876 3175 
Q 1203 3394 1644 3394 
Q 2231 3394 2613 2919 
L 2613 3319 
L 3131 3319 
L 3131 450 
Q 3131 -325 2973 -648 
Q 2816 -972 2473 -1159 
Q 2131 -1347 1631 -1347 
Q 1038 -1347 672 -1080 
Q 306 -813 319 -275 
z
M 784 1719 
Q 784 1066 1043 766 
Q 1303 466 1694 466 
Q 2081 466 2343 764 
Q 2606 1063 2606 1700 
Q 2606 2309 2336 2618 
Q 2066 2928 1684 2928 
Q 1309 2928 1046 2623 
Q 784 2319 784 1719 
z
" transform="scale(0.015625)"/>
     </defs>
     <use xlink:href="#ArialMT-44"/>
     <use xlink:href="#ArialMT-1af" transform="translate(72.216797 0)"/>
     <use xlink:href="#ArialMT-41" transform="translate(157.617188 0)"/>
     <use xlink:href="#ArialMT-20" transform="translate(218.816406 0)"/>
     <use xlink:href="#ArialMT-48" transform="translate(246.599609 0)"/>
     <use xlink:href="#ArialMT-1ea4" transform="translate(318.816406 0)"/>
     <use xlink:href="#ArialMT-55" transform="translate(385.515625 0)"/>
     <use xlink:href="#ArialMT-20" transform="translate(457.732422 0)"/>
     <use xlink:href="#ArialMT-2014" transform="translate(485.515625 0)"/>
     <use xlink:href="#ArialMT-20" transform="translate(585.515625 0)"/>
     <use xlink:href="#ArialMT-57" transform="translate(613.298828 0)"/>
     <use xlink:href="#ArialMT-68" transform="translate(707.683594 0)"/>
     <use xlink:href="#ArialMT-6f" transform="translate(763.298828 0)"/>
     <use xlink:href="#ArialMT-6c" transform="translate(818.914062 0)"/>
     <use xlink:href="#ArialMT-65" transform="translate(841.130859 0)"/>
     <use xlink:href="#ArialMT-73" transform="translate(896.746094 0)"/>
     <use xlink:href="#ArialMT-61" transform="translate(946.746094 0)"/>
     <use xlink:href="#ArialMT-6c" transform="translate(1002.361328 0)"/>
     <use xlink:href="#ArialMT-65" transform="translate(1024.578125 0)"/>
     <use xlink:href="#ArialMT-20" transform="translate(1080.193359 0)"/>
     <use xlink:href="#ArialMT-54" transform="translate(1106.226562 0)"/>
     <use xlink:href="#ArialMT-69" transform="translate(1163.560547 0)"/>
     <use xlink:href="#ArialMT-6d" transform="translate(1185.777344 0)"/>
     <use xlink:href="#ArialMT-65" transform="translate(1269.078125 0)"/>
     <use xlink:href="#ArialMT-20" transform="translate(1324.693359 0)"/>
     <use xlink:href="#ArialMT-53" transform="translate(1352.476562 0)"/>
     <use xlink:href="#ArialMT-65" transform="translate(1419.175781 0)"/>
     <use xlink:href="#ArialMT-72" transform="translate(1474.791016 0)"/>
     <use xlink:href="#ArialMT-69" transform="translate(1508.091797 0)"/>
     <use xlink:href="#ArialMT-65" transform="translate(1530.308594 0)"/>
     <use xlink:href="#ArialMT-73" transform="translate(1585.923828 0)"/>
     <use xlink:href="#ArialMT-20" transform="translate(1635.923828 0)"/>
     <use xlink:href="#ArialMT-2b" transform="translate(1663.707031 0)"/>
     <use xlink:href="#ArialMT-20" transform="translate(1722.105469 0)"/>
     <use xlink:href="#ArialMT-52" transform="translate(1749.888672 0)"/>
     <use xlink:href="#ArialMT-6f" transform="translate(1822.105469 0)"/>
     <use xlink:href="#ArialMT-6c" transform="translate(1877.720703 0)"/>
     <use xlink:href="#ArialMT-6c" transform="translate(1899.9375 0)"/>
     <use xlink:href="#ArialMT-69" transform="translate(1922.154297 0)"/>
     <use xlink:href="#ArialMT-6e" transform="translate(1944.371094 0)"/>
     <use xlink:href="#ArialMT-67" transform="translate(1999.986328 0)"/>
    </g>
   </g>
   <g id="legend_1">
    <g id="patch_7">
     <path d="M 900.78375 85.239531 
L 987.34 85.239531 
Q 989.54 85.239531 989.54 83.039531 
L 989.54 37.46 
Q 989.54 35.26 987.34 35.26 
L 900.78375 35.26 
Q 898.58375 35.26 898.58375 37.46 
L 898.58375 83.039531 
Q 898.58375 85.239531 900.78375 85.239531 
z
" style="fill: #ffffff; opacity: 0.8; stroke: #cccccc; stroke-linejoin: miter"/>
    </g>
    <g id="line2d_17">
     <path d="M 902.98375 43.683594 
L 913.98375 43.683594 
L 924.98375 43.683594 
" style="fill: none; stroke: #e76f51; stroke-width: 1.5; stroke-linecap: round"/>
    </g>
    <g id="text_15">
     <!-- Wholesale -->
     <g style="fill: #262626" transform="translate(933.78375 47.533594) scale(0.11 -0.11)">
      <use xlink:href="#ArialMT-57"/>
      <use xlink:href="#ArialMT-68" transform="translate(94.384766 0)"/>
      <use xlink:href="#ArialMT-6f" transform="translate(150 0)"/>
      <use xlink:href="#ArialMT-6c" transform="translate(205.615234 0)"/>
      <use xlink:href="#ArialMT-65" transform="translate(227.832031 0)"/>
      <use xlink:href="#ArialMT-73" transform="translate(283.447266 0)"/>
      <use xlink:href="#ArialMT-61" transform="translate(333.447266 0)"/>
      <use xlink:href="#ArialMT-6c" transform="translate(389.0625 0)"/>
      <use xlink:href="#ArialMT-65" transform="translate(411.279297 0)"/>
     </g>
    </g>
    <g id="line2d_18">
     <path d="M 902.98375 59.243437 
L 913.98375 59.243437 
L 924.98375 59.243437 
" style="fill: none; stroke-dasharray: 5.55,2.4; stroke-dashoffset: 0; stroke: #4878d0; stroke-width: 1.5"/>
    </g>
    <g id="text_16">
     <!-- RM7 -->
     <g style="fill: #262626" transform="translate(933.78375 63.093437) scale(0.11 -0.11)">
      <defs>
       <path id="ArialMT-4d" d="M 475 0 
L 475 4581 
L 1388 4581 
L 2472 1338 
Q 2622 884 2691 659 
Q 2769 909 2934 1394 
L 4031 4581 
L 4847 4581 
L 4847 0 
L 4263 0 
L 4263 3834 
L 2931 0 
L 2384 0 
L 1059 3900 
L 1059 0 
L 475 0 
z
" transform="scale(0.015625)"/>
      </defs>
      <use xlink:href="#ArialMT-52"/>
      <use xlink:href="#ArialMT-4d" transform="translate(72.216797 0)"/>
      <use xlink:href="#ArialMT-37" transform="translate(155.517578 0)"/>
     </g>
    </g>
    <g id="line2d_19">
     <path d="M 902.98375 74.803281 
L 913.98375 74.803281 
L 924.98375 74.803281 
" style="fill: none; stroke-dasharray: 9.6,2.4,1.5,2.4; stroke-dashoffset: 0; stroke: #ee854a; stroke-width: 1.5"/>
    </g>
    <g id="text_17">
     <!-- RM30 -->
     <g style="fill: #262626" transform="translate(933.78375 78.653281) scale(0.11 -0.11)">
      <use xlink:href="#ArialMT-52"/>
      <use xlink:href="#ArialMT-4d" transform="translate(72.216797 0)"/>
      <use xlink:href="#ArialMT-33" transform="translate(155.517578 0)"/>
      <use xlink:href="#ArialMT-30" transform="translate(211.132812 0)"/>
     </g>
    </g>
   </g>
  </g>
 </g>
 <defs>
  <clipPath id="p4562e519ac">
   <rect x="53.105" y="29.76" width="941.935" height="297.34"/>
  </clipPath>
 </defs>
</svg>
