<?xml version="1.0" encoding="utf-8" standalone="no"?>
<!DOCTYPE svg PUBLIC "-//W3C//DTD SVG 1.1//EN"
  "http://www.w3.org/Graphics/SVG/1.1/DTD/svg11.dtd">
<svg xmlns:xlink="http://www.w3.org/1999/xlink" width="864pt" height="864pt" viewBox="0 0 864 864" xmlns="http://www.w3.org/2000/svg" version="1.1">
 <metadata>
  <rdf:RDF xmlns:dc="http://purl.org/dc/elements/1.1/" xmlns:cc="http://creativecommons.org/ns#" xmlns:rdf="http://www.w3.org/1999/02/22-rdf-syntax-ns#">
   <cc:Work>
    <dc:type rdf:resource="http://purl.org/dc/dcmitype/StillImage"/>
    <dc:date>2025-12-12T00:30:23.243010</dc:date>
    <dc:format>image/svg+xml</dc:format>
    <dc:creator>
     <cc:Agent>
      <dc:title>Matplotlib v3.10.7, https://matplotlib.org/</dc:title>
     </cc:Agent>
    </dc:creator>
   </cc:Work>
  </rdf:RDF>
 </metadata>
 <defs>
  <style type="text/css">*{stroke-linejoin: round; stroke-linecap: butt}</style>
 </defs>
 <g id="figure_1">
  <g id="patch_1">
   <path d="M 0 864 
L 864 864 
L 864 0 
L 0 0 
z
" style="fill: #ffffff"/>
  </g>
  <g id="axes_1">
   <g id="patch_2">
    <path d="M 59.54 207.775 
L 851.04 207.775 
L 851.04 27.6 
L 59.54 27.6 
z
" style="fill: #ffffff"/>
   </g>
   <g id="matplotlib.axis_1">
    <g id="xtick_1">
     <g id="line2d_1">
      <path d="M 95.517273 207.775 
L 95.517273 27.6 
" clip-path="url(#pfd1e9cb527)" style="fill: none; stroke: #cccccc; stroke-linecap: round"/>
     </g>
    </g>
    <g id="xtick_2">
     <g id="line2d_2">
      <path d="M 206.91898 207.775 
L 206.91898 27.6 
" clip-path="url(#pfd1e9cb527)" style="fill: none; stroke: #cccccc; stroke-linecap: round"/>
     </g>
    </g>
    <g id="xtick_3">
     <g id="line2d_3">
      <path d="M 318.320688 207.775 
L 318.320688 27.6 
" clip-path="url(#pfd1e9cb527)" style="fill: none; stroke: #cccccc; stroke-linecap: round"/>
     </g>
    </g>
    <g id="xtick_4">
     <g id="line2d_4">
      <path d="M 426.06988 207.775 
L 426.06988 27.6 
" clip-path="url(#pfd1e9cb527)" style="fill: none; stroke: #cccccc; stroke-linecap: round"/>
     </g>
    </g>
    <g id="xtick_5">
     <g id="line2d_5">
      <path d="M 537.471587 207.775 
L 537.471587 27.6 
" clip-path="url(#pfd1e9cb527)" style="fill: none; stroke: #cccccc; stroke-linecap: round"/>
     </g>
    </g>
    <g id="xtick_6">
     <g id="line2d_6">
      <path d="M 648.873295 207.775 
L 648.873295 27.6 
" clip-path="url(#pfd1e9cb527)" style="fill: none; stroke: #cccccc; stroke-linecap: round"/>
     </g>
    </g>
    <g id="xtick_7">
     <g id="line2d_7">
      <path d="M 762.10126 207.775 
L 762.10126 27.6 
" clip-path="url(#pfd1e9cb527)" style="fill: none; stroke: #cccccc; stroke-linecap: round"/>
     </g>
    </g>
   </g>
   <g id="matplotlib.axis_2">
    <g id="ytick_1">
     <g id="line2d_8">
      <path d="M 59.54 172.872601 
L 851.04 172.872601 
" clip-path="url(#pfd1e9cb527)" style="fill: none; stroke: #cccccc; stroke-linecap: round"/>
     </g>
     <g id="text_1">
      <!-- 60000 -->
      <g style="fill: #262626" transform="translate(19.454844 176.809397) scale(0.11 -0.11)">
       <defs>
        <path id="ArialMT-36" d="M 3184 3459 
L 2625 3416 
Q 2550 3747 2413 3897 
Q 2184 4138 1850 4138 
Q 1581 4138 1378 3988 
Q 1113 3794 959 3422 
Q 806 3050 800 2363 
Q 1003 2672 1297 2822 
Q 1591 2972 1913 2972 
Q 2475 2972 2870 2558 
Q 3266 2144 3266 1488 
Q 3266 1056 3080 686 
Q 2894 316 2569 119 
Q 2244 -78 1831 -78 
Q 1128 -78 684 439 
Q 241 956 241 2144 
Q 241 3472 731 4075 
Q 1159 4600 1884 4600 
Q 2425 4600 2770 4297 
Q 3116 3994 3184 3459 
z
M 888 1484 
Q 888 1194 1011 928 
Q 1134 663 1356 523 
Q 1578 384 1822 384 
Q 2178 384 2434 671 
Q 2691 959 2691 1453 
Q 2691 1928 2437 2201 
Q 2184 2475 1800 2475 
Q 1419 2475 1153 2201 
Q 888 1928 888 1484 
z
" transform="scale(0.015625)"/>
        <path id="ArialMT-30" d="M 266 2259 
Q 266 3072 433 3567 
Q 600 4063 929 4331 
Q 1259 4600 1759 4600 
Q 2128 4600 2406 4451 
Q 2684 4303 2865 4023 
Q 3047 3744 3150 3342 
Q 3253 2941 3253 2259 
Q 3253 1453 3087 958 
Q 2922 463 2592 192 
Q 2263 -78 1759 -78 
Q 1097 -78 719 397 
Q 266 969 266 2259 
z
M 844 2259 
Q 844 1131 1108 757 
Q 1372 384 1759 384 
Q 2147 384 2411 759 
Q 2675 1134 2675 2259 
Q 2675 3391 2411 3762 
Q 2147 4134 1753 4134 
Q 1366 4134 1134 3806 
Q 844 3388 844 2259 
z
" transform="scale(0.015625)"/>
       </defs>
       <use xlink:href="#ArialMT-36"/>
       <use xlink:href="#ArialMT-30" transform="translate(55.615234 0)"/>
       <use xlink:href="#ArialMT-30" transform="translate(111.230469 0)"/>
       <use xlink:href="#ArialMT-30" transform="translate(166.845703 0)"/>
       <use xlink:href="#ArialMT-30" transform="translate(222.460938 0)"/>
      </g>
     </g>
    </g>
    <g id="ytick_2">
     <g id="line2d_9">
      <path d="M 59.54 135.823188 
L 851.04 135.823188 
" clip-path="url(#pfd1e9cb527)" style="fill: none; stroke: #cccccc; stroke-linecap: round"/>
     </g>
     <g id="text_2">
      <!-- 80000 -->
      <g style="fill: #262626" transform="translate(19.454844 139.759985) scale(0.11 -0.11)">
       <defs>
        <path id="ArialMT-38" d="M 1131 2484 
Q 781 2613 612 2850 
Q 444 3088 444 3419 
Q 444 3919 803 4259 
Q 1163 4600 1759 4600 
Q 2359 4600 2725 4251 
Q 3091 3903 3091 3403 
Q 3091 3084 2923 2848 
Q 2756 2613 2416 2484 
Q 2838 2347 3058 2040 
Q 3278 1734 3278 1309 
Q 3278 722 2862 322 
Q 2447 -78 1769 -78 
Q 1091 -78 675 323 
Q 259 725 259 1325 
Q 259 1772 486 2073 
Q 713 2375 1131 2484 
z
M 1019 3438 
Q 1019 3113 1228 2906 
Q 1438 2700 1772 2700 
Q 2097 2700 2305 2904 
Q 2513 3109 2513 3406 
Q 2513 3716 2298 3927 
Q 2084 4138 1766 4138 
Q 1444 4138 1231 3931 
Q 1019 3725 1019 3438 
z
M 838 1322 
Q 838 1081 952 856 
Q 1066 631 1291 507 
Q 1516 384 1775 384 
Q 2178 384 2440 643 
Q 2703 903 2703 1303 
Q 2703 1709 2433 1975 
Q 2163 2241 1756 2241 
Q 1359 2241 1098 1978 
Q 838 1716 838 1322 
z
" transform="scale(0.015625)"/>
       </defs>
       <use xlink:href="#ArialMT-38"/>
       <use xlink:href="#ArialMT-30" transform="translate(55.615234 0)"/>
       <use xlink:href="#ArialMT-30" transform="translate(111.230469 0)"/>
       <use xlink:href="#ArialMT-30" transform="translate(166.845703 0)"/>
       <use xlink:href="#ArialMT-30" transform="translate(222.460938 0)"/>
      </g>
     </g>
    </g>
    <g id="ytick_3">
     <g id="line2d_10">
      <path d="M 59.54 98.773775 
L 851.04 98.773775 
" clip-path="url(#pfd1e9cb527)" style="fill: none; stroke: #cccccc; stroke-linecap: round"/>
     </g>
     <g id="text_3">
      <!-- 100000 -->
      <g style="fill: #262626" transform="translate(13.337812 102.710572) scale(0.11 -0.11)">
       <defs>
        <path id="ArialMT-31" d="M 2384 0 
L 1822 0 
L 1822 3584 
Q 1619 3391 1289 3197 
Q 959 3003 697 2906 
L 697 3450 
Q 1169 3672 1522 3987 
Q 1875 4303 2022 4600 
L 2384 4600 
L 2384 0 
z
" transform="scale(0.015625)"/>
       </defs>
       <use xlink:href="#ArialMT-31"/>
       <use xlink:href="#ArialMT-30" transform="translate(55.615234 0)"/>
       <use xlink:href="#ArialMT-30" transform="translate(111.230469 0)"/>
       <use xlink:href="#ArialMT-30" transform="translate(166.845703 0)"/>
       <use xlink:href="#ArialMT-30" transform="translate(222.460938 0)"/>
       <use xlink:href="#ArialMT-30" transform="translate(278.076172 0)"/>
      </g>
     </g>
    </g>
    <g id="ytick_4">
     <g id="line2d_11">
      <path d="M 59.54 61.724362 
L 851.04 61.724362 
" clip-path="url(#pfd1e9cb527)" style="fill: none; stroke: #cccccc; stroke-linecap: round"/>
     </g>
     <g id="text_4">
      <!-- 120000 -->
      <g style="fill: #262626" transform="translate(13.337812 65.661159) scale(0.11 -0.11)">
       <defs>
        <path id="ArialMT-32" d="M 3222 541 
L 3222 0 
L 194 0 
Q 188 203 259 391 
Q 375 700 629 1000 
Q 884 1300 1366 1694 
Q 2113 2306 2375 2664 
Q 2638 3022 2638 3341 
Q 2638 3675 2398 3904 
Q 2159 4134 1775 4134 
Q 1369 4134 1125 3890 
Q 881 3647 878 3216 
L 300 3275 
Q 359 3922 746 4261 
Q 1134 4600 1788 4600 
Q 2447 4600 2831 4234 
Q 3216 3869 3216 3328 
Q 3216 3053 3103 2787 
Q 2991 2522 2730 2228 
Q 2469 1934 1863 1422 
Q 1356 997 1212 845 
Q 1069 694 975 541 
L 3222 541 
z
" transform="scale(0.015625)"/>
       </defs>
       <use xlink:href="#ArialMT-31"/>
       <use xlink:href="#ArialMT-32" transform="translate(55.615234 0)"/>
       <use xlink:href="#ArialMT-30" transform="translate(111.230469 0)"/>
       <use xlink:href="#ArialMT-30" transform="translate(166.845703 0)"/>
       <use xlink:href="#ArialMT-30" transform="translate(222.460938 0)"/>
       <use xlink:href="#ArialMT-30" transform="translate(278.076172 0)"/>
      </g>
     </g>
    </g>
   </g>
   <g id="line2d_12">
    <path d="M 95.517273 119.706693 
L 97.34353 74.691656 
L 99.169788 67.281774 
L 100.996045 66.91128 
L 102.822303 62.835844 
L 104.64856 62.094856 
L 106.474818 130.821517 
L 108.301075 97.514095 
L 110.127333 74.691656 
L 111.95359 67.281774 
L 113.779848 66.91128 
L 115.606105 62.835844 
L 117.432363 62.094856 
L 119.25862 145.604233 
L 121.084878 99.181318 
L 122.911135 173.724737 
L 124.737393 115.001418 
L 126.56365 177.689024 
L 128.389908 108.962363 
L 130.216165 131.636604 
L 132.042423 109.851549 
L 133.86868 109.851549 
L 135.694938 62.650597 
L 137.521195 59.871891 
L 139.347453 61.724362 
L 141.17371 59.871891 
L 142.999968 58.760409 
L 144.826225 160.498097 
L 146.652483 78.2484 
L 148.47874 59.686644 
L 150.304998 59.31615 
L 152.131255 59.31615 
L 153.957513 199.585227 
L 155.78377 153.829202 
L 157.610028 144.640948 
L 159.436285 198.473745 
L 161.262543 70.06048 
L 163.0888 71.91295 
L 164.915058 75.432645 
L 166.741315 75.06215 
L 168.567573 74.135915 
L 170.39383 130.59922 
L 172.220088 125.523451 
L 174.046345 74.321162 
L 175.872603 72.839186 
L 177.69886 74.135915 
L 179.525118 75.247397 
L 181.351375 77.099868 
L 183.177633 134.007766 
L 185.00389 130.265776 
L 186.830148 78.211351 
L 188.656405 78.396598 
L 190.482663 78.952339 
L 192.30892 81.360551 
L 194.135178 83.213021 
L 195.961435 154.792487 
L 197.787693 114.297479 
L 199.61395 81.360551 
L 201.440208 81.175304 
L 203.266465 82.101539 
L 205.092723 82.101539 
L 206.91898 84.324504 
L 208.745238 96.217365 
L 210.571495 165.35157 
L 212.397753 126.709032 
L 214.22401 95.698673 
L 216.050268 186.358587 
L 217.876525 145.863579 
L 219.702783 84.954344 
L 221.52904 187.099575 
L 223.355298 81.3976 
L 225.181555 86.176974 
L 227.007813 83.95401 
L 228.83407 78.767092 
L 230.660328 78.211351 
L 232.486585 76.914621 
L 234.312843 168.426671 
L 236.1391 165.796163 
L 237.965358 75.06215 
L 239.791615 74.506409 
L 241.617873 74.321162 
L 243.44413 71.91295 
L 245.270388 72.098197 
L 247.096645 150.939348 
L 248.922903 147.901296 
L 250.74916 65.429303 
L 252.575418 60.242385 
L 254.401675 58.389915 
L 256.227933 48.757067 
L 258.05419 46.904597 
L 259.880448 86.47337 
L 261.706705 146.938012 
L 263.532963 43.755397 
L 265.35922 47.275091 
L 267.185478 83.95401 
L 269.011735 85.80648 
L 270.837993 64.317821 
L 272.66425 173.020798 
L 274.490508 126.042143 
L 276.316765 72.098197 
L 278.143023 56.16695 
L 279.96928 56.16695 
L 281.795538 53.943985 
L 283.621795 53.573491 
L 285.448053 157.793489 
L 287.27431 123.782128 
L 289.100568 151.198694 
L 290.926825 55.240715 
L 292.753083 139.416981 
L 294.57934 165.536817 
L 296.405598 175.058516 
L 298.231855 179.83789 
L 300.058113 138.768616 
L 301.88437 104.14594 
L 303.710628 89.993064 
L 305.536885 149.272125 
L 307.363143 190.767467 
L 309.1894 141.788143 
L 311.015658 55.240715 
L 312.841915 196.991768 
L 314.668173 61.168621 
L 316.49443 60.798126 
L 318.320688 60.798126 
L 320.146945 64.132574 
L 321.973203 64.132574 
L 323.79946 166.5742 
L 327.451975 62.094856 
L 329.278233 61.168621 
L 331.10449 59.871891 
L 332.930748 60.551137 
L 334.757005 68.022762 
L 336.583263 179.059853 
L 338.40952 180.578878 
L 340.235778 179.319198 
L 342.062035 85.769431 
L 343.888293 180.541829 
L 345.71455 174.16933 
L 347.540808 143.86291 
L 349.367065 139.898623 
L 351.193323 161.95525 
L 353.01958 63.021091 
L 354.845838 65.058809 
L 356.672095 61.168621 
L 358.498353 55.240715 
L 360.32461 55.240715 
L 362.150868 162.16532 
L 363.977125 151.791485 
L 365.803383 148.568186 
L 367.62964 176.392295 
L 369.455898 173.613589 
L 371.282155 148.012444 
L 373.108413 112.185662 
L 376.760928 177.911321 
L 378.587185 47.275091 
L 380.413443 43.755397 
L 382.2397 47.645585 
L 384.065958 43.570149 
L 385.892215 43.570149 
L 387.718473 118.138262 
L 389.54473 60.798126 
L 391.370988 57.556303 
L 393.197245 43.199655 
L 395.023503 174.576874 
L 396.84976 39.494714 
L 398.676018 41.347185 
L 400.502275 188.6927 
L 402.328533 181.356916 
L 404.15479 43.384902 
L 405.981048 44.125891 
L 407.807305 42.643914 
L 409.633563 39.12422 
L 411.45982 41.902926 
L 413.286078 118.595211 
L 415.112335 150.79115 
L 416.938593 38.012738 
L 418.76485 41.717679 
L 420.591108 46.904597 
L 422.417365 46.348855 
L 424.243623 45.978361 
L 426.06988 150.729278 
L 427.896138 142.677329 
L 429.722395 47.830832 
L 431.548653 41.347185 
L 433.37491 37.642243 
L 435.201168 37.642243 
L 437.027425 41.347185 
L 438.853683 163.536148 
L 440.67994 72.283444 
L 442.506198 45.052126 
L 444.332455 39.494714 
L 446.158713 39.494714 
L 447.98497 40.420949 
L 449.811228 40.235702 
L 453.463743 170.167993 
L 455.29 41.347185 
L 457.116257 38.197985 
L 458.942515 38.197985 
L 460.768772 35.789773 
L 462.59503 39.555846 
L 464.421287 177.244431 
L 466.247545 157.348897 
L 468.073802 38.012738 
L 469.90006 37.364373 
L 471.726317 35.882396 
L 473.552575 36.808632 
L 475.378832 35.850904 
L 477.20509 131.117912 
L 479.031347 99.144269 
L 480.857605 39.494714 
L 482.683862 40.976691 
L 484.51012 38.938973 
L 486.336377 38.568479 
L 488.162635 39.000104 
L 489.988892 120.744077 
L 491.81515 133.11858 
L 493.641407 50.609538 
L 495.467665 50.609538 
L 497.293922 69.628243 
L 499.12018 69.134244 
L 500.946437 66.726033 
L 502.772695 173.020798 
L 504.598952 142.64028 
L 506.42521 53.758738 
L 508.251467 44.496385 
L 510.077725 40.791443 
L 511.903982 38.383232 
L 513.73024 38.197985 
L 515.556497 151.902633 
L 517.382755 84.398602 
L 519.209012 45.052126 
L 521.03527 45.978361 
L 522.861527 46.163608 
L 526.514042 40.420949 
L 528.3403 157.163649 
L 530.166557 168.537819 
L 531.992815 43.014408 
L 533.819072 42.829161 
L 539.297845 42.829161 
L 541.124102 159.868257 
L 542.95036 113.852886 
L 544.776617 45.052126 
L 546.602875 46.534102 
L 548.429132 46.904597 
L 550.25539 47.460338 
L 552.081647 59.871891 
L 553.907905 136.119583 
L 555.734162 162.980407 
L 557.56042 46.904597 
L 559.386677 51.535773 
L 561.212935 46.904597 
L 563.039192 51.165279 
L 564.86545 50.794785 
L 566.691707 147.864247 
L 568.517965 90.585854 
L 570.344222 54.684973 
L 572.17048 50.609538 
L 573.996737 52.462009 
L 575.822995 53.388244 
L 577.649252 57.093185 
L 579.47551 155.051833 
L 581.301767 128.820849 
L 583.128025 58.01942 
L 584.954282 58.01942 
L 586.78054 58.575162 
L 588.606797 62.280103 
L 590.433055 65.058809 
L 592.259312 125.671648 
L 594.08557 94.772438 
L 595.911827 67.281774 
L 597.738085 69.134244 
L 599.564342 73.765421 
L 601.3906 73.580174 
L 603.216857 70.986715 
L 605.043115 134.748755 
L 606.869372 157.645292 
L 608.69563 73.765421 
L 610.521887 69.628243 
L 612.348145 73.765421 
L 614.174402 77.470362 
L 616.00066 76.914621 
L 617.826917 144.085207 
L 619.653175 155.718722 
L 621.479432 76.544127 
L 623.30569 78.396598 
L 625.131947 81.360551 
L 626.958205 85.621233 
L 628.784462 93.216363 
L 632.436977 138.675992 
L 634.263235 107.109893 
L 636.089492 101.552481 
L 637.91575 109.888599 
L 639.742007 113.59354 
L 641.568265 110.814834 
L 643.394522 156.607908 
L 645.22078 183.431683 
L 647.047037 110.073846 
L 648.873295 109.332857 
L 650.699552 107.850881 
L 652.52581 109.332857 
L 654.352067 108.036128 
L 656.178325 141.3806 
L 658.004582 164.981076 
L 659.83084 106.554151 
L 661.657097 110.814834 
L 663.483355 109.332857 
L 665.309612 84.509751 
L 667.13587 116.74274 
L 668.962127 144.122256 
L 670.788385 81.3976 
L 672.614642 118.224716 
L 674.4409 113.59354 
L 676.267157 115.075516 
L 678.093415 114.149281 
L 679.919672 113.964034 
L 681.74593 118.965705 
L 683.572187 124.708364 
L 685.398445 110.814834 
L 687.224702 114.519775 
L 689.05096 112.482057 
L 690.877217 107.480387 
L 692.703475 106.739398 
L 694.529732 115.964702 
L 696.35599 110.888933 
L 698.182247 106.183657 
L 700.008505 104.701681 
L 701.834762 103.775445 
L 703.66102 100.626245 
L 705.487277 100.996739 
L 707.313535 116.890938 
L 709.139792 81.990391 
L 710.96605 101.181987 
L 714.618565 97.477045 
L 716.444822 98.773775 
L 718.27108 96.921304 
L 720.097337 76.544127 
L 721.923595 74.691656 
L 723.749852 92.290127 
L 725.57611 86.732716 
L 727.402367 85.250739 
L 729.228625 78.396598 
L 731.054882 72.839186 
L 734.707397 139.787475 
L 736.533655 67.652268 
L 738.359912 67.837515 
L 740.18617 62.280103 
L 742.012427 56.16695 
L 743.838685 54.129232 
L 745.664942 163.647297 
L 747.4912 156.422661 
L 749.317457 55.240715 
L 751.143715 58.945656 
L 752.969972 58.575162 
L 754.79623 55.796456 
L 756.622487 58.575162 
L 758.448745 191.239106 
L 760.275002 119.558495 
L 762.10126 104.479384 
L 763.927517 86.992061 
L 765.753775 93.475709 
L 767.580032 142.417983 
L 769.40629 80.804809 
L 771.232547 126.82018 
L 773.058805 160.498097 
L 774.885062 131.89595 
L 776.71132 71.91295 
L 778.537577 72.839186 
L 780.363835 132.340543 
L 782.190092 115.520109 
L 784.01635 160.461047 
L 785.842607 141.047155 
L 787.668865 62.094856 
L 789.495122 58.01942 
L 791.32138 61.724362 
L 793.147637 69.504738 
L 794.973895 69.504738 
L 796.800152 122.300152 
L 798.62641 195.991434 
L 800.452667 78.767092 
L 802.278925 75.617892 
L 804.105182 78.396598 
L 805.93144 75.617892 
L 807.757697 76.173633 
L 809.583955 123.04114 
L 813.23647 156.793155 
L 815.062727 154.792487 
L 815.062727 154.792487 
" clip-path="url(#pfd1e9cb527)" style="fill: none; stroke: #4878d0; stroke-width: 1.5; stroke-linecap: round"/>
   </g>
   <g id="patch_3">
    <path d="M 59.54 207.775 
L 59.54 27.6 
" style="fill: none; stroke: #cccccc; stroke-width: 1.25; stroke-linejoin: miter; stroke-linecap: square"/>
   </g>
   <g id="patch_4">
    <path d="M 851.04 207.775 
L 851.04 27.6 
" style="fill: none; stroke: #cccccc; stroke-width: 1.25; stroke-linejoin: miter; stroke-linecap: square"/>
   </g>
   <g id="patch_5">
    <path d="M 59.54 207.775 
L 851.04 207.775 
" style="fill: none; stroke: #cccccc; stroke-width: 1.25; stroke-linejoin: miter; stroke-linecap: square"/>
   </g>
   <g id="patch_6">
    <path d="M 59.54 27.6 
L 851.04 27.6 
" style="fill: none; stroke: #cccccc; stroke-width: 1.25; stroke-linejoin: miter; stroke-linecap: square"/>
   </g>
   <g id="text_5">
    <!-- Original -->
    <g style="fill: #262626" transform="translate(434.61625 21.6) scale(0.12 -0.12)">
     <defs>
      <path id="ArialMT-4f" d="M 309 2231 
Q 309 3372 921 4017 
Q 1534 4663 2503 4663 
Q 3138 4663 3647 4359 
Q 4156 4056 4423 3514 
Q 4691 2972 4691 2284 
Q 4691 1588 4409 1038 
Q 4128 488 3612 205 
Q 3097 -78 2500 -78 
Q 1853 -78 1343 234 
Q 834 547 571 1087 
Q 309 1628 309 2231 
z
M 934 2222 
Q 934 1394 1379 917 
Q 1825 441 2497 441 
Q 3181 441 3623 922 
Q 4066 1403 4066 2288 
Q 4066 2847 3877 3264 
Q 3688 3681 3323 3911 
Q 2959 4141 2506 4141 
Q 1863 4141 1398 3698 
Q 934 3256 934 2222 
z
" transform="scale(0.015625)"/>
      <path id="ArialMT-72" d="M 416 0 
L 416 3319 
L 922 3319 
L 922 2816 
Q 1116 3169 1280 3281 
Q 1444 3394 1641 3394 
Q 1925 3394 2219 3213 
L 2025 2691 
Q 1819 2813 1613 2813 
Q 1428 2813 1281 2702 
Q 1134 2591 1072 2394 
Q 978 2094 978 1738 
L 978 0 
L 416 0 
z
" transform="scale(0.015625)"/>
      <path id="ArialMT-69" d="M 425 3934 
L 425 4581 
L 988 4581 
L 988 3934 
L 425 3934 
z
M 425 0 
L 425 3319 
L 988 3319 
L 988 0 
L 425 0 
z
" transform="scale(0.015625)"/>
      <path id="ArialMT-67" d="M 319 -275 
L 866 -356 
Q 900 -609 1056 -725 
Q 1266 -881 1628 -881 
Q 2019 -881 2231 -725 
Q 2444 -569 2519 -288 
Q 2563 -116 2559 434 
Q 2191 0 1641 0 
Q 956 0 581 494 
Q 206 988 206 1678 
Q 206 2153 378 2554 
Q 550 2956 876 3175 
Q 1203 3394 1644 3394 
Q 2231 3394 2613 2919 
L 2613 3319 
L 3131 3319 
L 3131 450 
Q 3131 -325 2973 -648 
Q 2816 -972 2473 -1159 
Q 2131 -1347 1631 -1347 
Q 1038 -1347 672 -1080 
Q 306 -813 319 -275 
z
M 784 1719 
Q 784 1066 1043 766 
Q 1303 466 1694 466 
Q 2081 466 2343 764 
Q 2606 1063 2606 1700 
Q 2606 2309 2336 2618 
Q 2066 2928 1684 2928 
Q 1309 2928 1046 2623 
Q 784 2319 784 1719 
z
" transform="scale(0.015625)"/>
      <path id="ArialMT-6e" d="M 422 0 
L 422 3319 
L 928 3319 
L 928 2847 
Q 1294 3394 1984 3394 
Q 2284 3394 2536 3286 
Q 2788 3178 2913 3003 
Q 3038 2828 3088 2588 
Q 3119 2431 3119 2041 
L 3119 0 
L 2556 0 
L 2556 2019 
Q 2556 2363 2490 2533 
Q 2425 2703 2258 2804 
Q 2091 2906 1866 2906 
Q 1506 2906 1245 2678 
Q 984 2450 984 1813 
L 984 0 
L 422 0 
z
" transform="scale(0.015625)"/>
      <path id="ArialMT-61" d="M 2588 409 
Q 2275 144 1986 34 
Q 1697 -75 1366 -75 
Q 819 -75 525 192 
Q 231 459 231 875 
Q 231 1119 342 1320 
Q 453 1522 633 1644 
Q 813 1766 1038 1828 
Q 1203 1872 1538 1913 
Q 2219 1994 2541 2106 
Q 2544 2222 2544 2253 
Q 2544 2597 2384 2738 
Q 2169 2928 1744 2928 
Q 1347 2928 1158 2789 
Q 969 2650 878 2297 
L 328 2372 
Q 403 2725 575 2942 
Q 747 3159 1072 3276 
Q 1397 3394 1825 3394 
Q 2250 3394 2515 3294 
Q 2781 3194 2906 3042 
Q 3031 2891 3081 2659 
Q 3109 2516 3109 2141 
L 3109 1391 
Q 3109 606 3145 398 
Q 3181 191 3288 0 
L 2700 0 
Q 2613 175 2588 409 
z
M 2541 1666 
Q 2234 1541 1622 1453 
Q 1275 1403 1131 1340 
Q 988 1278 909 1158 
Q 831 1038 831 891 
Q 831 666 1001 516 
Q 1172 366 1500 366 
Q 1825 366 2078 508 
Q 2331 650 2450 897 
Q 2541 1088 2541 1459 
L 2541 1666 
z
" transform="scale(0.015625)"/>
      <path id="ArialMT-6c" d="M 409 0 
L 409 4581 
L 972 4581 
L 972 0 
L 409 0 
z
" transform="scale(0.015625)"/>
     </defs>
     <use xlink:href="#ArialMT-4f"/>
     <use xlink:href="#ArialMT-72" transform="translate(77.783203 0)"/>
     <use xlink:href="#ArialMT-69" transform="translate(111.083984 0)"/>
     <use xlink:href="#ArialMT-67" transform="translate(133.300781 0)"/>
     <use xlink:href="#ArialMT-69" transform="translate(188.916016 0)"/>
     <use xlink:href="#ArialMT-6e" transform="translate(211.132812 0)"/>
     <use xlink:href="#ArialMT-61" transform="translate(266.748047 0)"/>
     <use xlink:href="#ArialMT-6c" transform="translate(322.363281 0)"/>
    </g>
   </g>
  </g>
  <g id="axes_2">
   <g id="patch_7">
    <path d="M 59.54 415.55 
L 851.04 415.55 
L 851.04 235.375 
L 59.54 235.375 
z
" style="fill: #ffffff"/>
   </g>
   <g id="matplotlib.axis_3">
    <g id="xtick_8">
     <g id="line2d_13">
      <path d="M 95.517273 415.55 
L 95.517273 235.375 
" clip-path="url(#p527b230782)" style="fill: none; stroke: #cccccc; stroke-linecap: round"/>
     </g>
    </g>
    <g id="xtick_9">
     <g id="line2d_14">
      <path d="M 206.91898 415.55 
L 206.91898 235.375 
" clip-path="url(#p527b230782)" style="fill: none; stroke: #cccccc; stroke-linecap: round"/>
     </g>
    </g>
    <g id="xtick_10">
     <g id="line2d_15">
      <path d="M 318.320688 415.55 
L 318.320688 235.375 
" clip-path="url(#p527b230782)" style="fill: none; stroke: #cccccc; stroke-linecap: round"/>
     </g>
    </g>
    <g id="xtick_11">
     <g id="line2d_16">
      <path d="M 426.06988 415.55 
L 426.06988 235.375 
" clip-path="url(#p527b230782)" style="fill: none; stroke: #cccccc; stroke-linecap: round"/>
     </g>
    </g>
    <g id="xtick_12">
     <g id="line2d_17">
      <path d="M 537.471587 415.55 
L 537.471587 235.375 
" clip-path="url(#p527b230782)" style="fill: none; stroke: #cccccc; stroke-linecap: round"/>
     </g>
    </g>
    <g id="xtick_13">
     <g id="line2d_18">
      <path d="M 648.873295 415.55 
L 648.873295 235.375 
" clip-path="url(#p527b230782)" style="fill: none; stroke: #cccccc; stroke-linecap: round"/>
     </g>
    </g>
    <g id="xtick_14">
     <g id="line2d_19">
      <path d="M 762.10126 415.55 
L 762.10126 235.375 
" clip-path="url(#p527b230782)" style="fill: none; stroke: #cccccc; stroke-linecap: round"/>
     </g>
    </g>
   </g>
   <g id="matplotlib.axis_4">
    <g id="ytick_5">
     <g id="line2d_20">
      <path d="M 59.54 394.414337 
L 851.04 394.414337 
" clip-path="url(#p527b230782)" style="fill: none; stroke: #cccccc; stroke-linecap: round"/>
     </g>
     <g id="text_6">
      <!-- 90000 -->
      <g style="fill: #262626" transform="translate(19.454844 398.351134) scale(0.11 -0.11)">
       <defs>
        <path id="ArialMT-39" d="M 350 1059 
L 891 1109 
Q 959 728 1153 556 
Q 1347 384 1650 384 
Q 1909 384 2104 503 
Q 2300 622 2425 820 
Q 2550 1019 2634 1356 
Q 2719 1694 2719 2044 
Q 2719 2081 2716 2156 
Q 2547 1888 2255 1720 
Q 1963 1553 1622 1553 
Q 1053 1553 659 1965 
Q 266 2378 266 3053 
Q 266 3750 677 4175 
Q 1088 4600 1706 4600 
Q 2153 4600 2523 4359 
Q 2894 4119 3086 3673 
Q 3278 3228 3278 2384 
Q 3278 1506 3087 986 
Q 2897 466 2520 194 
Q 2144 -78 1638 -78 
Q 1100 -78 759 220 
Q 419 519 350 1059 
z
M 2653 3081 
Q 2653 3566 2395 3850 
Q 2138 4134 1775 4134 
Q 1400 4134 1122 3828 
Q 844 3522 844 3034 
Q 844 2597 1108 2323 
Q 1372 2050 1759 2050 
Q 2150 2050 2401 2323 
Q 2653 2597 2653 3081 
z
" transform="scale(0.015625)"/>
       </defs>
       <use xlink:href="#ArialMT-39"/>
       <use xlink:href="#ArialMT-30" transform="translate(55.615234 0)"/>
       <use xlink:href="#ArialMT-30" transform="translate(111.230469 0)"/>
       <use xlink:href="#ArialMT-30" transform="translate(166.845703 0)"/>
       <use xlink:href="#ArialMT-30" transform="translate(222.460938 0)"/>
      </g>
     </g>
    </g>
    <g id="ytick_6">
     <g id="line2d_21">
      <path d="M 59.54 367.966542 
L 851.04 367.966542 
" clip-path="url(#p527b230782)" style="fill: none; stroke: #cccccc; stroke-linecap: round"/>
     </g>
     <g id="text_7">
      <!-- 95000 -->
      <g style="fill: #262626" transform="translate(19.454844 371.903339) scale(0.11 -0.11)">
       <defs>
        <path id="ArialMT-35" d="M 266 1200 
L 856 1250 
Q 922 819 1161 601 
Q 1400 384 1738 384 
Q 2144 384 2425 690 
Q 2706 997 2706 1503 
Q 2706 1984 2436 2262 
Q 2166 2541 1728 2541 
Q 1456 2541 1237 2417 
Q 1019 2294 894 2097 
L 366 2166 
L 809 4519 
L 3088 4519 
L 3088 3981 
L 1259 3981 
L 1013 2750 
Q 1425 3038 1878 3038 
Q 2478 3038 2890 2622 
Q 3303 2206 3303 1553 
Q 3303 931 2941 478 
Q 2500 -78 1738 -78 
Q 1113 -78 717 272 
Q 322 622 266 1200 
z
" transform="scale(0.015625)"/>
       </defs>
       <use xlink:href="#ArialMT-39"/>
       <use xlink:href="#ArialMT-35" transform="translate(55.615234 0)"/>
       <use xlink:href="#ArialMT-30" transform="translate(111.230469 0)"/>
       <use xlink:href="#ArialMT-30" transform="translate(166.845703 0)"/>
       <use xlink:href="#ArialMT-30" transform="translate(222.460938 0)"/>
      </g>
     </g>
    </g>
    <g id="ytick_7">
     <g id="line2d_22">
      <path d="M 59.54 341.518747 
L 851.04 341.518747 
" clip-path="url(#p527b230782)" style="fill: none; stroke: #cccccc; stroke-linecap: round"/>
     </g>
     <g id="text_8">
      <!-- 100000 -->
      <g style="fill: #262626" transform="translate(13.337812 345.455544) scale(0.11 -0.11)">
       <use xlink:href="#ArialMT-31"/>
       <use xlink:href="#ArialMT-30" transform="translate(55.615234 0)"/>
       <use xlink:href="#ArialMT-30" transform="translate(111.230469 0)"/>
       <use xlink:href="#ArialMT-30" transform="translate(166.845703 0)"/>
       <use xlink:href="#ArialMT-30" transform="translate(222.460938 0)"/>
       <use xlink:href="#ArialMT-30" transform="translate(278.076172 0)"/>
      </g>
     </g>
    </g>
    <g id="ytick_8">
     <g id="line2d_23">
      <path d="M 59.54 315.070953 
L 851.04 315.070953 
" clip-path="url(#p527b230782)" style="fill: none; stroke: #cccccc; stroke-linecap: round"/>
     </g>
     <g id="text_9">
      <!-- 105000 -->
      <g style="fill: #262626" transform="translate(13.337812 319.007749) scale(0.11 -0.11)">
       <use xlink:href="#ArialMT-31"/>
       <use xlink:href="#ArialMT-30" transform="translate(55.615234 0)"/>
       <use xlink:href="#ArialMT-35" transform="translate(111.230469 0)"/>
       <use xlink:href="#ArialMT-30" transform="translate(166.845703 0)"/>
       <use xlink:href="#ArialMT-30" transform="translate(222.460938 0)"/>
       <use xlink:href="#ArialMT-30" transform="translate(278.076172 0)"/>
      </g>
     </g>
    </g>
    <g id="ytick_9">
     <g id="line2d_24">
      <path d="M 59.54 288.623158 
L 851.04 288.623158 
" clip-path="url(#p527b230782)" style="fill: none; stroke: #cccccc; stroke-linecap: round"/>
     </g>
     <g id="text_10">
      <!-- 110000 -->
      <g style="fill: #262626" transform="translate(14.149062 292.559955) scale(0.11 -0.11)">
       <use xlink:href="#ArialMT-31"/>
       <use xlink:href="#ArialMT-31" transform="translate(48.240234 0)"/>
       <use xlink:href="#ArialMT-30" transform="translate(103.855469 0)"/>
       <use xlink:href="#ArialMT-30" transform="translate(159.470703 0)"/>
       <use xlink:href="#ArialMT-30" transform="translate(215.085938 0)"/>
       <use xlink:href="#ArialMT-30" transform="translate(270.701172 0)"/>
      </g>
     </g>
    </g>
    <g id="ytick_10">
     <g id="line2d_25">
      <path d="M 59.54 262.175363 
L 851.04 262.175363 
" clip-path="url(#p527b230782)" style="fill: none; stroke: #cccccc; stroke-linecap: round"/>
     </g>
     <g id="text_11">
      <!-- 115000 -->
      <g style="fill: #262626" transform="translate(14.149062 266.11216) scale(0.11 -0.11)">
       <use xlink:href="#ArialMT-31"/>
       <use xlink:href="#ArialMT-31" transform="translate(48.240234 0)"/>
       <use xlink:href="#ArialMT-35" transform="translate(103.855469 0)"/>
       <use xlink:href="#ArialMT-30" transform="translate(159.470703 0)"/>
       <use xlink:href="#ArialMT-30" transform="translate(215.085938 0)"/>
       <use xlink:href="#ArialMT-30" transform="translate(270.701172 0)"/>
      </g>
     </g>
    </g>
    <g id="ytick_11">
     <g id="line2d_26">
      <path d="M 59.54 235.727568 
L 851.04 235.727568 
" clip-path="url(#p527b230782)" style="fill: none; stroke: #cccccc; stroke-linecap: round"/>
     </g>
     <g id="text_12">
      <!-- 120000 -->
      <g style="fill: #262626" transform="translate(13.337812 239.664365) scale(0.11 -0.11)">
       <use xlink:href="#ArialMT-31"/>
       <use xlink:href="#ArialMT-32" transform="translate(55.615234 0)"/>
       <use xlink:href="#ArialMT-30" transform="translate(111.230469 0)"/>
       <use xlink:href="#ArialMT-30" transform="translate(166.845703 0)"/>
       <use xlink:href="#ArialMT-30" transform="translate(222.460938 0)"/>
       <use xlink:href="#ArialMT-30" transform="translate(278.076172 0)"/>
      </g>
     </g>
    </g>
   </g>
   <g id="line2d_27">
    <path d="M 122.911135 322.01438 
L 124.737393 318.408664 
L 126.56365 323.97328 
L 128.389908 334.406054 
L 130.216165 342.435604 
L 132.042423 352.819008 
L 133.86868 356.417672 
L 135.694938 352.307684 
L 137.521195 351.124586 
L 139.347453 351.530119 
L 141.17371 352.24421 
L 142.999968 355.812899 
L 144.826225 362.056341 
L 146.652483 361.682546 
L 148.47874 357.03655 
L 150.304998 351.04348 
L 153.957513 337.733186 
L 155.78377 334.138049 
L 157.610028 335.264725 
L 159.436285 333.693726 
L 161.262543 330.69102 
L 163.0888 329.969877 
L 164.915058 331.768327 
L 166.741315 333.813623 
L 168.567573 339.353554 
L 170.39383 346.513854 
L 172.220088 345.390704 
L 174.046345 341.76383 
L 175.872603 342.96985 
L 179.525118 347.395447 
L 181.351375 343.666308 
L 183.177633 339.295369 
L 185.00389 338.990338 
L 186.830148 333.245877 
L 188.656405 333.88944 
L 190.482663 342.943402 
L 192.30892 346.915861 
L 195.961435 358.378335 
L 197.787693 356.609859 
L 199.61395 352.517504 
L 201.440208 350.750791 
L 205.092723 351.605936 
L 206.91898 356.172589 
L 208.745238 364.82807 
L 210.571495 366.243909 
L 212.397753 360.785084 
L 214.22401 357.946354 
L 216.050268 357.452662 
L 217.876525 356.817915 
L 219.702783 359.802989 
L 221.52904 366.192777 
L 223.355298 365.018494 
L 225.181555 358.1932 
L 227.007813 354.527536 
L 228.83407 351.891572 
L 230.660328 348.673757 
L 232.486585 347.206786 
L 234.312843 350.394627 
L 236.1391 350.87774 
L 239.791615 335.107802 
L 241.617873 332.602314 
L 243.44413 326.323608 
L 245.270388 321.808087 
L 247.096645 325.055877 
L 248.922903 321.53832 
L 250.74916 314.86466 
L 252.575418 312.235749 
L 254.401675 309.379387 
L 256.227933 306.752239 
L 258.05419 309.340597 
L 259.880448 315.358352 
L 261.706705 316.768901 
L 263.532963 310.687671 
L 265.35922 308.488978 
L 267.185478 315.883781 
L 269.011735 325.010034 
L 270.837993 334.940299 
L 272.66425 343.249315 
L 274.490508 344.195264 
L 276.316765 339.2125 
L 278.143023 340.44673 
L 281.795538 360.829164 
L 283.621795 365.106654 
L 285.448053 372.557879 
L 287.27431 378.496291 
L 289.100568 373.192626 
L 290.926825 369.904284 
L 292.753083 371.517599 
L 294.57934 371.376544 
L 296.405598 374.276986 
L 298.231855 380.458717 
L 300.058113 377.517722 
L 301.88437 369.151403 
L 303.710628 365.482212 
L 305.536885 365.109005 
L 307.363143 365.881869 
L 309.1894 372.400368 
L 311.015658 384.398851 
L 312.841915 391.467465 
L 314.668173 390.682847 
L 316.49443 390.270262 
L 318.320688 397.326533 
L 320.146945 403.197944 
L 321.973203 402.189401 
L 323.79946 400.34569 
L 325.625718 394.162778 
L 327.451975 385.095592 
L 329.278233 379.542437 
L 331.10449 375.843272 
L 334.757005 363.87829 
L 336.583263 362.99317 
L 338.40952 367.910697 
L 340.235778 371.371831 
L 342.062035 375.74277 
L 343.888293 385.244581 
L 347.540808 398.115841 
L 349.367065 407.360227 
L 351.193323 407.097513 
L 353.01958 398.103499 
L 354.845838 394.099303 
L 358.498353 390.960831 
L 360.32461 392.925608 
L 362.150868 395.322365 
L 363.977125 389.196175 
L 365.803383 376.87591 
L 367.62964 370.112327 
L 369.455898 367.68442 
L 371.282155 358.857909 
L 373.108413 352.924787 
L 374.93467 355.400301 
L 376.760928 352.591545 
L 378.587185 342.39093 
L 380.413443 335.813663 
L 384.065958 331.458593 
L 385.892215 333.556785 
L 387.718473 341.119091 
L 389.54473 339.757911 
L 391.370988 328.611047 
L 393.197245 318.534438 
L 395.023503 307.50747 
L 396.84976 295.24451 
L 398.676018 289.299627 
L 400.502275 290.880024 
L 402.328533 287.725684 
L 404.15479 276.621136 
L 405.981048 269.663603 
L 407.807305 268.914249 
L 409.633563 268.323581 
L 411.45982 273.733037 
L 413.286078 280.808704 
L 415.112335 278.696994 
L 416.938593 274.204984 
L 418.76485 272.331598 
L 420.591108 271.339806 
L 422.417365 264.814253 
L 424.243623 261.59702 
L 426.06988 270.903699 
L 427.896138 270.022106 
L 429.722395 256.196962 
L 431.548653 249.137164 
L 435.201168 247.949923 
L 437.027425 254.37612 
L 438.853683 266.443367 
L 440.67994 268.102525 
L 442.506198 258.8696 
L 444.332455 253.370222 
L 446.158713 253.035217 
L 447.98497 252.275548 
L 449.811228 255.783672 
L 451.637485 262.348014 
L 453.463743 259.584519 
L 455.29 249.450906 
L 457.116257 244.187795 
L 458.942515 243.632391 
L 460.768772 243.564773 
L 462.59503 247.58422 
L 464.421287 255.90646 
L 466.247545 254.89968 
L 468.073802 248.494025 
L 469.90006 248.632141 
L 473.552575 253.918762 
L 475.378832 261.525147 
L 477.20509 272.709038 
L 479.031347 275.085232 
L 480.857605 266.60725 
L 482.683862 260.600074 
L 486.336377 260.591258 
L 488.162635 266.117084 
L 489.988892 273.776983 
L 491.81515 269.620006 
L 493.641407 258.02882 
L 495.467665 253.116582 
L 497.293922 253.791001 
L 499.12018 254.293509 
L 500.946437 260.23721 
L 502.772695 272.279508 
L 504.598952 274.401239 
L 506.42521 267.528338 
L 508.251467 265.006982 
L 511.903982 265.527122 
L 513.73024 271.484929 
L 515.556497 280.819854 
L 517.382755 280.779918 
L 519.209012 273.057162 
L 521.03527 268.760277 
L 522.861527 268.434087 
L 524.687785 267.81991 
L 526.514042 270.543445 
L 528.3403 278.312044 
L 530.166557 276.890916 
L 531.992815 266.553355 
L 533.819072 261.89149 
L 535.64533 261.882674 
L 537.471587 262.676108 
L 539.297845 268.362384 
L 541.124102 276.065745 
L 542.95036 273.932289 
L 544.776617 267.697663 
L 546.602875 266.442274 
L 548.429132 267.147548 
L 550.25539 268.020326 
L 552.081647 273.854709 
L 553.907905 283.375915 
L 555.734162 282.864591 
L 557.56042 272.88672 
L 559.386677 268.367673 
L 561.212935 270.033884 
L 563.039192 272.017469 
L 564.86545 277.017865 
L 566.691707 283.432337 
L 568.517965 281.498122 
L 570.344222 274.963753 
L 572.17048 274.202057 
L 573.996737 276.855652 
L 575.822995 279.288849 
L 577.649252 284.588987 
L 579.47551 293.396103 
L 581.301767 295.081709 
L 583.128025 287.671625 
L 584.954282 284.507294 
L 588.606797 289.682246 
L 590.433055 295.532498 
L 592.259312 304.947913 
L 594.08557 306.547123 
L 595.911827 302.572901 
L 597.738085 303.262307 
L 599.564342 306.198012 
L 601.3906 309.803728 
L 603.216857 314.693043 
L 605.043115 321.52539 
L 606.869372 323.126364 
L 608.69563 319.547095 
L 610.521887 320.717851 
L 614.174402 330.961964 
L 616.00066 337.937129 
L 617.826917 348.059581 
L 619.653175 352.95066 
L 621.479432 352.901291 
L 623.30569 355.524912 
L 625.131947 359.368658 
L 626.958205 362.912663 
L 628.784462 367.770241 
L 630.61072 375.470076 
L 632.436977 378.601495 
L 634.263235 375.031042 
L 636.089492 374.495034 
L 637.91575 376.895906 
L 639.742007 379.649415 
L 641.568265 384.866683 
L 643.394522 388.252001 
L 645.22078 387.234642 
L 647.047037 383.999195 
L 648.873295 383.828166 
L 650.699552 387.363355 
L 654.352067 393.754905 
L 656.178325 396.840481 
L 658.004582 398.122318 
L 659.83084 396.755848 
L 661.657097 395.861913 
L 663.483355 396.399685 
L 665.309612 396.531924 
L 667.13587 396.494897 
L 668.962127 396.611267 
L 670.788385 394.215097 
L 672.614642 388.068629 
L 674.4409 384.022117 
L 678.093415 382.567488 
L 679.919672 382.600988 
L 681.74593 381.721158 
L 683.572187 378.568581 
L 685.398445 373.531158 
L 687.224702 369.974811 
L 689.05096 368.969795 
L 690.877217 367.806092 
L 692.703475 366.83634 
L 694.529732 364.456038 
L 696.35599 359.988124 
L 698.182247 357.775325 
L 700.008505 356.459988 
L 701.834762 353.215725 
L 703.66102 349.530666 
L 705.487277 347.109811 
L 707.313535 347.92793 
L 709.139792 346.714857 
L 716.444822 325.909259 
L 718.27108 325.805231 
L 720.097337 330.842654 
L 721.923595 330.317225 
L 723.749852 324.955375 
L 727.402367 315.624593 
L 729.228625 311.1461 
L 731.054882 313.30729 
L 732.88114 318.502924 
L 734.707397 318.795613 
L 736.533655 318.442976 
L 738.359912 318.314263 
L 740.18617 319.998106 
L 742.012427 321.255258 
L 743.838685 321.796556 
L 745.664942 326.156916 
L 747.4912 331.816744 
L 749.317457 334.318705 
L 751.143715 333.260794 
L 752.969972 334.505603 
L 754.79623 338.116609 
L 756.622487 343.46259 
L 758.448745 350.614073 
L 760.275002 351.793645 
L 762.10126 345.835838 
L 763.927517 341.662376 
L 765.753775 341.45961 
L 767.580032 341.882775 
L 769.40629 345.373884 
L 771.232547 355.272412 
L 773.058805 357.984192 
L 774.885062 350.099223 
L 776.71132 347.355705 
L 778.537577 349.25113 
L 780.363835 350.882078 
L 782.190092 354.919774 
L 784.01635 362.009547 
L 785.842607 364.259848 
L 787.668865 364.297351 
L 787.668865 364.297351 
" clip-path="url(#p527b230782)" style="fill: none; stroke: #4878d0; stroke-width: 1.5; stroke-linecap: round"/>
   </g>
   <g id="patch_8">
    <path d="M 59.54 415.55 
L 59.54 235.375 
" style="fill: none; stroke: #cccccc; stroke-width: 1.25; stroke-linejoin: miter; stroke-linecap: square"/>
   </g>
   <g id="patch_9">
    <path d="M 851.04 415.55 
L 851.04 235.375 
" style="fill: none; stroke: #cccccc; stroke-width: 1.25; stroke-linejoin: miter; stroke-linecap: square"/>
   </g>
   <g id="patch_10">
    <path d="M 59.54 415.55 
L 851.04 415.55 
" style="fill: none; stroke: #cccccc; stroke-width: 1.25; stroke-linejoin: miter; stroke-linecap: square"/>
   </g>
   <g id="patch_11">
    <path d="M 59.54 235.375 
L 851.04 235.375 
" style="fill: none; stroke: #cccccc; stroke-width: 1.25; stroke-linejoin: miter; stroke-linecap: square"/>
   </g>
   <g id="text_13">
    <!-- Trend -->
    <g style="fill: #262626" transform="translate(439.842813 229.375) scale(0.12 -0.12)">
     <defs>
      <path id="ArialMT-54" d="M 1659 0 
L 1659 4041 
L 150 4041 
L 150 4581 
L 3781 4581 
L 3781 4041 
L 2266 4041 
L 2266 0 
L 1659 0 
z
" transform="scale(0.015625)"/>
      <path id="ArialMT-65" d="M 2694 1069 
L 3275 997 
Q 3138 488 2766 206 
Q 2394 -75 1816 -75 
Q 1088 -75 661 373 
Q 234 822 234 1631 
Q 234 2469 665 2931 
Q 1097 3394 1784 3394 
Q 2450 3394 2872 2941 
Q 3294 2488 3294 1666 
Q 3294 1616 3291 1516 
L 816 1516 
Q 847 969 1125 678 
Q 1403 388 1819 388 
Q 2128 388 2347 550 
Q 2566 713 2694 1069 
z
M 847 1978 
L 2700 1978 
Q 2663 2397 2488 2606 
Q 2219 2931 1791 2931 
Q 1403 2931 1139 2672 
Q 875 2413 847 1978 
z
" transform="scale(0.015625)"/>
      <path id="ArialMT-64" d="M 2575 0 
L 2575 419 
Q 2259 -75 1647 -75 
Q 1250 -75 917 144 
Q 584 363 401 755 
Q 219 1147 219 1656 
Q 219 2153 384 2558 
Q 550 2963 881 3178 
Q 1213 3394 1622 3394 
Q 1922 3394 2156 3267 
Q 2391 3141 2538 2938 
L 2538 4581 
L 3097 4581 
L 3097 0 
L 2575 0 
z
M 797 1656 
Q 797 1019 1065 703 
Q 1334 388 1700 388 
Q 2069 388 2326 689 
Q 2584 991 2584 1609 
Q 2584 2291 2321 2609 
Q 2059 2928 1675 2928 
Q 1300 2928 1048 2622 
Q 797 2316 797 1656 
z
" transform="scale(0.015625)"/>
     </defs>
     <use xlink:href="#ArialMT-54"/>
     <use xlink:href="#ArialMT-72" transform="translate(57.333984 0)"/>
     <use xlink:href="#ArialMT-65" transform="translate(90.634766 0)"/>
     <use xlink:href="#ArialMT-6e" transform="translate(146.25 0)"/>
     <use xlink:href="#ArialMT-64" transform="translate(201.865234 0)"/>
    </g>
   </g>
  </g>
  <g id="axes_3">
   <g id="patch_12">
    <path d="M 59.54 623.325 
L 851.04 623.325 
L 851.04 443.15 
L 59.54 443.15 
z
" style="fill: #ffffff"/>
   </g>
   <g id="matplotlib.axis_5">
    <g id="xtick_15">
     <g id="line2d_28">
      <path d="M 95.517273 623.325 
L 95.517273 443.15 
" clip-path="url(#p376f25da03)" style="fill: none; stroke: #cccccc; stroke-linecap: round"/>
     </g>
    </g>
    <g id="xtick_16">
     <g id="line2d_29">
      <path d="M 206.91898 623.325 
L 206.91898 443.15 
" clip-path="url(#p376f25da03)" style="fill: none; stroke: #cccccc; stroke-linecap: round"/>
     </g>
    </g>
    <g id="xtick_17">
     <g id="line2d_30">
      <path d="M 318.320688 623.325 
L 318.320688 443.15 
" clip-path="url(#p376f25da03)" style="fill: none; stroke: #cccccc; stroke-linecap: round"/>
     </g>
    </g>
    <g id="xtick_18">
     <g id="line2d_31">
      <path d="M 426.06988 623.325 
L 426.06988 443.15 
" clip-path="url(#p376f25da03)" style="fill: none; stroke: #cccccc; stroke-linecap: round"/>
     </g>
    </g>
    <g id="xtick_19">
     <g id="line2d_32">
      <path d="M 537.471587 623.325 
L 537.471587 443.15 
" clip-path="url(#p376f25da03)" style="fill: none; stroke: #cccccc; stroke-linecap: round"/>
     </g>
    </g>
    <g id="xtick_20">
     <g id="line2d_33">
      <path d="M 648.873295 623.325 
L 648.873295 443.15 
" clip-path="url(#p376f25da03)" style="fill: none; stroke: #cccccc; stroke-linecap: round"/>
     </g>
    </g>
    <g id="xtick_21">
     <g id="line2d_34">
      <path d="M 762.10126 623.325 
L 762.10126 443.15 
" clip-path="url(#p376f25da03)" style="fill: none; stroke: #cccccc; stroke-linecap: round"/>
     </g>
    </g>
   </g>
   <g id="matplotlib.axis_6">
    <g id="ytick_12">
     <g id="line2d_35">
      <path d="M 59.54 612.072255 
L 851.04 612.072255 
" clip-path="url(#p376f25da03)" style="fill: none; stroke: #cccccc; stroke-linecap: round"/>
     </g>
     <g id="text_14">
      <!-- −10000 -->
      <g style="fill: #262626" transform="translate(13.030156 616.009052) scale(0.11 -0.11)">
       <defs>
        <path id="ArialMT-2212" d="M 3381 1997 
L 356 1997 
L 356 2522 
L 3381 2522 
L 3381 1997 
z
" transform="scale(0.015625)"/>
       </defs>
       <use xlink:href="#ArialMT-2212"/>
       <use xlink:href="#ArialMT-31" transform="translate(58.398438 0)"/>
       <use xlink:href="#ArialMT-30" transform="translate(114.013672 0)"/>
       <use xlink:href="#ArialMT-30" transform="translate(169.628906 0)"/>
       <use xlink:href="#ArialMT-30" transform="translate(225.244141 0)"/>
       <use xlink:href="#ArialMT-30" transform="translate(280.859375 0)"/>
      </g>
     </g>
    </g>
    <g id="ytick_13">
     <g id="line2d_36">
      <path d="M 59.54 587.363126 
L 851.04 587.363126 
" clip-path="url(#p376f25da03)" style="fill: none; stroke: #cccccc; stroke-linecap: round"/>
     </g>
     <g id="text_15">
      <!-- −7500 -->
      <g style="fill: #262626" transform="translate(19.147187 591.299923) scale(0.11 -0.11)">
       <defs>
        <path id="ArialMT-37" d="M 303 3981 
L 303 4522 
L 3269 4522 
L 3269 4084 
Q 2831 3619 2401 2847 
Q 1972 2075 1738 1259 
Q 1569 684 1522 0 
L 944 0 
Q 953 541 1156 1306 
Q 1359 2072 1739 2783 
Q 2119 3494 2547 3981 
L 303 3981 
z
" transform="scale(0.015625)"/>
       </defs>
       <use xlink:href="#ArialMT-2212"/>
       <use xlink:href="#ArialMT-37" transform="translate(58.398438 0)"/>
       <use xlink:href="#ArialMT-35" transform="translate(114.013672 0)"/>
       <use xlink:href="#ArialMT-30" transform="translate(169.628906 0)"/>
       <use xlink:href="#ArialMT-30" transform="translate(225.244141 0)"/>
      </g>
     </g>
    </g>
    <g id="ytick_14">
     <g id="line2d_37">
      <path d="M 59.54 562.653998 
L 851.04 562.653998 
" clip-path="url(#p376f25da03)" style="fill: none; stroke: #cccccc; stroke-linecap: round"/>
     </g>
     <g id="text_16">
      <!-- −5000 -->
      <g style="fill: #262626" transform="translate(19.147187 566.590795) scale(0.11 -0.11)">
       <use xlink:href="#ArialMT-2212"/>
       <use xlink:href="#ArialMT-35" transform="translate(58.398438 0)"/>
       <use xlink:href="#ArialMT-30" transform="translate(114.013672 0)"/>
       <use xlink:href="#ArialMT-30" transform="translate(169.628906 0)"/>
       <use xlink:href="#ArialMT-30" transform="translate(225.244141 0)"/>
      </g>
     </g>
    </g>
    <g id="ytick_15">
     <g id="line2d_38">
      <path d="M 59.54 537.944869 
L 851.04 537.944869 
" clip-path="url(#p376f25da03)" style="fill: none; stroke: #cccccc; stroke-linecap: round"/>
     </g>
     <g id="text_17">
      <!-- −2500 -->
      <g style="fill: #262626" transform="translate(19.147187 541.881666) scale(0.11 -0.11)">
       <use xlink:href="#ArialMT-2212"/>
       <use xlink:href="#ArialMT-32" transform="translate(58.398438 0)"/>
       <use xlink:href="#ArialMT-35" transform="translate(114.013672 0)"/>
       <use xlink:href="#ArialMT-30" transform="translate(169.628906 0)"/>
       <use xlink:href="#ArialMT-30" transform="translate(225.244141 0)"/>
      </g>
     </g>
    </g>
    <g id="ytick_16">
     <g id="line2d_39">
      <path d="M 59.54 513.235741 
L 851.04 513.235741 
" clip-path="url(#p376f25da03)" style="fill: none; stroke: #cccccc; stroke-linecap: round"/>
     </g>
     <g id="text_18">
      <!-- 0 -->
      <g style="fill: #262626" transform="translate(43.922969 517.172538) scale(0.11 -0.11)">
       <use xlink:href="#ArialMT-30"/>
      </g>
     </g>
    </g>
    <g id="ytick_17">
     <g id="line2d_40">
      <path d="M 59.54 488.526612 
L 851.04 488.526612 
" clip-path="url(#p376f25da03)" style="fill: none; stroke: #cccccc; stroke-linecap: round"/>
     </g>
     <g id="text_19">
      <!-- 2500 -->
      <g style="fill: #262626" transform="translate(25.571875 492.463409) scale(0.11 -0.11)">
       <use xlink:href="#ArialMT-32"/>
       <use xlink:href="#ArialMT-35" transform="translate(55.615234 0)"/>
       <use xlink:href="#ArialMT-30" transform="translate(111.230469 0)"/>
       <use xlink:href="#ArialMT-30" transform="translate(166.845703 0)"/>
      </g>
     </g>
    </g>
    <g id="ytick_18">
     <g id="line2d_41">
      <path d="M 59.54 463.817484 
L 851.04 463.817484 
" clip-path="url(#p376f25da03)" style="fill: none; stroke: #cccccc; stroke-linecap: round"/>
     </g>
     <g id="text_20">
      <!-- 5000 -->
      <g style="fill: #262626" transform="translate(25.571875 467.754281) scale(0.11 -0.11)">
       <use xlink:href="#ArialMT-35"/>
       <use xlink:href="#ArialMT-30" transform="translate(55.615234 0)"/>
       <use xlink:href="#ArialMT-30" transform="translate(111.230469 0)"/>
       <use xlink:href="#ArialMT-30" transform="translate(166.845703 0)"/>
      </g>
     </g>
    </g>
   </g>
   <g id="line2d_42">
    <path d="M 95.517273 467.526723 
L 97.34353 515.474183 
L 99.169788 513.681728 
L 100.996045 541.867376 
L 102.822303 556.39832 
L 104.64856 535.663243 
L 106.474818 468.82203 
L 108.301075 513.143069 
L 110.127333 512.477295 
L 111.95359 466.475761 
L 113.779848 478.959639 
L 115.606105 490.267083 
L 117.432363 510.660628 
L 119.25862 465.085186 
L 121.084878 578.776279 
L 122.911135 483.97304 
L 124.737393 608.119355 
L 126.56365 615.135227 
L 128.389908 586.453124 
L 130.216165 503.022942 
L 132.042423 552.944203 
L 133.86868 451.339773 
L 137.521195 474.388997 
L 139.347453 457.215329 
L 141.17371 517.859218 
L 144.826225 566.87856 
L 146.652483 453.758522 
L 148.47874 505.933494 
L 150.304998 467.526723 
L 152.131255 515.474183 
L 153.957513 513.681728 
L 155.78377 541.867376 
L 157.610028 556.39832 
L 159.436285 535.663243 
L 161.262543 468.82203 
L 163.0888 513.143069 
L 164.915058 512.477295 
L 166.741315 466.475761 
L 168.567573 478.959639 
L 170.39383 490.267083 
L 172.220088 510.660628 
L 174.046345 465.085186 
L 175.872603 578.776279 
L 177.69886 483.97304 
L 179.525118 608.119355 
L 181.351375 615.135227 
L 183.177633 586.453124 
L 185.00389 503.022942 
L 186.830148 552.944203 
L 188.656405 451.339773 
L 192.30892 474.388997 
L 194.135178 457.215329 
L 195.961435 517.859218 
L 199.61395 566.87856 
L 201.440208 453.758522 
L 203.266465 505.933494 
L 205.092723 467.526723 
L 206.91898 515.474183 
L 208.745238 513.681728 
L 210.571495 541.867376 
L 212.397753 556.39832 
L 214.22401 535.663243 
L 216.050268 468.82203 
L 217.876525 513.143069 
L 219.702783 512.477295 
L 221.52904 466.475761 
L 223.355298 478.959639 
L 225.181555 490.267083 
L 227.007813 510.660628 
L 228.83407 465.085186 
L 230.660328 578.776279 
L 232.486585 483.97304 
L 234.312843 608.119355 
L 236.1391 615.135227 
L 237.965358 586.453124 
L 239.791615 503.022942 
L 241.617873 552.944203 
L 243.44413 451.339773 
L 247.096645 474.388997 
L 248.922903 457.215329 
L 250.74916 517.859218 
L 254.401675 566.87856 
L 256.227933 453.758522 
L 258.05419 505.933494 
L 259.880448 467.526723 
L 261.706705 515.474183 
L 263.532963 513.681728 
L 265.35922 541.867376 
L 267.185478 556.39832 
L 269.011735 535.663243 
L 270.837993 468.82203 
L 272.66425 513.143069 
L 274.490508 512.477295 
L 276.316765 466.475761 
L 278.143023 478.959639 
L 279.96928 490.267083 
L 281.795538 510.660628 
L 283.621795 465.085186 
L 285.448053 578.776279 
L 287.27431 483.97304 
L 289.100568 608.119355 
L 290.926825 615.135227 
L 292.753083 586.453124 
L 294.57934 503.022942 
L 296.405598 552.944203 
L 298.231855 451.339773 
L 301.88437 474.388997 
L 303.710628 457.215329 
L 305.536885 517.859218 
L 309.1894 566.87856 
L 311.015658 453.758522 
L 312.841915 505.933494 
L 314.668173 467.526723 
L 316.49443 515.474183 
L 318.320688 513.681728 
L 320.146945 541.867376 
L 321.973203 556.39832 
L 323.79946 535.663243 
L 325.625718 468.82203 
L 327.451975 513.143069 
L 329.278233 512.477295 
L 331.10449 466.475761 
L 332.930748 478.959639 
L 334.757005 490.267083 
L 336.583263 510.660628 
L 338.40952 465.085186 
L 340.235778 578.776279 
L 342.062035 483.97304 
L 343.888293 608.119355 
L 345.71455 615.135227 
L 347.540808 586.453124 
L 349.367065 503.022942 
L 351.193323 552.944203 
L 353.01958 451.339773 
L 356.672095 474.388997 
L 358.498353 457.215329 
L 360.32461 517.859218 
L 363.977125 566.87856 
L 365.803383 453.758522 
L 367.62964 505.933494 
L 369.455898 467.526723 
L 371.282155 515.474183 
L 373.108413 513.681728 
L 374.93467 541.867376 
L 376.760928 556.39832 
L 378.587185 535.663243 
L 380.413443 468.82203 
L 382.2397 513.143069 
L 384.065958 512.477295 
L 385.892215 466.475761 
L 387.718473 478.959639 
L 389.54473 490.267083 
L 391.370988 510.660628 
L 393.197245 465.085186 
L 395.023503 578.776279 
L 396.84976 483.97304 
L 398.676018 608.119355 
L 400.502275 615.135227 
L 402.328533 586.453124 
L 404.15479 503.022942 
L 405.981048 552.944203 
L 407.807305 451.339773 
L 411.45982 474.388997 
L 413.286078 457.215329 
L 415.112335 517.859218 
L 418.76485 566.87856 
L 420.591108 453.758522 
L 422.417365 505.933494 
L 424.243623 467.526723 
L 426.06988 515.474183 
L 427.896138 513.681728 
L 429.722395 541.867376 
L 431.548653 556.39832 
L 433.37491 535.663243 
L 435.201168 468.82203 
L 437.027425 513.143069 
L 438.853683 512.477295 
L 440.67994 466.475761 
L 442.506198 478.959639 
L 444.332455 490.267083 
L 446.158713 510.660628 
L 447.98497 465.085186 
L 449.811228 578.776279 
L 451.637485 483.97304 
L 453.463743 608.119355 
L 455.29 615.135227 
L 457.116257 586.453124 
L 458.942515 503.022942 
L 460.768772 552.944203 
L 462.59503 451.339773 
L 466.247545 474.388997 
L 468.073802 457.215329 
L 469.90006 517.859218 
L 473.552575 566.87856 
L 475.378832 453.758522 
L 477.20509 505.933494 
L 479.031347 467.526723 
L 480.857605 515.474183 
L 482.683862 513.681728 
L 484.51012 541.867376 
L 486.336377 556.39832 
L 488.162635 535.663243 
L 489.988892 468.82203 
L 491.81515 513.143069 
L 493.641407 512.477295 
L 495.467665 466.475761 
L 497.293922 478.959639 
L 499.12018 490.267083 
L 500.946437 510.660628 
L 502.772695 465.085186 
L 504.598952 578.776279 
L 506.42521 483.97304 
L 508.251467 608.119355 
L 510.077725 615.135227 
L 511.903982 586.453124 
L 513.73024 503.022942 
L 515.556497 552.944203 
L 517.382755 451.339773 
L 521.03527 474.388997 
L 522.861527 457.215329 
L 524.687785 517.859218 
L 528.3403 566.87856 
L 530.166557 453.758522 
L 531.992815 505.933494 
L 533.819072 467.526723 
L 535.64533 515.474183 
L 537.471587 513.681728 
L 539.297845 541.867376 
L 541.124102 556.39832 
L 542.95036 535.663243 
L 544.776617 468.82203 
L 546.602875 513.143069 
L 548.429132 512.477295 
L 550.25539 466.475761 
L 552.081647 478.959639 
L 553.907905 490.267083 
L 555.734162 510.660628 
L 557.56042 465.085186 
L 559.386677 578.776279 
L 561.212935 483.97304 
L 563.039192 608.119355 
L 564.86545 615.135227 
L 566.691707 586.453124 
L 568.517965 503.022942 
L 570.344222 552.944203 
L 572.17048 451.339773 
L 575.822995 474.388997 
L 577.649252 457.215329 
L 579.47551 517.859218 
L 583.128025 566.87856 
L 584.954282 453.758522 
L 586.78054 505.933494 
L 588.606797 467.526723 
L 590.433055 515.474183 
L 592.259312 513.681728 
L 594.08557 541.867376 
L 595.911827 556.39832 
L 597.738085 535.663243 
L 599.564342 468.82203 
L 601.3906 513.143069 
L 603.216857 512.477295 
L 605.043115 466.475761 
L 606.869372 478.959639 
L 608.69563 490.267083 
L 610.521887 510.660628 
L 612.348145 465.085186 
L 614.174402 578.776279 
L 616.00066 483.97304 
L 617.826917 608.119355 
L 619.653175 615.135227 
L 621.479432 586.453124 
L 623.30569 503.022942 
L 625.131947 552.944203 
L 626.958205 451.339773 
L 630.61072 474.388997 
L 632.436977 457.215329 
L 634.263235 517.859218 
L 637.91575 566.87856 
L 639.742007 453.758522 
L 641.568265 505.933494 
L 643.394522 467.526723 
L 645.22078 515.474183 
L 647.047037 513.681728 
L 648.873295 541.867376 
L 650.699552 556.39832 
L 652.52581 535.663243 
L 654.352067 468.82203 
L 656.178325 513.143069 
L 658.004582 512.477295 
L 659.83084 466.475761 
L 661.657097 478.959639 
L 663.483355 490.267083 
L 665.309612 510.660628 
L 667.13587 465.085186 
L 668.962127 578.776279 
L 670.788385 483.97304 
L 672.614642 608.119355 
L 674.4409 615.135227 
L 676.267157 586.453124 
L 678.093415 503.022942 
L 679.919672 552.944203 
L 681.74593 451.339773 
L 685.398445 474.388997 
L 687.224702 457.215329 
L 689.05096 517.859218 
L 692.703475 566.87856 
L 694.529732 453.758522 
L 696.35599 505.933494 
L 698.182247 467.526723 
L 700.008505 515.474183 
L 701.834762 513.681728 
L 703.66102 541.867376 
L 705.487277 556.39832 
L 707.313535 535.663243 
L 709.139792 468.82203 
L 710.96605 513.143069 
L 712.792307 512.477295 
L 714.618565 466.475761 
L 716.444822 478.959639 
L 718.27108 490.267083 
L 720.097337 510.660628 
L 721.923595 465.085186 
L 723.749852 578.776279 
L 725.57611 483.97304 
L 727.402367 608.119355 
L 729.228625 615.135227 
L 731.054882 586.453124 
L 732.88114 503.022942 
L 734.707397 552.944203 
L 736.533655 451.339773 
L 740.18617 474.388997 
L 742.012427 457.215329 
L 743.838685 517.859218 
L 747.4912 566.87856 
L 749.317457 453.758522 
L 751.143715 505.933494 
L 752.969972 467.526723 
L 754.79623 515.474183 
L 756.622487 513.681728 
L 758.448745 541.867376 
L 760.275002 556.39832 
L 762.10126 535.663243 
L 763.927517 468.82203 
L 765.753775 513.143069 
L 767.580032 512.477295 
L 769.40629 466.475761 
L 771.232547 478.959639 
L 773.058805 490.267083 
L 774.885062 510.660628 
L 776.71132 465.085186 
L 778.537577 578.776279 
L 780.363835 483.97304 
L 782.190092 608.119355 
L 784.01635 615.135227 
L 785.842607 586.453124 
L 787.668865 503.022942 
L 789.495122 552.944203 
L 791.32138 451.339773 
L 794.973895 474.388997 
L 796.800152 457.215329 
L 798.62641 517.859218 
L 802.278925 566.87856 
L 804.105182 453.758522 
L 805.93144 505.933494 
L 807.757697 467.526723 
L 809.583955 515.474183 
L 811.410212 513.681728 
L 813.23647 541.867376 
L 815.062727 556.39832 
L 815.062727 556.39832 
" clip-path="url(#p376f25da03)" style="fill: none; stroke: #4878d0; stroke-width: 1.5; stroke-linecap: round"/>
   </g>
   <g id="patch_13">
    <path d="M 59.54 623.325 
L 59.54 443.15 
" style="fill: none; stroke: #cccccc; stroke-width: 1.25; stroke-linejoin: miter; stroke-linecap: square"/>
   </g>
   <g id="patch_14">
    <path d="M 851.04 623.325 
L 851.04 443.15 
" style="fill: none; stroke: #cccccc; stroke-width: 1.25; stroke-linejoin: miter; stroke-linecap: square"/>
   </g>
   <g id="patch_15">
    <path d="M 59.54 623.325 
L 851.04 623.325 
" style="fill: none; stroke: #cccccc; stroke-width: 1.25; stroke-linejoin: miter; stroke-linecap: square"/>
   </g>
   <g id="patch_16">
    <path d="M 59.54 443.15 
L 851.04 443.15 
" style="fill: none; stroke: #cccccc; stroke-width: 1.25; stroke-linejoin: miter; stroke-linecap: square"/>
   </g>
   <g id="text_21">
    <!-- Seasonal -->
    <g style="fill: #262626" transform="translate(430.271875 437.15) scale(0.12 -0.12)">
     <defs>
      <path id="ArialMT-53" d="M 288 1472 
L 859 1522 
Q 900 1178 1048 958 
Q 1197 738 1509 602 
Q 1822 466 2213 466 
Q 2559 466 2825 569 
Q 3091 672 3220 851 
Q 3350 1031 3350 1244 
Q 3350 1459 3225 1620 
Q 3100 1781 2813 1891 
Q 2628 1963 1997 2114 
Q 1366 2266 1113 2400 
Q 784 2572 623 2826 
Q 463 3081 463 3397 
Q 463 3744 659 4045 
Q 856 4347 1234 4503 
Q 1613 4659 2075 4659 
Q 2584 4659 2973 4495 
Q 3363 4331 3572 4012 
Q 3781 3694 3797 3291 
L 3216 3247 
Q 3169 3681 2898 3903 
Q 2628 4125 2100 4125 
Q 1550 4125 1298 3923 
Q 1047 3722 1047 3438 
Q 1047 3191 1225 3031 
Q 1400 2872 2139 2705 
Q 2878 2538 3153 2413 
Q 3553 2228 3743 1945 
Q 3934 1663 3934 1294 
Q 3934 928 3725 604 
Q 3516 281 3123 101 
Q 2731 -78 2241 -78 
Q 1619 -78 1198 103 
Q 778 284 539 648 
Q 300 1013 288 1472 
z
" transform="scale(0.015625)"/>
      <path id="ArialMT-73" d="M 197 991 
L 753 1078 
Q 800 744 1014 566 
Q 1228 388 1613 388 
Q 2000 388 2187 545 
Q 2375 703 2375 916 
Q 2375 1106 2209 1216 
Q 2094 1291 1634 1406 
Q 1016 1563 777 1677 
Q 538 1791 414 1992 
Q 291 2194 291 2438 
Q 291 2659 392 2848 
Q 494 3038 669 3163 
Q 800 3259 1026 3326 
Q 1253 3394 1513 3394 
Q 1903 3394 2198 3281 
Q 2494 3169 2634 2976 
Q 2775 2784 2828 2463 
L 2278 2388 
Q 2241 2644 2061 2787 
Q 1881 2931 1553 2931 
Q 1166 2931 1000 2803 
Q 834 2675 834 2503 
Q 834 2394 903 2306 
Q 972 2216 1119 2156 
Q 1203 2125 1616 2013 
Q 2213 1853 2448 1751 
Q 2684 1650 2818 1456 
Q 2953 1263 2953 975 
Q 2953 694 2789 445 
Q 2625 197 2315 61 
Q 2006 -75 1616 -75 
Q 969 -75 630 194 
Q 291 463 197 991 
z
" transform="scale(0.015625)"/>
      <path id="ArialMT-6f" d="M 213 1659 
Q 213 2581 725 3025 
Q 1153 3394 1769 3394 
Q 2453 3394 2887 2945 
Q 3322 2497 3322 1706 
Q 3322 1066 3130 698 
Q 2938 331 2570 128 
Q 2203 -75 1769 -75 
Q 1072 -75 642 372 
Q 213 819 213 1659 
z
M 791 1659 
Q 791 1022 1069 705 
Q 1347 388 1769 388 
Q 2188 388 2466 706 
Q 2744 1025 2744 1678 
Q 2744 2294 2464 2611 
Q 2184 2928 1769 2928 
Q 1347 2928 1069 2612 
Q 791 2297 791 1659 
z
" transform="scale(0.015625)"/>
     </defs>
     <use xlink:href="#ArialMT-53"/>
     <use xlink:href="#ArialMT-65" transform="translate(66.699219 0)"/>
     <use xlink:href="#ArialMT-61" transform="translate(122.314453 0)"/>
     <use xlink:href="#ArialMT-73" transform="translate(177.929688 0)"/>
     <use xlink:href="#ArialMT-6f" transform="translate(227.929688 0)"/>
     <use xlink:href="#ArialMT-6e" transform="translate(283.544922 0)"/>
     <use xlink:href="#ArialMT-61" transform="translate(339.160156 0)"/>
     <use xlink:href="#ArialMT-6c" transform="translate(394.775391 0)"/>
    </g>
   </g>
  </g>
  <g id="axes_4">
   <g id="patch_17">
    <path d="M 59.54 831.1 
L 851.04 831.1 
L 851.04 650.925 
L 59.54 650.925 
z
" style="fill: #ffffff"/>
   </g>
   <g id="matplotlib.axis_7">
    <g id="xtick_22">
     <g id="line2d_43">
      <path d="M 95.517273 831.1 
L 95.517273 650.925 
" clip-path="url(#pc44557a3ae)" style="fill: none; stroke: #cccccc; stroke-linecap: round"/>
     </g>
     <g id="text_22">
      <!-- 2024-09 -->
      <g style="fill: #262626" transform="translate(75.334851 848.473594) scale(0.11 -0.11)">
       <defs>
        <path id="ArialMT-34" d="M 2069 0 
L 2069 1097 
L 81 1097 
L 81 1613 
L 2172 4581 
L 2631 4581 
L 2631 1613 
L 3250 1613 
L 3250 1097 
L 2631 1097 
L 2631 0 
L 2069 0 
z
M 2069 1613 
L 2069 3678 
L 634 1613 
L 2069 1613 
z
" transform="scale(0.015625)"/>
        <path id="ArialMT-2d" d="M 203 1375 
L 203 1941 
L 1931 1941 
L 1931 1375 
L 203 1375 
z
" transform="scale(0.015625)"/>
       </defs>
       <use xlink:href="#ArialMT-32"/>
       <use xlink:href="#ArialMT-30" transform="translate(55.615234 0)"/>
       <use xlink:href="#ArialMT-32" transform="translate(111.230469 0)"/>
       <use xlink:href="#ArialMT-34" transform="translate(166.845703 0)"/>
       <use xlink:href="#ArialMT-2d" transform="translate(222.460938 0)"/>
       <use xlink:href="#ArialMT-30" transform="translate(255.761719 0)"/>
       <use xlink:href="#ArialMT-39" transform="translate(311.376953 0)"/>
      </g>
     </g>
    </g>
    <g id="xtick_23">
     <g id="line2d_44">
      <path d="M 206.91898 831.1 
L 206.91898 650.925 
" clip-path="url(#pc44557a3ae)" style="fill: none; stroke: #cccccc; stroke-linecap: round"/>
     </g>
     <g id="text_23">
      <!-- 2024-11 -->
      <g style="fill: #262626" transform="translate(187.142183 848.473594) scale(0.11 -0.11)">
       <use xlink:href="#ArialMT-32"/>
       <use xlink:href="#ArialMT-30" transform="translate(55.615234 0)"/>
       <use xlink:href="#ArialMT-32" transform="translate(111.230469 0)"/>
       <use xlink:href="#ArialMT-34" transform="translate(166.845703 0)"/>
       <use xlink:href="#ArialMT-2d" transform="translate(222.460938 0)"/>
       <use xlink:href="#ArialMT-31" transform="translate(255.761719 0)"/>
       <use xlink:href="#ArialMT-31" transform="translate(304.001953 0)"/>
      </g>
     </g>
    </g>
    <g id="xtick_24">
     <g id="line2d_45">
      <path d="M 318.320688 831.1 
L 318.320688 650.925 
" clip-path="url(#pc44557a3ae)" style="fill: none; stroke: #cccccc; stroke-linecap: round"/>
     </g>
     <g id="text_24">
      <!-- 2025-01 -->
      <g style="fill: #262626" transform="translate(298.138266 848.473594) scale(0.11 -0.11)">
       <use xlink:href="#ArialMT-32"/>
       <use xlink:href="#ArialMT-30" transform="translate(55.615234 0)"/>
       <use xlink:href="#ArialMT-32" transform="translate(111.230469 0)"/>
       <use xlink:href="#ArialMT-35" transform="translate(166.845703 0)"/>
       <use xlink:href="#ArialMT-2d" transform="translate(222.460938 0)"/>
       <use xlink:href="#ArialMT-30" transform="translate(255.761719 0)"/>
       <use xlink:href="#ArialMT-31" transform="translate(311.376953 0)"/>
      </g>
     </g>
    </g>
    <g id="xtick_25">
     <g id="line2d_46">
      <path d="M 426.06988 831.1 
L 426.06988 650.925 
" clip-path="url(#pc44557a3ae)" style="fill: none; stroke: #cccccc; stroke-linecap: round"/>
     </g>
     <g id="text_25">
      <!-- 2025-03 -->
      <g style="fill: #262626" transform="translate(405.887458 848.473594) scale(0.11 -0.11)">
       <defs>
        <path id="ArialMT-33" d="M 269 1209 
L 831 1284 
Q 928 806 1161 595 
Q 1394 384 1728 384 
Q 2125 384 2398 659 
Q 2672 934 2672 1341 
Q 2672 1728 2419 1979 
Q 2166 2231 1775 2231 
Q 1616 2231 1378 2169 
L 1441 2663 
Q 1497 2656 1531 2656 
Q 1891 2656 2178 2843 
Q 2466 3031 2466 3422 
Q 2466 3731 2256 3934 
Q 2047 4138 1716 4138 
Q 1388 4138 1169 3931 
Q 950 3725 888 3313 
L 325 3413 
Q 428 3978 793 4289 
Q 1159 4600 1703 4600 
Q 2078 4600 2393 4439 
Q 2709 4278 2876 4000 
Q 3044 3722 3044 3409 
Q 3044 3113 2884 2869 
Q 2725 2625 2413 2481 
Q 2819 2388 3044 2092 
Q 3269 1797 3269 1353 
Q 3269 753 2831 336 
Q 2394 -81 1725 -81 
Q 1122 -81 723 278 
Q 325 638 269 1209 
z
" transform="scale(0.015625)"/>
       </defs>
       <use xlink:href="#ArialMT-32"/>
       <use xlink:href="#ArialMT-30" transform="translate(55.615234 0)"/>
       <use xlink:href="#ArialMT-32" transform="translate(111.230469 0)"/>
       <use xlink:href="#ArialMT-35" transform="translate(166.845703 0)"/>
       <use xlink:href="#ArialMT-2d" transform="translate(222.460938 0)"/>
       <use xlink:href="#ArialMT-30" transform="translate(255.761719 0)"/>
       <use xlink:href="#ArialMT-33" transform="translate(311.376953 0)"/>
      </g>
     </g>
    </g>
    <g id="xtick_26">
     <g id="line2d_47">
      <path d="M 537.471587 831.1 
L 537.471587 650.925 
" clip-path="url(#pc44557a3ae)" style="fill: none; stroke: #cccccc; stroke-linecap: round"/>
     </g>
     <g id="text_26">
      <!-- 2025-05 -->
      <g style="fill: #262626" transform="translate(517.289166 848.473594) scale(0.11 -0.11)">
       <use xlink:href="#ArialMT-32"/>
       <use xlink:href="#ArialMT-30" transform="translate(55.615234 0)"/>
       <use xlink:href="#ArialMT-32" transform="translate(111.230469 0)"/>
       <use xlink:href="#ArialMT-35" transform="translate(166.845703 0)"/>
       <use xlink:href="#ArialMT-2d" transform="translate(222.460938 0)"/>
       <use xlink:href="#ArialMT-30" transform="translate(255.761719 0)"/>
       <use xlink:href="#ArialMT-35" transform="translate(311.376953 0)"/>
      </g>
     </g>
    </g>
    <g id="xtick_27">
     <g id="line2d_48">
      <path d="M 648.873295 831.1 
L 648.873295 650.925 
" clip-path="url(#pc44557a3ae)" style="fill: none; stroke: #cccccc; stroke-linecap: round"/>
     </g>
     <g id="text_27">
      <!-- 2025-07 -->
      <g style="fill: #262626" transform="translate(628.690873 848.473594) scale(0.11 -0.11)">
       <use xlink:href="#ArialMT-32"/>
       <use xlink:href="#ArialMT-30" transform="translate(55.615234 0)"/>
       <use xlink:href="#ArialMT-32" transform="translate(111.230469 0)"/>
       <use xlink:href="#ArialMT-35" transform="translate(166.845703 0)"/>
       <use xlink:href="#ArialMT-2d" transform="translate(222.460938 0)"/>
       <use xlink:href="#ArialMT-30" transform="translate(255.761719 0)"/>
       <use xlink:href="#ArialMT-37" transform="translate(311.376953 0)"/>
      </g>
     </g>
    </g>
    <g id="xtick_28">
     <g id="line2d_49">
      <path d="M 762.10126 831.1 
L 762.10126 650.925 
" clip-path="url(#pc44557a3ae)" style="fill: none; stroke: #cccccc; stroke-linecap: round"/>
     </g>
     <g id="text_28">
      <!-- 2025-09 -->
      <g style="fill: #262626" transform="translate(741.918838 848.473594) scale(0.11 -0.11)">
       <use xlink:href="#ArialMT-32"/>
       <use xlink:href="#ArialMT-30" transform="translate(55.615234 0)"/>
       <use xlink:href="#ArialMT-32" transform="translate(111.230469 0)"/>
       <use xlink:href="#ArialMT-35" transform="translate(166.845703 0)"/>
       <use xlink:href="#ArialMT-2d" transform="translate(222.460938 0)"/>
       <use xlink:href="#ArialMT-30" transform="translate(255.761719 0)"/>
       <use xlink:href="#ArialMT-39" transform="translate(311.376953 0)"/>
      </g>
     </g>
    </g>
   </g>
   <g id="matplotlib.axis_8">
    <g id="ytick_19">
     <g id="line2d_50">
      <path d="M 59.54 817.080192 
L 851.04 817.080192 
" clip-path="url(#pc44557a3ae)" style="fill: none; stroke: #cccccc; stroke-linecap: round"/>
     </g>
     <g id="text_29">
      <!-- −60000 -->
      <g style="fill: #262626" transform="translate(13.030156 821.016989) scale(0.11 -0.11)">
       <use xlink:href="#ArialMT-2212"/>
       <use xlink:href="#ArialMT-36" transform="translate(58.398438 0)"/>
       <use xlink:href="#ArialMT-30" transform="translate(114.013672 0)"/>
       <use xlink:href="#ArialMT-30" transform="translate(169.628906 0)"/>
       <use xlink:href="#ArialMT-30" transform="translate(225.244141 0)"/>
       <use xlink:href="#ArialMT-30" transform="translate(280.859375 0)"/>
      </g>
     </g>
    </g>
    <g id="ytick_20">
     <g id="line2d_51">
      <path d="M 59.54 785.224694 
L 851.04 785.224694 
" clip-path="url(#pc44557a3ae)" style="fill: none; stroke: #cccccc; stroke-linecap: round"/>
     </g>
     <g id="text_30">
      <!-- −40000 -->
      <g style="fill: #262626" transform="translate(13.030156 789.161491) scale(0.11 -0.11)">
       <use xlink:href="#ArialMT-2212"/>
       <use xlink:href="#ArialMT-34" transform="translate(58.398438 0)"/>
       <use xlink:href="#ArialMT-30" transform="translate(114.013672 0)"/>
       <use xlink:href="#ArialMT-30" transform="translate(169.628906 0)"/>
       <use xlink:href="#ArialMT-30" transform="translate(225.244141 0)"/>
       <use xlink:href="#ArialMT-30" transform="translate(280.859375 0)"/>
      </g>
     </g>
    </g>
    <g id="ytick_21">
     <g id="line2d_52">
      <path d="M 59.54 753.369196 
L 851.04 753.369196 
" clip-path="url(#pc44557a3ae)" style="fill: none; stroke: #cccccc; stroke-linecap: round"/>
     </g>
     <g id="text_31">
      <!-- −20000 -->
      <g style="fill: #262626" transform="translate(13.030156 757.305993) scale(0.11 -0.11)">
       <use xlink:href="#ArialMT-2212"/>
       <use xlink:href="#ArialMT-32" transform="translate(58.398438 0)"/>
       <use xlink:href="#ArialMT-30" transform="translate(114.013672 0)"/>
       <use xlink:href="#ArialMT-30" transform="translate(169.628906 0)"/>
       <use xlink:href="#ArialMT-30" transform="translate(225.244141 0)"/>
       <use xlink:href="#ArialMT-30" transform="translate(280.859375 0)"/>
      </g>
     </g>
    </g>
    <g id="ytick_22">
     <g id="line2d_53">
      <path d="M 59.54 721.513698 
L 851.04 721.513698 
" clip-path="url(#pc44557a3ae)" style="fill: none; stroke: #cccccc; stroke-linecap: round"/>
     </g>
     <g id="text_32">
      <!-- 0 -->
      <g style="fill: #262626" transform="translate(43.922969 725.450495) scale(0.11 -0.11)">
       <use xlink:href="#ArialMT-30"/>
      </g>
     </g>
    </g>
    <g id="ytick_23">
     <g id="line2d_54">
      <path d="M 59.54 689.6582 
L 851.04 689.6582 
" clip-path="url(#pc44557a3ae)" style="fill: none; stroke: #cccccc; stroke-linecap: round"/>
     </g>
     <g id="text_33">
      <!-- 20000 -->
      <g style="fill: #262626" transform="translate(19.454844 693.594997) scale(0.11 -0.11)">
       <use xlink:href="#ArialMT-32"/>
       <use xlink:href="#ArialMT-30" transform="translate(55.615234 0)"/>
       <use xlink:href="#ArialMT-30" transform="translate(111.230469 0)"/>
       <use xlink:href="#ArialMT-30" transform="translate(166.845703 0)"/>
       <use xlink:href="#ArialMT-30" transform="translate(222.460938 0)"/>
      </g>
     </g>
    </g>
    <g id="ytick_24">
     <g id="line2d_55">
      <path d="M 59.54 657.802702 
L 851.04 657.802702 
" clip-path="url(#pc44557a3ae)" style="fill: none; stroke: #cccccc; stroke-linecap: round"/>
     </g>
     <g id="text_34">
      <!-- 40000 -->
      <g style="fill: #262626" transform="translate(19.454844 661.739499) scale(0.11 -0.11)">
       <use xlink:href="#ArialMT-34"/>
       <use xlink:href="#ArialMT-30" transform="translate(55.615234 0)"/>
       <use xlink:href="#ArialMT-30" transform="translate(111.230469 0)"/>
       <use xlink:href="#ArialMT-30" transform="translate(166.845703 0)"/>
       <use xlink:href="#ArialMT-30" transform="translate(222.460938 0)"/>
      </g>
     </g>
    </g>
   </g>
   <g id="line2d_56">
    <path d="M 122.911135 796.546219 
L 124.737393 727.134511 
L 126.56365 778.227789 
L 128.389908 720.616549 
L 130.216165 751.139262 
L 132.042423 721.236677 
L 133.86868 736.526865 
L 135.694938 695.353147 
L 137.521195 691.433195 
L 139.347453 695.671437 
L 141.17371 684.090724 
L 142.999968 678.155204 
L 144.826225 759.756071 
L 146.652483 707.378996 
L 148.47874 684.410253 
L 150.304998 692.085658 
L 152.131255 686.355615 
L 153.957513 809.260532 
L 155.78377 766.459361 
L 157.610028 755.878239 
L 159.436285 805.978841 
L 161.262543 707.243477 
L 163.0888 701.910955 
L 164.915058 704.502975 
L 166.741315 710.981808 
L 168.567573 706.505447 
L 170.39383 751.074917 
L 172.220088 743.762442 
L 174.046345 708.174852 
L 175.872603 688.215878 
L 177.69886 703.960869 
L 179.525118 684.225155 
L 181.351375 685.810211 
L 183.177633 740.678611 
L 185.00389 750.998036 
L 186.830148 699.92588 
L 188.656405 716.265175 
L 190.482663 712.189309 
L 192.30892 711.176702 
L 194.135178 713.795091 
L 195.961435 763.857422 
L 197.787693 725.666618 
L 199.61395 694.585031 
L 201.440208 713.187315 
L 203.266465 705.434881 
L 205.092723 711.507424 
L 206.91898 704.316806 
L 208.745238 712.224969 
L 210.571495 766.698808 
L 212.397753 732.77557 
L 214.22401 710.308817 
L 216.050268 799.179506 
L 217.876525 757.410135 
L 219.702783 704.248131 
L 221.52904 797.562928 
L 223.355298 705.02098 
L 225.181555 709.363328 
L 227.007813 705.269321 
L 228.83407 708.947879 
L 230.660328 691.117383 
L 232.486585 705.721947 
L 234.312843 763.438629 
L 236.1391 759.90079 
L 237.965358 688.952715 
L 239.791615 704.224608 
L 241.617873 696.77484 
L 243.44413 712.968662 
L 245.270388 712.660239 
L 247.096645 777.583735 
L 248.922903 778.798358 
L 250.74916 700.124658 
L 252.575418 692.551235 
L 254.401675 687.824233 
L 256.227933 698.562456 
L 258.05419 687.782157 
L 259.880448 726.181128 
L 261.706705 770.017709 
L 263.532963 683.420166 
L 265.35922 682.566315 
L 267.185478 709.534861 
L 269.011735 711.721077 
L 270.837993 701.026346 
L 272.66425 784.845948 
L 274.490508 744.275626 
L 276.316765 706.807676 
L 278.143023 690.726357 
L 279.96928 685.832202 
L 281.795538 677.568842 
L 283.621795 683.306858 
L 285.448053 752.351083 
L 287.27431 736.597358 
L 289.100568 741.760962 
L 290.926825 659.114773 
L 292.753083 735.62686 
L 294.57934 771.57244 
L 296.405598 770.840997 
L 298.231855 789.462738 
L 300.058113 753.209102 
L 301.88437 724.072338 
L 303.710628 715.775972 
L 305.536885 757.084235 
L 307.363143 788.624408 
L 309.1894 740.554284 
L 311.015658 680.756471 
L 312.841915 792.099002 
L 314.668173 681.742354 
L 316.49443 673.821184 
L 318.320688 671.985281 
L 320.146945 668.542109 
L 321.973203 666.5041 
L 323.79946 758.481233 
L 325.625718 725.433855 
L 327.451975 676.869971 
L 329.278233 677.853023 
L 331.10449 685.265222 
L 332.930748 685.682932 
L 334.757005 692.042258 
L 336.583263 784.493239 
L 338.40952 791.66316 
L 340.235778 771.216267 
L 342.062035 704.742748 
L 343.888293 763.361471 
L 345.71455 754.76551 
L 347.540808 731.440343 
L 349.367065 738.693145 
L 351.193323 749.691852 
L 353.01958 683.709214 
L 354.845838 684.839597 
L 356.672095 680.06698 
L 358.498353 678.223476 
L 360.32461 667.858936 
L 362.150868 755.166936 
L 363.977125 744.09777 
L 365.803383 763.265754 
L 367.62964 780.817735 
L 369.455898 785.349003 
L 373.108413 729.538967 
L 374.93467 752.124922 
L 376.760928 779.26708 
L 378.587185 673.35768 
L 380.413443 683.08356 
L 382.2397 679.949598 
L 384.065958 677.200513 
L 385.892215 683.981973 
L 387.718473 743.807522 
L 389.54473 693.093486 
L 391.370988 690.376168 
L 393.197245 688.410994 
L 395.023503 786.369393 
L 396.84976 689.194607 
L 398.676018 672.571 
L 400.502275 797.653806 
L 402.328533 796.918434 
L 404.15479 695.077306 
L 405.981048 689.764511 
L 407.807305 705.089739 
L 409.633563 700.413928 
L 411.45982 699.287172 
L 413.286078 765.86503 
L 415.112335 784.410416 
L 416.938593 684.889637 
L 418.76485 684.644969 
L 420.591108 707.632958 
L 422.417365 700.711953 
L 424.243623 707.551507 
L 426.06988 787.088263 
L 427.896138 780.719429 
L 429.722395 698.79015 
L 431.548653 692.999564 
L 433.37491 693.349311 
L 435.201168 704.284648 
L 437.027425 698.392717 
L 438.853683 799.92579 
L 440.67994 728.379359 
L 442.506198 705.733949 
L 444.332455 700.789357 
L 446.158713 697.603762 
L 447.98497 705.973494 
L 449.811228 686.43626 
L 451.637485 756.482558 
L 453.463743 792.280283 
L 455.29 683.439493 
L 457.116257 686.938779 
L 458.942515 700.551 
L 460.768772 690.455819 
L 462.59503 708.857413 
L 464.421287 822.910227 
L 466.247545 804.219943 
L 468.073802 706.309814 
L 469.90006 695.93784 
L 471.726317 689.981437 
L 473.552575 685.96853 
L 475.378832 701.084229 
L 477.20509 771.22008 
L 479.031347 749.20262 
L 480.857605 692.741279 
L 482.683862 696.113219 
L 484.51012 689.824289 
L 486.336377 687.161382 
L 488.162635 689.210088 
L 489.988892 767.959569 
L 491.81515 772.708596 
L 493.641407 705.363994 
L 495.467665 714.256412 
L 497.293922 728.394019 
L 499.12018 725.995738 
L 500.946437 718.848912 
L 502.772695 813.960793 
L 504.598952 768.878795 
L 506.42521 709.804778 
L 508.251467 682.59364 
L 510.077725 678.203136 
L 511.903982 680.672427 
L 513.73024 692.164134 
L 515.556497 779.07282 
L 517.382755 737.417934 
L 519.209012 704.085447 
L 521.03527 704.288658 
L 522.861527 707.313736 
L 524.687785 695.3366 
L 526.514042 688.062795 
L 528.3403 782.105888 
L 530.166557 810.543026 
L 531.992815 697.321286 
L 533.819072 704.75512 
L 535.64533 697.030923 
L 537.471587 697.080865 
L 539.297845 690.826445 
L 541.124102 786.796654 
L 542.95036 751.216054 
L 544.776617 704.709372 
L 546.602875 699.219166 
L 548.429132 699.432642 
L 550.25539 707.060927 
L 552.081647 713.963881 
L 553.907905 774.833278 
L 555.734162 794.796012 
L 557.56042 705.341837 
L 559.386677 692.362933 
L 561.212935 703.157049 
L 563.039192 686.216654 
L 564.86545 683.261771 
L 566.691707 769.413863 
L 570.344222 697.247363 
L 572.17048 710.346424 
L 573.996737 709.312757 
L 575.822995 707.489428 
L 577.649252 711.846597 
L 579.47551 783.64765 
L 581.301767 756.68113 
L 583.128025 694.042249 
L 584.954282 713.224656 
L 586.78054 704.537795 
L 588.606797 713.110994 
L 590.433055 706.011696 
L 592.259312 755.581009 
L 594.08557 723.989788 
L 595.911827 699.208016 
L 597.738085 703.934708 
L 599.564342 717.804282 
L 601.3906 709.416818 
L 603.216857 705.82197 
L 605.043115 766.001208 
L 606.869372 783.194018 
L 608.69563 710.328726 
L 610.521887 703.13253 
L 612.348145 712.494635 
L 614.174402 695.813592 
L 616.00066 708.513197 
L 617.826917 743.212688 
L 619.653175 750.611903 
L 621.479432 687.173762 
L 623.30569 701.421501 
L 625.131947 694.76759 
L 626.958205 713.737618 
L 628.784462 716.977898 
L 630.61072 731.821896 
L 632.436977 753.683661 
L 634.263235 717.844987 
L 636.089492 709.3228 
L 637.91575 711.773019 
L 639.742007 732.359015 
L 641.568265 719.99072 
L 643.394522 764.534086 
L 645.22078 780.176958 
L 647.047037 718.366178 
L 648.873295 713.238381 
L 650.699552 708.557959 
L 652.52581 712.194131 
L 654.352067 720.905769 
L 658.004582 761.517414 
L 659.83084 719.106022 
L 661.657097 721.026775 
L 663.483355 717.768401 
L 665.309612 693.098928 
L 667.13587 728.168955 
L 668.962127 733.353526 
L 670.788385 695.421472 
L 672.614642 708.930155 
L 674.4409 705.036066 
L 676.267157 711.147502 
L 678.093415 724.019084 
L 679.919672 715.804784 
L 681.74593 736.744013 
L 683.572187 740.80351 
L 685.398445 728.48751 
L 687.224702 735.511515 
L 689.05096 724.289177 
L 690.877217 716.433832 
L 692.703475 712.094406 
L 694.529732 738.972748 
L 696.35599 727.545782 
L 698.182247 730.355791 
L 700.008505 721.750789 
L 701.834762 722.220162 
L 703.66102 716.079891 
L 705.487277 714.785709 
L 707.313535 731.546877 
L 709.139792 712.675901 
L 710.96605 723.584905 
L 712.792307 723.609903 
L 714.618565 730.962107 
L 716.444822 731.737656 
L 718.27108 728.353983 
L 720.097337 706.030136 
L 721.923595 711.940172 
L 723.749852 710.364475 
L 725.57611 722.290523 
L 727.402367 702.392876 
L 729.228625 696.717533 
L 731.054882 695.91063 
L 732.88114 735.887667 
L 734.707397 757.220934 
L 736.533655 711.67827 
L 738.359912 710.048906 
L 740.18617 702.876508 
L 742.012427 700.00938 
L 743.838685 688.321421 
L 745.664942 777.268033 
L 747.4912 765.357616 
L 749.317457 695.836443 
L 751.143715 690.932422 
L 752.969972 696.42838 
L 754.79623 685.225031 
L 756.622487 686.293288 
L 758.448745 793.663606 
L 760.275002 729.334932 
L 762.10126 721.505249 
L 763.927517 718.49778 
L 765.753775 716.991104 
L 767.580032 759.052086 
L 769.40629 712.438422 
L 771.232547 747.01053 
L 773.058805 773.328392 
L 774.885062 747.823774 
L 776.71132 704.420438 
L 778.537577 686.32448 
L 780.363835 752.27108 
L 782.190092 716.58638 
L 784.01635 751.961625 
L 785.842607 739.213932 
L 787.668865 684.763554 
L 787.668865 684.763554 
" clip-path="url(#pc44557a3ae)" style="fill: none; stroke: #4878d0; stroke-width: 1.5; stroke-linecap: round"/>
   </g>
   <g id="patch_18">
    <path d="M 59.54 831.1 
L 59.54 650.925 
" style="fill: none; stroke: #cccccc; stroke-width: 1.25; stroke-linejoin: miter; stroke-linecap: square"/>
   </g>
   <g id="patch_19">
    <path d="M 851.04 831.1 
L 851.04 650.925 
" style="fill: none; stroke: #cccccc; stroke-width: 1.25; stroke-linejoin: miter; stroke-linecap: square"/>
   </g>
   <g id="patch_20">
    <path d="M 59.54 831.1 
L 851.04 831.1 
" style="fill: none; stroke: #cccccc; stroke-width: 1.25; stroke-linejoin: miter; stroke-linecap: square"/>
   </g>
   <g id="patch_21">
    <path d="M 59.54 650.925 
L 851.04 650.925 
" style="fill: none; stroke: #cccccc; stroke-width: 1.25; stroke-linejoin: miter; stroke-linecap: square"/>
   </g>
   <g id="text_35">
    <!-- Residual -->
    <g style="fill: #262626" transform="translate(431.944375 644.925) scale(0.12 -0.12)">
     <defs>
      <path id="ArialMT-52" d="M 503 0 
L 503 4581 
L 2534 4581 
Q 3147 4581 3465 4457 
Q 3784 4334 3975 4021 
Q 4166 3709 4166 3331 
Q 4166 2844 3850 2509 
Q 3534 2175 2875 2084 
Q 3116 1969 3241 1856 
Q 3506 1613 3744 1247 
L 4541 0 
L 3778 0 
L 3172 953 
Q 2906 1366 2734 1584 
Q 2563 1803 2427 1890 
Q 2291 1978 2150 2013 
Q 2047 2034 1813 2034 
L 1109 2034 
L 1109 0 
L 503 0 
z
M 1109 2559 
L 2413 2559 
Q 2828 2559 3062 2645 
Q 3297 2731 3419 2920 
Q 3541 3109 3541 3331 
Q 3541 3656 3305 3865 
Q 3069 4075 2559 4075 
L 1109 4075 
L 1109 2559 
z
" transform="scale(0.015625)"/>
      <path id="ArialMT-75" d="M 2597 0 
L 2597 488 
Q 2209 -75 1544 -75 
Q 1250 -75 995 37 
Q 741 150 617 320 
Q 494 491 444 738 
Q 409 903 409 1263 
L 409 3319 
L 972 3319 
L 972 1478 
Q 972 1038 1006 884 
Q 1059 663 1231 536 
Q 1403 409 1656 409 
Q 1909 409 2131 539 
Q 2353 669 2445 892 
Q 2538 1116 2538 1541 
L 2538 3319 
L 3100 3319 
L 3100 0 
L 2597 0 
z
" transform="scale(0.015625)"/>
     </defs>
     <use xlink:href="#ArialMT-52"/>
     <use xlink:href="#ArialMT-65" transform="translate(72.216797 0)"/>
     <use xlink:href="#ArialMT-73" transform="translate(127.832031 0)"/>
     <use xlink:href="#ArialMT-69" transform="translate(177.832031 0)"/>
     <use xlink:href="#ArialMT-64" transform="translate(200.048828 0)"/>
     <use xlink:href="#ArialMT-75" transform="translate(255.664062 0)"/>
     <use xlink:href="#ArialMT-61" transform="translate(311.279297 0)"/>
     <use xlink:href="#ArialMT-6c" transform="translate(366.894531 0)"/>
    </g>
   </g>
  </g>
 </g>
 <defs>
  <clipPath id="pfd1e9cb527">
   <rect x="59.54" y="27.6" width="791.5" height="180.175"/>
  </clipPath>
  <clipPath id="p527b230782">
   <rect x="59.54" y="235.375" width="791.5" height="180.175"/>
  </clipPath>
  <clipPath id="p376f25da03">
   <rect x="59.54" y="443.15" width="791.5" height="180.175"/>
  </clipPath>
  <clipPath id="pc44557a3ae">
   <rect x="59.54" y="650.925" width="791.5" height="180.175"/>
  </clipPath>
 </defs>
</svg>
