<?xml version="1.0" encoding="utf-8" standalone="no"?>
<!DOCTYPE svg PUBLIC "-//W3C//DTD SVG 1.1//EN"
  "http://www.w3.org/Graphics/SVG/1.1/DTD/svg11.dtd">
<svg xmlns:xlink="http://www.w3.org/1999/xlink" width="864pt" height="864pt" viewBox="0 0 864 864" xmlns="http://www.w3.org/2000/svg" version="1.1">
 <metadata>
  <rdf:RDF xmlns:dc="http://purl.org/dc/elements/1.1/" xmlns:cc="http://creativecommons.org/ns#" xmlns:rdf="http://www.w3.org/1999/02/22-rdf-syntax-ns#">
   <cc:Work>
    <dc:type rdf:resource="http://purl.org/dc/dcmitype/StillImage"/>
    <dc:date>2025-12-12T00:30:21.996614</dc:date>
    <dc:format>image/svg+xml</dc:format>
    <dc:creator>
     <cc:Agent>
      <dc:title>Matplotlib v3.10.7, https://matplotlib.org/</dc:title>
     </cc:Agent>
    </dc:creator>
   </cc:Work>
  </rdf:RDF>
 </metadata>
 <defs>
  <style type="text/css">*{stroke-linejoin: round; stroke-linecap: butt}</style>
 </defs>
 <g id="figure_1">
  <g id="patch_1">
   <path d="M 0 864 
L 864 864 
L 864 0 
L 0 0 
z
" style="fill: #ffffff"/>
  </g>
  <g id="axes_1">
   <g id="patch_2">
    <path d="M 53.42 204.658355 
L 851.04 204.658355 
L 851.04 27.6 
L 53.42 27.6 
z
" style="fill: #ffffff"/>
   </g>
   <g id="matplotlib.axis_1">
    <g id="xtick_1">
     <g id="line2d_1">
      <path d="M 89.675455 204.658355 
L 89.675455 27.6 
" clip-path="url(#p8428405720)" style="fill: none; stroke: #cccccc; stroke-linecap: round"/>
     </g>
    </g>
    <g id="xtick_2">
     <g id="line2d_2">
      <path d="M 201.938537 204.658355 
L 201.938537 27.6 
" clip-path="url(#p8428405720)" style="fill: none; stroke: #cccccc; stroke-linecap: round"/>
     </g>
    </g>
    <g id="xtick_3">
     <g id="line2d_3">
      <path d="M 314.20162 204.658355 
L 314.20162 27.6 
" clip-path="url(#p8428405720)" style="fill: none; stroke: #cccccc; stroke-linecap: round"/>
     </g>
    </g>
    <g id="xtick_4">
     <g id="line2d_4">
      <path d="M 422.783946 204.658355 
L 422.783946 27.6 
" clip-path="url(#p8428405720)" style="fill: none; stroke: #cccccc; stroke-linecap: round"/>
     </g>
    </g>
    <g id="xtick_5">
     <g id="line2d_5">
      <path d="M 535.047028 204.658355 
L 535.047028 27.6 
" clip-path="url(#p8428405720)" style="fill: none; stroke: #cccccc; stroke-linecap: round"/>
     </g>
    </g>
    <g id="xtick_6">
     <g id="line2d_6">
      <path d="M 647.310111 204.658355 
L 647.310111 27.6 
" clip-path="url(#p8428405720)" style="fill: none; stroke: #cccccc; stroke-linecap: round"/>
     </g>
    </g>
    <g id="xtick_7">
     <g id="line2d_7">
      <path d="M 761.413572 204.658355 
L 761.413572 27.6 
" clip-path="url(#p8428405720)" style="fill: none; stroke: #cccccc; stroke-linecap: round"/>
     </g>
    </g>
   </g>
   <g id="matplotlib.axis_2">
    <g id="ytick_1">
     <g id="line2d_8">
      <path d="M 53.42 196.610248 
L 851.04 196.610248 
" clip-path="url(#p8428405720)" style="fill: none; stroke: #cccccc; stroke-linecap: round"/>
     </g>
     <g id="text_1">
      <!-- 22000 -->
      <g style="fill: #262626" transform="translate(13.334844 200.547045) scale(0.11 -0.11)">
       <defs>
        <path id="ArialMT-32" d="M 3222 541 
L 3222 0 
L 194 0 
Q 188 203 259 391 
Q 375 700 629 1000 
Q 884 1300 1366 1694 
Q 2113 2306 2375 2664 
Q 2638 3022 2638 3341 
Q 2638 3675 2398 3904 
Q 2159 4134 1775 4134 
Q 1369 4134 1125 3890 
Q 881 3647 878 3216 
L 300 3275 
Q 359 3922 746 4261 
Q 1134 4600 1788 4600 
Q 2447 4600 2831 4234 
Q 3216 3869 3216 3328 
Q 3216 3053 3103 2787 
Q 2991 2522 2730 2228 
Q 2469 1934 1863 1422 
Q 1356 997 1212 845 
Q 1069 694 975 541 
L 3222 541 
z
" transform="scale(0.015625)"/>
        <path id="ArialMT-30" d="M 266 2259 
Q 266 3072 433 3567 
Q 600 4063 929 4331 
Q 1259 4600 1759 4600 
Q 2128 4600 2406 4451 
Q 2684 4303 2865 4023 
Q 3047 3744 3150 3342 
Q 3253 2941 3253 2259 
Q 3253 1453 3087 958 
Q 2922 463 2592 192 
Q 2263 -78 1759 -78 
Q 1097 -78 719 397 
Q 266 969 266 2259 
z
M 844 2259 
Q 844 1131 1108 757 
Q 1372 384 1759 384 
Q 2147 384 2411 759 
Q 2675 1134 2675 2259 
Q 2675 3391 2411 3762 
Q 2147 4134 1753 4134 
Q 1366 4134 1134 3806 
Q 844 3388 844 2259 
z
" transform="scale(0.015625)"/>
       </defs>
       <use xlink:href="#ArialMT-32"/>
       <use xlink:href="#ArialMT-32" transform="translate(55.615234 0)"/>
       <use xlink:href="#ArialMT-30" transform="translate(111.230469 0)"/>
       <use xlink:href="#ArialMT-30" transform="translate(166.845703 0)"/>
       <use xlink:href="#ArialMT-30" transform="translate(222.460938 0)"/>
      </g>
     </g>
    </g>
    <g id="ytick_2">
     <g id="line2d_9">
      <path d="M 53.42 169.783225 
L 851.04 169.783225 
" clip-path="url(#p8428405720)" style="fill: none; stroke: #cccccc; stroke-linecap: round"/>
     </g>
     <g id="text_2">
      <!-- 24000 -->
      <g style="fill: #262626" transform="translate(13.334844 173.720021) scale(0.11 -0.11)">
       <defs>
        <path id="ArialMT-34" d="M 2069 0 
L 2069 1097 
L 81 1097 
L 81 1613 
L 2172 4581 
L 2631 4581 
L 2631 1613 
L 3250 1613 
L 3250 1097 
L 2631 1097 
L 2631 0 
L 2069 0 
z
M 2069 1613 
L 2069 3678 
L 634 1613 
L 2069 1613 
z
" transform="scale(0.015625)"/>
       </defs>
       <use xlink:href="#ArialMT-32"/>
       <use xlink:href="#ArialMT-34" transform="translate(55.615234 0)"/>
       <use xlink:href="#ArialMT-30" transform="translate(111.230469 0)"/>
       <use xlink:href="#ArialMT-30" transform="translate(166.845703 0)"/>
       <use xlink:href="#ArialMT-30" transform="translate(222.460938 0)"/>
      </g>
     </g>
    </g>
    <g id="ytick_3">
     <g id="line2d_10">
      <path d="M 53.42 142.956201 
L 851.04 142.956201 
" clip-path="url(#p8428405720)" style="fill: none; stroke: #cccccc; stroke-linecap: round"/>
     </g>
     <g id="text_3">
      <!-- 26000 -->
      <g style="fill: #262626" transform="translate(13.334844 146.892998) scale(0.11 -0.11)">
       <defs>
        <path id="ArialMT-36" d="M 3184 3459 
L 2625 3416 
Q 2550 3747 2413 3897 
Q 2184 4138 1850 4138 
Q 1581 4138 1378 3988 
Q 1113 3794 959 3422 
Q 806 3050 800 2363 
Q 1003 2672 1297 2822 
Q 1591 2972 1913 2972 
Q 2475 2972 2870 2558 
Q 3266 2144 3266 1488 
Q 3266 1056 3080 686 
Q 2894 316 2569 119 
Q 2244 -78 1831 -78 
Q 1128 -78 684 439 
Q 241 956 241 2144 
Q 241 3472 731 4075 
Q 1159 4600 1884 4600 
Q 2425 4600 2770 4297 
Q 3116 3994 3184 3459 
z
M 888 1484 
Q 888 1194 1011 928 
Q 1134 663 1356 523 
Q 1578 384 1822 384 
Q 2178 384 2434 671 
Q 2691 959 2691 1453 
Q 2691 1928 2437 2201 
Q 2184 2475 1800 2475 
Q 1419 2475 1153 2201 
Q 888 1928 888 1484 
z
" transform="scale(0.015625)"/>
       </defs>
       <use xlink:href="#ArialMT-32"/>
       <use xlink:href="#ArialMT-36" transform="translate(55.615234 0)"/>
       <use xlink:href="#ArialMT-30" transform="translate(111.230469 0)"/>
       <use xlink:href="#ArialMT-30" transform="translate(166.845703 0)"/>
       <use xlink:href="#ArialMT-30" transform="translate(222.460938 0)"/>
      </g>
     </g>
    </g>
    <g id="ytick_4">
     <g id="line2d_11">
      <path d="M 53.42 116.129178 
L 851.04 116.129178 
" clip-path="url(#p8428405720)" style="fill: none; stroke: #cccccc; stroke-linecap: round"/>
     </g>
     <g id="text_4">
      <!-- 28000 -->
      <g style="fill: #262626" transform="translate(13.334844 120.065974) scale(0.11 -0.11)">
       <defs>
        <path id="ArialMT-38" d="M 1131 2484 
Q 781 2613 612 2850 
Q 444 3088 444 3419 
Q 444 3919 803 4259 
Q 1163 4600 1759 4600 
Q 2359 4600 2725 4251 
Q 3091 3903 3091 3403 
Q 3091 3084 2923 2848 
Q 2756 2613 2416 2484 
Q 2838 2347 3058 2040 
Q 3278 1734 3278 1309 
Q 3278 722 2862 322 
Q 2447 -78 1769 -78 
Q 1091 -78 675 323 
Q 259 725 259 1325 
Q 259 1772 486 2073 
Q 713 2375 1131 2484 
z
M 1019 3438 
Q 1019 3113 1228 2906 
Q 1438 2700 1772 2700 
Q 2097 2700 2305 2904 
Q 2513 3109 2513 3406 
Q 2513 3716 2298 3927 
Q 2084 4138 1766 4138 
Q 1444 4138 1231 3931 
Q 1019 3725 1019 3438 
z
M 838 1322 
Q 838 1081 952 856 
Q 1066 631 1291 507 
Q 1516 384 1775 384 
Q 2178 384 2440 643 
Q 2703 903 2703 1303 
Q 2703 1709 2433 1975 
Q 2163 2241 1756 2241 
Q 1359 2241 1098 1978 
Q 838 1716 838 1322 
z
" transform="scale(0.015625)"/>
       </defs>
       <use xlink:href="#ArialMT-32"/>
       <use xlink:href="#ArialMT-38" transform="translate(55.615234 0)"/>
       <use xlink:href="#ArialMT-30" transform="translate(111.230469 0)"/>
       <use xlink:href="#ArialMT-30" transform="translate(166.845703 0)"/>
       <use xlink:href="#ArialMT-30" transform="translate(222.460938 0)"/>
      </g>
     </g>
    </g>
    <g id="ytick_5">
     <g id="line2d_12">
      <path d="M 53.42 89.302154 
L 851.04 89.302154 
" clip-path="url(#p8428405720)" style="fill: none; stroke: #cccccc; stroke-linecap: round"/>
     </g>
     <g id="text_5">
      <!-- 30000 -->
      <g style="fill: #262626" transform="translate(13.334844 93.238951) scale(0.11 -0.11)">
       <defs>
        <path id="ArialMT-33" d="M 269 1209 
L 831 1284 
Q 928 806 1161 595 
Q 1394 384 1728 384 
Q 2125 384 2398 659 
Q 2672 934 2672 1341 
Q 2672 1728 2419 1979 
Q 2166 2231 1775 2231 
Q 1616 2231 1378 2169 
L 1441 2663 
Q 1497 2656 1531 2656 
Q 1891 2656 2178 2843 
Q 2466 3031 2466 3422 
Q 2466 3731 2256 3934 
Q 2047 4138 1716 4138 
Q 1388 4138 1169 3931 
Q 950 3725 888 3313 
L 325 3413 
Q 428 3978 793 4289 
Q 1159 4600 1703 4600 
Q 2078 4600 2393 4439 
Q 2709 4278 2876 4000 
Q 3044 3722 3044 3409 
Q 3044 3113 2884 2869 
Q 2725 2625 2413 2481 
Q 2819 2388 3044 2092 
Q 3269 1797 3269 1353 
Q 3269 753 2831 336 
Q 2394 -81 1725 -81 
Q 1122 -81 723 278 
Q 325 638 269 1209 
z
" transform="scale(0.015625)"/>
       </defs>
       <use xlink:href="#ArialMT-33"/>
       <use xlink:href="#ArialMT-30" transform="translate(55.615234 0)"/>
       <use xlink:href="#ArialMT-30" transform="translate(111.230469 0)"/>
       <use xlink:href="#ArialMT-30" transform="translate(166.845703 0)"/>
       <use xlink:href="#ArialMT-30" transform="translate(222.460938 0)"/>
      </g>
     </g>
    </g>
    <g id="ytick_6">
     <g id="line2d_13">
      <path d="M 53.42 62.475131 
L 851.04 62.475131 
" clip-path="url(#p8428405720)" style="fill: none; stroke: #cccccc; stroke-linecap: round"/>
     </g>
     <g id="text_6">
      <!-- 32000 -->
      <g style="fill: #262626" transform="translate(13.334844 66.411927) scale(0.11 -0.11)">
       <use xlink:href="#ArialMT-33"/>
       <use xlink:href="#ArialMT-32" transform="translate(55.615234 0)"/>
       <use xlink:href="#ArialMT-30" transform="translate(111.230469 0)"/>
       <use xlink:href="#ArialMT-30" transform="translate(166.845703 0)"/>
       <use xlink:href="#ArialMT-30" transform="translate(222.460938 0)"/>
      </g>
     </g>
    </g>
    <g id="ytick_7">
     <g id="line2d_14">
      <path d="M 53.42 35.648107 
L 851.04 35.648107 
" clip-path="url(#p8428405720)" style="fill: none; stroke: #cccccc; stroke-linecap: round"/>
     </g>
     <g id="text_7">
      <!-- 34000 -->
      <g style="fill: #262626" transform="translate(13.334844 39.584904) scale(0.11 -0.11)">
       <use xlink:href="#ArialMT-33"/>
       <use xlink:href="#ArialMT-34" transform="translate(55.615234 0)"/>
       <use xlink:href="#ArialMT-30" transform="translate(111.230469 0)"/>
       <use xlink:href="#ArialMT-30" transform="translate(166.845703 0)"/>
       <use xlink:href="#ArialMT-30" transform="translate(222.460938 0)"/>
      </g>
     </g>
    </g>
   </g>
   <g id="line2d_15">
    <path d="M 89.675455 120.153231 
L 91.515833 112.105124 
L 93.356211 83.936749 
L 95.19659 62.475131 
L 97.036968 124.177285 
L 98.877347 94.667559 
L 100.717725 134.908094 
L 102.558103 102.715666 
L 104.398482 105.398368 
L 106.23886 81.254047 
L 108.079239 62.475131 
L 109.919617 97.350261 
L 111.759995 75.888642 
L 113.600374 89.302154 
L 115.440752 54.427024 
L 117.281131 116.129178 
L 119.121509 102.715666 
L 120.961887 62.475131 
L 122.802266 94.667559 
L 124.642644 75.888642 
L 126.483023 105.398368 
L 128.323401 109.422422 
L 130.163779 94.667559 
L 132.004158 94.667559 
L 133.844536 89.302154 
L 135.684915 164.41782 
L 137.525293 159.052415 
L 139.365671 49.061619 
L 141.20605 81.254047 
L 143.046428 49.061619 
L 144.886807 137.590796 
L 146.727185 89.302154 
L 148.567563 105.398368 
L 150.407942 65.157833 
L 152.24832 110.763773 
L 154.088699 65.157833 
L 155.929077 132.225392 
L 157.769455 108.081071 
L 159.609834 62.475131 
L 161.450212 78.571345 
L 163.290591 97.350261 
L 165.130969 110.763773 
L 166.971347 102.715666 
L 168.811726 151.004308 
L 170.652104 78.571345 
L 172.492483 62.475131 
L 174.332861 67.840535 
L 176.17324 100.032963 
L 178.013618 102.715666 
L 179.853996 91.984856 
L 181.694375 91.984856 
L 183.534753 108.081071 
L 185.375132 89.302154 
L 187.21551 116.129178 
L 189.055888 54.427024 
L 190.896267 46.378916 
L 192.736645 112.105124 
L 194.577024 109.422422 
L 196.417402 81.254047 
L 198.25778 89.302154 
L 200.098159 132.225392 
L 201.938537 86.619452 
L 203.778916 108.081071 
L 205.619294 116.129178 
L 209.300051 83.936749 
L 211.140429 49.061619 
L 212.980808 81.254047 
L 214.821186 148.321606 
L 216.661564 121.494582 
L 218.501943 159.052415 
L 220.342321 97.350261 
L 222.1827 134.908094 
L 224.023078 49.061619 
L 225.863456 116.129178 
L 227.703835 148.321606 
L 229.544213 114.787826 
L 231.384592 130.88404 
L 233.22497 106.739719 
L 235.065348 106.739719 
L 236.905727 49.061619 
L 238.746105 116.129178 
L 240.586484 100.032963 
L 242.426862 116.129178 
L 244.26724 93.326208 
L 246.107619 114.787826 
L 247.947997 116.129178 
L 249.788376 42.354863 
L 251.628754 122.835933 
L 253.469132 97.350261 
L 255.309511 142.956201 
L 257.149889 97.350261 
L 258.990268 151.004308 
L 260.830646 89.302154 
L 262.671024 62.475131 
L 264.511403 102.715666 
L 266.351781 159.052415 
L 268.19216 102.715666 
L 270.032538 120.153231 
L 271.872916 122.835933 
L 273.713295 134.908094 
L 275.553673 62.475131 
L 277.394052 62.475131 
L 279.23443 130.88404 
L 281.074808 100.032963 
L 282.915187 97.350261 
L 284.755565 81.254047 
L 286.595944 148.321606 
L 288.436322 145.638903 
L 290.276701 120.153231 
L 292.117079 142.956201 
L 293.957457 132.225392 
L 295.797836 126.859987 
L 297.638214 126.859987 
L 299.478593 122.835933 
L 301.318971 117.470529 
L 303.159349 142.956201 
L 304.999728 94.667559 
L 306.840106 102.715666 
L 308.680485 142.956201 
L 310.520863 134.908094 
L 312.361241 148.321606 
L 314.20162 142.956201 
L 316.041998 102.715666 
L 317.882377 94.667559 
L 319.722755 142.956201 
L 321.563133 134.908094 
L 325.24389 134.908094 
L 327.084269 116.129178 
L 328.924647 134.908094 
L 330.765025 145.638903 
L 332.605404 126.859987 
L 336.286161 126.859987 
L 338.126539 134.908094 
L 339.966917 102.715666 
L 341.807296 116.129178 
L 343.647674 134.908094 
L 347.328431 134.908094 
L 349.168809 145.638903 
L 351.009188 134.908094 
L 352.849566 102.715666 
L 354.689945 124.177285 
L 356.530323 124.177285 
L 358.370701 116.129178 
L 360.21108 124.177285 
L 362.051458 134.908094 
L 365.732215 134.908094 
L 367.572593 116.129178 
L 369.412972 134.908094 
L 371.25335 134.908094 
L 373.093729 137.590796 
L 374.934107 145.638903 
L 376.774485 134.908094 
L 378.614864 116.129178 
L 380.455242 134.908094 
L 387.816756 134.908094 
L 389.657134 126.859987 
L 391.497513 89.302154 
L 393.337891 89.302154 
L 395.178269 105.398368 
L 397.018648 91.984856 
L 398.859026 142.956201 
L 400.699405 153.68701 
L 402.539783 116.129178 
L 404.380162 142.956201 
L 406.22054 129.542689 
L 408.060918 105.398368 
L 409.901297 126.859987 
L 411.741675 140.273499 
L 413.582054 164.41782 
L 415.422432 156.369713 
L 417.26281 156.369713 
L 419.103189 151.004308 
L 420.943567 156.369713 
L 422.783946 126.859987 
L 424.624324 134.908094 
L 426.464702 145.638903 
L 428.305081 124.177285 
L 430.145459 156.369713 
L 431.985838 94.667559 
L 433.826216 113.446475 
L 435.666594 108.081071 
L 437.506973 145.638903 
L 439.347351 116.129178 
L 441.18773 78.571345 
L 443.028108 183.196736 
L 444.868486 78.571345 
L 446.708865 118.81188 
L 448.549243 124.177285 
L 450.389622 132.225392 
L 452.23 161.735118 
L 454.070378 116.129178 
L 455.910757 196.610248 
L 457.751135 151.004308 
L 459.591514 140.273499 
L 461.431892 140.273499 
L 463.27227 137.590796 
L 465.112649 105.398368 
L 466.953027 151.004308 
L 468.793406 169.783225 
L 470.633784 118.81188 
L 472.474162 142.956201 
L 474.314541 116.129178 
L 476.154919 81.254047 
L 477.995298 140.273499 
L 479.835676 108.081071 
L 481.676054 169.783225 
L 483.516433 124.177285 
L 485.356811 121.494582 
L 487.19719 94.667559 
L 489.037568 108.081071 
L 490.877946 142.956201 
L 492.718325 116.129178 
L 494.558703 156.369713 
L 496.399082 91.984856 
L 498.23946 81.254047 
L 500.079838 78.571345 
L 501.920217 67.840535 
L 503.760595 35.648107 
L 505.600974 142.956201 
L 507.441352 116.129178 
L 509.281731 129.542689 
L 511.122109 67.840535 
L 512.962487 73.20594 
L 514.802866 118.81188 
L 516.643244 65.157833 
L 518.483623 94.667559 
L 520.324001 102.715666 
L 522.164379 83.936749 
L 524.004758 102.715666 
L 525.845136 97.350261 
L 527.685515 89.302154 
L 529.525893 59.792428 
L 531.366271 89.302154 
L 533.20665 83.936749 
L 535.047028 94.667559 
L 536.887407 81.254047 
L 538.727785 83.936749 
L 540.568163 116.129178 
L 542.408542 124.177285 
L 544.24892 113.446475 
L 546.089299 75.888642 
L 547.929677 83.936749 
L 549.770055 83.936749 
L 551.610434 128.201338 
L 553.450812 100.032963 
L 555.291191 100.032963 
L 557.131569 108.081071 
L 558.971947 94.667559 
L 560.812326 102.715666 
L 562.652704 89.302154 
L 564.493083 100.032963 
L 566.333461 113.446475 
L 568.173839 94.667559 
L 570.014218 108.081071 
L 571.854596 81.254047 
L 573.694975 97.350261 
L 575.535353 70.523238 
L 577.375731 114.787826 
L 579.21611 67.840535 
L 581.056488 140.273499 
L 582.896867 86.619452 
L 584.737245 100.032963 
L 586.577623 108.081071 
L 588.418002 125.518636 
L 590.25838 102.715666 
L 592.098759 67.840535 
L 593.939137 102.715666 
L 595.779515 91.984856 
L 597.619894 89.302154 
L 599.460272 100.032963 
L 601.300651 113.446475 
L 603.141029 89.302154 
L 604.981407 70.523238 
L 606.821786 73.20594 
L 608.662164 93.326208 
L 610.502543 116.129178 
L 612.342921 122.835933 
L 614.183299 128.201338 
L 616.023678 94.667559 
L 617.864056 86.619452 
L 619.704435 113.446475 
L 621.544813 100.032963 
L 623.385192 102.715666 
L 625.22557 108.081071 
L 627.065948 110.763773 
L 628.906327 102.715666 
L 630.746705 112.105124 
L 632.587084 86.619452 
L 634.427462 108.081071 
L 636.26784 116.129178 
L 638.108219 101.374315 
L 639.948597 100.032963 
L 641.788976 102.715666 
L 643.629354 83.936749 
L 645.469732 105.398368 
L 647.310111 97.350261 
L 649.150489 116.129178 
L 650.990868 91.984856 
L 652.831246 116.129178 
L 654.671624 97.350261 
L 656.512003 105.398368 
L 658.352381 54.427024 
L 660.19276 89.302154 
L 662.033138 89.302154 
L 663.873516 83.936749 
L 665.713895 94.667559 
L 667.554273 100.032963 
L 669.394652 124.177285 
L 671.23503 97.350261 
L 673.075408 108.081071 
L 674.915787 101.374315 
L 676.756165 54.427024 
L 678.596544 75.888642 
L 680.436922 109.422422 
L 682.2773 130.88404 
L 684.117679 62.475131 
L 685.958057 126.859987 
L 687.798436 126.859987 
L 689.638814 83.936749 
L 691.479192 78.571345 
L 693.319571 124.177285 
L 695.159949 109.422422 
L 697.000328 133.566743 
L 698.840706 100.032963 
L 700.681084 108.081071 
L 702.521463 86.619452 
L 706.20222 108.081071 
L 708.042598 108.081071 
L 709.882976 86.619452 
L 711.723355 108.081071 
L 713.563733 108.081071 
L 715.404112 94.667559 
L 717.24449 62.475131 
L 719.084868 100.032963 
L 720.925247 105.398368 
L 722.765625 91.984856 
L 724.606004 65.157833 
L 726.446382 83.936749 
L 728.28676 86.619452 
L 730.127139 54.427024 
L 731.967517 90.643505 
L 733.807896 57.109726 
L 735.648274 89.302154 
L 737.488653 100.032963 
L 739.329031 94.667559 
L 741.169409 130.88404 
L 743.009788 91.984856 
L 744.850166 108.081071 
L 746.690545 108.081071 
L 748.530923 109.422422 
L 750.371301 91.984856 
L 752.21168 86.619452 
L 754.052058 100.032963 
L 755.892437 89.302154 
L 757.732815 102.715666 
L 759.573193 102.715666 
L 761.413572 109.422422 
L 763.25395 62.475131 
L 765.094329 116.129178 
L 766.934707 108.081071 
L 768.775085 105.398368 
L 770.615464 100.032963 
L 772.455842 122.835933 
L 774.296221 133.566743 
L 776.136599 105.398368 
L 777.976977 91.984856 
L 779.817356 108.081071 
L 781.657734 91.984856 
L 783.498113 108.081071 
L 785.338491 91.984856 
L 787.178869 102.715666 
L 789.019248 104.057017 
L 790.859626 116.129178 
L 792.700005 105.398368 
L 794.540383 112.105124 
L 796.380761 89.302154 
L 798.22114 113.446475 
L 800.061518 130.88404 
L 801.901897 75.888642 
L 803.742275 89.302154 
L 805.582653 91.984856 
L 807.423032 62.475131 
L 809.26341 75.888642 
L 811.103789 101.374315 
L 812.944167 70.523238 
L 814.784545 105.398368 
L 814.784545 105.398368 
" clip-path="url(#p8428405720)" style="fill: none; stroke: #4878d0; stroke-width: 1.5; stroke-linecap: round"/>
   </g>
   <g id="patch_3">
    <path d="M 53.42 204.658355 
L 53.42 27.6 
" style="fill: none; stroke: #cccccc; stroke-width: 1.25; stroke-linejoin: miter; stroke-linecap: square"/>
   </g>
   <g id="patch_4">
    <path d="M 851.04 204.658355 
L 851.04 27.6 
" style="fill: none; stroke: #cccccc; stroke-width: 1.25; stroke-linejoin: miter; stroke-linecap: square"/>
   </g>
   <g id="patch_5">
    <path d="M 53.42 204.658355 
L 851.04 204.658355 
" style="fill: none; stroke: #cccccc; stroke-width: 1.25; stroke-linejoin: miter; stroke-linecap: square"/>
   </g>
   <g id="patch_6">
    <path d="M 53.42 27.6 
L 851.04 27.6 
" style="fill: none; stroke: #cccccc; stroke-width: 1.25; stroke-linejoin: miter; stroke-linecap: square"/>
   </g>
   <g id="text_8">
    <!-- Original -->
    <g style="fill: #262626" transform="translate(431.55625 21.6) scale(0.12 -0.12)">
     <defs>
      <path id="ArialMT-4f" d="M 309 2231 
Q 309 3372 921 4017 
Q 1534 4663 2503 4663 
Q 3138 4663 3647 4359 
Q 4156 4056 4423 3514 
Q 4691 2972 4691 2284 
Q 4691 1588 4409 1038 
Q 4128 488 3612 205 
Q 3097 -78 2500 -78 
Q 1853 -78 1343 234 
Q 834 547 571 1087 
Q 309 1628 309 2231 
z
M 934 2222 
Q 934 1394 1379 917 
Q 1825 441 2497 441 
Q 3181 441 3623 922 
Q 4066 1403 4066 2288 
Q 4066 2847 3877 3264 
Q 3688 3681 3323 3911 
Q 2959 4141 2506 4141 
Q 1863 4141 1398 3698 
Q 934 3256 934 2222 
z
" transform="scale(0.015625)"/>
      <path id="ArialMT-72" d="M 416 0 
L 416 3319 
L 922 3319 
L 922 2816 
Q 1116 3169 1280 3281 
Q 1444 3394 1641 3394 
Q 1925 3394 2219 3213 
L 2025 2691 
Q 1819 2813 1613 2813 
Q 1428 2813 1281 2702 
Q 1134 2591 1072 2394 
Q 978 2094 978 1738 
L 978 0 
L 416 0 
z
" transform="scale(0.015625)"/>
      <path id="ArialMT-69" d="M 425 3934 
L 425 4581 
L 988 4581 
L 988 3934 
L 425 3934 
z
M 425 0 
L 425 3319 
L 988 3319 
L 988 0 
L 425 0 
z
" transform="scale(0.015625)"/>
      <path id="ArialMT-67" d="M 319 -275 
L 866 -356 
Q 900 -609 1056 -725 
Q 1266 -881 1628 -881 
Q 2019 -881 2231 -725 
Q 2444 -569 2519 -288 
Q 2563 -116 2559 434 
Q 2191 0 1641 0 
Q 956 0 581 494 
Q 206 988 206 1678 
Q 206 2153 378 2554 
Q 550 2956 876 3175 
Q 1203 3394 1644 3394 
Q 2231 3394 2613 2919 
L 2613 3319 
L 3131 3319 
L 3131 450 
Q 3131 -325 2973 -648 
Q 2816 -972 2473 -1159 
Q 2131 -1347 1631 -1347 
Q 1038 -1347 672 -1080 
Q 306 -813 319 -275 
z
M 784 1719 
Q 784 1066 1043 766 
Q 1303 466 1694 466 
Q 2081 466 2343 764 
Q 2606 1063 2606 1700 
Q 2606 2309 2336 2618 
Q 2066 2928 1684 2928 
Q 1309 2928 1046 2623 
Q 784 2319 784 1719 
z
" transform="scale(0.015625)"/>
      <path id="ArialMT-6e" d="M 422 0 
L 422 3319 
L 928 3319 
L 928 2847 
Q 1294 3394 1984 3394 
Q 2284 3394 2536 3286 
Q 2788 3178 2913 3003 
Q 3038 2828 3088 2588 
Q 3119 2431 3119 2041 
L 3119 0 
L 2556 0 
L 2556 2019 
Q 2556 2363 2490 2533 
Q 2425 2703 2258 2804 
Q 2091 2906 1866 2906 
Q 1506 2906 1245 2678 
Q 984 2450 984 1813 
L 984 0 
L 422 0 
z
" transform="scale(0.015625)"/>
      <path id="ArialMT-61" d="M 2588 409 
Q 2275 144 1986 34 
Q 1697 -75 1366 -75 
Q 819 -75 525 192 
Q 231 459 231 875 
Q 231 1119 342 1320 
Q 453 1522 633 1644 
Q 813 1766 1038 1828 
Q 1203 1872 1538 1913 
Q 2219 1994 2541 2106 
Q 2544 2222 2544 2253 
Q 2544 2597 2384 2738 
Q 2169 2928 1744 2928 
Q 1347 2928 1158 2789 
Q 969 2650 878 2297 
L 328 2372 
Q 403 2725 575 2942 
Q 747 3159 1072 3276 
Q 1397 3394 1825 3394 
Q 2250 3394 2515 3294 
Q 2781 3194 2906 3042 
Q 3031 2891 3081 2659 
Q 3109 2516 3109 2141 
L 3109 1391 
Q 3109 606 3145 398 
Q 3181 191 3288 0 
L 2700 0 
Q 2613 175 2588 409 
z
M 2541 1666 
Q 2234 1541 1622 1453 
Q 1275 1403 1131 1340 
Q 988 1278 909 1158 
Q 831 1038 831 891 
Q 831 666 1001 516 
Q 1172 366 1500 366 
Q 1825 366 2078 508 
Q 2331 650 2450 897 
Q 2541 1088 2541 1459 
L 2541 1666 
z
" transform="scale(0.015625)"/>
      <path id="ArialMT-6c" d="M 409 0 
L 409 4581 
L 972 4581 
L 972 0 
L 409 0 
z
" transform="scale(0.015625)"/>
     </defs>
     <use xlink:href="#ArialMT-4f"/>
     <use xlink:href="#ArialMT-72" transform="translate(77.783203 0)"/>
     <use xlink:href="#ArialMT-69" transform="translate(111.083984 0)"/>
     <use xlink:href="#ArialMT-67" transform="translate(133.300781 0)"/>
     <use xlink:href="#ArialMT-69" transform="translate(188.916016 0)"/>
     <use xlink:href="#ArialMT-6e" transform="translate(211.132812 0)"/>
     <use xlink:href="#ArialMT-61" transform="translate(266.748047 0)"/>
     <use xlink:href="#ArialMT-6c" transform="translate(322.363281 0)"/>
    </g>
   </g>
  </g>
  <g id="axes_2">
   <g id="patch_7">
    <path d="M 53.42 413.472237 
L 851.04 413.472237 
L 851.04 236.413882 
L 53.42 236.413882 
z
" style="fill: #ffffff"/>
   </g>
   <g id="matplotlib.axis_3">
    <g id="xtick_8">
     <g id="line2d_16">
      <path d="M 89.675455 413.472237 
L 89.675455 236.413882 
" clip-path="url(#p03f06453ab)" style="fill: none; stroke: #cccccc; stroke-linecap: round"/>
     </g>
    </g>
    <g id="xtick_9">
     <g id="line2d_17">
      <path d="M 201.938537 413.472237 
L 201.938537 236.413882 
" clip-path="url(#p03f06453ab)" style="fill: none; stroke: #cccccc; stroke-linecap: round"/>
     </g>
    </g>
    <g id="xtick_10">
     <g id="line2d_18">
      <path d="M 314.20162 413.472237 
L 314.20162 236.413882 
" clip-path="url(#p03f06453ab)" style="fill: none; stroke: #cccccc; stroke-linecap: round"/>
     </g>
    </g>
    <g id="xtick_11">
     <g id="line2d_19">
      <path d="M 422.783946 413.472237 
L 422.783946 236.413882 
" clip-path="url(#p03f06453ab)" style="fill: none; stroke: #cccccc; stroke-linecap: round"/>
     </g>
    </g>
    <g id="xtick_12">
     <g id="line2d_20">
      <path d="M 535.047028 413.472237 
L 535.047028 236.413882 
" clip-path="url(#p03f06453ab)" style="fill: none; stroke: #cccccc; stroke-linecap: round"/>
     </g>
    </g>
    <g id="xtick_13">
     <g id="line2d_21">
      <path d="M 647.310111 413.472237 
L 647.310111 236.413882 
" clip-path="url(#p03f06453ab)" style="fill: none; stroke: #cccccc; stroke-linecap: round"/>
     </g>
    </g>
    <g id="xtick_14">
     <g id="line2d_22">
      <path d="M 761.413572 413.472237 
L 761.413572 236.413882 
" clip-path="url(#p03f06453ab)" style="fill: none; stroke: #cccccc; stroke-linecap: round"/>
     </g>
    </g>
   </g>
   <g id="matplotlib.axis_4">
    <g id="ytick_8">
     <g id="line2d_23">
      <path d="M 53.42 407.701512 
L 851.04 407.701512 
" clip-path="url(#p03f06453ab)" style="fill: none; stroke: #cccccc; stroke-linecap: round"/>
     </g>
     <g id="text_9">
      <!-- 26500 -->
      <g style="fill: #262626" transform="translate(13.334844 411.638309) scale(0.11 -0.11)">
       <defs>
        <path id="ArialMT-35" d="M 266 1200 
L 856 1250 
Q 922 819 1161 601 
Q 1400 384 1738 384 
Q 2144 384 2425 690 
Q 2706 997 2706 1503 
Q 2706 1984 2436 2262 
Q 2166 2541 1728 2541 
Q 1456 2541 1237 2417 
Q 1019 2294 894 2097 
L 366 2166 
L 809 4519 
L 3088 4519 
L 3088 3981 
L 1259 3981 
L 1013 2750 
Q 1425 3038 1878 3038 
Q 2478 3038 2890 2622 
Q 3303 2206 3303 1553 
Q 3303 931 2941 478 
Q 2500 -78 1738 -78 
Q 1113 -78 717 272 
Q 322 622 266 1200 
z
" transform="scale(0.015625)"/>
       </defs>
       <use xlink:href="#ArialMT-32"/>
       <use xlink:href="#ArialMT-36" transform="translate(55.615234 0)"/>
       <use xlink:href="#ArialMT-35" transform="translate(111.230469 0)"/>
       <use xlink:href="#ArialMT-30" transform="translate(166.845703 0)"/>
       <use xlink:href="#ArialMT-30" transform="translate(222.460938 0)"/>
      </g>
     </g>
    </g>
    <g id="ytick_9">
     <g id="line2d_24">
      <path d="M 53.42 383.300986 
L 851.04 383.300986 
" clip-path="url(#p03f06453ab)" style="fill: none; stroke: #cccccc; stroke-linecap: round"/>
     </g>
     <g id="text_10">
      <!-- 27000 -->
      <g style="fill: #262626" transform="translate(13.334844 387.237782) scale(0.11 -0.11)">
       <defs>
        <path id="ArialMT-37" d="M 303 3981 
L 303 4522 
L 3269 4522 
L 3269 4084 
Q 2831 3619 2401 2847 
Q 1972 2075 1738 1259 
Q 1569 684 1522 0 
L 944 0 
Q 953 541 1156 1306 
Q 1359 2072 1739 2783 
Q 2119 3494 2547 3981 
L 303 3981 
z
" transform="scale(0.015625)"/>
       </defs>
       <use xlink:href="#ArialMT-32"/>
       <use xlink:href="#ArialMT-37" transform="translate(55.615234 0)"/>
       <use xlink:href="#ArialMT-30" transform="translate(111.230469 0)"/>
       <use xlink:href="#ArialMT-30" transform="translate(166.845703 0)"/>
       <use xlink:href="#ArialMT-30" transform="translate(222.460938 0)"/>
      </g>
     </g>
    </g>
    <g id="ytick_10">
     <g id="line2d_25">
      <path d="M 53.42 358.900459 
L 851.04 358.900459 
" clip-path="url(#p03f06453ab)" style="fill: none; stroke: #cccccc; stroke-linecap: round"/>
     </g>
     <g id="text_11">
      <!-- 27500 -->
      <g style="fill: #262626" transform="translate(13.334844 362.837256) scale(0.11 -0.11)">
       <use xlink:href="#ArialMT-32"/>
       <use xlink:href="#ArialMT-37" transform="translate(55.615234 0)"/>
       <use xlink:href="#ArialMT-35" transform="translate(111.230469 0)"/>
       <use xlink:href="#ArialMT-30" transform="translate(166.845703 0)"/>
       <use xlink:href="#ArialMT-30" transform="translate(222.460938 0)"/>
      </g>
     </g>
    </g>
    <g id="ytick_11">
     <g id="line2d_26">
      <path d="M 53.42 334.499932 
L 851.04 334.499932 
" clip-path="url(#p03f06453ab)" style="fill: none; stroke: #cccccc; stroke-linecap: round"/>
     </g>
     <g id="text_12">
      <!-- 28000 -->
      <g style="fill: #262626" transform="translate(13.334844 338.436729) scale(0.11 -0.11)">
       <use xlink:href="#ArialMT-32"/>
       <use xlink:href="#ArialMT-38" transform="translate(55.615234 0)"/>
       <use xlink:href="#ArialMT-30" transform="translate(111.230469 0)"/>
       <use xlink:href="#ArialMT-30" transform="translate(166.845703 0)"/>
       <use xlink:href="#ArialMT-30" transform="translate(222.460938 0)"/>
      </g>
     </g>
    </g>
    <g id="ytick_12">
     <g id="line2d_27">
      <path d="M 53.42 310.099405 
L 851.04 310.099405 
" clip-path="url(#p03f06453ab)" style="fill: none; stroke: #cccccc; stroke-linecap: round"/>
     </g>
     <g id="text_13">
      <!-- 28500 -->
      <g style="fill: #262626" transform="translate(13.334844 314.036202) scale(0.11 -0.11)">
       <use xlink:href="#ArialMT-32"/>
       <use xlink:href="#ArialMT-38" transform="translate(55.615234 0)"/>
       <use xlink:href="#ArialMT-35" transform="translate(111.230469 0)"/>
       <use xlink:href="#ArialMT-30" transform="translate(166.845703 0)"/>
       <use xlink:href="#ArialMT-30" transform="translate(222.460938 0)"/>
      </g>
     </g>
    </g>
    <g id="ytick_13">
     <g id="line2d_28">
      <path d="M 53.42 285.698879 
L 851.04 285.698879 
" clip-path="url(#p03f06453ab)" style="fill: none; stroke: #cccccc; stroke-linecap: round"/>
     </g>
     <g id="text_14">
      <!-- 29000 -->
      <g style="fill: #262626" transform="translate(13.334844 289.635676) scale(0.11 -0.11)">
       <defs>
        <path id="ArialMT-39" d="M 350 1059 
L 891 1109 
Q 959 728 1153 556 
Q 1347 384 1650 384 
Q 1909 384 2104 503 
Q 2300 622 2425 820 
Q 2550 1019 2634 1356 
Q 2719 1694 2719 2044 
Q 2719 2081 2716 2156 
Q 2547 1888 2255 1720 
Q 1963 1553 1622 1553 
Q 1053 1553 659 1965 
Q 266 2378 266 3053 
Q 266 3750 677 4175 
Q 1088 4600 1706 4600 
Q 2153 4600 2523 4359 
Q 2894 4119 3086 3673 
Q 3278 3228 3278 2384 
Q 3278 1506 3087 986 
Q 2897 466 2520 194 
Q 2144 -78 1638 -78 
Q 1100 -78 759 220 
Q 419 519 350 1059 
z
M 2653 3081 
Q 2653 3566 2395 3850 
Q 2138 4134 1775 4134 
Q 1400 4134 1122 3828 
Q 844 3522 844 3034 
Q 844 2597 1108 2323 
Q 1372 2050 1759 2050 
Q 2150 2050 2401 2323 
Q 2653 2597 2653 3081 
z
" transform="scale(0.015625)"/>
       </defs>
       <use xlink:href="#ArialMT-32"/>
       <use xlink:href="#ArialMT-39" transform="translate(55.615234 0)"/>
       <use xlink:href="#ArialMT-30" transform="translate(111.230469 0)"/>
       <use xlink:href="#ArialMT-30" transform="translate(166.845703 0)"/>
       <use xlink:href="#ArialMT-30" transform="translate(222.460938 0)"/>
      </g>
     </g>
    </g>
    <g id="ytick_14">
     <g id="line2d_29">
      <path d="M 53.42 261.298352 
L 851.04 261.298352 
" clip-path="url(#p03f06453ab)" style="fill: none; stroke: #cccccc; stroke-linecap: round"/>
     </g>
     <g id="text_15">
      <!-- 29500 -->
      <g style="fill: #262626" transform="translate(13.334844 265.235149) scale(0.11 -0.11)">
       <use xlink:href="#ArialMT-32"/>
       <use xlink:href="#ArialMT-39" transform="translate(55.615234 0)"/>
       <use xlink:href="#ArialMT-35" transform="translate(111.230469 0)"/>
       <use xlink:href="#ArialMT-30" transform="translate(166.845703 0)"/>
       <use xlink:href="#ArialMT-30" transform="translate(222.460938 0)"/>
      </g>
     </g>
    </g>
    <g id="ytick_15">
     <g id="line2d_30">
      <path d="M 53.42 236.897825 
L 851.04 236.897825 
" clip-path="url(#p03f06453ab)" style="fill: none; stroke: #cccccc; stroke-linecap: round"/>
     </g>
     <g id="text_16">
      <!-- 30000 -->
      <g style="fill: #262626" transform="translate(13.334844 240.834622) scale(0.11 -0.11)">
       <use xlink:href="#ArialMT-33"/>
       <use xlink:href="#ArialMT-30" transform="translate(55.615234 0)"/>
       <use xlink:href="#ArialMT-30" transform="translate(111.230469 0)"/>
       <use xlink:href="#ArialMT-30" transform="translate(166.845703 0)"/>
       <use xlink:href="#ArialMT-30" transform="translate(222.460938 0)"/>
      </g>
     </g>
    </g>
   </g>
   <g id="line2d_31">
    <path d="M 117.281131 258.614294 
L 119.121509 258.288954 
L 120.961887 258.207619 
L 122.802266 259.67165 
L 124.642644 259.02097 
L 126.483023 256.418247 
L 128.323401 254.466205 
L 130.163779 254.628875 
L 132.004158 252.351492 
L 133.844536 249.586099 
L 135.684915 251.538141 
L 137.525293 254.466205 
L 139.365671 256.906257 
L 143.046428 267.479819 
L 144.886807 265.690447 
L 146.727185 260.322331 
L 148.567563 260.485001 
L 150.407942 263.250394 
L 152.24832 264.714426 
L 154.088699 264.877096 
L 155.929077 263.98241 
L 157.769455 263.575735 
L 159.609834 264.551756 
L 161.450212 263.738405 
L 163.290591 254.466205 
L 165.130969 244.461989 
L 166.971347 245.27534 
L 168.811726 248.935419 
L 170.652104 251.375471 
L 172.492483 253.490184 
L 174.332861 253.002173 
L 176.17324 253.002173 
L 178.013618 256.255577 
L 179.853996 258.695629 
L 181.694375 259.18364 
L 183.534753 255.279556 
L 185.375132 248.610078 
L 187.21551 252.188822 
L 189.055888 259.996991 
L 190.896267 266.341128 
L 192.736645 269.269191 
L 194.577024 270.407882 
L 196.417402 266.178457 
L 198.25778 262.274373 
L 200.098159 269.757201 
L 201.938537 277.809375 
L 203.778916 282.52681 
L 205.619294 284.641523 
L 207.459672 285.780214 
L 209.300051 284.072177 
L 211.140429 281.957465 
L 212.980808 283.096156 
L 214.821186 283.746837 
L 216.661564 286.105554 
L 218.501943 292.612361 
L 220.342321 297.004456 
L 222.1827 293.181707 
L 224.023078 291.63634 
L 225.863456 294.645739 
L 227.703835 295.78443 
L 229.544213 297.085791 
L 231.384592 300.339195 
L 233.22497 301.315216 
L 235.065348 297.411132 
L 236.905727 296.27244 
L 240.586484 312.051448 
L 242.426862 311.644772 
L 244.26724 310.01807 
L 246.107619 308.635374 
L 247.947997 305.05663 
L 249.788376 298.549823 
L 251.628754 299.119168 
L 253.469132 303.104588 
L 255.309511 299.037833 
L 257.149889 293.913723 
L 258.990268 292.937702 
L 260.830646 296.353775 
L 262.671024 299.525844 
L 266.351781 312.702128 
L 268.19216 315.304851 
L 273.713295 321.974328 
L 275.553673 323.7637 
L 277.394052 328.562471 
L 279.23443 330.514513 
L 281.074808 332.059879 
L 282.915187 334.337262 
L 286.595944 339.542708 
L 288.436322 339.868048 
L 290.276701 342.633441 
L 292.117079 347.025536 
L 293.957457 348.001557 
L 295.797836 348.489567 
L 297.638214 351.336296 
L 299.478593 351.824306 
L 301.318971 351.417631 
L 303.159349 356.460406 
L 304.999728 365.407266 
L 306.840106 369.067345 
L 308.680485 370.450041 
L 310.520863 374.354126 
L 312.361241 377.93287 
L 314.20162 377.282189 
L 316.041998 374.679466 
L 317.882377 374.923471 
L 321.563133 375.655487 
L 323.403512 376.956849 
L 325.24389 375.980828 
L 327.084269 374.598131 
L 328.924647 375.086142 
L 330.765025 373.866115 
L 332.605404 374.028785 
L 334.445782 377.770199 
L 336.286161 379.234231 
L 338.126539 378.746221 
L 339.966917 376.794178 
L 341.807296 374.354126 
L 343.647674 375.818157 
L 345.488053 380.372922 
L 347.328431 383.138315 
L 349.168809 383.300986 
L 352.849566 381.023603 
L 356.530323 383.300986 
L 358.370701 382.650305 
L 360.21108 382.487635 
L 362.051458 382.975645 
L 363.891837 380.698263 
L 365.732215 375.655487 
L 367.572593 373.052764 
L 369.412972 371.751403 
L 371.25335 370.775382 
L 373.093729 372.402084 
L 374.934107 372.402084 
L 376.774485 371.100722 
L 378.614864 370.612712 
L 380.455242 370.450041 
L 382.295621 370.775382 
L 384.135999 371.914073 
L 385.976377 375.818157 
L 387.816756 380.698263 
L 389.657134 383.951666 
L 393.337891 388.506431 
L 395.178269 390.458473 
L 398.859026 391.759835 
L 402.539783 391.434494 
L 404.380162 389.645122 
L 406.22054 387.0424 
L 408.060918 385.253028 
L 409.901297 384.277007 
L 411.741675 383.788996 
L 413.582054 379.234231 
L 415.422432 378.746221 
L 417.26281 378.746221 
L 419.103189 377.607529 
L 422.783946 385.253028 
L 424.624324 391.109154 
L 426.464702 393.711877 
L 428.305081 394.687898 
L 430.145459 399.405333 
L 431.985838 401.357375 
L 433.826216 401.845386 
L 435.666594 404.448109 
L 437.506973 405.098789 
L 439.347351 404.448109 
L 441.18773 405.42413 
L 443.028108 403.472088 
L 446.708865 397.453291 
L 448.549243 390.783814 
L 450.389622 387.0424 
L 452.23 386.229049 
L 454.070378 386.066379 
L 455.910757 387.53041 
L 459.591514 383.300986 
L 461.431892 382.975645 
L 463.27227 384.765017 
L 465.112649 385.090357 
L 466.953027 385.741038 
L 468.793406 388.994442 
L 470.633784 383.626326 
L 472.474162 377.444859 
L 474.314541 374.354126 
L 476.154919 365.895276 
L 477.995298 361.177841 
L 481.676054 357.111087 
L 483.516433 350.116269 
L 485.356811 337.590666 
L 489.037568 325.715743 
L 490.877946 318.558255 
L 492.718325 315.792862 
L 494.558703 311.563437 
L 496.399082 303.429928 
L 498.23946 298.061812 
L 500.079838 293.507047 
L 501.920217 286.83757 
L 505.600974 280.981444 
L 507.441352 276.752019 
L 509.281731 270.570552 
L 511.122109 262.762384 
L 512.962487 259.996991 
L 514.802866 261.461022 
L 516.643244 263.575735 
L 518.483623 259.83432 
L 522.164379 247.471387 
L 524.004758 245.27534 
L 525.845136 248.610078 
L 527.685515 251.050131 
L 529.525893 254.791545 
L 531.366271 260.810342 
L 533.20665 261.949033 
L 535.047028 257.882278 
L 536.887407 254.466205 
L 538.727785 255.442226 
L 540.568163 259.50898 
L 542.408542 260.159661 
L 544.24892 260.485001 
L 546.089299 261.623692 
L 547.929677 259.83432 
L 549.770055 259.752985 
L 551.610434 259.50898 
L 553.450812 259.996991 
L 557.131569 264.714426 
L 560.812326 271.953249 
L 562.652704 274.962647 
L 564.493083 274.637307 
L 566.333461 274.962647 
L 568.173839 274.637307 
L 570.014218 271.058563 
L 571.854596 268.1305 
L 573.694975 269.594531 
L 575.535353 272.197254 
L 577.375731 271.709243 
L 579.21611 267.561154 
L 581.056488 263.81974 
L 582.896867 264.389085 
L 584.737245 266.259793 
L 586.577623 269.187856 
L 588.418002 270.733222 
L 590.25838 270.082542 
L 592.098759 270.733222 
L 593.939137 270.733222 
L 595.779515 270.407882 
L 597.619894 270.895893 
L 599.460272 272.685265 
L 601.300651 274.799977 
L 603.141029 277.646705 
L 608.662164 280.168093 
L 610.502543 279.598747 
L 612.342921 280.493433 
L 614.183299 280.168093 
L 616.023678 277.321365 
L 617.864056 274.962647 
L 619.704435 276.914689 
L 621.544813 279.517412 
L 623.385192 280.330763 
L 625.22557 281.957465 
L 627.065948 283.421496 
L 628.906327 282.770816 
L 630.746705 280.168093 
L 632.587084 279.192072 
L 634.427462 281.306784 
L 636.26784 281.713459 
L 638.108219 279.842752 
L 639.948597 277.158694 
L 641.788976 275.531993 
L 643.629354 275.450658 
L 645.469732 276.914689 
L 647.310111 277.484035 
L 649.150489 273.986626 
L 650.990868 269.594531 
L 652.831246 268.049164 
L 654.671624 269.350526 
L 656.512003 268.1305 
L 658.352381 266.585133 
L 660.19276 269.919872 
L 662.033138 270.895893 
L 663.873516 267.154478 
L 665.713895 266.259793 
L 667.554273 268.211835 
L 669.394652 270.651887 
L 671.23503 273.498615 
L 673.075408 274.637307 
L 674.915787 274.149296 
L 676.756165 272.359924 
L 678.596544 272.197254 
L 680.436922 272.685265 
L 682.2773 271.546573 
L 684.117679 271.058563 
L 687.798436 278.05338 
L 689.638814 276.752019 
L 691.479192 276.101338 
L 693.319571 277.72804 
L 695.159949 277.89071 
L 697.000328 273.823956 
L 698.840706 269.431861 
L 700.681084 267.317149 
L 702.521463 263.169059 
L 704.361841 262.518378 
L 706.20222 263.575735 
L 708.042598 261.217017 
L 709.882976 258.126284 
L 711.723355 258.207619 
L 713.563733 260.403666 
L 715.404112 258.532959 
L 717.24449 257.882278 
L 719.084868 261.135682 
L 720.925247 262.030368 
L 722.765625 260.078326 
L 724.606004 256.174241 
L 726.446382 253.327513 
L 728.28676 252.188822 
L 730.127139 252.026152 
L 731.967517 253.327513 
L 733.807896 253.734189 
L 735.648274 251.050131 
L 737.488653 250.07411 
L 739.329031 251.863482 
L 741.169409 251.700812 
L 743.009788 251.863482 
L 744.850166 255.848901 
L 746.690545 261.542357 
L 748.530923 263.575735 
L 750.371301 263.575735 
L 752.21168 266.178457 
L 754.052058 269.269191 
L 755.892437 271.058563 
L 757.732815 274.637307 
L 759.573193 277.646705 
L 761.413572 281.225449 
L 763.25395 285.698879 
L 765.094329 287.650921 
L 766.934707 289.033617 
L 768.775085 287.569586 
L 770.615464 286.349559 
L 772.455842 289.033617 
L 774.296221 288.464272 
L 776.136599 285.292203 
L 777.976977 284.072177 
L 779.817356 282.608145 
L 781.657734 279.680082 
L 783.498113 278.948066 
L 785.338491 277.72804 
L 787.178869 275.938668 
L 787.178869 275.938668 
" clip-path="url(#p03f06453ab)" style="fill: none; stroke: #4878d0; stroke-width: 1.5; stroke-linecap: round"/>
   </g>
   <g id="patch_8">
    <path d="M 53.42 413.472237 
L 53.42 236.413882 
" style="fill: none; stroke: #cccccc; stroke-width: 1.25; stroke-linejoin: miter; stroke-linecap: square"/>
   </g>
   <g id="patch_9">
    <path d="M 851.04 413.472237 
L 851.04 236.413882 
" style="fill: none; stroke: #cccccc; stroke-width: 1.25; stroke-linejoin: miter; stroke-linecap: square"/>
   </g>
   <g id="patch_10">
    <path d="M 53.42 413.472237 
L 851.04 413.472237 
" style="fill: none; stroke: #cccccc; stroke-width: 1.25; stroke-linejoin: miter; stroke-linecap: square"/>
   </g>
   <g id="patch_11">
    <path d="M 53.42 236.413882 
L 851.04 236.413882 
" style="fill: none; stroke: #cccccc; stroke-width: 1.25; stroke-linejoin: miter; stroke-linecap: square"/>
   </g>
   <g id="text_17">
    <!-- Trend -->
    <g style="fill: #262626" transform="translate(436.782813 230.413882) scale(0.12 -0.12)">
     <defs>
      <path id="ArialMT-54" d="M 1659 0 
L 1659 4041 
L 150 4041 
L 150 4581 
L 3781 4581 
L 3781 4041 
L 2266 4041 
L 2266 0 
L 1659 0 
z
" transform="scale(0.015625)"/>
      <path id="ArialMT-65" d="M 2694 1069 
L 3275 997 
Q 3138 488 2766 206 
Q 2394 -75 1816 -75 
Q 1088 -75 661 373 
Q 234 822 234 1631 
Q 234 2469 665 2931 
Q 1097 3394 1784 3394 
Q 2450 3394 2872 2941 
Q 3294 2488 3294 1666 
Q 3294 1616 3291 1516 
L 816 1516 
Q 847 969 1125 678 
Q 1403 388 1819 388 
Q 2128 388 2347 550 
Q 2566 713 2694 1069 
z
M 847 1978 
L 2700 1978 
Q 2663 2397 2488 2606 
Q 2219 2931 1791 2931 
Q 1403 2931 1139 2672 
Q 875 2413 847 1978 
z
" transform="scale(0.015625)"/>
      <path id="ArialMT-64" d="M 2575 0 
L 2575 419 
Q 2259 -75 1647 -75 
Q 1250 -75 917 144 
Q 584 363 401 755 
Q 219 1147 219 1656 
Q 219 2153 384 2558 
Q 550 2963 881 3178 
Q 1213 3394 1622 3394 
Q 1922 3394 2156 3267 
Q 2391 3141 2538 2938 
L 2538 4581 
L 3097 4581 
L 3097 0 
L 2575 0 
z
M 797 1656 
Q 797 1019 1065 703 
Q 1334 388 1700 388 
Q 2069 388 2326 689 
Q 2584 991 2584 1609 
Q 2584 2291 2321 2609 
Q 2059 2928 1675 2928 
Q 1300 2928 1048 2622 
Q 797 2316 797 1656 
z
" transform="scale(0.015625)"/>
     </defs>
     <use xlink:href="#ArialMT-54"/>
     <use xlink:href="#ArialMT-72" transform="translate(57.333984 0)"/>
     <use xlink:href="#ArialMT-65" transform="translate(90.634766 0)"/>
     <use xlink:href="#ArialMT-6e" transform="translate(146.25 0)"/>
     <use xlink:href="#ArialMT-64" transform="translate(201.865234 0)"/>
    </g>
   </g>
  </g>
  <g id="axes_3">
   <g id="patch_12">
    <path d="M 53.42 622.286118 
L 851.04 622.286118 
L 851.04 445.227763 
L 53.42 445.227763 
z
" style="fill: #ffffff"/>
   </g>
   <g id="matplotlib.axis_5">
    <g id="xtick_15">
     <g id="line2d_32">
      <path d="M 89.675455 622.286118 
L 89.675455 445.227763 
" clip-path="url(#p07c25cd0a9)" style="fill: none; stroke: #cccccc; stroke-linecap: round"/>
     </g>
    </g>
    <g id="xtick_16">
     <g id="line2d_33">
      <path d="M 201.938537 622.286118 
L 201.938537 445.227763 
" clip-path="url(#p07c25cd0a9)" style="fill: none; stroke: #cccccc; stroke-linecap: round"/>
     </g>
    </g>
    <g id="xtick_17">
     <g id="line2d_34">
      <path d="M 314.20162 622.286118 
L 314.20162 445.227763 
" clip-path="url(#p07c25cd0a9)" style="fill: none; stroke: #cccccc; stroke-linecap: round"/>
     </g>
    </g>
    <g id="xtick_18">
     <g id="line2d_35">
      <path d="M 422.783946 622.286118 
L 422.783946 445.227763 
" clip-path="url(#p07c25cd0a9)" style="fill: none; stroke: #cccccc; stroke-linecap: round"/>
     </g>
    </g>
    <g id="xtick_19">
     <g id="line2d_36">
      <path d="M 535.047028 622.286118 
L 535.047028 445.227763 
" clip-path="url(#p07c25cd0a9)" style="fill: none; stroke: #cccccc; stroke-linecap: round"/>
     </g>
    </g>
    <g id="xtick_20">
     <g id="line2d_37">
      <path d="M 647.310111 622.286118 
L 647.310111 445.227763 
" clip-path="url(#p07c25cd0a9)" style="fill: none; stroke: #cccccc; stroke-linecap: round"/>
     </g>
    </g>
    <g id="xtick_21">
     <g id="line2d_38">
      <path d="M 761.413572 622.286118 
L 761.413572 445.227763 
" clip-path="url(#p07c25cd0a9)" style="fill: none; stroke: #cccccc; stroke-linecap: round"/>
     </g>
    </g>
   </g>
   <g id="matplotlib.axis_6">
    <g id="ytick_16">
     <g id="line2d_39">
      <path d="M 53.42 619.660749 
L 851.04 619.660749 
" clip-path="url(#p07c25cd0a9)" style="fill: none; stroke: #cccccc; stroke-linecap: round"/>
     </g>
     <g id="text_18">
      <!-- −1000 -->
      <g style="fill: #262626" transform="translate(13.027188 623.597546) scale(0.11 -0.11)">
       <defs>
        <path id="ArialMT-2212" d="M 3381 1997 
L 356 1997 
L 356 2522 
L 3381 2522 
L 3381 1997 
z
" transform="scale(0.015625)"/>
        <path id="ArialMT-31" d="M 2384 0 
L 1822 0 
L 1822 3584 
Q 1619 3391 1289 3197 
Q 959 3003 697 2906 
L 697 3450 
Q 1169 3672 1522 3987 
Q 1875 4303 2022 4600 
L 2384 4600 
L 2384 0 
z
" transform="scale(0.015625)"/>
       </defs>
       <use xlink:href="#ArialMT-2212"/>
       <use xlink:href="#ArialMT-31" transform="translate(58.398438 0)"/>
       <use xlink:href="#ArialMT-30" transform="translate(114.013672 0)"/>
       <use xlink:href="#ArialMT-30" transform="translate(169.628906 0)"/>
       <use xlink:href="#ArialMT-30" transform="translate(225.244141 0)"/>
      </g>
     </g>
    </g>
    <g id="ytick_17">
     <g id="line2d_40">
      <path d="M 53.42 594.584424 
L 851.04 594.584424 
" clip-path="url(#p07c25cd0a9)" style="fill: none; stroke: #cccccc; stroke-linecap: round"/>
     </g>
     <g id="text_19">
      <!-- −750 -->
      <g style="fill: #262626" transform="translate(19.144219 598.521221) scale(0.11 -0.11)">
       <use xlink:href="#ArialMT-2212"/>
       <use xlink:href="#ArialMT-37" transform="translate(58.398438 0)"/>
       <use xlink:href="#ArialMT-35" transform="translate(114.013672 0)"/>
       <use xlink:href="#ArialMT-30" transform="translate(169.628906 0)"/>
      </g>
     </g>
    </g>
    <g id="ytick_18">
     <g id="line2d_41">
      <path d="M 53.42 569.5081 
L 851.04 569.5081 
" clip-path="url(#p07c25cd0a9)" style="fill: none; stroke: #cccccc; stroke-linecap: round"/>
     </g>
     <g id="text_20">
      <!-- −500 -->
      <g style="fill: #262626" transform="translate(19.144219 573.444896) scale(0.11 -0.11)">
       <use xlink:href="#ArialMT-2212"/>
       <use xlink:href="#ArialMT-35" transform="translate(58.398438 0)"/>
       <use xlink:href="#ArialMT-30" transform="translate(114.013672 0)"/>
       <use xlink:href="#ArialMT-30" transform="translate(169.628906 0)"/>
      </g>
     </g>
    </g>
    <g id="ytick_19">
     <g id="line2d_42">
      <path d="M 53.42 544.431775 
L 851.04 544.431775 
" clip-path="url(#p07c25cd0a9)" style="fill: none; stroke: #cccccc; stroke-linecap: round"/>
     </g>
     <g id="text_21">
      <!-- −250 -->
      <g style="fill: #262626" transform="translate(19.144219 548.368572) scale(0.11 -0.11)">
       <use xlink:href="#ArialMT-2212"/>
       <use xlink:href="#ArialMT-32" transform="translate(58.398438 0)"/>
       <use xlink:href="#ArialMT-35" transform="translate(114.013672 0)"/>
       <use xlink:href="#ArialMT-30" transform="translate(169.628906 0)"/>
      </g>
     </g>
    </g>
    <g id="ytick_20">
     <g id="line2d_43">
      <path d="M 53.42 519.35545 
L 851.04 519.35545 
" clip-path="url(#p07c25cd0a9)" style="fill: none; stroke: #cccccc; stroke-linecap: round"/>
     </g>
     <g id="text_22">
      <!-- 0 -->
      <g style="fill: #262626" transform="translate(37.802969 523.292247) scale(0.11 -0.11)">
       <use xlink:href="#ArialMT-30"/>
      </g>
     </g>
    </g>
    <g id="ytick_21">
     <g id="line2d_44">
      <path d="M 53.42 494.279126 
L 851.04 494.279126 
" clip-path="url(#p07c25cd0a9)" style="fill: none; stroke: #cccccc; stroke-linecap: round"/>
     </g>
     <g id="text_23">
      <!-- 250 -->
      <g style="fill: #262626" transform="translate(25.568906 498.215923) scale(0.11 -0.11)">
       <use xlink:href="#ArialMT-32"/>
       <use xlink:href="#ArialMT-35" transform="translate(55.615234 0)"/>
       <use xlink:href="#ArialMT-30" transform="translate(111.230469 0)"/>
      </g>
     </g>
    </g>
    <g id="ytick_22">
     <g id="line2d_45">
      <path d="M 53.42 469.202801 
L 851.04 469.202801 
" clip-path="url(#p07c25cd0a9)" style="fill: none; stroke: #cccccc; stroke-linecap: round"/>
     </g>
     <g id="text_24">
      <!-- 500 -->
      <g style="fill: #262626" transform="translate(25.568906 473.139598) scale(0.11 -0.11)">
       <use xlink:href="#ArialMT-35"/>
       <use xlink:href="#ArialMT-30" transform="translate(55.615234 0)"/>
       <use xlink:href="#ArialMT-30" transform="translate(111.230469 0)"/>
      </g>
     </g>
    </g>
   </g>
   <g id="line2d_46">
    <path d="M 89.675455 605.05729 
L 91.515833 516.649315 
L 93.356211 570.619138 
L 95.19659 491.600853 
L 97.036968 489.678335 
L 98.877347 538.730412 
L 100.717725 516.105995 
L 102.558103 502.550848 
L 104.398482 554.918572 
L 106.23886 501.241307 
L 108.079239 561.117997 
L 109.919617 453.27587 
L 111.759995 540.22106 
L 113.600374 493.885585 
L 115.440752 461.592851 
L 117.281131 478.250389 
L 119.121509 474.52109 
L 120.961887 524.082195 
L 122.802266 540.041025 
L 124.642644 525.483897 
L 126.483023 455.114801 
L 128.323401 601.156529 
L 130.163779 524.032899 
L 132.004158 491.266502 
L 133.844536 496.003141 
L 135.684915 559.724868 
L 137.525293 614.238011 
L 139.365671 478.797996 
L 141.20605 539.050832 
L 143.046428 481.653911 
L 144.886807 605.05729 
L 146.727185 516.649315 
L 148.567563 570.619138 
L 150.407942 491.600853 
L 152.24832 489.678335 
L 154.088699 538.730412 
L 155.929077 516.105995 
L 157.769455 502.550848 
L 159.609834 554.918572 
L 161.450212 501.241307 
L 163.290591 561.117997 
L 165.130969 453.27587 
L 166.971347 540.22106 
L 168.811726 493.885585 
L 170.652104 461.592851 
L 172.492483 478.250389 
L 174.332861 474.52109 
L 176.17324 524.082195 
L 178.013618 540.041025 
L 179.853996 525.483897 
L 181.694375 455.114801 
L 183.534753 601.156529 
L 185.375132 524.032899 
L 187.21551 491.266502 
L 189.055888 496.003141 
L 190.896267 559.724868 
L 192.736645 614.238011 
L 194.577024 478.797996 
L 196.417402 539.050832 
L 198.25778 481.653911 
L 200.098159 605.05729 
L 201.938537 516.649315 
L 203.778916 570.619138 
L 205.619294 491.600853 
L 207.459672 489.678335 
L 209.300051 538.730412 
L 211.140429 516.105995 
L 212.980808 502.550848 
L 214.821186 554.918572 
L 216.661564 501.241307 
L 218.501943 561.117997 
L 220.342321 453.27587 
L 222.1827 540.22106 
L 224.023078 493.885585 
L 225.863456 461.592851 
L 227.703835 478.250389 
L 229.544213 474.52109 
L 231.384592 524.082195 
L 233.22497 540.041025 
L 235.065348 525.483897 
L 236.905727 455.114801 
L 238.746105 601.156529 
L 240.586484 524.032899 
L 242.426862 491.266502 
L 244.26724 496.003141 
L 246.107619 559.724868 
L 247.947997 614.238011 
L 249.788376 478.797996 
L 251.628754 539.050832 
L 253.469132 481.653911 
L 255.309511 605.05729 
L 257.149889 516.649315 
L 258.990268 570.619138 
L 260.830646 491.600853 
L 262.671024 489.678335 
L 264.511403 538.730412 
L 266.351781 516.105995 
L 268.19216 502.550848 
L 270.032538 554.918572 
L 271.872916 501.241307 
L 273.713295 561.117997 
L 275.553673 453.27587 
L 277.394052 540.22106 
L 279.23443 493.885585 
L 281.074808 461.592851 
L 282.915187 478.250389 
L 284.755565 474.52109 
L 286.595944 524.082195 
L 288.436322 540.041025 
L 290.276701 525.483897 
L 292.117079 455.114801 
L 293.957457 601.156529 
L 295.797836 524.032899 
L 297.638214 491.266502 
L 299.478593 496.003141 
L 301.318971 559.724868 
L 303.159349 614.238011 
L 304.999728 478.797996 
L 306.840106 539.050832 
L 308.680485 481.653911 
L 310.520863 605.05729 
L 312.361241 516.649315 
L 314.20162 570.619138 
L 316.041998 491.600853 
L 317.882377 489.678335 
L 319.722755 538.730412 
L 321.563133 516.105995 
L 323.403512 502.550848 
L 325.24389 554.918572 
L 327.084269 501.241307 
L 328.924647 561.117997 
L 330.765025 453.27587 
L 332.605404 540.22106 
L 334.445782 493.885585 
L 336.286161 461.592851 
L 338.126539 478.250389 
L 339.966917 474.52109 
L 341.807296 524.082195 
L 343.647674 540.041025 
L 345.488053 525.483897 
L 347.328431 455.114801 
L 349.168809 601.156529 
L 351.009188 524.032899 
L 352.849566 491.266502 
L 354.689945 496.003141 
L 356.530323 559.724868 
L 358.370701 614.238011 
L 360.21108 478.797996 
L 362.051458 539.050832 
L 363.891837 481.653911 
L 365.732215 605.05729 
L 367.572593 516.649315 
L 369.412972 570.619138 
L 371.25335 491.600853 
L 373.093729 489.678335 
L 374.934107 538.730412 
L 376.774485 516.105995 
L 378.614864 502.550848 
L 380.455242 554.918572 
L 382.295621 501.241307 
L 384.135999 561.117997 
L 385.976377 453.27587 
L 387.816756 540.22106 
L 389.657134 493.885585 
L 391.497513 461.592851 
L 393.337891 478.250389 
L 395.178269 474.52109 
L 397.018648 524.082195 
L 398.859026 540.041025 
L 400.699405 525.483897 
L 402.539783 455.114801 
L 404.380162 601.156529 
L 406.22054 524.032899 
L 408.060918 491.266502 
L 409.901297 496.003141 
L 411.741675 559.724868 
L 413.582054 614.238011 
L 415.422432 478.797996 
L 417.26281 539.050832 
L 419.103189 481.653911 
L 420.943567 605.05729 
L 422.783946 516.649315 
L 424.624324 570.619138 
L 426.464702 491.600853 
L 428.305081 489.678335 
L 430.145459 538.730412 
L 431.985838 516.105995 
L 433.826216 502.550848 
L 435.666594 554.918572 
L 437.506973 501.241307 
L 439.347351 561.117997 
L 441.18773 453.27587 
L 443.028108 540.22106 
L 444.868486 493.885585 
L 446.708865 461.592851 
L 448.549243 478.250389 
L 450.389622 474.52109 
L 452.23 524.082195 
L 454.070378 540.041025 
L 455.910757 525.483897 
L 457.751135 455.114801 
L 459.591514 601.156529 
L 461.431892 524.032899 
L 463.27227 491.266502 
L 465.112649 496.003141 
L 466.953027 559.724868 
L 468.793406 614.238011 
L 470.633784 478.797996 
L 472.474162 539.050832 
L 474.314541 481.653911 
L 476.154919 605.05729 
L 477.995298 516.649315 
L 479.835676 570.619138 
L 481.676054 491.600853 
L 483.516433 489.678335 
L 485.356811 538.730412 
L 487.19719 516.105995 
L 489.037568 502.550848 
L 490.877946 554.918572 
L 492.718325 501.241307 
L 494.558703 561.117997 
L 496.399082 453.27587 
L 498.23946 540.22106 
L 500.079838 493.885585 
L 501.920217 461.592851 
L 503.760595 478.250389 
L 505.600974 474.52109 
L 507.441352 524.082195 
L 509.281731 540.041025 
L 511.122109 525.483897 
L 512.962487 455.114801 
L 514.802866 601.156529 
L 516.643244 524.032899 
L 518.483623 491.266502 
L 520.324001 496.003141 
L 522.164379 559.724868 
L 524.004758 614.238011 
L 525.845136 478.797996 
L 527.685515 539.050832 
L 529.525893 481.653911 
L 531.366271 605.05729 
L 533.20665 516.649315 
L 535.047028 570.619138 
L 536.887407 491.600853 
L 538.727785 489.678335 
L 540.568163 538.730412 
L 542.408542 516.105995 
L 544.24892 502.550848 
L 546.089299 554.918572 
L 547.929677 501.241307 
L 549.770055 561.117997 
L 551.610434 453.27587 
L 553.450812 540.22106 
L 555.291191 493.885585 
L 557.131569 461.592851 
L 558.971947 478.250389 
L 560.812326 474.52109 
L 562.652704 524.082195 
L 564.493083 540.041025 
L 566.333461 525.483897 
L 568.173839 455.114801 
L 570.014218 601.156529 
L 571.854596 524.032899 
L 573.694975 491.266502 
L 575.535353 496.003141 
L 577.375731 559.724868 
L 579.21611 614.238011 
L 581.056488 478.797996 
L 582.896867 539.050832 
L 584.737245 481.653911 
L 586.577623 605.05729 
L 588.418002 516.649315 
L 590.25838 570.619138 
L 592.098759 491.600853 
L 593.939137 489.678335 
L 595.779515 538.730412 
L 597.619894 516.105995 
L 599.460272 502.550848 
L 601.300651 554.918572 
L 603.141029 501.241307 
L 604.981407 561.117997 
L 606.821786 453.27587 
L 608.662164 540.22106 
L 610.502543 493.885585 
L 612.342921 461.592851 
L 614.183299 478.250389 
L 616.023678 474.52109 
L 617.864056 524.082195 
L 619.704435 540.041025 
L 621.544813 525.483897 
L 623.385192 455.114801 
L 625.22557 601.156529 
L 627.065948 524.032899 
L 628.906327 491.266502 
L 630.746705 496.003141 
L 632.587084 559.724868 
L 634.427462 614.238011 
L 636.26784 478.797996 
L 638.108219 539.050832 
L 639.948597 481.653911 
L 641.788976 605.05729 
L 643.629354 516.649315 
L 645.469732 570.619138 
L 647.310111 491.600853 
L 649.150489 489.678335 
L 650.990868 538.730412 
L 652.831246 516.105995 
L 654.671624 502.550848 
L 656.512003 554.918572 
L 658.352381 501.241307 
L 660.19276 561.117997 
L 662.033138 453.27587 
L 663.873516 540.22106 
L 665.713895 493.885585 
L 667.554273 461.592851 
L 669.394652 478.250389 
L 671.23503 474.52109 
L 673.075408 524.082195 
L 674.915787 540.041025 
L 676.756165 525.483897 
L 678.596544 455.114801 
L 680.436922 601.156529 
L 682.2773 524.032899 
L 684.117679 491.266502 
L 685.958057 496.003141 
L 687.798436 559.724868 
L 689.638814 614.238011 
L 691.479192 478.797996 
L 693.319571 539.050832 
L 695.159949 481.653911 
L 697.000328 605.05729 
L 698.840706 516.649315 
L 700.681084 570.619138 
L 702.521463 491.600853 
L 704.361841 489.678335 
L 706.20222 538.730412 
L 708.042598 516.105995 
L 709.882976 502.550848 
L 711.723355 554.918572 
L 713.563733 501.241307 
L 715.404112 561.117997 
L 717.24449 453.27587 
L 719.084868 540.22106 
L 720.925247 493.885585 
L 722.765625 461.592851 
L 724.606004 478.250389 
L 726.446382 474.52109 
L 728.28676 524.082195 
L 730.127139 540.041025 
L 731.967517 525.483897 
L 733.807896 455.114801 
L 735.648274 601.156529 
L 737.488653 524.032899 
L 739.329031 491.266502 
L 741.169409 496.003141 
L 743.009788 559.724868 
L 744.850166 614.238011 
L 746.690545 478.797996 
L 748.530923 539.050832 
L 750.371301 481.653911 
L 752.21168 605.05729 
L 754.052058 516.649315 
L 755.892437 570.619138 
L 757.732815 491.600853 
L 759.573193 489.678335 
L 761.413572 538.730412 
L 763.25395 516.105995 
L 765.094329 502.550848 
L 766.934707 554.918572 
L 768.775085 501.241307 
L 770.615464 561.117997 
L 772.455842 453.27587 
L 774.296221 540.22106 
L 776.136599 493.885585 
L 777.976977 461.592851 
L 779.817356 478.250389 
L 781.657734 474.52109 
L 783.498113 524.082195 
L 785.338491 540.041025 
L 787.178869 525.483897 
L 789.019248 455.114801 
L 790.859626 601.156529 
L 792.700005 524.032899 
L 794.540383 491.266502 
L 796.380761 496.003141 
L 798.22114 559.724868 
L 800.061518 614.238011 
L 801.901897 478.797996 
L 803.742275 539.050832 
L 805.582653 481.653911 
L 807.423032 605.05729 
L 809.26341 516.649315 
L 811.103789 570.619138 
L 812.944167 491.600853 
L 814.784545 489.678335 
L 814.784545 489.678335 
" clip-path="url(#p07c25cd0a9)" style="fill: none; stroke: #4878d0; stroke-width: 1.5; stroke-linecap: round"/>
   </g>
   <g id="patch_13">
    <path d="M 53.42 622.286118 
L 53.42 445.227763 
" style="fill: none; stroke: #cccccc; stroke-width: 1.25; stroke-linejoin: miter; stroke-linecap: square"/>
   </g>
   <g id="patch_14">
    <path d="M 851.04 622.286118 
L 851.04 445.227763 
" style="fill: none; stroke: #cccccc; stroke-width: 1.25; stroke-linejoin: miter; stroke-linecap: square"/>
   </g>
   <g id="patch_15">
    <path d="M 53.42 622.286118 
L 851.04 622.286118 
" style="fill: none; stroke: #cccccc; stroke-width: 1.25; stroke-linejoin: miter; stroke-linecap: square"/>
   </g>
   <g id="patch_16">
    <path d="M 53.42 445.227763 
L 851.04 445.227763 
" style="fill: none; stroke: #cccccc; stroke-width: 1.25; stroke-linejoin: miter; stroke-linecap: square"/>
   </g>
   <g id="text_25">
    <!-- Seasonal -->
    <g style="fill: #262626" transform="translate(427.211875 439.227763) scale(0.12 -0.12)">
     <defs>
      <path id="ArialMT-53" d="M 288 1472 
L 859 1522 
Q 900 1178 1048 958 
Q 1197 738 1509 602 
Q 1822 466 2213 466 
Q 2559 466 2825 569 
Q 3091 672 3220 851 
Q 3350 1031 3350 1244 
Q 3350 1459 3225 1620 
Q 3100 1781 2813 1891 
Q 2628 1963 1997 2114 
Q 1366 2266 1113 2400 
Q 784 2572 623 2826 
Q 463 3081 463 3397 
Q 463 3744 659 4045 
Q 856 4347 1234 4503 
Q 1613 4659 2075 4659 
Q 2584 4659 2973 4495 
Q 3363 4331 3572 4012 
Q 3781 3694 3797 3291 
L 3216 3247 
Q 3169 3681 2898 3903 
Q 2628 4125 2100 4125 
Q 1550 4125 1298 3923 
Q 1047 3722 1047 3438 
Q 1047 3191 1225 3031 
Q 1400 2872 2139 2705 
Q 2878 2538 3153 2413 
Q 3553 2228 3743 1945 
Q 3934 1663 3934 1294 
Q 3934 928 3725 604 
Q 3516 281 3123 101 
Q 2731 -78 2241 -78 
Q 1619 -78 1198 103 
Q 778 284 539 648 
Q 300 1013 288 1472 
z
" transform="scale(0.015625)"/>
      <path id="ArialMT-73" d="M 197 991 
L 753 1078 
Q 800 744 1014 566 
Q 1228 388 1613 388 
Q 2000 388 2187 545 
Q 2375 703 2375 916 
Q 2375 1106 2209 1216 
Q 2094 1291 1634 1406 
Q 1016 1563 777 1677 
Q 538 1791 414 1992 
Q 291 2194 291 2438 
Q 291 2659 392 2848 
Q 494 3038 669 3163 
Q 800 3259 1026 3326 
Q 1253 3394 1513 3394 
Q 1903 3394 2198 3281 
Q 2494 3169 2634 2976 
Q 2775 2784 2828 2463 
L 2278 2388 
Q 2241 2644 2061 2787 
Q 1881 2931 1553 2931 
Q 1166 2931 1000 2803 
Q 834 2675 834 2503 
Q 834 2394 903 2306 
Q 972 2216 1119 2156 
Q 1203 2125 1616 2013 
Q 2213 1853 2448 1751 
Q 2684 1650 2818 1456 
Q 2953 1263 2953 975 
Q 2953 694 2789 445 
Q 2625 197 2315 61 
Q 2006 -75 1616 -75 
Q 969 -75 630 194 
Q 291 463 197 991 
z
" transform="scale(0.015625)"/>
      <path id="ArialMT-6f" d="M 213 1659 
Q 213 2581 725 3025 
Q 1153 3394 1769 3394 
Q 2453 3394 2887 2945 
Q 3322 2497 3322 1706 
Q 3322 1066 3130 698 
Q 2938 331 2570 128 
Q 2203 -75 1769 -75 
Q 1072 -75 642 372 
Q 213 819 213 1659 
z
M 791 1659 
Q 791 1022 1069 705 
Q 1347 388 1769 388 
Q 2188 388 2466 706 
Q 2744 1025 2744 1678 
Q 2744 2294 2464 2611 
Q 2184 2928 1769 2928 
Q 1347 2928 1069 2612 
Q 791 2297 791 1659 
z
" transform="scale(0.015625)"/>
     </defs>
     <use xlink:href="#ArialMT-53"/>
     <use xlink:href="#ArialMT-65" transform="translate(66.699219 0)"/>
     <use xlink:href="#ArialMT-61" transform="translate(122.314453 0)"/>
     <use xlink:href="#ArialMT-73" transform="translate(177.929688 0)"/>
     <use xlink:href="#ArialMT-6f" transform="translate(227.929688 0)"/>
     <use xlink:href="#ArialMT-6e" transform="translate(283.544922 0)"/>
     <use xlink:href="#ArialMT-61" transform="translate(339.160156 0)"/>
     <use xlink:href="#ArialMT-6c" transform="translate(394.775391 0)"/>
    </g>
   </g>
  </g>
  <g id="axes_4">
   <g id="patch_17">
    <path d="M 53.42 831.1 
L 851.04 831.1 
L 851.04 654.041645 
L 53.42 654.041645 
z
" style="fill: #ffffff"/>
   </g>
   <g id="matplotlib.axis_7">
    <g id="xtick_22">
     <g id="line2d_47">
      <path d="M 89.675455 831.1 
L 89.675455 654.041645 
" clip-path="url(#p57e31f889f)" style="fill: none; stroke: #cccccc; stroke-linecap: round"/>
     </g>
     <g id="text_26">
      <!-- 2024-09 -->
      <g style="fill: #262626" transform="translate(69.493033 848.473594) scale(0.11 -0.11)">
       <defs>
        <path id="ArialMT-2d" d="M 203 1375 
L 203 1941 
L 1931 1941 
L 1931 1375 
L 203 1375 
z
" transform="scale(0.015625)"/>
       </defs>
       <use xlink:href="#ArialMT-32"/>
       <use xlink:href="#ArialMT-30" transform="translate(55.615234 0)"/>
       <use xlink:href="#ArialMT-32" transform="translate(111.230469 0)"/>
       <use xlink:href="#ArialMT-34" transform="translate(166.845703 0)"/>
       <use xlink:href="#ArialMT-2d" transform="translate(222.460938 0)"/>
       <use xlink:href="#ArialMT-30" transform="translate(255.761719 0)"/>
       <use xlink:href="#ArialMT-39" transform="translate(311.376953 0)"/>
      </g>
     </g>
    </g>
    <g id="xtick_23">
     <g id="line2d_48">
      <path d="M 201.938537 831.1 
L 201.938537 654.041645 
" clip-path="url(#p57e31f889f)" style="fill: none; stroke: #cccccc; stroke-linecap: round"/>
     </g>
     <g id="text_27">
      <!-- 2024-11 -->
      <g style="fill: #262626" transform="translate(182.16174 848.473594) scale(0.11 -0.11)">
       <use xlink:href="#ArialMT-32"/>
       <use xlink:href="#ArialMT-30" transform="translate(55.615234 0)"/>
       <use xlink:href="#ArialMT-32" transform="translate(111.230469 0)"/>
       <use xlink:href="#ArialMT-34" transform="translate(166.845703 0)"/>
       <use xlink:href="#ArialMT-2d" transform="translate(222.460938 0)"/>
       <use xlink:href="#ArialMT-31" transform="translate(255.761719 0)"/>
       <use xlink:href="#ArialMT-31" transform="translate(304.001953 0)"/>
      </g>
     </g>
    </g>
    <g id="xtick_24">
     <g id="line2d_49">
      <path d="M 314.20162 831.1 
L 314.20162 654.041645 
" clip-path="url(#p57e31f889f)" style="fill: none; stroke: #cccccc; stroke-linecap: round"/>
     </g>
     <g id="text_28">
      <!-- 2025-01 -->
      <g style="fill: #262626" transform="translate(294.019198 848.473594) scale(0.11 -0.11)">
       <use xlink:href="#ArialMT-32"/>
       <use xlink:href="#ArialMT-30" transform="translate(55.615234 0)"/>
       <use xlink:href="#ArialMT-32" transform="translate(111.230469 0)"/>
       <use xlink:href="#ArialMT-35" transform="translate(166.845703 0)"/>
       <use xlink:href="#ArialMT-2d" transform="translate(222.460938 0)"/>
       <use xlink:href="#ArialMT-30" transform="translate(255.761719 0)"/>
       <use xlink:href="#ArialMT-31" transform="translate(311.376953 0)"/>
      </g>
     </g>
    </g>
    <g id="xtick_25">
     <g id="line2d_50">
      <path d="M 422.783946 831.1 
L 422.783946 654.041645 
" clip-path="url(#p57e31f889f)" style="fill: none; stroke: #cccccc; stroke-linecap: round"/>
     </g>
     <g id="text_29">
      <!-- 2025-03 -->
      <g style="fill: #262626" transform="translate(402.601524 848.473594) scale(0.11 -0.11)">
       <use xlink:href="#ArialMT-32"/>
       <use xlink:href="#ArialMT-30" transform="translate(55.615234 0)"/>
       <use xlink:href="#ArialMT-32" transform="translate(111.230469 0)"/>
       <use xlink:href="#ArialMT-35" transform="translate(166.845703 0)"/>
       <use xlink:href="#ArialMT-2d" transform="translate(222.460938 0)"/>
       <use xlink:href="#ArialMT-30" transform="translate(255.761719 0)"/>
       <use xlink:href="#ArialMT-33" transform="translate(311.376953 0)"/>
      </g>
     </g>
    </g>
    <g id="xtick_26">
     <g id="line2d_51">
      <path d="M 535.047028 831.1 
L 535.047028 654.041645 
" clip-path="url(#p57e31f889f)" style="fill: none; stroke: #cccccc; stroke-linecap: round"/>
     </g>
     <g id="text_30">
      <!-- 2025-05 -->
      <g style="fill: #262626" transform="translate(514.864606 848.473594) scale(0.11 -0.11)">
       <use xlink:href="#ArialMT-32"/>
       <use xlink:href="#ArialMT-30" transform="translate(55.615234 0)"/>
       <use xlink:href="#ArialMT-32" transform="translate(111.230469 0)"/>
       <use xlink:href="#ArialMT-35" transform="translate(166.845703 0)"/>
       <use xlink:href="#ArialMT-2d" transform="translate(222.460938 0)"/>
       <use xlink:href="#ArialMT-30" transform="translate(255.761719 0)"/>
       <use xlink:href="#ArialMT-35" transform="translate(311.376953 0)"/>
      </g>
     </g>
    </g>
    <g id="xtick_27">
     <g id="line2d_52">
      <path d="M 647.310111 831.1 
L 647.310111 654.041645 
" clip-path="url(#p57e31f889f)" style="fill: none; stroke: #cccccc; stroke-linecap: round"/>
     </g>
     <g id="text_31">
      <!-- 2025-07 -->
      <g style="fill: #262626" transform="translate(627.127689 848.473594) scale(0.11 -0.11)">
       <use xlink:href="#ArialMT-32"/>
       <use xlink:href="#ArialMT-30" transform="translate(55.615234 0)"/>
       <use xlink:href="#ArialMT-32" transform="translate(111.230469 0)"/>
       <use xlink:href="#ArialMT-35" transform="translate(166.845703 0)"/>
       <use xlink:href="#ArialMT-2d" transform="translate(222.460938 0)"/>
       <use xlink:href="#ArialMT-30" transform="translate(255.761719 0)"/>
       <use xlink:href="#ArialMT-37" transform="translate(311.376953 0)"/>
      </g>
     </g>
    </g>
    <g id="xtick_28">
     <g id="line2d_53">
      <path d="M 761.413572 831.1 
L 761.413572 654.041645 
" clip-path="url(#p57e31f889f)" style="fill: none; stroke: #cccccc; stroke-linecap: round"/>
     </g>
     <g id="text_32">
      <!-- 2025-09 -->
      <g style="fill: #262626" transform="translate(741.23115 848.473594) scale(0.11 -0.11)">
       <use xlink:href="#ArialMT-32"/>
       <use xlink:href="#ArialMT-30" transform="translate(55.615234 0)"/>
       <use xlink:href="#ArialMT-32" transform="translate(111.230469 0)"/>
       <use xlink:href="#ArialMT-35" transform="translate(166.845703 0)"/>
       <use xlink:href="#ArialMT-2d" transform="translate(222.460938 0)"/>
       <use xlink:href="#ArialMT-30" transform="translate(255.761719 0)"/>
       <use xlink:href="#ArialMT-39" transform="translate(311.376953 0)"/>
      </g>
     </g>
    </g>
   </g>
   <g id="matplotlib.axis_8">
    <g id="ytick_23">
     <g id="line2d_54">
      <path d="M 53.42 807.765888 
L 851.04 807.765888 
" clip-path="url(#p57e31f889f)" style="fill: none; stroke: #cccccc; stroke-linecap: round"/>
     </g>
     <g id="text_33">
      <!-- −4000 -->
      <g style="fill: #262626" transform="translate(13.027188 811.702684) scale(0.11 -0.11)">
       <use xlink:href="#ArialMT-2212"/>
       <use xlink:href="#ArialMT-34" transform="translate(58.398438 0)"/>
       <use xlink:href="#ArialMT-30" transform="translate(114.013672 0)"/>
       <use xlink:href="#ArialMT-30" transform="translate(169.628906 0)"/>
       <use xlink:href="#ArialMT-30" transform="translate(225.244141 0)"/>
      </g>
     </g>
    </g>
    <g id="ytick_24">
     <g id="line2d_55">
      <path d="M 53.42 773.703677 
L 851.04 773.703677 
" clip-path="url(#p57e31f889f)" style="fill: none; stroke: #cccccc; stroke-linecap: round"/>
     </g>
     <g id="text_34">
      <!-- −2000 -->
      <g style="fill: #262626" transform="translate(13.027188 777.640474) scale(0.11 -0.11)">
       <use xlink:href="#ArialMT-2212"/>
       <use xlink:href="#ArialMT-32" transform="translate(58.398438 0)"/>
       <use xlink:href="#ArialMT-30" transform="translate(114.013672 0)"/>
       <use xlink:href="#ArialMT-30" transform="translate(169.628906 0)"/>
       <use xlink:href="#ArialMT-30" transform="translate(225.244141 0)"/>
      </g>
     </g>
    </g>
    <g id="ytick_25">
     <g id="line2d_56">
      <path d="M 53.42 739.641466 
L 851.04 739.641466 
" clip-path="url(#p57e31f889f)" style="fill: none; stroke: #cccccc; stroke-linecap: round"/>
     </g>
     <g id="text_35">
      <!-- 0 -->
      <g style="fill: #262626" transform="translate(37.802969 743.578263) scale(0.11 -0.11)">
       <use xlink:href="#ArialMT-30"/>
      </g>
     </g>
    </g>
    <g id="ytick_26">
     <g id="line2d_57">
      <path d="M 53.42 705.579256 
L 851.04 705.579256 
" clip-path="url(#p57e31f889f)" style="fill: none; stroke: #cccccc; stroke-linecap: round"/>
     </g>
     <g id="text_36">
      <!-- 2000 -->
      <g style="fill: #262626" transform="translate(19.451875 709.516052) scale(0.11 -0.11)">
       <use xlink:href="#ArialMT-32"/>
       <use xlink:href="#ArialMT-30" transform="translate(55.615234 0)"/>
       <use xlink:href="#ArialMT-30" transform="translate(111.230469 0)"/>
       <use xlink:href="#ArialMT-30" transform="translate(166.845703 0)"/>
      </g>
     </g>
    </g>
    <g id="ytick_27">
     <g id="line2d_58">
      <path d="M 53.42 671.517045 
L 851.04 671.517045 
" clip-path="url(#p57e31f889f)" style="fill: none; stroke: #cccccc; stroke-linecap: round"/>
     </g>
     <g id="text_37">
      <!-- 4000 -->
      <g style="fill: #262626" transform="translate(19.451875 675.453842) scale(0.11 -0.11)">
       <use xlink:href="#ArialMT-34"/>
       <use xlink:href="#ArialMT-30" transform="translate(55.615234 0)"/>
       <use xlink:href="#ArialMT-30" transform="translate(111.230469 0)"/>
       <use xlink:href="#ArialMT-30" transform="translate(166.845703 0)"/>
      </g>
     </g>
    </g>
   </g>
   <g id="line2d_59">
    <path d="M 117.281131 773.104174 
L 119.121509 756.819817 
L 120.961887 697.339773 
L 122.802266 734.9938 
L 124.642644 713.849028 
L 126.483023 764.173943 
L 128.323401 745.167702 
L 130.163779 739.471744 
L 132.004158 745.830023 
L 133.844536 739.17843 
L 135.684915 823.051893 
L 137.525293 805.961652 
L 139.365671 688.451756 
L 141.20605 717.222497 
L 143.046428 684.27677 
L 144.886807 776.353548 
L 146.727185 731.926018 
L 148.567563 743.142893 
L 150.407942 704.501207 
L 152.24832 762.222462 
L 154.088699 695.93125 
L 155.929077 785.240474 
L 157.769455 757.027975 
L 159.609834 689.889938 
L 161.450212 719.725123 
L 163.290591 736.637957 
L 165.130969 775.471242 
L 166.971347 750.206071 
L 168.811726 818.108142 
L 170.652104 730.771687 
L 172.492483 706.768018 
L 174.332861 714.383979 
L 176.17324 746.843519 
L 178.013618 746.404641 
L 179.853996 734.399895 
L 181.694375 746.177741 
L 183.534753 743.18074 
L 185.375132 734.759804 
L 187.21551 773.136562 
L 189.055888 691.264254 
L 190.896267 668.012064 
L 192.736645 741.186681 
L 194.577024 760.379791 
L 196.417402 715.860008 
L 198.25778 737.186737 
L 200.098159 768.121847 
L 201.938537 722.416984 
L 203.778916 738.856731 
L 205.619294 761.754106 
L 207.459672 741.245817 
L 209.300051 713.075896 
L 211.140429 673.374497 
L 212.980808 716.153322 
L 214.821186 792.190111 
L 216.661564 766.418737 
L 218.501943 801.668394 
L 220.342321 740.103314 
L 222.1827 774.361855 
L 224.023078 673.769524 
L 225.863456 763.357869 
L 227.703835 801.006801 
L 229.544213 758.608083 
L 231.384592 769.494889 
L 233.22497 735.788585 
L 235.065348 739.622767 
L 236.905727 678.734564 
L 238.746105 736.368298 
L 240.586484 726.244252 
L 242.426862 752.386998 
L 244.26724 723.197576 
L 246.107619 740.11041 
L 247.947997 733.806536 
L 249.788376 665.402993 
L 251.628754 757.160439 
L 253.469132 733.156042 
L 255.309511 771.528068 
L 257.149889 730.421603 
L 258.990268 789.722966 
L 260.830646 723.60443 
L 262.671024 688.761627 
L 264.511403 729.255446 
L 266.351781 802.299964 
L 268.19216 732.162561 
L 270.032538 744.616557 
L 271.872916 756.285229 
L 273.713295 760.765356 
L 275.553673 686.483717 
L 277.394052 670.046335 
L 279.23443 764.091152 
L 281.074808 729.863362 
L 282.915187 722.834028 
L 284.755565 702.121583 
L 286.595944 777.953672 
L 288.436322 771.724217 
L 290.276701 740.871715 
L 292.117079 780.239952 
L 293.957457 741.477629 
L 295.797836 747.589904 
L 297.638214 752.159917 
L 299.478593 746.076028 
L 301.318971 728.586029 
L 303.159349 749.929315 
L 304.999728 708.49169 
L 306.840106 707.20253 
L 308.680485 767.558875 
L 310.520863 735.024733 
L 312.361241 765.817917 
L 314.20162 750.068876 
L 316.041998 713.300612 
L 317.882377 703.323222 
L 319.722755 756.164592 
L 321.563133 749.673849 
L 323.403512 751.521251 
L 325.24389 742.970216 
L 327.084269 728.723224 
L 328.924647 742.229836 
L 330.765025 774.591302 
L 332.605404 735.928327 
L 334.445782 742.490034 
L 336.286161 747.46217 
L 338.126539 755.022817 
L 339.966917 715.462616 
L 341.807296 724.930164 
L 343.647674 745.553085 
L 345.488053 746.435209 
L 347.328431 757.418271 
L 349.168809 746.189568 
L 351.009188 746.057104 
L 352.849566 711.143338 
L 354.689945 737.191468 
L 356.530323 725.974593 
L 358.370701 706.727078 
L 360.21108 739.999235 
L 362.051458 743.223318 
L 363.891837 753.763679 
L 365.732215 734.57057 
L 367.572593 726.646375 
L 369.412972 741.780404 
L 371.25335 755.537753 
L 373.093729 758.7027 
L 374.934107 760.59268 
L 376.774485 751.263419 
L 378.614864 729.891747 
L 380.455242 744.900408 
L 382.295621 753.900874 
L 384.135999 743.336858 
L 385.976377 760.285174 
L 387.816756 743.819406 
L 389.657134 740.332761 
L 391.497513 697.33395 
L 393.337891 693.710837 
L 395.178269 714.100127 
L 397.018648 688.426828 
L 398.859026 750.208254 
L 400.699405 766.361603 
L 402.539783 730.679435 
L 404.380162 740.569304 
L 406.22054 737.541552 
L 408.060918 713.07353 
L 409.901297 739.859674 
L 411.741675 746.241608 
L 413.582054 769.231235 
L 415.422432 782.179606 
L 417.26281 771.949115 
L 419.103189 775.279642 
L 420.943567 759.776606 
L 422.783946 736.013483 
L 424.624324 735.024733 
L 426.464702 761.158018 
L 428.305081 733.894057 
L 430.145459 764.793686 
L 431.985838 689.610817 
L 433.826216 715.585618 
L 435.666594 698.973194 
L 437.506973 755.547215 
L 439.347351 708.139241 
L 441.18773 678.422327 
L 443.028108 797.183536 
L 444.868486 673.286976 
L 446.708865 730.885228 
L 448.549243 737.196926 
L 450.389622 749.354515 
L 452.23 778.691686 
L 454.070378 718.133006 
L 455.910757 822.280398 
L 457.751135 777.060812 
L 459.591514 739.377126 
L 461.431892 752.585695 
L 463.27227 754.118494 
L 465.112649 712.326054 
L 466.953027 759.185248 
L 468.793406 772.637456 
L 470.633784 732.7894 
L 472.474162 755.372173 
L 474.314541 732.134176 
L 476.154919 669.85237 
L 477.995298 761.4466 
L 479.835676 712.146281 
L 481.676054 804.587336 
L 483.516433 749.449133 
L 485.356811 742.085545 
L 487.19719 713.965298 
L 489.037568 735.3417 
L 490.877946 773.228814 
L 492.718325 749.245706 
L 494.558703 791.648427 
L 496.399082 731.048443 
L 498.23946 704.534323 
L 500.079838 710.585097 
L 501.920217 704.770866 
L 503.760595 662.089752 
L 505.600974 799.993669 
L 507.441352 758.992374 
L 509.281731 775.47106 
L 511.122109 702.324647 
L 512.962487 722.050342 
L 514.802866 754.648351 
L 516.643244 698.880942 
L 518.483623 743.218587 
L 520.324001 754.733506 
L 522.164379 722.28452 
L 525.845136 752.659023 
L 527.685515 731.358314 
L 529.525893 702.329741 
L 531.366271 716.74468 
L 533.20665 724.545872 
L 535.047028 730.426334 
L 536.887407 728.004133 
L 538.727785 731.396161 
L 540.568163 762.522872 
L 542.408542 776.355914 
L 544.24892 764.919053 
L 546.089299 707.94291 
L 547.929677 727.900054 
L 549.770055 717.761815 
L 551.610434 792.360422 
L 553.450812 741.662133 
L 555.291191 748.678002 
L 557.131569 763.58495 
L 558.971947 742.476569 
L 560.812326 752.051107 
L 562.652704 725.554638 
L 564.493083 736.58337 
L 566.333461 755.972628 
L 568.173839 744.190779 
L 570.014218 737.674016 
L 571.854596 717.728699 
L 573.694975 743.218587 
L 575.535353 707.443804 
L 577.375731 752.99728 
L 579.21611 685.580122 
L 581.056488 801.850532 
L 582.896867 723.296924 
L 584.737245 749.420748 
L 586.577623 737.664554 
L 588.418002 774.2767 
L 590.25838 736.387221 
L 592.098759 705.295992 
L 593.939137 749.903296 
L 595.779515 728.063268 
L 597.619894 728.328197 
L 599.460272 743.630172 
L 601.300651 751.031606 
L 603.141029 728.496142 
L 604.981407 694.202119 
L 606.821786 715.663678 
L 608.662164 726.107057 
L 610.502543 763.126056 
L 612.342921 776.812442 
L 614.183299 780.910097 
L 616.023678 739.959022 
L 617.864056 722.148416 
L 619.704435 752.81969 
L 621.544813 737.351953 
L 623.385192 752.42248 
L 625.22557 733.870402 
L 627.065948 749.860718 
L 628.906327 745.43263 
L 630.746705 757.458483 
L 632.587084 714.620522 
L 634.427462 731.876344 
L 636.26784 764.949804 
L 638.108219 736.637957 
L 639.948597 745.617134 
L 641.788976 728.638068 
L 643.629354 719.833933 
L 645.469732 737.409087 
L 647.310111 740.408454 
L 649.150489 765.798994 
L 650.990868 728.34712 
L 652.831246 763.383889 
L 654.671624 741.387743 
L 656.512003 743.140527 
L 658.352381 688.075652 
L 660.19276 721.02611 
L 662.033138 738.996292 
L 663.873516 718.726911 
L 665.713895 740.531457 
L 667.554273 752.145724 
L 669.394652 779.121831 
L 671.23503 744.699347 
L 673.075408 749.511726 
L 674.915787 738.456792 
L 676.756165 681.94409 
L 678.596544 721.198787 
L 680.436922 738.809423 
L 682.2773 779.551611 
L 684.117679 698.42678 
L 685.958057 778.179661 
L 687.798436 766.111231 
L 689.638814 702.809924 
L 691.479192 719.221286 
L 693.319571 766.32885 
L 695.159949 757.283441 
L 697.000328 768.405699 
L 698.840706 742.371762 
L 700.681084 744.164759 
L 702.521463 731.779361 
L 704.361841 745.957756 
L 708.042598 755.54958 
L 709.882976 731.680013 
L 711.723355 750.00974 
L 713.563733 758.357347 
L 715.404112 731.812477 
L 717.24449 709.475709 
L 719.084868 741.26474 
L 720.925247 755.63237 
L 722.765625 744.765579 
L 724.606004 709.237529 
L 726.446382 734.707765 
L 728.28676 730.096266 
L 730.127139 686.568691 
L 731.967517 734.570206 
L 733.807896 703.798674 
L 735.648274 720.813221 
L 737.488653 747.873755 
L 739.329031 746.000334 
L 741.169409 791.236842 
L 743.009788 730.970383 
L 744.850166 740.760904 
L 746.690545 761.770664 
L 748.530923 752.533655 
L 750.371301 740.138795 
L 752.21168 711.465037 
L 754.052058 742.428533 
L 755.892437 719.015494 
L 757.732815 748.214378 
L 759.573193 747.490556 
L 761.413572 746.428477 
L 763.25395 689.099884 
L 765.094329 758.844626 
L 766.934707 739.251758 
L 768.775085 745.470477 
L 770.615464 728.917189 
L 772.455842 775.244161 
L 774.296221 774.305085 
L 776.136599 747.51421 
L 777.976977 736.391952 
L 779.817356 754.511884 
L 781.657734 735.729631 
L 783.498113 748.007311 
L 785.338491 725.28607 
L 787.178869 742.007122 
L 787.178869 742.007122 
" clip-path="url(#p57e31f889f)" style="fill: none; stroke: #4878d0; stroke-width: 1.5; stroke-linecap: round"/>
   </g>
   <g id="patch_18">
    <path d="M 53.42 831.1 
L 53.42 654.041645 
" style="fill: none; stroke: #cccccc; stroke-width: 1.25; stroke-linejoin: miter; stroke-linecap: square"/>
   </g>
   <g id="patch_19">
    <path d="M 851.04 831.1 
L 851.04 654.041645 
" style="fill: none; stroke: #cccccc; stroke-width: 1.25; stroke-linejoin: miter; stroke-linecap: square"/>
   </g>
   <g id="patch_20">
    <path d="M 53.42 831.1 
L 851.04 831.1 
" style="fill: none; stroke: #cccccc; stroke-width: 1.25; stroke-linejoin: miter; stroke-linecap: square"/>
   </g>
   <g id="patch_21">
    <path d="M 53.42 654.041645 
L 851.04 654.041645 
" style="fill: none; stroke: #cccccc; stroke-width: 1.25; stroke-linejoin: miter; stroke-linecap: square"/>
   </g>
   <g id="text_38">
    <!-- Residual -->
    <g style="fill: #262626" transform="translate(428.884375 648.041645) scale(0.12 -0.12)">
     <defs>
      <path id="ArialMT-52" d="M 503 0 
L 503 4581 
L 2534 4581 
Q 3147 4581 3465 4457 
Q 3784 4334 3975 4021 
Q 4166 3709 4166 3331 
Q 4166 2844 3850 2509 
Q 3534 2175 2875 2084 
Q 3116 1969 3241 1856 
Q 3506 1613 3744 1247 
L 4541 0 
L 3778 0 
L 3172 953 
Q 2906 1366 2734 1584 
Q 2563 1803 2427 1890 
Q 2291 1978 2150 2013 
Q 2047 2034 1813 2034 
L 1109 2034 
L 1109 0 
L 503 0 
z
M 1109 2559 
L 2413 2559 
Q 2828 2559 3062 2645 
Q 3297 2731 3419 2920 
Q 3541 3109 3541 3331 
Q 3541 3656 3305 3865 
Q 3069 4075 2559 4075 
L 1109 4075 
L 1109 2559 
z
" transform="scale(0.015625)"/>
      <path id="ArialMT-75" d="M 2597 0 
L 2597 488 
Q 2209 -75 1544 -75 
Q 1250 -75 995 37 
Q 741 150 617 320 
Q 494 491 444 738 
Q 409 903 409 1263 
L 409 3319 
L 972 3319 
L 972 1478 
Q 972 1038 1006 884 
Q 1059 663 1231 536 
Q 1403 409 1656 409 
Q 1909 409 2131 539 
Q 2353 669 2445 892 
Q 2538 1116 2538 1541 
L 2538 3319 
L 3100 3319 
L 3100 0 
L 2597 0 
z
" transform="scale(0.015625)"/>
     </defs>
     <use xlink:href="#ArialMT-52"/>
     <use xlink:href="#ArialMT-65" transform="translate(72.216797 0)"/>
     <use xlink:href="#ArialMT-73" transform="translate(127.832031 0)"/>
     <use xlink:href="#ArialMT-69" transform="translate(177.832031 0)"/>
     <use xlink:href="#ArialMT-64" transform="translate(200.048828 0)"/>
     <use xlink:href="#ArialMT-75" transform="translate(255.664062 0)"/>
     <use xlink:href="#ArialMT-61" transform="translate(311.279297 0)"/>
     <use xlink:href="#ArialMT-6c" transform="translate(366.894531 0)"/>
    </g>
   </g>
  </g>
 </g>
 <defs>
  <clipPath id="p8428405720">
   <rect x="53.42" y="27.6" width="797.62" height="177.058355"/>
  </clipPath>
  <clipPath id="p03f06453ab">
   <rect x="53.42" y="236.413882" width="797.62" height="177.058355"/>
  </clipPath>
  <clipPath id="p07c25cd0a9">
   <rect x="53.42" y="445.227763" width="797.62" height="177.058355"/>
  </clipPath>
  <clipPath id="p57e31f889f">
   <rect x="53.42" y="654.041645" width="797.62" height="177.058355"/>
  </clipPath>
 </defs>
</svg>
