<?xml version="1.0" encoding="utf-8" standalone="no"?>
<!DOCTYPE svg PUBLIC "-//W3C//DTD SVG 1.1//EN"
  "http://www.w3.org/Graphics/SVG/1.1/DTD/svg11.dtd">
<svg xmlns:xlink="http://www.w3.org/1999/xlink" width="864pt" height="864pt" viewBox="0 0 864 864" xmlns="http://www.w3.org/2000/svg" version="1.1">
 <metadata>
  <rdf:RDF xmlns:dc="http://purl.org/dc/elements/1.1/" xmlns:cc="http://creativecommons.org/ns#" xmlns:rdf="http://www.w3.org/1999/02/22-rdf-syntax-ns#">
   <cc:Work>
    <dc:type rdf:resource="http://purl.org/dc/dcmitype/StillImage"/>
    <dc:date>2025-12-12T00:30:22.173056</dc:date>
    <dc:format>image/svg+xml</dc:format>
    <dc:creator>
     <cc:Agent>
      <dc:title>Matplotlib v3.10.7, https://matplotlib.org/</dc:title>
     </cc:Agent>
    </dc:creator>
   </cc:Work>
  </rdf:RDF>
 </metadata>
 <defs>
  <style type="text/css">*{stroke-linejoin: round; stroke-linecap: butt}</style>
 </defs>
 <g id="figure_1">
  <g id="patch_1">
   <path d="M 0 864 
L 864 864 
L 864 0 
L 0 0 
z
" style="fill: #ffffff"/>
  </g>
  <g id="axes_1">
   <g id="patch_2">
    <path d="M 59.54 207.775 
L 851.04 207.775 
L 851.04 27.6 
L 59.54 27.6 
z
" style="fill: #ffffff"/>
   </g>
   <g id="matplotlib.axis_1">
    <g id="xtick_1">
     <g id="line2d_1">
      <path d="M 95.517273 207.775 
L 95.517273 27.6 
" clip-path="url(#p91ad929368)" style="fill: none; stroke: #cccccc; stroke-linecap: round"/>
     </g>
    </g>
    <g id="xtick_2">
     <g id="line2d_2">
      <path d="M 206.91898 207.775 
L 206.91898 27.6 
" clip-path="url(#p91ad929368)" style="fill: none; stroke: #cccccc; stroke-linecap: round"/>
     </g>
    </g>
    <g id="xtick_3">
     <g id="line2d_3">
      <path d="M 318.320688 207.775 
L 318.320688 27.6 
" clip-path="url(#p91ad929368)" style="fill: none; stroke: #cccccc; stroke-linecap: round"/>
     </g>
    </g>
    <g id="xtick_4">
     <g id="line2d_4">
      <path d="M 426.06988 207.775 
L 426.06988 27.6 
" clip-path="url(#p91ad929368)" style="fill: none; stroke: #cccccc; stroke-linecap: round"/>
     </g>
    </g>
    <g id="xtick_5">
     <g id="line2d_5">
      <path d="M 537.471587 207.775 
L 537.471587 27.6 
" clip-path="url(#p91ad929368)" style="fill: none; stroke: #cccccc; stroke-linecap: round"/>
     </g>
    </g>
    <g id="xtick_6">
     <g id="line2d_6">
      <path d="M 648.873295 207.775 
L 648.873295 27.6 
" clip-path="url(#p91ad929368)" style="fill: none; stroke: #cccccc; stroke-linecap: round"/>
     </g>
    </g>
    <g id="xtick_7">
     <g id="line2d_7">
      <path d="M 762.10126 207.775 
L 762.10126 27.6 
" clip-path="url(#p91ad929368)" style="fill: none; stroke: #cccccc; stroke-linecap: round"/>
     </g>
    </g>
   </g>
   <g id="matplotlib.axis_2">
    <g id="ytick_1">
     <g id="line2d_8">
      <path d="M 59.54 189.002261 
L 851.04 189.002261 
" clip-path="url(#p91ad929368)" style="fill: none; stroke: #cccccc; stroke-linecap: round"/>
     </g>
     <g id="text_1">
      <!-- 25000 -->
      <g style="fill: #262626" transform="translate(19.454844 192.939058) scale(0.11 -0.11)">
       <defs>
        <path id="ArialMT-32" d="M 3222 541 
L 3222 0 
L 194 0 
Q 188 203 259 391 
Q 375 700 629 1000 
Q 884 1300 1366 1694 
Q 2113 2306 2375 2664 
Q 2638 3022 2638 3341 
Q 2638 3675 2398 3904 
Q 2159 4134 1775 4134 
Q 1369 4134 1125 3890 
Q 881 3647 878 3216 
L 300 3275 
Q 359 3922 746 4261 
Q 1134 4600 1788 4600 
Q 2447 4600 2831 4234 
Q 3216 3869 3216 3328 
Q 3216 3053 3103 2787 
Q 2991 2522 2730 2228 
Q 2469 1934 1863 1422 
Q 1356 997 1212 845 
Q 1069 694 975 541 
L 3222 541 
z
" transform="scale(0.015625)"/>
        <path id="ArialMT-35" d="M 266 1200 
L 856 1250 
Q 922 819 1161 601 
Q 1400 384 1738 384 
Q 2144 384 2425 690 
Q 2706 997 2706 1503 
Q 2706 1984 2436 2262 
Q 2166 2541 1728 2541 
Q 1456 2541 1237 2417 
Q 1019 2294 894 2097 
L 366 2166 
L 809 4519 
L 3088 4519 
L 3088 3981 
L 1259 3981 
L 1013 2750 
Q 1425 3038 1878 3038 
Q 2478 3038 2890 2622 
Q 3303 2206 3303 1553 
Q 3303 931 2941 478 
Q 2500 -78 1738 -78 
Q 1113 -78 717 272 
Q 322 622 266 1200 
z
" transform="scale(0.015625)"/>
        <path id="ArialMT-30" d="M 266 2259 
Q 266 3072 433 3567 
Q 600 4063 929 4331 
Q 1259 4600 1759 4600 
Q 2128 4600 2406 4451 
Q 2684 4303 2865 4023 
Q 3047 3744 3150 3342 
Q 3253 2941 3253 2259 
Q 3253 1453 3087 958 
Q 2922 463 2592 192 
Q 2263 -78 1759 -78 
Q 1097 -78 719 397 
Q 266 969 266 2259 
z
M 844 2259 
Q 844 1131 1108 757 
Q 1372 384 1759 384 
Q 2147 384 2411 759 
Q 2675 1134 2675 2259 
Q 2675 3391 2411 3762 
Q 2147 4134 1753 4134 
Q 1366 4134 1134 3806 
Q 844 3388 844 2259 
z
" transform="scale(0.015625)"/>
       </defs>
       <use xlink:href="#ArialMT-32"/>
       <use xlink:href="#ArialMT-35" transform="translate(55.615234 0)"/>
       <use xlink:href="#ArialMT-30" transform="translate(111.230469 0)"/>
       <use xlink:href="#ArialMT-30" transform="translate(166.845703 0)"/>
       <use xlink:href="#ArialMT-30" transform="translate(222.460938 0)"/>
      </g>
     </g>
    </g>
    <g id="ytick_2">
     <g id="line2d_9">
      <path d="M 59.54 164.950065 
L 851.04 164.950065 
" clip-path="url(#p91ad929368)" style="fill: none; stroke: #cccccc; stroke-linecap: round"/>
     </g>
     <g id="text_2">
      <!-- 30000 -->
      <g style="fill: #262626" transform="translate(19.454844 168.886862) scale(0.11 -0.11)">
       <defs>
        <path id="ArialMT-33" d="M 269 1209 
L 831 1284 
Q 928 806 1161 595 
Q 1394 384 1728 384 
Q 2125 384 2398 659 
Q 2672 934 2672 1341 
Q 2672 1728 2419 1979 
Q 2166 2231 1775 2231 
Q 1616 2231 1378 2169 
L 1441 2663 
Q 1497 2656 1531 2656 
Q 1891 2656 2178 2843 
Q 2466 3031 2466 3422 
Q 2466 3731 2256 3934 
Q 2047 4138 1716 4138 
Q 1388 4138 1169 3931 
Q 950 3725 888 3313 
L 325 3413 
Q 428 3978 793 4289 
Q 1159 4600 1703 4600 
Q 2078 4600 2393 4439 
Q 2709 4278 2876 4000 
Q 3044 3722 3044 3409 
Q 3044 3113 2884 2869 
Q 2725 2625 2413 2481 
Q 2819 2388 3044 2092 
Q 3269 1797 3269 1353 
Q 3269 753 2831 336 
Q 2394 -81 1725 -81 
Q 1122 -81 723 278 
Q 325 638 269 1209 
z
" transform="scale(0.015625)"/>
       </defs>
       <use xlink:href="#ArialMT-33"/>
       <use xlink:href="#ArialMT-30" transform="translate(55.615234 0)"/>
       <use xlink:href="#ArialMT-30" transform="translate(111.230469 0)"/>
       <use xlink:href="#ArialMT-30" transform="translate(166.845703 0)"/>
       <use xlink:href="#ArialMT-30" transform="translate(222.460938 0)"/>
      </g>
     </g>
    </g>
    <g id="ytick_3">
     <g id="line2d_10">
      <path d="M 59.54 140.897869 
L 851.04 140.897869 
" clip-path="url(#p91ad929368)" style="fill: none; stroke: #cccccc; stroke-linecap: round"/>
     </g>
     <g id="text_3">
      <!-- 35000 -->
      <g style="fill: #262626" transform="translate(19.454844 144.834666) scale(0.11 -0.11)">
       <use xlink:href="#ArialMT-33"/>
       <use xlink:href="#ArialMT-35" transform="translate(55.615234 0)"/>
       <use xlink:href="#ArialMT-30" transform="translate(111.230469 0)"/>
       <use xlink:href="#ArialMT-30" transform="translate(166.845703 0)"/>
       <use xlink:href="#ArialMT-30" transform="translate(222.460938 0)"/>
      </g>
     </g>
    </g>
    <g id="ytick_4">
     <g id="line2d_11">
      <path d="M 59.54 116.845673 
L 851.04 116.845673 
" clip-path="url(#p91ad929368)" style="fill: none; stroke: #cccccc; stroke-linecap: round"/>
     </g>
     <g id="text_4">
      <!-- 40000 -->
      <g style="fill: #262626" transform="translate(19.454844 120.78247) scale(0.11 -0.11)">
       <defs>
        <path id="ArialMT-34" d="M 2069 0 
L 2069 1097 
L 81 1097 
L 81 1613 
L 2172 4581 
L 2631 4581 
L 2631 1613 
L 3250 1613 
L 3250 1097 
L 2631 1097 
L 2631 0 
L 2069 0 
z
M 2069 1613 
L 2069 3678 
L 634 1613 
L 2069 1613 
z
" transform="scale(0.015625)"/>
       </defs>
       <use xlink:href="#ArialMT-34"/>
       <use xlink:href="#ArialMT-30" transform="translate(55.615234 0)"/>
       <use xlink:href="#ArialMT-30" transform="translate(111.230469 0)"/>
       <use xlink:href="#ArialMT-30" transform="translate(166.845703 0)"/>
       <use xlink:href="#ArialMT-30" transform="translate(222.460938 0)"/>
      </g>
     </g>
    </g>
    <g id="ytick_5">
     <g id="line2d_12">
      <path d="M 59.54 92.793477 
L 851.04 92.793477 
" clip-path="url(#p91ad929368)" style="fill: none; stroke: #cccccc; stroke-linecap: round"/>
     </g>
     <g id="text_5">
      <!-- 45000 -->
      <g style="fill: #262626" transform="translate(19.454844 96.730274) scale(0.11 -0.11)">
       <use xlink:href="#ArialMT-34"/>
       <use xlink:href="#ArialMT-35" transform="translate(55.615234 0)"/>
       <use xlink:href="#ArialMT-30" transform="translate(111.230469 0)"/>
       <use xlink:href="#ArialMT-30" transform="translate(166.845703 0)"/>
       <use xlink:href="#ArialMT-30" transform="translate(222.460938 0)"/>
      </g>
     </g>
    </g>
    <g id="ytick_6">
     <g id="line2d_13">
      <path d="M 59.54 68.741281 
L 851.04 68.741281 
" clip-path="url(#p91ad929368)" style="fill: none; stroke: #cccccc; stroke-linecap: round"/>
     </g>
     <g id="text_6">
      <!-- 50000 -->
      <g style="fill: #262626" transform="translate(19.454844 72.678078) scale(0.11 -0.11)">
       <use xlink:href="#ArialMT-35"/>
       <use xlink:href="#ArialMT-30" transform="translate(55.615234 0)"/>
       <use xlink:href="#ArialMT-30" transform="translate(111.230469 0)"/>
       <use xlink:href="#ArialMT-30" transform="translate(166.845703 0)"/>
       <use xlink:href="#ArialMT-30" transform="translate(222.460938 0)"/>
      </g>
     </g>
    </g>
    <g id="ytick_7">
     <g id="line2d_14">
      <path d="M 59.54 44.689085 
L 851.04 44.689085 
" clip-path="url(#p91ad929368)" style="fill: none; stroke: #cccccc; stroke-linecap: round"/>
     </g>
     <g id="text_7">
      <!-- 55000 -->
      <g style="fill: #262626" transform="translate(19.454844 48.625882) scale(0.11 -0.11)">
       <use xlink:href="#ArialMT-35"/>
       <use xlink:href="#ArialMT-35" transform="translate(55.615234 0)"/>
       <use xlink:href="#ArialMT-30" transform="translate(111.230469 0)"/>
       <use xlink:href="#ArialMT-30" transform="translate(166.845703 0)"/>
       <use xlink:href="#ArialMT-30" transform="translate(222.460938 0)"/>
      </g>
     </g>
    </g>
   </g>
   <g id="line2d_15">
    <path d="M 95.517273 129.833859 
L 97.34353 132.720122 
L 99.169788 142.822045 
L 100.996045 150.518747 
L 102.822303 128.390727 
L 104.64856 138.973693 
L 106.474818 124.542376 
L 108.301075 136.08743 
L 110.127333 135.125342 
L 111.95359 143.784133 
L 113.779848 150.518747 
L 115.606105 138.011606 
L 117.432363 145.708308 
L 119.25862 140.897869 
L 121.084878 153.405011 
L 122.911135 131.276991 
L 124.737393 136.08743 
L 126.56365 150.518747 
L 128.389908 138.973693 
L 130.216165 145.708308 
L 132.042423 135.125342 
L 133.86868 133.68221 
L 135.694938 138.973693 
L 137.521195 138.973693 
L 139.347453 140.897869 
L 141.17371 113.95941 
L 142.999968 115.883585 
L 144.826225 155.329187 
L 146.652483 143.784133 
L 148.47874 155.329187 
L 150.304998 123.580288 
L 152.131255 140.897869 
L 153.957513 135.125342 
L 155.78377 149.55666 
L 157.610028 133.201166 
L 159.436285 149.55666 
L 161.262543 125.504464 
L 163.0888 134.163254 
L 164.915058 150.518747 
L 166.741315 144.74622 
L 168.567573 138.011606 
L 170.39383 133.201166 
L 172.220088 136.08743 
L 174.046345 118.769849 
L 175.872603 144.74622 
L 177.69886 150.518747 
L 179.525118 148.594572 
L 181.351375 137.049518 
L 183.177633 142.100479 
L 185.00389 151.961879 
L 186.830148 157.974928 
L 188.656405 158.21545 
L 190.482663 164.950065 
L 192.30892 155.329187 
L 194.135178 177.457207 
L 195.961435 180.34347 
L 197.787693 156.772318 
L 199.61395 157.734406 
L 201.440208 167.836329 
L 203.266465 164.950065 
L 205.092723 149.55666 
L 206.91898 165.912153 
L 208.745238 158.21545 
L 210.571495 155.329187 
L 214.22401 166.874241 
L 216.050268 179.381383 
L 217.876525 167.836329 
L 219.702783 143.784133 
L 221.52904 153.405011 
L 223.355298 139.935781 
L 225.181555 162.063802 
L 227.007813 148.594572 
L 228.83407 179.381383 
L 230.660328 155.329187 
L 232.486585 143.784133 
L 234.312843 155.810231 
L 236.1391 150.037704 
L 237.965358 158.696494 
L 239.791615 158.696494 
L 241.617873 179.381383 
L 243.44413 155.329187 
L 245.270388 161.101714 
L 247.096645 155.329187 
L 248.922903 163.506933 
L 250.74916 155.810231 
L 252.575418 155.329187 
L 254.401675 181.786602 
L 256.227933 152.923967 
L 258.05419 162.063802 
L 259.880448 145.708308 
L 261.706705 162.063802 
L 263.532963 142.822045 
L 265.35922 164.950065 
L 267.185478 174.570943 
L 269.011735 160.139626 
L 270.837993 139.935781 
L 272.66425 160.139626 
L 274.490508 153.886055 
L 276.316765 152.923967 
L 278.143023 148.594572 
L 279.96928 174.570943 
L 281.795538 174.570943 
L 283.621795 150.037704 
L 285.448053 167.114763 
L 287.27431 174.0899 
L 289.100568 185.875476 
L 290.926825 167.836329 
L 292.753083 168.798416 
L 294.57934 177.938251 
L 296.405598 169.760504 
L 298.231855 173.608856 
L 300.058113 175.533031 
L 301.88437 175.533031 
L 303.710628 176.976163 
L 305.536885 178.900339 
L 307.363143 169.760504 
L 309.1894 187.078085 
L 311.015658 184.191822 
L 312.841915 169.760504 
L 314.668173 172.646768 
L 316.49443 167.836329 
L 318.320688 169.760504 
L 320.146945 184.191822 
L 321.973203 187.078085 
L 323.79946 169.760504 
L 325.625718 172.646768 
L 329.278233 172.646768 
L 331.10449 179.381383 
L 332.930748 172.646768 
L 334.757005 168.798416 
L 336.583263 175.533031 
L 340.235778 175.533031 
L 342.062035 172.646768 
L 343.888293 184.191822 
L 345.71455 179.381383 
L 347.540808 172.646768 
L 351.193323 172.646768 
L 353.01958 168.798416 
L 354.845838 172.646768 
L 356.672095 184.191822 
L 358.498353 176.495119 
L 360.32461 176.495119 
L 362.150868 177.194798 
L 363.977125 172.121997 
L 365.803383 166.08706 
L 369.455898 161.713938 
L 371.282155 166.262016 
L 373.108413 157.340816 
L 374.93467 155.154279 
L 376.760928 152.005606 
L 378.587185 146.932806 
L 380.413443 148.594572 
L 382.2397 147.311772 
L 384.065958 132.559791 
L 385.892215 124.542376 
L 391.370988 124.542376 
L 393.197245 127.428639 
L 395.023503 132.880454 
L 396.84976 124.863088 
L 398.676018 111.073146 
L 400.502275 115.883585 
L 402.328533 97.603916 
L 404.15479 93.755565 
L 405.981048 107.224795 
L 407.807305 97.603916 
L 409.633563 102.414356 
L 411.45982 111.073146 
L 413.286078 109.389492 
L 415.112335 110.592102 
L 416.938593 107.946361 
L 418.76485 116.845673 
L 420.591108 116.845673 
L 422.417365 118.769849 
L 424.243623 116.845673 
L 426.06988 127.428639 
L 427.896138 124.542376 
L 429.722395 120.694024 
L 431.548653 128.390727 
L 433.37491 116.845673 
L 435.201168 138.973693 
L 437.027425 132.239079 
L 438.853683 110.111058 
L 440.67994 72.589633 
L 442.506198 59.120403 
L 444.332455 144.74622 
L 446.158713 107.224795 
L 447.98497 144.74622 
L 449.811228 130.314903 
L 451.637485 128.390727 
L 453.463743 125.504464 
L 455.29 114.921497 
L 457.116257 131.276991 
L 458.942515 102.414356 
L 460.768772 118.769849 
L 462.59503 122.6182 
L 464.421287 122.6182 
L 466.247545 123.580288 
L 468.073802 135.125342 
L 469.90006 118.769849 
L 471.726317 112.035234 
L 473.552575 130.314903 
L 475.378832 121.656112 
L 477.20509 131.276991 
L 479.031347 143.784133 
L 480.857605 122.6182 
L 482.683862 134.163254 
L 484.51012 112.035234 
L 486.336377 128.390727 
L 488.162635 129.352815 
L 489.988892 138.973693 
L 491.81515 134.163254 
L 493.641407 121.656112 
L 495.467665 131.276991 
L 497.293922 116.845673 
L 499.12018 139.935781 
L 500.946437 143.784133 
L 502.772695 144.74622 
L 504.598952 148.594572 
L 506.42521 160.139626 
L 508.251467 121.656112 
L 510.077725 131.276991 
L 511.903982 126.466552 
L 513.73024 148.594572 
L 515.556497 146.670396 
L 517.382755 130.314903 
L 519.209012 149.55666 
L 521.03527 138.973693 
L 522.861527 152.122211 
L 524.687785 174.891655 
L 526.514042 184.191822 
L 528.3403 186.115998 
L 530.166557 189.002261 
L 531.992815 199.585227 
L 533.819072 189.002261 
L 535.64533 187.490388 
L 537.471587 180.206036 
L 539.297845 181.580427 
L 541.124102 177.182338 
L 542.95036 162.201236 
L 544.776617 155.878972 
L 546.602875 156.291275 
L 548.429132 161.74309 
L 550.25539 150.839459 
L 552.081647 142.822045 
L 553.907905 126.947595 
L 555.734162 137.049518 
L 557.56042 137.049518 
L 559.386677 134.163254 
L 561.212935 138.973693 
L 563.039192 136.08743 
L 564.86545 140.897869 
L 566.691707 137.049518 
L 568.517965 132.239079 
L 570.344222 138.973693 
L 572.17048 134.163254 
L 573.996737 143.784133 
L 575.822995 138.011606 
L 577.649252 147.632484 
L 579.47551 131.758035 
L 581.301767 148.594572 
L 583.128025 122.6182 
L 584.954282 141.859957 
L 586.78054 137.049518 
L 588.606797 134.163254 
L 590.433055 127.909683 
L 592.259312 136.08743 
L 594.08557 148.594572 
L 595.911827 136.08743 
L 597.738085 139.935781 
L 599.564342 140.897869 
L 601.3906 137.049518 
L 603.216857 132.239079 
L 605.043115 140.897869 
L 606.869372 147.632484 
L 608.69563 146.670396 
L 610.521887 139.454737 
L 612.348145 131.276991 
L 614.174402 128.871771 
L 616.00066 126.947595 
L 617.826917 138.973693 
L 619.653175 141.859957 
L 621.479432 132.239079 
L 623.30569 137.049518 
L 625.131947 136.08743 
L 626.958205 134.163254 
L 628.784462 133.201166 
L 630.61072 136.08743 
L 632.436977 132.720122 
L 634.263235 141.859957 
L 636.089492 134.163254 
L 637.91575 131.276991 
L 639.742007 136.568474 
L 641.568265 137.049518 
L 643.394522 136.08743 
L 645.22078 142.822045 
L 647.047037 135.125342 
L 648.873295 138.011606 
L 650.699552 131.276991 
L 652.52581 139.935781 
L 654.352067 131.276991 
L 656.178325 134.575557 
L 658.004582 128.253293 
L 659.83084 143.096913 
L 661.657097 127.153771 
L 663.483355 123.717722 
L 665.309612 122.205897 
L 667.13587 114.921497 
L 668.962127 114.371712 
L 670.788385 107.087361 
L 672.614642 118.082629 
L 674.4409 115.608717 
L 676.267157 119.388327 
L 678.093415 137.599303 
L 679.919672 131.276991 
L 681.74593 120.281722 
L 683.572187 113.6158 
L 685.398445 139.179869 
L 687.224702 117.120542 
L 689.05096 118.151371 
L 690.877217 134.575557 
L 692.703475 137.530562 
L 694.529732 122.205897 
L 696.35599 128.528161 
L 698.182247 120.9002 
L 700.008505 133.957079 
L 701.834762 132.101644 
L 703.66102 140.829128 
L 705.487277 138.011606 
L 707.313535 134.163254 
L 709.139792 134.163254 
L 710.96605 141.859957 
L 712.792307 134.163254 
L 714.618565 130.727206 
L 716.444822 132.101644 
L 718.27108 140.21065 
L 720.097337 123.30542 
L 721.923595 117.945195 
L 723.749852 119.319634 
L 725.57611 125.504464 
L 727.402367 126.787264 
L 729.228625 133.842542 
L 731.054882 153.405011 
L 732.88114 128.390727 
L 734.707397 128.390727 
L 736.533655 104.819575 
L 738.359912 88.945126 
L 740.18617 87.433253 
L 742.012427 71.009067 
L 743.838685 81.523292 
L 745.664942 72.314764 
L 747.4912 68.878715 
L 749.317457 64.961671 
L 751.143715 67.779193 
L 752.969972 77.720784 
L 754.79623 80.927711 
L 756.622487 92.793477 
L 758.448745 84.546989 
L 760.275002 81.110989 
L 762.10126 75.269721 
L 763.927517 88.670257 
L 765.753775 65.992452 
L 767.580032 65.442715 
L 769.40629 62.968754 
L 771.232547 64.89293 
L 773.058805 56.715183 
L 774.885062 52.866832 
L 776.71132 62.968754 
L 778.537577 67.779193 
L 780.363835 62.006666 
L 782.190092 67.779193 
L 784.01635 62.006666 
L 785.842607 67.779193 
L 787.668865 63.930842 
L 789.495122 63.449798 
L 791.32138 59.120403 
L 793.147637 62.968754 
L 794.973895 60.563535 
L 796.800152 62.728232 
L 798.62641 48.056393 
L 800.452667 35.789773 
L 802.278925 49.499524 
L 804.105182 51.561134 
L 805.93144 57.471096 
L 807.757697 74.926111 
L 809.583955 76.987769 
L 811.410212 74.719984 
L 813.23647 92.656043 
L 815.062727 87.02095 
L 815.062727 87.02095 
" clip-path="url(#p91ad929368)" style="fill: none; stroke: #4878d0; stroke-width: 1.5; stroke-linecap: round"/>
   </g>
   <g id="patch_3">
    <path d="M 59.54 207.775 
L 59.54 27.6 
" style="fill: none; stroke: #cccccc; stroke-width: 1.25; stroke-linejoin: miter; stroke-linecap: square"/>
   </g>
   <g id="patch_4">
    <path d="M 851.04 207.775 
L 851.04 27.6 
" style="fill: none; stroke: #cccccc; stroke-width: 1.25; stroke-linejoin: miter; stroke-linecap: square"/>
   </g>
   <g id="patch_5">
    <path d="M 59.54 207.775 
L 851.04 207.775 
" style="fill: none; stroke: #cccccc; stroke-width: 1.25; stroke-linejoin: miter; stroke-linecap: square"/>
   </g>
   <g id="patch_6">
    <path d="M 59.54 27.6 
L 851.04 27.6 
" style="fill: none; stroke: #cccccc; stroke-width: 1.25; stroke-linejoin: miter; stroke-linecap: square"/>
   </g>
   <g id="text_8">
    <!-- Original -->
    <g style="fill: #262626" transform="translate(434.61625 21.6) scale(0.12 -0.12)">
     <defs>
      <path id="ArialMT-4f" d="M 309 2231 
Q 309 3372 921 4017 
Q 1534 4663 2503 4663 
Q 3138 4663 3647 4359 
Q 4156 4056 4423 3514 
Q 4691 2972 4691 2284 
Q 4691 1588 4409 1038 
Q 4128 488 3612 205 
Q 3097 -78 2500 -78 
Q 1853 -78 1343 234 
Q 834 547 571 1087 
Q 309 1628 309 2231 
z
M 934 2222 
Q 934 1394 1379 917 
Q 1825 441 2497 441 
Q 3181 441 3623 922 
Q 4066 1403 4066 2288 
Q 4066 2847 3877 3264 
Q 3688 3681 3323 3911 
Q 2959 4141 2506 4141 
Q 1863 4141 1398 3698 
Q 934 3256 934 2222 
z
" transform="scale(0.015625)"/>
      <path id="ArialMT-72" d="M 416 0 
L 416 3319 
L 922 3319 
L 922 2816 
Q 1116 3169 1280 3281 
Q 1444 3394 1641 3394 
Q 1925 3394 2219 3213 
L 2025 2691 
Q 1819 2813 1613 2813 
Q 1428 2813 1281 2702 
Q 1134 2591 1072 2394 
Q 978 2094 978 1738 
L 978 0 
L 416 0 
z
" transform="scale(0.015625)"/>
      <path id="ArialMT-69" d="M 425 3934 
L 425 4581 
L 988 4581 
L 988 3934 
L 425 3934 
z
M 425 0 
L 425 3319 
L 988 3319 
L 988 0 
L 425 0 
z
" transform="scale(0.015625)"/>
      <path id="ArialMT-67" d="M 319 -275 
L 866 -356 
Q 900 -609 1056 -725 
Q 1266 -881 1628 -881 
Q 2019 -881 2231 -725 
Q 2444 -569 2519 -288 
Q 2563 -116 2559 434 
Q 2191 0 1641 0 
Q 956 0 581 494 
Q 206 988 206 1678 
Q 206 2153 378 2554 
Q 550 2956 876 3175 
Q 1203 3394 1644 3394 
Q 2231 3394 2613 2919 
L 2613 3319 
L 3131 3319 
L 3131 450 
Q 3131 -325 2973 -648 
Q 2816 -972 2473 -1159 
Q 2131 -1347 1631 -1347 
Q 1038 -1347 672 -1080 
Q 306 -813 319 -275 
z
M 784 1719 
Q 784 1066 1043 766 
Q 1303 466 1694 466 
Q 2081 466 2343 764 
Q 2606 1063 2606 1700 
Q 2606 2309 2336 2618 
Q 2066 2928 1684 2928 
Q 1309 2928 1046 2623 
Q 784 2319 784 1719 
z
" transform="scale(0.015625)"/>
      <path id="ArialMT-6e" d="M 422 0 
L 422 3319 
L 928 3319 
L 928 2847 
Q 1294 3394 1984 3394 
Q 2284 3394 2536 3286 
Q 2788 3178 2913 3003 
Q 3038 2828 3088 2588 
Q 3119 2431 3119 2041 
L 3119 0 
L 2556 0 
L 2556 2019 
Q 2556 2363 2490 2533 
Q 2425 2703 2258 2804 
Q 2091 2906 1866 2906 
Q 1506 2906 1245 2678 
Q 984 2450 984 1813 
L 984 0 
L 422 0 
z
" transform="scale(0.015625)"/>
      <path id="ArialMT-61" d="M 2588 409 
Q 2275 144 1986 34 
Q 1697 -75 1366 -75 
Q 819 -75 525 192 
Q 231 459 231 875 
Q 231 1119 342 1320 
Q 453 1522 633 1644 
Q 813 1766 1038 1828 
Q 1203 1872 1538 1913 
Q 2219 1994 2541 2106 
Q 2544 2222 2544 2253 
Q 2544 2597 2384 2738 
Q 2169 2928 1744 2928 
Q 1347 2928 1158 2789 
Q 969 2650 878 2297 
L 328 2372 
Q 403 2725 575 2942 
Q 747 3159 1072 3276 
Q 1397 3394 1825 3394 
Q 2250 3394 2515 3294 
Q 2781 3194 2906 3042 
Q 3031 2891 3081 2659 
Q 3109 2516 3109 2141 
L 3109 1391 
Q 3109 606 3145 398 
Q 3181 191 3288 0 
L 2700 0 
Q 2613 175 2588 409 
z
M 2541 1666 
Q 2234 1541 1622 1453 
Q 1275 1403 1131 1340 
Q 988 1278 909 1158 
Q 831 1038 831 891 
Q 831 666 1001 516 
Q 1172 366 1500 366 
Q 1825 366 2078 508 
Q 2331 650 2450 897 
Q 2541 1088 2541 1459 
L 2541 1666 
z
" transform="scale(0.015625)"/>
      <path id="ArialMT-6c" d="M 409 0 
L 409 4581 
L 972 4581 
L 972 0 
L 409 0 
z
" transform="scale(0.015625)"/>
     </defs>
     <use xlink:href="#ArialMT-4f"/>
     <use xlink:href="#ArialMT-72" transform="translate(77.783203 0)"/>
     <use xlink:href="#ArialMT-69" transform="translate(111.083984 0)"/>
     <use xlink:href="#ArialMT-67" transform="translate(133.300781 0)"/>
     <use xlink:href="#ArialMT-69" transform="translate(188.916016 0)"/>
     <use xlink:href="#ArialMT-6e" transform="translate(211.132812 0)"/>
     <use xlink:href="#ArialMT-61" transform="translate(266.748047 0)"/>
     <use xlink:href="#ArialMT-6c" transform="translate(322.363281 0)"/>
    </g>
   </g>
  </g>
  <g id="axes_2">
   <g id="patch_7">
    <path d="M 59.54 415.55 
L 851.04 415.55 
L 851.04 235.375 
L 59.54 235.375 
z
" style="fill: #ffffff"/>
   </g>
   <g id="matplotlib.axis_3">
    <g id="xtick_8">
     <g id="line2d_16">
      <path d="M 95.517273 415.55 
L 95.517273 235.375 
" clip-path="url(#p5660f5b1f3)" style="fill: none; stroke: #cccccc; stroke-linecap: round"/>
     </g>
    </g>
    <g id="xtick_9">
     <g id="line2d_17">
      <path d="M 206.91898 415.55 
L 206.91898 235.375 
" clip-path="url(#p5660f5b1f3)" style="fill: none; stroke: #cccccc; stroke-linecap: round"/>
     </g>
    </g>
    <g id="xtick_10">
     <g id="line2d_18">
      <path d="M 318.320688 415.55 
L 318.320688 235.375 
" clip-path="url(#p5660f5b1f3)" style="fill: none; stroke: #cccccc; stroke-linecap: round"/>
     </g>
    </g>
    <g id="xtick_11">
     <g id="line2d_19">
      <path d="M 426.06988 415.55 
L 426.06988 235.375 
" clip-path="url(#p5660f5b1f3)" style="fill: none; stroke: #cccccc; stroke-linecap: round"/>
     </g>
    </g>
    <g id="xtick_12">
     <g id="line2d_20">
      <path d="M 537.471587 415.55 
L 537.471587 235.375 
" clip-path="url(#p5660f5b1f3)" style="fill: none; stroke: #cccccc; stroke-linecap: round"/>
     </g>
    </g>
    <g id="xtick_13">
     <g id="line2d_21">
      <path d="M 648.873295 415.55 
L 648.873295 235.375 
" clip-path="url(#p5660f5b1f3)" style="fill: none; stroke: #cccccc; stroke-linecap: round"/>
     </g>
    </g>
    <g id="xtick_14">
     <g id="line2d_22">
      <path d="M 762.10126 415.55 
L 762.10126 235.375 
" clip-path="url(#p5660f5b1f3)" style="fill: none; stroke: #cccccc; stroke-linecap: round"/>
     </g>
    </g>
   </g>
   <g id="matplotlib.axis_4">
    <g id="ytick_8">
     <g id="line2d_23">
      <path d="M 59.54 391.841524 
L 851.04 391.841524 
" clip-path="url(#p5660f5b1f3)" style="fill: none; stroke: #cccccc; stroke-linecap: round"/>
     </g>
     <g id="text_9">
      <!-- 30000 -->
      <g style="fill: #262626" transform="translate(19.454844 395.778321) scale(0.11 -0.11)">
       <use xlink:href="#ArialMT-33"/>
       <use xlink:href="#ArialMT-30" transform="translate(55.615234 0)"/>
       <use xlink:href="#ArialMT-30" transform="translate(111.230469 0)"/>
       <use xlink:href="#ArialMT-30" transform="translate(166.845703 0)"/>
       <use xlink:href="#ArialMT-30" transform="translate(222.460938 0)"/>
      </g>
     </g>
    </g>
    <g id="ytick_9">
     <g id="line2d_24">
      <path d="M 59.54 356.341926 
L 851.04 356.341926 
" clip-path="url(#p5660f5b1f3)" style="fill: none; stroke: #cccccc; stroke-linecap: round"/>
     </g>
     <g id="text_10">
      <!-- 35000 -->
      <g style="fill: #262626" transform="translate(19.454844 360.278723) scale(0.11 -0.11)">
       <use xlink:href="#ArialMT-33"/>
       <use xlink:href="#ArialMT-35" transform="translate(55.615234 0)"/>
       <use xlink:href="#ArialMT-30" transform="translate(111.230469 0)"/>
       <use xlink:href="#ArialMT-30" transform="translate(166.845703 0)"/>
       <use xlink:href="#ArialMT-30" transform="translate(222.460938 0)"/>
      </g>
     </g>
    </g>
    <g id="ytick_10">
     <g id="line2d_25">
      <path d="M 59.54 320.842327 
L 851.04 320.842327 
" clip-path="url(#p5660f5b1f3)" style="fill: none; stroke: #cccccc; stroke-linecap: round"/>
     </g>
     <g id="text_11">
      <!-- 40000 -->
      <g style="fill: #262626" transform="translate(19.454844 324.779124) scale(0.11 -0.11)">
       <use xlink:href="#ArialMT-34"/>
       <use xlink:href="#ArialMT-30" transform="translate(55.615234 0)"/>
       <use xlink:href="#ArialMT-30" transform="translate(111.230469 0)"/>
       <use xlink:href="#ArialMT-30" transform="translate(166.845703 0)"/>
       <use xlink:href="#ArialMT-30" transform="translate(222.460938 0)"/>
      </g>
     </g>
    </g>
    <g id="ytick_11">
     <g id="line2d_26">
      <path d="M 59.54 285.342729 
L 851.04 285.342729 
" clip-path="url(#p5660f5b1f3)" style="fill: none; stroke: #cccccc; stroke-linecap: round"/>
     </g>
     <g id="text_12">
      <!-- 45000 -->
      <g style="fill: #262626" transform="translate(19.454844 289.279525) scale(0.11 -0.11)">
       <use xlink:href="#ArialMT-34"/>
       <use xlink:href="#ArialMT-35" transform="translate(55.615234 0)"/>
       <use xlink:href="#ArialMT-30" transform="translate(111.230469 0)"/>
       <use xlink:href="#ArialMT-30" transform="translate(166.845703 0)"/>
       <use xlink:href="#ArialMT-30" transform="translate(222.460938 0)"/>
      </g>
     </g>
    </g>
    <g id="ytick_12">
     <g id="line2d_27">
      <path d="M 59.54 249.84313 
L 851.04 249.84313 
" clip-path="url(#p5660f5b1f3)" style="fill: none; stroke: #cccccc; stroke-linecap: round"/>
     </g>
     <g id="text_13">
      <!-- 50000 -->
      <g style="fill: #262626" transform="translate(19.454844 253.779927) scale(0.11 -0.11)">
       <use xlink:href="#ArialMT-35"/>
       <use xlink:href="#ArialMT-30" transform="translate(55.615234 0)"/>
       <use xlink:href="#ArialMT-30" transform="translate(111.230469 0)"/>
       <use xlink:href="#ArialMT-30" transform="translate(166.845703 0)"/>
       <use xlink:href="#ArialMT-30" transform="translate(222.460938 0)"/>
      </g>
     </g>
    </g>
   </g>
   <g id="line2d_28">
    <path d="M 122.911135 353.182462 
L 126.56365 353.241628 
L 128.389908 353.02863 
L 130.216165 353.123296 
L 133.86868 353.785955 
L 135.694938 353.762288 
L 139.347453 354.495947 
L 141.17371 354.21195 
L 144.826225 353.430959 
L 148.47874 351.892643 
L 150.304998 352.152973 
L 152.131255 352.933964 
L 153.957513 352.910298 
L 155.78377 352.655884 
L 157.610028 352.886632 
L 159.436285 353.60254 
L 166.741315 358.35357 
L 170.39383 363.524678 
L 172.220088 364.589666 
L 174.046345 365.240492 
L 177.69886 366.944473 
L 181.351375 369.382112 
L 185.00389 370.920428 
L 186.830148 372.032748 
L 188.656405 373.784062 
L 190.482663 375.937704 
L 192.30892 376.600363 
L 194.135178 376.647696 
L 195.961435 376.908027 
L 197.787693 377.665351 
L 199.61395 378.683007 
L 203.266465 382.232966 
L 206.91898 382.339465 
L 208.745238 382.83646 
L 210.571495 383.564201 
L 212.397753 384.138112 
L 214.22401 384.830354 
L 216.050268 385.285932 
L 221.52904 384.682439 
L 223.355298 383.735783 
L 225.181555 383.09679 
L 227.007813 383.65295 
L 228.83407 383.877781 
L 230.660328 383.439953 
L 234.312843 383.084957 
L 236.1391 382.611629 
L 237.965358 382.46963 
L 239.791615 383.037624 
L 241.617873 383.203289 
L 245.270388 380.907648 
L 247.096645 380.966814 
L 250.74916 381.404642 
L 252.575418 381.925303 
L 254.401675 382.871959 
L 256.227933 382.789127 
L 258.05419 382.357215 
L 259.880448 383.39262 
L 261.706705 384.877687 
L 263.532963 386.05509 
L 267.185478 387.463241 
L 270.837993 387.912902 
L 276.316765 390.397874 
L 279.96928 392.220187 
L 281.795538 392.705348 
L 289.100568 396.219808 
L 290.926825 397.024466 
L 292.753083 398.160453 
L 294.57934 398.941444 
L 296.405598 399.485771 
L 300.058113 401.639414 
L 301.88437 402.408572 
L 303.710628 403.520892 
L 305.536885 404.763378 
L 307.363143 405.21304 
L 309.1894 405.094708 
L 311.015658 405.745534 
L 312.841915 406.579775 
L 314.668173 406.751356 
L 316.49443 406.67444 
L 318.320688 406.917021 
L 320.146945 407.295683 
L 325.625718 407.153685 
L 327.451975 406.964353 
L 331.10449 407.307516 
L 332.930748 407.236517 
L 334.757005 407.360227 
L 336.583263 407.175199 
L 338.40952 406.361935 
L 340.235778 405.772426 
L 343.888293 405.051677 
L 345.71455 404.707438 
L 347.540808 403.687632 
L 349.367065 402.110589 
L 351.193323 400.686303 
L 354.845838 398.318229 
L 356.672095 396.708914 
L 358.498353 394.373829 
L 360.32461 391.841524 
L 363.977125 387.226577 
L 365.803383 384.788938 
L 369.455898 380.331765 
L 371.282155 377.357688 
L 374.93467 370.589098 
L 378.587185 363.252514 
L 382.2397 356.412925 
L 385.892215 349.437254 
L 391.370988 339.777599 
L 393.197245 337.206568 
L 396.84976 332.671225 
L 398.676018 330.612249 
L 402.328533 327.195681 
L 405.981048 324.446075 
L 407.807305 323.469298 
L 409.633563 322.86186 
L 411.45982 321.938871 
L 413.286078 320.108669 
L 415.112335 317.221368 
L 416.938593 316.109047 
L 420.591108 316.180047 
L 422.417365 316.542932 
L 424.243623 316.566598 
L 427.896138 317.3397 
L 429.722395 318.144358 
L 431.548653 319.185679 
L 433.37491 319.682674 
L 435.201168 320.581997 
L 437.027425 321.694318 
L 438.853683 322.498975 
L 442.506198 324.273955 
L 444.332455 324.575702 
L 449.811228 325.88327 
L 451.637485 326.853593 
L 453.463743 327.39792 
L 457.116257 327.539918 
L 458.942515 327.326921 
L 462.59503 327.942247 
L 464.421287 327.98958 
L 466.247545 328.320909 
L 468.073802 330.048556 
L 469.90006 332.912191 
L 471.726317 334.213843 
L 475.378832 335.894157 
L 477.20509 336.343819 
L 479.031347 337.574471 
L 480.857605 338.260797 
L 484.51012 338.852457 
L 486.336377 339.870112 
L 488.162635 341.692425 
L 491.81515 343.420072 
L 493.641407 344.461394 
L 495.467665 345.258162 
L 497.293922 347.056808 
L 504.598952 359.726221 
L 513.73024 373.709681 
L 515.556497 375.717944 
L 517.382755 376.941835 
L 519.209012 377.902015 
L 522.861527 380.899759 
L 524.687785 382.019969 
L 526.514042 382.339465 
L 528.3403 381.854304 
L 530.166557 381.499308 
L 531.992815 380.954981 
L 533.819072 380.079324 
L 535.64533 379.913659 
L 539.297845 381.002314 
L 541.124102 380.860315 
L 542.95036 380.268655 
L 550.25539 379.826883 
L 552.081647 378.655396 
L 553.907905 376.718695 
L 555.734162 374.281056 
L 561.212935 365.97415 
L 563.039192 363.15954 
L 564.86545 360.60864 
L 568.517965 356.889635 
L 570.344222 355.331033 
L 573.996737 353.572957 
L 575.822995 352.37386 
L 577.649252 351.403538 
L 579.47551 351.277316 
L 583.128025 352.425137 
L 584.954282 352.342304 
L 586.78054 352.070141 
L 588.606797 351.644146 
L 590.433055 351.419315 
L 592.259312 351.51398 
L 595.911827 351.419315 
L 597.738085 351.466648 
L 599.564342 351.395648 
L 603.216857 350.827655 
L 605.043115 350.413493 
L 610.521887 350.046664 
L 612.348145 350.129496 
L 614.174402 349.999331 
L 616.00066 350.046664 
L 619.653175 350.803988 
L 625.131947 350.022997 
L 630.61072 349.329909 
L 632.436977 349.285957 
L 634.263235 348.836295 
L 637.91575 346.77901 
L 643.394522 344.348132 
L 645.22078 343.345691 
L 647.047037 342.186037 
L 648.873295 341.224167 
L 650.699552 340.921576 
L 652.52581 340.816768 
L 654.352067 340.356964 
L 656.178325 339.533712 
L 659.83084 338.820339 
L 661.657097 337.853398 
L 663.483355 337.280332 
L 665.309612 337.444306 
L 667.13587 337.244833 
L 672.614642 335.507043 
L 674.4409 335.214594 
L 676.267157 335.209522 
L 678.093415 335.444495 
L 681.74593 335.397163 
L 685.398445 335.971919 
L 689.05096 335.630446 
L 692.703475 336.590625 
L 696.35599 336.888146 
L 700.008505 338.13007 
L 701.834762 338.792729 
L 703.66102 340.078039 
L 705.487277 340.688294 
L 707.313535 340.390773 
L 709.139792 339.93942 
L 710.96605 338.952193 
L 712.792307 337.072404 
L 714.618565 334.665193 
L 716.444822 332.629883 
L 718.27108 330.197315 
L 721.923595 323.880078 
L 723.749852 320.977563 
L 727.402367 316.054389 
L 731.054882 311.431552 
L 738.359912 300.245797 
L 742.012427 293.331829 
L 743.838685 290.011772 
L 747.4912 282.517976 
L 749.317457 279.432892 
L 751.143715 276.812683 
L 754.79623 270.969335 
L 756.622487 267.750705 
L 760.275002 260.185346 
L 762.10126 257.002216 
L 763.927517 254.28058 
L 765.753775 252.517433 
L 767.580032 251.217472 
L 769.40629 250.352804 
L 771.232547 249.325851 
L 773.058805 247.604121 
L 774.885062 246.228934 
L 776.71132 245.422585 
L 778.537577 244.839376 
L 780.363835 244.517061 
L 782.190092 244.351397 
L 784.01635 243.809888 
L 785.842607 243.564773 
L 787.668865 243.909626 
L 787.668865 243.909626 
" clip-path="url(#p5660f5b1f3)" style="fill: none; stroke: #4878d0; stroke-width: 1.5; stroke-linecap: round"/>
   </g>
   <g id="patch_8">
    <path d="M 59.54 415.55 
L 59.54 235.375 
" style="fill: none; stroke: #cccccc; stroke-width: 1.25; stroke-linejoin: miter; stroke-linecap: square"/>
   </g>
   <g id="patch_9">
    <path d="M 851.04 415.55 
L 851.04 235.375 
" style="fill: none; stroke: #cccccc; stroke-width: 1.25; stroke-linejoin: miter; stroke-linecap: square"/>
   </g>
   <g id="patch_10">
    <path d="M 59.54 415.55 
L 851.04 415.55 
" style="fill: none; stroke: #cccccc; stroke-width: 1.25; stroke-linejoin: miter; stroke-linecap: square"/>
   </g>
   <g id="patch_11">
    <path d="M 59.54 235.375 
L 851.04 235.375 
" style="fill: none; stroke: #cccccc; stroke-width: 1.25; stroke-linejoin: miter; stroke-linecap: square"/>
   </g>
   <g id="text_14">
    <!-- Trend -->
    <g style="fill: #262626" transform="translate(439.842813 229.375) scale(0.12 -0.12)">
     <defs>
      <path id="ArialMT-54" d="M 1659 0 
L 1659 4041 
L 150 4041 
L 150 4581 
L 3781 4581 
L 3781 4041 
L 2266 4041 
L 2266 0 
L 1659 0 
z
" transform="scale(0.015625)"/>
      <path id="ArialMT-65" d="M 2694 1069 
L 3275 997 
Q 3138 488 2766 206 
Q 2394 -75 1816 -75 
Q 1088 -75 661 373 
Q 234 822 234 1631 
Q 234 2469 665 2931 
Q 1097 3394 1784 3394 
Q 2450 3394 2872 2941 
Q 3294 2488 3294 1666 
Q 3294 1616 3291 1516 
L 816 1516 
Q 847 969 1125 678 
Q 1403 388 1819 388 
Q 2128 388 2347 550 
Q 2566 713 2694 1069 
z
M 847 1978 
L 2700 1978 
Q 2663 2397 2488 2606 
Q 2219 2931 1791 2931 
Q 1403 2931 1139 2672 
Q 875 2413 847 1978 
z
" transform="scale(0.015625)"/>
      <path id="ArialMT-64" d="M 2575 0 
L 2575 419 
Q 2259 -75 1647 -75 
Q 1250 -75 917 144 
Q 584 363 401 755 
Q 219 1147 219 1656 
Q 219 2153 384 2558 
Q 550 2963 881 3178 
Q 1213 3394 1622 3394 
Q 1922 3394 2156 3267 
Q 2391 3141 2538 2938 
L 2538 4581 
L 3097 4581 
L 3097 0 
L 2575 0 
z
M 797 1656 
Q 797 1019 1065 703 
Q 1334 388 1700 388 
Q 2069 388 2326 689 
Q 2584 991 2584 1609 
Q 2584 2291 2321 2609 
Q 2059 2928 1675 2928 
Q 1300 2928 1048 2622 
Q 797 2316 797 1656 
z
" transform="scale(0.015625)"/>
     </defs>
     <use xlink:href="#ArialMT-54"/>
     <use xlink:href="#ArialMT-72" transform="translate(57.333984 0)"/>
     <use xlink:href="#ArialMT-65" transform="translate(90.634766 0)"/>
     <use xlink:href="#ArialMT-6e" transform="translate(146.25 0)"/>
     <use xlink:href="#ArialMT-64" transform="translate(201.865234 0)"/>
    </g>
   </g>
  </g>
  <g id="axes_3">
   <g id="patch_12">
    <path d="M 59.54 623.325 
L 851.04 623.325 
L 851.04 443.15 
L 59.54 443.15 
z
" style="fill: #ffffff"/>
   </g>
   <g id="matplotlib.axis_5">
    <g id="xtick_15">
     <g id="line2d_29">
      <path d="M 95.517273 623.325 
L 95.517273 443.15 
" clip-path="url(#p10d911f8d3)" style="fill: none; stroke: #cccccc; stroke-linecap: round"/>
     </g>
    </g>
    <g id="xtick_16">
     <g id="line2d_30">
      <path d="M 206.91898 623.325 
L 206.91898 443.15 
" clip-path="url(#p10d911f8d3)" style="fill: none; stroke: #cccccc; stroke-linecap: round"/>
     </g>
    </g>
    <g id="xtick_17">
     <g id="line2d_31">
      <path d="M 318.320688 623.325 
L 318.320688 443.15 
" clip-path="url(#p10d911f8d3)" style="fill: none; stroke: #cccccc; stroke-linecap: round"/>
     </g>
    </g>
    <g id="xtick_18">
     <g id="line2d_32">
      <path d="M 426.06988 623.325 
L 426.06988 443.15 
" clip-path="url(#p10d911f8d3)" style="fill: none; stroke: #cccccc; stroke-linecap: round"/>
     </g>
    </g>
    <g id="xtick_19">
     <g id="line2d_33">
      <path d="M 537.471587 623.325 
L 537.471587 443.15 
" clip-path="url(#p10d911f8d3)" style="fill: none; stroke: #cccccc; stroke-linecap: round"/>
     </g>
    </g>
    <g id="xtick_20">
     <g id="line2d_34">
      <path d="M 648.873295 623.325 
L 648.873295 443.15 
" clip-path="url(#p10d911f8d3)" style="fill: none; stroke: #cccccc; stroke-linecap: round"/>
     </g>
    </g>
    <g id="xtick_21">
     <g id="line2d_35">
      <path d="M 762.10126 623.325 
L 762.10126 443.15 
" clip-path="url(#p10d911f8d3)" style="fill: none; stroke: #cccccc; stroke-linecap: round"/>
     </g>
    </g>
   </g>
   <g id="matplotlib.axis_6">
    <g id="ytick_13">
     <g id="line2d_36">
      <path d="M 59.54 603.737657 
L 851.04 603.737657 
" clip-path="url(#p10d911f8d3)" style="fill: none; stroke: #cccccc; stroke-linecap: round"/>
     </g>
     <g id="text_15">
      <!-- −1000 -->
      <g style="fill: #262626" transform="translate(19.147187 607.674454) scale(0.11 -0.11)">
       <defs>
        <path id="ArialMT-2212" d="M 3381 1997 
L 356 1997 
L 356 2522 
L 3381 2522 
L 3381 1997 
z
" transform="scale(0.015625)"/>
        <path id="ArialMT-31" d="M 2384 0 
L 1822 0 
L 1822 3584 
Q 1619 3391 1289 3197 
Q 959 3003 697 2906 
L 697 3450 
Q 1169 3672 1522 3987 
Q 1875 4303 2022 4600 
L 2384 4600 
L 2384 0 
z
" transform="scale(0.015625)"/>
       </defs>
       <use xlink:href="#ArialMT-2212"/>
       <use xlink:href="#ArialMT-31" transform="translate(58.398438 0)"/>
       <use xlink:href="#ArialMT-30" transform="translate(114.013672 0)"/>
       <use xlink:href="#ArialMT-30" transform="translate(169.628906 0)"/>
       <use xlink:href="#ArialMT-30" transform="translate(225.244141 0)"/>
      </g>
     </g>
    </g>
    <g id="ytick_14">
     <g id="line2d_37">
      <path d="M 59.54 580.510433 
L 851.04 580.510433 
" clip-path="url(#p10d911f8d3)" style="fill: none; stroke: #cccccc; stroke-linecap: round"/>
     </g>
     <g id="text_16">
      <!-- −500 -->
      <g style="fill: #262626" transform="translate(25.264219 584.44723) scale(0.11 -0.11)">
       <use xlink:href="#ArialMT-2212"/>
       <use xlink:href="#ArialMT-35" transform="translate(58.398438 0)"/>
       <use xlink:href="#ArialMT-30" transform="translate(114.013672 0)"/>
       <use xlink:href="#ArialMT-30" transform="translate(169.628906 0)"/>
      </g>
     </g>
    </g>
    <g id="ytick_15">
     <g id="line2d_38">
      <path d="M 59.54 557.283209 
L 851.04 557.283209 
" clip-path="url(#p10d911f8d3)" style="fill: none; stroke: #cccccc; stroke-linecap: round"/>
     </g>
     <g id="text_17">
      <!-- 0 -->
      <g style="fill: #262626" transform="translate(43.922969 561.220006) scale(0.11 -0.11)">
       <use xlink:href="#ArialMT-30"/>
      </g>
     </g>
    </g>
    <g id="ytick_16">
     <g id="line2d_39">
      <path d="M 59.54 534.055985 
L 851.04 534.055985 
" clip-path="url(#p10d911f8d3)" style="fill: none; stroke: #cccccc; stroke-linecap: round"/>
     </g>
     <g id="text_18">
      <!-- 500 -->
      <g style="fill: #262626" transform="translate(31.688906 537.992782) scale(0.11 -0.11)">
       <use xlink:href="#ArialMT-35"/>
       <use xlink:href="#ArialMT-30" transform="translate(55.615234 0)"/>
       <use xlink:href="#ArialMT-30" transform="translate(111.230469 0)"/>
      </g>
     </g>
    </g>
    <g id="ytick_17">
     <g id="line2d_40">
      <path d="M 59.54 510.828761 
L 851.04 510.828761 
" clip-path="url(#p10d911f8d3)" style="fill: none; stroke: #cccccc; stroke-linecap: round"/>
     </g>
     <g id="text_19">
      <!-- 1000 -->
      <g style="fill: #262626" transform="translate(25.571875 514.765558) scale(0.11 -0.11)">
       <use xlink:href="#ArialMT-31"/>
       <use xlink:href="#ArialMT-30" transform="translate(55.615234 0)"/>
       <use xlink:href="#ArialMT-30" transform="translate(111.230469 0)"/>
       <use xlink:href="#ArialMT-30" transform="translate(166.845703 0)"/>
      </g>
     </g>
    </g>
    <g id="ytick_18">
     <g id="line2d_41">
      <path d="M 59.54 487.601537 
L 851.04 487.601537 
" clip-path="url(#p10d911f8d3)" style="fill: none; stroke: #cccccc; stroke-linecap: round"/>
     </g>
     <g id="text_20">
      <!-- 1500 -->
      <g style="fill: #262626" transform="translate(25.571875 491.538334) scale(0.11 -0.11)">
       <use xlink:href="#ArialMT-31"/>
       <use xlink:href="#ArialMT-35" transform="translate(55.615234 0)"/>
       <use xlink:href="#ArialMT-30" transform="translate(111.230469 0)"/>
       <use xlink:href="#ArialMT-30" transform="translate(166.845703 0)"/>
      </g>
     </g>
    </g>
    <g id="ytick_19">
     <g id="line2d_42">
      <path d="M 59.54 464.374313 
L 851.04 464.374313 
" clip-path="url(#p10d911f8d3)" style="fill: none; stroke: #cccccc; stroke-linecap: round"/>
     </g>
     <g id="text_21">
      <!-- 2000 -->
      <g style="fill: #262626" transform="translate(25.571875 468.31111) scale(0.11 -0.11)">
       <use xlink:href="#ArialMT-32"/>
       <use xlink:href="#ArialMT-30" transform="translate(55.615234 0)"/>
       <use xlink:href="#ArialMT-30" transform="translate(111.230469 0)"/>
       <use xlink:href="#ArialMT-30" transform="translate(166.845703 0)"/>
      </g>
     </g>
    </g>
   </g>
   <g id="line2d_43">
    <path d="M 95.517273 557.730175 
L 97.34353 603.366935 
L 99.169788 583.064264 
L 100.996045 615.135227 
L 102.822303 611.500864 
L 104.64856 583.429008 
L 106.474818 588.552766 
L 108.301075 582.018664 
L 110.127333 521.910906 
L 111.95359 508.231232 
L 113.779848 451.339773 
L 115.606105 556.161344 
L 117.432363 512.864276 
L 119.25862 531.281957 
L 121.084878 545.2699 
L 122.911135 539.408672 
L 124.737393 548.41027 
L 126.56365 538.517 
L 128.389908 544.015808 
L 130.216165 548.588103 
L 132.042423 578.410185 
L 133.86868 508.377356 
L 135.694938 536.952349 
L 139.347453 567.492449 
L 141.17371 555.724014 
L 142.999968 546.460662 
L 144.826225 612.266459 
L 146.652483 582.601913 
L 148.47874 607.424524 
L 150.304998 557.730175 
L 152.131255 603.366935 
L 153.957513 583.064264 
L 155.78377 615.135227 
L 157.610028 611.500864 
L 159.436285 583.429008 
L 161.262543 588.552766 
L 163.0888 582.018664 
L 164.915058 521.910906 
L 166.741315 508.231232 
L 168.567573 451.339773 
L 170.39383 556.161344 
L 172.220088 512.864276 
L 174.046345 531.281957 
L 175.872603 545.2699 
L 177.69886 539.408672 
L 179.525118 548.41027 
L 181.351375 538.517 
L 183.177633 544.015808 
L 185.00389 548.588103 
L 186.830148 578.410185 
L 188.656405 508.377356 
L 190.482663 536.952349 
L 194.135178 567.492449 
L 195.961435 555.724014 
L 197.787693 546.460662 
L 199.61395 612.266459 
L 201.440208 582.601913 
L 203.266465 607.424524 
L 205.092723 557.730175 
L 206.91898 603.366935 
L 208.745238 583.064264 
L 210.571495 615.135227 
L 212.397753 611.500864 
L 214.22401 583.429008 
L 216.050268 588.552766 
L 217.876525 582.018664 
L 219.702783 521.910906 
L 221.52904 508.231232 
L 223.355298 451.339773 
L 225.181555 556.161344 
L 227.007813 512.864276 
L 228.83407 531.281957 
L 230.660328 545.2699 
L 232.486585 539.408672 
L 234.312843 548.41027 
L 236.1391 538.517 
L 237.965358 544.015808 
L 239.791615 548.588103 
L 241.617873 578.410185 
L 243.44413 508.377356 
L 245.270388 536.952349 
L 248.922903 567.492449 
L 250.74916 555.724014 
L 252.575418 546.460662 
L 254.401675 612.266459 
L 256.227933 582.601913 
L 258.05419 607.424524 
L 259.880448 557.730175 
L 261.706705 603.366935 
L 263.532963 583.064264 
L 265.35922 615.135227 
L 267.185478 611.500864 
L 269.011735 583.429008 
L 270.837993 588.552766 
L 272.66425 582.018664 
L 274.490508 521.910906 
L 276.316765 508.231232 
L 278.143023 451.339773 
L 279.96928 556.161344 
L 281.795538 512.864276 
L 283.621795 531.281957 
L 285.448053 545.2699 
L 287.27431 539.408672 
L 289.100568 548.41027 
L 290.926825 538.517 
L 292.753083 544.015808 
L 294.57934 548.588103 
L 296.405598 578.410185 
L 298.231855 508.377356 
L 300.058113 536.952349 
L 303.710628 567.492449 
L 305.536885 555.724014 
L 307.363143 546.460662 
L 309.1894 612.266459 
L 311.015658 582.601913 
L 312.841915 607.424524 
L 314.668173 557.730175 
L 316.49443 603.366935 
L 318.320688 583.064264 
L 320.146945 615.135227 
L 321.973203 611.500864 
L 323.79946 583.429008 
L 325.625718 588.552766 
L 327.451975 582.018664 
L 329.278233 521.910906 
L 331.10449 508.231232 
L 332.930748 451.339773 
L 334.757005 556.161344 
L 336.583263 512.864276 
L 338.40952 531.281957 
L 340.235778 545.2699 
L 342.062035 539.408672 
L 343.888293 548.41027 
L 345.71455 538.517 
L 347.540808 544.015808 
L 349.367065 548.588103 
L 351.193323 578.410185 
L 353.01958 508.377356 
L 354.845838 536.952349 
L 358.498353 567.492449 
L 360.32461 555.724014 
L 362.150868 546.460662 
L 363.977125 612.266459 
L 365.803383 582.601913 
L 367.62964 607.424524 
L 369.455898 557.730175 
L 371.282155 603.366935 
L 373.108413 583.064264 
L 374.93467 615.135227 
L 376.760928 611.500864 
L 378.587185 583.429008 
L 380.413443 588.552766 
L 382.2397 582.018664 
L 384.065958 521.910906 
L 385.892215 508.231232 
L 387.718473 451.339773 
L 389.54473 556.161344 
L 391.370988 512.864276 
L 393.197245 531.281957 
L 395.023503 545.2699 
L 396.84976 539.408672 
L 398.676018 548.41027 
L 400.502275 538.517 
L 402.328533 544.015808 
L 404.15479 548.588103 
L 405.981048 578.410185 
L 407.807305 508.377356 
L 409.633563 536.952349 
L 413.286078 567.492449 
L 415.112335 555.724014 
L 416.938593 546.460662 
L 418.76485 612.266459 
L 420.591108 582.601913 
L 422.417365 607.424524 
L 424.243623 557.730175 
L 426.06988 603.366935 
L 427.896138 583.064264 
L 429.722395 615.135227 
L 431.548653 611.500864 
L 433.37491 583.429008 
L 435.201168 588.552766 
L 437.027425 582.018664 
L 438.853683 521.910906 
L 440.67994 508.231232 
L 442.506198 451.339773 
L 444.332455 556.161344 
L 446.158713 512.864276 
L 447.98497 531.281957 
L 449.811228 545.2699 
L 451.637485 539.408672 
L 453.463743 548.41027 
L 455.29 538.517 
L 457.116257 544.015808 
L 458.942515 548.588103 
L 460.768772 578.410185 
L 462.59503 508.377356 
L 464.421287 536.952349 
L 468.073802 567.492449 
L 469.90006 555.724014 
L 471.726317 546.460662 
L 473.552575 612.266459 
L 475.378832 582.601913 
L 477.20509 607.424524 
L 479.031347 557.730175 
L 480.857605 603.366935 
L 482.683862 583.064264 
L 484.51012 615.135227 
L 486.336377 611.500864 
L 488.162635 583.429008 
L 489.988892 588.552766 
L 491.81515 582.018664 
L 493.641407 521.910906 
L 495.467665 508.231232 
L 497.293922 451.339773 
L 499.12018 556.161344 
L 500.946437 512.864276 
L 502.772695 531.281957 
L 504.598952 545.2699 
L 506.42521 539.408672 
L 508.251467 548.41027 
L 510.077725 538.517 
L 511.903982 544.015808 
L 513.73024 548.588103 
L 515.556497 578.410185 
L 517.382755 508.377356 
L 519.209012 536.952349 
L 522.861527 567.492449 
L 524.687785 555.724014 
L 526.514042 546.460662 
L 528.3403 612.266459 
L 530.166557 582.601913 
L 531.992815 607.424524 
L 533.819072 557.730175 
L 535.64533 603.366935 
L 537.471587 583.064264 
L 539.297845 615.135227 
L 541.124102 611.500864 
L 542.95036 583.429008 
L 544.776617 588.552766 
L 546.602875 582.018664 
L 548.429132 521.910906 
L 550.25539 508.231232 
L 552.081647 451.339773 
L 553.907905 556.161344 
L 555.734162 512.864276 
L 557.56042 531.281957 
L 559.386677 545.2699 
L 561.212935 539.408672 
L 563.039192 548.41027 
L 564.86545 538.517 
L 566.691707 544.015808 
L 568.517965 548.588103 
L 570.344222 578.410185 
L 572.17048 508.377356 
L 573.996737 536.952349 
L 577.649252 567.492449 
L 579.47551 555.724014 
L 581.301767 546.460662 
L 583.128025 612.266459 
L 584.954282 582.601913 
L 586.78054 607.424524 
L 588.606797 557.730175 
L 590.433055 603.366935 
L 592.259312 583.064264 
L 594.08557 615.135227 
L 595.911827 611.500864 
L 597.738085 583.429008 
L 599.564342 588.552766 
L 601.3906 582.018664 
L 603.216857 521.910906 
L 605.043115 508.231232 
L 606.869372 451.339773 
L 608.69563 556.161344 
L 610.521887 512.864276 
L 612.348145 531.281957 
L 614.174402 545.2699 
L 616.00066 539.408672 
L 617.826917 548.41027 
L 619.653175 538.517 
L 621.479432 544.015808 
L 623.30569 548.588103 
L 625.131947 578.410185 
L 626.958205 508.377356 
L 628.784462 536.952349 
L 632.436977 567.492449 
L 634.263235 555.724014 
L 636.089492 546.460662 
L 637.91575 612.266459 
L 639.742007 582.601913 
L 641.568265 607.424524 
L 643.394522 557.730175 
L 645.22078 603.366935 
L 647.047037 583.064264 
L 648.873295 615.135227 
L 650.699552 611.500864 
L 652.52581 583.429008 
L 654.352067 588.552766 
L 656.178325 582.018664 
L 658.004582 521.910906 
L 659.83084 508.231232 
L 661.657097 451.339773 
L 663.483355 556.161344 
L 665.309612 512.864276 
L 667.13587 531.281957 
L 668.962127 545.2699 
L 670.788385 539.408672 
L 672.614642 548.41027 
L 674.4409 538.517 
L 676.267157 544.015808 
L 678.093415 548.588103 
L 679.919672 578.410185 
L 681.74593 508.377356 
L 683.572187 536.952349 
L 687.224702 567.492449 
L 689.05096 555.724014 
L 690.877217 546.460662 
L 692.703475 612.266459 
L 694.529732 582.601913 
L 696.35599 607.424524 
L 698.182247 557.730175 
L 700.008505 603.366935 
L 701.834762 583.064264 
L 703.66102 615.135227 
L 705.487277 611.500864 
L 707.313535 583.429008 
L 709.139792 588.552766 
L 710.96605 582.018664 
L 712.792307 521.910906 
L 714.618565 508.231232 
L 716.444822 451.339773 
L 718.27108 556.161344 
L 720.097337 512.864276 
L 721.923595 531.281957 
L 723.749852 545.2699 
L 725.57611 539.408672 
L 727.402367 548.41027 
L 729.228625 538.517 
L 731.054882 544.015808 
L 732.88114 548.588103 
L 734.707397 578.410185 
L 736.533655 508.377356 
L 738.359912 536.952349 
L 742.012427 567.492449 
L 743.838685 555.724014 
L 745.664942 546.460662 
L 747.4912 612.266459 
L 749.317457 582.601913 
L 751.143715 607.424524 
L 752.969972 557.730175 
L 754.79623 603.366935 
L 756.622487 583.064264 
L 758.448745 615.135227 
L 760.275002 611.500864 
L 762.10126 583.429008 
L 763.927517 588.552766 
L 765.753775 582.018664 
L 767.580032 521.910906 
L 769.40629 508.231232 
L 771.232547 451.339773 
L 773.058805 556.161344 
L 774.885062 512.864276 
L 776.71132 531.281957 
L 778.537577 545.2699 
L 780.363835 539.408672 
L 782.190092 548.41027 
L 784.01635 538.517 
L 785.842607 544.015808 
L 787.668865 548.588103 
L 789.495122 578.410185 
L 791.32138 508.377356 
L 793.147637 536.952349 
L 796.800152 567.492449 
L 798.62641 555.724014 
L 800.452667 546.460662 
L 802.278925 612.266459 
L 804.105182 582.601913 
L 805.93144 607.424524 
L 807.757697 557.730175 
L 809.583955 603.366935 
L 811.410212 583.064264 
L 813.23647 615.135227 
L 815.062727 611.500864 
L 815.062727 611.500864 
" clip-path="url(#p10d911f8d3)" style="fill: none; stroke: #4878d0; stroke-width: 1.5; stroke-linecap: round"/>
   </g>
   <g id="patch_13">
    <path d="M 59.54 623.325 
L 59.54 443.15 
" style="fill: none; stroke: #cccccc; stroke-width: 1.25; stroke-linejoin: miter; stroke-linecap: square"/>
   </g>
   <g id="patch_14">
    <path d="M 851.04 623.325 
L 851.04 443.15 
" style="fill: none; stroke: #cccccc; stroke-width: 1.25; stroke-linejoin: miter; stroke-linecap: square"/>
   </g>
   <g id="patch_15">
    <path d="M 59.54 623.325 
L 851.04 623.325 
" style="fill: none; stroke: #cccccc; stroke-width: 1.25; stroke-linejoin: miter; stroke-linecap: square"/>
   </g>
   <g id="patch_16">
    <path d="M 59.54 443.15 
L 851.04 443.15 
" style="fill: none; stroke: #cccccc; stroke-width: 1.25; stroke-linejoin: miter; stroke-linecap: square"/>
   </g>
   <g id="text_22">
    <!-- Seasonal -->
    <g style="fill: #262626" transform="translate(430.271875 437.15) scale(0.12 -0.12)">
     <defs>
      <path id="ArialMT-53" d="M 288 1472 
L 859 1522 
Q 900 1178 1048 958 
Q 1197 738 1509 602 
Q 1822 466 2213 466 
Q 2559 466 2825 569 
Q 3091 672 3220 851 
Q 3350 1031 3350 1244 
Q 3350 1459 3225 1620 
Q 3100 1781 2813 1891 
Q 2628 1963 1997 2114 
Q 1366 2266 1113 2400 
Q 784 2572 623 2826 
Q 463 3081 463 3397 
Q 463 3744 659 4045 
Q 856 4347 1234 4503 
Q 1613 4659 2075 4659 
Q 2584 4659 2973 4495 
Q 3363 4331 3572 4012 
Q 3781 3694 3797 3291 
L 3216 3247 
Q 3169 3681 2898 3903 
Q 2628 4125 2100 4125 
Q 1550 4125 1298 3923 
Q 1047 3722 1047 3438 
Q 1047 3191 1225 3031 
Q 1400 2872 2139 2705 
Q 2878 2538 3153 2413 
Q 3553 2228 3743 1945 
Q 3934 1663 3934 1294 
Q 3934 928 3725 604 
Q 3516 281 3123 101 
Q 2731 -78 2241 -78 
Q 1619 -78 1198 103 
Q 778 284 539 648 
Q 300 1013 288 1472 
z
" transform="scale(0.015625)"/>
      <path id="ArialMT-73" d="M 197 991 
L 753 1078 
Q 800 744 1014 566 
Q 1228 388 1613 388 
Q 2000 388 2187 545 
Q 2375 703 2375 916 
Q 2375 1106 2209 1216 
Q 2094 1291 1634 1406 
Q 1016 1563 777 1677 
Q 538 1791 414 1992 
Q 291 2194 291 2438 
Q 291 2659 392 2848 
Q 494 3038 669 3163 
Q 800 3259 1026 3326 
Q 1253 3394 1513 3394 
Q 1903 3394 2198 3281 
Q 2494 3169 2634 2976 
Q 2775 2784 2828 2463 
L 2278 2388 
Q 2241 2644 2061 2787 
Q 1881 2931 1553 2931 
Q 1166 2931 1000 2803 
Q 834 2675 834 2503 
Q 834 2394 903 2306 
Q 972 2216 1119 2156 
Q 1203 2125 1616 2013 
Q 2213 1853 2448 1751 
Q 2684 1650 2818 1456 
Q 2953 1263 2953 975 
Q 2953 694 2789 445 
Q 2625 197 2315 61 
Q 2006 -75 1616 -75 
Q 969 -75 630 194 
Q 291 463 197 991 
z
" transform="scale(0.015625)"/>
      <path id="ArialMT-6f" d="M 213 1659 
Q 213 2581 725 3025 
Q 1153 3394 1769 3394 
Q 2453 3394 2887 2945 
Q 3322 2497 3322 1706 
Q 3322 1066 3130 698 
Q 2938 331 2570 128 
Q 2203 -75 1769 -75 
Q 1072 -75 642 372 
Q 213 819 213 1659 
z
M 791 1659 
Q 791 1022 1069 705 
Q 1347 388 1769 388 
Q 2188 388 2466 706 
Q 2744 1025 2744 1678 
Q 2744 2294 2464 2611 
Q 2184 2928 1769 2928 
Q 1347 2928 1069 2612 
Q 791 2297 791 1659 
z
" transform="scale(0.015625)"/>
     </defs>
     <use xlink:href="#ArialMT-53"/>
     <use xlink:href="#ArialMT-65" transform="translate(66.699219 0)"/>
     <use xlink:href="#ArialMT-61" transform="translate(122.314453 0)"/>
     <use xlink:href="#ArialMT-73" transform="translate(177.929688 0)"/>
     <use xlink:href="#ArialMT-6f" transform="translate(227.929688 0)"/>
     <use xlink:href="#ArialMT-6e" transform="translate(283.544922 0)"/>
     <use xlink:href="#ArialMT-61" transform="translate(339.160156 0)"/>
     <use xlink:href="#ArialMT-6c" transform="translate(394.775391 0)"/>
    </g>
   </g>
  </g>
  <g id="axes_4">
   <g id="patch_17">
    <path d="M 59.54 831.1 
L 851.04 831.1 
L 851.04 650.925 
L 59.54 650.925 
z
" style="fill: #ffffff"/>
   </g>
   <g id="matplotlib.axis_7">
    <g id="xtick_22">
     <g id="line2d_44">
      <path d="M 95.517273 831.1 
L 95.517273 650.925 
" clip-path="url(#p47d6d5163f)" style="fill: none; stroke: #cccccc; stroke-linecap: round"/>
     </g>
     <g id="text_23">
      <!-- 2024-09 -->
      <g style="fill: #262626" transform="translate(75.334851 848.473594) scale(0.11 -0.11)">
       <defs>
        <path id="ArialMT-2d" d="M 203 1375 
L 203 1941 
L 1931 1941 
L 1931 1375 
L 203 1375 
z
" transform="scale(0.015625)"/>
        <path id="ArialMT-39" d="M 350 1059 
L 891 1109 
Q 959 728 1153 556 
Q 1347 384 1650 384 
Q 1909 384 2104 503 
Q 2300 622 2425 820 
Q 2550 1019 2634 1356 
Q 2719 1694 2719 2044 
Q 2719 2081 2716 2156 
Q 2547 1888 2255 1720 
Q 1963 1553 1622 1553 
Q 1053 1553 659 1965 
Q 266 2378 266 3053 
Q 266 3750 677 4175 
Q 1088 4600 1706 4600 
Q 2153 4600 2523 4359 
Q 2894 4119 3086 3673 
Q 3278 3228 3278 2384 
Q 3278 1506 3087 986 
Q 2897 466 2520 194 
Q 2144 -78 1638 -78 
Q 1100 -78 759 220 
Q 419 519 350 1059 
z
M 2653 3081 
Q 2653 3566 2395 3850 
Q 2138 4134 1775 4134 
Q 1400 4134 1122 3828 
Q 844 3522 844 3034 
Q 844 2597 1108 2323 
Q 1372 2050 1759 2050 
Q 2150 2050 2401 2323 
Q 2653 2597 2653 3081 
z
" transform="scale(0.015625)"/>
       </defs>
       <use xlink:href="#ArialMT-32"/>
       <use xlink:href="#ArialMT-30" transform="translate(55.615234 0)"/>
       <use xlink:href="#ArialMT-32" transform="translate(111.230469 0)"/>
       <use xlink:href="#ArialMT-34" transform="translate(166.845703 0)"/>
       <use xlink:href="#ArialMT-2d" transform="translate(222.460938 0)"/>
       <use xlink:href="#ArialMT-30" transform="translate(255.761719 0)"/>
       <use xlink:href="#ArialMT-39" transform="translate(311.376953 0)"/>
      </g>
     </g>
    </g>
    <g id="xtick_23">
     <g id="line2d_45">
      <path d="M 206.91898 831.1 
L 206.91898 650.925 
" clip-path="url(#p47d6d5163f)" style="fill: none; stroke: #cccccc; stroke-linecap: round"/>
     </g>
     <g id="text_24">
      <!-- 2024-11 -->
      <g style="fill: #262626" transform="translate(187.142183 848.473594) scale(0.11 -0.11)">
       <use xlink:href="#ArialMT-32"/>
       <use xlink:href="#ArialMT-30" transform="translate(55.615234 0)"/>
       <use xlink:href="#ArialMT-32" transform="translate(111.230469 0)"/>
       <use xlink:href="#ArialMT-34" transform="translate(166.845703 0)"/>
       <use xlink:href="#ArialMT-2d" transform="translate(222.460938 0)"/>
       <use xlink:href="#ArialMT-31" transform="translate(255.761719 0)"/>
       <use xlink:href="#ArialMT-31" transform="translate(304.001953 0)"/>
      </g>
     </g>
    </g>
    <g id="xtick_24">
     <g id="line2d_46">
      <path d="M 318.320688 831.1 
L 318.320688 650.925 
" clip-path="url(#p47d6d5163f)" style="fill: none; stroke: #cccccc; stroke-linecap: round"/>
     </g>
     <g id="text_25">
      <!-- 2025-01 -->
      <g style="fill: #262626" transform="translate(298.138266 848.473594) scale(0.11 -0.11)">
       <use xlink:href="#ArialMT-32"/>
       <use xlink:href="#ArialMT-30" transform="translate(55.615234 0)"/>
       <use xlink:href="#ArialMT-32" transform="translate(111.230469 0)"/>
       <use xlink:href="#ArialMT-35" transform="translate(166.845703 0)"/>
       <use xlink:href="#ArialMT-2d" transform="translate(222.460938 0)"/>
       <use xlink:href="#ArialMT-30" transform="translate(255.761719 0)"/>
       <use xlink:href="#ArialMT-31" transform="translate(311.376953 0)"/>
      </g>
     </g>
    </g>
    <g id="xtick_25">
     <g id="line2d_47">
      <path d="M 426.06988 831.1 
L 426.06988 650.925 
" clip-path="url(#p47d6d5163f)" style="fill: none; stroke: #cccccc; stroke-linecap: round"/>
     </g>
     <g id="text_26">
      <!-- 2025-03 -->
      <g style="fill: #262626" transform="translate(405.887458 848.473594) scale(0.11 -0.11)">
       <use xlink:href="#ArialMT-32"/>
       <use xlink:href="#ArialMT-30" transform="translate(55.615234 0)"/>
       <use xlink:href="#ArialMT-32" transform="translate(111.230469 0)"/>
       <use xlink:href="#ArialMT-35" transform="translate(166.845703 0)"/>
       <use xlink:href="#ArialMT-2d" transform="translate(222.460938 0)"/>
       <use xlink:href="#ArialMT-30" transform="translate(255.761719 0)"/>
       <use xlink:href="#ArialMT-33" transform="translate(311.376953 0)"/>
      </g>
     </g>
    </g>
    <g id="xtick_26">
     <g id="line2d_48">
      <path d="M 537.471587 831.1 
L 537.471587 650.925 
" clip-path="url(#p47d6d5163f)" style="fill: none; stroke: #cccccc; stroke-linecap: round"/>
     </g>
     <g id="text_27">
      <!-- 2025-05 -->
      <g style="fill: #262626" transform="translate(517.289166 848.473594) scale(0.11 -0.11)">
       <use xlink:href="#ArialMT-32"/>
       <use xlink:href="#ArialMT-30" transform="translate(55.615234 0)"/>
       <use xlink:href="#ArialMT-32" transform="translate(111.230469 0)"/>
       <use xlink:href="#ArialMT-35" transform="translate(166.845703 0)"/>
       <use xlink:href="#ArialMT-2d" transform="translate(222.460938 0)"/>
       <use xlink:href="#ArialMT-30" transform="translate(255.761719 0)"/>
       <use xlink:href="#ArialMT-35" transform="translate(311.376953 0)"/>
      </g>
     </g>
    </g>
    <g id="xtick_27">
     <g id="line2d_49">
      <path d="M 648.873295 831.1 
L 648.873295 650.925 
" clip-path="url(#p47d6d5163f)" style="fill: none; stroke: #cccccc; stroke-linecap: round"/>
     </g>
     <g id="text_28">
      <!-- 2025-07 -->
      <g style="fill: #262626" transform="translate(628.690873 848.473594) scale(0.11 -0.11)">
       <defs>
        <path id="ArialMT-37" d="M 303 3981 
L 303 4522 
L 3269 4522 
L 3269 4084 
Q 2831 3619 2401 2847 
Q 1972 2075 1738 1259 
Q 1569 684 1522 0 
L 944 0 
Q 953 541 1156 1306 
Q 1359 2072 1739 2783 
Q 2119 3494 2547 3981 
L 303 3981 
z
" transform="scale(0.015625)"/>
       </defs>
       <use xlink:href="#ArialMT-32"/>
       <use xlink:href="#ArialMT-30" transform="translate(55.615234 0)"/>
       <use xlink:href="#ArialMT-32" transform="translate(111.230469 0)"/>
       <use xlink:href="#ArialMT-35" transform="translate(166.845703 0)"/>
       <use xlink:href="#ArialMT-2d" transform="translate(222.460938 0)"/>
       <use xlink:href="#ArialMT-30" transform="translate(255.761719 0)"/>
       <use xlink:href="#ArialMT-37" transform="translate(311.376953 0)"/>
      </g>
     </g>
    </g>
    <g id="xtick_28">
     <g id="line2d_50">
      <path d="M 762.10126 831.1 
L 762.10126 650.925 
" clip-path="url(#p47d6d5163f)" style="fill: none; stroke: #cccccc; stroke-linecap: round"/>
     </g>
     <g id="text_29">
      <!-- 2025-09 -->
      <g style="fill: #262626" transform="translate(741.918838 848.473594) scale(0.11 -0.11)">
       <use xlink:href="#ArialMT-32"/>
       <use xlink:href="#ArialMT-30" transform="translate(55.615234 0)"/>
       <use xlink:href="#ArialMT-32" transform="translate(111.230469 0)"/>
       <use xlink:href="#ArialMT-35" transform="translate(166.845703 0)"/>
       <use xlink:href="#ArialMT-2d" transform="translate(222.460938 0)"/>
       <use xlink:href="#ArialMT-30" transform="translate(255.761719 0)"/>
       <use xlink:href="#ArialMT-39" transform="translate(311.376953 0)"/>
      </g>
     </g>
    </g>
   </g>
   <g id="matplotlib.axis_8">
    <g id="ytick_20">
     <g id="line2d_51">
      <path d="M 59.54 829.566416 
L 851.04 829.566416 
" clip-path="url(#p47d6d5163f)" style="fill: none; stroke: #cccccc; stroke-linecap: round"/>
     </g>
     <g id="text_30">
      <!-- −10000 -->
      <g style="fill: #262626" transform="translate(13.030156 833.503213) scale(0.11 -0.11)">
       <use xlink:href="#ArialMT-2212"/>
       <use xlink:href="#ArialMT-31" transform="translate(58.398438 0)"/>
       <use xlink:href="#ArialMT-30" transform="translate(114.013672 0)"/>
       <use xlink:href="#ArialMT-30" transform="translate(169.628906 0)"/>
       <use xlink:href="#ArialMT-30" transform="translate(225.244141 0)"/>
       <use xlink:href="#ArialMT-30" transform="translate(280.859375 0)"/>
      </g>
     </g>
    </g>
    <g id="ytick_21">
     <g id="line2d_52">
      <path d="M 59.54 787.38115 
L 851.04 787.38115 
" clip-path="url(#p47d6d5163f)" style="fill: none; stroke: #cccccc; stroke-linecap: round"/>
     </g>
     <g id="text_31">
      <!-- −5000 -->
      <g style="fill: #262626" transform="translate(19.147187 791.317947) scale(0.11 -0.11)">
       <use xlink:href="#ArialMT-2212"/>
       <use xlink:href="#ArialMT-35" transform="translate(58.398438 0)"/>
       <use xlink:href="#ArialMT-30" transform="translate(114.013672 0)"/>
       <use xlink:href="#ArialMT-30" transform="translate(169.628906 0)"/>
       <use xlink:href="#ArialMT-30" transform="translate(225.244141 0)"/>
      </g>
     </g>
    </g>
    <g id="ytick_22">
     <g id="line2d_53">
      <path d="M 59.54 745.195883 
L 851.04 745.195883 
" clip-path="url(#p47d6d5163f)" style="fill: none; stroke: #cccccc; stroke-linecap: round"/>
     </g>
     <g id="text_32">
      <!-- 0 -->
      <g style="fill: #262626" transform="translate(43.922969 749.13268) scale(0.11 -0.11)">
       <use xlink:href="#ArialMT-30"/>
      </g>
     </g>
    </g>
    <g id="ytick_23">
     <g id="line2d_54">
      <path d="M 59.54 703.010616 
L 851.04 703.010616 
" clip-path="url(#p47d6d5163f)" style="fill: none; stroke: #cccccc; stroke-linecap: round"/>
     </g>
     <g id="text_33">
      <!-- 5000 -->
      <g style="fill: #262626" transform="translate(25.571875 706.947413) scale(0.11 -0.11)">
       <use xlink:href="#ArialMT-35"/>
       <use xlink:href="#ArialMT-30" transform="translate(55.615234 0)"/>
       <use xlink:href="#ArialMT-30" transform="translate(111.230469 0)"/>
       <use xlink:href="#ArialMT-30" transform="translate(166.845703 0)"/>
      </g>
     </g>
    </g>
    <g id="ytick_24">
     <g id="line2d_55">
      <path d="M 59.54 660.82535 
L 851.04 660.82535 
" clip-path="url(#p47d6d5163f)" style="fill: none; stroke: #cccccc; stroke-linecap: round"/>
     </g>
     <g id="text_34">
      <!-- 10000 -->
      <g style="fill: #262626" transform="translate(19.454844 664.762147) scale(0.11 -0.11)">
       <use xlink:href="#ArialMT-31"/>
       <use xlink:href="#ArialMT-30" transform="translate(55.615234 0)"/>
       <use xlink:href="#ArialMT-30" transform="translate(111.230469 0)"/>
       <use xlink:href="#ArialMT-30" transform="translate(166.845703 0)"/>
       <use xlink:href="#ArialMT-30" transform="translate(222.460938 0)"/>
      </g>
     </g>
    </g>
   </g>
   <g id="line2d_56">
    <path d="M 122.911135 735.322637 
L 124.737393 742.068574 
L 126.56365 769.162487 
L 128.389908 748.167978 
L 130.216165 759.036938 
L 132.042423 734.609161 
L 133.86868 744.45992 
L 135.694938 748.579014 
L 137.521195 745.454291 
L 139.347453 745.535316 
L 141.17371 700.762681 
L 142.999968 706.326135 
L 144.826225 763.980181 
L 146.652483 750.047002 
L 148.47874 766.687601 
L 150.304998 719.719174 
L 152.131255 740.875946 
L 153.957513 734.466975 
L 155.78377 754.255737 
L 157.610028 725.955624 
L 159.436285 758.889277 
L 161.262543 714.388351 
L 163.0888 729.285286 
L 164.915058 767.650599 
L 166.741315 758.463844 
L 168.567573 753.975376 
L 170.39383 723.364865 
L 172.220088 735.025149 
L 174.046345 700.533343 
L 175.872603 742.568619 
L 177.69886 752.717029 
L 179.525118 746.216792 
L 181.351375 726.358503 
L 183.177633 733.375011 
L 185.00389 748.856227 
L 186.830148 752.664455 
L 188.656405 763.724525 
L 190.482663 767.787372 
L 192.30892 747.394813 
L 194.135178 783.333314 
L 195.961435 790.22357 
L 197.787693 749.664466 
L 199.61395 738.190922 
L 201.440208 759.159019 
L 203.266465 747.507367 
L 205.092723 729.421786 
L 206.91898 749.805161 
L 208.745238 739.402651 
L 210.571495 727.650895 
L 212.397753 737.753437 
L 214.22401 752.153696 
L 216.050268 772.618081 
L 217.876525 753.752741 
L 219.702783 722.596735 
L 221.52904 742.363133 
L 223.355298 730.196947 
L 225.181555 750.729041 
L 227.007813 734.308 
L 228.83407 784.69295 
L 230.660328 740.487479 
L 232.486585 721.499931 
L 234.312843 741.182683 
L 236.1391 733.417504 
L 237.965358 747.774248 
L 239.791615 746.268864 
L 241.617873 776.935045 
L 243.44413 748.819064 
L 245.270388 755.131792 
L 247.096645 742.206025 
L 248.922903 753.452084 
L 250.74916 741.851131 
L 252.575418 742.071118 
L 254.401675 775.398327 
L 256.227933 730.262112 
L 258.05419 742.297486 
L 259.880448 721.406585 
L 261.706705 740.039271 
L 263.532963 708.579283 
L 265.35922 740.74942 
L 267.185478 757.425833 
L 269.011735 736.931846 
L 270.837993 700.312534 
L 272.66425 735.978682 
L 274.490508 734.914832 
L 276.316765 734.7276 
L 278.143023 736.398181 
L 279.96928 761.823766 
L 281.795538 769.110845 
L 283.621795 721.668162 
L 285.448053 747.940209 
L 287.27431 760.226006 
L 289.100568 778.305718 
L 290.926825 747.507383 
L 292.753083 746.846173 
L 294.57934 761.118078 
L 296.405598 740.711963 
L 298.231855 758.943528 
L 300.058113 755.806756 
L 301.88437 752.161748 
L 303.710628 750.555362 
L 305.536885 754.591081 
L 307.363143 739.708743 
L 309.1894 758.271108 
L 311.015658 757.823152 
L 312.841915 727.012358 
L 314.668173 740.896178 
L 316.49443 724.261982 
L 318.320688 731.035907 
L 320.146945 750.072364 
L 321.973203 755.836855 
L 323.79946 730.63218 
L 325.625718 734.820082 
L 327.451975 736.231793 
L 329.278233 746.979819 
L 331.10449 761.037145 
L 332.930748 759.642263 
L 334.757005 733.707926 
L 336.583263 753.603286 
L 338.40952 751.224695 
L 340.235778 749.384737 
L 342.062035 745.877904 
L 343.888293 764.857568 
L 345.71455 758.626399 
L 347.540808 747.027699 
L 349.367065 748.071327 
L 351.193323 744.347566 
L 353.01958 751.687662 
L 354.845838 754.69119 
L 356.672095 774.121523 
L 358.498353 760.581394 
L 360.32461 765.727992 
L 362.150868 771.337428 
L 363.977125 753.272801 
L 365.803383 750.97249 
L 367.62964 745.282216 
L 369.455898 753.116247 
L 371.282155 756.338787 
L 373.108413 748.372757 
L 374.93467 742.762839 
L 376.760928 742.4002 
L 378.587185 742.819925 
L 380.413443 748.797467 
L 382.2397 751.868437 
L 384.065958 741.102033 
L 385.892215 733.623752 
L 387.718473 747.84445 
L 389.54473 732.757478 
L 391.370988 744.261165 
L 393.197245 749.033615 
L 395.023503 758.813752 
L 396.84976 748.447395 
L 398.676018 725.073023 
L 400.502275 737.400814 
L 402.328533 706.307408 
L 404.15479 700.424983 
L 405.981048 720.202252 
L 407.807305 717.208237 
L 409.633563 721.177339 
L 411.45982 734.729858 
L 413.286078 731.136078 
L 415.112335 738.813792 
L 416.938593 737.177627 
L 418.76485 740.750161 
L 420.591108 746.137834 
L 422.417365 744.573146 
L 424.243623 750.195686 
L 426.06988 759.943686 
L 427.896138 758.175095 
L 429.722395 744.644527 
L 431.548653 757.56645 
L 433.37491 741.825337 
L 435.201168 778.636512 
L 437.027425 766.689556 
L 438.853683 737.839678 
L 440.67994 673.397253 
L 442.506198 659.114773 
L 444.332455 789.898061 
L 446.158713 731.439402 
L 447.98497 793.369053 
L 449.811228 765.011181 
L 451.637485 761.547811 
L 453.463743 754.203869 
L 455.29 737.298549 
L 457.116257 764.957714 
L 458.942515 713.758085 
L 460.768772 736.662177 
L 462.59503 755.765571 
L 464.421287 750.519536 
L 466.247545 749.082224 
L 468.073802 764.462439 
L 469.90006 734.510894 
L 471.726317 722.834636 
L 473.552575 742.015719 
L 475.378832 731.148002 
L 477.20509 742.979481 
L 479.031347 772.478881 
L 480.857605 726.25172 
L 482.683862 749.822412 
L 484.51012 704.849759 
L 486.336377 732.986502 
L 488.162635 737.60681 
L 489.988892 752.509771 
L 491.81515 744.246994 
L 493.641407 731.989987 
L 495.467665 750.401771 
L 497.293922 733.285847 
L 499.12018 750.996215 
L 500.946437 761.869041 
L 502.772695 756.611624 
L 504.598952 756.855362 
L 506.42521 774.850232 
L 508.251467 702.500803 
L 510.077725 717.929486 
L 511.903982 705.114901 
L 513.73024 739.635735 
L 515.556497 728.458148 
L 517.382755 711.037136 
L 519.209012 738.45455 
L 521.03527 715.343385 
L 522.861527 733.845282 
L 524.687785 774.586926 
L 526.514042 792.201276 
L 528.3403 784.200986 
L 530.166557 795.072743 
L 531.992815 809.77282 
L 533.819072 801.277357 
L 535.64533 790.533995 
L 537.471587 780.742216 
L 539.297845 776.737446 
L 541.124102 769.852431 
L 542.95036 749.378496 
L 544.776617 737.471764 
L 546.602875 739.437873 
L 548.429132 760.11347 
L 550.25539 743.633406 
L 552.081647 741.296359 
L 553.907905 696.717838 
L 555.734162 725.195982 
L 557.56042 725.085168 
L 559.386677 720.688527 
L 561.212935 733.621165 
L 563.039192 730.268752 
L 564.86545 743.533932 
L 566.691707 738.039495 
L 568.517965 730.937532 
L 570.344222 739.185257 
L 572.17048 744.556342 
L 573.996737 757.241055 
L 575.822995 745.810521 
L 577.649252 761.021995 
L 579.47551 735.467094 
L 581.301767 765.96204 
L 583.128025 707.803468 
L 584.954282 747.037786 
L 586.78054 734.415872 
L 588.606797 738.885347 
L 590.433055 719.895806 
L 592.259312 737.813673 
L 594.08557 754.037779 
L 595.911827 732.761514 
L 597.738085 744.553318 
L 599.564342 745.394522 
L 601.3906 740.140961 
L 603.216857 742.98628 
L 605.043115 761.149639 
L 606.869372 783.434754 
L 608.69563 762.836213 
L 610.521887 758.212984 
L 612.348145 740.426543 
L 614.174402 733.822207 
L 616.00066 731.455654 
L 617.826917 750.421257 
L 619.653175 756.872513 
L 621.479432 739.337195 
L 623.30569 747.393805 
L 625.131947 740.430727 
L 626.958205 750.056498 
L 628.784462 743.532853 
L 630.61072 746.052921 
L 632.436977 737.383516 
L 634.263235 756.085646 
L 636.089492 745.538346 
L 637.91575 729.699631 
L 639.742007 745.350375 
L 641.568265 742.587762 
L 643.394522 750.930246 
L 645.22078 755.644808 
L 647.047037 747.210944 
L 648.873295 747.59147 
L 650.699552 736.799247 
L 652.52581 757.208898 
L 654.352067 741.638024 
L 656.178325 749.588415 
L 658.004582 749.898648 
L 659.83084 778.783055 
L 661.657097 762.301967 
L 663.483355 737.918769 
L 665.309612 742.935927 
L 667.13587 727.051804 
L 668.962127 724.215982 
L 670.788385 713.19748 
L 672.614642 731.550355 
L 674.4409 729.355689 
L 676.267157 734.9921 
L 678.093415 765.822776 
L 679.919672 749.289633 
L 681.74593 742.808704 
L 683.572187 725.630216 
L 685.398445 767.350476 
L 687.224702 726.033645 
L 689.05096 730.195956 
L 690.877217 760.058076 
L 692.703475 752.774971 
L 694.529732 731.16411 
L 696.35599 737.511455 
L 698.182247 732.475219 
L 700.008505 746.294383 
L 701.834762 745.940039 
L 703.66102 753.895116 
L 705.487277 748.888338 
L 707.313535 747.590657 
L 709.139792 747.196436 
L 710.96605 763.055597 
L 712.792307 762.70689 
L 714.618565 762.025451 
L 716.444822 777.187331 
L 718.27108 775.262765 
L 720.097337 757.303013 
L 721.923595 748.236833 
L 723.749852 751.556127 
L 725.57611 766.506255 
L 727.402367 769.933645 
L 729.228625 786.803937 
L 731.054882 822.910227 
L 732.88114 781.51566 
L 734.707397 779.484241 
L 736.533655 753.913438 
L 738.359912 724.428954 
L 740.18617 723.27284 
L 742.012427 695.640201 
L 743.838685 720.163861 
L 745.664942 710.100735 
L 747.4912 696.62235 
L 749.317457 698.806 
L 751.143715 702.35306 
L 752.969972 732.177918 
L 754.79623 733.09508 
L 756.622487 761.418674 
L 758.448745 745.733272 
L 760.275002 744.754194 
L 762.10126 743.390185 
L 763.927517 769.197081 
L 765.753775 732.704289 
L 767.580032 744.201653 
L 769.40629 743.374574 
L 771.232547 758.302378 
L 773.058805 726.967686 
L 774.885062 729.715831 
L 776.71132 745.046834 
L 778.537577 751.636443 
L 780.363835 742.959512 
L 782.190092 751.645971 
L 784.01635 743.961813 
L 785.842607 753.378862 
L 787.668865 745.388999 
L 787.668865 745.388999 
" clip-path="url(#p47d6d5163f)" style="fill: none; stroke: #4878d0; stroke-width: 1.5; stroke-linecap: round"/>
   </g>
   <g id="patch_18">
    <path d="M 59.54 831.1 
L 59.54 650.925 
" style="fill: none; stroke: #cccccc; stroke-width: 1.25; stroke-linejoin: miter; stroke-linecap: square"/>
   </g>
   <g id="patch_19">
    <path d="M 851.04 831.1 
L 851.04 650.925 
" style="fill: none; stroke: #cccccc; stroke-width: 1.25; stroke-linejoin: miter; stroke-linecap: square"/>
   </g>
   <g id="patch_20">
    <path d="M 59.54 831.1 
L 851.04 831.1 
" style="fill: none; stroke: #cccccc; stroke-width: 1.25; stroke-linejoin: miter; stroke-linecap: square"/>
   </g>
   <g id="patch_21">
    <path d="M 59.54 650.925 
L 851.04 650.925 
" style="fill: none; stroke: #cccccc; stroke-width: 1.25; stroke-linejoin: miter; stroke-linecap: square"/>
   </g>
   <g id="text_35">
    <!-- Residual -->
    <g style="fill: #262626" transform="translate(431.944375 644.925) scale(0.12 -0.12)">
     <defs>
      <path id="ArialMT-52" d="M 503 0 
L 503 4581 
L 2534 4581 
Q 3147 4581 3465 4457 
Q 3784 4334 3975 4021 
Q 4166 3709 4166 3331 
Q 4166 2844 3850 2509 
Q 3534 2175 2875 2084 
Q 3116 1969 3241 1856 
Q 3506 1613 3744 1247 
L 4541 0 
L 3778 0 
L 3172 953 
Q 2906 1366 2734 1584 
Q 2563 1803 2427 1890 
Q 2291 1978 2150 2013 
Q 2047 2034 1813 2034 
L 1109 2034 
L 1109 0 
L 503 0 
z
M 1109 2559 
L 2413 2559 
Q 2828 2559 3062 2645 
Q 3297 2731 3419 2920 
Q 3541 3109 3541 3331 
Q 3541 3656 3305 3865 
Q 3069 4075 2559 4075 
L 1109 4075 
L 1109 2559 
z
" transform="scale(0.015625)"/>
      <path id="ArialMT-75" d="M 2597 0 
L 2597 488 
Q 2209 -75 1544 -75 
Q 1250 -75 995 37 
Q 741 150 617 320 
Q 494 491 444 738 
Q 409 903 409 1263 
L 409 3319 
L 972 3319 
L 972 1478 
Q 972 1038 1006 884 
Q 1059 663 1231 536 
Q 1403 409 1656 409 
Q 1909 409 2131 539 
Q 2353 669 2445 892 
Q 2538 1116 2538 1541 
L 2538 3319 
L 3100 3319 
L 3100 0 
L 2597 0 
z
" transform="scale(0.015625)"/>
     </defs>
     <use xlink:href="#ArialMT-52"/>
     <use xlink:href="#ArialMT-65" transform="translate(72.216797 0)"/>
     <use xlink:href="#ArialMT-73" transform="translate(127.832031 0)"/>
     <use xlink:href="#ArialMT-69" transform="translate(177.832031 0)"/>
     <use xlink:href="#ArialMT-64" transform="translate(200.048828 0)"/>
     <use xlink:href="#ArialMT-75" transform="translate(255.664062 0)"/>
     <use xlink:href="#ArialMT-61" transform="translate(311.279297 0)"/>
     <use xlink:href="#ArialMT-6c" transform="translate(366.894531 0)"/>
    </g>
   </g>
  </g>
 </g>
 <defs>
  <clipPath id="p91ad929368">
   <rect x="59.54" y="27.6" width="791.5" height="180.175"/>
  </clipPath>
  <clipPath id="p5660f5b1f3">
   <rect x="59.54" y="235.375" width="791.5" height="180.175"/>
  </clipPath>
  <clipPath id="p10d911f8d3">
   <rect x="59.54" y="443.15" width="791.5" height="180.175"/>
  </clipPath>
  <clipPath id="p47d6d5163f">
   <rect x="59.54" y="650.925" width="791.5" height="180.175"/>
  </clipPath>
 </defs>
</svg>
