<?xml version="1.0" encoding="utf-8" standalone="no"?>
<!DOCTYPE svg PUBLIC "-//W3C//DTD SVG 1.1//EN"
  "http://www.w3.org/Graphics/SVG/1.1/DTD/svg11.dtd">
<svg xmlns:xlink="http://www.w3.org/1999/xlink" width="864pt" height="864pt" viewBox="0 0 864 864" xmlns="http://www.w3.org/2000/svg" version="1.1">
 <metadata>
  <rdf:RDF xmlns:dc="http://purl.org/dc/elements/1.1/" xmlns:cc="http://creativecommons.org/ns#" xmlns:rdf="http://www.w3.org/1999/02/22-rdf-syntax-ns#">
   <cc:Work>
    <dc:type rdf:resource="http://purl.org/dc/dcmitype/StillImage"/>
    <dc:date>2025-12-12T00:30:21.830500</dc:date>
    <dc:format>image/svg+xml</dc:format>
    <dc:creator>
     <cc:Agent>
      <dc:title>Matplotlib v3.10.7, https://matplotlib.org/</dc:title>
     </cc:Agent>
    </dc:creator>
   </cc:Work>
  </rdf:RDF>
 </metadata>
 <defs>
  <style type="text/css">*{stroke-linejoin: round; stroke-linecap: butt}</style>
 </defs>
 <g id="figure_1">
  <g id="patch_1">
   <path d="M 0 864 
L 864 864 
L 864 0 
L 0 0 
z
" style="fill: #ffffff"/>
  </g>
  <g id="axes_1">
   <g id="patch_2">
    <path d="M 53.42 207.775 
L 851.04 207.775 
L 851.04 27.6 
L 53.42 27.6 
z
" style="fill: #ffffff"/>
   </g>
   <g id="matplotlib.axis_1">
    <g id="xtick_1">
     <g id="line2d_1">
      <path d="M 89.675455 207.775 
L 89.675455 27.6 
" clip-path="url(#pf943d82705)" style="fill: none; stroke: #cccccc; stroke-linecap: round"/>
     </g>
    </g>
    <g id="xtick_2">
     <g id="line2d_2">
      <path d="M 201.938537 207.775 
L 201.938537 27.6 
" clip-path="url(#pf943d82705)" style="fill: none; stroke: #cccccc; stroke-linecap: round"/>
     </g>
    </g>
    <g id="xtick_3">
     <g id="line2d_3">
      <path d="M 314.20162 207.775 
L 314.20162 27.6 
" clip-path="url(#pf943d82705)" style="fill: none; stroke: #cccccc; stroke-linecap: round"/>
     </g>
    </g>
    <g id="xtick_4">
     <g id="line2d_4">
      <path d="M 422.783946 207.775 
L 422.783946 27.6 
" clip-path="url(#pf943d82705)" style="fill: none; stroke: #cccccc; stroke-linecap: round"/>
     </g>
    </g>
    <g id="xtick_5">
     <g id="line2d_5">
      <path d="M 535.047028 207.775 
L 535.047028 27.6 
" clip-path="url(#pf943d82705)" style="fill: none; stroke: #cccccc; stroke-linecap: round"/>
     </g>
    </g>
    <g id="xtick_6">
     <g id="line2d_6">
      <path d="M 647.310111 207.775 
L 647.310111 27.6 
" clip-path="url(#pf943d82705)" style="fill: none; stroke: #cccccc; stroke-linecap: round"/>
     </g>
    </g>
    <g id="xtick_7">
     <g id="line2d_7">
      <path d="M 761.413572 207.775 
L 761.413572 27.6 
" clip-path="url(#pf943d82705)" style="fill: none; stroke: #cccccc; stroke-linecap: round"/>
     </g>
    </g>
   </g>
   <g id="matplotlib.axis_2">
    <g id="ytick_1">
     <g id="line2d_8">
      <path d="M 53.42 199.585227 
L 851.04 199.585227 
" clip-path="url(#pf943d82705)" style="fill: none; stroke: #cccccc; stroke-linecap: round"/>
     </g>
     <g id="text_1">
      <!-- 55000 -->
      <g style="fill: #262626" transform="translate(13.334844 203.522024) scale(0.11 -0.11)">
       <defs>
        <path id="ArialMT-35" d="M 266 1200 
L 856 1250 
Q 922 819 1161 601 
Q 1400 384 1738 384 
Q 2144 384 2425 690 
Q 2706 997 2706 1503 
Q 2706 1984 2436 2262 
Q 2166 2541 1728 2541 
Q 1456 2541 1237 2417 
Q 1019 2294 894 2097 
L 366 2166 
L 809 4519 
L 3088 4519 
L 3088 3981 
L 1259 3981 
L 1013 2750 
Q 1425 3038 1878 3038 
Q 2478 3038 2890 2622 
Q 3303 2206 3303 1553 
Q 3303 931 2941 478 
Q 2500 -78 1738 -78 
Q 1113 -78 717 272 
Q 322 622 266 1200 
z
" transform="scale(0.015625)"/>
        <path id="ArialMT-30" d="M 266 2259 
Q 266 3072 433 3567 
Q 600 4063 929 4331 
Q 1259 4600 1759 4600 
Q 2128 4600 2406 4451 
Q 2684 4303 2865 4023 
Q 3047 3744 3150 3342 
Q 3253 2941 3253 2259 
Q 3253 1453 3087 958 
Q 2922 463 2592 192 
Q 2263 -78 1759 -78 
Q 1097 -78 719 397 
Q 266 969 266 2259 
z
M 844 2259 
Q 844 1131 1108 757 
Q 1372 384 1759 384 
Q 2147 384 2411 759 
Q 2675 1134 2675 2259 
Q 2675 3391 2411 3762 
Q 2147 4134 1753 4134 
Q 1366 4134 1134 3806 
Q 844 3388 844 2259 
z
" transform="scale(0.015625)"/>
       </defs>
       <use xlink:href="#ArialMT-35"/>
       <use xlink:href="#ArialMT-35" transform="translate(55.615234 0)"/>
       <use xlink:href="#ArialMT-30" transform="translate(111.230469 0)"/>
       <use xlink:href="#ArialMT-30" transform="translate(166.845703 0)"/>
       <use xlink:href="#ArialMT-30" transform="translate(222.460938 0)"/>
      </g>
     </g>
    </g>
    <g id="ytick_2">
     <g id="line2d_9">
      <path d="M 53.42 172.285985 
L 851.04 172.285985 
" clip-path="url(#pf943d82705)" style="fill: none; stroke: #cccccc; stroke-linecap: round"/>
     </g>
     <g id="text_2">
      <!-- 60000 -->
      <g style="fill: #262626" transform="translate(13.334844 176.222782) scale(0.11 -0.11)">
       <defs>
        <path id="ArialMT-36" d="M 3184 3459 
L 2625 3416 
Q 2550 3747 2413 3897 
Q 2184 4138 1850 4138 
Q 1581 4138 1378 3988 
Q 1113 3794 959 3422 
Q 806 3050 800 2363 
Q 1003 2672 1297 2822 
Q 1591 2972 1913 2972 
Q 2475 2972 2870 2558 
Q 3266 2144 3266 1488 
Q 3266 1056 3080 686 
Q 2894 316 2569 119 
Q 2244 -78 1831 -78 
Q 1128 -78 684 439 
Q 241 956 241 2144 
Q 241 3472 731 4075 
Q 1159 4600 1884 4600 
Q 2425 4600 2770 4297 
Q 3116 3994 3184 3459 
z
M 888 1484 
Q 888 1194 1011 928 
Q 1134 663 1356 523 
Q 1578 384 1822 384 
Q 2178 384 2434 671 
Q 2691 959 2691 1453 
Q 2691 1928 2437 2201 
Q 2184 2475 1800 2475 
Q 1419 2475 1153 2201 
Q 888 1928 888 1484 
z
" transform="scale(0.015625)"/>
       </defs>
       <use xlink:href="#ArialMT-36"/>
       <use xlink:href="#ArialMT-30" transform="translate(55.615234 0)"/>
       <use xlink:href="#ArialMT-30" transform="translate(111.230469 0)"/>
       <use xlink:href="#ArialMT-30" transform="translate(166.845703 0)"/>
       <use xlink:href="#ArialMT-30" transform="translate(222.460938 0)"/>
      </g>
     </g>
    </g>
    <g id="ytick_3">
     <g id="line2d_10">
      <path d="M 53.42 144.986742 
L 851.04 144.986742 
" clip-path="url(#pf943d82705)" style="fill: none; stroke: #cccccc; stroke-linecap: round"/>
     </g>
     <g id="text_3">
      <!-- 65000 -->
      <g style="fill: #262626" transform="translate(13.334844 148.923539) scale(0.11 -0.11)">
       <use xlink:href="#ArialMT-36"/>
       <use xlink:href="#ArialMT-35" transform="translate(55.615234 0)"/>
       <use xlink:href="#ArialMT-30" transform="translate(111.230469 0)"/>
       <use xlink:href="#ArialMT-30" transform="translate(166.845703 0)"/>
       <use xlink:href="#ArialMT-30" transform="translate(222.460938 0)"/>
      </g>
     </g>
    </g>
    <g id="ytick_4">
     <g id="line2d_11">
      <path d="M 53.42 117.6875 
L 851.04 117.6875 
" clip-path="url(#pf943d82705)" style="fill: none; stroke: #cccccc; stroke-linecap: round"/>
     </g>
     <g id="text_4">
      <!-- 70000 -->
      <g style="fill: #262626" transform="translate(13.334844 121.624297) scale(0.11 -0.11)">
       <defs>
        <path id="ArialMT-37" d="M 303 3981 
L 303 4522 
L 3269 4522 
L 3269 4084 
Q 2831 3619 2401 2847 
Q 1972 2075 1738 1259 
Q 1569 684 1522 0 
L 944 0 
Q 953 541 1156 1306 
Q 1359 2072 1739 2783 
Q 2119 3494 2547 3981 
L 303 3981 
z
" transform="scale(0.015625)"/>
       </defs>
       <use xlink:href="#ArialMT-37"/>
       <use xlink:href="#ArialMT-30" transform="translate(55.615234 0)"/>
       <use xlink:href="#ArialMT-30" transform="translate(111.230469 0)"/>
       <use xlink:href="#ArialMT-30" transform="translate(166.845703 0)"/>
       <use xlink:href="#ArialMT-30" transform="translate(222.460938 0)"/>
      </g>
     </g>
    </g>
    <g id="ytick_5">
     <g id="line2d_12">
      <path d="M 53.42 90.388258 
L 851.04 90.388258 
" clip-path="url(#pf943d82705)" style="fill: none; stroke: #cccccc; stroke-linecap: round"/>
     </g>
     <g id="text_5">
      <!-- 75000 -->
      <g style="fill: #262626" transform="translate(13.334844 94.325054) scale(0.11 -0.11)">
       <use xlink:href="#ArialMT-37"/>
       <use xlink:href="#ArialMT-35" transform="translate(55.615234 0)"/>
       <use xlink:href="#ArialMT-30" transform="translate(111.230469 0)"/>
       <use xlink:href="#ArialMT-30" transform="translate(166.845703 0)"/>
       <use xlink:href="#ArialMT-30" transform="translate(222.460938 0)"/>
      </g>
     </g>
    </g>
    <g id="ytick_6">
     <g id="line2d_13">
      <path d="M 53.42 63.089015 
L 851.04 63.089015 
" clip-path="url(#pf943d82705)" style="fill: none; stroke: #cccccc; stroke-linecap: round"/>
     </g>
     <g id="text_6">
      <!-- 80000 -->
      <g style="fill: #262626" transform="translate(13.334844 67.025812) scale(0.11 -0.11)">
       <defs>
        <path id="ArialMT-38" d="M 1131 2484 
Q 781 2613 612 2850 
Q 444 3088 444 3419 
Q 444 3919 803 4259 
Q 1163 4600 1759 4600 
Q 2359 4600 2725 4251 
Q 3091 3903 3091 3403 
Q 3091 3084 2923 2848 
Q 2756 2613 2416 2484 
Q 2838 2347 3058 2040 
Q 3278 1734 3278 1309 
Q 3278 722 2862 322 
Q 2447 -78 1769 -78 
Q 1091 -78 675 323 
Q 259 725 259 1325 
Q 259 1772 486 2073 
Q 713 2375 1131 2484 
z
M 1019 3438 
Q 1019 3113 1228 2906 
Q 1438 2700 1772 2700 
Q 2097 2700 2305 2904 
Q 2513 3109 2513 3406 
Q 2513 3716 2298 3927 
Q 2084 4138 1766 4138 
Q 1444 4138 1231 3931 
Q 1019 3725 1019 3438 
z
M 838 1322 
Q 838 1081 952 856 
Q 1066 631 1291 507 
Q 1516 384 1775 384 
Q 2178 384 2440 643 
Q 2703 903 2703 1303 
Q 2703 1709 2433 1975 
Q 2163 2241 1756 2241 
Q 1359 2241 1098 1978 
Q 838 1716 838 1322 
z
" transform="scale(0.015625)"/>
       </defs>
       <use xlink:href="#ArialMT-38"/>
       <use xlink:href="#ArialMT-30" transform="translate(55.615234 0)"/>
       <use xlink:href="#ArialMT-30" transform="translate(111.230469 0)"/>
       <use xlink:href="#ArialMT-30" transform="translate(166.845703 0)"/>
       <use xlink:href="#ArialMT-30" transform="translate(222.460938 0)"/>
      </g>
     </g>
    </g>
    <g id="ytick_7">
     <g id="line2d_14">
      <path d="M 53.42 35.789773 
L 851.04 35.789773 
" clip-path="url(#pf943d82705)" style="fill: none; stroke: #cccccc; stroke-linecap: round"/>
     </g>
     <g id="text_7">
      <!-- 85000 -->
      <g style="fill: #262626" transform="translate(13.334844 39.72657) scale(0.11 -0.11)">
       <use xlink:href="#ArialMT-38"/>
       <use xlink:href="#ArialMT-35" transform="translate(55.615234 0)"/>
       <use xlink:href="#ArialMT-30" transform="translate(111.230469 0)"/>
       <use xlink:href="#ArialMT-30" transform="translate(166.845703 0)"/>
       <use xlink:href="#ArialMT-30" transform="translate(222.460938 0)"/>
      </g>
     </g>
    </g>
   </g>
   <g id="line2d_15">
    <path d="M 89.675455 144.986742 
L 176.17324 144.986742 
L 183.534753 172.285985 
L 279.23443 172.285985 
L 286.595944 199.585227 
L 356.530323 199.585227 
L 376.774485 172.285985 
L 382.295621 144.986742 
L 389.657134 144.986742 
L 395.178269 117.6875 
L 408.060918 117.6875 
L 415.422432 144.986742 
L 433.826216 144.986742 
L 439.347351 63.089015 
L 441.18773 144.986742 
L 518.483623 144.986742 
L 524.004758 199.585227 
L 531.366271 199.585227 
L 544.24892 172.285985 
L 549.770055 144.986742 
L 652.831246 144.986742 
L 665.713895 117.6875 
L 678.596544 128.607197 
L 704.361841 144.986742 
L 711.723355 144.986742 
L 724.606004 117.6875 
L 730.127139 144.986742 
L 737.488653 90.388258 
L 750.371301 63.089015 
L 755.892437 90.388258 
L 768.775085 63.089015 
L 794.540383 63.089015 
L 801.901897 35.789773 
L 814.784545 90.388258 
L 814.784545 90.388258 
" clip-path="url(#pf943d82705)" style="fill: none; stroke: #4878d0; stroke-width: 1.5; stroke-linecap: round"/>
   </g>
   <g id="patch_3">
    <path d="M 53.42 207.775 
L 53.42 27.6 
" style="fill: none; stroke: #cccccc; stroke-width: 1.25; stroke-linejoin: miter; stroke-linecap: square"/>
   </g>
   <g id="patch_4">
    <path d="M 851.04 207.775 
L 851.04 27.6 
" style="fill: none; stroke: #cccccc; stroke-width: 1.25; stroke-linejoin: miter; stroke-linecap: square"/>
   </g>
   <g id="patch_5">
    <path d="M 53.42 207.775 
L 851.04 207.775 
" style="fill: none; stroke: #cccccc; stroke-width: 1.25; stroke-linejoin: miter; stroke-linecap: square"/>
   </g>
   <g id="patch_6">
    <path d="M 53.42 27.6 
L 851.04 27.6 
" style="fill: none; stroke: #cccccc; stroke-width: 1.25; stroke-linejoin: miter; stroke-linecap: square"/>
   </g>
   <g id="text_8">
    <!-- Original -->
    <g style="fill: #262626" transform="translate(431.55625 21.6) scale(0.12 -0.12)">
     <defs>
      <path id="ArialMT-4f" d="M 309 2231 
Q 309 3372 921 4017 
Q 1534 4663 2503 4663 
Q 3138 4663 3647 4359 
Q 4156 4056 4423 3514 
Q 4691 2972 4691 2284 
Q 4691 1588 4409 1038 
Q 4128 488 3612 205 
Q 3097 -78 2500 -78 
Q 1853 -78 1343 234 
Q 834 547 571 1087 
Q 309 1628 309 2231 
z
M 934 2222 
Q 934 1394 1379 917 
Q 1825 441 2497 441 
Q 3181 441 3623 922 
Q 4066 1403 4066 2288 
Q 4066 2847 3877 3264 
Q 3688 3681 3323 3911 
Q 2959 4141 2506 4141 
Q 1863 4141 1398 3698 
Q 934 3256 934 2222 
z
" transform="scale(0.015625)"/>
      <path id="ArialMT-72" d="M 416 0 
L 416 3319 
L 922 3319 
L 922 2816 
Q 1116 3169 1280 3281 
Q 1444 3394 1641 3394 
Q 1925 3394 2219 3213 
L 2025 2691 
Q 1819 2813 1613 2813 
Q 1428 2813 1281 2702 
Q 1134 2591 1072 2394 
Q 978 2094 978 1738 
L 978 0 
L 416 0 
z
" transform="scale(0.015625)"/>
      <path id="ArialMT-69" d="M 425 3934 
L 425 4581 
L 988 4581 
L 988 3934 
L 425 3934 
z
M 425 0 
L 425 3319 
L 988 3319 
L 988 0 
L 425 0 
z
" transform="scale(0.015625)"/>
      <path id="ArialMT-67" d="M 319 -275 
L 866 -356 
Q 900 -609 1056 -725 
Q 1266 -881 1628 -881 
Q 2019 -881 2231 -725 
Q 2444 -569 2519 -288 
Q 2563 -116 2559 434 
Q 2191 0 1641 0 
Q 956 0 581 494 
Q 206 988 206 1678 
Q 206 2153 378 2554 
Q 550 2956 876 3175 
Q 1203 3394 1644 3394 
Q 2231 3394 2613 2919 
L 2613 3319 
L 3131 3319 
L 3131 450 
Q 3131 -325 2973 -648 
Q 2816 -972 2473 -1159 
Q 2131 -1347 1631 -1347 
Q 1038 -1347 672 -1080 
Q 306 -813 319 -275 
z
M 784 1719 
Q 784 1066 1043 766 
Q 1303 466 1694 466 
Q 2081 466 2343 764 
Q 2606 1063 2606 1700 
Q 2606 2309 2336 2618 
Q 2066 2928 1684 2928 
Q 1309 2928 1046 2623 
Q 784 2319 784 1719 
z
" transform="scale(0.015625)"/>
      <path id="ArialMT-6e" d="M 422 0 
L 422 3319 
L 928 3319 
L 928 2847 
Q 1294 3394 1984 3394 
Q 2284 3394 2536 3286 
Q 2788 3178 2913 3003 
Q 3038 2828 3088 2588 
Q 3119 2431 3119 2041 
L 3119 0 
L 2556 0 
L 2556 2019 
Q 2556 2363 2490 2533 
Q 2425 2703 2258 2804 
Q 2091 2906 1866 2906 
Q 1506 2906 1245 2678 
Q 984 2450 984 1813 
L 984 0 
L 422 0 
z
" transform="scale(0.015625)"/>
      <path id="ArialMT-61" d="M 2588 409 
Q 2275 144 1986 34 
Q 1697 -75 1366 -75 
Q 819 -75 525 192 
Q 231 459 231 875 
Q 231 1119 342 1320 
Q 453 1522 633 1644 
Q 813 1766 1038 1828 
Q 1203 1872 1538 1913 
Q 2219 1994 2541 2106 
Q 2544 2222 2544 2253 
Q 2544 2597 2384 2738 
Q 2169 2928 1744 2928 
Q 1347 2928 1158 2789 
Q 969 2650 878 2297 
L 328 2372 
Q 403 2725 575 2942 
Q 747 3159 1072 3276 
Q 1397 3394 1825 3394 
Q 2250 3394 2515 3294 
Q 2781 3194 2906 3042 
Q 3031 2891 3081 2659 
Q 3109 2516 3109 2141 
L 3109 1391 
Q 3109 606 3145 398 
Q 3181 191 3288 0 
L 2700 0 
Q 2613 175 2588 409 
z
M 2541 1666 
Q 2234 1541 1622 1453 
Q 1275 1403 1131 1340 
Q 988 1278 909 1158 
Q 831 1038 831 891 
Q 831 666 1001 516 
Q 1172 366 1500 366 
Q 1825 366 2078 508 
Q 2331 650 2450 897 
Q 2541 1088 2541 1459 
L 2541 1666 
z
" transform="scale(0.015625)"/>
      <path id="ArialMT-6c" d="M 409 0 
L 409 4581 
L 972 4581 
L 972 0 
L 409 0 
z
" transform="scale(0.015625)"/>
     </defs>
     <use xlink:href="#ArialMT-4f"/>
     <use xlink:href="#ArialMT-72" transform="translate(77.783203 0)"/>
     <use xlink:href="#ArialMT-69" transform="translate(111.083984 0)"/>
     <use xlink:href="#ArialMT-67" transform="translate(133.300781 0)"/>
     <use xlink:href="#ArialMT-69" transform="translate(188.916016 0)"/>
     <use xlink:href="#ArialMT-6e" transform="translate(211.132812 0)"/>
     <use xlink:href="#ArialMT-61" transform="translate(266.748047 0)"/>
     <use xlink:href="#ArialMT-6c" transform="translate(322.363281 0)"/>
    </g>
   </g>
  </g>
  <g id="axes_2">
   <g id="patch_7">
    <path d="M 53.42 415.55 
L 851.04 415.55 
L 851.04 235.375 
L 53.42 235.375 
z
" style="fill: #ffffff"/>
   </g>
   <g id="matplotlib.axis_3">
    <g id="xtick_8">
     <g id="line2d_16">
      <path d="M 89.675455 415.55 
L 89.675455 235.375 
" clip-path="url(#p27d8485722)" style="fill: none; stroke: #cccccc; stroke-linecap: round"/>
     </g>
    </g>
    <g id="xtick_9">
     <g id="line2d_17">
      <path d="M 201.938537 415.55 
L 201.938537 235.375 
" clip-path="url(#p27d8485722)" style="fill: none; stroke: #cccccc; stroke-linecap: round"/>
     </g>
    </g>
    <g id="xtick_10">
     <g id="line2d_18">
      <path d="M 314.20162 415.55 
L 314.20162 235.375 
" clip-path="url(#p27d8485722)" style="fill: none; stroke: #cccccc; stroke-linecap: round"/>
     </g>
    </g>
    <g id="xtick_11">
     <g id="line2d_19">
      <path d="M 422.783946 415.55 
L 422.783946 235.375 
" clip-path="url(#p27d8485722)" style="fill: none; stroke: #cccccc; stroke-linecap: round"/>
     </g>
    </g>
    <g id="xtick_12">
     <g id="line2d_20">
      <path d="M 535.047028 415.55 
L 535.047028 235.375 
" clip-path="url(#p27d8485722)" style="fill: none; stroke: #cccccc; stroke-linecap: round"/>
     </g>
    </g>
    <g id="xtick_13">
     <g id="line2d_21">
      <path d="M 647.310111 415.55 
L 647.310111 235.375 
" clip-path="url(#p27d8485722)" style="fill: none; stroke: #cccccc; stroke-linecap: round"/>
     </g>
    </g>
    <g id="xtick_14">
     <g id="line2d_22">
      <path d="M 761.413572 415.55 
L 761.413572 235.375 
" clip-path="url(#p27d8485722)" style="fill: none; stroke: #cccccc; stroke-linecap: round"/>
     </g>
    </g>
   </g>
   <g id="matplotlib.axis_4">
    <g id="ytick_8">
     <g id="line2d_23">
      <path d="M 53.42 407.360227 
L 851.04 407.360227 
" clip-path="url(#p27d8485722)" style="fill: none; stroke: #cccccc; stroke-linecap: round"/>
     </g>
     <g id="text_9">
      <!-- 55000 -->
      <g style="fill: #262626" transform="translate(13.334844 411.297024) scale(0.11 -0.11)">
       <use xlink:href="#ArialMT-35"/>
       <use xlink:href="#ArialMT-35" transform="translate(55.615234 0)"/>
       <use xlink:href="#ArialMT-30" transform="translate(111.230469 0)"/>
       <use xlink:href="#ArialMT-30" transform="translate(166.845703 0)"/>
       <use xlink:href="#ArialMT-30" transform="translate(222.460938 0)"/>
      </g>
     </g>
    </g>
    <g id="ytick_9">
     <g id="line2d_24">
      <path d="M 53.42 374.663416 
L 851.04 374.663416 
" clip-path="url(#p27d8485722)" style="fill: none; stroke: #cccccc; stroke-linecap: round"/>
     </g>
     <g id="text_10">
      <!-- 60000 -->
      <g style="fill: #262626" transform="translate(13.334844 378.600213) scale(0.11 -0.11)">
       <use xlink:href="#ArialMT-36"/>
       <use xlink:href="#ArialMT-30" transform="translate(55.615234 0)"/>
       <use xlink:href="#ArialMT-30" transform="translate(111.230469 0)"/>
       <use xlink:href="#ArialMT-30" transform="translate(166.845703 0)"/>
       <use xlink:href="#ArialMT-30" transform="translate(222.460938 0)"/>
      </g>
     </g>
    </g>
    <g id="ytick_10">
     <g id="line2d_25">
      <path d="M 53.42 341.966605 
L 851.04 341.966605 
" clip-path="url(#p27d8485722)" style="fill: none; stroke: #cccccc; stroke-linecap: round"/>
     </g>
     <g id="text_11">
      <!-- 65000 -->
      <g style="fill: #262626" transform="translate(13.334844 345.903401) scale(0.11 -0.11)">
       <use xlink:href="#ArialMT-36"/>
       <use xlink:href="#ArialMT-35" transform="translate(55.615234 0)"/>
       <use xlink:href="#ArialMT-30" transform="translate(111.230469 0)"/>
       <use xlink:href="#ArialMT-30" transform="translate(166.845703 0)"/>
       <use xlink:href="#ArialMT-30" transform="translate(222.460938 0)"/>
      </g>
     </g>
    </g>
    <g id="ytick_11">
     <g id="line2d_26">
      <path d="M 53.42 309.269793 
L 851.04 309.269793 
" clip-path="url(#p27d8485722)" style="fill: none; stroke: #cccccc; stroke-linecap: round"/>
     </g>
     <g id="text_12">
      <!-- 70000 -->
      <g style="fill: #262626" transform="translate(13.334844 313.20659) scale(0.11 -0.11)">
       <use xlink:href="#ArialMT-37"/>
       <use xlink:href="#ArialMT-30" transform="translate(55.615234 0)"/>
       <use xlink:href="#ArialMT-30" transform="translate(111.230469 0)"/>
       <use xlink:href="#ArialMT-30" transform="translate(166.845703 0)"/>
       <use xlink:href="#ArialMT-30" transform="translate(222.460938 0)"/>
      </g>
     </g>
    </g>
    <g id="ytick_12">
     <g id="line2d_27">
      <path d="M 53.42 276.572982 
L 851.04 276.572982 
" clip-path="url(#p27d8485722)" style="fill: none; stroke: #cccccc; stroke-linecap: round"/>
     </g>
     <g id="text_13">
      <!-- 75000 -->
      <g style="fill: #262626" transform="translate(13.334844 280.509779) scale(0.11 -0.11)">
       <use xlink:href="#ArialMT-37"/>
       <use xlink:href="#ArialMT-35" transform="translate(55.615234 0)"/>
       <use xlink:href="#ArialMT-30" transform="translate(111.230469 0)"/>
       <use xlink:href="#ArialMT-30" transform="translate(166.845703 0)"/>
       <use xlink:href="#ArialMT-30" transform="translate(222.460938 0)"/>
      </g>
     </g>
    </g>
    <g id="ytick_13">
     <g id="line2d_28">
      <path d="M 53.42 243.876171 
L 851.04 243.876171 
" clip-path="url(#p27d8485722)" style="fill: none; stroke: #cccccc; stroke-linecap: round"/>
     </g>
     <g id="text_14">
      <!-- 80000 -->
      <g style="fill: #262626" transform="translate(13.334844 247.812967) scale(0.11 -0.11)">
       <use xlink:href="#ArialMT-38"/>
       <use xlink:href="#ArialMT-30" transform="translate(55.615234 0)"/>
       <use xlink:href="#ArialMT-30" transform="translate(111.230469 0)"/>
       <use xlink:href="#ArialMT-30" transform="translate(166.845703 0)"/>
       <use xlink:href="#ArialMT-30" transform="translate(222.460938 0)"/>
      </g>
     </g>
    </g>
   </g>
   <g id="line2d_29">
    <path d="M 117.281131 341.966605 
L 148.567563 341.966605 
L 150.407942 342.102841 
L 152.24832 342.511551 
L 154.088699 343.192735 
L 155.929077 344.146392 
L 203.778916 372.483629 
L 205.619294 373.437286 
L 207.459672 374.118469 
L 209.300051 374.527179 
L 211.140429 374.663416 
L 251.628754 374.663416 
L 253.469132 374.799653 
L 255.309511 375.208363 
L 257.149889 375.889546 
L 258.990268 376.843203 
L 306.840106 405.18044 
L 308.680485 406.134097 
L 310.520863 406.81528 
L 312.361241 407.223991 
L 314.20162 407.360227 
L 330.765025 407.310686 
L 334.445782 406.91436 
L 338.126539 406.12171 
L 341.807296 404.932735 
L 345.488053 403.347436 
L 349.168809 401.365812 
L 351.009188 400.094269 
L 352.849566 398.459428 
L 354.689945 396.46129 
L 362.051458 387.74214 
L 363.891837 385.380704 
L 365.732215 382.655969 
L 369.412972 376.298257 
L 382.295621 353.546725 
L 384.135999 350.685754 
L 385.976377 348.146798 
L 387.816756 345.979396 
L 391.497513 342.214309 
L 395.178269 338.845547 
L 398.859026 335.873109 
L 402.539783 333.296996 
L 404.380162 332.157561 
L 406.22054 331.249317 
L 408.060918 330.159423 
L 409.901297 328.342933 
L 411.741675 325.618199 
L 413.582054 323.983358 
L 417.26281 323.983358 
L 419.103189 324.165008 
L 420.943567 324.709955 
L 422.783946 325.618199 
L 435.666594 333.247455 
L 437.506973 334.201112 
L 439.347351 334.882295 
L 441.18773 335.291006 
L 443.028108 335.427242 
L 461.431892 335.427242 
L 463.27227 335.972189 
L 465.112649 337.60703 
L 466.953027 340.331764 
L 468.793406 341.966605 
L 490.877946 341.966605 
L 492.718325 342.329902 
L 494.558703 343.419796 
L 496.399082 345.236286 
L 505.600974 356.057373 
L 509.281731 359.794151 
L 511.122109 361.428991 
L 512.962487 362.908133 
L 514.802866 364.231576 
L 516.643244 365.399319 
L 518.483623 366.307564 
L 520.324001 366.852511 
L 522.164379 367.03416 
L 546.089299 367.03416 
L 547.929677 366.670862 
L 549.770055 365.580969 
L 551.610434 363.764479 
L 560.812326 352.943392 
L 564.493083 349.206614 
L 566.333461 347.571773 
L 568.173839 346.092632 
L 570.014218 344.769189 
L 571.854596 343.601445 
L 573.694975 342.693201 
L 575.535353 342.148254 
L 577.375731 341.966605 
L 627.065948 341.888755 
L 628.906327 341.655206 
L 630.746705 341.265958 
L 632.587084 340.721011 
L 634.427462 340.020365 
L 636.26784 339.16402 
L 643.629354 335.162553 
L 647.310111 333.481003 
L 650.990868 332.048572 
L 654.671624 330.83412 
L 658.352381 329.806506 
L 662.033138 328.96573 
L 665.713895 328.311794 
L 669.394652 327.844697 
L 673.075408 327.564438 
L 676.756165 327.471018 
L 682.2773 327.548868 
L 685.958057 328.093815 
L 695.159949 329.541816 
L 698.840706 329.552198 
L 700.681084 329.879166 
L 702.521463 330.507152 
L 704.361841 330.982033 
L 706.20222 330.849689 
L 708.042598 330.117903 
L 709.882976 328.79446 
L 711.723355 327.073984 
L 713.563733 325.1511 
L 715.404112 323.025807 
L 717.24449 320.698106 
L 719.084868 318.167996 
L 720.925247 315.435477 
L 724.606004 309.622711 
L 726.446382 307.06146 
L 731.967517 300.239245 
L 735.648274 294.945475 
L 739.329031 289.02891 
L 743.009788 282.878796 
L 746.690545 277.273629 
L 750.371301 272.291257 
L 754.052058 267.672183 
L 755.892437 264.947449 
L 759.573193 258.862209 
L 761.413572 256.409948 
L 763.25395 254.502634 
L 765.094329 253.140267 
L 770.615464 250.026286 
L 776.136599 246.289507 
L 777.976977 245.58886 
L 781.657734 244.550865 
L 783.498113 243.95402 
L 785.338491 243.564773 
L 787.178869 243.642623 
L 787.178869 243.642623 
" clip-path="url(#p27d8485722)" style="fill: none; stroke: #4878d0; stroke-width: 1.5; stroke-linecap: round"/>
   </g>
   <g id="patch_8">
    <path d="M 53.42 415.55 
L 53.42 235.375 
" style="fill: none; stroke: #cccccc; stroke-width: 1.25; stroke-linejoin: miter; stroke-linecap: square"/>
   </g>
   <g id="patch_9">
    <path d="M 851.04 415.55 
L 851.04 235.375 
" style="fill: none; stroke: #cccccc; stroke-width: 1.25; stroke-linejoin: miter; stroke-linecap: square"/>
   </g>
   <g id="patch_10">
    <path d="M 53.42 415.55 
L 851.04 415.55 
" style="fill: none; stroke: #cccccc; stroke-width: 1.25; stroke-linejoin: miter; stroke-linecap: square"/>
   </g>
   <g id="patch_11">
    <path d="M 53.42 235.375 
L 851.04 235.375 
" style="fill: none; stroke: #cccccc; stroke-width: 1.25; stroke-linejoin: miter; stroke-linecap: square"/>
   </g>
   <g id="text_15">
    <!-- Trend -->
    <g style="fill: #262626" transform="translate(436.782813 229.375) scale(0.12 -0.12)">
     <defs>
      <path id="ArialMT-54" d="M 1659 0 
L 1659 4041 
L 150 4041 
L 150 4581 
L 3781 4581 
L 3781 4041 
L 2266 4041 
L 2266 0 
L 1659 0 
z
" transform="scale(0.015625)"/>
      <path id="ArialMT-65" d="M 2694 1069 
L 3275 997 
Q 3138 488 2766 206 
Q 2394 -75 1816 -75 
Q 1088 -75 661 373 
Q 234 822 234 1631 
Q 234 2469 665 2931 
Q 1097 3394 1784 3394 
Q 2450 3394 2872 2941 
Q 3294 2488 3294 1666 
Q 3294 1616 3291 1516 
L 816 1516 
Q 847 969 1125 678 
Q 1403 388 1819 388 
Q 2128 388 2347 550 
Q 2566 713 2694 1069 
z
M 847 1978 
L 2700 1978 
Q 2663 2397 2488 2606 
Q 2219 2931 1791 2931 
Q 1403 2931 1139 2672 
Q 875 2413 847 1978 
z
" transform="scale(0.015625)"/>
      <path id="ArialMT-64" d="M 2575 0 
L 2575 419 
Q 2259 -75 1647 -75 
Q 1250 -75 917 144 
Q 584 363 401 755 
Q 219 1147 219 1656 
Q 219 2153 384 2558 
Q 550 2963 881 3178 
Q 1213 3394 1622 3394 
Q 1922 3394 2156 3267 
Q 2391 3141 2538 2938 
L 2538 4581 
L 3097 4581 
L 3097 0 
L 2575 0 
z
M 797 1656 
Q 797 1019 1065 703 
Q 1334 388 1700 388 
Q 2069 388 2326 689 
Q 2584 991 2584 1609 
Q 2584 2291 2321 2609 
Q 2059 2928 1675 2928 
Q 1300 2928 1048 2622 
Q 797 2316 797 1656 
z
" transform="scale(0.015625)"/>
     </defs>
     <use xlink:href="#ArialMT-54"/>
     <use xlink:href="#ArialMT-72" transform="translate(57.333984 0)"/>
     <use xlink:href="#ArialMT-65" transform="translate(90.634766 0)"/>
     <use xlink:href="#ArialMT-6e" transform="translate(146.25 0)"/>
     <use xlink:href="#ArialMT-64" transform="translate(201.865234 0)"/>
    </g>
   </g>
  </g>
  <g id="axes_3">
   <g id="patch_12">
    <path d="M 53.42 623.325 
L 851.04 623.325 
L 851.04 443.15 
L 53.42 443.15 
z
" style="fill: #ffffff"/>
   </g>
   <g id="matplotlib.axis_5">
    <g id="xtick_15">
     <g id="line2d_30">
      <path d="M 89.675455 623.325 
L 89.675455 443.15 
" clip-path="url(#p1ebf596617)" style="fill: none; stroke: #cccccc; stroke-linecap: round"/>
     </g>
    </g>
    <g id="xtick_16">
     <g id="line2d_31">
      <path d="M 201.938537 623.325 
L 201.938537 443.15 
" clip-path="url(#p1ebf596617)" style="fill: none; stroke: #cccccc; stroke-linecap: round"/>
     </g>
    </g>
    <g id="xtick_17">
     <g id="line2d_32">
      <path d="M 314.20162 623.325 
L 314.20162 443.15 
" clip-path="url(#p1ebf596617)" style="fill: none; stroke: #cccccc; stroke-linecap: round"/>
     </g>
    </g>
    <g id="xtick_18">
     <g id="line2d_33">
      <path d="M 422.783946 623.325 
L 422.783946 443.15 
" clip-path="url(#p1ebf596617)" style="fill: none; stroke: #cccccc; stroke-linecap: round"/>
     </g>
    </g>
    <g id="xtick_19">
     <g id="line2d_34">
      <path d="M 535.047028 623.325 
L 535.047028 443.15 
" clip-path="url(#p1ebf596617)" style="fill: none; stroke: #cccccc; stroke-linecap: round"/>
     </g>
    </g>
    <g id="xtick_20">
     <g id="line2d_35">
      <path d="M 647.310111 623.325 
L 647.310111 443.15 
" clip-path="url(#p1ebf596617)" style="fill: none; stroke: #cccccc; stroke-linecap: round"/>
     </g>
    </g>
    <g id="xtick_21">
     <g id="line2d_36">
      <path d="M 761.413572 623.325 
L 761.413572 443.15 
" clip-path="url(#p1ebf596617)" style="fill: none; stroke: #cccccc; stroke-linecap: round"/>
     </g>
    </g>
   </g>
   <g id="matplotlib.axis_6">
    <g id="ytick_14">
     <g id="line2d_37">
      <path d="M 53.42 611.443116 
L 851.04 611.443116 
" clip-path="url(#p1ebf596617)" style="fill: none; stroke: #cccccc; stroke-linecap: round"/>
     </g>
     <g id="text_16">
      <!-- −1000 -->
      <g style="fill: #262626" transform="translate(13.027188 615.379913) scale(0.11 -0.11)">
       <defs>
        <path id="ArialMT-2212" d="M 3381 1997 
L 356 1997 
L 356 2522 
L 3381 2522 
L 3381 1997 
z
" transform="scale(0.015625)"/>
        <path id="ArialMT-31" d="M 2384 0 
L 1822 0 
L 1822 3584 
Q 1619 3391 1289 3197 
Q 959 3003 697 2906 
L 697 3450 
Q 1169 3672 1522 3987 
Q 1875 4303 2022 4600 
L 2384 4600 
L 2384 0 
z
" transform="scale(0.015625)"/>
       </defs>
       <use xlink:href="#ArialMT-2212"/>
       <use xlink:href="#ArialMT-31" transform="translate(58.398438 0)"/>
       <use xlink:href="#ArialMT-30" transform="translate(114.013672 0)"/>
       <use xlink:href="#ArialMT-30" transform="translate(169.628906 0)"/>
       <use xlink:href="#ArialMT-30" transform="translate(225.244141 0)"/>
      </g>
     </g>
    </g>
    <g id="ytick_15">
     <g id="line2d_38">
      <path d="M 53.42 583.494389 
L 851.04 583.494389 
" clip-path="url(#p1ebf596617)" style="fill: none; stroke: #cccccc; stroke-linecap: round"/>
     </g>
     <g id="text_17">
      <!-- −500 -->
      <g style="fill: #262626" transform="translate(19.144219 587.431186) scale(0.11 -0.11)">
       <use xlink:href="#ArialMT-2212"/>
       <use xlink:href="#ArialMT-35" transform="translate(58.398438 0)"/>
       <use xlink:href="#ArialMT-30" transform="translate(114.013672 0)"/>
       <use xlink:href="#ArialMT-30" transform="translate(169.628906 0)"/>
      </g>
     </g>
    </g>
    <g id="ytick_16">
     <g id="line2d_39">
      <path d="M 53.42 555.545662 
L 851.04 555.545662 
" clip-path="url(#p1ebf596617)" style="fill: none; stroke: #cccccc; stroke-linecap: round"/>
     </g>
     <g id="text_18">
      <!-- 0 -->
      <g style="fill: #262626" transform="translate(37.802969 559.482459) scale(0.11 -0.11)">
       <use xlink:href="#ArialMT-30"/>
      </g>
     </g>
    </g>
    <g id="ytick_17">
     <g id="line2d_40">
      <path d="M 53.42 527.596935 
L 851.04 527.596935 
" clip-path="url(#p1ebf596617)" style="fill: none; stroke: #cccccc; stroke-linecap: round"/>
     </g>
     <g id="text_19">
      <!-- 500 -->
      <g style="fill: #262626" transform="translate(25.568906 531.533732) scale(0.11 -0.11)">
       <use xlink:href="#ArialMT-35"/>
       <use xlink:href="#ArialMT-30" transform="translate(55.615234 0)"/>
       <use xlink:href="#ArialMT-30" transform="translate(111.230469 0)"/>
      </g>
     </g>
    </g>
    <g id="ytick_18">
     <g id="line2d_41">
      <path d="M 53.42 499.648209 
L 851.04 499.648209 
" clip-path="url(#p1ebf596617)" style="fill: none; stroke: #cccccc; stroke-linecap: round"/>
     </g>
     <g id="text_20">
      <!-- 1000 -->
      <g style="fill: #262626" transform="translate(19.451875 503.585006) scale(0.11 -0.11)">
       <use xlink:href="#ArialMT-31"/>
       <use xlink:href="#ArialMT-30" transform="translate(55.615234 0)"/>
       <use xlink:href="#ArialMT-30" transform="translate(111.230469 0)"/>
       <use xlink:href="#ArialMT-30" transform="translate(166.845703 0)"/>
      </g>
     </g>
    </g>
    <g id="ytick_19">
     <g id="line2d_42">
      <path d="M 53.42 471.699482 
L 851.04 471.699482 
" clip-path="url(#p1ebf596617)" style="fill: none; stroke: #cccccc; stroke-linecap: round"/>
     </g>
     <g id="text_21">
      <!-- 1500 -->
      <g style="fill: #262626" transform="translate(19.451875 475.636279) scale(0.11 -0.11)">
       <use xlink:href="#ArialMT-31"/>
       <use xlink:href="#ArialMT-35" transform="translate(55.615234 0)"/>
       <use xlink:href="#ArialMT-30" transform="translate(111.230469 0)"/>
       <use xlink:href="#ArialMT-30" transform="translate(166.845703 0)"/>
      </g>
     </g>
    </g>
    <g id="ytick_20">
     <g id="line2d_43">
      <path d="M 53.42 443.750755 
L 851.04 443.750755 
" clip-path="url(#p1ebf596617)" style="fill: none; stroke: #cccccc; stroke-linecap: round"/>
     </g>
     <g id="text_22">
      <!-- 2000 -->
      <g style="fill: #262626" transform="translate(19.451875 447.687552) scale(0.11 -0.11)">
       <defs>
        <path id="ArialMT-32" d="M 3222 541 
L 3222 0 
L 194 0 
Q 188 203 259 391 
Q 375 700 629 1000 
Q 884 1300 1366 1694 
Q 2113 2306 2375 2664 
Q 2638 3022 2638 3341 
Q 2638 3675 2398 3904 
Q 2159 4134 1775 4134 
Q 1369 4134 1125 3890 
Q 881 3647 878 3216 
L 300 3275 
Q 359 3922 746 4261 
Q 1134 4600 1788 4600 
Q 2447 4600 2831 4234 
Q 3216 3869 3216 3328 
Q 3216 3053 3103 2787 
Q 2991 2522 2730 2228 
Q 2469 1934 1863 1422 
Q 1356 997 1212 845 
Q 1069 694 975 541 
L 3222 541 
z
" transform="scale(0.015625)"/>
       </defs>
       <use xlink:href="#ArialMT-32"/>
       <use xlink:href="#ArialMT-30" transform="translate(55.615234 0)"/>
       <use xlink:href="#ArialMT-30" transform="translate(111.230469 0)"/>
       <use xlink:href="#ArialMT-30" transform="translate(166.845703 0)"/>
      </g>
     </g>
    </g>
   </g>
   <g id="line2d_44">
    <path d="M 89.675455 603.842824 
L 93.356211 615.135227 
L 97.036968 604.246124 
L 100.717725 591.360689 
L 102.558103 575.944451 
L 104.398482 532.801446 
L 106.23886 486.428142 
L 108.079239 451.339773 
L 109.919617 517.371373 
L 113.600374 510.065345 
L 115.440752 508.900806 
L 117.281131 511.130939 
L 119.121509 519.884094 
L 122.802266 551.108853 
L 124.642644 548.498282 
L 126.483023 545.167622 
L 128.323401 542.284043 
L 130.163779 533.688674 
L 132.004158 533.522312 
L 135.684915 576.166317 
L 137.525293 595.398675 
L 139.365671 599.104024 
L 143.046428 594.869373 
L 144.886807 603.842824 
L 148.567563 615.135227 
L 152.24832 604.246124 
L 155.929077 591.360689 
L 157.769455 575.944451 
L 159.609834 532.801446 
L 161.450212 486.428142 
L 163.290591 451.339773 
L 165.130969 517.371373 
L 168.811726 510.065345 
L 170.652104 508.900806 
L 172.492483 511.130939 
L 174.332861 519.884094 
L 178.013618 551.108853 
L 179.853996 548.498282 
L 181.694375 545.167622 
L 183.534753 542.284043 
L 185.375132 533.688674 
L 187.21551 533.522312 
L 190.896267 576.166317 
L 192.736645 595.398675 
L 194.577024 599.104024 
L 198.25778 594.869373 
L 200.098159 603.842824 
L 203.778916 615.135227 
L 207.459672 604.246124 
L 211.140429 591.360689 
L 212.980808 575.944451 
L 214.821186 532.801446 
L 216.661564 486.428142 
L 218.501943 451.339773 
L 220.342321 517.371373 
L 224.023078 510.065345 
L 225.863456 508.900806 
L 227.703835 511.130939 
L 229.544213 519.884094 
L 233.22497 551.108853 
L 235.065348 548.498282 
L 236.905727 545.167622 
L 238.746105 542.284043 
L 240.586484 533.688674 
L 242.426862 533.522312 
L 246.107619 576.166317 
L 247.947997 595.398675 
L 249.788376 599.104024 
L 253.469132 594.869373 
L 255.309511 603.842824 
L 258.990268 615.135227 
L 262.671024 604.246124 
L 266.351781 591.360689 
L 268.19216 575.944451 
L 270.032538 532.801446 
L 271.872916 486.428142 
L 273.713295 451.339773 
L 275.553673 517.371373 
L 279.23443 510.065345 
L 281.074808 508.900806 
L 282.915187 511.130939 
L 284.755565 519.884094 
L 288.436322 551.108853 
L 290.276701 548.498282 
L 292.117079 545.167622 
L 293.957457 542.284043 
L 295.797836 533.688674 
L 297.638214 533.522312 
L 301.318971 576.166317 
L 303.159349 595.398675 
L 304.999728 599.104024 
L 308.680485 594.869373 
L 310.520863 603.842824 
L 314.20162 615.135227 
L 317.882377 604.246124 
L 321.563133 591.360689 
L 323.403512 575.944451 
L 325.24389 532.801446 
L 327.084269 486.428142 
L 328.924647 451.339773 
L 330.765025 517.371373 
L 334.445782 510.065345 
L 336.286161 508.900806 
L 338.126539 511.130939 
L 339.966917 519.884094 
L 343.647674 551.108853 
L 345.488053 548.498282 
L 347.328431 545.167622 
L 349.168809 542.284043 
L 351.009188 533.688674 
L 352.849566 533.522312 
L 356.530323 576.166317 
L 358.370701 595.398675 
L 360.21108 599.104024 
L 363.891837 594.869373 
L 365.732215 603.842824 
L 369.412972 615.135227 
L 373.093729 604.246124 
L 376.774485 591.360689 
L 378.614864 575.944451 
L 380.455242 532.801446 
L 382.295621 486.428142 
L 384.135999 451.339773 
L 385.976377 517.371373 
L 389.657134 510.065345 
L 391.497513 508.900806 
L 393.337891 511.130939 
L 395.178269 519.884094 
L 398.859026 551.108853 
L 400.699405 548.498282 
L 402.539783 545.167622 
L 404.380162 542.284043 
L 406.22054 533.688674 
L 408.060918 533.522312 
L 411.741675 576.166317 
L 413.582054 595.398675 
L 415.422432 599.104024 
L 419.103189 594.869373 
L 420.943567 603.842824 
L 424.624324 615.135227 
L 428.305081 604.246124 
L 431.985838 591.360689 
L 433.826216 575.944451 
L 435.666594 532.801446 
L 437.506973 486.428142 
L 439.347351 451.339773 
L 441.18773 517.371373 
L 444.868486 510.065345 
L 446.708865 508.900806 
L 448.549243 511.130939 
L 450.389622 519.884094 
L 454.070378 551.108853 
L 455.910757 548.498282 
L 457.751135 545.167622 
L 459.591514 542.284043 
L 461.431892 533.688674 
L 463.27227 533.522312 
L 466.953027 576.166317 
L 468.793406 595.398675 
L 470.633784 599.104024 
L 474.314541 594.869373 
L 476.154919 603.842824 
L 479.835676 615.135227 
L 483.516433 604.246124 
L 487.19719 591.360689 
L 489.037568 575.944451 
L 490.877946 532.801446 
L 492.718325 486.428142 
L 494.558703 451.339773 
L 496.399082 517.371373 
L 500.079838 510.065345 
L 501.920217 508.900806 
L 503.760595 511.130939 
L 505.600974 519.884094 
L 509.281731 551.108853 
L 511.122109 548.498282 
L 512.962487 545.167622 
L 514.802866 542.284043 
L 516.643244 533.688674 
L 518.483623 533.522312 
L 522.164379 576.166317 
L 524.004758 595.398675 
L 525.845136 599.104024 
L 529.525893 594.869373 
L 531.366271 603.842824 
L 535.047028 615.135227 
L 538.727785 604.246124 
L 542.408542 591.360689 
L 544.24892 575.944451 
L 546.089299 532.801446 
L 547.929677 486.428142 
L 549.770055 451.339773 
L 551.610434 517.371373 
L 555.291191 510.065345 
L 557.131569 508.900806 
L 558.971947 511.130939 
L 560.812326 519.884094 
L 564.493083 551.108853 
L 566.333461 548.498282 
L 568.173839 545.167622 
L 570.014218 542.284043 
L 571.854596 533.688674 
L 573.694975 533.522312 
L 577.375731 576.166317 
L 579.21611 595.398675 
L 581.056488 599.104024 
L 584.737245 594.869373 
L 586.577623 603.842824 
L 590.25838 615.135227 
L 593.939137 604.246124 
L 597.619894 591.360689 
L 599.460272 575.944451 
L 601.300651 532.801446 
L 603.141029 486.428142 
L 604.981407 451.339773 
L 606.821786 517.371373 
L 610.502543 510.065345 
L 612.342921 508.900806 
L 614.183299 511.130939 
L 616.023678 519.884094 
L 619.704435 551.108853 
L 621.544813 548.498282 
L 623.385192 545.167622 
L 625.22557 542.284043 
L 627.065948 533.688674 
L 628.906327 533.522312 
L 632.587084 576.166317 
L 634.427462 595.398675 
L 636.26784 599.104024 
L 639.948597 594.869373 
L 641.788976 603.842824 
L 645.469732 615.135227 
L 649.150489 604.246124 
L 652.831246 591.360689 
L 654.671624 575.944451 
L 656.512003 532.801446 
L 658.352381 486.428142 
L 660.19276 451.339773 
L 662.033138 517.371373 
L 665.713895 510.065345 
L 667.554273 508.900806 
L 669.394652 511.130939 
L 671.23503 519.884094 
L 674.915787 551.108853 
L 676.756165 548.498282 
L 678.596544 545.167622 
L 680.436922 542.284043 
L 682.2773 533.688674 
L 684.117679 533.522312 
L 687.798436 576.166317 
L 689.638814 595.398675 
L 691.479192 599.104024 
L 695.159949 594.869373 
L 697.000328 603.842824 
L 700.681084 615.135227 
L 704.361841 604.246124 
L 708.042598 591.360689 
L 709.882976 575.944451 
L 711.723355 532.801446 
L 713.563733 486.428142 
L 715.404112 451.339773 
L 717.24449 517.371373 
L 720.925247 510.065345 
L 722.765625 508.900806 
L 724.606004 511.130939 
L 726.446382 519.884094 
L 730.127139 551.108853 
L 731.967517 548.498282 
L 733.807896 545.167622 
L 735.648274 542.284043 
L 737.488653 533.688674 
L 739.329031 533.522312 
L 743.009788 576.166317 
L 744.850166 595.398675 
L 746.690545 599.104024 
L 750.371301 594.869373 
L 752.21168 603.842824 
L 755.892437 615.135227 
L 759.573193 604.246124 
L 763.25395 591.360689 
L 765.094329 575.944451 
L 766.934707 532.801446 
L 768.775085 486.428142 
L 770.615464 451.339773 
L 772.455842 517.371373 
L 776.136599 510.065345 
L 777.976977 508.900806 
L 779.817356 511.130939 
L 781.657734 519.884094 
L 785.338491 551.108853 
L 787.178869 548.498282 
L 789.019248 545.167622 
L 790.859626 542.284043 
L 792.700005 533.688674 
L 794.540383 533.522312 
L 798.22114 576.166317 
L 800.061518 595.398675 
L 801.901897 599.104024 
L 805.582653 594.869373 
L 807.423032 603.842824 
L 811.103789 615.135227 
L 814.784545 604.246124 
L 814.784545 604.246124 
" clip-path="url(#p1ebf596617)" style="fill: none; stroke: #4878d0; stroke-width: 1.5; stroke-linecap: round"/>
   </g>
   <g id="patch_13">
    <path d="M 53.42 623.325 
L 53.42 443.15 
" style="fill: none; stroke: #cccccc; stroke-width: 1.25; stroke-linejoin: miter; stroke-linecap: square"/>
   </g>
   <g id="patch_14">
    <path d="M 851.04 623.325 
L 851.04 443.15 
" style="fill: none; stroke: #cccccc; stroke-width: 1.25; stroke-linejoin: miter; stroke-linecap: square"/>
   </g>
   <g id="patch_15">
    <path d="M 53.42 623.325 
L 851.04 623.325 
" style="fill: none; stroke: #cccccc; stroke-width: 1.25; stroke-linejoin: miter; stroke-linecap: square"/>
   </g>
   <g id="patch_16">
    <path d="M 53.42 443.15 
L 851.04 443.15 
" style="fill: none; stroke: #cccccc; stroke-width: 1.25; stroke-linejoin: miter; stroke-linecap: square"/>
   </g>
   <g id="text_23">
    <!-- Seasonal -->
    <g style="fill: #262626" transform="translate(427.211875 437.15) scale(0.12 -0.12)">
     <defs>
      <path id="ArialMT-53" d="M 288 1472 
L 859 1522 
Q 900 1178 1048 958 
Q 1197 738 1509 602 
Q 1822 466 2213 466 
Q 2559 466 2825 569 
Q 3091 672 3220 851 
Q 3350 1031 3350 1244 
Q 3350 1459 3225 1620 
Q 3100 1781 2813 1891 
Q 2628 1963 1997 2114 
Q 1366 2266 1113 2400 
Q 784 2572 623 2826 
Q 463 3081 463 3397 
Q 463 3744 659 4045 
Q 856 4347 1234 4503 
Q 1613 4659 2075 4659 
Q 2584 4659 2973 4495 
Q 3363 4331 3572 4012 
Q 3781 3694 3797 3291 
L 3216 3247 
Q 3169 3681 2898 3903 
Q 2628 4125 2100 4125 
Q 1550 4125 1298 3923 
Q 1047 3722 1047 3438 
Q 1047 3191 1225 3031 
Q 1400 2872 2139 2705 
Q 2878 2538 3153 2413 
Q 3553 2228 3743 1945 
Q 3934 1663 3934 1294 
Q 3934 928 3725 604 
Q 3516 281 3123 101 
Q 2731 -78 2241 -78 
Q 1619 -78 1198 103 
Q 778 284 539 648 
Q 300 1013 288 1472 
z
" transform="scale(0.015625)"/>
      <path id="ArialMT-73" d="M 197 991 
L 753 1078 
Q 800 744 1014 566 
Q 1228 388 1613 388 
Q 2000 388 2187 545 
Q 2375 703 2375 916 
Q 2375 1106 2209 1216 
Q 2094 1291 1634 1406 
Q 1016 1563 777 1677 
Q 538 1791 414 1992 
Q 291 2194 291 2438 
Q 291 2659 392 2848 
Q 494 3038 669 3163 
Q 800 3259 1026 3326 
Q 1253 3394 1513 3394 
Q 1903 3394 2198 3281 
Q 2494 3169 2634 2976 
Q 2775 2784 2828 2463 
L 2278 2388 
Q 2241 2644 2061 2787 
Q 1881 2931 1553 2931 
Q 1166 2931 1000 2803 
Q 834 2675 834 2503 
Q 834 2394 903 2306 
Q 972 2216 1119 2156 
Q 1203 2125 1616 2013 
Q 2213 1853 2448 1751 
Q 2684 1650 2818 1456 
Q 2953 1263 2953 975 
Q 2953 694 2789 445 
Q 2625 197 2315 61 
Q 2006 -75 1616 -75 
Q 969 -75 630 194 
Q 291 463 197 991 
z
" transform="scale(0.015625)"/>
      <path id="ArialMT-6f" d="M 213 1659 
Q 213 2581 725 3025 
Q 1153 3394 1769 3394 
Q 2453 3394 2887 2945 
Q 3322 2497 3322 1706 
Q 3322 1066 3130 698 
Q 2938 331 2570 128 
Q 2203 -75 1769 -75 
Q 1072 -75 642 372 
Q 213 819 213 1659 
z
M 791 1659 
Q 791 1022 1069 705 
Q 1347 388 1769 388 
Q 2188 388 2466 706 
Q 2744 1025 2744 1678 
Q 2744 2294 2464 2611 
Q 2184 2928 1769 2928 
Q 1347 2928 1069 2612 
Q 791 2297 791 1659 
z
" transform="scale(0.015625)"/>
     </defs>
     <use xlink:href="#ArialMT-53"/>
     <use xlink:href="#ArialMT-65" transform="translate(66.699219 0)"/>
     <use xlink:href="#ArialMT-61" transform="translate(122.314453 0)"/>
     <use xlink:href="#ArialMT-73" transform="translate(177.929688 0)"/>
     <use xlink:href="#ArialMT-6f" transform="translate(227.929688 0)"/>
     <use xlink:href="#ArialMT-6e" transform="translate(283.544922 0)"/>
     <use xlink:href="#ArialMT-61" transform="translate(339.160156 0)"/>
     <use xlink:href="#ArialMT-6c" transform="translate(394.775391 0)"/>
    </g>
   </g>
  </g>
  <g id="axes_4">
   <g id="patch_17">
    <path d="M 53.42 831.1 
L 851.04 831.1 
L 851.04 650.925 
L 53.42 650.925 
z
" style="fill: #ffffff"/>
   </g>
   <g id="matplotlib.axis_7">
    <g id="xtick_22">
     <g id="line2d_45">
      <path d="M 89.675455 831.1 
L 89.675455 650.925 
" clip-path="url(#p0eb94b0d29)" style="fill: none; stroke: #cccccc; stroke-linecap: round"/>
     </g>
     <g id="text_24">
      <!-- 2024-09 -->
      <g style="fill: #262626" transform="translate(69.493033 848.473594) scale(0.11 -0.11)">
       <defs>
        <path id="ArialMT-34" d="M 2069 0 
L 2069 1097 
L 81 1097 
L 81 1613 
L 2172 4581 
L 2631 4581 
L 2631 1613 
L 3250 1613 
L 3250 1097 
L 2631 1097 
L 2631 0 
L 2069 0 
z
M 2069 1613 
L 2069 3678 
L 634 1613 
L 2069 1613 
z
" transform="scale(0.015625)"/>
        <path id="ArialMT-2d" d="M 203 1375 
L 203 1941 
L 1931 1941 
L 1931 1375 
L 203 1375 
z
" transform="scale(0.015625)"/>
        <path id="ArialMT-39" d="M 350 1059 
L 891 1109 
Q 959 728 1153 556 
Q 1347 384 1650 384 
Q 1909 384 2104 503 
Q 2300 622 2425 820 
Q 2550 1019 2634 1356 
Q 2719 1694 2719 2044 
Q 2719 2081 2716 2156 
Q 2547 1888 2255 1720 
Q 1963 1553 1622 1553 
Q 1053 1553 659 1965 
Q 266 2378 266 3053 
Q 266 3750 677 4175 
Q 1088 4600 1706 4600 
Q 2153 4600 2523 4359 
Q 2894 4119 3086 3673 
Q 3278 3228 3278 2384 
Q 3278 1506 3087 986 
Q 2897 466 2520 194 
Q 2144 -78 1638 -78 
Q 1100 -78 759 220 
Q 419 519 350 1059 
z
M 2653 3081 
Q 2653 3566 2395 3850 
Q 2138 4134 1775 4134 
Q 1400 4134 1122 3828 
Q 844 3522 844 3034 
Q 844 2597 1108 2323 
Q 1372 2050 1759 2050 
Q 2150 2050 2401 2323 
Q 2653 2597 2653 3081 
z
" transform="scale(0.015625)"/>
       </defs>
       <use xlink:href="#ArialMT-32"/>
       <use xlink:href="#ArialMT-30" transform="translate(55.615234 0)"/>
       <use xlink:href="#ArialMT-32" transform="translate(111.230469 0)"/>
       <use xlink:href="#ArialMT-34" transform="translate(166.845703 0)"/>
       <use xlink:href="#ArialMT-2d" transform="translate(222.460938 0)"/>
       <use xlink:href="#ArialMT-30" transform="translate(255.761719 0)"/>
       <use xlink:href="#ArialMT-39" transform="translate(311.376953 0)"/>
      </g>
     </g>
    </g>
    <g id="xtick_23">
     <g id="line2d_46">
      <path d="M 201.938537 831.1 
L 201.938537 650.925 
" clip-path="url(#p0eb94b0d29)" style="fill: none; stroke: #cccccc; stroke-linecap: round"/>
     </g>
     <g id="text_25">
      <!-- 2024-11 -->
      <g style="fill: #262626" transform="translate(182.16174 848.473594) scale(0.11 -0.11)">
       <use xlink:href="#ArialMT-32"/>
       <use xlink:href="#ArialMT-30" transform="translate(55.615234 0)"/>
       <use xlink:href="#ArialMT-32" transform="translate(111.230469 0)"/>
       <use xlink:href="#ArialMT-34" transform="translate(166.845703 0)"/>
       <use xlink:href="#ArialMT-2d" transform="translate(222.460938 0)"/>
       <use xlink:href="#ArialMT-31" transform="translate(255.761719 0)"/>
       <use xlink:href="#ArialMT-31" transform="translate(304.001953 0)"/>
      </g>
     </g>
    </g>
    <g id="xtick_24">
     <g id="line2d_47">
      <path d="M 314.20162 831.1 
L 314.20162 650.925 
" clip-path="url(#p0eb94b0d29)" style="fill: none; stroke: #cccccc; stroke-linecap: round"/>
     </g>
     <g id="text_26">
      <!-- 2025-01 -->
      <g style="fill: #262626" transform="translate(294.019198 848.473594) scale(0.11 -0.11)">
       <use xlink:href="#ArialMT-32"/>
       <use xlink:href="#ArialMT-30" transform="translate(55.615234 0)"/>
       <use xlink:href="#ArialMT-32" transform="translate(111.230469 0)"/>
       <use xlink:href="#ArialMT-35" transform="translate(166.845703 0)"/>
       <use xlink:href="#ArialMT-2d" transform="translate(222.460938 0)"/>
       <use xlink:href="#ArialMT-30" transform="translate(255.761719 0)"/>
       <use xlink:href="#ArialMT-31" transform="translate(311.376953 0)"/>
      </g>
     </g>
    </g>
    <g id="xtick_25">
     <g id="line2d_48">
      <path d="M 422.783946 831.1 
L 422.783946 650.925 
" clip-path="url(#p0eb94b0d29)" style="fill: none; stroke: #cccccc; stroke-linecap: round"/>
     </g>
     <g id="text_27">
      <!-- 2025-03 -->
      <g style="fill: #262626" transform="translate(402.601524 848.473594) scale(0.11 -0.11)">
       <defs>
        <path id="ArialMT-33" d="M 269 1209 
L 831 1284 
Q 928 806 1161 595 
Q 1394 384 1728 384 
Q 2125 384 2398 659 
Q 2672 934 2672 1341 
Q 2672 1728 2419 1979 
Q 2166 2231 1775 2231 
Q 1616 2231 1378 2169 
L 1441 2663 
Q 1497 2656 1531 2656 
Q 1891 2656 2178 2843 
Q 2466 3031 2466 3422 
Q 2466 3731 2256 3934 
Q 2047 4138 1716 4138 
Q 1388 4138 1169 3931 
Q 950 3725 888 3313 
L 325 3413 
Q 428 3978 793 4289 
Q 1159 4600 1703 4600 
Q 2078 4600 2393 4439 
Q 2709 4278 2876 4000 
Q 3044 3722 3044 3409 
Q 3044 3113 2884 2869 
Q 2725 2625 2413 2481 
Q 2819 2388 3044 2092 
Q 3269 1797 3269 1353 
Q 3269 753 2831 336 
Q 2394 -81 1725 -81 
Q 1122 -81 723 278 
Q 325 638 269 1209 
z
" transform="scale(0.015625)"/>
       </defs>
       <use xlink:href="#ArialMT-32"/>
       <use xlink:href="#ArialMT-30" transform="translate(55.615234 0)"/>
       <use xlink:href="#ArialMT-32" transform="translate(111.230469 0)"/>
       <use xlink:href="#ArialMT-35" transform="translate(166.845703 0)"/>
       <use xlink:href="#ArialMT-2d" transform="translate(222.460938 0)"/>
       <use xlink:href="#ArialMT-30" transform="translate(255.761719 0)"/>
       <use xlink:href="#ArialMT-33" transform="translate(311.376953 0)"/>
      </g>
     </g>
    </g>
    <g id="xtick_26">
     <g id="line2d_49">
      <path d="M 535.047028 831.1 
L 535.047028 650.925 
" clip-path="url(#p0eb94b0d29)" style="fill: none; stroke: #cccccc; stroke-linecap: round"/>
     </g>
     <g id="text_28">
      <!-- 2025-05 -->
      <g style="fill: #262626" transform="translate(514.864606 848.473594) scale(0.11 -0.11)">
       <use xlink:href="#ArialMT-32"/>
       <use xlink:href="#ArialMT-30" transform="translate(55.615234 0)"/>
       <use xlink:href="#ArialMT-32" transform="translate(111.230469 0)"/>
       <use xlink:href="#ArialMT-35" transform="translate(166.845703 0)"/>
       <use xlink:href="#ArialMT-2d" transform="translate(222.460938 0)"/>
       <use xlink:href="#ArialMT-30" transform="translate(255.761719 0)"/>
       <use xlink:href="#ArialMT-35" transform="translate(311.376953 0)"/>
      </g>
     </g>
    </g>
    <g id="xtick_27">
     <g id="line2d_50">
      <path d="M 647.310111 831.1 
L 647.310111 650.925 
" clip-path="url(#p0eb94b0d29)" style="fill: none; stroke: #cccccc; stroke-linecap: round"/>
     </g>
     <g id="text_29">
      <!-- 2025-07 -->
      <g style="fill: #262626" transform="translate(627.127689 848.473594) scale(0.11 -0.11)">
       <use xlink:href="#ArialMT-32"/>
       <use xlink:href="#ArialMT-30" transform="translate(55.615234 0)"/>
       <use xlink:href="#ArialMT-32" transform="translate(111.230469 0)"/>
       <use xlink:href="#ArialMT-35" transform="translate(166.845703 0)"/>
       <use xlink:href="#ArialMT-2d" transform="translate(222.460938 0)"/>
       <use xlink:href="#ArialMT-30" transform="translate(255.761719 0)"/>
       <use xlink:href="#ArialMT-37" transform="translate(311.376953 0)"/>
      </g>
     </g>
    </g>
    <g id="xtick_28">
     <g id="line2d_51">
      <path d="M 761.413572 831.1 
L 761.413572 650.925 
" clip-path="url(#p0eb94b0d29)" style="fill: none; stroke: #cccccc; stroke-linecap: round"/>
     </g>
     <g id="text_30">
      <!-- 2025-09 -->
      <g style="fill: #262626" transform="translate(741.23115 848.473594) scale(0.11 -0.11)">
       <use xlink:href="#ArialMT-32"/>
       <use xlink:href="#ArialMT-30" transform="translate(55.615234 0)"/>
       <use xlink:href="#ArialMT-32" transform="translate(111.230469 0)"/>
       <use xlink:href="#ArialMT-35" transform="translate(166.845703 0)"/>
       <use xlink:href="#ArialMT-2d" transform="translate(222.460938 0)"/>
       <use xlink:href="#ArialMT-30" transform="translate(255.761719 0)"/>
       <use xlink:href="#ArialMT-39" transform="translate(311.376953 0)"/>
      </g>
     </g>
    </g>
   </g>
   <g id="matplotlib.axis_8">
    <g id="ytick_21">
     <g id="line2d_52">
      <path d="M 53.42 813.028224 
L 851.04 813.028224 
" clip-path="url(#p0eb94b0d29)" style="fill: none; stroke: #cccccc; stroke-linecap: round"/>
     </g>
     <g id="text_31">
      <!-- −5000 -->
      <g style="fill: #262626" transform="translate(13.027188 816.965021) scale(0.11 -0.11)">
       <use xlink:href="#ArialMT-2212"/>
       <use xlink:href="#ArialMT-35" transform="translate(58.398438 0)"/>
       <use xlink:href="#ArialMT-30" transform="translate(114.013672 0)"/>
       <use xlink:href="#ArialMT-30" transform="translate(169.628906 0)"/>
       <use xlink:href="#ArialMT-30" transform="translate(225.244141 0)"/>
      </g>
     </g>
    </g>
    <g id="ytick_22">
     <g id="line2d_53">
      <path d="M 53.42 790.46349 
L 851.04 790.46349 
" clip-path="url(#p0eb94b0d29)" style="fill: none; stroke: #cccccc; stroke-linecap: round"/>
     </g>
     <g id="text_32">
      <!-- −2500 -->
      <g style="fill: #262626" transform="translate(13.027188 794.400286) scale(0.11 -0.11)">
       <use xlink:href="#ArialMT-2212"/>
       <use xlink:href="#ArialMT-32" transform="translate(58.398438 0)"/>
       <use xlink:href="#ArialMT-35" transform="translate(114.013672 0)"/>
       <use xlink:href="#ArialMT-30" transform="translate(169.628906 0)"/>
       <use xlink:href="#ArialMT-30" transform="translate(225.244141 0)"/>
      </g>
     </g>
    </g>
    <g id="ytick_23">
     <g id="line2d_54">
      <path d="M 53.42 767.898755 
L 851.04 767.898755 
" clip-path="url(#p0eb94b0d29)" style="fill: none; stroke: #cccccc; stroke-linecap: round"/>
     </g>
     <g id="text_33">
      <!-- 0 -->
      <g style="fill: #262626" transform="translate(37.802969 771.835552) scale(0.11 -0.11)">
       <use xlink:href="#ArialMT-30"/>
      </g>
     </g>
    </g>
    <g id="ytick_24">
     <g id="line2d_55">
      <path d="M 53.42 745.334021 
L 851.04 745.334021 
" clip-path="url(#p0eb94b0d29)" style="fill: none; stroke: #cccccc; stroke-linecap: round"/>
     </g>
     <g id="text_34">
      <!-- 2500 -->
      <g style="fill: #262626" transform="translate(19.451875 749.270818) scale(0.11 -0.11)">
       <use xlink:href="#ArialMT-32"/>
       <use xlink:href="#ArialMT-35" transform="translate(55.615234 0)"/>
       <use xlink:href="#ArialMT-30" transform="translate(111.230469 0)"/>
       <use xlink:href="#ArialMT-30" transform="translate(166.845703 0)"/>
      </g>
     </g>
    </g>
    <g id="ytick_25">
     <g id="line2d_56">
      <path d="M 53.42 722.769287 
L 851.04 722.769287 
" clip-path="url(#p0eb94b0d29)" style="fill: none; stroke: #cccccc; stroke-linecap: round"/>
     </g>
     <g id="text_35">
      <!-- 5000 -->
      <g style="fill: #262626" transform="translate(19.451875 726.706084) scale(0.11 -0.11)">
       <use xlink:href="#ArialMT-35"/>
       <use xlink:href="#ArialMT-30" transform="translate(55.615234 0)"/>
       <use xlink:href="#ArialMT-30" transform="translate(111.230469 0)"/>
       <use xlink:href="#ArialMT-30" transform="translate(166.845703 0)"/>
      </g>
     </g>
    </g>
    <g id="ytick_26">
     <g id="line2d_57">
      <path d="M 53.42 700.204553 
L 851.04 700.204553 
" clip-path="url(#p0eb94b0d29)" style="fill: none; stroke: #cccccc; stroke-linecap: round"/>
     </g>
     <g id="text_36">
      <!-- 7500 -->
      <g style="fill: #262626" transform="translate(19.451875 704.14135) scale(0.11 -0.11)">
       <use xlink:href="#ArialMT-37"/>
       <use xlink:href="#ArialMT-35" transform="translate(55.615234 0)"/>
       <use xlink:href="#ArialMT-30" transform="translate(111.230469 0)"/>
       <use xlink:href="#ArialMT-30" transform="translate(166.845703 0)"/>
      </g>
     </g>
    </g>
    <g id="ytick_27">
     <g id="line2d_58">
      <path d="M 53.42 677.639819 
L 851.04 677.639819 
" clip-path="url(#p0eb94b0d29)" style="fill: none; stroke: #cccccc; stroke-linecap: round"/>
     </g>
     <g id="text_37">
      <!-- 10000 -->
      <g style="fill: #262626" transform="translate(13.334844 681.576616) scale(0.11 -0.11)">
       <use xlink:href="#ArialMT-31"/>
       <use xlink:href="#ArialMT-30" transform="translate(55.615234 0)"/>
       <use xlink:href="#ArialMT-30" transform="translate(111.230469 0)"/>
       <use xlink:href="#ArialMT-30" transform="translate(166.845703 0)"/>
       <use xlink:href="#ArialMT-30" transform="translate(222.460938 0)"/>
      </g>
     </g>
    </g>
    <g id="ytick_28">
     <g id="line2d_59">
      <path d="M 53.42 655.075085 
L 851.04 655.075085 
" clip-path="url(#p0eb94b0d29)" style="fill: none; stroke: #cccccc; stroke-linecap: round"/>
     </g>
     <g id="text_38">
      <!-- 12500 -->
      <g style="fill: #262626" transform="translate(13.334844 659.011882) scale(0.11 -0.11)">
       <use xlink:href="#ArialMT-31"/>
       <use xlink:href="#ArialMT-32" transform="translate(55.615234 0)"/>
       <use xlink:href="#ArialMT-35" transform="translate(111.230469 0)"/>
       <use xlink:href="#ArialMT-30" transform="translate(166.845703 0)"/>
       <use xlink:href="#ArialMT-30" transform="translate(222.460938 0)"/>
      </g>
     </g>
    </g>
   </g>
   <g id="line2d_60">
    <path d="M 117.281131 775.070506 
L 119.121509 773.657113 
L 122.802266 768.615178 
L 124.642644 769.036713 
L 128.323401 770.04014 
L 130.163779 771.428055 
L 132.004158 771.454918 
L 135.684915 764.56909 
L 137.525293 761.463596 
L 139.365671 760.865284 
L 143.046428 761.549063 
L 144.886807 760.100099 
L 148.567563 758.276688 
L 150.407942 758.967801 
L 152.24832 759.282819 
L 154.088699 759.382947 
L 155.929077 759.106987 
L 157.769455 760.091968 
L 159.609834 765.554055 
L 161.450212 771.537746 
L 163.290591 775.699233 
L 165.130969 763.532639 
L 168.811726 761.703729 
L 170.652104 760.387454 
L 172.492483 758.523034 
L 174.332861 755.605326 
L 176.17324 751.563511 
L 178.013618 758.837126 
L 183.534753 789.596243 
L 185.375132 789.479842 
L 187.21551 788.002389 
L 190.896267 778.10793 
L 192.736645 773.49812 
L 194.577024 771.395493 
L 198.25778 769.070641 
L 200.098159 766.117361 
L 203.778916 761.285319 
L 205.619294 760.848195 
L 207.459672 760.787135 
L 209.300051 761.263341 
L 211.140429 762.115619 
L 212.980808 764.604915 
L 214.821186 771.571318 
L 216.661564 779.059325 
L 218.501943 784.725126 
L 220.342321 774.062848 
L 224.023078 775.24257 
L 225.863456 775.43061 
L 227.703835 775.070506 
L 229.544213 773.657113 
L 233.22497 768.615178 
L 235.065348 769.036713 
L 238.746105 770.04014 
L 240.586484 771.428055 
L 242.426862 771.454918 
L 246.107619 764.56909 
L 247.947997 761.463596 
L 249.788376 760.865284 
L 251.628754 761.20717 
L 253.469132 761.361024 
L 258.990268 755.268057 
L 262.671024 754.017715 
L 266.351781 753.089725 
L 268.19216 754.074706 
L 270.032538 759.536793 
L 271.872916 765.520484 
L 273.713295 769.68197 
L 275.553673 757.515376 
L 279.23443 755.686467 
L 282.915187 775.070506 
L 284.755565 783.435165 
L 286.595944 790.675717 
L 288.436322 786.666965 
L 292.117079 784.617678 
L 293.957457 783.578981 
L 295.797836 783.46258 
L 297.638214 781.985127 
L 301.318971 772.090668 
L 303.159349 767.480858 
L 304.999728 765.378231 
L 306.840106 764.215801 
L 308.680485 763.241418 
L 310.520863 760.852257 
L 312.361241 759.37644 
L 314.20162 758.276688 
L 317.882377 760.034977 
L 321.563133 762.115619 
L 323.403512 764.604915 
L 325.24389 771.571318 
L 327.084269 779.059325 
L 328.924647 784.725126 
L 330.765025 774.131227 
L 332.605404 774.925095 
L 334.445782 775.857973 
L 336.286161 776.52466 
L 338.126539 776.779957 
L 339.966917 776.118722 
L 341.807296 774.470137 
L 343.647674 772.99137 
L 345.488053 774.57533 
L 349.168809 778.313876 
L 351.009188 781.456826 
L 352.849566 783.740162 
L 354.689945 783.059641 
L 356.530323 782.620877 
L 358.370701 778.421294 
L 360.21108 776.728984 
L 362.051458 775.976781 
L 363.891837 775.475396 
L 365.732215 773.684501 
L 367.572593 772.9324 
L 369.412972 772.430914 
L 373.093729 775.009747 
L 376.774485 777.910932 
L 378.614864 769.869989 
L 380.455242 766.306243 
L 382.295621 763.075971 
L 384.135999 772.690601 
L 385.976377 765.532694 
L 387.816756 769.112964 
L 389.657134 772.370693 
L 393.337891 747.035561 
L 395.178269 732.835456 
L 398.859026 731.896199 
L 402.539783 736.4112 
L 404.380162 738.449513 
L 406.22054 741.091023 
L 408.060918 742.622201 
L 409.901297 752.973328 
L 411.741675 764.56909 
L 415.422432 785.686492 
L 417.26281 786.028377 
L 419.103189 786.119551 
L 422.783946 781.753135 
L 424.624324 779.337106 
L 428.305081 778.086764 
L 431.985838 777.158775 
L 433.826216 778.143755 
L 439.347351 659.114773 
L 441.18773 783.276781 
L 443.028108 783.677476 
L 444.868486 784.268463 
L 446.708865 784.456504 
L 448.549243 784.096399 
L 450.389622 782.683007 
L 454.070378 777.641071 
L 455.910757 778.062606 
L 459.591514 779.066034 
L 461.431892 780.453949 
L 463.27227 779.728654 
L 465.112649 774.033747 
L 466.953027 766.825563 
L 468.793406 761.463596 
L 470.633784 760.865284 
L 474.314541 761.549063 
L 476.154919 760.100099 
L 479.835676 758.276688 
L 483.516433 760.034977 
L 487.19719 762.115619 
L 489.037568 764.604915 
L 492.718325 778.557886 
L 494.558703 782.719373 
L 496.399082 769.549901 
L 500.079838 764.71236 
L 501.920217 761.89177 
L 503.760595 758.523034 
L 505.600974 754.208462 
L 509.281731 744.008874 
L 511.122109 742.173935 
L 514.802866 739.309122 
L 516.643244 739.085269 
L 518.483623 737.858536 
L 522.164379 790.142485 
L 524.004758 817.123273 
L 525.845136 816.524962 
L 529.525893 817.208741 
L 531.366271 815.759776 
L 535.047028 801.042245 
L 542.408542 779.092933 
L 544.24892 775.135124 
L 546.089299 767.058341 
L 547.929677 760.00469 
L 551.610434 743.976536 
L 555.291191 751.17352 
L 557.131569 754.370192 
L 558.971947 757.018718 
L 560.812326 758.506505 
L 562.652704 758.655284 
L 564.493083 758.622223 
L 568.173839 763.879612 
L 570.014218 766.1719 
L 571.854596 769.171581 
L 573.694975 770.45204 
L 575.535353 767.765765 
L 579.21611 761.463596 
L 581.056488 760.865284 
L 584.737245 761.549063 
L 586.577623 760.100099 
L 590.25838 758.276688 
L 593.939137 760.034977 
L 597.619894 762.115619 
L 599.460272 764.604915 
L 601.300651 771.571318 
L 603.141029 779.059325 
L 604.981407 784.725126 
L 606.821786 774.062848 
L 610.502543 775.24257 
L 612.342921 775.43061 
L 614.183299 775.070506 
L 616.023678 773.657113 
L 619.704435 768.615178 
L 621.544813 769.036713 
L 625.22557 770.04014 
L 627.065948 771.535507 
L 628.906327 771.884723 
L 632.587084 766.288309 
L 634.427462 764.149874 
L 636.26784 764.733525 
L 639.948597 768.275504 
L 641.788976 768.201914 
L 645.469732 768.871369 
L 650.990868 774.764574 
L 652.831246 776.675244 
L 654.671624 773.523318 
L 656.512003 774.784118 
L 658.352381 776.501961 
L 660.19276 776.333219 
L 662.033138 759.771836 
L 665.713895 748.960026 
L 667.554273 752.081443 
L 669.394652 754.590335 
L 671.23503 755.981378 
L 674.915787 756.354992 
L 678.596544 762.504239 
L 680.436922 764.904016 
L 682.2773 768.118547 
L 684.117679 769.757215 
L 687.798436 765.880006 
L 689.638814 764.278776 
L 691.479192 765.18482 
L 695.159949 769.027648 
L 697.000328 769.534332 
L 698.840706 770.520884 
L 700.681084 771.092035 
L 702.521463 773.038484 
L 704.361841 775.196329 
L 706.20222 776.419321 
L 708.042598 778.469679 
L 709.882976 782.785645 
L 711.723355 792.126718 
L 713.563733 795.821662 
L 715.404112 797.973864 
L 717.24449 784.077268 
L 719.084868 781.711147 
L 722.765625 777.418496 
L 724.606004 774.583395 
L 726.446382 791.74833 
L 730.127139 822.910227 
L 735.648274 767.246413 
L 737.488653 750.045284 
L 739.329031 747.815634 
L 744.850166 730.947503 
L 746.690545 727.662875 
L 748.530923 725.103633 
L 750.371301 722.329406 
L 754.052058 756.430459 
L 755.892437 774.322722 
L 759.573193 771.585985 
L 761.413572 769.563914 
L 763.25395 766.789768 
L 765.094329 764.712353 
L 766.934707 766.628605 
L 768.775085 769.039507 
L 770.615464 776.236487 
L 772.455842 767.266564 
L 774.296221 769.70883 
L 776.136599 771.911585 
L 777.976977 773.066687 
L 779.817356 773.387107 
L 781.657734 772.725872 
L 783.498113 771.012164 
L 785.338491 769.044982 
L 787.178869 769.359065 
L 787.178869 769.359065 
" clip-path="url(#p0eb94b0d29)" style="fill: none; stroke: #4878d0; stroke-width: 1.5; stroke-linecap: round"/>
   </g>
   <g id="patch_18">
    <path d="M 53.42 831.1 
L 53.42 650.925 
" style="fill: none; stroke: #cccccc; stroke-width: 1.25; stroke-linejoin: miter; stroke-linecap: square"/>
   </g>
   <g id="patch_19">
    <path d="M 851.04 831.1 
L 851.04 650.925 
" style="fill: none; stroke: #cccccc; stroke-width: 1.25; stroke-linejoin: miter; stroke-linecap: square"/>
   </g>
   <g id="patch_20">
    <path d="M 53.42 831.1 
L 851.04 831.1 
" style="fill: none; stroke: #cccccc; stroke-width: 1.25; stroke-linejoin: miter; stroke-linecap: square"/>
   </g>
   <g id="patch_21">
    <path d="M 53.42 650.925 
L 851.04 650.925 
" style="fill: none; stroke: #cccccc; stroke-width: 1.25; stroke-linejoin: miter; stroke-linecap: square"/>
   </g>
   <g id="text_39">
    <!-- Residual -->
    <g style="fill: #262626" transform="translate(428.884375 644.925) scale(0.12 -0.12)">
     <defs>
      <path id="ArialMT-52" d="M 503 0 
L 503 4581 
L 2534 4581 
Q 3147 4581 3465 4457 
Q 3784 4334 3975 4021 
Q 4166 3709 4166 3331 
Q 4166 2844 3850 2509 
Q 3534 2175 2875 2084 
Q 3116 1969 3241 1856 
Q 3506 1613 3744 1247 
L 4541 0 
L 3778 0 
L 3172 953 
Q 2906 1366 2734 1584 
Q 2563 1803 2427 1890 
Q 2291 1978 2150 2013 
Q 2047 2034 1813 2034 
L 1109 2034 
L 1109 0 
L 503 0 
z
M 1109 2559 
L 2413 2559 
Q 2828 2559 3062 2645 
Q 3297 2731 3419 2920 
Q 3541 3109 3541 3331 
Q 3541 3656 3305 3865 
Q 3069 4075 2559 4075 
L 1109 4075 
L 1109 2559 
z
" transform="scale(0.015625)"/>
      <path id="ArialMT-75" d="M 2597 0 
L 2597 488 
Q 2209 -75 1544 -75 
Q 1250 -75 995 37 
Q 741 150 617 320 
Q 494 491 444 738 
Q 409 903 409 1263 
L 409 3319 
L 972 3319 
L 972 1478 
Q 972 1038 1006 884 
Q 1059 663 1231 536 
Q 1403 409 1656 409 
Q 1909 409 2131 539 
Q 2353 669 2445 892 
Q 2538 1116 2538 1541 
L 2538 3319 
L 3100 3319 
L 3100 0 
L 2597 0 
z
" transform="scale(0.015625)"/>
     </defs>
     <use xlink:href="#ArialMT-52"/>
     <use xlink:href="#ArialMT-65" transform="translate(72.216797 0)"/>
     <use xlink:href="#ArialMT-73" transform="translate(127.832031 0)"/>
     <use xlink:href="#ArialMT-69" transform="translate(177.832031 0)"/>
     <use xlink:href="#ArialMT-64" transform="translate(200.048828 0)"/>
     <use xlink:href="#ArialMT-75" transform="translate(255.664062 0)"/>
     <use xlink:href="#ArialMT-61" transform="translate(311.279297 0)"/>
     <use xlink:href="#ArialMT-6c" transform="translate(366.894531 0)"/>
    </g>
   </g>
  </g>
 </g>
 <defs>
  <clipPath id="pf943d82705">
   <rect x="53.42" y="27.6" width="797.62" height="180.175"/>
  </clipPath>
  <clipPath id="p27d8485722">
   <rect x="53.42" y="235.375" width="797.62" height="180.175"/>
  </clipPath>
  <clipPath id="p1ebf596617">
   <rect x="53.42" y="443.15" width="797.62" height="180.175"/>
  </clipPath>
  <clipPath id="p0eb94b0d29">
   <rect x="53.42" y="650.925" width="797.62" height="180.175"/>
  </clipPath>
 </defs>
</svg>
