<?xml version="1.0" encoding="utf-8" standalone="no"?>
<!DOCTYPE svg PUBLIC "-//W3C//DTD SVG 1.1//EN"
  "http://www.w3.org/Graphics/SVG/1.1/DTD/svg11.dtd">
<svg xmlns:xlink="http://www.w3.org/1999/xlink" width="864pt" height="864pt" viewBox="0 0 864 864" xmlns="http://www.w3.org/2000/svg" version="1.1">
 <metadata>
  <rdf:RDF xmlns:dc="http://purl.org/dc/elements/1.1/" xmlns:cc="http://creativecommons.org/ns#" xmlns:rdf="http://www.w3.org/1999/02/22-rdf-syntax-ns#">
   <cc:Work>
    <dc:type rdf:resource="http://purl.org/dc/dcmitype/StillImage"/>
    <dc:date>2025-12-12T00:30:24.826415</dc:date>
    <dc:format>image/svg+xml</dc:format>
    <dc:creator>
     <cc:Agent>
      <dc:title>Matplotlib v3.10.7, https://matplotlib.org/</dc:title>
     </cc:Agent>
    </dc:creator>
   </cc:Work>
  </rdf:RDF>
 </metadata>
 <defs>
  <style type="text/css">*{stroke-linejoin: round; stroke-linecap: butt}</style>
 </defs>
 <g id="figure_1">
  <g id="patch_1">
   <path d="M 0 864 
L 864 864 
L 864 0 
L 0 0 
z
" style="fill: #ffffff"/>
  </g>
  <g id="axes_1">
   <g id="patch_2">
    <path d="M 53.375 207.775 
L 851.04 207.775 
L 851.04 27.6 
L 53.375 27.6 
z
" style="fill: #ffffff"/>
   </g>
   <g id="matplotlib.axis_1">
    <g id="xtick_1">
     <g id="line2d_1">
      <path d="M 89.6325 207.775 
L 89.6325 27.6 
" clip-path="url(#pff0d2530f5)" style="fill: none; stroke: #cccccc; stroke-linecap: round"/>
     </g>
    </g>
    <g id="xtick_2">
     <g id="line2d_2">
      <path d="M 201.901916 207.775 
L 201.901916 27.6 
" clip-path="url(#pff0d2530f5)" style="fill: none; stroke: #cccccc; stroke-linecap: round"/>
     </g>
    </g>
    <g id="xtick_3">
     <g id="line2d_3">
      <path d="M 314.171332 207.775 
L 314.171332 27.6 
" clip-path="url(#pff0d2530f5)" style="fill: none; stroke: #cccccc; stroke-linecap: round"/>
     </g>
    </g>
    <g id="xtick_4">
     <g id="line2d_4">
      <path d="M 422.759784 207.775 
L 422.759784 27.6 
" clip-path="url(#pff0d2530f5)" style="fill: none; stroke: #cccccc; stroke-linecap: round"/>
     </g>
    </g>
    <g id="xtick_5">
     <g id="line2d_5">
      <path d="M 535.029201 207.775 
L 535.029201 27.6 
" clip-path="url(#pff0d2530f5)" style="fill: none; stroke: #cccccc; stroke-linecap: round"/>
     </g>
    </g>
    <g id="xtick_6">
     <g id="line2d_6">
      <path d="M 647.298617 207.775 
L 647.298617 27.6 
" clip-path="url(#pff0d2530f5)" style="fill: none; stroke: #cccccc; stroke-linecap: round"/>
     </g>
    </g>
    <g id="xtick_7">
     <g id="line2d_7">
      <path d="M 761.408515 207.775 
L 761.408515 27.6 
" clip-path="url(#pff0d2530f5)" style="fill: none; stroke: #cccccc; stroke-linecap: round"/>
     </g>
    </g>
   </g>
   <g id="matplotlib.axis_2">
    <g id="ytick_1">
     <g id="line2d_8">
      <path d="M 53.375 189.444045 
L 851.04 189.444045 
" clip-path="url(#pff0d2530f5)" style="fill: none; stroke: #cccccc; stroke-linecap: round"/>
     </g>
     <g id="text_1">
      <!-- 8000 -->
      <g style="fill: #262626" transform="translate(19.406875 193.380842) scale(0.11 -0.11)">
       <defs>
        <path id="ArialMT-38" d="M 1131 2484 
Q 781 2613 612 2850 
Q 444 3088 444 3419 
Q 444 3919 803 4259 
Q 1163 4600 1759 4600 
Q 2359 4600 2725 4251 
Q 3091 3903 3091 3403 
Q 3091 3084 2923 2848 
Q 2756 2613 2416 2484 
Q 2838 2347 3058 2040 
Q 3278 1734 3278 1309 
Q 3278 722 2862 322 
Q 2447 -78 1769 -78 
Q 1091 -78 675 323 
Q 259 725 259 1325 
Q 259 1772 486 2073 
Q 713 2375 1131 2484 
z
M 1019 3438 
Q 1019 3113 1228 2906 
Q 1438 2700 1772 2700 
Q 2097 2700 2305 2904 
Q 2513 3109 2513 3406 
Q 2513 3716 2298 3927 
Q 2084 4138 1766 4138 
Q 1444 4138 1231 3931 
Q 1019 3725 1019 3438 
z
M 838 1322 
Q 838 1081 952 856 
Q 1066 631 1291 507 
Q 1516 384 1775 384 
Q 2178 384 2440 643 
Q 2703 903 2703 1303 
Q 2703 1709 2433 1975 
Q 2163 2241 1756 2241 
Q 1359 2241 1098 1978 
Q 838 1716 838 1322 
z
" transform="scale(0.015625)"/>
        <path id="ArialMT-30" d="M 266 2259 
Q 266 3072 433 3567 
Q 600 4063 929 4331 
Q 1259 4600 1759 4600 
Q 2128 4600 2406 4451 
Q 2684 4303 2865 4023 
Q 3047 3744 3150 3342 
Q 3253 2941 3253 2259 
Q 3253 1453 3087 958 
Q 2922 463 2592 192 
Q 2263 -78 1759 -78 
Q 1097 -78 719 397 
Q 266 969 266 2259 
z
M 844 2259 
Q 844 1131 1108 757 
Q 1372 384 1759 384 
Q 2147 384 2411 759 
Q 2675 1134 2675 2259 
Q 2675 3391 2411 3762 
Q 2147 4134 1753 4134 
Q 1366 4134 1134 3806 
Q 844 3388 844 2259 
z
" transform="scale(0.015625)"/>
       </defs>
       <use xlink:href="#ArialMT-38"/>
       <use xlink:href="#ArialMT-30" transform="translate(55.615234 0)"/>
       <use xlink:href="#ArialMT-30" transform="translate(111.230469 0)"/>
       <use xlink:href="#ArialMT-30" transform="translate(166.845703 0)"/>
      </g>
     </g>
    </g>
    <g id="ytick_2">
     <g id="line2d_9">
      <path d="M 53.375 158.713191 
L 851.04 158.713191 
" clip-path="url(#pff0d2530f5)" style="fill: none; stroke: #cccccc; stroke-linecap: round"/>
     </g>
     <g id="text_2">
      <!-- 10000 -->
      <g style="fill: #262626" transform="translate(13.289844 162.649988) scale(0.11 -0.11)">
       <defs>
        <path id="ArialMT-31" d="M 2384 0 
L 1822 0 
L 1822 3584 
Q 1619 3391 1289 3197 
Q 959 3003 697 2906 
L 697 3450 
Q 1169 3672 1522 3987 
Q 1875 4303 2022 4600 
L 2384 4600 
L 2384 0 
z
" transform="scale(0.015625)"/>
       </defs>
       <use xlink:href="#ArialMT-31"/>
       <use xlink:href="#ArialMT-30" transform="translate(55.615234 0)"/>
       <use xlink:href="#ArialMT-30" transform="translate(111.230469 0)"/>
       <use xlink:href="#ArialMT-30" transform="translate(166.845703 0)"/>
       <use xlink:href="#ArialMT-30" transform="translate(222.460938 0)"/>
      </g>
     </g>
    </g>
    <g id="ytick_3">
     <g id="line2d_10">
      <path d="M 53.375 127.982336 
L 851.04 127.982336 
" clip-path="url(#pff0d2530f5)" style="fill: none; stroke: #cccccc; stroke-linecap: round"/>
     </g>
     <g id="text_3">
      <!-- 12000 -->
      <g style="fill: #262626" transform="translate(13.289844 131.919133) scale(0.11 -0.11)">
       <defs>
        <path id="ArialMT-32" d="M 3222 541 
L 3222 0 
L 194 0 
Q 188 203 259 391 
Q 375 700 629 1000 
Q 884 1300 1366 1694 
Q 2113 2306 2375 2664 
Q 2638 3022 2638 3341 
Q 2638 3675 2398 3904 
Q 2159 4134 1775 4134 
Q 1369 4134 1125 3890 
Q 881 3647 878 3216 
L 300 3275 
Q 359 3922 746 4261 
Q 1134 4600 1788 4600 
Q 2447 4600 2831 4234 
Q 3216 3869 3216 3328 
Q 3216 3053 3103 2787 
Q 2991 2522 2730 2228 
Q 2469 1934 1863 1422 
Q 1356 997 1212 845 
Q 1069 694 975 541 
L 3222 541 
z
" transform="scale(0.015625)"/>
       </defs>
       <use xlink:href="#ArialMT-31"/>
       <use xlink:href="#ArialMT-32" transform="translate(55.615234 0)"/>
       <use xlink:href="#ArialMT-30" transform="translate(111.230469 0)"/>
       <use xlink:href="#ArialMT-30" transform="translate(166.845703 0)"/>
       <use xlink:href="#ArialMT-30" transform="translate(222.460938 0)"/>
      </g>
     </g>
    </g>
    <g id="ytick_4">
     <g id="line2d_11">
      <path d="M 53.375 97.251482 
L 851.04 97.251482 
" clip-path="url(#pff0d2530f5)" style="fill: none; stroke: #cccccc; stroke-linecap: round"/>
     </g>
     <g id="text_4">
      <!-- 14000 -->
      <g style="fill: #262626" transform="translate(13.289844 101.188279) scale(0.11 -0.11)">
       <defs>
        <path id="ArialMT-34" d="M 2069 0 
L 2069 1097 
L 81 1097 
L 81 1613 
L 2172 4581 
L 2631 4581 
L 2631 1613 
L 3250 1613 
L 3250 1097 
L 2631 1097 
L 2631 0 
L 2069 0 
z
M 2069 1613 
L 2069 3678 
L 634 1613 
L 2069 1613 
z
" transform="scale(0.015625)"/>
       </defs>
       <use xlink:href="#ArialMT-31"/>
       <use xlink:href="#ArialMT-34" transform="translate(55.615234 0)"/>
       <use xlink:href="#ArialMT-30" transform="translate(111.230469 0)"/>
       <use xlink:href="#ArialMT-30" transform="translate(166.845703 0)"/>
       <use xlink:href="#ArialMT-30" transform="translate(222.460938 0)"/>
      </g>
     </g>
    </g>
    <g id="ytick_5">
     <g id="line2d_12">
      <path d="M 53.375 66.520627 
L 851.04 66.520627 
" clip-path="url(#pff0d2530f5)" style="fill: none; stroke: #cccccc; stroke-linecap: round"/>
     </g>
     <g id="text_5">
      <!-- 16000 -->
      <g style="fill: #262626" transform="translate(13.289844 70.457424) scale(0.11 -0.11)">
       <defs>
        <path id="ArialMT-36" d="M 3184 3459 
L 2625 3416 
Q 2550 3747 2413 3897 
Q 2184 4138 1850 4138 
Q 1581 4138 1378 3988 
Q 1113 3794 959 3422 
Q 806 3050 800 2363 
Q 1003 2672 1297 2822 
Q 1591 2972 1913 2972 
Q 2475 2972 2870 2558 
Q 3266 2144 3266 1488 
Q 3266 1056 3080 686 
Q 2894 316 2569 119 
Q 2244 -78 1831 -78 
Q 1128 -78 684 439 
Q 241 956 241 2144 
Q 241 3472 731 4075 
Q 1159 4600 1884 4600 
Q 2425 4600 2770 4297 
Q 3116 3994 3184 3459 
z
M 888 1484 
Q 888 1194 1011 928 
Q 1134 663 1356 523 
Q 1578 384 1822 384 
Q 2178 384 2434 671 
Q 2691 959 2691 1453 
Q 2691 1928 2437 2201 
Q 2184 2475 1800 2475 
Q 1419 2475 1153 2201 
Q 888 1928 888 1484 
z
" transform="scale(0.015625)"/>
       </defs>
       <use xlink:href="#ArialMT-31"/>
       <use xlink:href="#ArialMT-36" transform="translate(55.615234 0)"/>
       <use xlink:href="#ArialMT-30" transform="translate(111.230469 0)"/>
       <use xlink:href="#ArialMT-30" transform="translate(166.845703 0)"/>
       <use xlink:href="#ArialMT-30" transform="translate(222.460938 0)"/>
      </g>
     </g>
    </g>
    <g id="ytick_6">
     <g id="line2d_13">
      <path d="M 53.375 35.789773 
L 851.04 35.789773 
" clip-path="url(#pff0d2530f5)" style="fill: none; stroke: #cccccc; stroke-linecap: round"/>
     </g>
     <g id="text_6">
      <!-- 18000 -->
      <g style="fill: #262626" transform="translate(13.289844 39.72657) scale(0.11 -0.11)">
       <use xlink:href="#ArialMT-31"/>
       <use xlink:href="#ArialMT-38" transform="translate(55.615234 0)"/>
       <use xlink:href="#ArialMT-30" transform="translate(111.230469 0)"/>
       <use xlink:href="#ArialMT-30" transform="translate(166.845703 0)"/>
       <use xlink:href="#ArialMT-30" transform="translate(222.460938 0)"/>
      </g>
     </g>
    </g>
   </g>
   <g id="line2d_14">
    <path d="M 89.6325 143.347764 
L 91.472982 123.372708 
L 93.313464 124.294634 
L 95.153947 97.251482 
L 96.994429 136.894284 
L 98.834911 144.884306 
L 100.675393 149.186626 
L 102.515876 167.31783 
L 104.356358 121.836165 
L 106.19684 157.791265 
L 108.037322 97.251482 
L 109.877805 121.836165 
L 111.718287 144.884306 
L 113.558769 102.783036 
L 115.399251 134.128507 
L 117.239734 127.060411 
L 119.080216 136.586976 
L 120.920698 81.886054 
L 122.76118 141.811221 
L 124.601662 141.811221 
L 126.442145 163.937436 
L 128.282627 134.128507 
L 130.123109 167.625139 
L 131.963591 134.128507 
L 133.804074 74.203341 
L 135.644556 152.259711 
L 137.485038 160.864351 
L 139.32552 126.445794 
L 141.166003 145.806232 
L 143.006485 134.128507 
L 144.846967 124.909251 
L 146.687449 81.886054 
L 148.527931 132.591964 
L 150.368414 121.836165 
L 152.208896 141.811221 
L 154.049378 138.738135 
L 155.88986 158.098574 
L 157.730343 163.937436 
L 159.570825 97.251482 
L 161.411307 141.196604 
L 163.251789 102.783036 
L 165.092272 139.96737 
L 166.932754 142.425838 
L 168.773236 155.947414 
L 170.613718 153.181637 
L 172.454201 97.251482 
L 174.294683 137.201593 
L 176.135165 116.61192 
L 177.975647 153.796254 
L 179.816129 135.66505 
L 181.656612 169.46899 
L 183.497094 151.645094 
L 185.337576 81.886054 
L 187.178058 144.884306 
L 189.018541 143.962381 
L 190.859023 146.420849 
L 192.699505 123.372708 
L 194.539987 152.56702 
L 196.38047 102.783036 
L 198.220952 74.203341 
L 200.061434 149.801243 
L 201.901916 120.299623 
L 203.742398 115.689994 
L 205.582881 147.957392 
L 207.423363 131.055422 
L 209.263845 126.445794 
L 211.104327 81.886054 
L 212.94481 151.645094 
L 214.785292 156.86934 
L 216.625774 143.347764 
L 218.466256 144.576998 
L 220.306739 121.836165 
L 222.147221 135.66505 
L 223.987703 66.520627 
L 225.828185 131.055422 
L 227.668668 112.616909 
L 229.50915 145.806232 
L 231.349632 127.367719 
L 233.190114 171.312841 
L 235.030596 151.952403 
L 236.871079 51.1552 
L 238.711561 131.977347 
L 240.552043 163.630127 
L 242.392525 112.616909 
L 244.233008 145.806232 
L 246.07349 161.171659 
L 247.913972 131.977347 
L 249.754454 43.472486 
L 251.594937 142.733146 
L 253.435419 118.76308 
L 255.275901 146.420849 
L 257.116383 121.836165 
L 258.956865 144.576998 
L 260.797348 131.977347 
L 262.63783 35.789773 
L 264.478312 159.327808 
L 266.318794 131.670039 
L 268.159277 147.650083 
L 269.999759 117.226537 
L 271.840241 114.153452 
L 273.680723 144.884306 
L 275.521206 51.1552 
L 277.361688 116.61192 
L 279.20217 131.055422 
L 281.042652 110.465749 
L 282.883135 110.465749 
L 284.723617 98.173407 
L 286.564099 147.957392 
L 288.404581 178.688246 
L 290.245063 141.811221 
L 292.085546 147.957392 
L 293.926028 147.957392 
L 295.76651 138.738135 
L 297.606992 147.957392 
L 299.447475 153.488946 
L 301.287957 142.733146 
L 303.128439 140.274678 
L 304.968921 135.050433 
L 306.809404 151.952403 
L 308.649886 141.811221 
L 310.490368 146.420849 
L 314.171332 161.786276 
L 316.011815 154.103563 
L 317.852297 147.035466 
L 319.692779 161.786276 
L 321.533261 123.372708 
L 323.373744 140.274678 
L 325.214226 135.66505 
L 327.054708 112.616909 
L 328.89519 126.445794 
L 330.735673 163.322819 
L 332.576155 126.445794 
L 334.416637 143.347764 
L 336.257119 129.518879 
L 338.097602 132.591964 
L 339.938084 81.886054 
L 341.778566 152.56702 
L 343.619048 152.56702 
L 345.45953 123.372708 
L 347.300013 126.445794 
L 349.140495 135.66505 
L 350.980977 123.372708 
L 352.821459 81.886054 
L 354.661942 111.080366 
L 356.502424 129.518879 
L 358.342906 134.128507 
L 360.183388 111.080366 
L 362.023871 123.372708 
L 365.704835 123.372708 
L 367.545317 114.153452 
L 369.385799 123.372708 
L 371.226282 127.982336 
L 373.066764 129.518879 
L 374.907246 129.518879 
L 376.747728 152.56702 
L 378.588211 112.616909 
L 380.428693 152.56702 
L 382.269175 123.372708 
L 384.109657 138.738135 
L 385.95014 115.689994 
L 387.790622 135.66505 
L 389.631104 162.400893 
L 391.471586 155.025488 
L 393.312069 157.176648 
L 395.152551 147.957392 
L 396.993033 168.547064 
L 398.833515 149.801243 
L 402.51448 199.585227 
L 404.354962 112.616909 
L 406.195444 193.439056 
L 408.035926 192.824439 
L 409.876409 145.498923 
L 411.716891 155.332797 
L 413.557373 158.098574 
L 415.397855 171.927458 
L 417.238338 104.934195 
L 419.07882 151.952403 
L 420.919302 104.934195 
L 422.759784 192.824439 
L 424.600266 164.859362 
L 426.440749 187.292885 
L 428.281231 172.849384 
L 430.121713 104.934195 
L 431.962195 177.459012 
L 433.802678 155.947414 
L 435.64316 148.879317 
L 437.483642 136.279667 
L 439.324124 131.977347 
L 441.164607 139.660061 
L 443.005089 97.251482 
L 444.845571 151.337786 
L 446.686053 141.196604 
L 448.526536 180.532097 
L 450.367018 172.849384 
L 452.2075 137.81621 
L 454.047982 140.274678 
L 455.888464 112.616909 
L 457.728947 167.932447 
L 459.569429 188.829428 
L 461.409911 151.337786 
L 463.250393 151.952403 
L 465.090876 189.751354 
L 466.931358 151.030477 
L 468.77184 97.251482 
L 470.612322 191.287897 
L 472.452805 168.854373 
L 474.293287 131.977347 
L 476.133769 137.201593 
L 477.974251 133.821199 
L 479.814734 151.645094 
L 481.655216 89.568768 
L 483.495698 130.440805 
L 485.33618 149.801243 
L 487.176662 140.581987 
L 489.017145 150.41586 
L 490.857627 138.123518 
L 492.698109 115.689994 
L 494.538591 120.299623 
L 496.379074 126.445794 
L 498.219556 151.645094 
L 500.060038 144.269689 
L 501.90052 127.367719 
L 503.741003 145.498923 
L 505.581485 131.055422 
L 507.421967 112.616909 
L 509.262449 131.055422 
L 511.102931 151.645094 
L 512.943414 141.811221 
L 514.783896 162.708202 
L 516.624378 165.781287 
L 518.46486 166.395904 
L 520.305343 143.347764 
L 522.145825 138.738135 
L 523.986307 143.347764 
L 525.826789 149.493934 
L 527.667272 135.050433 
L 529.507754 143.347764 
L 531.348236 128.904262 
L 533.188718 146.420849 
L 535.029201 140.889295 
L 536.869683 140.889295 
L 538.710165 138.738135 
L 540.550647 147.342775 
L 542.391129 167.010521 
L 546.072094 104.934195 
L 547.912576 141.811221 
L 549.753058 141.811221 
L 551.593541 131.055422 
L 553.434023 147.342775 
L 555.274505 142.733146 
L 557.114987 158.098574 
L 558.95547 141.811221 
L 560.795952 152.56702 
L 562.636434 134.743124 
L 564.476916 142.733146 
L 566.317398 143.347764 
L 568.157881 150.41586 
L 569.998363 135.66505 
L 571.838845 158.098574 
L 573.679327 143.347764 
L 575.51981 132.591964 
L 577.360292 134.128507 
L 579.200774 141.811221 
L 581.041256 163.937436 
L 582.881739 158.098574 
L 584.722221 158.098574 
L 586.562703 163.937436 
L 590.243668 139.660061 
L 592.08415 165.473979 
L 593.924632 158.713191 
L 595.765114 132.591964 
L 597.605596 127.982336 
L 599.446079 158.098574 
L 601.286561 161.786276 
L 603.127043 146.420849 
L 604.967525 143.347764 
L 606.808008 134.128507 
L 608.64849 126.445794 
L 610.488972 143.347764 
L 612.329454 146.420849 
L 614.169937 131.055422 
L 616.010419 131.977347 
L 617.850901 123.987325 
L 619.691383 149.493934 
L 621.531865 148.879317 
L 623.372348 135.66505 
L 625.21283 142.733146 
L 627.053312 137.201593 
L 628.893794 114.153452 
L 630.734277 127.982336 
L 632.574759 135.66505 
L 634.415241 158.713191 
L 636.255723 143.347764 
L 638.096206 140.274678 
L 639.936688 145.806232 
L 641.77717 125.831176 
L 643.617652 144.884306 
L 645.458135 145.806232 
L 647.298617 140.274678 
L 649.139099 143.347764 
L 650.979581 158.713191 
L 652.820063 143.347764 
L 656.501028 131.055422 
L 658.34151 132.591964 
L 660.181992 168.854373 
L 662.022475 127.982336 
L 663.862957 135.66505 
L 665.703439 158.098574 
L 667.543921 142.733146 
L 669.384404 161.786276 
L 671.224886 134.128507 
L 673.065368 144.884306 
L 674.90585 114.153452 
L 676.746332 135.66505 
L 678.586815 141.811221 
L 680.427297 134.128507 
L 682.267779 141.811221 
L 684.108261 134.128507 
L 685.948744 135.66505 
L 687.789226 141.811221 
L 689.629708 135.66505 
L 691.47019 135.66505 
L 693.310673 161.786276 
L 695.151155 138.738135 
L 696.991637 124.909251 
L 698.832119 142.733146 
L 700.672602 142.733146 
L 702.513084 158.098574 
L 704.353566 146.420849 
L 706.194048 151.030477 
L 708.03453 131.055422 
L 709.875013 132.591964 
L 711.715495 144.884306 
L 713.555977 179.302863 
L 715.396459 158.713191 
L 717.236942 133.51389 
L 719.077424 153.181637 
L 720.917906 149.493934 
L 722.758388 126.445794 
L 724.598871 138.738135 
L 726.439353 145.806232 
L 728.279835 155.025488 
L 730.120317 135.66505 
L 731.960799 146.420849 
L 733.801282 134.128507 
L 735.641764 155.025488 
L 737.482246 147.957392 
L 739.322728 141.811221 
L 741.163211 146.420849 
L 743.003693 144.884306 
L 744.844175 149.493934 
L 746.684657 127.367719 
L 748.52514 129.518879 
L 750.365622 122.758091 
L 752.206104 147.342775 
L 754.046586 143.347764 
L 755.887069 135.66505 
L 757.727551 125.831176 
L 759.568033 114.153452 
L 761.408515 129.518879 
L 763.248997 134.128507 
L 765.08948 144.884306 
L 766.929962 146.420849 
L 768.770444 148.879317 
L 770.610926 158.713191 
L 772.451409 117.226537 
L 774.291891 112.616909 
L 776.132373 131.055422 
L 777.972855 152.56702 
L 779.813338 141.811221 
L 781.65382 124.909251 
L 783.494302 151.645094 
L 785.334784 132.591964 
L 787.175266 140.274678 
L 789.015749 132.591964 
L 790.856231 132.591964 
L 792.696713 135.66505 
L 794.537195 127.982336 
L 796.377678 140.274678 
L 798.21816 167.010521 
L 800.058642 161.171659 
L 801.899124 147.957392 
L 803.739607 126.445794 
L 805.580089 126.445794 
L 807.420571 118.76308 
L 809.261053 141.811221 
L 811.101536 143.347764 
L 812.942018 143.347764 
L 814.7825 150.723169 
L 814.7825 150.723169 
" clip-path="url(#pff0d2530f5)" style="fill: none; stroke: #4878d0; stroke-width: 1.5; stroke-linecap: round"/>
   </g>
   <g id="patch_3">
    <path d="M 53.375 207.775 
L 53.375 27.6 
" style="fill: none; stroke: #cccccc; stroke-width: 1.25; stroke-linejoin: miter; stroke-linecap: square"/>
   </g>
   <g id="patch_4">
    <path d="M 851.04 207.775 
L 851.04 27.6 
" style="fill: none; stroke: #cccccc; stroke-width: 1.25; stroke-linejoin: miter; stroke-linecap: square"/>
   </g>
   <g id="patch_5">
    <path d="M 53.375 207.775 
L 851.04 207.775 
" style="fill: none; stroke: #cccccc; stroke-width: 1.25; stroke-linejoin: miter; stroke-linecap: square"/>
   </g>
   <g id="patch_6">
    <path d="M 53.375 27.6 
L 851.04 27.6 
" style="fill: none; stroke: #cccccc; stroke-width: 1.25; stroke-linejoin: miter; stroke-linecap: square"/>
   </g>
   <g id="text_7">
    <!-- Original -->
    <g style="fill: #262626" transform="translate(431.53375 21.6) scale(0.12 -0.12)">
     <defs>
      <path id="ArialMT-4f" d="M 309 2231 
Q 309 3372 921 4017 
Q 1534 4663 2503 4663 
Q 3138 4663 3647 4359 
Q 4156 4056 4423 3514 
Q 4691 2972 4691 2284 
Q 4691 1588 4409 1038 
Q 4128 488 3612 205 
Q 3097 -78 2500 -78 
Q 1853 -78 1343 234 
Q 834 547 571 1087 
Q 309 1628 309 2231 
z
M 934 2222 
Q 934 1394 1379 917 
Q 1825 441 2497 441 
Q 3181 441 3623 922 
Q 4066 1403 4066 2288 
Q 4066 2847 3877 3264 
Q 3688 3681 3323 3911 
Q 2959 4141 2506 4141 
Q 1863 4141 1398 3698 
Q 934 3256 934 2222 
z
" transform="scale(0.015625)"/>
      <path id="ArialMT-72" d="M 416 0 
L 416 3319 
L 922 3319 
L 922 2816 
Q 1116 3169 1280 3281 
Q 1444 3394 1641 3394 
Q 1925 3394 2219 3213 
L 2025 2691 
Q 1819 2813 1613 2813 
Q 1428 2813 1281 2702 
Q 1134 2591 1072 2394 
Q 978 2094 978 1738 
L 978 0 
L 416 0 
z
" transform="scale(0.015625)"/>
      <path id="ArialMT-69" d="M 425 3934 
L 425 4581 
L 988 4581 
L 988 3934 
L 425 3934 
z
M 425 0 
L 425 3319 
L 988 3319 
L 988 0 
L 425 0 
z
" transform="scale(0.015625)"/>
      <path id="ArialMT-67" d="M 319 -275 
L 866 -356 
Q 900 -609 1056 -725 
Q 1266 -881 1628 -881 
Q 2019 -881 2231 -725 
Q 2444 -569 2519 -288 
Q 2563 -116 2559 434 
Q 2191 0 1641 0 
Q 956 0 581 494 
Q 206 988 206 1678 
Q 206 2153 378 2554 
Q 550 2956 876 3175 
Q 1203 3394 1644 3394 
Q 2231 3394 2613 2919 
L 2613 3319 
L 3131 3319 
L 3131 450 
Q 3131 -325 2973 -648 
Q 2816 -972 2473 -1159 
Q 2131 -1347 1631 -1347 
Q 1038 -1347 672 -1080 
Q 306 -813 319 -275 
z
M 784 1719 
Q 784 1066 1043 766 
Q 1303 466 1694 466 
Q 2081 466 2343 764 
Q 2606 1063 2606 1700 
Q 2606 2309 2336 2618 
Q 2066 2928 1684 2928 
Q 1309 2928 1046 2623 
Q 784 2319 784 1719 
z
" transform="scale(0.015625)"/>
      <path id="ArialMT-6e" d="M 422 0 
L 422 3319 
L 928 3319 
L 928 2847 
Q 1294 3394 1984 3394 
Q 2284 3394 2536 3286 
Q 2788 3178 2913 3003 
Q 3038 2828 3088 2588 
Q 3119 2431 3119 2041 
L 3119 0 
L 2556 0 
L 2556 2019 
Q 2556 2363 2490 2533 
Q 2425 2703 2258 2804 
Q 2091 2906 1866 2906 
Q 1506 2906 1245 2678 
Q 984 2450 984 1813 
L 984 0 
L 422 0 
z
" transform="scale(0.015625)"/>
      <path id="ArialMT-61" d="M 2588 409 
Q 2275 144 1986 34 
Q 1697 -75 1366 -75 
Q 819 -75 525 192 
Q 231 459 231 875 
Q 231 1119 342 1320 
Q 453 1522 633 1644 
Q 813 1766 1038 1828 
Q 1203 1872 1538 1913 
Q 2219 1994 2541 2106 
Q 2544 2222 2544 2253 
Q 2544 2597 2384 2738 
Q 2169 2928 1744 2928 
Q 1347 2928 1158 2789 
Q 969 2650 878 2297 
L 328 2372 
Q 403 2725 575 2942 
Q 747 3159 1072 3276 
Q 1397 3394 1825 3394 
Q 2250 3394 2515 3294 
Q 2781 3194 2906 3042 
Q 3031 2891 3081 2659 
Q 3109 2516 3109 2141 
L 3109 1391 
Q 3109 606 3145 398 
Q 3181 191 3288 0 
L 2700 0 
Q 2613 175 2588 409 
z
M 2541 1666 
Q 2234 1541 1622 1453 
Q 1275 1403 1131 1340 
Q 988 1278 909 1158 
Q 831 1038 831 891 
Q 831 666 1001 516 
Q 1172 366 1500 366 
Q 1825 366 2078 508 
Q 2331 650 2450 897 
Q 2541 1088 2541 1459 
L 2541 1666 
z
" transform="scale(0.015625)"/>
      <path id="ArialMT-6c" d="M 409 0 
L 409 4581 
L 972 4581 
L 972 0 
L 409 0 
z
" transform="scale(0.015625)"/>
     </defs>
     <use xlink:href="#ArialMT-4f"/>
     <use xlink:href="#ArialMT-72" transform="translate(77.783203 0)"/>
     <use xlink:href="#ArialMT-69" transform="translate(111.083984 0)"/>
     <use xlink:href="#ArialMT-67" transform="translate(133.300781 0)"/>
     <use xlink:href="#ArialMT-69" transform="translate(188.916016 0)"/>
     <use xlink:href="#ArialMT-6e" transform="translate(211.132812 0)"/>
     <use xlink:href="#ArialMT-61" transform="translate(266.748047 0)"/>
     <use xlink:href="#ArialMT-6c" transform="translate(322.363281 0)"/>
    </g>
   </g>
  </g>
  <g id="axes_2">
   <g id="patch_7">
    <path d="M 53.375 415.55 
L 851.04 415.55 
L 851.04 235.375 
L 53.375 235.375 
z
" style="fill: #ffffff"/>
   </g>
   <g id="matplotlib.axis_3">
    <g id="xtick_8">
     <g id="line2d_15">
      <path d="M 89.6325 415.55 
L 89.6325 235.375 
" clip-path="url(#pbba90fa3f0)" style="fill: none; stroke: #cccccc; stroke-linecap: round"/>
     </g>
    </g>
    <g id="xtick_9">
     <g id="line2d_16">
      <path d="M 201.901916 415.55 
L 201.901916 235.375 
" clip-path="url(#pbba90fa3f0)" style="fill: none; stroke: #cccccc; stroke-linecap: round"/>
     </g>
    </g>
    <g id="xtick_10">
     <g id="line2d_17">
      <path d="M 314.171332 415.55 
L 314.171332 235.375 
" clip-path="url(#pbba90fa3f0)" style="fill: none; stroke: #cccccc; stroke-linecap: round"/>
     </g>
    </g>
    <g id="xtick_11">
     <g id="line2d_18">
      <path d="M 422.759784 415.55 
L 422.759784 235.375 
" clip-path="url(#pbba90fa3f0)" style="fill: none; stroke: #cccccc; stroke-linecap: round"/>
     </g>
    </g>
    <g id="xtick_12">
     <g id="line2d_19">
      <path d="M 535.029201 415.55 
L 535.029201 235.375 
" clip-path="url(#pbba90fa3f0)" style="fill: none; stroke: #cccccc; stroke-linecap: round"/>
     </g>
    </g>
    <g id="xtick_13">
     <g id="line2d_20">
      <path d="M 647.298617 415.55 
L 647.298617 235.375 
" clip-path="url(#pbba90fa3f0)" style="fill: none; stroke: #cccccc; stroke-linecap: round"/>
     </g>
    </g>
    <g id="xtick_14">
     <g id="line2d_21">
      <path d="M 761.408515 415.55 
L 761.408515 235.375 
" clip-path="url(#pbba90fa3f0)" style="fill: none; stroke: #cccccc; stroke-linecap: round"/>
     </g>
    </g>
   </g>
   <g id="matplotlib.axis_4">
    <g id="ytick_7">
     <g id="line2d_22">
      <path d="M 53.375 388.375497 
L 851.04 388.375497 
" clip-path="url(#pbba90fa3f0)" style="fill: none; stroke: #cccccc; stroke-linecap: round"/>
     </g>
     <g id="text_8">
      <!-- 10500 -->
      <g style="fill: #262626" transform="translate(13.289844 392.312294) scale(0.11 -0.11)">
       <defs>
        <path id="ArialMT-35" d="M 266 1200 
L 856 1250 
Q 922 819 1161 601 
Q 1400 384 1738 384 
Q 2144 384 2425 690 
Q 2706 997 2706 1503 
Q 2706 1984 2436 2262 
Q 2166 2541 1728 2541 
Q 1456 2541 1237 2417 
Q 1019 2294 894 2097 
L 366 2166 
L 809 4519 
L 3088 4519 
L 3088 3981 
L 1259 3981 
L 1013 2750 
Q 1425 3038 1878 3038 
Q 2478 3038 2890 2622 
Q 3303 2206 3303 1553 
Q 3303 931 2941 478 
Q 2500 -78 1738 -78 
Q 1113 -78 717 272 
Q 322 622 266 1200 
z
" transform="scale(0.015625)"/>
       </defs>
       <use xlink:href="#ArialMT-31"/>
       <use xlink:href="#ArialMT-30" transform="translate(55.615234 0)"/>
       <use xlink:href="#ArialMT-35" transform="translate(111.230469 0)"/>
       <use xlink:href="#ArialMT-30" transform="translate(166.845703 0)"/>
       <use xlink:href="#ArialMT-30" transform="translate(222.460938 0)"/>
      </g>
     </g>
    </g>
    <g id="ytick_8">
     <g id="line2d_23">
      <path d="M 53.375 349.258608 
L 851.04 349.258608 
" clip-path="url(#pbba90fa3f0)" style="fill: none; stroke: #cccccc; stroke-linecap: round"/>
     </g>
     <g id="text_9">
      <!-- 11000 -->
      <g style="fill: #262626" transform="translate(14.101094 353.195405) scale(0.11 -0.11)">
       <use xlink:href="#ArialMT-31"/>
       <use xlink:href="#ArialMT-31" transform="translate(48.240234 0)"/>
       <use xlink:href="#ArialMT-30" transform="translate(103.855469 0)"/>
       <use xlink:href="#ArialMT-30" transform="translate(159.470703 0)"/>
       <use xlink:href="#ArialMT-30" transform="translate(215.085938 0)"/>
      </g>
     </g>
    </g>
    <g id="ytick_9">
     <g id="line2d_24">
      <path d="M 53.375 310.141718 
L 851.04 310.141718 
" clip-path="url(#pbba90fa3f0)" style="fill: none; stroke: #cccccc; stroke-linecap: round"/>
     </g>
     <g id="text_10">
      <!-- 11500 -->
      <g style="fill: #262626" transform="translate(14.101094 314.078515) scale(0.11 -0.11)">
       <use xlink:href="#ArialMT-31"/>
       <use xlink:href="#ArialMT-31" transform="translate(48.240234 0)"/>
       <use xlink:href="#ArialMT-35" transform="translate(103.855469 0)"/>
       <use xlink:href="#ArialMT-30" transform="translate(159.470703 0)"/>
       <use xlink:href="#ArialMT-30" transform="translate(215.085938 0)"/>
      </g>
     </g>
    </g>
    <g id="ytick_10">
     <g id="line2d_25">
      <path d="M 53.375 271.024829 
L 851.04 271.024829 
" clip-path="url(#pbba90fa3f0)" style="fill: none; stroke: #cccccc; stroke-linecap: round"/>
     </g>
     <g id="text_11">
      <!-- 12000 -->
      <g style="fill: #262626" transform="translate(13.289844 274.961626) scale(0.11 -0.11)">
       <use xlink:href="#ArialMT-31"/>
       <use xlink:href="#ArialMT-32" transform="translate(55.615234 0)"/>
       <use xlink:href="#ArialMT-30" transform="translate(111.230469 0)"/>
       <use xlink:href="#ArialMT-30" transform="translate(166.845703 0)"/>
       <use xlink:href="#ArialMT-30" transform="translate(222.460938 0)"/>
      </g>
     </g>
    </g>
   </g>
   <g id="line2d_26">
    <path d="M 117.239734 294.964365 
L 119.080216 289.87917 
L 120.920698 287.062754 
L 122.76118 289.853092 
L 124.601662 292.356573 
L 126.442145 292.252261 
L 128.282627 292.486962 
L 130.123109 292.956365 
L 131.963591 290.583274 
L 133.804074 287.088832 
L 135.644556 286.150026 
L 137.485038 288.158027 
L 139.32552 289.488001 
L 141.166003 293.790859 
L 143.006485 299.919171 
L 144.846967 299.006444 
L 146.687449 296.529041 
L 148.527931 299.528002 
L 150.368414 303.491847 
L 152.208896 303.987328 
L 154.049378 303.935172 
L 155.88986 305.891016 
L 157.730343 300.101717 
L 159.570825 293.738703 
L 161.411307 300.571119 
L 163.251789 305.995328 
L 165.092272 302.31834 
L 166.932754 301.353457 
L 168.773236 299.919171 
L 170.613718 291.183066 
L 172.454201 288.210182 
L 174.294683 293.582235 
L 176.135165 295.40769 
L 177.975647 296.190028 
L 179.816129 297.493924 
L 181.656612 295.53808 
L 185.337576 280.517194 
L 187.178058 284.533195 
L 189.018541 289.774858 
L 190.859023 293.504001 
L 192.699505 295.512002 
L 194.539987 293.39969 
L 196.38047 285.237299 
L 198.220952 275.771012 
L 200.061434 275.197297 
L 201.901916 277.231375 
L 203.742398 278.874285 
L 205.582881 281.273454 
L 207.423363 284.142026 
L 209.263845 275.484154 
L 211.104327 263.775166 
L 212.94481 269.042907 
L 214.785292 273.241453 
L 216.625774 270.659738 
L 218.466256 272.067946 
L 220.306739 274.049868 
L 222.147221 265.522387 
L 223.987703 259.654853 
L 225.828185 266.826283 
L 227.668668 270.320725 
L 229.50915 270.164257 
L 231.349632 272.745972 
L 233.190114 273.841245 
L 235.030596 264.401036 
L 236.871079 259.107217 
L 238.711561 266.122179 
L 240.552043 270.00779 
L 242.392525 266.304724 
L 244.233008 260.463269 
L 246.07349 258.011944 
L 247.913972 252.040099 
L 249.754454 244.425344 
L 253.435419 252.014021 
L 255.275901 250.084254 
L 257.116383 245.85963 
L 258.956865 243.564773 
L 260.797348 245.937864 
L 262.63783 245.703163 
L 264.478312 253.057138 
L 266.318794 262.627737 
L 268.159277 261.871477 
L 269.999759 262.758126 
L 271.840241 266.409036 
L 275.521206 264.635737 
L 279.20217 281.664623 
L 281.042652 284.402805 
L 282.883135 286.35865 
L 284.723617 289.096832 
L 286.564099 293.295378 
L 288.404581 296.633353 
L 290.245063 307.951173 
L 292.085546 317.600005 
L 293.926028 317.104525 
L 295.76651 315.77455 
L 297.606992 316.713356 
L 299.447475 318.147642 
L 301.287957 316.452576 
L 303.128439 324.406344 
L 304.968921 334.759281 
L 306.809404 336.636891 
L 308.649886 339.29684 
L 310.490368 342.791282 
L 312.33085 343.286763 
L 314.171332 342.295801 
L 316.011815 340.470347 
L 317.852297 336.689047 
L 319.692779 333.298917 
L 321.533261 330.430345 
L 323.373744 328.083332 
L 325.214226 321.172681 
L 327.054708 311.967173 
L 328.89519 307.247069 
L 330.735673 305.604159 
L 332.576155 303.048522 
L 334.416637 298.589197 
L 336.257119 294.599274 
L 338.097602 291.078754 
L 339.938084 285.732779 
L 341.778566 279.082908 
L 343.619048 273.606544 
L 345.45953 269.903478 
L 347.300013 265.678854 
L 349.140495 265.418075 
L 350.980977 265.548465 
L 352.821459 264.635737 
L 354.661942 266.98275 
L 356.502424 268.938595 
L 358.342906 265.939633 
L 360.183388 262.679893 
L 362.023871 265.079062 
L 363.864353 268.860361 
L 365.704835 273.111063 
L 367.545317 280.804051 
L 369.385799 287.766858 
L 371.226282 288.888208 
L 373.066764 292.956365 
L 374.907246 303.465769 
L 378.588211 311.706394 
L 380.428693 327.066292 
L 382.269175 339.401152 
L 384.109657 344.512425 
L 385.95014 348.737049 
L 387.790622 355.934557 
L 389.631104 359.533311 
L 393.312069 361.254454 
L 395.152551 366.365727 
L 396.993033 376.562196 
L 400.673997 393.825784 
L 402.51448 395.416537 
L 404.354962 395.442615 
L 406.195444 401.231915 
L 408.035926 404.595967 
L 409.876409 405.378305 
L 411.716891 405.899863 
L 413.557373 407.360227 
L 415.397855 406.134565 
L 417.238338 401.936019 
L 419.07882 399.823707 
L 420.919302 400.632122 
L 422.759784 404.726357 
L 424.600266 404.230876 
L 426.440749 400.814668 
L 428.281231 394.790667 
L 430.121713 386.889055 
L 431.962195 390.670354 
L 433.802678 393.565004 
L 435.64316 386.523964 
L 437.483642 386.810821 
L 439.324124 390.200952 
L 441.164607 384.672431 
L 443.005089 381.151911 
L 444.845571 388.219029 
L 446.686053 391.948173 
L 448.526536 392.99129 
L 450.367018 390.72251 
L 452.2075 384.594198 
L 454.047982 375.180066 
L 455.888464 363.288532 
L 457.728947 363.497155 
L 459.569429 364.175181 
L 461.409911 360.576428 
L 463.250393 359.194298 
L 466.931358 353.796167 
L 468.77184 351.683855 
L 470.612322 355.178297 
L 472.452805 359.194298 
L 474.293287 357.420999 
L 476.133769 353.274608 
L 477.974251 346.755127 
L 479.814734 341.070139 
L 481.655216 338.149411 
L 483.495698 340.67897 
L 485.33618 341.774243 
L 487.176662 337.340995 
L 489.017145 336.350034 
L 490.857627 338.801359 
L 492.698109 336.089255 
L 494.538591 331.108371 
L 496.379074 333.976943 
L 498.219556 334.342034 
L 500.060038 327.926864 
L 501.90052 326.023175 
L 507.421967 326.805513 
L 509.262449 330.247799 
L 511.102931 335.306917 
L 512.943414 335.802398 
L 514.783896 337.836476 
L 516.624378 338.905671 
L 518.46486 334.915748 
L 520.305343 334.315956 
L 522.145825 338.358035 
L 523.986307 340.574658 
L 525.826789 340.600736 
L 527.667272 340.105256 
L 531.348236 344.877516 
L 533.188718 346.390036 
L 535.029201 350.093101 
L 536.869683 352.961673 
L 538.710165 353.24853 
L 540.550647 353.274608 
L 542.391129 351.709933 
L 544.231612 348.763127 
L 546.072094 346.155334 
L 547.912576 343.286763 
L 549.753058 341.982866 
L 551.593541 341.461308 
L 553.434023 342.556581 
L 557.114987 348.945673 
L 558.95547 353.170297 
L 560.795952 356.586505 
L 562.636434 356.925518 
L 564.476916 358.90744 
L 566.317398 362.68874 
L 568.157881 363.132064 
L 569.998363 358.568427 
L 571.838845 357.081986 
L 573.679327 363.731857 
L 575.51981 368.947442 
L 577.360292 369.469 
L 579.200774 369.860169 
L 581.041256 368.34765 
L 582.881739 366.626507 
L 584.722221 365.687701 
L 586.562703 363.784013 
L 590.243668 358.464116 
L 592.08415 358.125103 
L 593.924632 359.16822 
L 595.765114 358.385882 
L 597.605596 357.733934 
L 599.446079 356.560427 
L 601.286561 352.309725 
L 603.127043 349.441153 
L 604.967525 349.180374 
L 606.808008 350.745049 
L 608.64849 350.432114 
L 610.488972 347.172374 
L 612.329454 344.616737 
L 614.169937 340.339957 
L 616.010419 336.53258 
L 617.850901 336.480424 
L 619.691383 334.863592 
L 621.531865 331.421306 
L 623.372348 332.334034 
L 625.21283 335.854554 
L 627.053312 335.385151 
L 628.893794 331.004059 
L 630.734277 327.22276 
L 632.574759 328.213721 
L 634.415241 329.856631 
L 636.255723 330.11741 
L 638.096206 332.151488 
L 639.936688 333.090293 
L 641.77717 335.385151 
L 643.617652 338.175489 
L 645.458135 340.131333 
L 647.298617 338.905671 
L 649.139099 334.785359 
L 650.979581 334.185566 
L 652.820063 333.976943 
L 654.660546 333.63793 
L 656.501028 335.724164 
L 658.34151 338.071177 
L 660.181992 339.244684 
L 662.022475 337.810398 
L 663.862957 335.202605 
L 667.543921 337.601775 
L 669.384404 336.923749 
L 671.224886 336.662969 
L 673.065368 336.219645 
L 674.90585 337.471385 
L 676.746332 339.244684 
L 678.586815 338.853515 
L 680.427297 337.15845 
L 682.267779 335.724164 
L 684.108261 336.506502 
L 685.948744 341.643853 
L 687.789226 344.747126 
L 689.629708 344.355958 
L 691.47019 346.311802 
L 693.310673 347.068062 
L 695.151155 344.95575 
L 696.991637 341.617775 
L 698.832119 340.652892 
L 700.672602 342.504425 
L 704.353566 347.928633 
L 706.194048 348.189413 
L 708.03453 349.310764 
L 709.875013 351.605621 
L 711.715495 352.779128 
L 713.555977 354.343803 
L 715.396459 355.51731 
L 717.236942 356.951596 
L 719.077424 357.420999 
L 720.917906 353.978712 
L 722.758388 349.884478 
L 724.598871 350.432114 
L 726.439353 352.387959 
L 728.279835 351.840322 
L 730.120317 348.502348 
L 731.960799 343.025983 
L 733.801282 338.462346 
L 735.641764 336.897671 
L 739.322728 339.375074 
L 743.003693 334.342034 
L 744.844175 332.959904 
L 748.52514 323.128526 
L 750.365622 323.780474 
L 752.206104 326.257877 
L 754.046586 324.745357 
L 755.887069 322.685201 
L 757.727551 322.137564 
L 759.568033 321.355227 
L 761.408515 320.703278 
L 763.248997 318.6692 
L 765.08948 315.722395 
L 766.929962 313.505771 
L 768.770444 311.810706 
L 770.610926 313.166758 
L 774.291891 318.773512 
L 776.132373 320.259954 
L 777.972855 320.31211 
L 779.813338 318.199798 
L 781.65382 315.644161 
L 783.494302 316.165719 
L 785.334784 318.304109 
L 787.175266 322.893824 
L 787.175266 322.893824 
" clip-path="url(#pbba90fa3f0)" style="fill: none; stroke: #4878d0; stroke-width: 1.5; stroke-linecap: round"/>
   </g>
   <g id="patch_8">
    <path d="M 53.375 415.55 
L 53.375 235.375 
" style="fill: none; stroke: #cccccc; stroke-width: 1.25; stroke-linejoin: miter; stroke-linecap: square"/>
   </g>
   <g id="patch_9">
    <path d="M 851.04 415.55 
L 851.04 235.375 
" style="fill: none; stroke: #cccccc; stroke-width: 1.25; stroke-linejoin: miter; stroke-linecap: square"/>
   </g>
   <g id="patch_10">
    <path d="M 53.375 415.55 
L 851.04 415.55 
" style="fill: none; stroke: #cccccc; stroke-width: 1.25; stroke-linejoin: miter; stroke-linecap: square"/>
   </g>
   <g id="patch_11">
    <path d="M 53.375 235.375 
L 851.04 235.375 
" style="fill: none; stroke: #cccccc; stroke-width: 1.25; stroke-linejoin: miter; stroke-linecap: square"/>
   </g>
   <g id="text_12">
    <!-- Trend -->
    <g style="fill: #262626" transform="translate(436.760312 229.375) scale(0.12 -0.12)">
     <defs>
      <path id="ArialMT-54" d="M 1659 0 
L 1659 4041 
L 150 4041 
L 150 4581 
L 3781 4581 
L 3781 4041 
L 2266 4041 
L 2266 0 
L 1659 0 
z
" transform="scale(0.015625)"/>
      <path id="ArialMT-65" d="M 2694 1069 
L 3275 997 
Q 3138 488 2766 206 
Q 2394 -75 1816 -75 
Q 1088 -75 661 373 
Q 234 822 234 1631 
Q 234 2469 665 2931 
Q 1097 3394 1784 3394 
Q 2450 3394 2872 2941 
Q 3294 2488 3294 1666 
Q 3294 1616 3291 1516 
L 816 1516 
Q 847 969 1125 678 
Q 1403 388 1819 388 
Q 2128 388 2347 550 
Q 2566 713 2694 1069 
z
M 847 1978 
L 2700 1978 
Q 2663 2397 2488 2606 
Q 2219 2931 1791 2931 
Q 1403 2931 1139 2672 
Q 875 2413 847 1978 
z
" transform="scale(0.015625)"/>
      <path id="ArialMT-64" d="M 2575 0 
L 2575 419 
Q 2259 -75 1647 -75 
Q 1250 -75 917 144 
Q 584 363 401 755 
Q 219 1147 219 1656 
Q 219 2153 384 2558 
Q 550 2963 881 3178 
Q 1213 3394 1622 3394 
Q 1922 3394 2156 3267 
Q 2391 3141 2538 2938 
L 2538 4581 
L 3097 4581 
L 3097 0 
L 2575 0 
z
M 797 1656 
Q 797 1019 1065 703 
Q 1334 388 1700 388 
Q 2069 388 2326 689 
Q 2584 991 2584 1609 
Q 2584 2291 2321 2609 
Q 2059 2928 1675 2928 
Q 1300 2928 1048 2622 
Q 797 2316 797 1656 
z
" transform="scale(0.015625)"/>
     </defs>
     <use xlink:href="#ArialMT-54"/>
     <use xlink:href="#ArialMT-72" transform="translate(57.333984 0)"/>
     <use xlink:href="#ArialMT-65" transform="translate(90.634766 0)"/>
     <use xlink:href="#ArialMT-6e" transform="translate(146.25 0)"/>
     <use xlink:href="#ArialMT-64" transform="translate(201.865234 0)"/>
    </g>
   </g>
  </g>
  <g id="axes_3">
   <g id="patch_12">
    <path d="M 53.375 623.325 
L 851.04 623.325 
L 851.04 443.15 
L 53.375 443.15 
z
" style="fill: #ffffff"/>
   </g>
   <g id="matplotlib.axis_5">
    <g id="xtick_15">
     <g id="line2d_27">
      <path d="M 89.6325 623.325 
L 89.6325 443.15 
" clip-path="url(#p8b5a941380)" style="fill: none; stroke: #cccccc; stroke-linecap: round"/>
     </g>
    </g>
    <g id="xtick_16">
     <g id="line2d_28">
      <path d="M 201.901916 623.325 
L 201.901916 443.15 
" clip-path="url(#p8b5a941380)" style="fill: none; stroke: #cccccc; stroke-linecap: round"/>
     </g>
    </g>
    <g id="xtick_17">
     <g id="line2d_29">
      <path d="M 314.171332 623.325 
L 314.171332 443.15 
" clip-path="url(#p8b5a941380)" style="fill: none; stroke: #cccccc; stroke-linecap: round"/>
     </g>
    </g>
    <g id="xtick_18">
     <g id="line2d_30">
      <path d="M 422.759784 623.325 
L 422.759784 443.15 
" clip-path="url(#p8b5a941380)" style="fill: none; stroke: #cccccc; stroke-linecap: round"/>
     </g>
    </g>
    <g id="xtick_19">
     <g id="line2d_31">
      <path d="M 535.029201 623.325 
L 535.029201 443.15 
" clip-path="url(#p8b5a941380)" style="fill: none; stroke: #cccccc; stroke-linecap: round"/>
     </g>
    </g>
    <g id="xtick_20">
     <g id="line2d_32">
      <path d="M 647.298617 623.325 
L 647.298617 443.15 
" clip-path="url(#p8b5a941380)" style="fill: none; stroke: #cccccc; stroke-linecap: round"/>
     </g>
    </g>
    <g id="xtick_21">
     <g id="line2d_33">
      <path d="M 761.408515 623.325 
L 761.408515 443.15 
" clip-path="url(#p8b5a941380)" style="fill: none; stroke: #cccccc; stroke-linecap: round"/>
     </g>
    </g>
   </g>
   <g id="matplotlib.axis_6">
    <g id="ytick_11">
     <g id="line2d_34">
      <path d="M 53.375 604.873739 
L 851.04 604.873739 
" clip-path="url(#p8b5a941380)" style="fill: none; stroke: #cccccc; stroke-linecap: round"/>
     </g>
     <g id="text_13">
      <!-- −500 -->
      <g style="fill: #262626" transform="translate(19.099219 608.810536) scale(0.11 -0.11)">
       <defs>
        <path id="ArialMT-2212" d="M 3381 1997 
L 356 1997 
L 356 2522 
L 3381 2522 
L 3381 1997 
z
" transform="scale(0.015625)"/>
       </defs>
       <use xlink:href="#ArialMT-2212"/>
       <use xlink:href="#ArialMT-35" transform="translate(58.398438 0)"/>
       <use xlink:href="#ArialMT-30" transform="translate(114.013672 0)"/>
       <use xlink:href="#ArialMT-30" transform="translate(169.628906 0)"/>
      </g>
     </g>
    </g>
    <g id="ytick_12">
     <g id="line2d_35">
      <path d="M 53.375 577.299778 
L 851.04 577.299778 
" clip-path="url(#p8b5a941380)" style="fill: none; stroke: #cccccc; stroke-linecap: round"/>
     </g>
     <g id="text_14">
      <!-- −250 -->
      <g style="fill: #262626" transform="translate(19.099219 581.236575) scale(0.11 -0.11)">
       <use xlink:href="#ArialMT-2212"/>
       <use xlink:href="#ArialMT-32" transform="translate(58.398438 0)"/>
       <use xlink:href="#ArialMT-35" transform="translate(114.013672 0)"/>
       <use xlink:href="#ArialMT-30" transform="translate(169.628906 0)"/>
      </g>
     </g>
    </g>
    <g id="ytick_13">
     <g id="line2d_36">
      <path d="M 53.375 549.725817 
L 851.04 549.725817 
" clip-path="url(#p8b5a941380)" style="fill: none; stroke: #cccccc; stroke-linecap: round"/>
     </g>
     <g id="text_15">
      <!-- 0 -->
      <g style="fill: #262626" transform="translate(37.757969 553.662614) scale(0.11 -0.11)">
       <use xlink:href="#ArialMT-30"/>
      </g>
     </g>
    </g>
    <g id="ytick_14">
     <g id="line2d_37">
      <path d="M 53.375 522.151856 
L 851.04 522.151856 
" clip-path="url(#p8b5a941380)" style="fill: none; stroke: #cccccc; stroke-linecap: round"/>
     </g>
     <g id="text_16">
      <!-- 250 -->
      <g style="fill: #262626" transform="translate(25.523906 526.088653) scale(0.11 -0.11)">
       <use xlink:href="#ArialMT-32"/>
       <use xlink:href="#ArialMT-35" transform="translate(55.615234 0)"/>
       <use xlink:href="#ArialMT-30" transform="translate(111.230469 0)"/>
      </g>
     </g>
    </g>
    <g id="ytick_15">
     <g id="line2d_38">
      <path d="M 53.375 494.577896 
L 851.04 494.577896 
" clip-path="url(#p8b5a941380)" style="fill: none; stroke: #cccccc; stroke-linecap: round"/>
     </g>
     <g id="text_17">
      <!-- 500 -->
      <g style="fill: #262626" transform="translate(25.523906 498.514693) scale(0.11 -0.11)">
       <use xlink:href="#ArialMT-35"/>
       <use xlink:href="#ArialMT-30" transform="translate(55.615234 0)"/>
       <use xlink:href="#ArialMT-30" transform="translate(111.230469 0)"/>
      </g>
     </g>
    </g>
    <g id="ytick_16">
     <g id="line2d_39">
      <path d="M 53.375 467.003935 
L 851.04 467.003935 
" clip-path="url(#p8b5a941380)" style="fill: none; stroke: #cccccc; stroke-linecap: round"/>
     </g>
     <g id="text_18">
      <!-- 750 -->
      <g style="fill: #262626" transform="translate(25.523906 470.940732) scale(0.11 -0.11)">
       <defs>
        <path id="ArialMT-37" d="M 303 3981 
L 303 4522 
L 3269 4522 
L 3269 4084 
Q 2831 3619 2401 2847 
Q 1972 2075 1738 1259 
Q 1569 684 1522 0 
L 944 0 
Q 953 541 1156 1306 
Q 1359 2072 1739 2783 
Q 2119 3494 2547 3981 
L 303 3981 
z
" transform="scale(0.015625)"/>
       </defs>
       <use xlink:href="#ArialMT-37"/>
       <use xlink:href="#ArialMT-35" transform="translate(55.615234 0)"/>
       <use xlink:href="#ArialMT-30" transform="translate(111.230469 0)"/>
      </g>
     </g>
    </g>
   </g>
   <g id="line2d_40">
    <path d="M 89.6325 525.608704 
L 91.472982 539.916526 
L 93.313464 570.036483 
L 95.153947 564.653433 
L 96.994429 504.097951 
L 98.834911 564.169356 
L 100.675393 552.180811 
L 102.515876 590.015349 
L 104.356358 532.857592 
L 106.19684 532.260156 
L 108.037322 558.660692 
L 109.877805 451.339773 
L 111.718287 498.365631 
L 113.558769 557.352461 
L 115.399251 554.313197 
L 117.239734 538.419991 
L 119.080216 517.774871 
L 120.920698 525.574767 
L 122.76118 601.333871 
L 124.601662 575.159819 
L 126.442145 590.193048 
L 128.282627 592.150799 
L 130.123109 615.135227 
L 131.963591 552.428977 
L 133.804074 542.529925 
L 135.644556 592.190628 
L 137.485038 556.512987 
L 139.32552 542.909833 
L 141.166003 551.038024 
L 143.006485 502.593638 
L 144.846967 525.608704 
L 146.687449 539.916526 
L 148.527931 570.036483 
L 150.368414 564.653433 
L 152.208896 504.097951 
L 154.049378 564.169356 
L 155.88986 552.180811 
L 157.730343 590.015349 
L 159.570825 532.857592 
L 161.411307 532.260156 
L 163.251789 558.660692 
L 165.092272 451.339773 
L 166.932754 498.365631 
L 168.773236 557.352461 
L 170.613718 554.313197 
L 172.454201 538.419991 
L 174.294683 517.774871 
L 176.135165 525.574767 
L 177.975647 601.333871 
L 179.816129 575.159819 
L 181.656612 590.193048 
L 183.497094 592.150799 
L 185.337576 615.135227 
L 187.178058 552.428977 
L 189.018541 542.529925 
L 190.859023 592.190628 
L 192.699505 556.512987 
L 194.539987 542.909833 
L 196.38047 551.038024 
L 198.220952 502.593638 
L 200.061434 525.608704 
L 201.901916 539.916526 
L 203.742398 570.036483 
L 205.582881 564.653433 
L 207.423363 504.097951 
L 209.263845 564.169356 
L 211.104327 552.180811 
L 212.94481 590.015349 
L 214.785292 532.857592 
L 216.625774 532.260156 
L 218.466256 558.660692 
L 220.306739 451.339773 
L 222.147221 498.365631 
L 223.987703 557.352461 
L 225.828185 554.313197 
L 227.668668 538.419991 
L 229.50915 517.774871 
L 231.349632 525.574767 
L 233.190114 601.333871 
L 235.030596 575.159819 
L 236.871079 590.193048 
L 238.711561 592.150799 
L 240.552043 615.135227 
L 242.392525 552.428977 
L 244.233008 542.529925 
L 246.07349 592.190628 
L 247.913972 556.512987 
L 249.754454 542.909833 
L 251.594937 551.038024 
L 253.435419 502.593638 
L 255.275901 525.608704 
L 257.116383 539.916526 
L 258.956865 570.036483 
L 260.797348 564.653433 
L 262.63783 504.097951 
L 264.478312 564.169356 
L 266.318794 552.180811 
L 268.159277 590.015349 
L 269.999759 532.857592 
L 271.840241 532.260156 
L 273.680723 558.660692 
L 275.521206 451.339773 
L 277.361688 498.365631 
L 279.20217 557.352461 
L 281.042652 554.313197 
L 282.883135 538.419991 
L 284.723617 517.774871 
L 286.564099 525.574767 
L 288.404581 601.333871 
L 290.245063 575.159819 
L 292.085546 590.193048 
L 293.926028 592.150799 
L 295.76651 615.135227 
L 297.606992 552.428977 
L 299.447475 542.529925 
L 301.287957 592.190628 
L 303.128439 556.512987 
L 304.968921 542.909833 
L 306.809404 551.038024 
L 308.649886 502.593638 
L 310.490368 525.608704 
L 312.33085 539.916526 
L 314.171332 570.036483 
L 316.011815 564.653433 
L 317.852297 504.097951 
L 319.692779 564.169356 
L 321.533261 552.180811 
L 323.373744 590.015349 
L 325.214226 532.857592 
L 327.054708 532.260156 
L 328.89519 558.660692 
L 330.735673 451.339773 
L 332.576155 498.365631 
L 334.416637 557.352461 
L 336.257119 554.313197 
L 338.097602 538.419991 
L 339.938084 517.774871 
L 341.778566 525.574767 
L 343.619048 601.333871 
L 345.45953 575.159819 
L 347.300013 590.193048 
L 349.140495 592.150799 
L 350.980977 615.135227 
L 352.821459 552.428977 
L 354.661942 542.529925 
L 356.502424 592.190628 
L 358.342906 556.512987 
L 360.183388 542.909833 
L 362.023871 551.038024 
L 363.864353 502.593638 
L 365.704835 525.608704 
L 367.545317 539.916526 
L 369.385799 570.036483 
L 371.226282 564.653433 
L 373.066764 504.097951 
L 374.907246 564.169356 
L 376.747728 552.180811 
L 378.588211 590.015349 
L 380.428693 532.857592 
L 382.269175 532.260156 
L 384.109657 558.660692 
L 385.95014 451.339773 
L 387.790622 498.365631 
L 389.631104 557.352461 
L 391.471586 554.313197 
L 393.312069 538.419991 
L 395.152551 517.774871 
L 396.993033 525.574767 
L 398.833515 601.333871 
L 400.673997 575.159819 
L 402.51448 590.193048 
L 404.354962 592.150799 
L 406.195444 615.135227 
L 408.035926 552.428977 
L 409.876409 542.529925 
L 411.716891 592.190628 
L 413.557373 556.512987 
L 415.397855 542.909833 
L 417.238338 551.038024 
L 419.07882 502.593638 
L 420.919302 525.608704 
L 422.759784 539.916526 
L 424.600266 570.036483 
L 426.440749 564.653433 
L 428.281231 504.097951 
L 430.121713 564.169356 
L 431.962195 552.180811 
L 433.802678 590.015349 
L 435.64316 532.857592 
L 437.483642 532.260156 
L 439.324124 558.660692 
L 441.164607 451.339773 
L 443.005089 498.365631 
L 444.845571 557.352461 
L 446.686053 554.313197 
L 448.526536 538.419991 
L 450.367018 517.774871 
L 452.2075 525.574767 
L 454.047982 601.333871 
L 455.888464 575.159819 
L 457.728947 590.193048 
L 459.569429 592.150799 
L 461.409911 615.135227 
L 463.250393 552.428977 
L 465.090876 542.529925 
L 466.931358 592.190628 
L 468.77184 556.512987 
L 470.612322 542.909833 
L 472.452805 551.038024 
L 474.293287 502.593638 
L 476.133769 525.608704 
L 477.974251 539.916526 
L 479.814734 570.036483 
L 481.655216 564.653433 
L 483.495698 504.097951 
L 485.33618 564.169356 
L 487.176662 552.180811 
L 489.017145 590.015349 
L 490.857627 532.857592 
L 492.698109 532.260156 
L 494.538591 558.660692 
L 496.379074 451.339773 
L 498.219556 498.365631 
L 500.060038 557.352461 
L 501.90052 554.313197 
L 503.741003 538.419991 
L 505.581485 517.774871 
L 507.421967 525.574767 
L 509.262449 601.333871 
L 511.102931 575.159819 
L 512.943414 590.193048 
L 514.783896 592.150799 
L 516.624378 615.135227 
L 518.46486 552.428977 
L 520.305343 542.529925 
L 522.145825 592.190628 
L 523.986307 556.512987 
L 525.826789 542.909833 
L 527.667272 551.038024 
L 529.507754 502.593638 
L 531.348236 525.608704 
L 533.188718 539.916526 
L 535.029201 570.036483 
L 536.869683 564.653433 
L 538.710165 504.097951 
L 540.550647 564.169356 
L 542.391129 552.180811 
L 544.231612 590.015349 
L 546.072094 532.857592 
L 547.912576 532.260156 
L 549.753058 558.660692 
L 551.593541 451.339773 
L 553.434023 498.365631 
L 555.274505 557.352461 
L 557.114987 554.313197 
L 558.95547 538.419991 
L 560.795952 517.774871 
L 562.636434 525.574767 
L 564.476916 601.333871 
L 566.317398 575.159819 
L 568.157881 590.193048 
L 569.998363 592.150799 
L 571.838845 615.135227 
L 573.679327 552.428977 
L 575.51981 542.529925 
L 577.360292 592.190628 
L 579.200774 556.512987 
L 581.041256 542.909833 
L 582.881739 551.038024 
L 584.722221 502.593638 
L 586.562703 525.608704 
L 588.403185 539.916526 
L 590.243668 570.036483 
L 592.08415 564.653433 
L 593.924632 504.097951 
L 595.765114 564.169356 
L 597.605596 552.180811 
L 599.446079 590.015349 
L 601.286561 532.857592 
L 603.127043 532.260156 
L 604.967525 558.660692 
L 606.808008 451.339773 
L 608.64849 498.365631 
L 610.488972 557.352461 
L 612.329454 554.313197 
L 614.169937 538.419991 
L 616.010419 517.774871 
L 617.850901 525.574767 
L 619.691383 601.333871 
L 621.531865 575.159819 
L 623.372348 590.193048 
L 625.21283 592.150799 
L 627.053312 615.135227 
L 628.893794 552.428977 
L 630.734277 542.529925 
L 632.574759 592.190628 
L 634.415241 556.512987 
L 636.255723 542.909833 
L 638.096206 551.038024 
L 639.936688 502.593638 
L 641.77717 525.608704 
L 643.617652 539.916526 
L 645.458135 570.036483 
L 647.298617 564.653433 
L 649.139099 504.097951 
L 650.979581 564.169356 
L 652.820063 552.180811 
L 654.660546 590.015349 
L 656.501028 532.857592 
L 658.34151 532.260156 
L 660.181992 558.660692 
L 662.022475 451.339773 
L 663.862957 498.365631 
L 665.703439 557.352461 
L 667.543921 554.313197 
L 669.384404 538.419991 
L 671.224886 517.774871 
L 673.065368 525.574767 
L 674.90585 601.333871 
L 676.746332 575.159819 
L 678.586815 590.193048 
L 680.427297 592.150799 
L 682.267779 615.135227 
L 684.108261 552.428977 
L 685.948744 542.529925 
L 687.789226 592.190628 
L 689.629708 556.512987 
L 691.47019 542.909833 
L 693.310673 551.038024 
L 695.151155 502.593638 
L 696.991637 525.608704 
L 698.832119 539.916526 
L 700.672602 570.036483 
L 702.513084 564.653433 
L 704.353566 504.097951 
L 706.194048 564.169356 
L 708.03453 552.180811 
L 709.875013 590.015349 
L 711.715495 532.857592 
L 713.555977 532.260156 
L 715.396459 558.660692 
L 717.236942 451.339773 
L 719.077424 498.365631 
L 720.917906 557.352461 
L 722.758388 554.313197 
L 724.598871 538.419991 
L 726.439353 517.774871 
L 728.279835 525.574767 
L 730.120317 601.333871 
L 731.960799 575.159819 
L 733.801282 590.193048 
L 735.641764 592.150799 
L 737.482246 615.135227 
L 739.322728 552.428977 
L 741.163211 542.529925 
L 743.003693 592.190628 
L 744.844175 556.512987 
L 746.684657 542.909833 
L 748.52514 551.038024 
L 750.365622 502.593638 
L 752.206104 525.608704 
L 754.046586 539.916526 
L 755.887069 570.036483 
L 757.727551 564.653433 
L 759.568033 504.097951 
L 761.408515 564.169356 
L 763.248997 552.180811 
L 765.08948 590.015349 
L 766.929962 532.857592 
L 768.770444 532.260156 
L 770.610926 558.660692 
L 772.451409 451.339773 
L 774.291891 498.365631 
L 776.132373 557.352461 
L 777.972855 554.313197 
L 779.813338 538.419991 
L 781.65382 517.774871 
L 783.494302 525.574767 
L 785.334784 601.333871 
L 787.175266 575.159819 
L 789.015749 590.193048 
L 790.856231 592.150799 
L 792.696713 615.135227 
L 794.537195 552.428977 
L 796.377678 542.529925 
L 798.21816 592.190628 
L 800.058642 556.512987 
L 801.899124 542.909833 
L 803.739607 551.038024 
L 805.580089 502.593638 
L 807.420571 525.608704 
L 809.261053 539.916526 
L 811.101536 570.036483 
L 812.942018 564.653433 
L 814.7825 504.097951 
L 814.7825 504.097951 
" clip-path="url(#p8b5a941380)" style="fill: none; stroke: #4878d0; stroke-width: 1.5; stroke-linecap: round"/>
   </g>
   <g id="patch_13">
    <path d="M 53.375 623.325 
L 53.375 443.15 
" style="fill: none; stroke: #cccccc; stroke-width: 1.25; stroke-linejoin: miter; stroke-linecap: square"/>
   </g>
   <g id="patch_14">
    <path d="M 851.04 623.325 
L 851.04 443.15 
" style="fill: none; stroke: #cccccc; stroke-width: 1.25; stroke-linejoin: miter; stroke-linecap: square"/>
   </g>
   <g id="patch_15">
    <path d="M 53.375 623.325 
L 851.04 623.325 
" style="fill: none; stroke: #cccccc; stroke-width: 1.25; stroke-linejoin: miter; stroke-linecap: square"/>
   </g>
   <g id="patch_16">
    <path d="M 53.375 443.15 
L 851.04 443.15 
" style="fill: none; stroke: #cccccc; stroke-width: 1.25; stroke-linejoin: miter; stroke-linecap: square"/>
   </g>
   <g id="text_19">
    <!-- Seasonal -->
    <g style="fill: #262626" transform="translate(427.189375 437.15) scale(0.12 -0.12)">
     <defs>
      <path id="ArialMT-53" d="M 288 1472 
L 859 1522 
Q 900 1178 1048 958 
Q 1197 738 1509 602 
Q 1822 466 2213 466 
Q 2559 466 2825 569 
Q 3091 672 3220 851 
Q 3350 1031 3350 1244 
Q 3350 1459 3225 1620 
Q 3100 1781 2813 1891 
Q 2628 1963 1997 2114 
Q 1366 2266 1113 2400 
Q 784 2572 623 2826 
Q 463 3081 463 3397 
Q 463 3744 659 4045 
Q 856 4347 1234 4503 
Q 1613 4659 2075 4659 
Q 2584 4659 2973 4495 
Q 3363 4331 3572 4012 
Q 3781 3694 3797 3291 
L 3216 3247 
Q 3169 3681 2898 3903 
Q 2628 4125 2100 4125 
Q 1550 4125 1298 3923 
Q 1047 3722 1047 3438 
Q 1047 3191 1225 3031 
Q 1400 2872 2139 2705 
Q 2878 2538 3153 2413 
Q 3553 2228 3743 1945 
Q 3934 1663 3934 1294 
Q 3934 928 3725 604 
Q 3516 281 3123 101 
Q 2731 -78 2241 -78 
Q 1619 -78 1198 103 
Q 778 284 539 648 
Q 300 1013 288 1472 
z
" transform="scale(0.015625)"/>
      <path id="ArialMT-73" d="M 197 991 
L 753 1078 
Q 800 744 1014 566 
Q 1228 388 1613 388 
Q 2000 388 2187 545 
Q 2375 703 2375 916 
Q 2375 1106 2209 1216 
Q 2094 1291 1634 1406 
Q 1016 1563 777 1677 
Q 538 1791 414 1992 
Q 291 2194 291 2438 
Q 291 2659 392 2848 
Q 494 3038 669 3163 
Q 800 3259 1026 3326 
Q 1253 3394 1513 3394 
Q 1903 3394 2198 3281 
Q 2494 3169 2634 2976 
Q 2775 2784 2828 2463 
L 2278 2388 
Q 2241 2644 2061 2787 
Q 1881 2931 1553 2931 
Q 1166 2931 1000 2803 
Q 834 2675 834 2503 
Q 834 2394 903 2306 
Q 972 2216 1119 2156 
Q 1203 2125 1616 2013 
Q 2213 1853 2448 1751 
Q 2684 1650 2818 1456 
Q 2953 1263 2953 975 
Q 2953 694 2789 445 
Q 2625 197 2315 61 
Q 2006 -75 1616 -75 
Q 969 -75 630 194 
Q 291 463 197 991 
z
" transform="scale(0.015625)"/>
      <path id="ArialMT-6f" d="M 213 1659 
Q 213 2581 725 3025 
Q 1153 3394 1769 3394 
Q 2453 3394 2887 2945 
Q 3322 2497 3322 1706 
Q 3322 1066 3130 698 
Q 2938 331 2570 128 
Q 2203 -75 1769 -75 
Q 1072 -75 642 372 
Q 213 819 213 1659 
z
M 791 1659 
Q 791 1022 1069 705 
Q 1347 388 1769 388 
Q 2188 388 2466 706 
Q 2744 1025 2744 1678 
Q 2744 2294 2464 2611 
Q 2184 2928 1769 2928 
Q 1347 2928 1069 2612 
Q 791 2297 791 1659 
z
" transform="scale(0.015625)"/>
     </defs>
     <use xlink:href="#ArialMT-53"/>
     <use xlink:href="#ArialMT-65" transform="translate(66.699219 0)"/>
     <use xlink:href="#ArialMT-61" transform="translate(122.314453 0)"/>
     <use xlink:href="#ArialMT-73" transform="translate(177.929688 0)"/>
     <use xlink:href="#ArialMT-6f" transform="translate(227.929688 0)"/>
     <use xlink:href="#ArialMT-6e" transform="translate(283.544922 0)"/>
     <use xlink:href="#ArialMT-61" transform="translate(339.160156 0)"/>
     <use xlink:href="#ArialMT-6c" transform="translate(394.775391 0)"/>
    </g>
   </g>
  </g>
  <g id="axes_4">
   <g id="patch_17">
    <path d="M 53.375 831.1 
L 851.04 831.1 
L 851.04 650.925 
L 53.375 650.925 
z
" style="fill: #ffffff"/>
   </g>
   <g id="matplotlib.axis_7">
    <g id="xtick_22">
     <g id="line2d_41">
      <path d="M 89.6325 831.1 
L 89.6325 650.925 
" clip-path="url(#pf4cd6c8525)" style="fill: none; stroke: #cccccc; stroke-linecap: round"/>
     </g>
     <g id="text_20">
      <!-- 2024-09 -->
      <g style="fill: #262626" transform="translate(69.450078 848.473594) scale(0.11 -0.11)">
       <defs>
        <path id="ArialMT-2d" d="M 203 1375 
L 203 1941 
L 1931 1941 
L 1931 1375 
L 203 1375 
z
" transform="scale(0.015625)"/>
        <path id="ArialMT-39" d="M 350 1059 
L 891 1109 
Q 959 728 1153 556 
Q 1347 384 1650 384 
Q 1909 384 2104 503 
Q 2300 622 2425 820 
Q 2550 1019 2634 1356 
Q 2719 1694 2719 2044 
Q 2719 2081 2716 2156 
Q 2547 1888 2255 1720 
Q 1963 1553 1622 1553 
Q 1053 1553 659 1965 
Q 266 2378 266 3053 
Q 266 3750 677 4175 
Q 1088 4600 1706 4600 
Q 2153 4600 2523 4359 
Q 2894 4119 3086 3673 
Q 3278 3228 3278 2384 
Q 3278 1506 3087 986 
Q 2897 466 2520 194 
Q 2144 -78 1638 -78 
Q 1100 -78 759 220 
Q 419 519 350 1059 
z
M 2653 3081 
Q 2653 3566 2395 3850 
Q 2138 4134 1775 4134 
Q 1400 4134 1122 3828 
Q 844 3522 844 3034 
Q 844 2597 1108 2323 
Q 1372 2050 1759 2050 
Q 2150 2050 2401 2323 
Q 2653 2597 2653 3081 
z
" transform="scale(0.015625)"/>
       </defs>
       <use xlink:href="#ArialMT-32"/>
       <use xlink:href="#ArialMT-30" transform="translate(55.615234 0)"/>
       <use xlink:href="#ArialMT-32" transform="translate(111.230469 0)"/>
       <use xlink:href="#ArialMT-34" transform="translate(166.845703 0)"/>
       <use xlink:href="#ArialMT-2d" transform="translate(222.460938 0)"/>
       <use xlink:href="#ArialMT-30" transform="translate(255.761719 0)"/>
       <use xlink:href="#ArialMT-39" transform="translate(311.376953 0)"/>
      </g>
     </g>
    </g>
    <g id="xtick_23">
     <g id="line2d_42">
      <path d="M 201.901916 831.1 
L 201.901916 650.925 
" clip-path="url(#pf4cd6c8525)" style="fill: none; stroke: #cccccc; stroke-linecap: round"/>
     </g>
     <g id="text_21">
      <!-- 2024-11 -->
      <g style="fill: #262626" transform="translate(182.125119 848.473594) scale(0.11 -0.11)">
       <use xlink:href="#ArialMT-32"/>
       <use xlink:href="#ArialMT-30" transform="translate(55.615234 0)"/>
       <use xlink:href="#ArialMT-32" transform="translate(111.230469 0)"/>
       <use xlink:href="#ArialMT-34" transform="translate(166.845703 0)"/>
       <use xlink:href="#ArialMT-2d" transform="translate(222.460938 0)"/>
       <use xlink:href="#ArialMT-31" transform="translate(255.761719 0)"/>
       <use xlink:href="#ArialMT-31" transform="translate(304.001953 0)"/>
      </g>
     </g>
    </g>
    <g id="xtick_24">
     <g id="line2d_43">
      <path d="M 314.171332 831.1 
L 314.171332 650.925 
" clip-path="url(#pf4cd6c8525)" style="fill: none; stroke: #cccccc; stroke-linecap: round"/>
     </g>
     <g id="text_22">
      <!-- 2025-01 -->
      <g style="fill: #262626" transform="translate(293.988911 848.473594) scale(0.11 -0.11)">
       <use xlink:href="#ArialMT-32"/>
       <use xlink:href="#ArialMT-30" transform="translate(55.615234 0)"/>
       <use xlink:href="#ArialMT-32" transform="translate(111.230469 0)"/>
       <use xlink:href="#ArialMT-35" transform="translate(166.845703 0)"/>
       <use xlink:href="#ArialMT-2d" transform="translate(222.460938 0)"/>
       <use xlink:href="#ArialMT-30" transform="translate(255.761719 0)"/>
       <use xlink:href="#ArialMT-31" transform="translate(311.376953 0)"/>
      </g>
     </g>
    </g>
    <g id="xtick_25">
     <g id="line2d_44">
      <path d="M 422.759784 831.1 
L 422.759784 650.925 
" clip-path="url(#pf4cd6c8525)" style="fill: none; stroke: #cccccc; stroke-linecap: round"/>
     </g>
     <g id="text_23">
      <!-- 2025-03 -->
      <g style="fill: #262626" transform="translate(402.577362 848.473594) scale(0.11 -0.11)">
       <defs>
        <path id="ArialMT-33" d="M 269 1209 
L 831 1284 
Q 928 806 1161 595 
Q 1394 384 1728 384 
Q 2125 384 2398 659 
Q 2672 934 2672 1341 
Q 2672 1728 2419 1979 
Q 2166 2231 1775 2231 
Q 1616 2231 1378 2169 
L 1441 2663 
Q 1497 2656 1531 2656 
Q 1891 2656 2178 2843 
Q 2466 3031 2466 3422 
Q 2466 3731 2256 3934 
Q 2047 4138 1716 4138 
Q 1388 4138 1169 3931 
Q 950 3725 888 3313 
L 325 3413 
Q 428 3978 793 4289 
Q 1159 4600 1703 4600 
Q 2078 4600 2393 4439 
Q 2709 4278 2876 4000 
Q 3044 3722 3044 3409 
Q 3044 3113 2884 2869 
Q 2725 2625 2413 2481 
Q 2819 2388 3044 2092 
Q 3269 1797 3269 1353 
Q 3269 753 2831 336 
Q 2394 -81 1725 -81 
Q 1122 -81 723 278 
Q 325 638 269 1209 
z
" transform="scale(0.015625)"/>
       </defs>
       <use xlink:href="#ArialMT-32"/>
       <use xlink:href="#ArialMT-30" transform="translate(55.615234 0)"/>
       <use xlink:href="#ArialMT-32" transform="translate(111.230469 0)"/>
       <use xlink:href="#ArialMT-35" transform="translate(166.845703 0)"/>
       <use xlink:href="#ArialMT-2d" transform="translate(222.460938 0)"/>
       <use xlink:href="#ArialMT-30" transform="translate(255.761719 0)"/>
       <use xlink:href="#ArialMT-33" transform="translate(311.376953 0)"/>
      </g>
     </g>
    </g>
    <g id="xtick_26">
     <g id="line2d_45">
      <path d="M 535.029201 831.1 
L 535.029201 650.925 
" clip-path="url(#pf4cd6c8525)" style="fill: none; stroke: #cccccc; stroke-linecap: round"/>
     </g>
     <g id="text_24">
      <!-- 2025-05 -->
      <g style="fill: #262626" transform="translate(514.846779 848.473594) scale(0.11 -0.11)">
       <use xlink:href="#ArialMT-32"/>
       <use xlink:href="#ArialMT-30" transform="translate(55.615234 0)"/>
       <use xlink:href="#ArialMT-32" transform="translate(111.230469 0)"/>
       <use xlink:href="#ArialMT-35" transform="translate(166.845703 0)"/>
       <use xlink:href="#ArialMT-2d" transform="translate(222.460938 0)"/>
       <use xlink:href="#ArialMT-30" transform="translate(255.761719 0)"/>
       <use xlink:href="#ArialMT-35" transform="translate(311.376953 0)"/>
      </g>
     </g>
    </g>
    <g id="xtick_27">
     <g id="line2d_46">
      <path d="M 647.298617 831.1 
L 647.298617 650.925 
" clip-path="url(#pf4cd6c8525)" style="fill: none; stroke: #cccccc; stroke-linecap: round"/>
     </g>
     <g id="text_25">
      <!-- 2025-07 -->
      <g style="fill: #262626" transform="translate(627.116195 848.473594) scale(0.11 -0.11)">
       <use xlink:href="#ArialMT-32"/>
       <use xlink:href="#ArialMT-30" transform="translate(55.615234 0)"/>
       <use xlink:href="#ArialMT-32" transform="translate(111.230469 0)"/>
       <use xlink:href="#ArialMT-35" transform="translate(166.845703 0)"/>
       <use xlink:href="#ArialMT-2d" transform="translate(222.460938 0)"/>
       <use xlink:href="#ArialMT-30" transform="translate(255.761719 0)"/>
       <use xlink:href="#ArialMT-37" transform="translate(311.376953 0)"/>
      </g>
     </g>
    </g>
    <g id="xtick_28">
     <g id="line2d_47">
      <path d="M 761.408515 831.1 
L 761.408515 650.925 
" clip-path="url(#pf4cd6c8525)" style="fill: none; stroke: #cccccc; stroke-linecap: round"/>
     </g>
     <g id="text_26">
      <!-- 2025-09 -->
      <g style="fill: #262626" transform="translate(741.226093 848.473594) scale(0.11 -0.11)">
       <use xlink:href="#ArialMT-32"/>
       <use xlink:href="#ArialMT-30" transform="translate(55.615234 0)"/>
       <use xlink:href="#ArialMT-32" transform="translate(111.230469 0)"/>
       <use xlink:href="#ArialMT-35" transform="translate(166.845703 0)"/>
       <use xlink:href="#ArialMT-2d" transform="translate(222.460938 0)"/>
       <use xlink:href="#ArialMT-30" transform="translate(255.761719 0)"/>
       <use xlink:href="#ArialMT-39" transform="translate(311.376953 0)"/>
      </g>
     </g>
    </g>
   </g>
   <g id="matplotlib.axis_8">
    <g id="ytick_17">
     <g id="line2d_48">
      <path d="M 53.375 801.260809 
L 851.04 801.260809 
" clip-path="url(#pf4cd6c8525)" style="fill: none; stroke: #cccccc; stroke-linecap: round"/>
     </g>
     <g id="text_27">
      <!-- −2000 -->
      <g style="fill: #262626" transform="translate(12.982188 805.197606) scale(0.11 -0.11)">
       <use xlink:href="#ArialMT-2212"/>
       <use xlink:href="#ArialMT-32" transform="translate(58.398438 0)"/>
       <use xlink:href="#ArialMT-30" transform="translate(114.013672 0)"/>
       <use xlink:href="#ArialMT-30" transform="translate(169.628906 0)"/>
       <use xlink:href="#ArialMT-30" transform="translate(225.244141 0)"/>
      </g>
     </g>
    </g>
    <g id="ytick_18">
     <g id="line2d_49">
      <path d="M 53.375 762.116394 
L 851.04 762.116394 
" clip-path="url(#pf4cd6c8525)" style="fill: none; stroke: #cccccc; stroke-linecap: round"/>
     </g>
     <g id="text_28">
      <!-- 0 -->
      <g style="fill: #262626" transform="translate(37.757969 766.053191) scale(0.11 -0.11)">
       <use xlink:href="#ArialMT-30"/>
      </g>
     </g>
    </g>
    <g id="ytick_19">
     <g id="line2d_50">
      <path d="M 53.375 722.97198 
L 851.04 722.97198 
" clip-path="url(#pf4cd6c8525)" style="fill: none; stroke: #cccccc; stroke-linecap: round"/>
     </g>
     <g id="text_29">
      <!-- 2000 -->
      <g style="fill: #262626" transform="translate(19.406875 726.908776) scale(0.11 -0.11)">
       <use xlink:href="#ArialMT-32"/>
       <use xlink:href="#ArialMT-30" transform="translate(55.615234 0)"/>
       <use xlink:href="#ArialMT-30" transform="translate(111.230469 0)"/>
       <use xlink:href="#ArialMT-30" transform="translate(166.845703 0)"/>
      </g>
     </g>
    </g>
    <g id="ytick_20">
     <g id="line2d_51">
      <path d="M 53.375 683.827565 
L 851.04 683.827565 
" clip-path="url(#pf4cd6c8525)" style="fill: none; stroke: #cccccc; stroke-linecap: round"/>
     </g>
     <g id="text_30">
      <!-- 4000 -->
      <g style="fill: #262626" transform="translate(19.406875 687.764362) scale(0.11 -0.11)">
       <use xlink:href="#ArialMT-34"/>
       <use xlink:href="#ArialMT-30" transform="translate(55.615234 0)"/>
       <use xlink:href="#ArialMT-30" transform="translate(111.230469 0)"/>
       <use xlink:href="#ArialMT-30" transform="translate(166.845703 0)"/>
      </g>
     </g>
    </g>
   </g>
   <g id="line2d_52">
    <path d="M 117.239734 756.959207 
L 119.080216 774.029685 
L 120.920698 703.673119 
L 122.76118 765.863056 
L 124.601662 769.88138 
L 126.442145 795.42378 
L 128.282627 757.047575 
L 130.123109 795.518923 
L 131.963591 764.572545 
L 133.804074 690.871767 
L 135.644556 781.72106 
L 137.485038 798.510209 
L 139.32552 756.749642 
L 141.166003 778.891789 
L 143.006485 771.080304 
L 144.846967 755.481254 
L 146.687449 698.75991 
L 148.527931 757.253083 
L 150.368414 743.516112 
L 152.208896 779.581709 
L 154.049378 765.020531 
L 155.88986 791.319597 
L 157.730343 793.491568 
L 159.570825 720.282814 
L 161.411307 774.656037 
L 163.251789 719.683687 
L 165.092272 787.012624 
L 166.932754 782.04074 
L 168.773236 789.155781 
L 170.613718 788.35767 
L 172.454201 720.678858 
L 174.294683 773.886155 
L 176.135165 745.818606 
L 177.975647 779.544029 
L 179.816129 760.767256 
L 181.656612 801.647742 
L 183.497094 780.475507 
L 185.337576 689.417987 
L 187.178058 779.786674 
L 189.018541 779.057609 
L 190.859023 772.443834 
L 192.699505 748.914235 
L 194.539987 789.043784 
L 196.38047 726.229503 
L 198.220952 700.789983 
L 200.061434 793.144705 
L 201.901916 752.51824 
L 203.742398 740.890717 
L 205.582881 782.347371 
L 207.423363 770.845981 
L 209.263845 756.480524 
L 211.104327 704.77782 
L 212.94481 785.603969 
L 214.785292 801.350897 
L 216.625774 784.879254 
L 218.466256 781.407905 
L 220.306739 770.98951 
L 222.147221 782.39304 
L 223.987703 685.318696 
L 225.828185 766.267172 
L 227.668668 744.726577 
L 229.50915 790.705205 
L 231.349632 765.188567 
L 233.190114 807.447472 
L 235.030596 789.79284 
L 236.871079 660.05587 
L 238.711561 760.903299 
L 240.552043 796.17133 
L 242.392525 743.245363 
L 244.233008 788.739328 
L 246.07349 800.112411 
L 247.913972 770.750294 
L 249.754454 662.333314 
L 251.594937 786.361848 
L 253.435419 763.492811 
L 255.275901 795.121498 
L 257.116383 762.323916 
L 258.956865 786.520057 
L 260.797348 770.832389 
L 262.63783 659.114773 
L 264.478312 803.975748 
L 266.318794 768.478831 
L 268.159277 782.309314 
L 269.999759 753.477278 
L 271.840241 748.755483 
L 273.680723 783.443415 
L 275.521206 683.312545 
L 277.361688 756.224998 
L 279.20217 762.015653 
L 281.042652 735.643191 
L 282.883135 737.974166 
L 284.723617 725.294888 
L 286.564099 786.274359 
L 288.404581 811.140096 
L 290.245063 765.979987 
L 292.085546 768.727289 
L 293.926028 768.50384 
L 295.76651 753.014613 
L 297.606992 775.650414 
L 299.447475 784.094191 
L 301.287957 762.005323 
L 303.128439 763.214995 
L 304.968921 756.384294 
L 306.809404 776.001626 
L 308.649886 771.015063 
L 310.490368 771.928433 
L 312.33085 779.051629 
L 314.171332 783.740803 
L 316.011815 775.366617 
L 317.852297 778.055077 
L 319.692779 787.03274 
L 321.533261 740.947259 
L 323.373744 756.350043 
L 325.214226 762.350012 
L 327.054708 735.400713 
L 328.89519 749.511731 
L 330.735673 815.940347 
L 332.576155 761.26158 
L 334.416637 773.439298 
L 336.257119 757.361817 
L 338.097602 764.977288 
L 339.938084 705.389953 
L 341.778566 795.701639 
L 343.619048 783.628096 
L 345.45953 752.011955 
L 347.300013 754.315621 
L 349.140495 765.776779 
L 350.980977 746.007762 
L 352.821459 704.518488 
L 354.661942 742.875122 
L 356.502424 757.060079 
L 358.342906 770.013075 
L 360.183388 743.884178 
L 362.023871 757.499366 
L 363.864353 765.149925 
L 365.704835 760.002434 
L 367.545317 743.795559 
L 369.385799 748.452114 
L 371.226282 754.998473 
L 373.066764 766.683625 
L 374.907246 753.39464 
L 376.747728 783.816918 
L 378.588211 725.217185 
L 380.428693 782.405 
L 382.269175 742.237938 
L 384.109657 755.846602 
L 385.95014 744.475693 
L 387.790622 759.774092 
L 389.631104 782.462086 
L 391.471586 773.391455 
L 393.312069 778.73655 
L 395.152551 769.378023 
L 396.993033 791.669764 
L 398.833515 752.208179 
L 400.673997 785.597863 
L 402.51448 815.022084 
L 404.354962 703.889459 
L 406.195444 801.312296 
L 408.035926 810.815147 
L 409.876409 752.093631 
L 411.716891 755.676976 
L 413.557373 765.165691 
L 415.397855 785.501215 
L 417.238338 699.774403 
L 419.07882 768.790355 
L 420.919302 704.613087 
L 422.759784 813.002885 
L 424.600266 772.160581 
L 426.440749 802.545889 
L 428.281231 796.40076 
L 430.121713 701.20861 
L 431.962195 794.77083 
L 433.802678 759.931757 
L 435.64316 762.832793 
L 437.483642 746.817834 
L 439.324124 735.804662 
L 441.164607 766.01817 
L 443.005089 704.534798 
L 444.845571 761.193621 
L 446.686053 747.882345 
L 448.526536 800.546513 
L 450.367018 794.991519 
L 452.2075 750.515936 
L 454.047982 742.559081 
L 455.888464 714.948718 
L 457.728947 782.688797 
L 459.569429 808.789967 
L 461.409911 757.855472 
L 463.250393 770.111479 
L 465.090876 820.68117 
L 466.931358 763.231848 
L 468.77184 701.588638 
L 470.612322 822.910227 
L 472.452805 791.887735 
L 474.293287 753.954622 
L 476.133769 757.562432 
L 477.974251 752.348614 
L 479.814734 771.129778 
L 481.655216 693.743988 
L 483.495698 755.918911 
L 485.33618 769.646096 
L 487.176662 761.139253 
L 489.017145 767.19957 
L 490.857627 761.071294 
L 492.698109 733.280391 
L 494.538591 735.713325 
L 496.379074 761.868862 
L 498.219556 785.531117 
L 500.060038 767.274053 
L 501.90052 746.760205 
L 503.741003 772.610449 
L 505.581485 757.784753 
L 507.421967 732.874853 
L 509.262449 742.056727 
L 511.102931 771.662451 
L 512.943414 756.344606 
L 514.783896 782.106524 
L 516.624378 781.674848 
L 518.46486 794.583263 
L 520.305343 767.131611 
L 522.145825 751.436331 
L 523.986307 763.084513 
L 525.826789 773.320778 
L 527.667272 753.604497 
L 529.507754 772.150251 
L 531.348236 749.094191 
L 533.188718 768.489161 
L 535.029201 755.171905 
L 536.869683 755.40949 
L 538.710165 763.343301 
L 540.550647 763.637428 
L 542.391129 791.208688 
L 544.231612 746.479126 
L 546.072094 716.955539 
L 547.912576 764.7525 
L 549.753058 760.393878 
L 551.593541 765.868116 
L 553.434023 777.995817 
L 555.274505 760.860893 
L 557.114987 780.169963 
L 558.95547 761.186804 
L 560.795952 777.696212 
L 562.636434 753.523532 
L 564.476916 749.761653 
L 566.317398 754.243187 
L 568.157881 760.467818 
L 569.998363 742.472804 
L 571.838845 767.341468 
L 573.679327 758.015855 
L 575.51981 744.767102 
L 577.360292 737.781455 
L 579.200774 753.800763 
L 581.041256 784.777043 
L 582.881739 776.32783 
L 584.722221 785.159245 
L 586.562703 788.988873 
L 588.403185 771.457612 
L 590.243668 751.511902 
L 592.08415 785.433256 
L 593.924632 787.306207 
L 595.765114 743.569391 
L 597.605596 739.988221 
L 599.446079 771.92952 
L 601.286561 787.833026 
L 603.127043 769.084482 
L 604.967525 760.550456 
L 606.808008 767.459989 
L 608.64849 749.407346 
L 610.488972 761.284958 
L 612.329454 766.378081 
L 614.169937 750.696101 
L 616.010419 756.486463 
L 617.850901 744.937857 
L 619.691383 764.388616 
L 621.531865 769.11154 
L 623.372348 749.383424 
L 625.21283 757.158484 
L 627.053312 746.151292 
L 628.893794 729.016368 
L 630.734277 749.33395 
L 632.574759 750.059753 
L 634.415241 785.338113 
L 636.255723 768.114571 
L 638.096206 762.248889 
L 639.936688 777.656565 
L 641.77717 747.55451 
L 643.617652 768.587022 
L 645.458135 763.927206 
L 647.298617 758.143075 
L 649.139099 773.834005 
L 650.979581 782.89648 
L 652.820063 765.503856 
L 654.660546 751.045975 
L 656.501028 752.837919 
L 658.34151 754.31399 
L 660.181992 795.525991 
L 662.022475 762.867044 
L 663.862957 764.960727 
L 665.703439 782.775241 
L 667.543921 763.435726 
L 669.384404 790.695168 
L 671.224886 759.193952 
L 673.065368 771.6213 
L 674.90585 718.720132 
L 676.746332 750.322221 
L 678.586815 755.58129 
L 680.427297 745.871844 
L 682.267779 751.938141 
L 684.108261 753.083659 
L 685.948744 755.512244 
L 687.789226 753.752376 
L 689.629708 752.35242 
L 691.47019 754.27702 
L 693.310673 785.918212 
L 696.991637 744.820925 
L 698.832119 765.227126 
L 700.672602 759.419074 
L 702.513084 779.274534 
L 706.194048 769.606951 
L 708.03453 746.009937 
L 709.875013 740.679229 
L 711.715495 766.186164 
L 713.555977 809.742481 
L 715.396459 778.537315 
L 717.236942 765.124372 
L 719.077424 781.714536 
L 720.917906 767.411058 
L 722.758388 739.616349 
L 724.598871 757.95739 
L 726.439353 770.134815 
L 728.279835 780.631039 
L 730.120317 743.361541 
L 731.960799 763.076776 
L 733.801282 745.893047 
L 735.641764 772.555287 
L 737.482246 759.147238 
L 739.322728 762.152115 
L 741.163211 770.393645 
L 743.003693 760.269921 
L 744.844175 772.818424 
L 746.684657 748.255304 
L 748.52514 750.805671 
L 750.365622 750.627347 
L 752.206104 777.239025 
L 754.046586 769.989697 
L 755.887069 755.374151 
L 757.727551 743.940176 
L 759.568033 740.006706 
L 761.408515 749.08223 
L 763.248997 757.59016 
L 765.08948 765.314114 
L 766.929962 777.968633 
L 768.770444 781.630267 
L 770.610926 789.132403 
L 772.451409 754.614097 
L 774.291891 739.712579 
L 776.132373 752.360031 
L 777.972855 780.287396 
L 779.813338 769.93558 
L 781.65382 752.709027 
L 783.494302 785.25008 
L 785.334784 747.001972 
L 787.175266 760.284475 
L 787.175266 760.284475 
" clip-path="url(#pf4cd6c8525)" style="fill: none; stroke: #4878d0; stroke-width: 1.5; stroke-linecap: round"/>
   </g>
   <g id="patch_18">
    <path d="M 53.375 831.1 
L 53.375 650.925 
" style="fill: none; stroke: #cccccc; stroke-width: 1.25; stroke-linejoin: miter; stroke-linecap: square"/>
   </g>
   <g id="patch_19">
    <path d="M 851.04 831.1 
L 851.04 650.925 
" style="fill: none; stroke: #cccccc; stroke-width: 1.25; stroke-linejoin: miter; stroke-linecap: square"/>
   </g>
   <g id="patch_20">
    <path d="M 53.375 831.1 
L 851.04 831.1 
" style="fill: none; stroke: #cccccc; stroke-width: 1.25; stroke-linejoin: miter; stroke-linecap: square"/>
   </g>
   <g id="patch_21">
    <path d="M 53.375 650.925 
L 851.04 650.925 
" style="fill: none; stroke: #cccccc; stroke-width: 1.25; stroke-linejoin: miter; stroke-linecap: square"/>
   </g>
   <g id="text_31">
    <!-- Residual -->
    <g style="fill: #262626" transform="translate(428.861875 644.925) scale(0.12 -0.12)">
     <defs>
      <path id="ArialMT-52" d="M 503 0 
L 503 4581 
L 2534 4581 
Q 3147 4581 3465 4457 
Q 3784 4334 3975 4021 
Q 4166 3709 4166 3331 
Q 4166 2844 3850 2509 
Q 3534 2175 2875 2084 
Q 3116 1969 3241 1856 
Q 3506 1613 3744 1247 
L 4541 0 
L 3778 0 
L 3172 953 
Q 2906 1366 2734 1584 
Q 2563 1803 2427 1890 
Q 2291 1978 2150 2013 
Q 2047 2034 1813 2034 
L 1109 2034 
L 1109 0 
L 503 0 
z
M 1109 2559 
L 2413 2559 
Q 2828 2559 3062 2645 
Q 3297 2731 3419 2920 
Q 3541 3109 3541 3331 
Q 3541 3656 3305 3865 
Q 3069 4075 2559 4075 
L 1109 4075 
L 1109 2559 
z
" transform="scale(0.015625)"/>
      <path id="ArialMT-75" d="M 2597 0 
L 2597 488 
Q 2209 -75 1544 -75 
Q 1250 -75 995 37 
Q 741 150 617 320 
Q 494 491 444 738 
Q 409 903 409 1263 
L 409 3319 
L 972 3319 
L 972 1478 
Q 972 1038 1006 884 
Q 1059 663 1231 536 
Q 1403 409 1656 409 
Q 1909 409 2131 539 
Q 2353 669 2445 892 
Q 2538 1116 2538 1541 
L 2538 3319 
L 3100 3319 
L 3100 0 
L 2597 0 
z
" transform="scale(0.015625)"/>
     </defs>
     <use xlink:href="#ArialMT-52"/>
     <use xlink:href="#ArialMT-65" transform="translate(72.216797 0)"/>
     <use xlink:href="#ArialMT-73" transform="translate(127.832031 0)"/>
     <use xlink:href="#ArialMT-69" transform="translate(177.832031 0)"/>
     <use xlink:href="#ArialMT-64" transform="translate(200.048828 0)"/>
     <use xlink:href="#ArialMT-75" transform="translate(255.664062 0)"/>
     <use xlink:href="#ArialMT-61" transform="translate(311.279297 0)"/>
     <use xlink:href="#ArialMT-6c" transform="translate(366.894531 0)"/>
    </g>
   </g>
  </g>
 </g>
 <defs>
  <clipPath id="pff0d2530f5">
   <rect x="53.375" y="27.6" width="797.665" height="180.175"/>
  </clipPath>
  <clipPath id="pbba90fa3f0">
   <rect x="53.375" y="235.375" width="797.665" height="180.175"/>
  </clipPath>
  <clipPath id="p8b5a941380">
   <rect x="53.375" y="443.15" width="797.665" height="180.175"/>
  </clipPath>
  <clipPath id="pf4cd6c8525">
   <rect x="53.375" y="650.925" width="797.665" height="180.175"/>
  </clipPath>
 </defs>
</svg>
