<?xml version="1.0" encoding="utf-8" standalone="no"?>
<!DOCTYPE svg PUBLIC "-//W3C//DTD SVG 1.1//EN"
  "http://www.w3.org/Graphics/SVG/1.1/DTD/svg11.dtd">
<svg xmlns:xlink="http://www.w3.org/1999/xlink" width="864pt" height="864pt" viewBox="0 0 864 864" xmlns="http://www.w3.org/2000/svg" version="1.1">
 <metadata>
  <rdf:RDF xmlns:dc="http://purl.org/dc/elements/1.1/" xmlns:cc="http://creativecommons.org/ns#" xmlns:rdf="http://www.w3.org/1999/02/22-rdf-syntax-ns#">
   <cc:Work>
    <dc:type rdf:resource="http://purl.org/dc/dcmitype/StillImage"/>
    <dc:date>2025-12-12T00:30:24.665670</dc:date>
    <dc:format>image/svg+xml</dc:format>
    <dc:creator>
     <cc:Agent>
      <dc:title>Matplotlib v3.10.7, https://matplotlib.org/</dc:title>
     </cc:Agent>
    </dc:creator>
   </cc:Work>
  </rdf:RDF>
 </metadata>
 <defs>
  <style type="text/css">*{stroke-linejoin: round; stroke-linecap: butt}</style>
 </defs>
 <g id="figure_1">
  <g id="patch_1">
   <path d="M 0 864 
L 864 864 
L 864 0 
L 0 0 
z
" style="fill: #ffffff"/>
  </g>
  <g id="axes_1">
   <g id="patch_2">
    <path d="M 53.375 207.775 
L 851.04 207.775 
L 851.04 27.6 
L 53.375 27.6 
z
" style="fill: #ffffff"/>
   </g>
   <g id="matplotlib.axis_1">
    <g id="xtick_1">
     <g id="line2d_1">
      <path d="M 89.6325 207.775 
L 89.6325 27.6 
" clip-path="url(#p13c622e28b)" style="fill: none; stroke: #cccccc; stroke-linecap: round"/>
     </g>
    </g>
    <g id="xtick_2">
     <g id="line2d_2">
      <path d="M 201.901916 207.775 
L 201.901916 27.6 
" clip-path="url(#p13c622e28b)" style="fill: none; stroke: #cccccc; stroke-linecap: round"/>
     </g>
    </g>
    <g id="xtick_3">
     <g id="line2d_3">
      <path d="M 314.171332 207.775 
L 314.171332 27.6 
" clip-path="url(#p13c622e28b)" style="fill: none; stroke: #cccccc; stroke-linecap: round"/>
     </g>
    </g>
    <g id="xtick_4">
     <g id="line2d_4">
      <path d="M 422.759784 207.775 
L 422.759784 27.6 
" clip-path="url(#p13c622e28b)" style="fill: none; stroke: #cccccc; stroke-linecap: round"/>
     </g>
    </g>
    <g id="xtick_5">
     <g id="line2d_5">
      <path d="M 535.029201 207.775 
L 535.029201 27.6 
" clip-path="url(#p13c622e28b)" style="fill: none; stroke: #cccccc; stroke-linecap: round"/>
     </g>
    </g>
    <g id="xtick_6">
     <g id="line2d_6">
      <path d="M 647.298617 207.775 
L 647.298617 27.6 
" clip-path="url(#p13c622e28b)" style="fill: none; stroke: #cccccc; stroke-linecap: round"/>
     </g>
    </g>
    <g id="xtick_7">
     <g id="line2d_7">
      <path d="M 761.408515 207.775 
L 761.408515 27.6 
" clip-path="url(#p13c622e28b)" style="fill: none; stroke: #cccccc; stroke-linecap: round"/>
     </g>
    </g>
   </g>
   <g id="matplotlib.axis_2">
    <g id="ytick_1">
     <g id="line2d_8">
      <path d="M 53.375 199.585227 
L 851.04 199.585227 
" clip-path="url(#p13c622e28b)" style="fill: none; stroke: #cccccc; stroke-linecap: round"/>
     </g>
     <g id="text_1">
      <!-- 16000 -->
      <g style="fill: #262626" transform="translate(13.289844 203.522024) scale(0.11 -0.11)">
       <defs>
        <path id="ArialMT-31" d="M 2384 0 
L 1822 0 
L 1822 3584 
Q 1619 3391 1289 3197 
Q 959 3003 697 2906 
L 697 3450 
Q 1169 3672 1522 3987 
Q 1875 4303 2022 4600 
L 2384 4600 
L 2384 0 
z
" transform="scale(0.015625)"/>
        <path id="ArialMT-36" d="M 3184 3459 
L 2625 3416 
Q 2550 3747 2413 3897 
Q 2184 4138 1850 4138 
Q 1581 4138 1378 3988 
Q 1113 3794 959 3422 
Q 806 3050 800 2363 
Q 1003 2672 1297 2822 
Q 1591 2972 1913 2972 
Q 2475 2972 2870 2558 
Q 3266 2144 3266 1488 
Q 3266 1056 3080 686 
Q 2894 316 2569 119 
Q 2244 -78 1831 -78 
Q 1128 -78 684 439 
Q 241 956 241 2144 
Q 241 3472 731 4075 
Q 1159 4600 1884 4600 
Q 2425 4600 2770 4297 
Q 3116 3994 3184 3459 
z
M 888 1484 
Q 888 1194 1011 928 
Q 1134 663 1356 523 
Q 1578 384 1822 384 
Q 2178 384 2434 671 
Q 2691 959 2691 1453 
Q 2691 1928 2437 2201 
Q 2184 2475 1800 2475 
Q 1419 2475 1153 2201 
Q 888 1928 888 1484 
z
" transform="scale(0.015625)"/>
        <path id="ArialMT-30" d="M 266 2259 
Q 266 3072 433 3567 
Q 600 4063 929 4331 
Q 1259 4600 1759 4600 
Q 2128 4600 2406 4451 
Q 2684 4303 2865 4023 
Q 3047 3744 3150 3342 
Q 3253 2941 3253 2259 
Q 3253 1453 3087 958 
Q 2922 463 2592 192 
Q 2263 -78 1759 -78 
Q 1097 -78 719 397 
Q 266 969 266 2259 
z
M 844 2259 
Q 844 1131 1108 757 
Q 1372 384 1759 384 
Q 2147 384 2411 759 
Q 2675 1134 2675 2259 
Q 2675 3391 2411 3762 
Q 2147 4134 1753 4134 
Q 1366 4134 1134 3806 
Q 844 3388 844 2259 
z
" transform="scale(0.015625)"/>
       </defs>
       <use xlink:href="#ArialMT-31"/>
       <use xlink:href="#ArialMT-36" transform="translate(55.615234 0)"/>
       <use xlink:href="#ArialMT-30" transform="translate(111.230469 0)"/>
       <use xlink:href="#ArialMT-30" transform="translate(166.845703 0)"/>
       <use xlink:href="#ArialMT-30" transform="translate(222.460938 0)"/>
      </g>
     </g>
    </g>
    <g id="ytick_2">
     <g id="line2d_9">
      <path d="M 53.375 166.826136 
L 851.04 166.826136 
" clip-path="url(#p13c622e28b)" style="fill: none; stroke: #cccccc; stroke-linecap: round"/>
     </g>
     <g id="text_2">
      <!-- 18000 -->
      <g style="fill: #262626" transform="translate(13.289844 170.762933) scale(0.11 -0.11)">
       <defs>
        <path id="ArialMT-38" d="M 1131 2484 
Q 781 2613 612 2850 
Q 444 3088 444 3419 
Q 444 3919 803 4259 
Q 1163 4600 1759 4600 
Q 2359 4600 2725 4251 
Q 3091 3903 3091 3403 
Q 3091 3084 2923 2848 
Q 2756 2613 2416 2484 
Q 2838 2347 3058 2040 
Q 3278 1734 3278 1309 
Q 3278 722 2862 322 
Q 2447 -78 1769 -78 
Q 1091 -78 675 323 
Q 259 725 259 1325 
Q 259 1772 486 2073 
Q 713 2375 1131 2484 
z
M 1019 3438 
Q 1019 3113 1228 2906 
Q 1438 2700 1772 2700 
Q 2097 2700 2305 2904 
Q 2513 3109 2513 3406 
Q 2513 3716 2298 3927 
Q 2084 4138 1766 4138 
Q 1444 4138 1231 3931 
Q 1019 3725 1019 3438 
z
M 838 1322 
Q 838 1081 952 856 
Q 1066 631 1291 507 
Q 1516 384 1775 384 
Q 2178 384 2440 643 
Q 2703 903 2703 1303 
Q 2703 1709 2433 1975 
Q 2163 2241 1756 2241 
Q 1359 2241 1098 1978 
Q 838 1716 838 1322 
z
" transform="scale(0.015625)"/>
       </defs>
       <use xlink:href="#ArialMT-31"/>
       <use xlink:href="#ArialMT-38" transform="translate(55.615234 0)"/>
       <use xlink:href="#ArialMT-30" transform="translate(111.230469 0)"/>
       <use xlink:href="#ArialMT-30" transform="translate(166.845703 0)"/>
       <use xlink:href="#ArialMT-30" transform="translate(222.460938 0)"/>
      </g>
     </g>
    </g>
    <g id="ytick_3">
     <g id="line2d_10">
      <path d="M 53.375 134.067045 
L 851.04 134.067045 
" clip-path="url(#p13c622e28b)" style="fill: none; stroke: #cccccc; stroke-linecap: round"/>
     </g>
     <g id="text_3">
      <!-- 20000 -->
      <g style="fill: #262626" transform="translate(13.289844 138.003842) scale(0.11 -0.11)">
       <defs>
        <path id="ArialMT-32" d="M 3222 541 
L 3222 0 
L 194 0 
Q 188 203 259 391 
Q 375 700 629 1000 
Q 884 1300 1366 1694 
Q 2113 2306 2375 2664 
Q 2638 3022 2638 3341 
Q 2638 3675 2398 3904 
Q 2159 4134 1775 4134 
Q 1369 4134 1125 3890 
Q 881 3647 878 3216 
L 300 3275 
Q 359 3922 746 4261 
Q 1134 4600 1788 4600 
Q 2447 4600 2831 4234 
Q 3216 3869 3216 3328 
Q 3216 3053 3103 2787 
Q 2991 2522 2730 2228 
Q 2469 1934 1863 1422 
Q 1356 997 1212 845 
Q 1069 694 975 541 
L 3222 541 
z
" transform="scale(0.015625)"/>
       </defs>
       <use xlink:href="#ArialMT-32"/>
       <use xlink:href="#ArialMT-30" transform="translate(55.615234 0)"/>
       <use xlink:href="#ArialMT-30" transform="translate(111.230469 0)"/>
       <use xlink:href="#ArialMT-30" transform="translate(166.845703 0)"/>
       <use xlink:href="#ArialMT-30" transform="translate(222.460938 0)"/>
      </g>
     </g>
    </g>
    <g id="ytick_4">
     <g id="line2d_11">
      <path d="M 53.375 101.307955 
L 851.04 101.307955 
" clip-path="url(#p13c622e28b)" style="fill: none; stroke: #cccccc; stroke-linecap: round"/>
     </g>
     <g id="text_4">
      <!-- 22000 -->
      <g style="fill: #262626" transform="translate(13.289844 105.244751) scale(0.11 -0.11)">
       <use xlink:href="#ArialMT-32"/>
       <use xlink:href="#ArialMT-32" transform="translate(55.615234 0)"/>
       <use xlink:href="#ArialMT-30" transform="translate(111.230469 0)"/>
       <use xlink:href="#ArialMT-30" transform="translate(166.845703 0)"/>
       <use xlink:href="#ArialMT-30" transform="translate(222.460938 0)"/>
      </g>
     </g>
    </g>
    <g id="ytick_5">
     <g id="line2d_12">
      <path d="M 53.375 68.548864 
L 851.04 68.548864 
" clip-path="url(#p13c622e28b)" style="fill: none; stroke: #cccccc; stroke-linecap: round"/>
     </g>
     <g id="text_5">
      <!-- 24000 -->
      <g style="fill: #262626" transform="translate(13.289844 72.485661) scale(0.11 -0.11)">
       <defs>
        <path id="ArialMT-34" d="M 2069 0 
L 2069 1097 
L 81 1097 
L 81 1613 
L 2172 4581 
L 2631 4581 
L 2631 1613 
L 3250 1613 
L 3250 1097 
L 2631 1097 
L 2631 0 
L 2069 0 
z
M 2069 1613 
L 2069 3678 
L 634 1613 
L 2069 1613 
z
" transform="scale(0.015625)"/>
       </defs>
       <use xlink:href="#ArialMT-32"/>
       <use xlink:href="#ArialMT-34" transform="translate(55.615234 0)"/>
       <use xlink:href="#ArialMT-30" transform="translate(111.230469 0)"/>
       <use xlink:href="#ArialMT-30" transform="translate(166.845703 0)"/>
       <use xlink:href="#ArialMT-30" transform="translate(222.460938 0)"/>
      </g>
     </g>
    </g>
    <g id="ytick_6">
     <g id="line2d_13">
      <path d="M 53.375 35.789773 
L 851.04 35.789773 
" clip-path="url(#p13c622e28b)" style="fill: none; stroke: #cccccc; stroke-linecap: round"/>
     </g>
     <g id="text_6">
      <!-- 26000 -->
      <g style="fill: #262626" transform="translate(13.289844 39.72657) scale(0.11 -0.11)">
       <use xlink:href="#ArialMT-32"/>
       <use xlink:href="#ArialMT-36" transform="translate(55.615234 0)"/>
       <use xlink:href="#ArialMT-30" transform="translate(111.230469 0)"/>
       <use xlink:href="#ArialMT-30" transform="translate(166.845703 0)"/>
       <use xlink:href="#ArialMT-30" transform="translate(222.460938 0)"/>
      </g>
     </g>
    </g>
   </g>
   <g id="line2d_14">
    <path d="M 89.6325 157.466373 
L 98.834911 134.067045 
L 124.601662 134.067045 
L 131.963591 101.307955 
L 137.485038 101.307955 
L 144.846967 117.6875 
L 150.368414 101.307955 
L 157.730343 101.307955 
L 163.251789 52.169318 
L 170.613718 101.307955 
L 176.135165 52.169318 
L 196.38047 52.169318 
L 209.263845 68.548864 
L 214.785292 52.169318 
L 222.147221 35.789773 
L 227.668668 52.169318 
L 235.030596 52.169318 
L 240.552043 101.307955 
L 330.735673 101.307955 
L 338.097602 52.169318 
L 376.747728 52.169318 
L 382.269175 134.067045 
L 439.324124 134.067045 
L 441.164607 84.928409 
L 454.047982 84.928409 
L 459.569429 52.169318 
L 549.753058 52.169318 
L 557.114987 101.307955 
L 595.765114 101.307955 
L 601.286561 166.826136 
L 608.64849 52.169318 
L 614.169937 166.826136 
L 621.531865 166.826136 
L 627.053312 199.585227 
L 639.936688 199.585227 
L 647.298617 166.826136 
L 652.820063 166.826136 
L 665.703439 134.067045 
L 750.365622 134.067045 
L 755.887069 101.307955 
L 768.770444 134.067045 
L 789.015749 134.067045 
L 794.537195 52.169318 
L 801.899124 101.307955 
L 814.7825 101.307955 
L 814.7825 101.307955 
" clip-path="url(#p13c622e28b)" style="fill: none; stroke: #4878d0; stroke-width: 1.5; stroke-linecap: round"/>
   </g>
   <g id="patch_3">
    <path d="M 53.375 207.775 
L 53.375 27.6 
" style="fill: none; stroke: #cccccc; stroke-width: 1.25; stroke-linejoin: miter; stroke-linecap: square"/>
   </g>
   <g id="patch_4">
    <path d="M 851.04 207.775 
L 851.04 27.6 
" style="fill: none; stroke: #cccccc; stroke-width: 1.25; stroke-linejoin: miter; stroke-linecap: square"/>
   </g>
   <g id="patch_5">
    <path d="M 53.375 207.775 
L 851.04 207.775 
" style="fill: none; stroke: #cccccc; stroke-width: 1.25; stroke-linejoin: miter; stroke-linecap: square"/>
   </g>
   <g id="patch_6">
    <path d="M 53.375 27.6 
L 851.04 27.6 
" style="fill: none; stroke: #cccccc; stroke-width: 1.25; stroke-linejoin: miter; stroke-linecap: square"/>
   </g>
   <g id="text_7">
    <!-- Original -->
    <g style="fill: #262626" transform="translate(431.53375 21.6) scale(0.12 -0.12)">
     <defs>
      <path id="ArialMT-4f" d="M 309 2231 
Q 309 3372 921 4017 
Q 1534 4663 2503 4663 
Q 3138 4663 3647 4359 
Q 4156 4056 4423 3514 
Q 4691 2972 4691 2284 
Q 4691 1588 4409 1038 
Q 4128 488 3612 205 
Q 3097 -78 2500 -78 
Q 1853 -78 1343 234 
Q 834 547 571 1087 
Q 309 1628 309 2231 
z
M 934 2222 
Q 934 1394 1379 917 
Q 1825 441 2497 441 
Q 3181 441 3623 922 
Q 4066 1403 4066 2288 
Q 4066 2847 3877 3264 
Q 3688 3681 3323 3911 
Q 2959 4141 2506 4141 
Q 1863 4141 1398 3698 
Q 934 3256 934 2222 
z
" transform="scale(0.015625)"/>
      <path id="ArialMT-72" d="M 416 0 
L 416 3319 
L 922 3319 
L 922 2816 
Q 1116 3169 1280 3281 
Q 1444 3394 1641 3394 
Q 1925 3394 2219 3213 
L 2025 2691 
Q 1819 2813 1613 2813 
Q 1428 2813 1281 2702 
Q 1134 2591 1072 2394 
Q 978 2094 978 1738 
L 978 0 
L 416 0 
z
" transform="scale(0.015625)"/>
      <path id="ArialMT-69" d="M 425 3934 
L 425 4581 
L 988 4581 
L 988 3934 
L 425 3934 
z
M 425 0 
L 425 3319 
L 988 3319 
L 988 0 
L 425 0 
z
" transform="scale(0.015625)"/>
      <path id="ArialMT-67" d="M 319 -275 
L 866 -356 
Q 900 -609 1056 -725 
Q 1266 -881 1628 -881 
Q 2019 -881 2231 -725 
Q 2444 -569 2519 -288 
Q 2563 -116 2559 434 
Q 2191 0 1641 0 
Q 956 0 581 494 
Q 206 988 206 1678 
Q 206 2153 378 2554 
Q 550 2956 876 3175 
Q 1203 3394 1644 3394 
Q 2231 3394 2613 2919 
L 2613 3319 
L 3131 3319 
L 3131 450 
Q 3131 -325 2973 -648 
Q 2816 -972 2473 -1159 
Q 2131 -1347 1631 -1347 
Q 1038 -1347 672 -1080 
Q 306 -813 319 -275 
z
M 784 1719 
Q 784 1066 1043 766 
Q 1303 466 1694 466 
Q 2081 466 2343 764 
Q 2606 1063 2606 1700 
Q 2606 2309 2336 2618 
Q 2066 2928 1684 2928 
Q 1309 2928 1046 2623 
Q 784 2319 784 1719 
z
" transform="scale(0.015625)"/>
      <path id="ArialMT-6e" d="M 422 0 
L 422 3319 
L 928 3319 
L 928 2847 
Q 1294 3394 1984 3394 
Q 2284 3394 2536 3286 
Q 2788 3178 2913 3003 
Q 3038 2828 3088 2588 
Q 3119 2431 3119 2041 
L 3119 0 
L 2556 0 
L 2556 2019 
Q 2556 2363 2490 2533 
Q 2425 2703 2258 2804 
Q 2091 2906 1866 2906 
Q 1506 2906 1245 2678 
Q 984 2450 984 1813 
L 984 0 
L 422 0 
z
" transform="scale(0.015625)"/>
      <path id="ArialMT-61" d="M 2588 409 
Q 2275 144 1986 34 
Q 1697 -75 1366 -75 
Q 819 -75 525 192 
Q 231 459 231 875 
Q 231 1119 342 1320 
Q 453 1522 633 1644 
Q 813 1766 1038 1828 
Q 1203 1872 1538 1913 
Q 2219 1994 2541 2106 
Q 2544 2222 2544 2253 
Q 2544 2597 2384 2738 
Q 2169 2928 1744 2928 
Q 1347 2928 1158 2789 
Q 969 2650 878 2297 
L 328 2372 
Q 403 2725 575 2942 
Q 747 3159 1072 3276 
Q 1397 3394 1825 3394 
Q 2250 3394 2515 3294 
Q 2781 3194 2906 3042 
Q 3031 2891 3081 2659 
Q 3109 2516 3109 2141 
L 3109 1391 
Q 3109 606 3145 398 
Q 3181 191 3288 0 
L 2700 0 
Q 2613 175 2588 409 
z
M 2541 1666 
Q 2234 1541 1622 1453 
Q 1275 1403 1131 1340 
Q 988 1278 909 1158 
Q 831 1038 831 891 
Q 831 666 1001 516 
Q 1172 366 1500 366 
Q 1825 366 2078 508 
Q 2331 650 2450 897 
Q 2541 1088 2541 1459 
L 2541 1666 
z
" transform="scale(0.015625)"/>
      <path id="ArialMT-6c" d="M 409 0 
L 409 4581 
L 972 4581 
L 972 0 
L 409 0 
z
" transform="scale(0.015625)"/>
     </defs>
     <use xlink:href="#ArialMT-4f"/>
     <use xlink:href="#ArialMT-72" transform="translate(77.783203 0)"/>
     <use xlink:href="#ArialMT-69" transform="translate(111.083984 0)"/>
     <use xlink:href="#ArialMT-67" transform="translate(133.300781 0)"/>
     <use xlink:href="#ArialMT-69" transform="translate(188.916016 0)"/>
     <use xlink:href="#ArialMT-6e" transform="translate(211.132812 0)"/>
     <use xlink:href="#ArialMT-61" transform="translate(266.748047 0)"/>
     <use xlink:href="#ArialMT-6c" transform="translate(322.363281 0)"/>
    </g>
   </g>
  </g>
  <g id="axes_2">
   <g id="patch_7">
    <path d="M 53.375 415.55 
L 851.04 415.55 
L 851.04 235.375 
L 53.375 235.375 
z
" style="fill: #ffffff"/>
   </g>
   <g id="matplotlib.axis_3">
    <g id="xtick_8">
     <g id="line2d_15">
      <path d="M 89.6325 415.55 
L 89.6325 235.375 
" clip-path="url(#pf29461e28e)" style="fill: none; stroke: #cccccc; stroke-linecap: round"/>
     </g>
    </g>
    <g id="xtick_9">
     <g id="line2d_16">
      <path d="M 201.901916 415.55 
L 201.901916 235.375 
" clip-path="url(#pf29461e28e)" style="fill: none; stroke: #cccccc; stroke-linecap: round"/>
     </g>
    </g>
    <g id="xtick_10">
     <g id="line2d_17">
      <path d="M 314.171332 415.55 
L 314.171332 235.375 
" clip-path="url(#pf29461e28e)" style="fill: none; stroke: #cccccc; stroke-linecap: round"/>
     </g>
    </g>
    <g id="xtick_11">
     <g id="line2d_18">
      <path d="M 422.759784 415.55 
L 422.759784 235.375 
" clip-path="url(#pf29461e28e)" style="fill: none; stroke: #cccccc; stroke-linecap: round"/>
     </g>
    </g>
    <g id="xtick_12">
     <g id="line2d_19">
      <path d="M 535.029201 415.55 
L 535.029201 235.375 
" clip-path="url(#pf29461e28e)" style="fill: none; stroke: #cccccc; stroke-linecap: round"/>
     </g>
    </g>
    <g id="xtick_13">
     <g id="line2d_20">
      <path d="M 647.298617 415.55 
L 647.298617 235.375 
" clip-path="url(#pf29461e28e)" style="fill: none; stroke: #cccccc; stroke-linecap: round"/>
     </g>
    </g>
    <g id="xtick_14">
     <g id="line2d_21">
      <path d="M 761.408515 415.55 
L 761.408515 235.375 
" clip-path="url(#pf29461e28e)" style="fill: none; stroke: #cccccc; stroke-linecap: round"/>
     </g>
    </g>
   </g>
   <g id="matplotlib.axis_4">
    <g id="ytick_7">
     <g id="line2d_22">
      <path d="M 53.375 399.324977 
L 851.04 399.324977 
" clip-path="url(#pf29461e28e)" style="fill: none; stroke: #cccccc; stroke-linecap: round"/>
     </g>
     <g id="text_8">
      <!-- 18000 -->
      <g style="fill: #262626" transform="translate(13.289844 403.261774) scale(0.11 -0.11)">
       <use xlink:href="#ArialMT-31"/>
       <use xlink:href="#ArialMT-38" transform="translate(55.615234 0)"/>
       <use xlink:href="#ArialMT-30" transform="translate(111.230469 0)"/>
       <use xlink:href="#ArialMT-30" transform="translate(166.845703 0)"/>
       <use xlink:href="#ArialMT-30" transform="translate(222.460938 0)"/>
      </g>
     </g>
    </g>
    <g id="ytick_8">
     <g id="line2d_23">
      <path d="M 53.375 354.822062 
L 851.04 354.822062 
" clip-path="url(#pf29461e28e)" style="fill: none; stroke: #cccccc; stroke-linecap: round"/>
     </g>
     <g id="text_9">
      <!-- 20000 -->
      <g style="fill: #262626" transform="translate(13.289844 358.758859) scale(0.11 -0.11)">
       <use xlink:href="#ArialMT-32"/>
       <use xlink:href="#ArialMT-30" transform="translate(55.615234 0)"/>
       <use xlink:href="#ArialMT-30" transform="translate(111.230469 0)"/>
       <use xlink:href="#ArialMT-30" transform="translate(166.845703 0)"/>
       <use xlink:href="#ArialMT-30" transform="translate(222.460938 0)"/>
      </g>
     </g>
    </g>
    <g id="ytick_9">
     <g id="line2d_24">
      <path d="M 53.375 310.319146 
L 851.04 310.319146 
" clip-path="url(#pf29461e28e)" style="fill: none; stroke: #cccccc; stroke-linecap: round"/>
     </g>
     <g id="text_10">
      <!-- 22000 -->
      <g style="fill: #262626" transform="translate(13.289844 314.255943) scale(0.11 -0.11)">
       <use xlink:href="#ArialMT-32"/>
       <use xlink:href="#ArialMT-32" transform="translate(55.615234 0)"/>
       <use xlink:href="#ArialMT-30" transform="translate(111.230469 0)"/>
       <use xlink:href="#ArialMT-30" transform="translate(166.845703 0)"/>
       <use xlink:href="#ArialMT-30" transform="translate(222.460938 0)"/>
      </g>
     </g>
    </g>
    <g id="ytick_10">
     <g id="line2d_25">
      <path d="M 53.375 265.816231 
L 851.04 265.816231 
" clip-path="url(#pf29461e28e)" style="fill: none; stroke: #cccccc; stroke-linecap: round"/>
     </g>
     <g id="text_11">
      <!-- 24000 -->
      <g style="fill: #262626" transform="translate(13.289844 269.753027) scale(0.11 -0.11)">
       <use xlink:href="#ArialMT-32"/>
       <use xlink:href="#ArialMT-34" transform="translate(55.615234 0)"/>
       <use xlink:href="#ArialMT-30" transform="translate(111.230469 0)"/>
       <use xlink:href="#ArialMT-30" transform="translate(166.845703 0)"/>
       <use xlink:href="#ArialMT-30" transform="translate(222.460938 0)"/>
      </g>
     </g>
    </g>
   </g>
   <g id="line2d_26">
    <path d="M 117.239734 345.603598 
L 126.442145 336.650038 
L 130.123109 333.683177 
L 131.963591 331.828889 
L 133.804074 329.232885 
L 137.485038 322.464734 
L 139.32552 319.590587 
L 141.166003 317.272727 
L 144.846967 313.656865 
L 146.687449 311.060861 
L 148.527931 307.723143 
L 154.049378 296.782843 
L 155.88986 293.630553 
L 157.730343 290.849121 
L 159.570825 288.438546 
L 166.932754 279.445248 
L 170.613718 274.306222 
L 174.294683 269.012667 
L 176.135165 266.787522 
L 177.975647 264.915577 
L 185.337576 258.27546 
L 187.178058 256.54479 
L 189.018541 255.339502 
L 192.699505 253.948786 
L 194.539987 252.465356 
L 196.38047 250.456542 
L 198.220952 248.138682 
L 200.061434 246.160776 
L 201.901916 245.048203 
L 203.742398 244.677346 
L 207.423363 244.677346 
L 209.263845 245.048203 
L 211.104327 246.160776 
L 212.94481 248.015064 
L 225.828185 263.538104 
L 229.50915 267.564561 
L 233.190114 271.167176 
L 240.552043 277.807293 
L 242.392525 279.90882 
L 244.233008 282.226681 
L 247.913972 287.418687 
L 251.594937 293.136077 
L 253.435419 295.732081 
L 257.116383 300.30599 
L 262.63783 306.981427 
L 264.478312 308.835716 
L 266.318794 309.948289 
L 268.159277 310.319146 
L 303.128439 310.319146 
L 304.968921 310.041003 
L 306.809404 309.206573 
L 308.649886 307.815857 
L 310.490368 305.868855 
L 349.140495 259.140793 
L 350.980977 257.533745 
L 352.821459 257.162887 
L 354.661942 258.02822 
L 358.342906 260.995081 
L 360.183388 262.756655 
L 362.023871 265.074515 
L 363.864353 267.948662 
L 365.704835 271.379095 
L 404.354962 349.259197 
L 406.195444 352.349676 
L 408.035926 354.203964 
L 409.876409 354.822062 
L 411.716891 354.822062 
L 413.557373 353.709489 
L 426.440749 338.133468 
L 428.281231 335.661083 
L 430.121713 332.694222 
L 431.962195 329.232885 
L 466.931358 258.769936 
L 468.77184 256.173932 
L 481.655216 245.789919 
L 483.495698 244.553728 
L 485.33618 243.812012 
L 487.176662 243.564773 
L 522.145825 243.564773 
L 523.986307 243.842916 
L 525.826789 244.677346 
L 527.667272 246.068062 
L 529.507754 248.015064 
L 568.157881 294.743126 
L 569.998363 297.462747 
L 571.838845 301.171323 
L 575.51981 310.411861 
L 577.360292 313.656865 
L 579.200774 315.325724 
L 581.041256 315.140295 
L 582.881739 314.614912 
L 584.722221 315.263913 
L 586.562703 317.365441 
L 593.924632 329.232885 
L 595.765114 332.446986 
L 597.605596 336.155562 
L 601.286561 344.808906 
L 614.169937 375.775518 
L 616.010419 379.669523 
L 617.850901 383.19267 
L 621.531865 389.311821 
L 623.372348 392.278682 
L 625.21283 394.751068 
L 627.053312 396.128541 
L 630.734277 396.424344 
L 632.574759 397.629631 
L 634.415241 399.921001 
L 636.255723 403.298454 
L 638.096206 406.247654 
L 639.936688 407.360227 
L 641.77717 406.74213 
L 649.139099 400.808408 
L 650.979581 399.077738 
L 652.820063 396.852592 
L 654.660546 394.132971 
L 669.384404 370.583511 
L 671.224886 368.172936 
L 673.065368 366.133219 
L 674.90585 364.46436 
L 682.267779 358.636596 
L 684.108261 357.471042 
L 685.948744 356.517408 
L 687.789226 355.775692 
L 689.629708 355.245896 
L 691.47019 354.92802 
L 695.151155 354.822062 
L 722.758388 354.822062 
L 724.598871 354.574822 
L 726.439353 353.833107 
L 728.279835 352.596916 
L 730.120317 351.219443 
L 731.960799 350.05389 
L 733.801282 349.100255 
L 735.641764 348.35854 
L 737.482246 347.828744 
L 739.322728 347.510867 
L 743.003693 347.404909 
L 761.408515 347.404909 
L 763.248997 346.786812 
L 765.08948 344.932524 
L 766.929962 341.842045 
L 768.770444 338.411612 
L 770.610926 335.537465 
L 772.451409 333.219605 
L 774.291891 331.458031 
L 777.972855 328.49117 
L 779.813338 327.254979 
L 781.65382 326.513264 
L 783.494302 326.266024 
L 785.334784 326.160067 
L 787.175266 325.84219 
L 787.175266 325.84219 
" clip-path="url(#pf29461e28e)" style="fill: none; stroke: #4878d0; stroke-width: 1.5; stroke-linecap: round"/>
   </g>
   <g id="patch_8">
    <path d="M 53.375 415.55 
L 53.375 235.375 
" style="fill: none; stroke: #cccccc; stroke-width: 1.25; stroke-linejoin: miter; stroke-linecap: square"/>
   </g>
   <g id="patch_9">
    <path d="M 851.04 415.55 
L 851.04 235.375 
" style="fill: none; stroke: #cccccc; stroke-width: 1.25; stroke-linejoin: miter; stroke-linecap: square"/>
   </g>
   <g id="patch_10">
    <path d="M 53.375 415.55 
L 851.04 415.55 
" style="fill: none; stroke: #cccccc; stroke-width: 1.25; stroke-linejoin: miter; stroke-linecap: square"/>
   </g>
   <g id="patch_11">
    <path d="M 53.375 235.375 
L 851.04 235.375 
" style="fill: none; stroke: #cccccc; stroke-width: 1.25; stroke-linejoin: miter; stroke-linecap: square"/>
   </g>
   <g id="text_12">
    <!-- Trend -->
    <g style="fill: #262626" transform="translate(436.760312 229.375) scale(0.12 -0.12)">
     <defs>
      <path id="ArialMT-54" d="M 1659 0 
L 1659 4041 
L 150 4041 
L 150 4581 
L 3781 4581 
L 3781 4041 
L 2266 4041 
L 2266 0 
L 1659 0 
z
" transform="scale(0.015625)"/>
      <path id="ArialMT-65" d="M 2694 1069 
L 3275 997 
Q 3138 488 2766 206 
Q 2394 -75 1816 -75 
Q 1088 -75 661 373 
Q 234 822 234 1631 
Q 234 2469 665 2931 
Q 1097 3394 1784 3394 
Q 2450 3394 2872 2941 
Q 3294 2488 3294 1666 
Q 3294 1616 3291 1516 
L 816 1516 
Q 847 969 1125 678 
Q 1403 388 1819 388 
Q 2128 388 2347 550 
Q 2566 713 2694 1069 
z
M 847 1978 
L 2700 1978 
Q 2663 2397 2488 2606 
Q 2219 2931 1791 2931 
Q 1403 2931 1139 2672 
Q 875 2413 847 1978 
z
" transform="scale(0.015625)"/>
      <path id="ArialMT-64" d="M 2575 0 
L 2575 419 
Q 2259 -75 1647 -75 
Q 1250 -75 917 144 
Q 584 363 401 755 
Q 219 1147 219 1656 
Q 219 2153 384 2558 
Q 550 2963 881 3178 
Q 1213 3394 1622 3394 
Q 1922 3394 2156 3267 
Q 2391 3141 2538 2938 
L 2538 4581 
L 3097 4581 
L 3097 0 
L 2575 0 
z
M 797 1656 
Q 797 1019 1065 703 
Q 1334 388 1700 388 
Q 2069 388 2326 689 
Q 2584 991 2584 1609 
Q 2584 2291 2321 2609 
Q 2059 2928 1675 2928 
Q 1300 2928 1048 2622 
Q 797 2316 797 1656 
z
" transform="scale(0.015625)"/>
     </defs>
     <use xlink:href="#ArialMT-54"/>
     <use xlink:href="#ArialMT-72" transform="translate(57.333984 0)"/>
     <use xlink:href="#ArialMT-65" transform="translate(90.634766 0)"/>
     <use xlink:href="#ArialMT-6e" transform="translate(146.25 0)"/>
     <use xlink:href="#ArialMT-64" transform="translate(201.865234 0)"/>
    </g>
   </g>
  </g>
  <g id="axes_3">
   <g id="patch_12">
    <path d="M 53.375 623.325 
L 851.04 623.325 
L 851.04 443.15 
L 53.375 443.15 
z
" style="fill: #ffffff"/>
   </g>
   <g id="matplotlib.axis_5">
    <g id="xtick_15">
     <g id="line2d_27">
      <path d="M 89.6325 623.325 
L 89.6325 443.15 
" clip-path="url(#pc7c426a500)" style="fill: none; stroke: #cccccc; stroke-linecap: round"/>
     </g>
    </g>
    <g id="xtick_16">
     <g id="line2d_28">
      <path d="M 201.901916 623.325 
L 201.901916 443.15 
" clip-path="url(#pc7c426a500)" style="fill: none; stroke: #cccccc; stroke-linecap: round"/>
     </g>
    </g>
    <g id="xtick_17">
     <g id="line2d_29">
      <path d="M 314.171332 623.325 
L 314.171332 443.15 
" clip-path="url(#pc7c426a500)" style="fill: none; stroke: #cccccc; stroke-linecap: round"/>
     </g>
    </g>
    <g id="xtick_18">
     <g id="line2d_30">
      <path d="M 422.759784 623.325 
L 422.759784 443.15 
" clip-path="url(#pc7c426a500)" style="fill: none; stroke: #cccccc; stroke-linecap: round"/>
     </g>
    </g>
    <g id="xtick_19">
     <g id="line2d_31">
      <path d="M 535.029201 623.325 
L 535.029201 443.15 
" clip-path="url(#pc7c426a500)" style="fill: none; stroke: #cccccc; stroke-linecap: round"/>
     </g>
    </g>
    <g id="xtick_20">
     <g id="line2d_32">
      <path d="M 647.298617 623.325 
L 647.298617 443.15 
" clip-path="url(#pc7c426a500)" style="fill: none; stroke: #cccccc; stroke-linecap: round"/>
     </g>
    </g>
    <g id="xtick_21">
     <g id="line2d_33">
      <path d="M 761.408515 623.325 
L 761.408515 443.15 
" clip-path="url(#pc7c426a500)" style="fill: none; stroke: #cccccc; stroke-linecap: round"/>
     </g>
    </g>
   </g>
   <g id="matplotlib.axis_6">
    <g id="ytick_11">
     <g id="line2d_34">
      <path d="M 53.375 585.69938 
L 851.04 585.69938 
" clip-path="url(#pc7c426a500)" style="fill: none; stroke: #cccccc; stroke-linecap: round"/>
     </g>
     <g id="text_13">
      <!-- −200 -->
      <g style="fill: #262626" transform="translate(19.099219 589.636177) scale(0.11 -0.11)">
       <defs>
        <path id="ArialMT-2212" d="M 3381 1997 
L 356 1997 
L 356 2522 
L 3381 2522 
L 3381 1997 
z
" transform="scale(0.015625)"/>
       </defs>
       <use xlink:href="#ArialMT-2212"/>
       <use xlink:href="#ArialMT-32" transform="translate(58.398438 0)"/>
       <use xlink:href="#ArialMT-30" transform="translate(114.013672 0)"/>
       <use xlink:href="#ArialMT-30" transform="translate(169.628906 0)"/>
      </g>
     </g>
    </g>
    <g id="ytick_12">
     <g id="line2d_35">
      <path d="M 53.375 545.323822 
L 851.04 545.323822 
" clip-path="url(#pc7c426a500)" style="fill: none; stroke: #cccccc; stroke-linecap: round"/>
     </g>
     <g id="text_14">
      <!-- 0 -->
      <g style="fill: #262626" transform="translate(37.757969 549.260619) scale(0.11 -0.11)">
       <use xlink:href="#ArialMT-30"/>
      </g>
     </g>
    </g>
    <g id="ytick_13">
     <g id="line2d_36">
      <path d="M 53.375 504.948263 
L 851.04 504.948263 
" clip-path="url(#pc7c426a500)" style="fill: none; stroke: #cccccc; stroke-linecap: round"/>
     </g>
     <g id="text_15">
      <!-- 200 -->
      <g style="fill: #262626" transform="translate(25.523906 508.88506) scale(0.11 -0.11)">
       <use xlink:href="#ArialMT-32"/>
       <use xlink:href="#ArialMT-30" transform="translate(55.615234 0)"/>
       <use xlink:href="#ArialMT-30" transform="translate(111.230469 0)"/>
      </g>
     </g>
    </g>
    <g id="ytick_14">
     <g id="line2d_37">
      <path d="M 53.375 464.572704 
L 851.04 464.572704 
" clip-path="url(#pc7c426a500)" style="fill: none; stroke: #cccccc; stroke-linecap: round"/>
     </g>
     <g id="text_16">
      <!-- 400 -->
      <g style="fill: #262626" transform="translate(25.523906 468.509501) scale(0.11 -0.11)">
       <use xlink:href="#ArialMT-34"/>
       <use xlink:href="#ArialMT-30" transform="translate(55.615234 0)"/>
       <use xlink:href="#ArialMT-30" transform="translate(111.230469 0)"/>
      </g>
     </g>
    </g>
   </g>
   <g id="line2d_38">
    <path d="M 89.6325 556.69469 
L 93.313464 511.031952 
L 95.153947 504.222614 
L 98.834911 518.502216 
L 100.675393 540.178807 
L 102.515876 585.74156 
L 104.356358 615.135227 
L 106.19684 594.176443 
L 108.037322 539.951731 
L 109.877805 476.895034 
L 111.718287 451.339773 
L 113.558769 504.222502 
L 115.399251 562.052303 
L 117.239734 581.615266 
L 120.920698 553.810852 
L 122.76118 555.215862 
L 124.601662 546.120217 
L 126.442145 533.783406 
L 128.282627 542.755584 
L 130.123109 562.783198 
L 131.963591 554.611953 
L 135.644556 554.692063 
L 137.485038 554.692063 
L 141.166003 563.103637 
L 143.006485 569.71278 
L 144.846967 556.69469 
L 148.527931 511.031952 
L 150.368414 504.222614 
L 154.049378 518.502216 
L 155.88986 540.178807 
L 157.730343 585.74156 
L 159.570825 615.135227 
L 161.411307 594.176443 
L 163.251789 539.951731 
L 165.092272 476.895034 
L 166.932754 451.339773 
L 168.773236 504.222502 
L 170.613718 562.052303 
L 172.454201 581.615266 
L 176.135165 553.810852 
L 177.975647 555.215862 
L 179.816129 546.120217 
L 181.656612 533.783406 
L 183.497094 542.755584 
L 185.337576 562.783198 
L 187.178058 554.611953 
L 190.859023 554.692063 
L 192.699505 554.692063 
L 196.38047 563.103637 
L 198.220952 569.71278 
L 200.061434 556.69469 
L 203.742398 511.031952 
L 205.582881 504.222614 
L 209.263845 518.502216 
L 211.104327 540.178807 
L 212.94481 585.74156 
L 214.785292 615.135227 
L 216.625774 594.176443 
L 218.466256 539.951731 
L 220.306739 476.895034 
L 222.147221 451.339773 
L 223.987703 504.222502 
L 225.828185 562.052303 
L 227.668668 581.615266 
L 231.349632 553.810852 
L 233.190114 555.215862 
L 235.030596 546.120217 
L 236.871079 533.783406 
L 238.711561 542.755584 
L 240.552043 562.783198 
L 242.392525 554.611953 
L 246.07349 554.692063 
L 247.913972 554.692063 
L 251.594937 563.103637 
L 253.435419 569.71278 
L 255.275901 556.69469 
L 258.956865 511.031952 
L 260.797348 504.222614 
L 264.478312 518.502216 
L 266.318794 540.178807 
L 268.159277 585.74156 
L 269.999759 615.135227 
L 271.840241 594.176443 
L 273.680723 539.951731 
L 275.521206 476.895034 
L 277.361688 451.339773 
L 279.20217 504.222502 
L 281.042652 562.052303 
L 282.883135 581.615266 
L 286.564099 553.810852 
L 288.404581 555.215862 
L 290.245063 546.120217 
L 292.085546 533.783406 
L 293.926028 542.755584 
L 295.76651 562.783198 
L 297.606992 554.611953 
L 301.287957 554.692063 
L 303.128439 554.692063 
L 306.809404 563.103637 
L 308.649886 569.71278 
L 310.490368 556.69469 
L 314.171332 511.031952 
L 316.011815 504.222614 
L 319.692779 518.502216 
L 321.533261 540.178807 
L 323.373744 585.74156 
L 325.214226 615.135227 
L 327.054708 594.176443 
L 328.89519 539.951731 
L 330.735673 476.895034 
L 332.576155 451.339773 
L 334.416637 504.222502 
L 336.257119 562.052303 
L 338.097602 581.615266 
L 341.778566 553.810852 
L 343.619048 555.215862 
L 345.45953 546.120217 
L 347.300013 533.783406 
L 349.140495 542.755584 
L 350.980977 562.783198 
L 352.821459 554.611953 
L 356.502424 554.692063 
L 358.342906 554.692063 
L 362.023871 563.103637 
L 363.864353 569.71278 
L 365.704835 556.69469 
L 369.385799 511.031952 
L 371.226282 504.222614 
L 374.907246 518.502216 
L 376.747728 540.178807 
L 378.588211 585.74156 
L 380.428693 615.135227 
L 382.269175 594.176443 
L 384.109657 539.951731 
L 385.95014 476.895034 
L 387.790622 451.339773 
L 389.631104 504.222502 
L 391.471586 562.052303 
L 393.312069 581.615266 
L 396.993033 553.810852 
L 398.833515 555.215862 
L 400.673997 546.120217 
L 402.51448 533.783406 
L 404.354962 542.755584 
L 406.195444 562.783198 
L 408.035926 554.611953 
L 411.716891 554.692063 
L 413.557373 554.692063 
L 417.238338 563.103637 
L 419.07882 569.71278 
L 420.919302 556.69469 
L 424.600266 511.031952 
L 426.440749 504.222614 
L 430.121713 518.502216 
L 431.962195 540.178807 
L 433.802678 585.74156 
L 435.64316 615.135227 
L 437.483642 594.176443 
L 439.324124 539.951731 
L 441.164607 476.895034 
L 443.005089 451.339773 
L 444.845571 504.222502 
L 446.686053 562.052303 
L 448.526536 581.615266 
L 452.2075 553.810852 
L 454.047982 555.215862 
L 455.888464 546.120217 
L 457.728947 533.783406 
L 459.569429 542.755584 
L 461.409911 562.783198 
L 463.250393 554.611953 
L 466.931358 554.692063 
L 468.77184 554.692063 
L 472.452805 563.103637 
L 474.293287 569.71278 
L 476.133769 556.69469 
L 479.814734 511.031952 
L 481.655216 504.222614 
L 485.33618 518.502216 
L 487.176662 540.178807 
L 489.017145 585.74156 
L 490.857627 615.135227 
L 492.698109 594.176443 
L 494.538591 539.951731 
L 496.379074 476.895034 
L 498.219556 451.339773 
L 500.060038 504.222502 
L 501.90052 562.052303 
L 503.741003 581.615266 
L 507.421967 553.810852 
L 509.262449 555.215862 
L 511.102931 546.120217 
L 512.943414 533.783406 
L 514.783896 542.755584 
L 516.624378 562.783198 
L 518.46486 554.611953 
L 522.145825 554.692063 
L 523.986307 554.692063 
L 527.667272 563.103637 
L 529.507754 569.71278 
L 531.348236 556.69469 
L 535.029201 511.031952 
L 536.869683 504.222614 
L 540.550647 518.502216 
L 542.391129 540.178807 
L 544.231612 585.74156 
L 546.072094 615.135227 
L 547.912576 594.176443 
L 549.753058 539.951731 
L 551.593541 476.895034 
L 553.434023 451.339773 
L 555.274505 504.222502 
L 557.114987 562.052303 
L 558.95547 581.615266 
L 562.636434 553.810852 
L 564.476916 555.215862 
L 566.317398 546.120217 
L 568.157881 533.783406 
L 569.998363 542.755584 
L 571.838845 562.783198 
L 573.679327 554.611953 
L 577.360292 554.692063 
L 579.200774 554.692063 
L 582.881739 563.103637 
L 584.722221 569.71278 
L 586.562703 556.69469 
L 590.243668 511.031952 
L 592.08415 504.222614 
L 595.765114 518.502216 
L 597.605596 540.178807 
L 599.446079 585.74156 
L 601.286561 615.135227 
L 603.127043 594.176443 
L 604.967525 539.951731 
L 606.808008 476.895034 
L 608.64849 451.339773 
L 610.488972 504.222502 
L 612.329454 562.052303 
L 614.169937 581.615266 
L 617.850901 553.810852 
L 619.691383 555.215862 
L 621.531865 546.120217 
L 623.372348 533.783406 
L 625.21283 542.755584 
L 627.053312 562.783198 
L 628.893794 554.611953 
L 632.574759 554.692063 
L 634.415241 554.692063 
L 638.096206 563.103637 
L 639.936688 569.71278 
L 641.77717 556.69469 
L 645.458135 511.031952 
L 647.298617 504.222614 
L 650.979581 518.502216 
L 652.820063 540.178807 
L 654.660546 585.74156 
L 656.501028 615.135227 
L 658.34151 594.176443 
L 660.181992 539.951731 
L 662.022475 476.895034 
L 663.862957 451.339773 
L 665.703439 504.222502 
L 667.543921 562.052303 
L 669.384404 581.615266 
L 673.065368 553.810852 
L 674.90585 555.215862 
L 676.746332 546.120217 
L 678.586815 533.783406 
L 680.427297 542.755584 
L 682.267779 562.783198 
L 684.108261 554.611953 
L 687.789226 554.692063 
L 689.629708 554.692063 
L 693.310673 563.103637 
L 695.151155 569.71278 
L 696.991637 556.69469 
L 700.672602 511.031952 
L 702.513084 504.222614 
L 706.194048 518.502216 
L 708.03453 540.178807 
L 709.875013 585.74156 
L 711.715495 615.135227 
L 713.555977 594.176443 
L 715.396459 539.951731 
L 717.236942 476.895034 
L 719.077424 451.339773 
L 720.917906 504.222502 
L 722.758388 562.052303 
L 724.598871 581.615266 
L 728.279835 553.810852 
L 730.120317 555.215862 
L 731.960799 546.120217 
L 733.801282 533.783406 
L 735.641764 542.755584 
L 737.482246 562.783198 
L 739.322728 554.611953 
L 743.003693 554.692063 
L 744.844175 554.692063 
L 748.52514 563.103637 
L 750.365622 569.71278 
L 752.206104 556.69469 
L 755.887069 511.031952 
L 757.727551 504.222614 
L 761.408515 518.502216 
L 763.248997 540.178807 
L 765.08948 585.74156 
L 766.929962 615.135227 
L 768.770444 594.176443 
L 770.610926 539.951731 
L 772.451409 476.895034 
L 774.291891 451.339773 
L 776.132373 504.222502 
L 777.972855 562.052303 
L 779.813338 581.615266 
L 783.494302 553.810852 
L 785.334784 555.215862 
L 787.175266 546.120217 
L 789.015749 533.783406 
L 790.856231 542.755584 
L 792.696713 562.783198 
L 794.537195 554.611953 
L 798.21816 554.692063 
L 800.058642 554.692063 
L 803.739607 563.103637 
L 805.580089 569.71278 
L 807.420571 556.69469 
L 811.101536 511.031952 
L 812.942018 504.222614 
L 814.7825 511.432511 
L 814.7825 511.432511 
" clip-path="url(#pc7c426a500)" style="fill: none; stroke: #4878d0; stroke-width: 1.5; stroke-linecap: round"/>
   </g>
   <g id="patch_13">
    <path d="M 53.375 623.325 
L 53.375 443.15 
" style="fill: none; stroke: #cccccc; stroke-width: 1.25; stroke-linejoin: miter; stroke-linecap: square"/>
   </g>
   <g id="patch_14">
    <path d="M 851.04 623.325 
L 851.04 443.15 
" style="fill: none; stroke: #cccccc; stroke-width: 1.25; stroke-linejoin: miter; stroke-linecap: square"/>
   </g>
   <g id="patch_15">
    <path d="M 53.375 623.325 
L 851.04 623.325 
" style="fill: none; stroke: #cccccc; stroke-width: 1.25; stroke-linejoin: miter; stroke-linecap: square"/>
   </g>
   <g id="patch_16">
    <path d="M 53.375 443.15 
L 851.04 443.15 
" style="fill: none; stroke: #cccccc; stroke-width: 1.25; stroke-linejoin: miter; stroke-linecap: square"/>
   </g>
   <g id="text_17">
    <!-- Seasonal -->
    <g style="fill: #262626" transform="translate(427.189375 437.15) scale(0.12 -0.12)">
     <defs>
      <path id="ArialMT-53" d="M 288 1472 
L 859 1522 
Q 900 1178 1048 958 
Q 1197 738 1509 602 
Q 1822 466 2213 466 
Q 2559 466 2825 569 
Q 3091 672 3220 851 
Q 3350 1031 3350 1244 
Q 3350 1459 3225 1620 
Q 3100 1781 2813 1891 
Q 2628 1963 1997 2114 
Q 1366 2266 1113 2400 
Q 784 2572 623 2826 
Q 463 3081 463 3397 
Q 463 3744 659 4045 
Q 856 4347 1234 4503 
Q 1613 4659 2075 4659 
Q 2584 4659 2973 4495 
Q 3363 4331 3572 4012 
Q 3781 3694 3797 3291 
L 3216 3247 
Q 3169 3681 2898 3903 
Q 2628 4125 2100 4125 
Q 1550 4125 1298 3923 
Q 1047 3722 1047 3438 
Q 1047 3191 1225 3031 
Q 1400 2872 2139 2705 
Q 2878 2538 3153 2413 
Q 3553 2228 3743 1945 
Q 3934 1663 3934 1294 
Q 3934 928 3725 604 
Q 3516 281 3123 101 
Q 2731 -78 2241 -78 
Q 1619 -78 1198 103 
Q 778 284 539 648 
Q 300 1013 288 1472 
z
" transform="scale(0.015625)"/>
      <path id="ArialMT-73" d="M 197 991 
L 753 1078 
Q 800 744 1014 566 
Q 1228 388 1613 388 
Q 2000 388 2187 545 
Q 2375 703 2375 916 
Q 2375 1106 2209 1216 
Q 2094 1291 1634 1406 
Q 1016 1563 777 1677 
Q 538 1791 414 1992 
Q 291 2194 291 2438 
Q 291 2659 392 2848 
Q 494 3038 669 3163 
Q 800 3259 1026 3326 
Q 1253 3394 1513 3394 
Q 1903 3394 2198 3281 
Q 2494 3169 2634 2976 
Q 2775 2784 2828 2463 
L 2278 2388 
Q 2241 2644 2061 2787 
Q 1881 2931 1553 2931 
Q 1166 2931 1000 2803 
Q 834 2675 834 2503 
Q 834 2394 903 2306 
Q 972 2216 1119 2156 
Q 1203 2125 1616 2013 
Q 2213 1853 2448 1751 
Q 2684 1650 2818 1456 
Q 2953 1263 2953 975 
Q 2953 694 2789 445 
Q 2625 197 2315 61 
Q 2006 -75 1616 -75 
Q 969 -75 630 194 
Q 291 463 197 991 
z
" transform="scale(0.015625)"/>
      <path id="ArialMT-6f" d="M 213 1659 
Q 213 2581 725 3025 
Q 1153 3394 1769 3394 
Q 2453 3394 2887 2945 
Q 3322 2497 3322 1706 
Q 3322 1066 3130 698 
Q 2938 331 2570 128 
Q 2203 -75 1769 -75 
Q 1072 -75 642 372 
Q 213 819 213 1659 
z
M 791 1659 
Q 791 1022 1069 705 
Q 1347 388 1769 388 
Q 2188 388 2466 706 
Q 2744 1025 2744 1678 
Q 2744 2294 2464 2611 
Q 2184 2928 1769 2928 
Q 1347 2928 1069 2612 
Q 791 2297 791 1659 
z
" transform="scale(0.015625)"/>
     </defs>
     <use xlink:href="#ArialMT-53"/>
     <use xlink:href="#ArialMT-65" transform="translate(66.699219 0)"/>
     <use xlink:href="#ArialMT-61" transform="translate(122.314453 0)"/>
     <use xlink:href="#ArialMT-73" transform="translate(177.929688 0)"/>
     <use xlink:href="#ArialMT-6f" transform="translate(227.929688 0)"/>
     <use xlink:href="#ArialMT-6e" transform="translate(283.544922 0)"/>
     <use xlink:href="#ArialMT-61" transform="translate(339.160156 0)"/>
     <use xlink:href="#ArialMT-6c" transform="translate(394.775391 0)"/>
    </g>
   </g>
  </g>
  <g id="axes_4">
   <g id="patch_17">
    <path d="M 53.375 831.1 
L 851.04 831.1 
L 851.04 650.925 
L 53.375 650.925 
z
" style="fill: #ffffff"/>
   </g>
   <g id="matplotlib.axis_7">
    <g id="xtick_22">
     <g id="line2d_39">
      <path d="M 89.6325 831.1 
L 89.6325 650.925 
" clip-path="url(#p63577c289c)" style="fill: none; stroke: #cccccc; stroke-linecap: round"/>
     </g>
     <g id="text_18">
      <!-- 2024-09 -->
      <g style="fill: #262626" transform="translate(69.450078 848.473594) scale(0.11 -0.11)">
       <defs>
        <path id="ArialMT-2d" d="M 203 1375 
L 203 1941 
L 1931 1941 
L 1931 1375 
L 203 1375 
z
" transform="scale(0.015625)"/>
        <path id="ArialMT-39" d="M 350 1059 
L 891 1109 
Q 959 728 1153 556 
Q 1347 384 1650 384 
Q 1909 384 2104 503 
Q 2300 622 2425 820 
Q 2550 1019 2634 1356 
Q 2719 1694 2719 2044 
Q 2719 2081 2716 2156 
Q 2547 1888 2255 1720 
Q 1963 1553 1622 1553 
Q 1053 1553 659 1965 
Q 266 2378 266 3053 
Q 266 3750 677 4175 
Q 1088 4600 1706 4600 
Q 2153 4600 2523 4359 
Q 2894 4119 3086 3673 
Q 3278 3228 3278 2384 
Q 3278 1506 3087 986 
Q 2897 466 2520 194 
Q 2144 -78 1638 -78 
Q 1100 -78 759 220 
Q 419 519 350 1059 
z
M 2653 3081 
Q 2653 3566 2395 3850 
Q 2138 4134 1775 4134 
Q 1400 4134 1122 3828 
Q 844 3522 844 3034 
Q 844 2597 1108 2323 
Q 1372 2050 1759 2050 
Q 2150 2050 2401 2323 
Q 2653 2597 2653 3081 
z
" transform="scale(0.015625)"/>
       </defs>
       <use xlink:href="#ArialMT-32"/>
       <use xlink:href="#ArialMT-30" transform="translate(55.615234 0)"/>
       <use xlink:href="#ArialMT-32" transform="translate(111.230469 0)"/>
       <use xlink:href="#ArialMT-34" transform="translate(166.845703 0)"/>
       <use xlink:href="#ArialMT-2d" transform="translate(222.460938 0)"/>
       <use xlink:href="#ArialMT-30" transform="translate(255.761719 0)"/>
       <use xlink:href="#ArialMT-39" transform="translate(311.376953 0)"/>
      </g>
     </g>
    </g>
    <g id="xtick_23">
     <g id="line2d_40">
      <path d="M 201.901916 831.1 
L 201.901916 650.925 
" clip-path="url(#p63577c289c)" style="fill: none; stroke: #cccccc; stroke-linecap: round"/>
     </g>
     <g id="text_19">
      <!-- 2024-11 -->
      <g style="fill: #262626" transform="translate(182.125119 848.473594) scale(0.11 -0.11)">
       <use xlink:href="#ArialMT-32"/>
       <use xlink:href="#ArialMT-30" transform="translate(55.615234 0)"/>
       <use xlink:href="#ArialMT-32" transform="translate(111.230469 0)"/>
       <use xlink:href="#ArialMT-34" transform="translate(166.845703 0)"/>
       <use xlink:href="#ArialMT-2d" transform="translate(222.460938 0)"/>
       <use xlink:href="#ArialMT-31" transform="translate(255.761719 0)"/>
       <use xlink:href="#ArialMT-31" transform="translate(304.001953 0)"/>
      </g>
     </g>
    </g>
    <g id="xtick_24">
     <g id="line2d_41">
      <path d="M 314.171332 831.1 
L 314.171332 650.925 
" clip-path="url(#p63577c289c)" style="fill: none; stroke: #cccccc; stroke-linecap: round"/>
     </g>
     <g id="text_20">
      <!-- 2025-01 -->
      <g style="fill: #262626" transform="translate(293.988911 848.473594) scale(0.11 -0.11)">
       <defs>
        <path id="ArialMT-35" d="M 266 1200 
L 856 1250 
Q 922 819 1161 601 
Q 1400 384 1738 384 
Q 2144 384 2425 690 
Q 2706 997 2706 1503 
Q 2706 1984 2436 2262 
Q 2166 2541 1728 2541 
Q 1456 2541 1237 2417 
Q 1019 2294 894 2097 
L 366 2166 
L 809 4519 
L 3088 4519 
L 3088 3981 
L 1259 3981 
L 1013 2750 
Q 1425 3038 1878 3038 
Q 2478 3038 2890 2622 
Q 3303 2206 3303 1553 
Q 3303 931 2941 478 
Q 2500 -78 1738 -78 
Q 1113 -78 717 272 
Q 322 622 266 1200 
z
" transform="scale(0.015625)"/>
       </defs>
       <use xlink:href="#ArialMT-32"/>
       <use xlink:href="#ArialMT-30" transform="translate(55.615234 0)"/>
       <use xlink:href="#ArialMT-32" transform="translate(111.230469 0)"/>
       <use xlink:href="#ArialMT-35" transform="translate(166.845703 0)"/>
       <use xlink:href="#ArialMT-2d" transform="translate(222.460938 0)"/>
       <use xlink:href="#ArialMT-30" transform="translate(255.761719 0)"/>
       <use xlink:href="#ArialMT-31" transform="translate(311.376953 0)"/>
      </g>
     </g>
    </g>
    <g id="xtick_25">
     <g id="line2d_42">
      <path d="M 422.759784 831.1 
L 422.759784 650.925 
" clip-path="url(#p63577c289c)" style="fill: none; stroke: #cccccc; stroke-linecap: round"/>
     </g>
     <g id="text_21">
      <!-- 2025-03 -->
      <g style="fill: #262626" transform="translate(402.577362 848.473594) scale(0.11 -0.11)">
       <defs>
        <path id="ArialMT-33" d="M 269 1209 
L 831 1284 
Q 928 806 1161 595 
Q 1394 384 1728 384 
Q 2125 384 2398 659 
Q 2672 934 2672 1341 
Q 2672 1728 2419 1979 
Q 2166 2231 1775 2231 
Q 1616 2231 1378 2169 
L 1441 2663 
Q 1497 2656 1531 2656 
Q 1891 2656 2178 2843 
Q 2466 3031 2466 3422 
Q 2466 3731 2256 3934 
Q 2047 4138 1716 4138 
Q 1388 4138 1169 3931 
Q 950 3725 888 3313 
L 325 3413 
Q 428 3978 793 4289 
Q 1159 4600 1703 4600 
Q 2078 4600 2393 4439 
Q 2709 4278 2876 4000 
Q 3044 3722 3044 3409 
Q 3044 3113 2884 2869 
Q 2725 2625 2413 2481 
Q 2819 2388 3044 2092 
Q 3269 1797 3269 1353 
Q 3269 753 2831 336 
Q 2394 -81 1725 -81 
Q 1122 -81 723 278 
Q 325 638 269 1209 
z
" transform="scale(0.015625)"/>
       </defs>
       <use xlink:href="#ArialMT-32"/>
       <use xlink:href="#ArialMT-30" transform="translate(55.615234 0)"/>
       <use xlink:href="#ArialMT-32" transform="translate(111.230469 0)"/>
       <use xlink:href="#ArialMT-35" transform="translate(166.845703 0)"/>
       <use xlink:href="#ArialMT-2d" transform="translate(222.460938 0)"/>
       <use xlink:href="#ArialMT-30" transform="translate(255.761719 0)"/>
       <use xlink:href="#ArialMT-33" transform="translate(311.376953 0)"/>
      </g>
     </g>
    </g>
    <g id="xtick_26">
     <g id="line2d_43">
      <path d="M 535.029201 831.1 
L 535.029201 650.925 
" clip-path="url(#p63577c289c)" style="fill: none; stroke: #cccccc; stroke-linecap: round"/>
     </g>
     <g id="text_22">
      <!-- 2025-05 -->
      <g style="fill: #262626" transform="translate(514.846779 848.473594) scale(0.11 -0.11)">
       <use xlink:href="#ArialMT-32"/>
       <use xlink:href="#ArialMT-30" transform="translate(55.615234 0)"/>
       <use xlink:href="#ArialMT-32" transform="translate(111.230469 0)"/>
       <use xlink:href="#ArialMT-35" transform="translate(166.845703 0)"/>
       <use xlink:href="#ArialMT-2d" transform="translate(222.460938 0)"/>
       <use xlink:href="#ArialMT-30" transform="translate(255.761719 0)"/>
       <use xlink:href="#ArialMT-35" transform="translate(311.376953 0)"/>
      </g>
     </g>
    </g>
    <g id="xtick_27">
     <g id="line2d_44">
      <path d="M 647.298617 831.1 
L 647.298617 650.925 
" clip-path="url(#p63577c289c)" style="fill: none; stroke: #cccccc; stroke-linecap: round"/>
     </g>
     <g id="text_23">
      <!-- 2025-07 -->
      <g style="fill: #262626" transform="translate(627.116195 848.473594) scale(0.11 -0.11)">
       <defs>
        <path id="ArialMT-37" d="M 303 3981 
L 303 4522 
L 3269 4522 
L 3269 4084 
Q 2831 3619 2401 2847 
Q 1972 2075 1738 1259 
Q 1569 684 1522 0 
L 944 0 
Q 953 541 1156 1306 
Q 1359 2072 1739 2783 
Q 2119 3494 2547 3981 
L 303 3981 
z
" transform="scale(0.015625)"/>
       </defs>
       <use xlink:href="#ArialMT-32"/>
       <use xlink:href="#ArialMT-30" transform="translate(55.615234 0)"/>
       <use xlink:href="#ArialMT-32" transform="translate(111.230469 0)"/>
       <use xlink:href="#ArialMT-35" transform="translate(166.845703 0)"/>
       <use xlink:href="#ArialMT-2d" transform="translate(222.460938 0)"/>
       <use xlink:href="#ArialMT-30" transform="translate(255.761719 0)"/>
       <use xlink:href="#ArialMT-37" transform="translate(311.376953 0)"/>
      </g>
     </g>
    </g>
    <g id="xtick_28">
     <g id="line2d_45">
      <path d="M 761.408515 831.1 
L 761.408515 650.925 
" clip-path="url(#p63577c289c)" style="fill: none; stroke: #cccccc; stroke-linecap: round"/>
     </g>
     <g id="text_24">
      <!-- 2025-09 -->
      <g style="fill: #262626" transform="translate(741.226093 848.473594) scale(0.11 -0.11)">
       <use xlink:href="#ArialMT-32"/>
       <use xlink:href="#ArialMT-30" transform="translate(55.615234 0)"/>
       <use xlink:href="#ArialMT-32" transform="translate(111.230469 0)"/>
       <use xlink:href="#ArialMT-35" transform="translate(166.845703 0)"/>
       <use xlink:href="#ArialMT-2d" transform="translate(222.460938 0)"/>
       <use xlink:href="#ArialMT-30" transform="translate(255.761719 0)"/>
       <use xlink:href="#ArialMT-39" transform="translate(311.376953 0)"/>
      </g>
     </g>
    </g>
   </g>
   <g id="matplotlib.axis_8">
    <g id="ytick_15">
     <g id="line2d_46">
      <path d="M 53.375 817.046045 
L 851.04 817.046045 
" clip-path="url(#p63577c289c)" style="fill: none; stroke: #cccccc; stroke-linecap: round"/>
     </g>
     <g id="text_25">
      <!-- −2000 -->
      <g style="fill: #262626" transform="translate(12.982188 820.982842) scale(0.11 -0.11)">
       <use xlink:href="#ArialMT-2212"/>
       <use xlink:href="#ArialMT-32" transform="translate(58.398438 0)"/>
       <use xlink:href="#ArialMT-30" transform="translate(114.013672 0)"/>
       <use xlink:href="#ArialMT-30" transform="translate(169.628906 0)"/>
       <use xlink:href="#ArialMT-30" transform="translate(225.244141 0)"/>
      </g>
     </g>
    </g>
    <g id="ytick_16">
     <g id="line2d_47">
      <path d="M 53.375 794.105759 
L 851.04 794.105759 
" clip-path="url(#p63577c289c)" style="fill: none; stroke: #cccccc; stroke-linecap: round"/>
     </g>
     <g id="text_26">
      <!-- −1000 -->
      <g style="fill: #262626" transform="translate(12.982188 798.042556) scale(0.11 -0.11)">
       <use xlink:href="#ArialMT-2212"/>
       <use xlink:href="#ArialMT-31" transform="translate(58.398438 0)"/>
       <use xlink:href="#ArialMT-30" transform="translate(114.013672 0)"/>
       <use xlink:href="#ArialMT-30" transform="translate(169.628906 0)"/>
       <use xlink:href="#ArialMT-30" transform="translate(225.244141 0)"/>
      </g>
     </g>
    </g>
    <g id="ytick_17">
     <g id="line2d_48">
      <path d="M 53.375 771.165473 
L 851.04 771.165473 
" clip-path="url(#p63577c289c)" style="fill: none; stroke: #cccccc; stroke-linecap: round"/>
     </g>
     <g id="text_27">
      <!-- 0 -->
      <g style="fill: #262626" transform="translate(37.757969 775.102269) scale(0.11 -0.11)">
       <use xlink:href="#ArialMT-30"/>
      </g>
     </g>
    </g>
    <g id="ytick_18">
     <g id="line2d_49">
      <path d="M 53.375 748.225186 
L 851.04 748.225186 
" clip-path="url(#p63577c289c)" style="fill: none; stroke: #cccccc; stroke-linecap: round"/>
     </g>
     <g id="text_28">
      <!-- 1000 -->
      <g style="fill: #262626" transform="translate(19.406875 752.161983) scale(0.11 -0.11)">
       <use xlink:href="#ArialMT-31"/>
       <use xlink:href="#ArialMT-30" transform="translate(55.615234 0)"/>
       <use xlink:href="#ArialMT-30" transform="translate(111.230469 0)"/>
       <use xlink:href="#ArialMT-30" transform="translate(166.845703 0)"/>
      </g>
     </g>
    </g>
    <g id="ytick_19">
     <g id="line2d_50">
      <path d="M 53.375 725.2849 
L 851.04 725.2849 
" clip-path="url(#p63577c289c)" style="fill: none; stroke: #cccccc; stroke-linecap: round"/>
     </g>
     <g id="text_29">
      <!-- 2000 -->
      <g style="fill: #262626" transform="translate(19.406875 729.221697) scale(0.11 -0.11)">
       <use xlink:href="#ArialMT-32"/>
       <use xlink:href="#ArialMT-30" transform="translate(55.615234 0)"/>
       <use xlink:href="#ArialMT-30" transform="translate(111.230469 0)"/>
       <use xlink:href="#ArialMT-30" transform="translate(166.845703 0)"/>
      </g>
     </g>
    </g>
    <g id="ytick_20">
     <g id="line2d_51">
      <path d="M 53.375 702.344613 
L 851.04 702.344613 
" clip-path="url(#p63577c289c)" style="fill: none; stroke: #cccccc; stroke-linecap: round"/>
     </g>
     <g id="text_30">
      <!-- 3000 -->
      <g style="fill: #262626" transform="translate(19.406875 706.28141) scale(0.11 -0.11)">
       <use xlink:href="#ArialMT-33"/>
       <use xlink:href="#ArialMT-30" transform="translate(55.615234 0)"/>
       <use xlink:href="#ArialMT-30" transform="translate(111.230469 0)"/>
       <use xlink:href="#ArialMT-30" transform="translate(166.845703 0)"/>
      </g>
     </g>
    </g>
    <g id="ytick_21">
     <g id="line2d_52">
      <path d="M 53.375 679.404327 
L 851.04 679.404327 
" clip-path="url(#p63577c289c)" style="fill: none; stroke: #cccccc; stroke-linecap: round"/>
     </g>
     <g id="text_31">
      <!-- 4000 -->
      <g style="fill: #262626" transform="translate(19.406875 683.341124) scale(0.11 -0.11)">
       <use xlink:href="#ArialMT-34"/>
       <use xlink:href="#ArialMT-30" transform="translate(55.615234 0)"/>
       <use xlink:href="#ArialMT-30" transform="translate(111.230469 0)"/>
       <use xlink:href="#ArialMT-30" transform="translate(166.845703 0)"/>
      </g>
     </g>
    </g>
    <g id="ytick_22">
     <g id="line2d_53">
      <path d="M 53.375 656.464041 
L 851.04 656.464041 
" clip-path="url(#p63577c289c)" style="fill: none; stroke: #cccccc; stroke-linecap: round"/>
     </g>
     <g id="text_32">
      <!-- 5000 -->
      <g style="fill: #262626" transform="translate(19.406875 660.400837) scale(0.11 -0.11)">
       <use xlink:href="#ArialMT-35"/>
       <use xlink:href="#ArialMT-30" transform="translate(55.615234 0)"/>
       <use xlink:href="#ArialMT-30" transform="translate(111.230469 0)"/>
       <use xlink:href="#ArialMT-30" transform="translate(166.845703 0)"/>
      </g>
     </g>
    </g>
   </g>
   <g id="line2d_54">
    <path d="M 117.239734 776.545347 
L 120.920698 783.491856 
L 122.76118 785.280303 
L 124.601662 788.170952 
L 126.442145 779.741286 
L 128.282627 768.780946 
L 130.123109 756.564327 
L 131.963591 747.93441 
L 133.804074 750.601674 
L 137.485038 757.579344 
L 139.32552 765.799613 
L 141.166003 773.446375 
L 143.006485 780.246526 
L 144.846967 789.372593 
L 146.687449 786.996686 
L 148.527931 785.385265 
L 150.368414 782.335736 
L 154.049378 788.168674 
L 155.88986 788.955339 
L 157.730343 786.645373 
L 159.570825 762.850149 
L 161.411307 744.585532 
L 163.251789 730.101074 
L 165.092272 756.765735 
L 166.932754 779.264523 
L 170.613718 806.3923 
L 172.454201 784.028247 
L 176.135165 746.259408 
L 177.975647 748.029644 
L 179.816129 750.756434 
L 181.656612 753.742295 
L 183.497094 754.379543 
L 185.337576 754.015405 
L 187.178058 756.728186 
L 189.018541 757.961682 
L 192.699505 759.39545 
L 194.539987 760.44688 
L 196.38047 762.039956 
L 198.220952 766.955792 
L 203.742398 787.023966 
L 205.582881 791.074991 
L 207.423363 793.532718 
L 209.263845 795.624267 
L 211.104327 784.367358 
L 212.94481 769.631251 
L 214.785292 756.350401 
L 216.625774 750.702942 
L 218.466256 748.835641 
L 220.306739 747.971958 
L 222.147221 742.846818 
L 223.987703 742.190171 
L 225.828185 741.026217 
L 227.668668 744.319705 
L 229.50915 743.87014 
L 231.349632 743.546623 
L 233.190114 741.584517 
L 235.030596 740.924885 
L 236.871079 763.683086 
L 238.711561 783.947026 
L 240.552043 802.699793 
L 242.392525 801.461745 
L 246.07349 796.482246 
L 247.913972 793.710295 
L 253.435419 783.432676 
L 255.275901 782.490507 
L 258.956865 783.091313 
L 260.797348 781.57106 
L 262.63783 778.457738 
L 264.478312 775.742685 
L 266.318794 772.132462 
L 268.159277 766.572622 
L 269.999759 763.232487 
L 271.840241 765.614128 
L 273.680723 771.775927 
L 275.521206 778.941345 
L 277.361688 781.845305 
L 279.20217 775.836001 
L 281.042652 769.26454 
L 282.883135 767.041512 
L 286.564099 770.201053 
L 288.404581 770.041395 
L 290.245063 771.074975 
L 292.085546 772.476862 
L 293.926028 771.457313 
L 295.76651 769.181485 
L 297.606992 770.11002 
L 303.128439 770.100917 
L 304.968921 769.909748 
L 306.809404 770.292086 
L 308.649886 770.974827 
L 310.490368 774.461407 
L 314.171332 784.238327 
L 316.011815 787.306132 
L 319.692779 790.271533 
L 321.533261 790.102353 
L 323.373744 787.21888 
L 325.214226 786.172773 
L 327.054708 790.848443 
L 328.89519 799.304271 
L 330.735673 808.763717 
L 332.576155 796.756491 
L 336.257119 754.353353 
L 338.097602 737.219139 
L 341.778566 744.966738 
L 343.619048 747.101109 
L 345.45953 750.428717 
L 347.300013 754.124633 
L 349.140495 755.399113 
L 350.980977 754.780081 
L 352.821459 756.090955 
L 354.661942 755.189731 
L 358.342906 752.131026 
L 360.183388 749.836997 
L 362.023871 746.969462 
L 363.864353 743.255314 
L 365.704835 741.197991 
L 369.385799 738.740093 
L 371.226282 735.690487 
L 374.907246 726.42107 
L 376.747728 720.134479 
L 378.588211 749.367484 
L 380.428693 780.437625 
L 382.269175 817.229773 
L 384.109657 819.568191 
L 385.95014 822.910227 
L 387.790622 821.990806 
L 391.471586 801.763279 
L 393.312069 795.71687 
L 396.993033 791.229649 
L 398.833515 787.24661 
L 400.673997 784.456808 
L 402.51448 782.035315 
L 404.354962 777.192385 
L 406.195444 771.730407 
L 408.035926 770.747252 
L 409.876409 770.100917 
L 411.716891 770.100917 
L 413.557373 771.247931 
L 417.238338 774.880143 
L 419.07882 776.423145 
L 420.919302 780.196478 
L 424.600266 789.973399 
L 426.440749 793.041203 
L 428.281231 794.770832 
L 430.121713 797.026175 
L 431.962195 798.131453 
L 433.802678 796.777333 
L 435.64316 797.260578 
L 437.483642 803.465601 
L 439.324124 813.450781 
L 441.164607 755.618721 
L 443.005089 762.346061 
L 444.845571 760.160139 
L 446.686053 757.412058 
L 448.526536 759.012411 
L 452.2075 769.818715 
L 454.047982 773.482438 
L 457.728947 752.977695 
L 459.569429 740.487926 
L 461.409911 742.035479 
L 463.250393 746.787396 
L 466.931358 754.425055 
L 468.77184 757.101421 
L 472.452805 759.204281 
L 474.293287 759.982607 
L 476.133769 762.991263 
L 479.814734 771.238832 
L 481.655216 773.54196 
L 483.495698 773.997126 
L 485.33618 773.95844 
L 487.176662 771.750124 
L 489.017145 766.572622 
L 490.857627 763.232487 
L 492.698109 765.614128 
L 494.538591 771.775927 
L 496.379074 778.941345 
L 498.219556 781.845305 
L 500.060038 775.836001 
L 501.90052 769.26454 
L 503.741003 767.041512 
L 507.421967 770.201053 
L 509.262449 770.041395 
L 511.102931 771.074975 
L 512.943414 772.476862 
L 514.783896 771.457313 
L 516.624378 769.181485 
L 518.46486 770.11002 
L 522.145825 770.100917 
L 523.986307 769.814163 
L 525.826789 768.47598 
L 527.667272 766.564289 
L 529.507754 763.805988 
L 531.348236 762.991263 
L 535.029201 763.59207 
L 536.869683 762.071817 
L 540.550647 755.861104 
L 542.391129 751.103866 
L 544.231612 743.632336 
L 546.072094 737.998172 
L 547.912576 738.085785 
L 549.753058 741.953555 
L 551.593541 764.030159 
L 553.434023 781.845305 
L 555.274505 790.747187 
L 557.114987 799.086912 
L 558.95547 794.569855 
L 562.636434 793.141339 
L 564.476916 790.687653 
L 566.317398 789.427204 
L 568.157881 788.535063 
L 569.998363 784.711702 
L 571.838845 778.612493 
L 573.679327 774.698077 
L 575.51981 770.005332 
L 577.360292 766.659874 
L 579.200774 764.939353 
L 581.041256 764.652599 
L 582.881739 764.716323 
L 584.722221 763.296205 
L 586.562703 762.608925 
L 590.243668 761.680379 
L 592.08415 759.39545 
L 595.765114 751.400491 
L 597.605596 775.700873 
L 599.446079 796.777409 
L 601.286561 819.436189 
L 603.127043 777.084271 
L 608.64849 659.114773 
L 612.329454 744.412639 
L 614.169937 791.319981 
L 616.010419 788.876799 
L 617.850901 786.832761 
L 619.691383 783.423229 
L 621.531865 781.398103 
L 623.372348 795.034887 
L 627.053312 818.357445 
L 628.893794 819.103915 
L 630.734277 818.971917 
L 632.574759 817.729318 
L 634.415241 815.367015 
L 636.255723 811.407086 
L 638.096206 807.888665 
L 639.936688 805.990624 
L 641.77717 796.637017 
L 645.458135 781.944299 
L 647.298617 772.777284 
L 649.139099 773.487343 
L 650.979581 774.468226 
L 652.820063 774.299046 
L 654.660546 765.371086 
L 656.501028 758.535157 
L 658.34151 757.421234 
L 660.181992 760.08724 
L 662.022475 763.757093 
L 663.862957 763.165259 
L 665.703439 753.660391 
L 667.543921 750.147634 
L 669.384404 750.792142 
L 671.224886 754.848707 
L 673.065368 758.539741 
L 674.90585 760.100604 
L 676.746332 762.663536 
L 678.586815 765.594776 
L 680.427297 766.10458 
L 682.267779 765.248866 
L 684.108261 767.379036 
L 685.948744 768.353089 
L 687.789226 769.117765 
L 689.629708 769.663962 
L 691.47019 769.513757 
L 693.310673 769.145072 
L 695.151155 768.394045 
L 696.991637 769.873349 
L 700.672602 775.062213 
L 702.513084 775.835989 
L 706.194048 774.213333 
L 708.03453 771.750124 
L 709.875013 766.572622 
L 711.715495 763.232487 
L 713.555977 765.614128 
L 715.396459 771.775927 
L 717.236942 778.941345 
L 719.077424 781.845305 
L 720.917906 775.836001 
L 722.758388 769.26454 
L 724.598871 767.296405 
L 726.439353 769.632449 
L 728.279835 772.495082 
L 730.120317 773.755538 
L 733.801282 778.375796 
L 735.641764 778.120923 
L 737.482246 776.391292 
L 739.322728 777.647544 
L 743.003693 777.747679 
L 744.844175 777.747679 
L 748.52514 776.791834 
L 750.365622 776.040807 
L 752.206104 762.226511 
L 755.887069 736.828402 
L 757.727551 744.156447 
L 761.408515 755.642559 
L 763.248997 760.37108 
L 765.08948 763.659538 
L 766.929962 770.060051 
L 768.770444 782.53259 
L 772.451409 801.21254 
L 774.291891 805.932606 
L 776.132373 801.452654 
L 777.972855 796.410545 
L 779.813338 795.461976 
L 781.65382 797.79802 
L 783.494302 799.641087 
L 785.334784 799.590667 
L 787.175266 800.951964 
L 787.175266 800.951964 
" clip-path="url(#p63577c289c)" style="fill: none; stroke: #4878d0; stroke-width: 1.5; stroke-linecap: round"/>
   </g>
   <g id="patch_18">
    <path d="M 53.375 831.1 
L 53.375 650.925 
" style="fill: none; stroke: #cccccc; stroke-width: 1.25; stroke-linejoin: miter; stroke-linecap: square"/>
   </g>
   <g id="patch_19">
    <path d="M 851.04 831.1 
L 851.04 650.925 
" style="fill: none; stroke: #cccccc; stroke-width: 1.25; stroke-linejoin: miter; stroke-linecap: square"/>
   </g>
   <g id="patch_20">
    <path d="M 53.375 831.1 
L 851.04 831.1 
" style="fill: none; stroke: #cccccc; stroke-width: 1.25; stroke-linejoin: miter; stroke-linecap: square"/>
   </g>
   <g id="patch_21">
    <path d="M 53.375 650.925 
L 851.04 650.925 
" style="fill: none; stroke: #cccccc; stroke-width: 1.25; stroke-linejoin: miter; stroke-linecap: square"/>
   </g>
   <g id="text_33">
    <!-- Residual -->
    <g style="fill: #262626" transform="translate(428.861875 644.925) scale(0.12 -0.12)">
     <defs>
      <path id="ArialMT-52" d="M 503 0 
L 503 4581 
L 2534 4581 
Q 3147 4581 3465 4457 
Q 3784 4334 3975 4021 
Q 4166 3709 4166 3331 
Q 4166 2844 3850 2509 
Q 3534 2175 2875 2084 
Q 3116 1969 3241 1856 
Q 3506 1613 3744 1247 
L 4541 0 
L 3778 0 
L 3172 953 
Q 2906 1366 2734 1584 
Q 2563 1803 2427 1890 
Q 2291 1978 2150 2013 
Q 2047 2034 1813 2034 
L 1109 2034 
L 1109 0 
L 503 0 
z
M 1109 2559 
L 2413 2559 
Q 2828 2559 3062 2645 
Q 3297 2731 3419 2920 
Q 3541 3109 3541 3331 
Q 3541 3656 3305 3865 
Q 3069 4075 2559 4075 
L 1109 4075 
L 1109 2559 
z
" transform="scale(0.015625)"/>
      <path id="ArialMT-75" d="M 2597 0 
L 2597 488 
Q 2209 -75 1544 -75 
Q 1250 -75 995 37 
Q 741 150 617 320 
Q 494 491 444 738 
Q 409 903 409 1263 
L 409 3319 
L 972 3319 
L 972 1478 
Q 972 1038 1006 884 
Q 1059 663 1231 536 
Q 1403 409 1656 409 
Q 1909 409 2131 539 
Q 2353 669 2445 892 
Q 2538 1116 2538 1541 
L 2538 3319 
L 3100 3319 
L 3100 0 
L 2597 0 
z
" transform="scale(0.015625)"/>
     </defs>
     <use xlink:href="#ArialMT-52"/>
     <use xlink:href="#ArialMT-65" transform="translate(72.216797 0)"/>
     <use xlink:href="#ArialMT-73" transform="translate(127.832031 0)"/>
     <use xlink:href="#ArialMT-69" transform="translate(177.832031 0)"/>
     <use xlink:href="#ArialMT-64" transform="translate(200.048828 0)"/>
     <use xlink:href="#ArialMT-75" transform="translate(255.664062 0)"/>
     <use xlink:href="#ArialMT-61" transform="translate(311.279297 0)"/>
     <use xlink:href="#ArialMT-6c" transform="translate(366.894531 0)"/>
    </g>
   </g>
  </g>
 </g>
 <defs>
  <clipPath id="p13c622e28b">
   <rect x="53.375" y="27.6" width="797.665" height="180.175"/>
  </clipPath>
  <clipPath id="pf29461e28e">
   <rect x="53.375" y="235.375" width="797.665" height="180.175"/>
  </clipPath>
  <clipPath id="pc7c426a500">
   <rect x="53.375" y="443.15" width="797.665" height="180.175"/>
  </clipPath>
  <clipPath id="p63577c289c">
   <rect x="53.375" y="650.925" width="797.665" height="180.175"/>
  </clipPath>
 </defs>
</svg>
