<?xml version="1.0" encoding="utf-8" standalone="no"?>
<!DOCTYPE svg PUBLIC "-//W3C//DTD SVG 1.1//EN"
  "http://www.w3.org/Graphics/SVG/1.1/DTD/svg11.dtd">
<svg xmlns:xlink="http://www.w3.org/1999/xlink" width="864pt" height="864pt" viewBox="0 0 864 864" xmlns="http://www.w3.org/2000/svg" version="1.1">
 <metadata>
  <rdf:RDF xmlns:dc="http://purl.org/dc/elements/1.1/" xmlns:cc="http://creativecommons.org/ns#" xmlns:rdf="http://www.w3.org/1999/02/22-rdf-syntax-ns#">
   <cc:Work>
    <dc:type rdf:resource="http://purl.org/dc/dcmitype/StillImage"/>
    <dc:date>2025-12-12T00:30:24.991864</dc:date>
    <dc:format>image/svg+xml</dc:format>
    <dc:creator>
     <cc:Agent>
      <dc:title>Matplotlib v3.10.7, https://matplotlib.org/</dc:title>
     </cc:Agent>
    </dc:creator>
   </cc:Work>
  </rdf:RDF>
 </metadata>
 <defs>
  <style type="text/css">*{stroke-linejoin: round; stroke-linecap: butt}</style>
 </defs>
 <g id="figure_1">
  <g id="patch_1">
   <path d="M 0 864 
L 864 864 
L 864 0 
L 0 0 
z
" style="fill: #ffffff"/>
  </g>
  <g id="axes_1">
   <g id="patch_2">
    <path d="M 53.375 203.611955 
L 851.04 203.611955 
L 851.04 27.6 
L 53.375 27.6 
z
" style="fill: #ffffff"/>
   </g>
   <g id="matplotlib.axis_1">
    <g id="xtick_1">
     <g id="line2d_1">
      <path d="M 89.6325 203.611955 
L 89.6325 27.6 
" clip-path="url(#p6d3ab88ffa)" style="fill: none; stroke: #cccccc; stroke-linecap: round"/>
     </g>
    </g>
    <g id="xtick_2">
     <g id="line2d_2">
      <path d="M 201.901916 203.611955 
L 201.901916 27.6 
" clip-path="url(#p6d3ab88ffa)" style="fill: none; stroke: #cccccc; stroke-linecap: round"/>
     </g>
    </g>
    <g id="xtick_3">
     <g id="line2d_3">
      <path d="M 314.171332 203.611955 
L 314.171332 27.6 
" clip-path="url(#p6d3ab88ffa)" style="fill: none; stroke: #cccccc; stroke-linecap: round"/>
     </g>
    </g>
    <g id="xtick_4">
     <g id="line2d_4">
      <path d="M 422.759784 203.611955 
L 422.759784 27.6 
" clip-path="url(#p6d3ab88ffa)" style="fill: none; stroke: #cccccc; stroke-linecap: round"/>
     </g>
    </g>
    <g id="xtick_5">
     <g id="line2d_5">
      <path d="M 535.029201 203.611955 
L 535.029201 27.6 
" clip-path="url(#p6d3ab88ffa)" style="fill: none; stroke: #cccccc; stroke-linecap: round"/>
     </g>
    </g>
    <g id="xtick_6">
     <g id="line2d_6">
      <path d="M 647.298617 203.611955 
L 647.298617 27.6 
" clip-path="url(#p6d3ab88ffa)" style="fill: none; stroke: #cccccc; stroke-linecap: round"/>
     </g>
    </g>
    <g id="xtick_7">
     <g id="line2d_7">
      <path d="M 761.408515 203.611955 
L 761.408515 27.6 
" clip-path="url(#p6d3ab88ffa)" style="fill: none; stroke: #cccccc; stroke-linecap: round"/>
     </g>
    </g>
   </g>
   <g id="matplotlib.axis_2">
    <g id="ytick_1">
     <g id="line2d_8">
      <path d="M 53.375 185.339672 
L 851.04 185.339672 
" clip-path="url(#p6d3ab88ffa)" style="fill: none; stroke: #cccccc; stroke-linecap: round"/>
     </g>
     <g id="text_1">
      <!-- 4000 -->
      <g style="fill: #262626" transform="translate(19.406875 189.276469) scale(0.11 -0.11)">
       <defs>
        <path id="ArialMT-34" d="M 2069 0 
L 2069 1097 
L 81 1097 
L 81 1613 
L 2172 4581 
L 2631 4581 
L 2631 1613 
L 3250 1613 
L 3250 1097 
L 2631 1097 
L 2631 0 
L 2069 0 
z
M 2069 1613 
L 2069 3678 
L 634 1613 
L 2069 1613 
z
" transform="scale(0.015625)"/>
        <path id="ArialMT-30" d="M 266 2259 
Q 266 3072 433 3567 
Q 600 4063 929 4331 
Q 1259 4600 1759 4600 
Q 2128 4600 2406 4451 
Q 2684 4303 2865 4023 
Q 3047 3744 3150 3342 
Q 3253 2941 3253 2259 
Q 3253 1453 3087 958 
Q 2922 463 2592 192 
Q 2263 -78 1759 -78 
Q 1097 -78 719 397 
Q 266 969 266 2259 
z
M 844 2259 
Q 844 1131 1108 757 
Q 1372 384 1759 384 
Q 2147 384 2411 759 
Q 2675 1134 2675 2259 
Q 2675 3391 2411 3762 
Q 2147 4134 1753 4134 
Q 1366 4134 1134 3806 
Q 844 3388 844 2259 
z
" transform="scale(0.015625)"/>
       </defs>
       <use xlink:href="#ArialMT-34"/>
       <use xlink:href="#ArialMT-30" transform="translate(55.615234 0)"/>
       <use xlink:href="#ArialMT-30" transform="translate(111.230469 0)"/>
       <use xlink:href="#ArialMT-30" transform="translate(166.845703 0)"/>
      </g>
     </g>
    </g>
    <g id="ytick_2">
     <g id="line2d_9">
      <path d="M 53.375 162.513585 
L 851.04 162.513585 
" clip-path="url(#p6d3ab88ffa)" style="fill: none; stroke: #cccccc; stroke-linecap: round"/>
     </g>
     <g id="text_2">
      <!-- 6000 -->
      <g style="fill: #262626" transform="translate(19.406875 166.450382) scale(0.11 -0.11)">
       <defs>
        <path id="ArialMT-36" d="M 3184 3459 
L 2625 3416 
Q 2550 3747 2413 3897 
Q 2184 4138 1850 4138 
Q 1581 4138 1378 3988 
Q 1113 3794 959 3422 
Q 806 3050 800 2363 
Q 1003 2672 1297 2822 
Q 1591 2972 1913 2972 
Q 2475 2972 2870 2558 
Q 3266 2144 3266 1488 
Q 3266 1056 3080 686 
Q 2894 316 2569 119 
Q 2244 -78 1831 -78 
Q 1128 -78 684 439 
Q 241 956 241 2144 
Q 241 3472 731 4075 
Q 1159 4600 1884 4600 
Q 2425 4600 2770 4297 
Q 3116 3994 3184 3459 
z
M 888 1484 
Q 888 1194 1011 928 
Q 1134 663 1356 523 
Q 1578 384 1822 384 
Q 2178 384 2434 671 
Q 2691 959 2691 1453 
Q 2691 1928 2437 2201 
Q 2184 2475 1800 2475 
Q 1419 2475 1153 2201 
Q 888 1928 888 1484 
z
" transform="scale(0.015625)"/>
       </defs>
       <use xlink:href="#ArialMT-36"/>
       <use xlink:href="#ArialMT-30" transform="translate(55.615234 0)"/>
       <use xlink:href="#ArialMT-30" transform="translate(111.230469 0)"/>
       <use xlink:href="#ArialMT-30" transform="translate(166.845703 0)"/>
      </g>
     </g>
    </g>
    <g id="ytick_3">
     <g id="line2d_10">
      <path d="M 53.375 139.687499 
L 851.04 139.687499 
" clip-path="url(#p6d3ab88ffa)" style="fill: none; stroke: #cccccc; stroke-linecap: round"/>
     </g>
     <g id="text_3">
      <!-- 8000 -->
      <g style="fill: #262626" transform="translate(19.406875 143.624296) scale(0.11 -0.11)">
       <defs>
        <path id="ArialMT-38" d="M 1131 2484 
Q 781 2613 612 2850 
Q 444 3088 444 3419 
Q 444 3919 803 4259 
Q 1163 4600 1759 4600 
Q 2359 4600 2725 4251 
Q 3091 3903 3091 3403 
Q 3091 3084 2923 2848 
Q 2756 2613 2416 2484 
Q 2838 2347 3058 2040 
Q 3278 1734 3278 1309 
Q 3278 722 2862 322 
Q 2447 -78 1769 -78 
Q 1091 -78 675 323 
Q 259 725 259 1325 
Q 259 1772 486 2073 
Q 713 2375 1131 2484 
z
M 1019 3438 
Q 1019 3113 1228 2906 
Q 1438 2700 1772 2700 
Q 2097 2700 2305 2904 
Q 2513 3109 2513 3406 
Q 2513 3716 2298 3927 
Q 2084 4138 1766 4138 
Q 1444 4138 1231 3931 
Q 1019 3725 1019 3438 
z
M 838 1322 
Q 838 1081 952 856 
Q 1066 631 1291 507 
Q 1516 384 1775 384 
Q 2178 384 2440 643 
Q 2703 903 2703 1303 
Q 2703 1709 2433 1975 
Q 2163 2241 1756 2241 
Q 1359 2241 1098 1978 
Q 838 1716 838 1322 
z
" transform="scale(0.015625)"/>
       </defs>
       <use xlink:href="#ArialMT-38"/>
       <use xlink:href="#ArialMT-30" transform="translate(55.615234 0)"/>
       <use xlink:href="#ArialMT-30" transform="translate(111.230469 0)"/>
       <use xlink:href="#ArialMT-30" transform="translate(166.845703 0)"/>
      </g>
     </g>
    </g>
    <g id="ytick_4">
     <g id="line2d_11">
      <path d="M 53.375 116.861412 
L 851.04 116.861412 
" clip-path="url(#p6d3ab88ffa)" style="fill: none; stroke: #cccccc; stroke-linecap: round"/>
     </g>
     <g id="text_4">
      <!-- 10000 -->
      <g style="fill: #262626" transform="translate(13.289844 120.798209) scale(0.11 -0.11)">
       <defs>
        <path id="ArialMT-31" d="M 2384 0 
L 1822 0 
L 1822 3584 
Q 1619 3391 1289 3197 
Q 959 3003 697 2906 
L 697 3450 
Q 1169 3672 1522 3987 
Q 1875 4303 2022 4600 
L 2384 4600 
L 2384 0 
z
" transform="scale(0.015625)"/>
       </defs>
       <use xlink:href="#ArialMT-31"/>
       <use xlink:href="#ArialMT-30" transform="translate(55.615234 0)"/>
       <use xlink:href="#ArialMT-30" transform="translate(111.230469 0)"/>
       <use xlink:href="#ArialMT-30" transform="translate(166.845703 0)"/>
       <use xlink:href="#ArialMT-30" transform="translate(222.460938 0)"/>
      </g>
     </g>
    </g>
    <g id="ytick_5">
     <g id="line2d_12">
      <path d="M 53.375 94.035325 
L 851.04 94.035325 
" clip-path="url(#p6d3ab88ffa)" style="fill: none; stroke: #cccccc; stroke-linecap: round"/>
     </g>
     <g id="text_5">
      <!-- 12000 -->
      <g style="fill: #262626" transform="translate(13.289844 97.972122) scale(0.11 -0.11)">
       <defs>
        <path id="ArialMT-32" d="M 3222 541 
L 3222 0 
L 194 0 
Q 188 203 259 391 
Q 375 700 629 1000 
Q 884 1300 1366 1694 
Q 2113 2306 2375 2664 
Q 2638 3022 2638 3341 
Q 2638 3675 2398 3904 
Q 2159 4134 1775 4134 
Q 1369 4134 1125 3890 
Q 881 3647 878 3216 
L 300 3275 
Q 359 3922 746 4261 
Q 1134 4600 1788 4600 
Q 2447 4600 2831 4234 
Q 3216 3869 3216 3328 
Q 3216 3053 3103 2787 
Q 2991 2522 2730 2228 
Q 2469 1934 1863 1422 
Q 1356 997 1212 845 
Q 1069 694 975 541 
L 3222 541 
z
" transform="scale(0.015625)"/>
       </defs>
       <use xlink:href="#ArialMT-31"/>
       <use xlink:href="#ArialMT-32" transform="translate(55.615234 0)"/>
       <use xlink:href="#ArialMT-30" transform="translate(111.230469 0)"/>
       <use xlink:href="#ArialMT-30" transform="translate(166.845703 0)"/>
       <use xlink:href="#ArialMT-30" transform="translate(222.460938 0)"/>
      </g>
     </g>
    </g>
    <g id="ytick_6">
     <g id="line2d_13">
      <path d="M 53.375 71.209239 
L 851.04 71.209239 
" clip-path="url(#p6d3ab88ffa)" style="fill: none; stroke: #cccccc; stroke-linecap: round"/>
     </g>
     <g id="text_6">
      <!-- 14000 -->
      <g style="fill: #262626" transform="translate(13.289844 75.146036) scale(0.11 -0.11)">
       <use xlink:href="#ArialMT-31"/>
       <use xlink:href="#ArialMT-34" transform="translate(55.615234 0)"/>
       <use xlink:href="#ArialMT-30" transform="translate(111.230469 0)"/>
       <use xlink:href="#ArialMT-30" transform="translate(166.845703 0)"/>
       <use xlink:href="#ArialMT-30" transform="translate(222.460938 0)"/>
      </g>
     </g>
    </g>
    <g id="ytick_7">
     <g id="line2d_14">
      <path d="M 53.375 48.383152 
L 851.04 48.383152 
" clip-path="url(#p6d3ab88ffa)" style="fill: none; stroke: #cccccc; stroke-linecap: round"/>
     </g>
     <g id="text_7">
      <!-- 16000 -->
      <g style="fill: #262626" transform="translate(13.289844 52.319949) scale(0.11 -0.11)">
       <use xlink:href="#ArialMT-31"/>
       <use xlink:href="#ArialMT-36" transform="translate(55.615234 0)"/>
       <use xlink:href="#ArialMT-30" transform="translate(111.230469 0)"/>
       <use xlink:href="#ArialMT-30" transform="translate(166.845703 0)"/>
       <use xlink:href="#ArialMT-30" transform="translate(222.460938 0)"/>
      </g>
     </g>
    </g>
   </g>
   <g id="line2d_15">
    <path d="M 89.6325 144.578787 
L 91.472982 156.154923 
L 93.313464 152.209205 
L 95.153947 169.035341 
L 96.994429 136.328754 
L 98.834911 127.133151 
L 100.675393 123.937499 
L 102.515876 110.470108 
L 104.356358 144.252716 
L 106.19684 117.546195 
L 108.037322 162.513585 
L 109.877805 144.252716 
L 111.718287 127.133151 
L 113.558769 158.40489 
L 115.399251 135.122281 
L 117.239734 140.372281 
L 119.080216 133.296194 
L 120.920698 173.926629 
L 122.76118 129.41576 
L 124.601662 129.41576 
L 126.442145 107.274456 
L 128.282627 123.709238 
L 130.123109 93.122282 
L 131.963591 112.296195 
L 133.804074 156.807064 
L 135.644556 98.828804 
L 137.485038 92.437499 
L 139.32552 120.855977 
L 141.166003 109.328803 
L 143.006485 120.855977 
L 144.846967 130.557064 
L 146.687449 158.709276 
L 148.527931 117.241809 
L 150.368414 121.426629 
L 152.208896 106.589673 
L 154.049378 108.872282 
L 155.88986 94.491847 
L 157.730343 90.154891 
L 159.570825 128.274455 
L 161.411307 84.220108 
L 163.251789 101.339673 
L 165.092272 82.279891 
L 166.932754 89.013586 
L 168.773236 87.529891 
L 170.613718 98.144021 
L 172.454201 128.274455 
L 174.294683 87.187499 
L 176.135165 91.067934 
L 177.975647 63.448369 
L 179.816129 76.91576 
L 181.656612 51.807065 
L 183.497094 65.046195 
L 185.337576 116.861412 
L 187.178058 70.067934 
L 189.018541 70.752717 
L 190.859023 68.92663 
L 192.699505 86.046195 
L 194.539987 64.361413 
L 196.38047 101.339673 
L 198.220952 124.198401 
L 200.061434 69.676581 
L 201.901916 93.220092 
L 203.742398 98.274472 
L 205.582881 75.937548 
L 207.423363 90.122249 
L 209.263845 95.17663 
L 211.104327 124.470146 
L 212.94481 68.850505 
L 214.785292 61.165761 
L 216.625774 68.355978 
L 218.466256 64.589674 
L 220.306739 78.627717 
L 222.147221 65.502717 
L 223.987703 120.665722 
L 225.828185 76.535364 
L 227.668668 94.035325 
L 229.50915 69.383152 
L 231.349632 83.078804 
L 233.190114 50.4375 
L 235.030596 64.817934 
L 236.871079 151.100542 
L 238.711561 102.480977 
L 240.552043 90.383151 
L 242.392525 128.274455 
L 244.233008 103.622282 
L 246.07349 92.209238 
L 247.913972 113.894021 
L 249.754454 179.633151 
L 251.594937 105.90489 
L 253.435419 123.709238 
L 255.275901 103.16576 
L 257.116383 121.426629 
L 258.956865 104.535325 
L 260.797348 113.894021 
L 262.63783 185.339672 
L 264.478312 93.578804 
L 266.318794 114.122282 
L 268.159277 102.252717 
L 269.999759 124.850542 
L 271.840241 127.133151 
L 273.680723 104.307064 
L 275.521206 173.926629 
L 277.361688 125.307064 
L 279.20217 114.578803 
L 281.042652 129.872281 
L 282.883135 129.872281 
L 284.723617 139.002716 
L 286.564099 102.024456 
L 288.404581 79.198369 
L 290.245063 106.589673 
L 292.085546 102.024456 
L 293.926028 102.024456 
L 295.76651 108.872282 
L 297.606992 102.024456 
L 299.447475 97.91576 
L 301.287957 105.90489 
L 303.128439 107.730977 
L 304.968921 111.611412 
L 306.809404 99.057064 
L 308.649886 106.589673 
L 310.490368 103.16576 
L 314.171332 91.752717 
L 316.011815 97.459238 
L 317.852297 102.709238 
L 319.692779 91.752717 
L 321.533261 120.285325 
L 323.373744 107.730977 
L 325.214226 111.15489 
L 327.054708 128.274455 
L 328.89519 118.002716 
L 330.735673 90.611412 
L 332.576155 109.442934 
L 334.416637 88.328804 
L 336.257119 90.04076 
L 338.097602 79.198369 
L 339.938084 116.861412 
L 341.778566 64.361413 
L 343.619048 64.361413 
L 345.45953 86.046195 
L 347.300013 83.763586 
L 349.140495 76.91576 
L 350.980977 86.046195 
L 352.821459 116.861412 
L 354.661942 95.17663 
L 356.502424 81.480978 
L 358.342906 78.057065 
L 360.183388 95.17663 
L 362.023871 86.046195 
L 365.704835 86.046195 
L 367.545317 92.894021 
L 369.385799 86.046195 
L 371.226282 82.622282 
L 373.066764 81.480978 
L 374.907246 81.480978 
L 376.747728 64.361413 
L 378.588211 113.057102 
L 380.428693 102.404852 
L 382.269175 143.111412 
L 384.109657 131.698368 
L 385.95014 148.817933 
L 387.790622 133.980977 
L 389.631104 114.122282 
L 391.471586 119.600542 
L 393.312069 118.002716 
L 395.152551 124.850542 
L 396.993033 109.557064 
L 398.833515 123.480977 
L 402.51448 86.502717 
L 404.354962 151.100542 
L 406.195444 91.067934 
L 408.035926 91.524456 
L 409.876409 126.676629 
L 411.716891 119.372282 
L 413.557373 117.317934 
L 415.397855 107.046195 
L 417.238338 156.807064 
L 419.07882 121.883151 
L 420.919302 156.807064 
L 422.759784 91.524456 
L 424.600266 112.296195 
L 426.440749 95.633151 
L 428.281231 106.361412 
L 430.121713 156.807064 
L 431.962195 102.937499 
L 433.802678 118.91576 
L 435.64316 124.16576 
L 437.483642 133.524455 
L 439.324124 136.720108 
L 441.164607 96.774456 
L 443.005089 128.274455 
L 444.845571 88.100543 
L 446.686053 95.633151 
L 448.526536 66.41576 
L 450.367018 72.122282 
L 452.2075 98.144021 
L 454.047982 96.317934 
L 455.888464 109.252678 
L 457.728947 60.557103 
L 459.569429 37.42663 
L 461.409911 65.274456 
L 463.250393 64.817934 
L 465.090876 36.741848 
L 466.931358 65.502717 
L 468.77184 105.448369 
L 470.612322 35.600543 
L 472.452805 52.263587 
L 474.293287 79.654891 
L 476.133769 75.774456 
L 477.974251 78.285326 
L 479.814734 65.046195 
L 481.655216 111.15489 
L 483.495698 80.796195 
L 485.33618 66.41576 
L 487.176662 73.263586 
L 489.017145 65.959239 
L 490.857627 75.089673 
L 492.698109 91.752717 
L 494.538591 88.328804 
L 496.379074 83.763586 
L 498.219556 65.046195 
L 500.060038 70.524456 
L 501.90052 83.078804 
L 503.741003 69.611413 
L 505.581485 80.339673 
L 507.421967 94.035325 
L 509.262449 80.339673 
L 511.102931 65.046195 
L 512.943414 72.350543 
L 514.783896 56.828804 
L 516.624378 54.546195 
L 518.46486 54.089674 
L 520.305343 71.209239 
L 522.145825 74.633152 
L 523.986307 71.209239 
L 525.826789 66.644021 
L 527.667272 77.372282 
L 529.507754 71.209239 
L 531.348236 81.937499 
L 533.188718 68.92663 
L 535.029201 73.035326 
L 536.869683 73.035326 
L 538.710165 74.633152 
L 540.550647 68.241847 
L 542.391129 53.633152 
L 546.072094 99.741847 
L 547.912576 72.350543 
L 549.753058 72.350543 
L 551.593541 88.899456 
L 553.434023 85.361412 
L 555.274505 97.345108 
L 557.114987 94.491847 
L 558.95547 106.589673 
L 560.795952 98.600543 
L 562.636434 111.839673 
L 564.476916 105.90489 
L 566.317398 105.448369 
L 568.157881 100.198369 
L 569.998363 111.15489 
L 571.838845 94.491847 
L 573.679327 105.448369 
L 575.51981 113.437499 
L 577.360292 112.296195 
L 579.200774 106.589673 
L 581.041256 90.154891 
L 582.881739 94.491847 
L 584.722221 94.491847 
L 586.562703 90.154891 
L 590.243668 108.187499 
L 592.08415 89.013586 
L 593.924632 94.035325 
L 597.605596 132.078765 
L 599.446079 124.926667 
L 601.286561 137.40489 
L 603.127043 128.845108 
L 604.967525 111.15489 
L 606.808008 98.029891 
L 608.64849 83.763586 
L 610.488972 97.839635 
L 612.329454 122.187537 
L 614.169937 160.230977 
L 616.010419 159.546194 
L 617.850901 165.480977 
L 619.691383 146.535325 
L 621.531865 146.991847 
L 623.372348 164.415797 
L 625.21283 166.774417 
L 627.053312 178.491846 
L 628.893794 195.611411 
L 630.734277 185.339672 
L 632.574759 179.633151 
L 634.415241 162.513585 
L 636.255723 173.926629 
L 638.096206 176.209238 
L 639.936688 172.100542 
L 641.77717 181.230977 
L 643.617652 161.372281 
L 645.458135 154.980977 
L 647.298617 153.383151 
L 649.139099 151.100542 
L 650.979581 139.687499 
L 652.820063 151.100542 
L 656.501028 153.709221 
L 658.34151 149.307096 
L 660.181992 119.111379 
L 662.022475 146.209254 
L 663.862957 137.241798 
L 665.703439 117.317934 
L 667.543921 128.730977 
L 669.384404 114.578803 
L 671.224886 135.122281 
L 673.065368 127.133151 
L 674.90585 149.959238 
L 676.746332 133.980977 
L 678.586815 129.41576 
L 680.427297 135.122281 
L 682.267779 129.41576 
L 684.108261 135.122281 
L 685.948744 133.980977 
L 687.789226 129.41576 
L 689.629708 133.980977 
L 691.47019 133.980977 
L 693.310673 114.578803 
L 695.151155 131.698368 
L 696.991637 141.970107 
L 698.832119 128.730977 
L 700.672602 128.730977 
L 702.513084 117.317934 
L 704.353566 125.991847 
L 706.194048 122.567934 
L 708.03453 137.40489 
L 709.875013 136.263586 
L 711.715495 127.133151 
L 713.555977 101.567934 
L 715.396459 116.861412 
L 717.236942 135.578803 
L 719.077424 120.970108 
L 720.917906 123.709238 
L 722.758388 140.828803 
L 724.598871 131.698368 
L 726.439353 126.448368 
L 728.279835 119.600542 
L 730.120317 133.980977 
L 731.960799 125.991847 
L 733.801282 135.122281 
L 735.641764 119.600542 
L 737.482246 124.850542 
L 739.322728 129.41576 
L 741.163211 125.991847 
L 743.003693 127.133151 
L 744.844175 123.709238 
L 746.684657 140.144021 
L 748.52514 138.546194 
L 750.365622 143.567934 
L 752.206104 117.698331 
L 754.046586 113.057102 
L 755.887069 111.15489 
L 757.727551 121.720059 
L 759.568033 133.654906 
L 761.408515 125.502684 
L 763.248997 125.339705 
L 765.08948 120.611396 
L 766.929962 122.731026 
L 768.770444 124.16576 
L 770.610926 116.861412 
L 772.451409 147.676629 
L 774.291891 151.100542 
L 776.132373 137.40489 
L 777.972855 121.426629 
L 779.813338 129.41576 
L 781.65382 141.970107 
L 783.494302 122.111412 
L 785.334784 136.263586 
L 787.175266 130.557064 
L 789.015749 136.263586 
L 790.856231 117.241809 
L 792.696713 95.937537 
L 794.537195 82.622282 
L 796.377678 82.05163 
L 798.21816 70.752717 
L 800.058642 83.649456 
L 801.899124 102.024456 
L 803.739607 118.002716 
L 805.580089 118.002716 
L 807.420571 123.709238 
L 809.261053 106.589673 
L 811.101536 105.448369 
L 812.942018 105.448369 
L 814.7825 99.970108 
L 814.7825 99.970108 
" clip-path="url(#p6d3ab88ffa)" style="fill: none; stroke: #4878d0; stroke-width: 1.5; stroke-linecap: round"/>
   </g>
   <g id="patch_3">
    <path d="M 53.375 203.611955 
L 53.375 27.6 
" style="fill: none; stroke: #cccccc; stroke-width: 1.25; stroke-linejoin: miter; stroke-linecap: square"/>
   </g>
   <g id="patch_4">
    <path d="M 851.04 203.611955 
L 851.04 27.6 
" style="fill: none; stroke: #cccccc; stroke-width: 1.25; stroke-linejoin: miter; stroke-linecap: square"/>
   </g>
   <g id="patch_5">
    <path d="M 53.375 203.611955 
L 851.04 203.611955 
" style="fill: none; stroke: #cccccc; stroke-width: 1.25; stroke-linejoin: miter; stroke-linecap: square"/>
   </g>
   <g id="patch_6">
    <path d="M 53.375 27.6 
L 851.04 27.6 
" style="fill: none; stroke: #cccccc; stroke-width: 1.25; stroke-linejoin: miter; stroke-linecap: square"/>
   </g>
   <g id="text_8">
    <!-- Original -->
    <g style="fill: #262626" transform="translate(431.53375 21.6) scale(0.12 -0.12)">
     <defs>
      <path id="ArialMT-4f" d="M 309 2231 
Q 309 3372 921 4017 
Q 1534 4663 2503 4663 
Q 3138 4663 3647 4359 
Q 4156 4056 4423 3514 
Q 4691 2972 4691 2284 
Q 4691 1588 4409 1038 
Q 4128 488 3612 205 
Q 3097 -78 2500 -78 
Q 1853 -78 1343 234 
Q 834 547 571 1087 
Q 309 1628 309 2231 
z
M 934 2222 
Q 934 1394 1379 917 
Q 1825 441 2497 441 
Q 3181 441 3623 922 
Q 4066 1403 4066 2288 
Q 4066 2847 3877 3264 
Q 3688 3681 3323 3911 
Q 2959 4141 2506 4141 
Q 1863 4141 1398 3698 
Q 934 3256 934 2222 
z
" transform="scale(0.015625)"/>
      <path id="ArialMT-72" d="M 416 0 
L 416 3319 
L 922 3319 
L 922 2816 
Q 1116 3169 1280 3281 
Q 1444 3394 1641 3394 
Q 1925 3394 2219 3213 
L 2025 2691 
Q 1819 2813 1613 2813 
Q 1428 2813 1281 2702 
Q 1134 2591 1072 2394 
Q 978 2094 978 1738 
L 978 0 
L 416 0 
z
" transform="scale(0.015625)"/>
      <path id="ArialMT-69" d="M 425 3934 
L 425 4581 
L 988 4581 
L 988 3934 
L 425 3934 
z
M 425 0 
L 425 3319 
L 988 3319 
L 988 0 
L 425 0 
z
" transform="scale(0.015625)"/>
      <path id="ArialMT-67" d="M 319 -275 
L 866 -356 
Q 900 -609 1056 -725 
Q 1266 -881 1628 -881 
Q 2019 -881 2231 -725 
Q 2444 -569 2519 -288 
Q 2563 -116 2559 434 
Q 2191 0 1641 0 
Q 956 0 581 494 
Q 206 988 206 1678 
Q 206 2153 378 2554 
Q 550 2956 876 3175 
Q 1203 3394 1644 3394 
Q 2231 3394 2613 2919 
L 2613 3319 
L 3131 3319 
L 3131 450 
Q 3131 -325 2973 -648 
Q 2816 -972 2473 -1159 
Q 2131 -1347 1631 -1347 
Q 1038 -1347 672 -1080 
Q 306 -813 319 -275 
z
M 784 1719 
Q 784 1066 1043 766 
Q 1303 466 1694 466 
Q 2081 466 2343 764 
Q 2606 1063 2606 1700 
Q 2606 2309 2336 2618 
Q 2066 2928 1684 2928 
Q 1309 2928 1046 2623 
Q 784 2319 784 1719 
z
" transform="scale(0.015625)"/>
      <path id="ArialMT-6e" d="M 422 0 
L 422 3319 
L 928 3319 
L 928 2847 
Q 1294 3394 1984 3394 
Q 2284 3394 2536 3286 
Q 2788 3178 2913 3003 
Q 3038 2828 3088 2588 
Q 3119 2431 3119 2041 
L 3119 0 
L 2556 0 
L 2556 2019 
Q 2556 2363 2490 2533 
Q 2425 2703 2258 2804 
Q 2091 2906 1866 2906 
Q 1506 2906 1245 2678 
Q 984 2450 984 1813 
L 984 0 
L 422 0 
z
" transform="scale(0.015625)"/>
      <path id="ArialMT-61" d="M 2588 409 
Q 2275 144 1986 34 
Q 1697 -75 1366 -75 
Q 819 -75 525 192 
Q 231 459 231 875 
Q 231 1119 342 1320 
Q 453 1522 633 1644 
Q 813 1766 1038 1828 
Q 1203 1872 1538 1913 
Q 2219 1994 2541 2106 
Q 2544 2222 2544 2253 
Q 2544 2597 2384 2738 
Q 2169 2928 1744 2928 
Q 1347 2928 1158 2789 
Q 969 2650 878 2297 
L 328 2372 
Q 403 2725 575 2942 
Q 747 3159 1072 3276 
Q 1397 3394 1825 3394 
Q 2250 3394 2515 3294 
Q 2781 3194 2906 3042 
Q 3031 2891 3081 2659 
Q 3109 2516 3109 2141 
L 3109 1391 
Q 3109 606 3145 398 
Q 3181 191 3288 0 
L 2700 0 
Q 2613 175 2588 409 
z
M 2541 1666 
Q 2234 1541 1622 1453 
Q 1275 1403 1131 1340 
Q 988 1278 909 1158 
Q 831 1038 831 891 
Q 831 666 1001 516 
Q 1172 366 1500 366 
Q 1825 366 2078 508 
Q 2331 650 2450 897 
Q 2541 1088 2541 1459 
L 2541 1666 
z
" transform="scale(0.015625)"/>
      <path id="ArialMT-6c" d="M 409 0 
L 409 4581 
L 972 4581 
L 972 0 
L 409 0 
z
" transform="scale(0.015625)"/>
     </defs>
     <use xlink:href="#ArialMT-4f"/>
     <use xlink:href="#ArialMT-72" transform="translate(77.783203 0)"/>
     <use xlink:href="#ArialMT-69" transform="translate(111.083984 0)"/>
     <use xlink:href="#ArialMT-67" transform="translate(133.300781 0)"/>
     <use xlink:href="#ArialMT-69" transform="translate(188.916016 0)"/>
     <use xlink:href="#ArialMT-6e" transform="translate(211.132812 0)"/>
     <use xlink:href="#ArialMT-61" transform="translate(266.748047 0)"/>
     <use xlink:href="#ArialMT-6c" transform="translate(322.363281 0)"/>
    </g>
   </g>
  </g>
  <g id="axes_2">
   <g id="patch_7">
    <path d="M 53.375 412.774636 
L 851.04 412.774636 
L 851.04 236.762682 
L 53.375 236.762682 
z
" style="fill: #ffffff"/>
   </g>
   <g id="matplotlib.axis_3">
    <g id="xtick_8">
     <g id="line2d_16">
      <path d="M 89.6325 412.774636 
L 89.6325 236.762682 
" clip-path="url(#p86d2b18837)" style="fill: none; stroke: #cccccc; stroke-linecap: round"/>
     </g>
    </g>
    <g id="xtick_9">
     <g id="line2d_17">
      <path d="M 201.901916 412.774636 
L 201.901916 236.762682 
" clip-path="url(#p86d2b18837)" style="fill: none; stroke: #cccccc; stroke-linecap: round"/>
     </g>
    </g>
    <g id="xtick_10">
     <g id="line2d_18">
      <path d="M 314.171332 412.774636 
L 314.171332 236.762682 
" clip-path="url(#p86d2b18837)" style="fill: none; stroke: #cccccc; stroke-linecap: round"/>
     </g>
    </g>
    <g id="xtick_11">
     <g id="line2d_19">
      <path d="M 422.759784 412.774636 
L 422.759784 236.762682 
" clip-path="url(#p86d2b18837)" style="fill: none; stroke: #cccccc; stroke-linecap: round"/>
     </g>
    </g>
    <g id="xtick_12">
     <g id="line2d_20">
      <path d="M 535.029201 412.774636 
L 535.029201 236.762682 
" clip-path="url(#p86d2b18837)" style="fill: none; stroke: #cccccc; stroke-linecap: round"/>
     </g>
    </g>
    <g id="xtick_13">
     <g id="line2d_21">
      <path d="M 647.298617 412.774636 
L 647.298617 236.762682 
" clip-path="url(#p86d2b18837)" style="fill: none; stroke: #cccccc; stroke-linecap: round"/>
     </g>
    </g>
    <g id="xtick_14">
     <g id="line2d_22">
      <path d="M 761.408515 412.774636 
L 761.408515 236.762682 
" clip-path="url(#p86d2b18837)" style="fill: none; stroke: #cccccc; stroke-linecap: round"/>
     </g>
    </g>
   </g>
   <g id="matplotlib.axis_4">
    <g id="ytick_8">
     <g id="line2d_23">
      <path d="M 53.375 371.151054 
L 851.04 371.151054 
" clip-path="url(#p86d2b18837)" style="fill: none; stroke: #cccccc; stroke-linecap: round"/>
     </g>
     <g id="text_9">
      <!-- 8000 -->
      <g style="fill: #262626" transform="translate(19.406875 375.087851) scale(0.11 -0.11)">
       <use xlink:href="#ArialMT-38"/>
       <use xlink:href="#ArialMT-30" transform="translate(55.615234 0)"/>
       <use xlink:href="#ArialMT-30" transform="translate(111.230469 0)"/>
       <use xlink:href="#ArialMT-30" transform="translate(166.845703 0)"/>
      </g>
     </g>
    </g>
    <g id="ytick_9">
     <g id="line2d_24">
      <path d="M 53.375 328.258448 
L 851.04 328.258448 
" clip-path="url(#p86d2b18837)" style="fill: none; stroke: #cccccc; stroke-linecap: round"/>
     </g>
     <g id="text_10">
      <!-- 10000 -->
      <g style="fill: #262626" transform="translate(13.289844 332.195245) scale(0.11 -0.11)">
       <use xlink:href="#ArialMT-31"/>
       <use xlink:href="#ArialMT-30" transform="translate(55.615234 0)"/>
       <use xlink:href="#ArialMT-30" transform="translate(111.230469 0)"/>
       <use xlink:href="#ArialMT-30" transform="translate(166.845703 0)"/>
       <use xlink:href="#ArialMT-30" transform="translate(222.460938 0)"/>
      </g>
     </g>
    </g>
    <g id="ytick_10">
     <g id="line2d_25">
      <path d="M 53.375 285.365842 
L 851.04 285.365842 
" clip-path="url(#p86d2b18837)" style="fill: none; stroke: #cccccc; stroke-linecap: round"/>
     </g>
     <g id="text_11">
      <!-- 12000 -->
      <g style="fill: #262626" transform="translate(13.289844 289.302639) scale(0.11 -0.11)">
       <use xlink:href="#ArialMT-31"/>
       <use xlink:href="#ArialMT-32" transform="translate(55.615234 0)"/>
       <use xlink:href="#ArialMT-30" transform="translate(111.230469 0)"/>
       <use xlink:href="#ArialMT-30" transform="translate(166.845703 0)"/>
       <use xlink:href="#ArialMT-30" transform="translate(222.460938 0)"/>
      </g>
     </g>
    </g>
    <g id="ytick_11">
     <g id="line2d_26">
      <path d="M 53.375 242.473235 
L 851.04 242.473235 
" clip-path="url(#p86d2b18837)" style="fill: none; stroke: #cccccc; stroke-linecap: round"/>
     </g>
     <g id="text_12">
      <!-- 14000 -->
      <g style="fill: #262626" transform="translate(13.289844 246.410032) scale(0.11 -0.11)">
       <use xlink:href="#ArialMT-31"/>
       <use xlink:href="#ArialMT-34" transform="translate(55.615234 0)"/>
       <use xlink:href="#ArialMT-30" transform="translate(111.230469 0)"/>
       <use xlink:href="#ArialMT-30" transform="translate(166.845703 0)"/>
       <use xlink:href="#ArialMT-30" transform="translate(222.460938 0)"/>
      </g>
     </g>
    </g>
   </g>
   <g id="line2d_27">
    <path d="M 117.239734 355.703586 
L 119.080216 355.344446 
L 120.920698 354.329321 
L 124.601662 349.320759 
L 130.123109 344.764953 
L 131.963591 343.628299 
L 133.804074 342.084165 
L 135.644556 339.124575 
L 137.485038 335.267815 
L 139.32552 332.13308 
L 143.006485 325.341751 
L 144.846967 323.804766 
L 146.687449 321.98183 
L 148.527931 317.942776 
L 150.368414 313.28178 
L 152.208896 309.571569 
L 155.88986 302.615818 
L 157.730343 301.522057 
L 159.570825 300.943007 
L 161.411307 296.925399 
L 163.251789 293.293825 
L 165.092272 292.157171 
L 168.773236 288.168159 
L 170.613718 288.022631 
L 172.454201 286.220631 
L 174.294683 282.262933 
L 176.135165 279.617889 
L 179.816129 275.658837 
L 181.656612 274.714178 
L 183.497094 275.224124 
L 185.337576 275.495778 
L 189.018541 270.128243 
L 190.859023 268.480452 
L 192.699505 267.21512 
L 194.539987 266.364417 
L 198.220952 267.026868 
L 201.901916 263.647885 
L 203.742398 262.840075 
L 205.582881 262.182388 
L 207.423363 261.396024 
L 209.263845 264.126853 
L 211.104327 268.408965 
L 212.94481 268.752106 
L 214.785292 269.745784 
L 216.625774 272.598143 
L 218.466256 274.356739 
L 220.306739 275.958063 
L 222.147221 280.440341 
L 223.987703 284.193444 
L 225.828185 284.321099 
L 227.668668 285.354607 
L 229.50915 287.286819 
L 231.349632 288.366283 
L 233.190114 289.7511 
L 235.030596 293.921894 
L 236.871079 296.853911 
L 238.711561 296.479791 
L 240.552043 297.201817 
L 242.392525 300.242427 
L 244.233008 304.077741 
L 246.07349 307.162434 
L 247.913972 311.390931 
L 249.754454 316.248518 
L 251.594937 317.930863 
L 253.435419 319.410658 
L 255.275901 322.203442 
L 257.116383 325.506172 
L 258.956865 328.279894 
L 260.797348 329.773987 
L 262.63783 331.982956 
L 264.478312 331.754195 
L 266.318794 330.202913 
L 268.159277 330.767665 
L 269.999759 330.524607 
L 271.840241 329.52378 
L 275.521206 330.009896 
L 279.20217 325.341751 
L 281.042652 324.59113 
L 282.883135 324.054973 
L 284.723617 323.304352 
L 286.564099 322.1534 
L 288.404581 321.238358 
L 290.245063 318.135793 
L 292.085546 315.490749 
L 293.926028 315.626575 
L 295.76651 315.991163 
L 297.606992 315.733807 
L 299.447475 315.340625 
L 301.287957 315.805295 
L 303.128439 313.62492 
L 304.968921 310.518781 
L 306.809404 309.199833 
L 308.649886 307.130265 
L 310.490368 304.295779 
L 312.33085 302.015322 
L 314.171332 300.142345 
L 316.011815 298.498128 
L 319.692779 296.174779 
L 321.533261 294.816513 
L 323.373744 293.315271 
L 325.214226 293.065065 
L 327.054708 293.443949 
L 328.89519 292.593246 
L 330.735673 290.898988 
L 332.576155 289.454937 
L 334.416637 288.532746 
L 336.257119 287.481877 
L 338.097602 286.30233 
L 339.938084 285.623197 
L 341.778566 285.301503 
L 343.619048 284.658114 
L 345.45953 283.528608 
L 347.300013 282.542078 
L 349.140495 280.468936 
L 350.980977 278.884294 
L 352.821459 278.777062 
L 354.661942 278.967695 
L 356.502424 279.861291 
L 358.342906 282.113152 
L 360.183388 284.704581 
L 362.023871 286.280884 
L 363.864353 288.01446 
L 365.704835 290.155516 
L 367.545317 291.621013 
L 369.385799 293.286676 
L 371.226282 296.553663 
L 373.066764 299.012839 
L 374.907246 299.70627 
L 378.588211 304.596027 
L 380.428693 303.959787 
L 382.269175 304.152803 
L 384.109657 306.326029 
L 385.95014 308.742312 
L 387.790622 310.343636 
L 389.631104 312.93149 
L 393.312069 319.608439 
L 395.152551 321.781664 
L 396.993033 322.56088 
L 400.673997 324.977164 
L 402.51448 328.115473 
L 404.354962 331.682708 
L 406.195444 333.074333 
L 408.035926 333.939334 
L 409.876409 334.320603 
L 411.716891 334.177628 
L 413.557373 332.704982 
L 415.397855 330.896343 
L 417.238338 329.902665 
L 419.07882 328.337084 
L 420.919302 325.970842 
L 422.759784 322.703855 
L 424.600266 320.695052 
L 426.440749 319.48691 
L 430.121713 318.061921 
L 433.802678 309.321362 
L 435.64316 307.677146 
L 437.483642 304.024125 
L 439.324124 299.520402 
L 441.164607 297.461557 
L 443.005089 294.852256 
L 444.845571 289.340557 
L 446.686053 284.743899 
L 448.526536 280.883564 
L 450.367018 277.931123 
L 452.2075 276.0367 
L 454.047982 275.043021 
L 455.888464 274.728475 
L 459.569429 267.33665 
L 461.409911 264.748796 
L 463.250393 261.553296 
L 466.931358 255.884324 
L 468.77184 253.961305 
L 472.452805 249.042953 
L 474.293287 248.099316 
L 476.133769 247.806216 
L 477.974251 248.163655 
L 479.814734 248.292332 
L 481.655216 247.663241 
L 483.495698 245.77835 
L 485.33618 244.763225 
L 487.176662 245.740222 
L 489.017145 246.011875 
L 490.857627 245.339891 
L 492.698109 246.083363 
L 494.538591 247.448778 
L 496.379074 246.662413 
L 498.219556 246.562331 
L 500.060038 248.320927 
L 501.90052 248.842787 
L 507.421967 248.628324 
L 509.262449 247.684687 
L 511.102931 246.297826 
L 512.943414 246.162 
L 514.783896 245.604396 
L 516.624378 245.311296 
L 518.46486 246.405058 
L 520.305343 246.569479 
L 522.145825 245.46142 
L 523.986307 245.121854 
L 525.826789 245.918941 
L 527.667272 247.395162 
L 529.507754 248.592581 
L 531.348236 250.108119 
L 533.188718 251.838121 
L 535.029201 252.967626 
L 536.869683 254.325892 
L 540.550647 258.529368 
L 542.391129 261.102924 
L 547.912576 269.845867 
L 549.753058 272.347936 
L 551.593541 274.635541 
L 553.434023 276.479923 
L 557.114987 279.017736 
L 558.95547 280.004266 
L 560.795952 281.212408 
L 562.636434 283.264104 
L 564.476916 284.865428 
L 566.317398 285.973487 
L 568.157881 287.996588 
L 571.838845 295.8507 
L 573.679327 298.555318 
L 577.360292 304.488795 
L 579.200774 305.990037 
L 581.041256 306.225946 
L 582.881739 306.191392 
L 584.722221 307.074265 
L 586.562703 309.621611 
L 590.243668 316.798973 
L 592.08415 319.751414 
L 593.924632 322.324971 
L 595.765114 325.637234 
L 597.605596 329.390337 
L 599.446079 333.762999 
L 601.286561 339.217509 
L 603.127043 344.293134 
L 604.967525 348.653882 
L 606.808008 352.514217 
L 608.64849 356.889263 
L 614.169937 372.344899 
L 616.010419 377.141722 
L 619.691383 384.033134 
L 621.531865 387.836278 
L 623.372348 390.445578 
L 628.893794 394.690928 
L 630.734277 395.84239 
L 632.574759 396.732412 
L 634.415241 398.490498 
L 636.255723 401.674251 
L 638.096206 403.959133 
L 639.936688 404.774093 
L 641.77717 403.54927 
L 643.617652 401.354598 
L 645.458135 399.388687 
L 647.298617 398.294925 
L 649.139099 397.994677 
L 650.979581 396.491052 
L 652.820063 394.403612 
L 654.660546 391.875332 
L 660.181992 381.759826 
L 662.022475 379.293501 
L 663.862957 377.14887 
L 667.543921 370.77217 
L 669.384404 368.27725 
L 671.224886 366.025388 
L 674.90585 362.229392 
L 676.746332 360.313522 
L 678.586815 358.991 
L 682.267779 357.091469 
L 684.108261 355.753627 
L 685.948744 353.426192 
L 687.789226 351.860612 
L 689.629708 351.457218 
L 691.47019 350.614686 
L 693.310673 350.305248 
L 695.151155 350.884298 
L 696.991637 351.79934 
L 698.832119 352.063845 
L 700.672602 351.556282 
L 704.353566 350.069338 
L 706.194048 349.997851 
L 708.03453 349.690454 
L 709.875013 349.061362 
L 715.396459 347.989047 
L 717.236942 347.595865 
L 719.077424 347.467187 
L 720.917906 348.410824 
L 722.758388 349.533181 
L 724.598871 349.144763 
L 726.439353 347.893729 
L 728.279835 346.852393 
L 730.120317 346.439805 
L 733.801282 347.149574 
L 735.641764 346.863624 
L 737.482246 345.995559 
L 739.322728 345.36749 
L 741.163211 345.937351 
L 743.003693 346.645079 
L 744.844175 347.023963 
L 748.52514 349.719049 
L 750.365622 349.54033 
L 752.206104 348.861197 
L 754.046586 349.275825 
L 755.887069 349.840578 
L 763.248997 350.345756 
L 765.08948 349.366375 
L 766.929962 346.995368 
L 768.770444 344.153733 
L 772.451409 337.991495 
L 774.291891 335.543042 
L 776.132373 333.705809 
L 777.972855 332.261758 
L 779.813338 331.649348 
L 781.65382 331.63505 
L 783.494302 331.253782 
L 785.334784 330.565459 
L 787.175266 329.000901 
L 787.175266 329.000901 
" clip-path="url(#p86d2b18837)" style="fill: none; stroke: #4878d0; stroke-width: 1.5; stroke-linecap: round"/>
   </g>
   <g id="patch_8">
    <path d="M 53.375 412.774636 
L 53.375 236.762682 
" style="fill: none; stroke: #cccccc; stroke-width: 1.25; stroke-linejoin: miter; stroke-linecap: square"/>
   </g>
   <g id="patch_9">
    <path d="M 851.04 412.774636 
L 851.04 236.762682 
" style="fill: none; stroke: #cccccc; stroke-width: 1.25; stroke-linejoin: miter; stroke-linecap: square"/>
   </g>
   <g id="patch_10">
    <path d="M 53.375 412.774636 
L 851.04 412.774636 
" style="fill: none; stroke: #cccccc; stroke-width: 1.25; stroke-linejoin: miter; stroke-linecap: square"/>
   </g>
   <g id="patch_11">
    <path d="M 53.375 236.762682 
L 851.04 236.762682 
" style="fill: none; stroke: #cccccc; stroke-width: 1.25; stroke-linejoin: miter; stroke-linecap: square"/>
   </g>
   <g id="text_13">
    <!-- Trend -->
    <g style="fill: #262626" transform="translate(436.760312 230.762682) scale(0.12 -0.12)">
     <defs>
      <path id="ArialMT-54" d="M 1659 0 
L 1659 4041 
L 150 4041 
L 150 4581 
L 3781 4581 
L 3781 4041 
L 2266 4041 
L 2266 0 
L 1659 0 
z
" transform="scale(0.015625)"/>
      <path id="ArialMT-65" d="M 2694 1069 
L 3275 997 
Q 3138 488 2766 206 
Q 2394 -75 1816 -75 
Q 1088 -75 661 373 
Q 234 822 234 1631 
Q 234 2469 665 2931 
Q 1097 3394 1784 3394 
Q 2450 3394 2872 2941 
Q 3294 2488 3294 1666 
Q 3294 1616 3291 1516 
L 816 1516 
Q 847 969 1125 678 
Q 1403 388 1819 388 
Q 2128 388 2347 550 
Q 2566 713 2694 1069 
z
M 847 1978 
L 2700 1978 
Q 2663 2397 2488 2606 
Q 2219 2931 1791 2931 
Q 1403 2931 1139 2672 
Q 875 2413 847 1978 
z
" transform="scale(0.015625)"/>
      <path id="ArialMT-64" d="M 2575 0 
L 2575 419 
Q 2259 -75 1647 -75 
Q 1250 -75 917 144 
Q 584 363 401 755 
Q 219 1147 219 1656 
Q 219 2153 384 2558 
Q 550 2963 881 3178 
Q 1213 3394 1622 3394 
Q 1922 3394 2156 3267 
Q 2391 3141 2538 2938 
L 2538 4581 
L 3097 4581 
L 3097 0 
L 2575 0 
z
M 797 1656 
Q 797 1019 1065 703 
Q 1334 388 1700 388 
Q 2069 388 2326 689 
Q 2584 991 2584 1609 
Q 2584 2291 2321 2609 
Q 2059 2928 1675 2928 
Q 1300 2928 1048 2622 
Q 797 2316 797 1656 
z
" transform="scale(0.015625)"/>
     </defs>
     <use xlink:href="#ArialMT-54"/>
     <use xlink:href="#ArialMT-72" transform="translate(57.333984 0)"/>
     <use xlink:href="#ArialMT-65" transform="translate(90.634766 0)"/>
     <use xlink:href="#ArialMT-6e" transform="translate(146.25 0)"/>
     <use xlink:href="#ArialMT-64" transform="translate(201.865234 0)"/>
    </g>
   </g>
  </g>
  <g id="axes_3">
   <g id="patch_12">
    <path d="M 53.375 621.937318 
L 851.04 621.937318 
L 851.04 445.925364 
L 53.375 445.925364 
z
" style="fill: #ffffff"/>
   </g>
   <g id="matplotlib.axis_5">
    <g id="xtick_15">
     <g id="line2d_28">
      <path d="M 89.6325 621.937318 
L 89.6325 445.925364 
" clip-path="url(#p379b498345)" style="fill: none; stroke: #cccccc; stroke-linecap: round"/>
     </g>
    </g>
    <g id="xtick_16">
     <g id="line2d_29">
      <path d="M 201.901916 621.937318 
L 201.901916 445.925364 
" clip-path="url(#p379b498345)" style="fill: none; stroke: #cccccc; stroke-linecap: round"/>
     </g>
    </g>
    <g id="xtick_17">
     <g id="line2d_30">
      <path d="M 314.171332 621.937318 
L 314.171332 445.925364 
" clip-path="url(#p379b498345)" style="fill: none; stroke: #cccccc; stroke-linecap: round"/>
     </g>
    </g>
    <g id="xtick_18">
     <g id="line2d_31">
      <path d="M 422.759784 621.937318 
L 422.759784 445.925364 
" clip-path="url(#p379b498345)" style="fill: none; stroke: #cccccc; stroke-linecap: round"/>
     </g>
    </g>
    <g id="xtick_19">
     <g id="line2d_32">
      <path d="M 535.029201 621.937318 
L 535.029201 445.925364 
" clip-path="url(#p379b498345)" style="fill: none; stroke: #cccccc; stroke-linecap: round"/>
     </g>
    </g>
    <g id="xtick_20">
     <g id="line2d_33">
      <path d="M 647.298617 621.937318 
L 647.298617 445.925364 
" clip-path="url(#p379b498345)" style="fill: none; stroke: #cccccc; stroke-linecap: round"/>
     </g>
    </g>
    <g id="xtick_21">
     <g id="line2d_34">
      <path d="M 761.408515 621.937318 
L 761.408515 445.925364 
" clip-path="url(#p379b498345)" style="fill: none; stroke: #cccccc; stroke-linecap: round"/>
     </g>
    </g>
   </g>
   <g id="matplotlib.axis_6">
    <g id="ytick_12">
     <g id="line2d_35">
      <path d="M 53.375 621.025443 
L 851.04 621.025443 
" clip-path="url(#p379b498345)" style="fill: none; stroke: #cccccc; stroke-linecap: round"/>
     </g>
     <g id="text_14">
      <!-- −600 -->
      <g style="fill: #262626" transform="translate(19.099219 624.96224) scale(0.11 -0.11)">
       <defs>
        <path id="ArialMT-2212" d="M 3381 1997 
L 356 1997 
L 356 2522 
L 3381 2522 
L 3381 1997 
z
" transform="scale(0.015625)"/>
       </defs>
       <use xlink:href="#ArialMT-2212"/>
       <use xlink:href="#ArialMT-36" transform="translate(58.398438 0)"/>
       <use xlink:href="#ArialMT-30" transform="translate(114.013672 0)"/>
       <use xlink:href="#ArialMT-30" transform="translate(169.628906 0)"/>
      </g>
     </g>
    </g>
    <g id="ytick_13">
     <g id="line2d_36">
      <path d="M 53.375 590.823579 
L 851.04 590.823579 
" clip-path="url(#p379b498345)" style="fill: none; stroke: #cccccc; stroke-linecap: round"/>
     </g>
     <g id="text_15">
      <!-- −400 -->
      <g style="fill: #262626" transform="translate(19.099219 594.760376) scale(0.11 -0.11)">
       <use xlink:href="#ArialMT-2212"/>
       <use xlink:href="#ArialMT-34" transform="translate(58.398438 0)"/>
       <use xlink:href="#ArialMT-30" transform="translate(114.013672 0)"/>
       <use xlink:href="#ArialMT-30" transform="translate(169.628906 0)"/>
      </g>
     </g>
    </g>
    <g id="ytick_14">
     <g id="line2d_37">
      <path d="M 53.375 560.621716 
L 851.04 560.621716 
" clip-path="url(#p379b498345)" style="fill: none; stroke: #cccccc; stroke-linecap: round"/>
     </g>
     <g id="text_16">
      <!-- −200 -->
      <g style="fill: #262626" transform="translate(19.099219 564.558513) scale(0.11 -0.11)">
       <use xlink:href="#ArialMT-2212"/>
       <use xlink:href="#ArialMT-32" transform="translate(58.398438 0)"/>
       <use xlink:href="#ArialMT-30" transform="translate(114.013672 0)"/>
       <use xlink:href="#ArialMT-30" transform="translate(169.628906 0)"/>
      </g>
     </g>
    </g>
    <g id="ytick_15">
     <g id="line2d_38">
      <path d="M 53.375 530.419852 
L 851.04 530.419852 
" clip-path="url(#p379b498345)" style="fill: none; stroke: #cccccc; stroke-linecap: round"/>
     </g>
     <g id="text_17">
      <!-- 0 -->
      <g style="fill: #262626" transform="translate(37.757969 534.356649) scale(0.11 -0.11)">
       <use xlink:href="#ArialMT-30"/>
      </g>
     </g>
    </g>
    <g id="ytick_16">
     <g id="line2d_39">
      <path d="M 53.375 500.217989 
L 851.04 500.217989 
" clip-path="url(#p379b498345)" style="fill: none; stroke: #cccccc; stroke-linecap: round"/>
     </g>
     <g id="text_18">
      <!-- 200 -->
      <g style="fill: #262626" transform="translate(25.523906 504.154785) scale(0.11 -0.11)">
       <use xlink:href="#ArialMT-32"/>
       <use xlink:href="#ArialMT-30" transform="translate(55.615234 0)"/>
       <use xlink:href="#ArialMT-30" transform="translate(111.230469 0)"/>
      </g>
     </g>
    </g>
    <g id="ytick_17">
     <g id="line2d_40">
      <path d="M 53.375 470.016125 
L 851.04 470.016125 
" clip-path="url(#p379b498345)" style="fill: none; stroke: #cccccc; stroke-linecap: round"/>
     </g>
     <g id="text_19">
      <!-- 400 -->
      <g style="fill: #262626" transform="translate(25.523906 473.952922) scale(0.11 -0.11)">
       <use xlink:href="#ArialMT-34"/>
       <use xlink:href="#ArialMT-30" transform="translate(55.615234 0)"/>
       <use xlink:href="#ArialMT-30" transform="translate(111.230469 0)"/>
      </g>
     </g>
    </g>
   </g>
   <g id="line2d_41">
    <path d="M 89.6325 571.944985 
L 91.472982 535.277447 
L 93.313464 476.960795 
L 95.153947 479.237344 
L 96.994429 567.538826 
L 98.834911 490.581584 
L 100.675393 523.210056 
L 102.515876 505.491671 
L 104.356358 605.735207 
L 106.19684 590.875513 
L 108.037322 514.1684 
L 109.877805 613.936775 
L 111.718287 530.43634 
L 113.558769 489.233238 
L 115.399251 536.652429 
L 117.239734 573.045846 
L 119.080216 590.967831 
L 120.920698 569.834271 
L 122.76118 467.16121 
L 124.601662 496.193127 
L 126.442145 466.382462 
L 128.282627 470.413446 
L 130.123109 453.925907 
L 131.963591 533.666616 
L 133.804074 547.279626 
L 135.644556 479.287681 
L 137.485038 528.135 
L 139.32552 549.90551 
L 141.166003 541.92299 
L 143.006485 613.193431 
L 144.846967 571.944985 
L 146.687449 535.277447 
L 148.527931 476.960795 
L 150.368414 479.237344 
L 152.208896 567.538826 
L 154.049378 490.581584 
L 155.88986 523.210056 
L 157.730343 505.491671 
L 159.570825 605.735207 
L 161.411307 590.875513 
L 163.251789 514.1684 
L 165.092272 613.936775 
L 166.932754 530.43634 
L 168.773236 489.233238 
L 170.613718 536.652429 
L 172.454201 573.045846 
L 174.294683 590.967831 
L 176.135165 569.834271 
L 177.975647 467.16121 
L 179.816129 496.193127 
L 181.656612 466.382462 
L 183.497094 470.413446 
L 185.337576 453.925907 
L 187.178058 533.666616 
L 189.018541 547.279626 
L 190.859023 479.287681 
L 192.699505 528.135 
L 194.539987 549.90551 
L 196.38047 541.92299 
L 198.220952 613.193431 
L 200.061434 571.944985 
L 201.901916 535.277447 
L 203.742398 476.960795 
L 205.582881 479.237344 
L 207.423363 567.538826 
L 209.263845 490.581584 
L 211.104327 523.210056 
L 212.94481 505.491671 
L 214.785292 605.735207 
L 216.625774 590.875513 
L 218.466256 514.1684 
L 220.306739 613.936775 
L 222.147221 530.43634 
L 223.987703 489.233238 
L 225.828185 536.652429 
L 227.668668 573.045846 
L 229.50915 590.967831 
L 231.349632 569.834271 
L 233.190114 467.16121 
L 235.030596 496.193127 
L 236.871079 466.382462 
L 238.711561 470.413446 
L 240.552043 453.925907 
L 242.392525 533.666616 
L 244.233008 547.279626 
L 246.07349 479.287681 
L 247.913972 528.135 
L 249.754454 549.90551 
L 251.594937 541.92299 
L 253.435419 613.193431 
L 255.275901 571.944985 
L 257.116383 535.277447 
L 258.956865 476.960795 
L 260.797348 479.237344 
L 262.63783 567.538826 
L 264.478312 490.581584 
L 266.318794 523.210056 
L 268.159277 505.491671 
L 269.999759 605.735207 
L 271.840241 590.875513 
L 273.680723 514.1684 
L 275.521206 613.936775 
L 277.361688 530.43634 
L 279.20217 489.233238 
L 281.042652 536.652429 
L 282.883135 573.045846 
L 284.723617 590.967831 
L 286.564099 569.834271 
L 288.404581 467.16121 
L 290.245063 496.193127 
L 292.085546 466.382462 
L 293.926028 470.413446 
L 295.76651 453.925907 
L 297.606992 533.666616 
L 299.447475 547.279626 
L 301.287957 479.287681 
L 303.128439 528.135 
L 304.968921 549.90551 
L 306.809404 541.92299 
L 308.649886 613.193431 
L 310.490368 571.944985 
L 312.33085 535.277447 
L 314.171332 476.960795 
L 316.011815 479.237344 
L 317.852297 567.538826 
L 319.692779 490.581584 
L 321.533261 523.210056 
L 323.373744 505.491671 
L 325.214226 605.735207 
L 327.054708 590.875513 
L 328.89519 514.1684 
L 330.735673 613.936775 
L 332.576155 530.43634 
L 334.416637 489.233238 
L 336.257119 536.652429 
L 338.097602 573.045846 
L 339.938084 590.967831 
L 341.778566 569.834271 
L 343.619048 467.16121 
L 345.45953 496.193127 
L 347.300013 466.382462 
L 349.140495 470.413446 
L 350.980977 453.925907 
L 352.821459 533.666616 
L 354.661942 547.279626 
L 356.502424 479.287681 
L 358.342906 528.135 
L 360.183388 549.90551 
L 362.023871 541.92299 
L 363.864353 613.193431 
L 365.704835 571.944985 
L 367.545317 535.277447 
L 369.385799 476.960795 
L 371.226282 479.237344 
L 373.066764 567.538826 
L 374.907246 490.581584 
L 376.747728 523.210056 
L 378.588211 505.491671 
L 380.428693 605.735207 
L 382.269175 590.875513 
L 384.109657 514.1684 
L 385.95014 613.936775 
L 387.790622 530.43634 
L 389.631104 489.233238 
L 391.471586 536.652429 
L 393.312069 573.045846 
L 395.152551 590.967831 
L 396.993033 569.834271 
L 398.833515 467.16121 
L 400.673997 496.193127 
L 402.51448 466.382462 
L 404.354962 470.413446 
L 406.195444 453.925907 
L 408.035926 533.666616 
L 409.876409 547.279626 
L 411.716891 479.287681 
L 413.557373 528.135 
L 415.397855 549.90551 
L 417.238338 541.92299 
L 419.07882 613.193431 
L 420.919302 571.944985 
L 422.759784 535.277447 
L 424.600266 476.960795 
L 426.440749 479.237344 
L 428.281231 567.538826 
L 430.121713 490.581584 
L 431.962195 523.210056 
L 433.802678 505.491671 
L 435.64316 605.735207 
L 437.483642 590.875513 
L 439.324124 514.1684 
L 441.164607 613.936775 
L 443.005089 530.43634 
L 444.845571 489.233238 
L 446.686053 536.652429 
L 448.526536 573.045846 
L 450.367018 590.967831 
L 452.2075 569.834271 
L 454.047982 467.16121 
L 455.888464 496.193127 
L 457.728947 466.382462 
L 459.569429 470.413446 
L 461.409911 453.925907 
L 463.250393 533.666616 
L 465.090876 547.279626 
L 466.931358 479.287681 
L 468.77184 528.135 
L 470.612322 549.90551 
L 472.452805 541.92299 
L 474.293287 613.193431 
L 476.133769 571.944985 
L 477.974251 535.277447 
L 479.814734 476.960795 
L 481.655216 479.237344 
L 483.495698 567.538826 
L 485.33618 490.581584 
L 487.176662 523.210056 
L 489.017145 505.491671 
L 490.857627 605.735207 
L 492.698109 590.875513 
L 494.538591 514.1684 
L 496.379074 613.936775 
L 498.219556 530.43634 
L 500.060038 489.233238 
L 501.90052 536.652429 
L 503.741003 573.045846 
L 505.581485 590.967831 
L 507.421967 569.834271 
L 509.262449 467.16121 
L 511.102931 496.193127 
L 512.943414 466.382462 
L 514.783896 470.413446 
L 516.624378 453.925907 
L 518.46486 533.666616 
L 520.305343 547.279626 
L 522.145825 479.287681 
L 523.986307 528.135 
L 525.826789 549.90551 
L 527.667272 541.92299 
L 529.507754 613.193431 
L 531.348236 571.944985 
L 533.188718 535.277447 
L 535.029201 476.960795 
L 536.869683 479.237344 
L 538.710165 567.538826 
L 540.550647 490.581584 
L 542.391129 523.210056 
L 544.231612 505.491671 
L 546.072094 605.735207 
L 547.912576 590.875513 
L 549.753058 514.1684 
L 551.593541 613.936775 
L 553.434023 530.43634 
L 555.274505 489.233238 
L 557.114987 536.652429 
L 558.95547 573.045846 
L 560.795952 590.967831 
L 562.636434 569.834271 
L 564.476916 467.16121 
L 566.317398 496.193127 
L 568.157881 466.382462 
L 569.998363 470.413446 
L 571.838845 453.925907 
L 573.679327 533.666616 
L 575.51981 547.279626 
L 577.360292 479.287681 
L 579.200774 528.135 
L 581.041256 549.90551 
L 582.881739 541.92299 
L 584.722221 613.193431 
L 586.562703 571.944985 
L 588.403185 535.277447 
L 590.243668 476.960795 
L 592.08415 479.237344 
L 593.924632 567.538826 
L 595.765114 490.581584 
L 597.605596 523.210056 
L 599.446079 505.491671 
L 601.286561 605.735207 
L 603.127043 590.875513 
L 604.967525 514.1684 
L 606.808008 613.936775 
L 608.64849 530.43634 
L 610.488972 489.233238 
L 612.329454 536.652429 
L 614.169937 573.045846 
L 616.010419 590.967831 
L 617.850901 569.834271 
L 619.691383 467.16121 
L 621.531865 496.193127 
L 623.372348 466.382462 
L 625.21283 470.413446 
L 627.053312 453.925907 
L 628.893794 533.666616 
L 630.734277 547.279626 
L 632.574759 479.287681 
L 634.415241 528.135 
L 636.255723 549.90551 
L 638.096206 541.92299 
L 639.936688 613.193431 
L 641.77717 571.944985 
L 643.617652 535.277447 
L 645.458135 476.960795 
L 647.298617 479.237344 
L 649.139099 567.538826 
L 650.979581 490.581584 
L 652.820063 523.210056 
L 654.660546 505.491671 
L 656.501028 605.735207 
L 658.34151 590.875513 
L 660.181992 514.1684 
L 662.022475 613.936775 
L 663.862957 530.43634 
L 665.703439 489.233238 
L 667.543921 536.652429 
L 669.384404 573.045846 
L 671.224886 590.967831 
L 673.065368 569.834271 
L 674.90585 467.16121 
L 676.746332 496.193127 
L 678.586815 466.382462 
L 680.427297 470.413446 
L 682.267779 453.925907 
L 684.108261 533.666616 
L 685.948744 547.279626 
L 687.789226 479.287681 
L 689.629708 528.135 
L 691.47019 549.90551 
L 693.310673 541.92299 
L 695.151155 613.193431 
L 696.991637 571.944985 
L 698.832119 535.277447 
L 700.672602 476.960795 
L 702.513084 479.237344 
L 704.353566 567.538826 
L 706.194048 490.581584 
L 708.03453 523.210056 
L 709.875013 505.491671 
L 711.715495 605.735207 
L 713.555977 590.875513 
L 715.396459 514.1684 
L 717.236942 613.936775 
L 719.077424 530.43634 
L 720.917906 489.233238 
L 722.758388 536.652429 
L 724.598871 573.045846 
L 726.439353 590.967831 
L 728.279835 569.834271 
L 730.120317 467.16121 
L 731.960799 496.193127 
L 733.801282 466.382462 
L 735.641764 470.413446 
L 737.482246 453.925907 
L 739.322728 533.666616 
L 741.163211 547.279626 
L 743.003693 479.287681 
L 744.844175 528.135 
L 746.684657 549.90551 
L 748.52514 541.92299 
L 750.365622 613.193431 
L 752.206104 571.944985 
L 754.046586 535.277447 
L 755.887069 476.960795 
L 757.727551 479.237344 
L 759.568033 567.538826 
L 761.408515 490.581584 
L 763.248997 523.210056 
L 765.08948 505.491671 
L 766.929962 605.735207 
L 768.770444 590.875513 
L 770.610926 514.1684 
L 772.451409 613.936775 
L 774.291891 530.43634 
L 776.132373 489.233238 
L 777.972855 536.652429 
L 779.813338 573.045846 
L 781.65382 590.967831 
L 783.494302 569.834271 
L 785.334784 467.16121 
L 787.175266 496.193127 
L 789.015749 466.382462 
L 790.856231 470.413446 
L 792.696713 453.925907 
L 794.537195 533.666616 
L 796.377678 547.279626 
L 798.21816 479.287681 
L 800.058642 528.135 
L 801.899124 549.90551 
L 803.739607 541.92299 
L 805.580089 613.193431 
L 807.420571 571.944985 
L 809.261053 535.277447 
L 811.101536 476.960795 
L 812.942018 479.237344 
L 814.7825 567.538826 
L 814.7825 567.538826 
" clip-path="url(#p379b498345)" style="fill: none; stroke: #4878d0; stroke-width: 1.5; stroke-linecap: round"/>
   </g>
   <g id="patch_13">
    <path d="M 53.375 621.937318 
L 53.375 445.925364 
" style="fill: none; stroke: #cccccc; stroke-width: 1.25; stroke-linejoin: miter; stroke-linecap: square"/>
   </g>
   <g id="patch_14">
    <path d="M 851.04 621.937318 
L 851.04 445.925364 
" style="fill: none; stroke: #cccccc; stroke-width: 1.25; stroke-linejoin: miter; stroke-linecap: square"/>
   </g>
   <g id="patch_15">
    <path d="M 53.375 621.937318 
L 851.04 621.937318 
" style="fill: none; stroke: #cccccc; stroke-width: 1.25; stroke-linejoin: miter; stroke-linecap: square"/>
   </g>
   <g id="patch_16">
    <path d="M 53.375 445.925364 
L 851.04 445.925364 
" style="fill: none; stroke: #cccccc; stroke-width: 1.25; stroke-linejoin: miter; stroke-linecap: square"/>
   </g>
   <g id="text_20">
    <!-- Seasonal -->
    <g style="fill: #262626" transform="translate(427.189375 439.925364) scale(0.12 -0.12)">
     <defs>
      <path id="ArialMT-53" d="M 288 1472 
L 859 1522 
Q 900 1178 1048 958 
Q 1197 738 1509 602 
Q 1822 466 2213 466 
Q 2559 466 2825 569 
Q 3091 672 3220 851 
Q 3350 1031 3350 1244 
Q 3350 1459 3225 1620 
Q 3100 1781 2813 1891 
Q 2628 1963 1997 2114 
Q 1366 2266 1113 2400 
Q 784 2572 623 2826 
Q 463 3081 463 3397 
Q 463 3744 659 4045 
Q 856 4347 1234 4503 
Q 1613 4659 2075 4659 
Q 2584 4659 2973 4495 
Q 3363 4331 3572 4012 
Q 3781 3694 3797 3291 
L 3216 3247 
Q 3169 3681 2898 3903 
Q 2628 4125 2100 4125 
Q 1550 4125 1298 3923 
Q 1047 3722 1047 3438 
Q 1047 3191 1225 3031 
Q 1400 2872 2139 2705 
Q 2878 2538 3153 2413 
Q 3553 2228 3743 1945 
Q 3934 1663 3934 1294 
Q 3934 928 3725 604 
Q 3516 281 3123 101 
Q 2731 -78 2241 -78 
Q 1619 -78 1198 103 
Q 778 284 539 648 
Q 300 1013 288 1472 
z
" transform="scale(0.015625)"/>
      <path id="ArialMT-73" d="M 197 991 
L 753 1078 
Q 800 744 1014 566 
Q 1228 388 1613 388 
Q 2000 388 2187 545 
Q 2375 703 2375 916 
Q 2375 1106 2209 1216 
Q 2094 1291 1634 1406 
Q 1016 1563 777 1677 
Q 538 1791 414 1992 
Q 291 2194 291 2438 
Q 291 2659 392 2848 
Q 494 3038 669 3163 
Q 800 3259 1026 3326 
Q 1253 3394 1513 3394 
Q 1903 3394 2198 3281 
Q 2494 3169 2634 2976 
Q 2775 2784 2828 2463 
L 2278 2388 
Q 2241 2644 2061 2787 
Q 1881 2931 1553 2931 
Q 1166 2931 1000 2803 
Q 834 2675 834 2503 
Q 834 2394 903 2306 
Q 972 2216 1119 2156 
Q 1203 2125 1616 2013 
Q 2213 1853 2448 1751 
Q 2684 1650 2818 1456 
Q 2953 1263 2953 975 
Q 2953 694 2789 445 
Q 2625 197 2315 61 
Q 2006 -75 1616 -75 
Q 969 -75 630 194 
Q 291 463 197 991 
z
" transform="scale(0.015625)"/>
      <path id="ArialMT-6f" d="M 213 1659 
Q 213 2581 725 3025 
Q 1153 3394 1769 3394 
Q 2453 3394 2887 2945 
Q 3322 2497 3322 1706 
Q 3322 1066 3130 698 
Q 2938 331 2570 128 
Q 2203 -75 1769 -75 
Q 1072 -75 642 372 
Q 213 819 213 1659 
z
M 791 1659 
Q 791 1022 1069 705 
Q 1347 388 1769 388 
Q 2188 388 2466 706 
Q 2744 1025 2744 1678 
Q 2744 2294 2464 2611 
Q 2184 2928 1769 2928 
Q 1347 2928 1069 2612 
Q 791 2297 791 1659 
z
" transform="scale(0.015625)"/>
     </defs>
     <use xlink:href="#ArialMT-53"/>
     <use xlink:href="#ArialMT-65" transform="translate(66.699219 0)"/>
     <use xlink:href="#ArialMT-61" transform="translate(122.314453 0)"/>
     <use xlink:href="#ArialMT-73" transform="translate(177.929688 0)"/>
     <use xlink:href="#ArialMT-6f" transform="translate(227.929688 0)"/>
     <use xlink:href="#ArialMT-6e" transform="translate(283.544922 0)"/>
     <use xlink:href="#ArialMT-61" transform="translate(339.160156 0)"/>
     <use xlink:href="#ArialMT-6c" transform="translate(394.775391 0)"/>
    </g>
   </g>
  </g>
  <g id="axes_4">
   <g id="patch_17">
    <path d="M 53.375 831.1 
L 851.04 831.1 
L 851.04 655.088045 
L 53.375 655.088045 
z
" style="fill: #ffffff"/>
   </g>
   <g id="matplotlib.axis_7">
    <g id="xtick_22">
     <g id="line2d_42">
      <path d="M 89.6325 831.1 
L 89.6325 655.088045 
" clip-path="url(#pbfd2b708c6)" style="fill: none; stroke: #cccccc; stroke-linecap: round"/>
     </g>
     <g id="text_21">
      <!-- 2024-09 -->
      <g style="fill: #262626" transform="translate(69.450078 848.473594) scale(0.11 -0.11)">
       <defs>
        <path id="ArialMT-2d" d="M 203 1375 
L 203 1941 
L 1931 1941 
L 1931 1375 
L 203 1375 
z
" transform="scale(0.015625)"/>
        <path id="ArialMT-39" d="M 350 1059 
L 891 1109 
Q 959 728 1153 556 
Q 1347 384 1650 384 
Q 1909 384 2104 503 
Q 2300 622 2425 820 
Q 2550 1019 2634 1356 
Q 2719 1694 2719 2044 
Q 2719 2081 2716 2156 
Q 2547 1888 2255 1720 
Q 1963 1553 1622 1553 
Q 1053 1553 659 1965 
Q 266 2378 266 3053 
Q 266 3750 677 4175 
Q 1088 4600 1706 4600 
Q 2153 4600 2523 4359 
Q 2894 4119 3086 3673 
Q 3278 3228 3278 2384 
Q 3278 1506 3087 986 
Q 2897 466 2520 194 
Q 2144 -78 1638 -78 
Q 1100 -78 759 220 
Q 419 519 350 1059 
z
M 2653 3081 
Q 2653 3566 2395 3850 
Q 2138 4134 1775 4134 
Q 1400 4134 1122 3828 
Q 844 3522 844 3034 
Q 844 2597 1108 2323 
Q 1372 2050 1759 2050 
Q 2150 2050 2401 2323 
Q 2653 2597 2653 3081 
z
" transform="scale(0.015625)"/>
       </defs>
       <use xlink:href="#ArialMT-32"/>
       <use xlink:href="#ArialMT-30" transform="translate(55.615234 0)"/>
       <use xlink:href="#ArialMT-32" transform="translate(111.230469 0)"/>
       <use xlink:href="#ArialMT-34" transform="translate(166.845703 0)"/>
       <use xlink:href="#ArialMT-2d" transform="translate(222.460938 0)"/>
       <use xlink:href="#ArialMT-30" transform="translate(255.761719 0)"/>
       <use xlink:href="#ArialMT-39" transform="translate(311.376953 0)"/>
      </g>
     </g>
    </g>
    <g id="xtick_23">
     <g id="line2d_43">
      <path d="M 201.901916 831.1 
L 201.901916 655.088045 
" clip-path="url(#pbfd2b708c6)" style="fill: none; stroke: #cccccc; stroke-linecap: round"/>
     </g>
     <g id="text_22">
      <!-- 2024-11 -->
      <g style="fill: #262626" transform="translate(182.125119 848.473594) scale(0.11 -0.11)">
       <use xlink:href="#ArialMT-32"/>
       <use xlink:href="#ArialMT-30" transform="translate(55.615234 0)"/>
       <use xlink:href="#ArialMT-32" transform="translate(111.230469 0)"/>
       <use xlink:href="#ArialMT-34" transform="translate(166.845703 0)"/>
       <use xlink:href="#ArialMT-2d" transform="translate(222.460938 0)"/>
       <use xlink:href="#ArialMT-31" transform="translate(255.761719 0)"/>
       <use xlink:href="#ArialMT-31" transform="translate(304.001953 0)"/>
      </g>
     </g>
    </g>
    <g id="xtick_24">
     <g id="line2d_44">
      <path d="M 314.171332 831.1 
L 314.171332 655.088045 
" clip-path="url(#pbfd2b708c6)" style="fill: none; stroke: #cccccc; stroke-linecap: round"/>
     </g>
     <g id="text_23">
      <!-- 2025-01 -->
      <g style="fill: #262626" transform="translate(293.988911 848.473594) scale(0.11 -0.11)">
       <defs>
        <path id="ArialMT-35" d="M 266 1200 
L 856 1250 
Q 922 819 1161 601 
Q 1400 384 1738 384 
Q 2144 384 2425 690 
Q 2706 997 2706 1503 
Q 2706 1984 2436 2262 
Q 2166 2541 1728 2541 
Q 1456 2541 1237 2417 
Q 1019 2294 894 2097 
L 366 2166 
L 809 4519 
L 3088 4519 
L 3088 3981 
L 1259 3981 
L 1013 2750 
Q 1425 3038 1878 3038 
Q 2478 3038 2890 2622 
Q 3303 2206 3303 1553 
Q 3303 931 2941 478 
Q 2500 -78 1738 -78 
Q 1113 -78 717 272 
Q 322 622 266 1200 
z
" transform="scale(0.015625)"/>
       </defs>
       <use xlink:href="#ArialMT-32"/>
       <use xlink:href="#ArialMT-30" transform="translate(55.615234 0)"/>
       <use xlink:href="#ArialMT-32" transform="translate(111.230469 0)"/>
       <use xlink:href="#ArialMT-35" transform="translate(166.845703 0)"/>
       <use xlink:href="#ArialMT-2d" transform="translate(222.460938 0)"/>
       <use xlink:href="#ArialMT-30" transform="translate(255.761719 0)"/>
       <use xlink:href="#ArialMT-31" transform="translate(311.376953 0)"/>
      </g>
     </g>
    </g>
    <g id="xtick_25">
     <g id="line2d_45">
      <path d="M 422.759784 831.1 
L 422.759784 655.088045 
" clip-path="url(#pbfd2b708c6)" style="fill: none; stroke: #cccccc; stroke-linecap: round"/>
     </g>
     <g id="text_24">
      <!-- 2025-03 -->
      <g style="fill: #262626" transform="translate(402.577362 848.473594) scale(0.11 -0.11)">
       <defs>
        <path id="ArialMT-33" d="M 269 1209 
L 831 1284 
Q 928 806 1161 595 
Q 1394 384 1728 384 
Q 2125 384 2398 659 
Q 2672 934 2672 1341 
Q 2672 1728 2419 1979 
Q 2166 2231 1775 2231 
Q 1616 2231 1378 2169 
L 1441 2663 
Q 1497 2656 1531 2656 
Q 1891 2656 2178 2843 
Q 2466 3031 2466 3422 
Q 2466 3731 2256 3934 
Q 2047 4138 1716 4138 
Q 1388 4138 1169 3931 
Q 950 3725 888 3313 
L 325 3413 
Q 428 3978 793 4289 
Q 1159 4600 1703 4600 
Q 2078 4600 2393 4439 
Q 2709 4278 2876 4000 
Q 3044 3722 3044 3409 
Q 3044 3113 2884 2869 
Q 2725 2625 2413 2481 
Q 2819 2388 3044 2092 
Q 3269 1797 3269 1353 
Q 3269 753 2831 336 
Q 2394 -81 1725 -81 
Q 1122 -81 723 278 
Q 325 638 269 1209 
z
" transform="scale(0.015625)"/>
       </defs>
       <use xlink:href="#ArialMT-32"/>
       <use xlink:href="#ArialMT-30" transform="translate(55.615234 0)"/>
       <use xlink:href="#ArialMT-32" transform="translate(111.230469 0)"/>
       <use xlink:href="#ArialMT-35" transform="translate(166.845703 0)"/>
       <use xlink:href="#ArialMT-2d" transform="translate(222.460938 0)"/>
       <use xlink:href="#ArialMT-30" transform="translate(255.761719 0)"/>
       <use xlink:href="#ArialMT-33" transform="translate(311.376953 0)"/>
      </g>
     </g>
    </g>
    <g id="xtick_26">
     <g id="line2d_46">
      <path d="M 535.029201 831.1 
L 535.029201 655.088045 
" clip-path="url(#pbfd2b708c6)" style="fill: none; stroke: #cccccc; stroke-linecap: round"/>
     </g>
     <g id="text_25">
      <!-- 2025-05 -->
      <g style="fill: #262626" transform="translate(514.846779 848.473594) scale(0.11 -0.11)">
       <use xlink:href="#ArialMT-32"/>
       <use xlink:href="#ArialMT-30" transform="translate(55.615234 0)"/>
       <use xlink:href="#ArialMT-32" transform="translate(111.230469 0)"/>
       <use xlink:href="#ArialMT-35" transform="translate(166.845703 0)"/>
       <use xlink:href="#ArialMT-2d" transform="translate(222.460938 0)"/>
       <use xlink:href="#ArialMT-30" transform="translate(255.761719 0)"/>
       <use xlink:href="#ArialMT-35" transform="translate(311.376953 0)"/>
      </g>
     </g>
    </g>
    <g id="xtick_27">
     <g id="line2d_47">
      <path d="M 647.298617 831.1 
L 647.298617 655.088045 
" clip-path="url(#pbfd2b708c6)" style="fill: none; stroke: #cccccc; stroke-linecap: round"/>
     </g>
     <g id="text_26">
      <!-- 2025-07 -->
      <g style="fill: #262626" transform="translate(627.116195 848.473594) scale(0.11 -0.11)">
       <defs>
        <path id="ArialMT-37" d="M 303 3981 
L 303 4522 
L 3269 4522 
L 3269 4084 
Q 2831 3619 2401 2847 
Q 1972 2075 1738 1259 
Q 1569 684 1522 0 
L 944 0 
Q 953 541 1156 1306 
Q 1359 2072 1739 2783 
Q 2119 3494 2547 3981 
L 303 3981 
z
" transform="scale(0.015625)"/>
       </defs>
       <use xlink:href="#ArialMT-32"/>
       <use xlink:href="#ArialMT-30" transform="translate(55.615234 0)"/>
       <use xlink:href="#ArialMT-32" transform="translate(111.230469 0)"/>
       <use xlink:href="#ArialMT-35" transform="translate(166.845703 0)"/>
       <use xlink:href="#ArialMT-2d" transform="translate(222.460938 0)"/>
       <use xlink:href="#ArialMT-30" transform="translate(255.761719 0)"/>
       <use xlink:href="#ArialMT-37" transform="translate(311.376953 0)"/>
      </g>
     </g>
    </g>
    <g id="xtick_28">
     <g id="line2d_48">
      <path d="M 761.408515 831.1 
L 761.408515 655.088045 
" clip-path="url(#pbfd2b708c6)" style="fill: none; stroke: #cccccc; stroke-linecap: round"/>
     </g>
     <g id="text_27">
      <!-- 2025-09 -->
      <g style="fill: #262626" transform="translate(741.226093 848.473594) scale(0.11 -0.11)">
       <use xlink:href="#ArialMT-32"/>
       <use xlink:href="#ArialMT-30" transform="translate(55.615234 0)"/>
       <use xlink:href="#ArialMT-32" transform="translate(111.230469 0)"/>
       <use xlink:href="#ArialMT-35" transform="translate(166.845703 0)"/>
       <use xlink:href="#ArialMT-2d" transform="translate(222.460938 0)"/>
       <use xlink:href="#ArialMT-30" transform="translate(255.761719 0)"/>
       <use xlink:href="#ArialMT-39" transform="translate(311.376953 0)"/>
      </g>
     </g>
    </g>
   </g>
   <g id="matplotlib.axis_8">
    <g id="ytick_18">
     <g id="line2d_49">
      <path d="M 53.375 824.186064 
L 851.04 824.186064 
" clip-path="url(#pbfd2b708c6)" style="fill: none; stroke: #cccccc; stroke-linecap: round"/>
     </g>
     <g id="text_28">
      <!-- −6000 -->
      <g style="fill: #262626" transform="translate(12.982188 828.122861) scale(0.11 -0.11)">
       <use xlink:href="#ArialMT-2212"/>
       <use xlink:href="#ArialMT-36" transform="translate(58.398438 0)"/>
       <use xlink:href="#ArialMT-30" transform="translate(114.013672 0)"/>
       <use xlink:href="#ArialMT-30" transform="translate(169.628906 0)"/>
       <use xlink:href="#ArialMT-30" transform="translate(225.244141 0)"/>
      </g>
     </g>
    </g>
    <g id="ytick_19">
     <g id="line2d_50">
      <path d="M 53.375 792.706678 
L 851.04 792.706678 
" clip-path="url(#pbfd2b708c6)" style="fill: none; stroke: #cccccc; stroke-linecap: round"/>
     </g>
     <g id="text_29">
      <!-- −4000 -->
      <g style="fill: #262626" transform="translate(12.982188 796.643475) scale(0.11 -0.11)">
       <use xlink:href="#ArialMT-2212"/>
       <use xlink:href="#ArialMT-34" transform="translate(58.398438 0)"/>
       <use xlink:href="#ArialMT-30" transform="translate(114.013672 0)"/>
       <use xlink:href="#ArialMT-30" transform="translate(169.628906 0)"/>
       <use xlink:href="#ArialMT-30" transform="translate(225.244141 0)"/>
      </g>
     </g>
    </g>
    <g id="ytick_20">
     <g id="line2d_51">
      <path d="M 53.375 761.227293 
L 851.04 761.227293 
" clip-path="url(#pbfd2b708c6)" style="fill: none; stroke: #cccccc; stroke-linecap: round"/>
     </g>
     <g id="text_30">
      <!-- −2000 -->
      <g style="fill: #262626" transform="translate(12.982188 765.164089) scale(0.11 -0.11)">
       <use xlink:href="#ArialMT-2212"/>
       <use xlink:href="#ArialMT-32" transform="translate(58.398438 0)"/>
       <use xlink:href="#ArialMT-30" transform="translate(114.013672 0)"/>
       <use xlink:href="#ArialMT-30" transform="translate(169.628906 0)"/>
       <use xlink:href="#ArialMT-30" transform="translate(225.244141 0)"/>
      </g>
     </g>
    </g>
    <g id="ytick_21">
     <g id="line2d_52">
      <path d="M 53.375 729.747907 
L 851.04 729.747907 
" clip-path="url(#pbfd2b708c6)" style="fill: none; stroke: #cccccc; stroke-linecap: round"/>
     </g>
     <g id="text_31">
      <!-- 0 -->
      <g style="fill: #262626" transform="translate(37.757969 733.684704) scale(0.11 -0.11)">
       <use xlink:href="#ArialMT-30"/>
      </g>
     </g>
    </g>
    <g id="ytick_22">
     <g id="line2d_53">
      <path d="M 53.375 698.268521 
L 851.04 698.268521 
" clip-path="url(#pbfd2b708c6)" style="fill: none; stroke: #cccccc; stroke-linecap: round"/>
     </g>
     <g id="text_32">
      <!-- 2000 -->
      <g style="fill: #262626" transform="translate(19.406875 702.205318) scale(0.11 -0.11)">
       <use xlink:href="#ArialMT-32"/>
       <use xlink:href="#ArialMT-30" transform="translate(55.615234 0)"/>
       <use xlink:href="#ArialMT-30" transform="translate(111.230469 0)"/>
       <use xlink:href="#ArialMT-30" transform="translate(166.845703 0)"/>
      </g>
     </g>
    </g>
    <g id="ytick_23">
     <g id="line2d_54">
      <path d="M 53.375 666.789135 
L 851.04 666.789135 
" clip-path="url(#pbfd2b708c6)" style="fill: none; stroke: #cccccc; stroke-linecap: round"/>
     </g>
     <g id="text_33">
      <!-- 4000 -->
      <g style="fill: #262626" transform="translate(19.406875 670.725932) scale(0.11 -0.11)">
       <use xlink:href="#ArialMT-34"/>
       <use xlink:href="#ArialMT-30" transform="translate(55.615234 0)"/>
       <use xlink:href="#ArialMT-30" transform="translate(111.230469 0)"/>
       <use xlink:href="#ArialMT-30" transform="translate(166.845703 0)"/>
      </g>
     </g>
    </g>
   </g>
   <g id="line2d_55">
    <path d="M 117.239734 737.586461 
L 119.080216 726.223421 
L 120.920698 785.20449 
L 122.76118 736.419302 
L 124.601662 735.171142 
L 126.442145 708.846578 
L 128.282627 732.188119 
L 130.123109 692.867988 
L 131.963591 711.833506 
L 133.804074 772.932683 
L 135.644556 702.233918 
L 137.485038 691.158858 
L 139.32552 730.382172 
L 141.166003 717.822335 
L 143.006485 728.769912 
L 144.846967 747.575986 
L 146.687449 791.560343 
L 148.527931 743.415338 
L 150.368414 752.370086 
L 152.208896 725.427794 
L 154.049378 739.078606 
L 155.88986 718.469011 
L 157.730343 715.137439 
L 159.570825 757.684607 
L 161.411307 701.426786 
L 163.251789 735.696758 
L 165.092272 699.846823 
L 166.932754 719.281916 
L 168.773236 723.012507 
L 170.613718 732.814726 
L 172.454201 771.896741 
L 174.294683 716.270439 
L 176.135165 725.765913 
L 177.975647 699.858992 
L 179.816129 716.829901 
L 181.656612 686.003037 
L 183.497094 703.466676 
L 185.337576 776.444008 
L 187.178058 705.632067 
L 189.018541 707.064692 
L 190.859023 712.842471 
L 192.699505 732.289298 
L 194.539987 700.739084 
L 196.38047 752.346477 
L 198.220952 776.177413 
L 200.061434 706.569521 
L 201.901916 744.056376 
L 203.742398 757.69806 
L 205.582881 727.138676 
L 207.423363 738.074217 
L 209.263845 751.061759 
L 211.104327 784.916801 
L 212.94481 709.806877 
L 214.785292 688.031219 
L 216.625774 697.402671 
L 218.466256 698.913096 
L 220.306739 706.698836 
L 222.147221 694.011839 
L 223.987703 771.627119 
L 225.828185 705.730891 
L 227.668668 725.313247 
L 229.50915 688.02943 
L 231.349632 708.32758 
L 233.190114 672.997333 
L 235.030596 686.742355 
L 236.871079 806.689756 
L 238.711561 739.493086 
L 240.552043 723.997604 
L 242.392525 765.710475 
L 244.233008 727.479073 
L 246.07349 716.562285 
L 247.913972 738.273005 
L 249.754454 823.099457 
L 251.594937 721.018366 
L 253.435419 737.057734 
L 255.275901 710.975953 
L 257.116383 737.557404 
L 258.956865 718.305333 
L 260.797348 729.878065 
L 262.63783 817.583695 
L 264.478312 699.225704 
L 266.318794 725.294792 
L 268.159277 710.357819 
L 269.999759 731.252416 
L 271.840241 736.683698 
L 273.680723 713.015861 
L 275.521206 798.455999 
L 277.361688 741.813286 
L 279.20217 733.033445 
L 281.042652 749.733023 
L 282.883135 746.333231 
L 284.723617 757.607868 
L 286.564099 709.658709 
L 288.404581 689.552491 
L 290.245063 726.578768 
L 292.085546 725.331283 
L 293.926028 724.81145 
L 295.76651 735.706186 
L 297.606992 718.139877 
L 299.447475 711.343265 
L 301.287957 729.10682 
L 303.128439 728.13402 
L 304.968921 733.496008 
L 306.809404 717.982355 
L 308.649886 722.460918 
L 310.490368 724.118597 
L 312.33085 721.744259 
L 314.171332 721.327354 
L 316.011815 730.166626 
L 317.852297 729.016444 
L 319.692779 722.819503 
L 321.533261 759.764719 
L 323.373744 745.399622 
L 325.214226 739.856781 
L 327.054708 764.737078 
L 328.89519 759.190873 
L 330.735673 712.260194 
L 332.576155 747.993739 
L 334.416637 723.846711 
L 336.257119 722.03641 
L 338.097602 704.156101 
L 339.938084 754.727504 
L 341.778566 684.763762 
L 343.619048 695.93756 
L 345.45953 723.645938 
L 347.300013 724.32919 
L 349.140495 715.986728 
L 350.980977 731.459966 
L 352.821459 765.724465 
L 354.661942 734.260258 
L 356.502424 721.803603 
L 358.342906 710.337673 
L 360.183388 729.776194 
L 362.023871 716.85959 
L 363.864353 708.158784 
L 365.704835 710.886761 
L 367.545317 723.076887 
L 369.385799 718.488963 
L 371.226282 711.132091 
L 373.066764 698.549645 
L 374.907246 706.061977 
L 376.747728 677.283482 
L 378.588211 744.465786 
L 380.428693 719.793867 
L 382.269175 777.339325 
L 384.109657 767.999855 
L 385.95014 779.437203 
L 387.790622 766.503618 
L 389.631104 741.511893 
L 391.471586 741.6743 
L 393.312069 733.227314 
L 395.152551 739.208167 
L 396.993033 719.747852 
L 398.833515 748.749476 
L 400.673997 719.983837 
L 402.51448 694.659869 
L 404.354962 780.708346 
L 406.195444 698.614726 
L 408.035926 690.29811 
L 409.876409 737.077663 
L 411.716891 734.195987 
L 413.557373 727.352281 
L 415.397855 712.2448 
L 417.238338 782.431151 
L 419.07882 727.988174 
L 420.919302 782.18757 
L 422.759784 698.376062 
L 424.600266 734.574929 
L 426.440749 712.244362 
L 428.281231 718.372914 
L 430.121713 796.472523 
L 431.962195 721.989456 
L 433.802678 749.077463 
L 435.64316 747.076054 
L 437.483642 764.212421 
L 439.324124 779.920049 
L 441.164607 715.943282 
L 443.005089 770.003076 
L 444.845571 722.939055 
L 446.686053 731.758294 
L 448.526536 690.504541 
L 450.367018 698.673211 
L 452.2075 738.1528 
L 454.047982 747.065329 
L 455.888464 762.108449 
L 457.728947 700.724949 
L 459.569429 671.16533 
L 461.409911 713.187932 
L 463.250393 706.592189 
L 465.090876 668.541793 
L 468.77184 768.773907 
L 470.612322 671.9302 
L 472.452805 697.599453 
L 474.293287 728.638748 
L 476.133769 727.801685 
L 477.974251 734.823944 
L 479.814734 722.549804 
L 481.655216 786.362576 
L 483.495698 736.674678 
L 485.33618 725.608926 
L 487.176662 730.934848 
L 489.017145 722.508862 
L 490.857627 725.145415 
L 492.698109 749.128549 
L 494.538591 751.399725 
L 498.219556 718.245719 
L 500.060038 728.804714 
L 501.90052 740.792877 
L 503.741003 718.479222 
L 505.581485 731.479977 
L 507.421967 752.601838 
L 509.262449 745.108361 
L 511.102931 722.00901 
L 512.943414 735.289263 
L 514.783896 713.872363 
L 516.624378 712.658029 
L 518.46486 702.914347 
L 520.305343 724.984332 
L 522.145825 737.606254 
L 525.826789 718.892197 
L 527.667272 733.43611 
L 529.507754 716.629362 
L 531.348236 734.611725 
L 533.188718 719.220662 
L 535.029201 730.136336 
L 536.869683 728.902204 
L 538.710165 720.385845 
L 540.550647 718.024144 
L 542.391129 692.58771 
L 544.231612 723.432257 
L 546.072094 743.30902 
L 547.912576 704.931491 
L 549.753058 711.090372 
L 551.593541 721.835174 
L 553.434023 724.305501 
L 555.274505 744.192887 
L 557.114987 734.386822 
L 558.95547 746.553587 
L 560.795952 732.781125 
L 562.636434 751.736155 
L 564.476916 753.077892 
L 566.317398 748.609091 
L 568.157881 742.991219 
L 569.998363 754.839287 
L 571.838845 730.655494 
L 573.679327 735.469278 
L 575.51981 742.903972 
L 577.360292 746.226359 
L 579.200774 732.163381 
L 581.041256 707.055947 
L 582.881739 713.894408 
L 584.722221 705.817943 
L 586.562703 702.266656 
L 588.403185 716.046491 
L 590.243668 731.768017 
L 592.08415 702.921218 
L 593.924632 698.754261 
L 595.765114 731.102079 
L 597.605596 750.654881 
L 599.446079 739.429084 
L 601.286561 742.186256 
L 603.127043 728.20525 
L 604.967525 708.6035 
L 606.808008 677.270857 
L 608.64849 663.088589 
L 610.488972 682.991662 
L 612.329454 707.965177 
L 614.169937 752.760273 
L 616.010419 746.427439 
L 617.850901 754.312218 
L 619.691383 736.330858 
L 621.531865 731.143279 
L 623.372348 756.364764 
L 625.21283 758.15681 
L 627.053312 774.965975 
L 628.893794 789.257803 
L 630.734277 772.828124 
L 632.574759 771.391877 
L 634.415241 741.400705 
L 636.255723 752.534665 
L 638.096206 754.837719 
L 639.936688 741.144807 
L 641.77717 758.934797 
L 643.617652 736.980282 
L 645.458135 735.687201 
L 647.298617 734.049084 
L 649.139099 721.917842 
L 650.979581 715.302927 
L 652.820063 729.173752 
L 654.660546 734.674962 
L 656.501028 728.543667 
L 658.34151 726.592352 
L 660.181992 695.279431 
L 662.022475 724.061238 
L 663.862957 721.971462 
L 665.703439 701.123841 
L 667.543921 714.266248 
L 669.384404 692.786796 
L 671.224886 720.902904 
L 673.065368 713.441482 
L 674.90585 757.054787 
L 676.746332 733.399301 
L 678.586815 731.181203 
L 680.427297 739.339186 
L 682.267779 733.873637 
L 684.108261 734.413971 
L 685.948744 733.129251 
L 687.789226 735.069168 
L 689.629708 736.569747 
L 691.47019 734.918953 
L 693.310673 709.220592 
L 695.151155 724.976646 
L 696.991637 742.770133 
L 698.832119 728.139821 
L 700.672602 734.590669 
L 702.513084 719.154088 
L 706.194048 725.815292 
L 708.03453 743.101631 
L 709.875013 743.836146 
L 711.715495 721.032108 
L 713.555977 687.638815 
L 715.396459 716.961277 
L 717.236942 732.664082 
L 719.077424 721.314959 
L 720.917906 728.694536 
L 722.758388 746.537865 
L 724.598871 730.437891 
L 726.439353 722.247774 
L 728.279835 715.770957 
L 730.120317 746.60738 
L 731.960799 732.286282 
L 733.801282 747.74161 
L 735.641764 726.125341 
L 737.482246 735.721178 
L 739.322728 734.166633 
L 741.163211 727.607614 
L 743.003693 735.74897 
L 744.844175 725.657641 
L 746.684657 745.083046 
L 748.52514 742.704166 
L 750.365622 742.332281 
L 752.206104 711.453338 
L 754.046586 708.570189 
L 755.887069 711.610717 
L 757.727551 725.833646 
L 759.568033 732.931902 
L 761.408515 729.579282 
L 763.248997 725.981638 
L 765.08948 722.026406 
L 766.929962 716.241313 
L 768.770444 721.854284 
L 770.610926 722.081924 
L 772.451409 756.396916 
L 774.291891 771.619018 
L 776.132373 758.37435 
L 777.972855 732.456087 
L 779.813338 740.130043 
L 781.65382 755.586191 
L 783.494302 730.681692 
L 785.334784 761.405687 
L 787.175266 751.658093 
L 787.175266 751.658093 
" clip-path="url(#pbfd2b708c6)" style="fill: none; stroke: #4878d0; stroke-width: 1.5; stroke-linecap: round"/>
   </g>
   <g id="patch_18">
    <path d="M 53.375 831.1 
L 53.375 655.088045 
" style="fill: none; stroke: #cccccc; stroke-width: 1.25; stroke-linejoin: miter; stroke-linecap: square"/>
   </g>
   <g id="patch_19">
    <path d="M 851.04 831.1 
L 851.04 655.088045 
" style="fill: none; stroke: #cccccc; stroke-width: 1.25; stroke-linejoin: miter; stroke-linecap: square"/>
   </g>
   <g id="patch_20">
    <path d="M 53.375 831.1 
L 851.04 831.1 
" style="fill: none; stroke: #cccccc; stroke-width: 1.25; stroke-linejoin: miter; stroke-linecap: square"/>
   </g>
   <g id="patch_21">
    <path d="M 53.375 655.088045 
L 851.04 655.088045 
" style="fill: none; stroke: #cccccc; stroke-width: 1.25; stroke-linejoin: miter; stroke-linecap: square"/>
   </g>
   <g id="text_34">
    <!-- Residual -->
    <g style="fill: #262626" transform="translate(428.861875 649.088045) scale(0.12 -0.12)">
     <defs>
      <path id="ArialMT-52" d="M 503 0 
L 503 4581 
L 2534 4581 
Q 3147 4581 3465 4457 
Q 3784 4334 3975 4021 
Q 4166 3709 4166 3331 
Q 4166 2844 3850 2509 
Q 3534 2175 2875 2084 
Q 3116 1969 3241 1856 
Q 3506 1613 3744 1247 
L 4541 0 
L 3778 0 
L 3172 953 
Q 2906 1366 2734 1584 
Q 2563 1803 2427 1890 
Q 2291 1978 2150 2013 
Q 2047 2034 1813 2034 
L 1109 2034 
L 1109 0 
L 503 0 
z
M 1109 2559 
L 2413 2559 
Q 2828 2559 3062 2645 
Q 3297 2731 3419 2920 
Q 3541 3109 3541 3331 
Q 3541 3656 3305 3865 
Q 3069 4075 2559 4075 
L 1109 4075 
L 1109 2559 
z
" transform="scale(0.015625)"/>
      <path id="ArialMT-75" d="M 2597 0 
L 2597 488 
Q 2209 -75 1544 -75 
Q 1250 -75 995 37 
Q 741 150 617 320 
Q 494 491 444 738 
Q 409 903 409 1263 
L 409 3319 
L 972 3319 
L 972 1478 
Q 972 1038 1006 884 
Q 1059 663 1231 536 
Q 1403 409 1656 409 
Q 1909 409 2131 539 
Q 2353 669 2445 892 
Q 2538 1116 2538 1541 
L 2538 3319 
L 3100 3319 
L 3100 0 
L 2597 0 
z
" transform="scale(0.015625)"/>
     </defs>
     <use xlink:href="#ArialMT-52"/>
     <use xlink:href="#ArialMT-65" transform="translate(72.216797 0)"/>
     <use xlink:href="#ArialMT-73" transform="translate(127.832031 0)"/>
     <use xlink:href="#ArialMT-69" transform="translate(177.832031 0)"/>
     <use xlink:href="#ArialMT-64" transform="translate(200.048828 0)"/>
     <use xlink:href="#ArialMT-75" transform="translate(255.664062 0)"/>
     <use xlink:href="#ArialMT-61" transform="translate(311.279297 0)"/>
     <use xlink:href="#ArialMT-6c" transform="translate(366.894531 0)"/>
    </g>
   </g>
  </g>
 </g>
 <defs>
  <clipPath id="p6d3ab88ffa">
   <rect x="53.375" y="27.6" width="797.665" height="176.011955"/>
  </clipPath>
  <clipPath id="p86d2b18837">
   <rect x="53.375" y="236.762682" width="797.665" height="176.011955"/>
  </clipPath>
  <clipPath id="p379b498345">
   <rect x="53.375" y="445.925364" width="797.665" height="176.011955"/>
  </clipPath>
  <clipPath id="pbfd2b708c6">
   <rect x="53.375" y="655.088045" width="797.665" height="176.011955"/>
  </clipPath>
 </defs>
</svg>
